<?xml version="1.0" encoding="UTF-8" standalone="no"?>
<svg
   id="Layer_1"
   data-name="Layer 1"
   viewBox="0 0 816 1056"
   version="1.1"
   sodipodi:docname="30_Subgraphfeatures.svg"
   xml:space="preserve"
   width="8.5in"
   height="11in"
   inkscape:version="1.4 (1:1.4+202410161351+e7c3feb100)"
   xmlns:inkscape="http://www.inkscape.org/namespaces/inkscape"
   xmlns:sodipodi="http://sodipodi.sourceforge.net/DTD/sodipodi-0.dtd"
   xmlns="http://www.w3.org/2000/svg"
   xmlns:svg="http://www.w3.org/2000/svg"><sodipodi:namedview
     id="namedview67"
     pagecolor="#ffffff"
     bordercolor="#000000"
     borderopacity="0.25"
     inkscape:showpageshadow="2"
     inkscape:pageopacity="0.0"
     inkscape:pagecheckerboard="0"
     inkscape:deskcolor="#d1d1d1"
     inkscape:zoom="1.3459119"
     inkscape:cx="409.38787"
     inkscape:cy="70.95561"
     inkscape:window-width="1854"
     inkscape:window-height="1011"
     inkscape:window-x="0"
     inkscape:window-y="0"
     inkscape:window-maximized="1"
     inkscape:current-layer="Layer_1"
     inkscape:document-units="in" /><defs
     id="defs2"><marker
       style="overflow:visible"
       id="Triangle"
       refX="0"
       refY="0"
       orient="auto-start-reverse"
       inkscape:stockid="Triangle arrow"
       markerWidth="1"
       markerHeight="1"
       viewBox="0 0 1 1"
       inkscape:isstock="true"
       inkscape:collect="always"
       preserveAspectRatio="xMidYMid"><path
         transform="scale(0.5)"
         style="fill:context-stroke;fill-rule:evenodd;stroke:context-stroke;stroke-width:1pt"
         d="M 5.77,0 -2.88,5 V -5 Z"
         id="path135" /></marker><style
       id="style1">.cls-1,.cls-4{font-size:17px;font-family:Roboto-Regular, Roboto;}.cls-1,.cls-15,.cls-3{fill:gray;}.cls-2{letter-spacing:-0.01em;}.cls-14,.cls-4{fill:#b3b3b3;}.cls-5{letter-spacing:0.02em;}.cls-6{letter-spacing:-0.02em;}.cls-10,.cls-7{fill:#76b7b2;}.cls-7{stroke:#999;stroke-linecap:round;}.cls-15,.cls-7{stroke-linejoin:round;}.cls-10,.cls-11,.cls-12,.cls-13,.cls-7,.cls-8,.cls-9{fill-rule:evenodd;}.cls-11,.cls-12,.cls-13,.cls-8,.cls-9{fill:#fff;}.cls-11,.cls-13,.cls-8{stroke:#ffbb12;}.cls-17,.cls-18,.cls-19,.cls-8{stroke-miterlimit:10;}.cls-8{stroke-width:4px;}.cls-12,.cls-9{stroke:#c98b00;}.cls-10,.cls-11,.cls-9{stroke-miterlimit:4.12;}.cls-11,.cls-12,.cls-13,.cls-9{stroke-width:3px;}.cls-10,.cls-17,.cls-18{stroke:#000;}.cls-12,.cls-13{stroke-miterlimit:4.42;}.cls-15,.cls-19{stroke:#fff;}.cls-15,.cls-16{stroke-width:0.5px;}.cls-16,.cls-17,.cls-18{fill:none;}.cls-16{stroke:gray;stroke-miterlimit:1.05;}.cls-18{stroke-dasharray:2.03 2.03;}.cls-19{fill:#c98b00;}</style><symbol
       id="agg_fn"
       data-name="agg fn"
       viewBox="0 0 176.87 35.64"><text
         class="cls-1"
         transform="translate(0,21.95)"
         id="text2">agg<tspan
   class="cls-2"
   x="28.34"
   y="0"
   id="tspan1">r</tspan><tspan
   x="33.939999"
   y="0"
   id="tspan2">egation function</tspan></text><path
         class="cls-3"
         d="m 168,21.09 c -0.42,0.41 -0.67,0.68 -0.67,1 0,0.32 0.6,1 2.34,1.83 3.33,1.55 4.33,2.56 4.33,3.9 0,2.56 -4.29,4.7 -7.38,4.7 -3.09,0 -5.63,-1.54 -5.63,-3.46 0,-1.3 1.9,-2.64 5,-4.4 a 1.74,1.74 0 0 1 -1,-1.45 c 0,-0.54 0.78,-1.37 2.12,-2.18 z m 3.48,7.81 c 0,-0.63 -0.3,-1.29 -1.4,-2 a 28,28 0 0 0 -3.28,-1.71 c -2.29,1.29 -3.2,2.38 -3.2,3.36 0,1.52 2,2.63 4.18,2.63 2.18,0 3.72,-1.09 3.72,-2.28 z m -7.26,-11.25 a 6.39,6.39 0 0 1 3,-5.4 7.28,7.28 0 0 1 3.38,-1.06 4,4 0 0 1 2.62,0.82 6.58,6.58 0 0 0 3.37,-0.7 l 0.23,0.69 a 4,4 0 0 1 -2.8,1.54 5.43,5.43 0 0 1 0.18,1.34 5.93,5.93 0 0 1 -2.1,4.59 7.53,7.53 0 0 1 -4.67,1.76 c -2.05,-0.02 -3.19,-1.64 -3.19,-3.58 z m 7.53,-2.56 c 0,-1.75 -0.67,-2.77 -1.92,-2.77 -1.73,0 -3.1,2.45 -3.1,5.07 0,1.69 0.8,2.62 1.85,2.62 1.8,-0.01 3.19,-2.23 3.19,-4.92 z"
         id="path2" /></symbol><clipPath
       id="p587ec55e46-9-3"><rect
         x="99.320312"
         y="0"
         width="669.59998"
         height="432.43201"
         id="rect304-1-1" /></clipPath><clipPath
       id="clipPath1"><rect
         x="99.320312"
         y="0"
         width="669.59998"
         height="432.43201"
         id="rect1" /></clipPath><clipPath
       id="clipPath2"><rect
         x="99.320312"
         y="0"
         width="669.59998"
         height="432.43201"
         id="rect2" /></clipPath><clipPath
       id="clipPath3"><rect
         x="99.320312"
         y="0"
         width="669.59998"
         height="432.43201"
         id="rect3" /></clipPath><clipPath
       id="clipPath4"><rect
         x="99.320312"
         y="0"
         width="669.59998"
         height="432.43201"
         id="rect4" /></clipPath><clipPath
       id="clipPath5"><rect
         x="99.320312"
         y="0"
         width="669.59998"
         height="432.43201"
         id="rect5" /></clipPath><clipPath
       id="clipPath6"><rect
         x="99.320312"
         y="0"
         width="669.59998"
         height="432.43201"
         id="rect6" /></clipPath><clipPath
       id="clipPath7"><rect
         x="99.320312"
         y="0"
         width="669.59998"
         height="432.43201"
         id="rect7" /></clipPath><clipPath
       id="clipPath8"><rect
         x="99.320312"
         y="0"
         width="669.59998"
         height="432.43201"
         id="rect8" /></clipPath><clipPath
       id="p587ec55e46-9-3-9"><rect
         x="99.320312"
         y="0"
         width="669.59998"
         height="432.43201"
         id="rect304-1-1-7" /></clipPath><clipPath
       id="clipPath1-3"><rect
         x="99.320312"
         y="0"
         width="669.59998"
         height="432.43201"
         id="rect1-6" /></clipPath><clipPath
       id="clipPath2-1"><rect
         x="99.320312"
         y="0"
         width="669.59998"
         height="432.43201"
         id="rect2-2" /></clipPath><clipPath
       id="clipPath3-9"><rect
         x="99.320312"
         y="0"
         width="669.59998"
         height="432.43201"
         id="rect3-3" /></clipPath><clipPath
       id="clipPath4-1"><rect
         x="99.320312"
         y="0"
         width="669.59998"
         height="432.43201"
         id="rect4-9" /></clipPath><clipPath
       id="clipPath5-4"><rect
         x="99.320312"
         y="0"
         width="669.59998"
         height="432.43201"
         id="rect5-7" /></clipPath><clipPath
       id="clipPath6-8"><rect
         x="99.320312"
         y="0"
         width="669.59998"
         height="432.43201"
         id="rect6-4" /></clipPath><clipPath
       id="clipPath7-5"><rect
         x="99.320312"
         y="0"
         width="669.59998"
         height="432.43201"
         id="rect7-0" /></clipPath><clipPath
       id="clipPath8-3"><rect
         x="99.320312"
         y="0"
         width="669.59998"
         height="432.43201"
         id="rect8-6" /></clipPath></defs><rect
     style="fill:#ffffff;fill-opacity:1;stroke:none;stroke-width:0.622816;stroke-linejoin:bevel;stroke-miterlimit:3.7;stroke-dasharray:none;stroke-dashoffset:347.311;stroke-opacity:1"
     id="rect339"
     width="745.85974"
     height="415.99997"
     x="26.734819"
     y="16.9275"
     sodipodi:insensitive="true" /><text
     class="cls-4"
     id="text6"
     x="274.41281"
     y="77.982758"
     style="font-size:16px"><tspan
       sodipodi:role="line"
       id="tspan124"
       x="274.41281"
       y="77.982758"
       style="font-style:normal;font-variant:normal;font-weight:normal;font-stretch:normal;font-size:16px;font-family:Arial;-inkscape-font-specification:Arial;text-align:center;text-anchor:middle;fill:#000000;fill-opacity:1">Possible subgraph</tspan><tspan
       sodipodi:role="line"
       id="tspan125"
       x="274.41281"
       y="98.394829"
       style="font-style:normal;font-variant:normal;font-weight:normal;font-stretch:normal;font-size:16px;font-family:Arial;-inkscape-font-specification:Arial;text-align:center;text-anchor:middle;fill:#000000;fill-opacity:1">structures</tspan></text><text
     class="cls-4"
     id="text6-2"
     x="413.01395"
     y="146.87068"
     style="font-size:16px;font-family:Roboto-Regular, Roboto;fill:#b3b3b3"><tspan
       sodipodi:role="line"
       id="tspan70"
       x="413.01395"
       y="146.87068"
       style="font-style:normal;font-variant:normal;font-weight:normal;font-stretch:normal;font-size:16px;font-family:Arial;-inkscape-font-specification:Arial;text-align:center;text-anchor:middle;fill:#000000;fill-opacity:1">Vector</tspan><tspan
       sodipodi:role="line"
       x="413.01395"
       y="167.28275"
       style="font-style:normal;font-variant:normal;font-weight:normal;font-stretch:normal;font-size:16px;font-family:Arial;-inkscape-font-specification:Arial;text-align:center;text-anchor:middle;fill:#000000;fill-opacity:1"
       id="tspan71">representation</tspan></text><path
     id="path70-7-9-8"
     class="cls-7"
     d="M 162.17243,203.44356 146.70545,183.3958"
     style="fill:#0021e6;fill-opacity:1;stroke:#0086b9;stroke-width:2.25;stroke-dasharray:none;stroke-opacity:1" /><path
     id="path74-3-0-5"
     class="cls-7"
     d="m 111.17511,160.42164 9.11475,24.1135"
     style="fill:#0021e6;fill-opacity:1;stroke:#4cbce9;stroke-width:2.25;stroke-dasharray:none;stroke-opacity:1" /><path
     id="path78-6-8-9"
     class="cls-7"
     d="m 120.28986,184.53514 -16.341,19.96192"
     style="fill:#0021e6;fill-opacity:1;stroke:#4cbce9;stroke-width:2.25;stroke-dasharray:none;stroke-opacity:1" /><path
     id="path82-9-2-3"
     class="cls-7"
     d="m 85.727175,156.25446 -9.09134,-24.1135"
     style="fill:#0021e6;fill-opacity:1;stroke:#0086b9;stroke-width:2.25;stroke-dasharray:none;stroke-opacity:1" /><path
     id="path86-2-6-5"
     class="cls-7"
     d="m 78.516535,200.33768 25.432325,4.15938"
     style="fill:#0021e6;fill-opacity:1;stroke:#4cbce9;stroke-width:2.25;stroke-dasharray:none;stroke-opacity:1" /><path
     id="path90-0-9-1"
     class="cls-7"
     d="m 78.516535,200.33768 -9.12255,-24.1213"
     style="fill:#0021e6;fill-opacity:1;stroke:#4cbce9;stroke-width:2.25;stroke-dasharray:none;stroke-opacity:1" /><path
     id="path94-3-0-5"
     class="cls-7"
     d="m 69.393985,176.21638 16.33319,-19.96192"
     style="fill:#0021e6;fill-opacity:1;stroke:#4cbce9;stroke-width:2.25;stroke-dasharray:none;stroke-opacity:1" /><path
     id="path98-0-8-8"
     class="cls-7"
     d="M 111.17511,160.42164 85.727175,156.25446"
     style="fill:#0021e6;fill-opacity:1;stroke:#4cbce9;stroke-width:2.25;stroke-dasharray:none;stroke-opacity:1" /><path
     id="path102-2-1-8"
     class="cls-7"
     d="m 146.70545,183.3958 -26.41559,1.13934"
     style="fill:#0021e6;fill-opacity:1;stroke:#4cbce9;stroke-width:2.25;stroke-dasharray:none;stroke-opacity:1" /><path
     id="path106-1-2-0"
     class="cls-7"
     d="m 69.393985,176.21638 -26.314151,-3.5585"
     style="fill:#0021e6;fill-opacity:1;stroke:#0086b9;stroke-width:2.25;stroke-dasharray:none;stroke-opacity:1" /><path
     id="path110-7-2-0"
     class="cls-7"
     d="M 61.878998,220.41665 78.516535,200.33768"
     style="fill:#0021e6;fill-opacity:1;stroke:#0086b9;stroke-width:2.25;stroke-dasharray:none;stroke-opacity:1" /><path
     id="path114-2-6-4"
     class="cls-7"
     d="m 113.49282,228.86028 -9.54396,-24.36322"
     style="fill:#0021e6;fill-opacity:1;stroke:#0086b9;stroke-width:2.25;stroke-dasharray:none;stroke-opacity:1" /><path
     id="path118-2-0-4"
     class="cls-7"
     d="M 111.17511,160.42164 131.87058,143.9714"
     style="fill:#0021e6;fill-opacity:1;stroke:#4cbce9;stroke-width:2.25;stroke-dasharray:none;stroke-opacity:1" /><path
     id="path122-7-1-6"
     class="cls-7"
     d="m 131.87058,143.9714 22.0221,14.59296"
     style="fill:#0021e6;fill-opacity:1;stroke:#4cbce9;stroke-width:2.25;stroke-dasharray:none;stroke-opacity:1" /><path
     id="path126-9-9-1"
     class="cls-7"
     d="m 153.77562,157.89324 -7.07017,25.47135"
     style="fill:#0021e6;fill-opacity:1;stroke:#4cbce9;stroke-width:2.25;stroke-dasharray:none;stroke-opacity:1" /><path
     id="path130-8-9-9"
     class="cls-8"
     d="m 83.659185,200.33768 a 5.1582597,5.1582597 0 1 1 -5.15826,-5.15826 5.1582597,5.1582597 0 0 1 5.15826,5.15826 z"
     style="fill:#f8c75a;fill-opacity:1;stroke:#bd7300;stroke-width:0.312149;stroke-dasharray:none;stroke-opacity:1" /><path
     id="path134-7-9-2"
     class="cls-8"
     d="m 74.552245,176.21638 a 5.1582597,5.1582597 0 1 1 -5.15826,-5.15826 5.1582597,5.1582597 0 0 1 5.15826,5.15826 z"
     style="fill:#f8c75a;fill-opacity:1;stroke:#bd7300;stroke-width:0.312149;stroke-dasharray:none;stroke-opacity:1" /><path
     id="path138-6-7-7"
     class="cls-8"
     d="m 167.33069,203.44356 a 5.1582597,5.1582597 0 1 1 -5.15826,-5.15826 5.1582597,5.1582597 0 0 1 5.15826,5.15826 z"
     style="fill:#f8c75a;fill-opacity:1;stroke:#bd7300;stroke-width:0.312149;stroke-dasharray:none;stroke-opacity:1" /><path
     id="path142-2-1-5"
     class="cls-8"
     d="m 151.2082,183.31776 a 5.1582597,5.1582597 0 1 1 -5.11924,-5.13485 5.1582597,5.1582597 0 0 1 5.11924,5.13485 z"
     style="fill:#f8c75a;fill-opacity:1;stroke:#bd7300;stroke-width:0.312149;stroke-dasharray:none;stroke-opacity:1" /><path
     id="path146-3-5-4"
     class="cls-8"
     d="m 158.00524,158.4473 a 5.1582597,5.1582597 0 1 1 -5.15826,-5.15826 5.1582597,5.1582597 0 0 1 5.15826,5.15826 z"
     style="fill:#f8c75a;fill-opacity:1;stroke:#bd7300;stroke-width:0.312149;stroke-dasharray:none;stroke-opacity:1" /><path
     id="path150-9-7-8"
     class="cls-8"
     d="m 136.45136,144.29135 a 5.1582597,5.1582597 0 1 1 -5.18947,-5.12704 5.1582597,5.1582597 0 0 1 5.18947,5.12704 z"
     style="fill:#f8c75a;fill-opacity:1;stroke:#bd7300;stroke-width:0.312149;stroke-dasharray:none;stroke-opacity:1" /><path
     id="path154-7-6-9"
     class="cls-8"
     d="m 116.32557,160.42164 a 5.1582597,5.1582597 0 1 1 -5.15046,-5.15825 5.1582597,5.1582597 0 0 1 5.15046,5.15825 z"
     style="fill:#e8a30a;fill-opacity:1;stroke:#bd7300;stroke-width:0.312149;stroke-dasharray:none;stroke-opacity:1" /><path
     id="path158-4-3-5"
     class="cls-8"
     d="m 125.44812,184.53514 a 5.1582597,5.1582597 0 1 1 -5.15826,-5.15045 5.150456,5.150456 0 0 1 5.15826,5.15045 z"
     style="fill:#f8c75a;fill-opacity:1;stroke:#bd7300;stroke-width:0.312149;stroke-dasharray:none;stroke-opacity:1" /><path
     id="path162-0-5-8"
     class="cls-8"
     d="m 109.4739,204.14589 a 5.1582597,5.1582597 0 1 1 -5.15826,-5.15826 5.1582597,5.1582597 0 0 1 5.15826,5.15826 z"
     style="fill:#f8c75a;fill-opacity:1;stroke:#bd7300;stroke-width:0.312149;stroke-dasharray:none;stroke-opacity:1" /><path
     id="path166-6-3-3"
     class="cls-8"
     d="m 49.104307,172.04919 a 5.1582597,5.1582597 0 1 1 -5.15826,-5.15826 5.1582597,5.1582597 0 0 1 5.15826,5.15826 z"
     style="fill:#f8c75a;fill-opacity:1;stroke:#bd7300;stroke-width:0.312149;stroke-dasharray:none;stroke-opacity:1" /><path
     id="path170-0-4-8"
     class="cls-8"
     d="m 90.87763,156.25446 a 5.1582597,5.1582597 0 1 1 -5.150455,-5.15826 5.1582597,5.1582597 0 0 1 5.150455,5.15826 z"
     style="fill:#f8c75a;fill-opacity:1;stroke:#bd7300;stroke-width:0.312149;stroke-dasharray:none;stroke-opacity:1" /><path
     id="path174-3-1-6"
     class="cls-8"
     d="m 81.762875,132.14096 a 5.1582597,5.1582597 0 1 1 -5.15825,-5.15046 5.1582597,5.1582597 0 0 1 5.15825,5.15046 z"
     style="fill:#f8c75a;fill-opacity:1;stroke:#bd7300;stroke-width:0.312149;stroke-dasharray:none;stroke-opacity:1" /><path
     id="path174-6-0-9-3"
     class="cls-8"
     d="m 67.021651,220.41665 a 5.1582597,5.1582597 0 1 1 -5.15826,-5.15826 5.1582597,5.1582597 0 0 1 5.15826,5.15826 z"
     style="fill:#f8c75a;fill-opacity:1;stroke:#bd7300;stroke-width:0.312149;stroke-dasharray:none;stroke-opacity:1" /><path
     id="path174-5-1-9-3"
     class="cls-8"
     d="m 118.57304,230.39761 a 5.1582597,5.1582597 0 1 1 -5.15826,-5.15045 5.1582597,5.1582597 0 0 1 5.15826,5.15045 z"
     style="fill:#f8c75a;fill-opacity:1;stroke:#bd7300;stroke-width:0.312149;stroke-dasharray:none;stroke-opacity:1" /><path
     class="cls-14"
     d="m 209.28007,251 a 27.58,27.58 0 0 1 -15.38,-11.14 34.93,34.93 0 0 1 -6.43,-20.37 V 203 c 0,-12.86 -1.14,-18.18 -11.14,-20.18 v -2 c 10,-2 11.14,-8 11.14,-20.75 v -16.9 a 35.23,35.23 0 0 1 6.5,-20.37 27.59,27.59 0 0 1 15.31,-11.14 l -0.54,1.07 c -12.33,4.15 -20.49,15.88 -20.49,31.19 v 15.59 c 0,12.4 -1.63,20.07 -10.92,22.3 9.29,2.42 10.92,9.37 10.92,21.59 v 15.65 c 0,14.81 8.27,26.41 20.82,30.78 z"
     id="path6"
     style="fill:#000000;fill-opacity:1;stroke:#000000;stroke-opacity:1" /><line
     class="cls-18"
     x1="455.43634"
     y1="182.34708"
     x2="359.36005"
     y2="182.34708"
     id="line13"
     style="stroke-width:2.4;stroke-dasharray:none;marker-start:url(#Triangle)" /><text
     class="cls-4"
     id="text18"
     x="529.64124"
     y="77.982758"
     style="font-size:16px"><tspan
       sodipodi:role="line"
       id="tspan126"
       x="529.64124"
       y="77.982758"
       style="font-style:normal;font-variant:normal;font-weight:normal;font-stretch:normal;font-size:16px;font-family:Arial;-inkscape-font-specification:Arial;text-align:center;text-anchor:middle;fill:#000000;fill-opacity:1">Subgraph</tspan><tspan
       sodipodi:role="line"
       id="tspan127"
       x="529.64124"
       y="98.394829"
       style="font-style:normal;font-variant:normal;font-weight:normal;font-stretch:normal;font-size:16px;font-family:Arial;-inkscape-font-specification:Arial;text-align:center;text-anchor:middle;fill:#000000;fill-opacity:1">vectors</tspan></text><rect
     style="fill:#fbd5d2;fill-opacity:1;stroke:#c73227;stroke-width:0.926214;stroke-linejoin:bevel;stroke-miterlimit:3.7;stroke-dasharray:none;stroke-dashoffset:347.311;stroke-opacity:1"
     id="rect242"
     width="41.271492"
     height="36.825714"
     x="-749.74396"
     y="-197.27785"
     transform="scale(-1)" /><text
     class="cls-4"
     id="text18-4"
     x="727.62219"
     y="182.75299"
     style="font-size:16px;font-family:Roboto-Regular, Roboto;fill:#b3b3b3"><tspan
       sodipodi:role="line"
       id="tspan127-6"
       x="729.84485"
       y="182.75299"
       style="font-style:normal;font-variant:normal;font-weight:normal;font-stretch:normal;font-size:16px;font-family:Arial;-inkscape-font-specification:Arial;text-align:center;text-anchor:middle;fill:#000000;fill-opacity:1"><tspan
   style="font-size:32px"
   id="tspan171"> 𝑦</tspan> </tspan></text><text
     class="cls-4"
     id="text18-4-9"
     x="647.21039"
     y="175.02402"
     style="font-size:16px;font-family:Roboto-Regular, Roboto;fill:#b3b3b3"><tspan
       sodipodi:role="line"
       id="tspan127-6-3"
       x="647.21039"
       y="175.02402"
       style="font-style:normal;font-variant:normal;font-weight:normal;font-stretch:normal;font-size:16px;font-family:Arial;-inkscape-font-specification:Arial;text-align:center;text-anchor:middle;fill:#000000;fill-opacity:1" /></text><text
     class="cls-4"
     id="text18-4-5-7"
     x="657.15216"
     y="167.33305"
     style="font-size:16px;font-family:Roboto-Regular, Roboto;white-space:pre;inline-size:0;fill:#b3b3b3"
     transform="translate(-15.37131,-1.4393438)"><tspan
       id="tspan127-6-6-4"
       x="657.15216"
       y="167.33305"
       style="font-style:normal;font-variant:normal;font-weight:normal;font-stretch:normal;font-size:16px;font-family:Arial;-inkscape-font-specification:Arial;text-align:center;text-anchor:middle;fill:#000000;fill-opacity:1">subgraphs</tspan></text><text
     class="cls-4"
     id="text18-4-5-7-5"
     x="657.15216"
     y="167.33305"
     style="font-size:16px;font-family:Roboto-Regular, Roboto;white-space:pre;inline-size:116.96;fill:#b3b3b3"
     transform="translate(13.714657,-52.955871)"
     xml:space="preserve"><tspan
       x="657.15216"
       y="167.33305"
       id="tspan4"><tspan
   style="font-family:Arial;-inkscape-font-specification:Arial;text-align:center;text-anchor:middle;fill:#000000"
   id="tspan3">Feature </tspan>
</tspan><tspan
       x="657.15216"
       y="187.74514"
       id="tspan6"><tspan
         style="font-family:Arial;-inkscape-font-specification:Arial;text-align:center;text-anchor:middle;fill:#000000"
         id="tspan5">computation</tspan></tspan></text><text
     class="cls-4"
     id="text18-4-5-7-5-5"
     x="657.15216"
     y="167.33305"
     style="font-size:16px;font-family:Roboto-Regular, Roboto;white-space:pre;inline-size:116.96;display:inline;fill:#b3b3b3"
     transform="translate(2.5197128,-35.433422)"
     xml:space="preserve" /><text
     class="cls-4"
     id="text18-4-5"
     x="657.15216"
     y="167.33305"
     style="font-size:21.3333px;font-family:Roboto-Regular, Roboto;white-space:pre;inline-size:0;fill:#b3b3b3"
     transform="matrix(0.79635421,0,0,0.79635421,77.884206,23.273834)"><tspan
       id="tspan127-6-6"
       x="657.15216"
       y="167.33305"
       style="font-style:normal;font-variant:normal;font-weight:normal;font-stretch:normal;font-size:21.3333px;font-family:Arial;-inkscape-font-specification:Arial;text-align:center;text-anchor:middle;fill:#000000;fill-opacity:1">𝑔</tspan></text><g
     id="g82"
     transform="matrix(0.7228536,0,0,0.7228536,36.352526,-3.5358714)"><path
       id="path71"
       class="cls-7"
       d="M 303.67154,343.95518 288.20456,323.90742"
       style="fill:#0021e6;fill-opacity:1;stroke:#0086b9;stroke-width:2.22728;stroke-dasharray:none;stroke-opacity:1" /><path
       id="path72"
       class="cls-7"
       d="m 252.67422,300.93326 9.11475,24.1135"
       style="fill:#0021e6;fill-opacity:1;stroke:#4cbce9;stroke-width:2.22728;stroke-dasharray:none;stroke-opacity:1" /><path
       id="path73"
       class="cls-7"
       d="m 288.20456,323.90742 -26.41559,1.13934"
       style="fill:#0021e6;fill-opacity:1;stroke:#4cbce9;stroke-width:2.22728;stroke-dasharray:none;stroke-opacity:1" /><path
       id="path74"
       class="cls-7"
       d="m 252.67422,300.93326 20.69547,-16.45024"
       style="fill:#0021e6;fill-opacity:1;stroke:#4cbce9;stroke-width:2.22728;stroke-dasharray:none;stroke-opacity:1" /><path
       id="path75"
       class="cls-7"
       d="m 273.36969,284.48302 22.0221,14.59296"
       style="fill:#0021e6;fill-opacity:1;stroke:#4cbce9;stroke-width:2.22728;stroke-dasharray:none;stroke-opacity:1" /><path
       id="path76"
       class="cls-7"
       d="m 295.27473,298.40486 -7.07017,25.47135"
       style="fill:#0021e6;fill-opacity:1;stroke:#4cbce9;stroke-width:2.22728;stroke-dasharray:none;stroke-opacity:1" /><path
       id="path77"
       class="cls-8"
       d="m 308.8298,343.95518 a 5.1582597,5.1582597 0 1 1 -5.15826,-5.15826 5.1582597,5.1582597 0 0 1 5.15826,5.15826 z"
       style="fill:#f8c75a;fill-opacity:1;stroke:#bd7300;stroke-width:0.312149;stroke-dasharray:none;stroke-opacity:1" /><path
       id="path78"
       class="cls-8"
       d="m 292.70731,323.82938 a 5.1582597,5.1582597 0 1 1 -5.11924,-5.13485 5.1582597,5.1582597 0 0 1 5.11924,5.13485 z"
       style="fill:#f8c75a;fill-opacity:1;stroke:#bd7300;stroke-width:0.312149;stroke-dasharray:none;stroke-opacity:1" /><path
       id="path79"
       class="cls-8"
       d="m 299.50435,298.95892 a 5.1582597,5.1582597 0 1 1 -5.15826,-5.15826 5.1582597,5.1582597 0 0 1 5.15826,5.15826 z"
       style="fill:#f8c75a;fill-opacity:1;stroke:#bd7300;stroke-width:0.312149;stroke-dasharray:none;stroke-opacity:1" /><path
       id="path80"
       class="cls-8"
       d="m 277.95047,284.80297 a 5.1582597,5.1582597 0 1 1 -5.18947,-5.12704 5.1582597,5.1582597 0 0 1 5.18947,5.12704 z"
       style="fill:#f8c75a;fill-opacity:1;stroke:#bd7300;stroke-width:0.312149;stroke-dasharray:none;stroke-opacity:1" /><path
       id="path81"
       class="cls-8"
       d="m 257.82468,300.93326 a 5.1582597,5.1582597 0 1 1 -5.15046,-5.15825 5.1582597,5.1582597 0 0 1 5.15046,5.15825 z"
       style="fill:#e8a30a;fill-opacity:1;stroke:#bd7300;stroke-width:0.312149;stroke-dasharray:none;stroke-opacity:1" /><path
       id="path82"
       class="cls-8"
       d="m 266.94723,325.04676 a 5.1582597,5.1582597 0 1 1 -5.15826,-5.15045 5.150456,5.150456 0 0 1 5.15826,5.15045 z"
       style="fill:#f8c75a;fill-opacity:1;stroke:#bd7300;stroke-width:0.312149;stroke-dasharray:none;stroke-opacity:1" /></g><g
     id="g124"
     transform="translate(-39.568615,-8.028995)"><path
       id="path83"
       class="cls-7"
       d="m 347.48738,215.86143 6.51452,17.23448"
       style="fill:#0021e6;fill-opacity:1;stroke:#4cbce9;stroke-width:1.61;stroke-dasharray:none;stroke-opacity:1" /><path
       id="path84"
       class="cls-7"
       d="m 354.0019,233.09591 -11.67929,14.26726"
       style="fill:#0021e6;fill-opacity:1;stroke:#4cbce9;stroke-width:1.61;stroke-dasharray:none;stroke-opacity:1" /><path
       id="path85"
       class="cls-7"
       d="m 329.29915,212.88305 -6.4978,-17.23448"
       style="fill:#0021e6;fill-opacity:1;stroke:#0086b9;stroke-width:1.61;stroke-dasharray:none;stroke-opacity:1" /><path
       id="path86"
       class="cls-7"
       d="m 317.62543,227.1503 11.67372,-14.26725"
       style="fill:#0021e6;fill-opacity:1;stroke:#4cbce9;stroke-width:1.61;stroke-dasharray:none;stroke-opacity:1" /><path
       id="path87"
       class="cls-7"
       d="m 347.48738,215.86143 -18.18823,-2.97838"
       style="fill:#0021e6;fill-opacity:1;stroke:#4cbce9;stroke-width:1.61;stroke-dasharray:none;stroke-opacity:1" /><path
       id="path88"
       class="cls-7"
       d="m 372.88174,232.2816 -18.87984,0.81431"
       style="fill:#0021e6;fill-opacity:1;stroke:#4cbce9;stroke-width:1.61;stroke-dasharray:none;stroke-opacity:1" /><path
       id="path89"
       class="cls-7"
       d="m 347.48738,215.86143 14.79153,-11.75737"
       style="fill:#0021e6;fill-opacity:1;stroke:#4cbce9;stroke-width:1.61;stroke-dasharray:none;stroke-opacity:1" /><path
       id="path90"
       class="cls-7"
       d="m 362.27891,204.10406 15.73971,10.42993"
       style="fill:#0021e6;fill-opacity:1;stroke:#4cbce9;stroke-width:1.61;stroke-dasharray:none;stroke-opacity:1" /><path
       id="path91"
       class="cls-7"
       d="m 377.93496,214.05433 -5.05322,18.20496"
       style="fill:#0021e6;fill-opacity:1;stroke:#4cbce9;stroke-width:1.61;stroke-dasharray:none;stroke-opacity:1" /><path
       id="path92"
       class="cls-8"
       d="m 321.31216,227.1503 a 3.6867288,3.6867288 0 1 1 -3.68673,-3.68673 3.6867288,3.6867288 0 0 1 3.68673,3.68673 z"
       style="fill:#f8c75a;fill-opacity:1;stroke:#bd7300;stroke-width:0.2231;stroke-dasharray:none;stroke-opacity:1" /><path
       id="path93"
       class="cls-8"
       d="m 376.09996,232.22582 a 3.6867288,3.6867288 0 1 1 -3.65884,-3.66999 3.6867288,3.6867288 0 0 1 3.65884,3.66999 z"
       style="fill:#f8c75a;fill-opacity:1;stroke:#bd7300;stroke-width:0.2231;stroke-dasharray:none;stroke-opacity:1" /><path
       id="path94"
       class="cls-8"
       d="m 380.95797,214.45033 a 3.6867288,3.6867288 0 1 1 -3.68673,-3.68673 3.6867288,3.6867288 0 0 1 3.68673,3.68673 z"
       style="fill:#f8c75a;fill-opacity:1;stroke:#bd7300;stroke-width:0.2231;stroke-dasharray:none;stroke-opacity:1" /><path
       id="path95"
       class="cls-8"
       d="m 365.5529,204.33274 a 3.6867288,3.6867288 0 1 1 -3.70903,-3.66442 3.6867288,3.6867288 0 0 1 3.70903,3.66442 z"
       style="fill:#f8c75a;fill-opacity:1;stroke:#bd7300;stroke-width:0.2231;stroke-dasharray:none;stroke-opacity:1" /><path
       id="path96"
       class="cls-8"
       d="m 351.16853,215.86143 a 3.6867288,3.6867288 0 1 1 -3.68115,-3.68672 3.6867288,3.6867288 0 0 1 3.68115,3.68672 z"
       style="fill:#e8a30a;fill-opacity:1;stroke:#bd7300;stroke-width:0.2231;stroke-dasharray:none;stroke-opacity:1" /><path
       id="path97"
       class="cls-8"
       d="m 357.68863,233.09591 a 3.6867288,3.6867288 0 1 1 -3.68673,-3.68114 3.6811513,3.6811513 0 0 1 3.68673,3.68114 z"
       style="fill:#f8c75a;fill-opacity:1;stroke:#bd7300;stroke-width:0.2231;stroke-dasharray:none;stroke-opacity:1" /><path
       id="path98"
       class="cls-8"
       d="m 346.27148,247.11218 a 3.6867288,3.6867288 0 1 1 -3.68673,-3.68673 3.6867288,3.6867288 0 0 1 3.68673,3.68673 z"
       style="fill:#f8c75a;fill-opacity:1;stroke:#bd7300;stroke-width:0.2231;stroke-dasharray:none;stroke-opacity:1" /><path
       id="path99"
       class="cls-8"
       d="m 332.98029,212.88305 a 3.6867288,3.6867288 0 1 1 -3.68114,-3.68673 3.6867288,3.6867288 0 0 1 3.68114,3.68673 z"
       style="fill:#f8c75a;fill-opacity:1;stroke:#bd7300;stroke-width:0.2231;stroke-dasharray:none;stroke-opacity:1" /><path
       id="path100"
       class="cls-8"
       d="m 326.46577,195.64857 a 3.6867288,3.6867288 0 1 1 -3.68672,-3.68116 3.6867288,3.6867288 0 0 1 3.68672,3.68116 z"
       style="fill:#f8c75a;fill-opacity:1;stroke:#bd7300;stroke-width:0.2231;stroke-dasharray:none;stroke-opacity:1" /></g><g
     id="g123"
     transform="translate(-43.340973)"><path
       id="path101"
       class="cls-7"
       d="m 347.48738,135.48484 6.51452,17.23448"
       style="fill:#0021e6;fill-opacity:1;stroke:#4cbce9;stroke-width:1.61;stroke-dasharray:none;stroke-opacity:1" /><path
       id="path102"
       class="cls-7"
       d="m 354.0019,152.71932 -11.67929,14.26725"
       style="fill:#0021e6;fill-opacity:1;stroke:#4cbce9;stroke-width:1.61;stroke-dasharray:none;stroke-opacity:1" /><path
       id="path103"
       class="cls-7"
       d="m 372.88174,151.90501 -18.87984,0.81431"
       style="fill:#0021e6;fill-opacity:1;stroke:#4cbce9;stroke-width:1.61;stroke-dasharray:none;stroke-opacity:1" /><path
       id="path104"
       class="cls-8"
       d="m 376.09996,151.84923 a 3.6867288,3.6867288 0 1 1 -3.65884,-3.66999 3.6867288,3.6867288 0 0 1 3.65884,3.66999 z"
       style="fill:#f8c75a;fill-opacity:1;stroke:#bd7300;stroke-width:0.2231;stroke-dasharray:none;stroke-opacity:1" /><path
       id="path105"
       class="cls-8"
       d="m 351.16853,135.48484 a 3.6867288,3.6867288 0 1 1 -3.68115,-3.68672 3.6867288,3.6867288 0 0 1 3.68115,3.68672 z"
       style="fill:#f8c75a;fill-opacity:1;stroke:#bd7300;stroke-width:0.2231;stroke-dasharray:none;stroke-opacity:1" /><path
       id="path106"
       class="cls-8"
       d="m 357.68863,152.71932 a 3.6867288,3.6867288 0 1 1 -3.68673,-3.68114 3.6811513,3.6811513 0 0 1 3.68673,3.68114 z"
       style="fill:#e8a30a;fill-opacity:1;stroke:#bd7300;stroke-width:0.2231;stroke-dasharray:none;stroke-opacity:1" /><path
       id="path107"
       class="cls-8"
       d="m 346.27148,166.73559 a 3.6867288,3.6867288 0 1 1 -3.68673,-3.68673 3.6867288,3.6867288 0 0 1 3.68673,3.68673 z"
       style="fill:#f8c75a;fill-opacity:1;stroke:#bd7300;stroke-width:0.2231;stroke-dasharray:none;stroke-opacity:1" /></g><g
     id="g122"
     transform="matrix(1.2347871,0,0,1.2347871,-92.460149,-43.519054)"><path
       id="path108"
       class="cls-7"
       d="M 268.14876,145.21081 262.47012,130.149"
       style="fill:#0021e6;fill-opacity:1;stroke:#0086b9;stroke-width:1.29982;stroke-dasharray:none;stroke-opacity:1" /><path
       id="path109"
       class="cls-7"
       d="m 263.64484,172.74614 15.88558,2.59804"
       style="fill:#0021e6;fill-opacity:1;stroke:#4cbce9;stroke-width:1.29982;stroke-dasharray:none;stroke-opacity:1" /><path
       id="path110"
       class="cls-7"
       d="M 263.64484,172.74614 257.9467,157.67946"
       style="fill:#0021e6;fill-opacity:1;stroke:#4cbce9;stroke-width:1.29982;stroke-dasharray:none;stroke-opacity:1" /><path
       id="path111"
       class="cls-7"
       d="m 257.9467,157.67946 10.20206,-12.46865"
       style="fill:#0021e6;fill-opacity:1;stroke:#4cbce9;stroke-width:1.29982;stroke-dasharray:none;stroke-opacity:1" /><path
       id="path112"
       class="cls-7"
       d="m 284.04409,147.81372 -15.89533,-2.60291"
       style="fill:#0021e6;fill-opacity:1;stroke:#4cbce9;stroke-width:1.29982;stroke-dasharray:none;stroke-opacity:1" /><path
       id="path113"
       class="cls-7"
       d="m 257.9467,157.67946 -16.43639,-2.22272"
       style="fill:#0021e6;fill-opacity:1;stroke:#0086b9;stroke-width:1.29982;stroke-dasharray:none;stroke-opacity:1" /><path
       id="path114"
       class="cls-7"
       d="m 253.25268,185.2879 10.39216,-12.54176"
       style="fill:#0021e6;fill-opacity:1;stroke:#0086b9;stroke-width:1.29982;stroke-dasharray:none;stroke-opacity:1" /><path
       id="path115"
       class="cls-8"
       d="m 266.85705,172.74614 a 3.2219602,3.2219602 0 1 1 -3.22196,-3.22196 3.2219602,3.2219602 0 0 1 3.22196,3.22196 z"
       style="fill:#f8c75a;fill-opacity:1;stroke:#bd7300;stroke-width:0.194975;stroke-dasharray:none;stroke-opacity:1" /><path
       id="path116"
       class="cls-8"
       d="m 261.16866,157.67946 a 3.2219602,3.2219602 0 1 1 -3.22196,-3.22196 3.2219602,3.2219602 0 0 1 3.22196,3.22196 z"
       style="fill:#f8c75a;fill-opacity:1;stroke:#bd7300;stroke-width:0.194975;stroke-dasharray:none;stroke-opacity:1" /><path
       id="path117"
       class="cls-8"
       d="m 287.26118,147.81372 a 3.2219602,3.2219602 0 1 1 -3.21709,-3.22195 3.2219602,3.2219602 0 0 1 3.21709,3.22195 z"
       style="fill:#e8a30a;fill-opacity:1;stroke:#bd7300;stroke-width:0.194975;stroke-dasharray:none;stroke-opacity:1" /><path
       id="path118"
       class="cls-8"
       d="m 282.98148,175.12483 a 3.2219602,3.2219602 0 1 1 -3.22196,-3.22196 3.2219602,3.2219602 0 0 1 3.22196,3.22196 z"
       style="fill:#f8c75a;fill-opacity:1;stroke:#bd7300;stroke-width:0.194975;stroke-dasharray:none;stroke-opacity:1" /><path
       id="path119"
       class="cls-8"
       d="m 245.27334,155.07654 a 3.2219602,3.2219602 0 1 1 -3.22197,-3.22196 3.2219602,3.2219602 0 0 1 3.22197,3.22196 z"
       style="fill:#f8c75a;fill-opacity:1;stroke:#bd7300;stroke-width:0.194975;stroke-dasharray:none;stroke-opacity:1" /><path
       id="path120"
       class="cls-8"
       d="m 271.36585,145.21081 a 3.2219602,3.2219602 0 1 1 -3.21709,-3.22196 3.2219602,3.2219602 0 0 1 3.21709,3.22196 z"
       style="fill:#f8c75a;fill-opacity:1;stroke:#bd7300;stroke-width:0.194975;stroke-dasharray:none;stroke-opacity:1" /><path
       id="path121"
       class="cls-8"
       d="m 265.67258,130.149 a 3.2219602,3.2219602 0 1 1 -3.22196,-3.21709 3.2219602,3.2219602 0 0 1 3.22196,3.21709 z"
       style="fill:#f8c75a;fill-opacity:1;stroke:#bd7300;stroke-width:0.194975;stroke-dasharray:none;stroke-opacity:1" /><path
       id="path122"
       class="cls-8"
       d="m 256.46489,185.2879 a 3.2219602,3.2219602 0 1 1 -3.22196,-3.22196 3.2219602,3.2219602 0 0 1 3.22196,3.22196 z"
       style="fill:#f8c75a;fill-opacity:1;stroke:#bd7300;stroke-width:0.194975;stroke-dasharray:none;stroke-opacity:1" /></g><path
     d="M 99.320312,33.264 H 132.80031 V 0 H 99.320312 Z"
     clip-path="url(#p587ec55e46-9-3)"
     style="fill:#ffffff;fill-opacity:1;stroke:#ffffff;stroke-width:1.00904;stroke-linecap:butt;stroke-linejoin:miter;stroke-dasharray:none"
     id="path41-3"
     transform="matrix(-0.30876443,0,0,-0.30876443,606.58659,131.17383)" /><path
     d="m 132.80031,33.264 h 33.48 V 0 h -33.48 z"
     clip-path="url(#p587ec55e46-9-3)"
     style="fill:#82c8db;fill-opacity:1;stroke:#ffffff;stroke-width:1.00904;stroke-linecap:butt;stroke-linejoin:miter;stroke-dasharray:none"
     id="path54-9"
     transform="matrix(-0.30876443,0,0,-0.30876443,606.58659,131.17383)" /><path
     d="m 166.28031,33.264 h 33.48 V 0 h -33.48 z"
     clip-path="url(#p587ec55e46-9-3)"
     style="fill:#f79c03;fill-opacity:1;stroke:none;stroke-width:1.00904;stroke-linecap:butt;stroke-linejoin:miter;stroke-dasharray:none"
     id="path67-7"
     transform="matrix(-0.30876443,0,0,-0.30876443,606.58659,131.17383)" /><path
     d="m 199.76031,33.264 h 33.48 V 0 h -33.48 z"
     clip-path="url(#p587ec55e46-9-3)"
     style="fill:#ffd923;fill-opacity:1;stroke:#ffffff;stroke-width:1.00904;stroke-linecap:butt;stroke-linejoin:miter;stroke-dasharray:none"
     id="path80-5"
     transform="matrix(-0.30876443,0,0,-0.30876443,606.58659,131.17383)" /><path
     d="m 233.24031,33.264 h 33.48 V 0 h -33.48 z"
     clip-path="url(#p587ec55e46-9-3)"
     style="fill:#3fc3fb;fill-opacity:1;stroke:none;stroke-width:1.00904;stroke-linecap:butt;stroke-linejoin:miter;stroke-dasharray:none"
     id="path93-3"
     transform="matrix(-0.30876443,0,0,-0.30876443,606.58659,131.17383)" /><path
     d="m 266.72031,33.264 h 33.48 V 0 h -33.48 z"
     clip-path="url(#p587ec55e46-9-3)"
     style="fill:#fd8a09;fill-opacity:1;stroke:#ffffff;stroke-width:1.00904;stroke-linecap:butt;stroke-linejoin:miter;stroke-dasharray:none"
     id="path106-6"
     transform="matrix(-0.30876443,0,0,-0.30876443,606.58659,131.17383)" /><path
     d="m 300.20031,33.264 h 33.48 V 0 h -33.48 z"
     clip-path="url(#p587ec55e46-9-3)"
     style="fill:#f79c03;fill-opacity:1;stroke:#ffffff;stroke-width:1.00904;stroke-linecap:butt;stroke-linejoin:miter;stroke-dasharray:none"
     id="path119-9"
     transform="matrix(-0.30876443,0,0,-0.30876443,606.58659,131.17383)" /><path
     d="m 333.68031,33.264 h 33.48 V 0 h -33.48 z"
     clip-path="url(#p587ec55e46-9-3)"
     style="fill:#82c8db;fill-opacity:1;stroke:none;stroke-width:1.00904;stroke-linecap:butt;stroke-linejoin:miter;stroke-dasharray:none"
     id="path132-3"
     transform="matrix(-0.30876443,0,0,-0.30876443,606.58659,131.17383)" /><path
     d="m 367.16031,33.264 h 33.48 V 0 h -33.48 z"
     clip-path="url(#p587ec55e46-9-3)"
     style="fill:#fdd60e;fill-opacity:1;stroke:#ffffff;stroke-width:1.00904;stroke-linecap:butt;stroke-linejoin:miter;stroke-dasharray:none"
     id="path145-4"
     transform="matrix(-0.30876443,0,0,-0.30876443,606.58659,131.17383)" /><rect
     style="fill:none;stroke:#000000;stroke-width:0.740787;stroke-linejoin:bevel;stroke-miterlimit:3.7;stroke-dasharray:none;stroke-dashoffset:347.311;stroke-opacity:1"
     id="rect260-2"
     width="93.09713"
     height="10.443094"
     x="-576.00623"
     y="-131.25999"
     transform="scale(-1)" /><path
     d="M 99.320312,33.264 H 132.80031 V 0 H 99.320312 Z"
     clip-path="url(#p587ec55e46-9-3)"
     style="fill:#0370f7;fill-opacity:1;stroke:#ffffff;stroke-width:1.00904;stroke-linecap:butt;stroke-linejoin:miter;stroke-dasharray:none"
     id="path136"
     transform="matrix(-0.30876443,0,0,-0.30876443,606.58659,167.064)" /><path
     d="m 132.80031,33.264 h 33.48 V 0 h -33.48 z"
     clip-path="url(#p587ec55e46-9-3)"
     style="fill:#82c8db;fill-opacity:1;stroke:#ffffff;stroke-width:1.00904;stroke-linecap:butt;stroke-linejoin:miter;stroke-dasharray:none"
     id="path137"
     transform="matrix(-0.30876443,0,0,-0.30876443,606.58659,167.064)" /><path
     d="m 166.28031,33.264 h 33.48 V 0 h -33.48 z"
     clip-path="url(#p587ec55e46-9-3)"
     style="fill:#ffffff;fill-opacity:1;stroke:none;stroke-width:1.00904;stroke-linecap:butt;stroke-linejoin:miter;stroke-dasharray:none"
     id="path138"
     transform="matrix(-0.30876443,0,0,-0.30876443,606.58659,167.064)" /><path
     d="m 199.76031,33.264 h 33.48 V 0 h -33.48 z"
     clip-path="url(#p587ec55e46-9-3)"
     style="fill:#ffd923;fill-opacity:1;stroke:#ffffff;stroke-width:1.00904;stroke-linecap:butt;stroke-linejoin:miter;stroke-dasharray:none"
     id="path139"
     transform="matrix(-0.30876443,0,0,-0.30876443,606.58659,167.064)" /><path
     d="m 233.24031,33.264 h 33.48 V 0 h -33.48 z"
     clip-path="url(#p587ec55e46-9-3)"
     style="fill:#3fc3fb;fill-opacity:1;stroke:none;stroke-width:1.00904;stroke-linecap:butt;stroke-linejoin:miter;stroke-dasharray:none"
     id="path140"
     transform="matrix(-0.30876443,0,0,-0.30876443,606.58659,167.064)" /><path
     d="m 266.72031,33.264 h 33.48 V 0 h -33.48 z"
     clip-path="url(#p587ec55e46-9-3)"
     style="fill:#fab90b;fill-opacity:1;stroke:#ffffff;stroke-width:1.00904;stroke-linecap:butt;stroke-linejoin:miter;stroke-dasharray:none"
     id="path141"
     transform="matrix(-0.30876443,0,0,-0.30876443,606.58659,167.064)" /><path
     d="m 300.20031,33.264 h 33.48 V 0 h -33.48 z"
     clip-path="url(#p587ec55e46-9-3)"
     style="fill:#0badfa;fill-opacity:1;stroke:#ffffff;stroke-width:1.00904;stroke-linecap:butt;stroke-linejoin:miter;stroke-dasharray:none"
     id="path142"
     transform="matrix(-0.30876443,0,0,-0.30876443,606.58659,167.064)" /><path
     d="m 333.68031,33.264 h 33.48 V 0 h -33.48 z"
     clip-path="url(#p587ec55e46-9-3)"
     style="fill:#0633ff;fill-opacity:1;stroke:none;stroke-width:1.00904;stroke-linecap:butt;stroke-linejoin:miter;stroke-dasharray:none"
     id="path143"
     transform="matrix(-0.30876443,0,0,-0.30876443,606.58659,167.064)" /><path
     d="m 367.16031,33.264 h 33.48 V 0 h -33.48 z"
     clip-path="url(#p587ec55e46-9-3)"
     style="fill:#fdd60e;fill-opacity:1;stroke:#ffffff;stroke-width:1.00904;stroke-linecap:butt;stroke-linejoin:miter;stroke-dasharray:none"
     id="path144"
     transform="matrix(-0.30876443,0,0,-0.30876443,606.58659,167.064)" /><rect
     style="fill:none;stroke:#000000;stroke-width:0.740787;stroke-linejoin:bevel;stroke-miterlimit:3.7;stroke-dasharray:none;stroke-dashoffset:347.311;stroke-opacity:1"
     id="rect144"
     width="93.09713"
     height="10.443094"
     x="-576.00623"
     y="-167.15016"
     transform="scale(-1)" /><path
     d="M 99.320312,33.264 H 132.80031 V 0 H 99.320312 Z"
     clip-path="url(#p587ec55e46-9-3)"
     style="fill:#f79c03;fill-opacity:1;stroke:#ffffff;stroke-width:1.00904;stroke-linecap:butt;stroke-linejoin:miter;stroke-dasharray:none"
     id="path145"
     transform="matrix(-0.30876443,0,0,-0.30876443,606.58659,202.95422)" /><path
     d="m 132.80031,33.264 h 33.48 V 0 h -33.48 z"
     clip-path="url(#p587ec55e46-9-3)"
     style="fill:#82c8db;fill-opacity:1;stroke:#ffffff;stroke-width:1.00904;stroke-linecap:butt;stroke-linejoin:miter;stroke-dasharray:none"
     id="path146"
     transform="matrix(-0.30876443,0,0,-0.30876443,606.58659,202.95422)" /><path
     d="m 166.28031,33.264 h 33.48 V 0 h -33.48 z"
     clip-path="url(#p587ec55e46-9-3)"
     style="fill:#f79c03;fill-opacity:1;stroke:none;stroke-width:1.00904;stroke-linecap:butt;stroke-linejoin:miter;stroke-dasharray:none"
     id="path147"
     transform="matrix(-0.30876443,0,0,-0.30876443,606.58659,202.95422)" /><path
     d="m 199.76031,33.264 h 33.48 V 0 h -33.48 z"
     clip-path="url(#p587ec55e46-9-3)"
     style="fill:#ffd923;fill-opacity:1;stroke:#ffffff;stroke-width:1.00904;stroke-linecap:butt;stroke-linejoin:miter;stroke-dasharray:none"
     id="path148"
     transform="matrix(-0.30876443,0,0,-0.30876443,606.58659,202.95422)" /><path
     d="m 233.24031,33.264 h 33.48 V 0 h -33.48 z"
     clip-path="url(#p587ec55e46-9-3)"
     style="fill:#3fc3fb;fill-opacity:1;stroke:none;stroke-width:1.00904;stroke-linecap:butt;stroke-linejoin:miter;stroke-dasharray:none"
     id="path149"
     transform="matrix(-0.30876443,0,0,-0.30876443,606.58659,202.95422)" /><path
     d="m 266.72031,33.264 h 33.48 V 0 h -33.48 z"
     clip-path="url(#p587ec55e46-9-3)"
     style="fill:#ffffff;fill-opacity:1;stroke:#ffffff;stroke-width:1.00904;stroke-linecap:butt;stroke-linejoin:miter;stroke-dasharray:none"
     id="path150"
     transform="matrix(-0.30876443,0,0,-0.30876443,606.58659,202.95422)" /><path
     d="m 300.20031,33.264 h 33.48 V 0 h -33.48 z"
     clip-path="url(#p587ec55e46-9-3)"
     style="fill:#f79c03;fill-opacity:1;stroke:#ffffff;stroke-width:1.00904;stroke-linecap:butt;stroke-linejoin:miter;stroke-dasharray:none"
     id="path151"
     transform="matrix(-0.30876443,0,0,-0.30876443,606.58659,202.95422)" /><path
     d="m 333.68031,33.264 h 33.48 V 0 h -33.48 z"
     clip-path="url(#p587ec55e46-9-3)"
     style="fill:#82c8db;fill-opacity:1;stroke:none;stroke-width:1.00904;stroke-linecap:butt;stroke-linejoin:miter;stroke-dasharray:none"
     id="path152"
     transform="matrix(-0.30876443,0,0,-0.30876443,606.58659,202.95422)" /><path
     d="m 367.16031,33.264 h 33.48 V 0 h -33.48 z"
     clip-path="url(#p587ec55e46-9-3)"
     style="fill:#fdd60e;fill-opacity:1;stroke:#ffffff;stroke-width:1.00904;stroke-linecap:butt;stroke-linejoin:miter;stroke-dasharray:none"
     id="path153"
     transform="matrix(-0.30876443,0,0,-0.30876443,606.58659,202.95422)" /><rect
     style="fill:none;stroke:#000000;stroke-width:0.740787;stroke-linejoin:bevel;stroke-miterlimit:3.7;stroke-dasharray:none;stroke-dashoffset:347.311;stroke-opacity:1"
     id="rect153"
     width="93.09713"
     height="10.443094"
     x="-576.00623"
     y="-203.04037"
     transform="scale(-1)" /><rect
     style="fill:none;stroke:#000000;stroke-width:0.740787;stroke-linejoin:bevel;stroke-miterlimit:3.7;stroke-dasharray:none;stroke-dashoffset:347.311;stroke-opacity:1"
     id="rect162"
     width="93.09713"
     height="10.443094"
     x="-576.00623"
     y="-203.04037"
     transform="scale(-1)" /><path
     d="M 99.320312,33.264 H 132.80031 V 0 H 99.320312 Z"
     clip-path="url(#p587ec55e46-9-3)"
     style="fill:#f7e103;fill-opacity:1;stroke:#ffffff;stroke-width:1.00904;stroke-linecap:butt;stroke-linejoin:miter;stroke-dasharray:none"
     id="path162"
     transform="matrix(-0.30876443,0,0,-0.30876443,606.58659,239.30105)" /><path
     d="m 132.80031,33.264 h 33.48 V 0 h -33.48 z"
     clip-path="url(#p587ec55e46-9-3)"
     style="fill:#82c8db;fill-opacity:1;stroke:#ffffff;stroke-width:1.00904;stroke-linecap:butt;stroke-linejoin:miter;stroke-dasharray:none"
     id="path163"
     transform="matrix(-0.30876443,0,0,-0.30876443,606.58659,239.30105)" /><path
     d="m 166.28031,33.264 h 33.48 V 0 h -33.48 z"
     clip-path="url(#p587ec55e46-9-3)"
     style="fill:#0362f7;fill-opacity:1;stroke:none;stroke-width:1.00904;stroke-linecap:butt;stroke-linejoin:miter;stroke-dasharray:none"
     id="path164"
     transform="matrix(-0.30876443,0,0,-0.30876443,606.58659,239.30105)" /><path
     d="m 199.76031,33.264 h 33.48 V 0 h -33.48 z"
     clip-path="url(#p587ec55e46-9-3)"
     style="fill:#ffffff;fill-opacity:1;stroke:#ffffff;stroke-width:1.00904;stroke-linecap:butt;stroke-linejoin:miter;stroke-dasharray:none"
     id="path165"
     transform="matrix(-0.30876443,0,0,-0.30876443,606.58659,239.30105)" /><path
     d="m 233.24031,33.264 h 33.48 V 0 h -33.48 z"
     clip-path="url(#p587ec55e46-9-3)"
     style="fill:#3fc3fb;fill-opacity:1;stroke:none;stroke-width:1.00904;stroke-linecap:butt;stroke-linejoin:miter;stroke-dasharray:none"
     id="path166"
     transform="matrix(-0.30876443,0,0,-0.30876443,606.58659,239.30105)" /><path
     d="m 266.72031,33.264 h 33.48 V 0 h -33.48 z"
     clip-path="url(#p587ec55e46-9-3)"
     style="fill:#fd8a09;fill-opacity:1;stroke:#ffffff;stroke-width:1.00904;stroke-linecap:butt;stroke-linejoin:miter;stroke-dasharray:none"
     id="path167"
     transform="matrix(-0.30876443,0,0,-0.30876443,606.58659,239.30105)" /><path
     d="m 300.20031,33.264 h 33.48 V 0 h -33.48 z"
     clip-path="url(#p587ec55e46-9-3)"
     style="fill:#0362f7;fill-opacity:1;stroke:#ffffff;stroke-width:1.00904;stroke-linecap:butt;stroke-linejoin:miter;stroke-dasharray:none"
     id="path168"
     transform="matrix(-0.30876443,0,0,-0.30876443,606.58659,239.30105)" /><path
     d="m 333.68031,33.264 h 33.48 V 0 h -33.48 z"
     clip-path="url(#p587ec55e46-9-3)"
     style="fill:#f9b114;fill-opacity:1;stroke:none;stroke-width:1.00904;stroke-linecap:butt;stroke-linejoin:miter;stroke-dasharray:none"
     id="path169"
     transform="matrix(-0.30876443,0,0,-0.30876443,606.58659,239.30105)" /><path
     d="m 367.16031,33.264 h 33.48 V 0 h -33.48 z"
     clip-path="url(#p587ec55e46-9-3)"
     style="fill:#fdd60e;fill-opacity:1;stroke:#ffffff;stroke-width:1.00904;stroke-linecap:butt;stroke-linejoin:miter;stroke-dasharray:none"
     id="path170"
     transform="matrix(-0.30876443,0,0,-0.30876443,606.58659,239.30105)" /><rect
     style="fill:none;stroke:#000000;stroke-width:0.740787;stroke-linejoin:bevel;stroke-miterlimit:3.7;stroke-dasharray:none;stroke-dashoffset:347.311;stroke-opacity:1"
     id="rect170"
     width="93.09713"
     height="10.443094"
     x="-576.00623"
     y="-239.38719"
     transform="scale(-1)" /><rect
     style="fill:none;stroke:#000000;stroke-width:0.740787;stroke-linejoin:bevel;stroke-miterlimit:3.7;stroke-dasharray:none;stroke-dashoffset:347.311;stroke-opacity:1"
     id="rect171"
     width="93.09713"
     height="10.443094"
     x="-576.00623"
     y="-239.38719"
     transform="scale(-1)" /><line
     class="cls-18"
     x1="685.46844"
     y1="182.34708"
     x2="591.6427"
     y2="182.34708"
     id="line171"
     style="stroke-width:2.4;stroke-dasharray:none;marker-start:url(#Triangle)" /></svg>
