<?xml version="1.0" encoding="UTF-8" standalone="no"?>
<svg
   version="1.0"
   width="8.5in"
   height="11in"
   viewBox="0 0 612 792"
   preserveAspectRatio="xMidYMid"
   id="svg2"
   sodipodi:docname="1_lnQ7Nry6N2ik0Do705A_9g.svg"
   xml:space="preserve"
   inkscape:version="1.3.2 (091e20e, 2023-11-25, custom)"
   xmlns:inkscape="http://www.inkscape.org/namespaces/inkscape"
   xmlns:sodipodi="http://sodipodi.sourceforge.net/DTD/sodipodi-0.dtd"
   xmlns="http://www.w3.org/2000/svg"
   xmlns:svg="http://www.w3.org/2000/svg"><defs
     id="defs2"><rect
       x="611.00031"
       y="89.429314"
       width="27.008854"
       height="30.009836"
       id="rect9" /><rect
       x="611.00031"
       y="89.429314"
       width="27.008854"
       height="30.009836"
       id="rect9-7" /><rect
       x="611.00031"
       y="89.429314"
       width="27.008854"
       height="30.009836"
       id="rect9-7-5" /><rect
       x="611.00031"
       y="89.429314"
       width="27.008854"
       height="30.009836"
       id="rect9-7-5-4" /><rect
       x="611.00031"
       y="89.429314"
       width="27.008854"
       height="30.009836"
       id="rect9-7-5-2" /><rect
       x="611.00031"
       y="89.429314"
       width="27.008854"
       height="30.009836"
       id="rect9-8" /></defs><sodipodi:namedview
     id="namedview2"
     pagecolor="#ffffff"
     bordercolor="#000000"
     borderopacity="0.25"
     inkscape:showpageshadow="2"
     inkscape:pageopacity="0.0"
     inkscape:pagecheckerboard="0"
     inkscape:deskcolor="#d1d1d1"
     inkscape:document-units="pt"
     inkscape:zoom="6.6644814"
     inkscape:cx="436.11795"
     inkscape:cy="170.5309"
     inkscape:window-width="1920"
     inkscape:window-height="1129"
     inkscape:window-x="-8"
     inkscape:window-y="-8"
     inkscape:window-maximized="1"
     inkscape:current-layer="g13" /><metadata
     id="metadata1">
Created by potrace 1.16, written by Peter Selinger 2001-2019
</metadata><g
     transform="matrix(0.1,0,0,-0.1,0,339)"
     fill="#000000"
     stroke="none"
     id="g2"><circle
       style="fill:#fdc422;fill-opacity:0.156863;stroke:#000000;stroke-width:8.64456;stroke-opacity:1"
       id="path2"
       cx="3216.2329"
       cy="-2363.8538"
       transform="scale(1,-1)"
       r="94.636292" /><circle
       style="fill:#fdc422;fill-opacity:1;stroke:#000000;stroke-width:8.64456;stroke-opacity:1"
       id="path2-7"
       cx="3520.4653"
       cy="-2002.6144"
       transform="scale(1,-1)"
       r="94.636292" /><circle
       style="fill:#fdc422;fill-opacity:1;stroke:#000000;stroke-width:8.64456;stroke-opacity:1"
       id="path2-7-7"
       cx="2926.3296"
       cy="-1993.4156"
       transform="scale(1,-1)"
       r="94.636292" /><circle
       style="fill:#fdc422;fill-opacity:1;stroke:#000000;stroke-width:8.64456;stroke-opacity:1"
       id="path2-7-7-1"
       cx="3216.2329"
       cy="-1667.1066"
       transform="scale(1,-1)"
       r="94.636292" /><circle
       style="fill:#fdc422;fill-opacity:0.16;stroke:#000000;stroke-width:8.64456;stroke-opacity:1"
       id="path2-7-7-1-3"
       cx="2675.2476"
       cy="-2363.8538"
       transform="scale(1,-1)"
       r="94.636292" /><path
       style="fill:#fdc422;fill-opacity:0.16;stroke:#000000;stroke-width:7.88148;stroke-dasharray:none;stroke-opacity:1"
       d="m 2985.3924,2066.275 171.4935,225.7876"
       id="path4" /><path
       style="fill:#fdc422;fill-opacity:0.16;stroke:#000000;stroke-width:7.88148;stroke-dasharray:none;stroke-opacity:1"
       d="M 3477.2405,2085.7949 3267.45,2287.3534"
       id="path5" /><path
       style="fill:#fdc422;fill-opacity:0.16;stroke:#000000;stroke-width:7.88148;stroke-opacity:1"
       d="m 3017.7282,1991.7972 407.8653,3.237"
       id="path6" /><path
       style="fill:#fdc422;fill-opacity:0.16;stroke:#000000;stroke-width:7.88148;stroke-dasharray:none;stroke-opacity:1"
       d="m 3216.3126,1761.5138 -0.159,508.7295"
       id="path7" /><path
       style="fill:#fdc422;fill-opacity:0.16;stroke:#000000;stroke-width:7.88148;stroke-dasharray:none;stroke-opacity:1"
       d="m 2687.4411,2268.1674 176.2844,-204.8415"
       id="path8" /><path
       style="fill:#fdc422;fill-opacity:0.16;stroke:#000000;stroke-width:7.88148;stroke-dasharray:none;stroke-opacity:1"
       d="m 2771.571,2348.3087 665.0213,-302.5098"
       id="path9" /><text
       xml:space="preserve"
       transform="matrix(6.9508977,0,0,-6.9508977,-1123.7751,3048.1321)"
       id="text9"
       style="font-style:normal;font-variant:normal;font-weight:normal;font-stretch:normal;font-size:17.264px;font-family:'Fira Code';-inkscape-font-specification:'Fira Code, Normal';font-variant-ligatures:normal;font-variant-caps:normal;font-variant-numeric:normal;font-variant-east-asian:normal;text-align:center;white-space:pre;shape-inside:url(#rect9);fill:#fdc422;fill-opacity:0.16;stroke:#000000;stroke-width:2.06667;stroke-dasharray:none;stroke-opacity:1"><tspan
         x="619.19288"
         y="104.53569"
         id="tspan5"><tspan
           style="fill:#24221c;fill-opacity:1;stroke:none"
           id="tspan4">?</tspan></tspan></text><text
       xml:space="preserve"
       transform="matrix(6.9508977,0,0,-6.9508977,-1664.7604,3048.1321)"
       id="text9-1"
       style="font-style:normal;font-variant:normal;font-weight:normal;font-stretch:normal;font-size:17.264px;font-family:'Fira Code';-inkscape-font-specification:'Fira Code, Normal';font-variant-ligatures:normal;font-variant-caps:normal;font-variant-numeric:normal;font-variant-east-asian:normal;text-align:center;white-space:pre;shape-inside:url(#rect9-8);fill:#fdc422;fill-opacity:0.16;stroke:#000000;stroke-width:2.06667;stroke-dasharray:none;stroke-opacity:1"><tspan
         x="619.19288"
         y="104.53569"
         id="tspan7"><tspan
           style="fill:#24221c;fill-opacity:1;stroke:none"
           id="tspan6">?</tspan></tspan></text><text
       xml:space="preserve"
       transform="matrix(6.9508977,0,0,-6.9508977,-821.17343,2686.8619)"
       id="text9-7"
       style="font-style:normal;font-variant:normal;font-weight:normal;font-stretch:normal;font-size:17.264px;font-family:'Fira Code';-inkscape-font-specification:'Fira Code, Normal';font-variant-ligatures:normal;font-variant-caps:normal;font-variant-numeric:normal;font-variant-east-asian:normal;text-align:center;white-space:pre;shape-inside:url(#rect9-7);fill:#241f1c;fill-opacity:1;stroke:none;stroke-width:2.06667;stroke-dasharray:none;stroke-opacity:1"><tspan
         x="619.19288"
         y="104.53569"
         id="tspan8">1</tspan></text><text
       xml:space="preserve"
       transform="matrix(6.9508977,0,0,-6.9508977,-1121.6828,2350.6772)"
       id="text9-7-2"
       style="font-style:normal;font-variant:normal;font-weight:normal;font-stretch:normal;font-size:17.264px;font-family:'Fira Code';-inkscape-font-specification:'Fira Code, Normal';font-variant-ligatures:normal;font-variant-caps:normal;font-variant-numeric:normal;font-variant-east-asian:normal;text-align:center;white-space:pre;shape-inside:url(#rect9-7-5);fill:#241f1c;fill-opacity:1;stroke:none;stroke-width:2.06667;stroke-dasharray:none;stroke-opacity:1"><tspan
         x="619.19288"
         y="104.53569"
         id="tspan9">2</tspan></text><text
       xml:space="preserve"
       transform="matrix(6.9508977,0,0,-6.9508977,-1414.5707,2676.9863)"
       id="text9-7-2-7"
       style="font-style:normal;font-variant:normal;font-weight:normal;font-stretch:normal;font-size:17.264px;font-family:'Fira Code';-inkscape-font-specification:'Fira Code, Normal';font-variant-ligatures:normal;font-variant-caps:normal;font-variant-numeric:normal;font-variant-east-asian:normal;text-align:center;white-space:pre;shape-inside:url(#rect9-7-5-4);fill:#241f1c;fill-opacity:1;stroke:none;stroke-width:2.06667;stroke-dasharray:none;stroke-opacity:1"><tspan
         x="619.19288"
         y="104.53569"
         id="tspan10">4</tspan></text><g
       style="clip-rule:evenodd;fill-rule:nonzero;stroke-linecap:round;stroke-linejoin:round;stroke-miterlimit:10"
       id="g13"
       transform="matrix(1.1449988,0.32159945,0.32159945,-1.1449988,3321.9853,2430.802)"><g
         id="Arrows"
         transform="matrix(0.8936335,0.04130173,-0.02467006,0.8561551,2.8212453,29.241124)">
<path
   d="m 210.133,352.901 c -1.057,2.367 -2.113,4.732 -3.17,7.099 -2.117,-1.297 -4.288,-1.94 -6.514,-1.928 -8.289,-3.459 -16.578,-6.917 -24.867,-10.376 C 216.508,240.246 191.721,151.82 101.219,82.4196 93.551,96.0803 85.4641,109.473 76.9584,122.599 51.3054,81.7321 25.653,40.8667 0,0 c 47.6267,2.81952 95.2126,6.35836 142.76,10.6154 -7.165,13.153 -14.697,26.089 -22.594,38.8067 0.027,0.7258 0.055,1.4511 0.082,2.1769 39.113,29.6911 69.341,66.602 90.685,110.732 21.3,50.62 24.754,102.663 10.362,156.129 -3.022,11.726 -6.743,23.206 -11.162,34.441 z"
   fill="#2c95e0"
   fill-rule="evenodd"
   opacity="1"
   stroke="none"
   id="path1" />
</g><g
         id="Arrows-5"
         transform="matrix(-0.78445095,-0.43002718,-0.42471269,0.74379386,-191.15947,-21.722349)"
         style="clip-rule:evenodd;fill-rule:nonzero;stroke-linecap:round;stroke-linejoin:round;stroke-miterlimit:10">
<path
   d="m 210.133,352.901 c -1.057,2.367 -2.113,4.732 -3.17,7.099 -2.117,-1.297 -4.288,-1.94 -6.514,-1.928 -8.289,-3.459 -16.578,-6.917 -24.867,-10.376 C 216.508,240.246 191.721,151.82 101.219,82.4196 93.551,96.0803 85.4641,109.473 76.9584,122.599 51.3054,81.7321 25.653,40.8667 0,0 c 47.6267,2.81952 95.2126,6.35836 142.76,10.6154 -7.165,13.153 -14.697,26.089 -22.594,38.8067 0.027,0.7258 0.055,1.4511 0.082,2.1769 39.113,29.6911 69.341,66.602 90.685,110.732 21.3,50.62 24.754,102.663 10.362,156.129 -3.022,11.726 -6.743,23.206 -11.162,34.441 z"
   fill="#2c95e0"
   fill-rule="evenodd"
   opacity="1"
   stroke="none"
   id="path1-2" />
</g></g></g></svg>
