<?xml version="1.0" encoding="utf-8" standalone="no"?>
<!DOCTYPE svg PUBLIC "-//W3C//DTD SVG 1.1//EN"
  "http://www.w3.org/Graphics/SVG/1.1/DTD/svg11.dtd">
<svg xmlns:xlink="http://www.w3.org/1999/xlink" width="476.305pt" height="463.197187pt" viewBox="0 0 476.305 463.197187" xmlns="http://www.w3.org/2000/svg" version="1.1">
 <metadata>
  <rdf:RDF xmlns:dc="http://purl.org/dc/elements/1.1/" xmlns:cc="http://creativecommons.org/ns#" xmlns:rdf="http://www.w3.org/1999/02/22-rdf-syntax-ns#">
   <cc:Work>
    <dc:type rdf:resource="http://purl.org/dc/dcmitype/StillImage"/>
    <dc:date>2025-02-05T20:03:40.168310</dc:date>
    <dc:format>image/svg+xml</dc:format>
    <dc:creator>
     <cc:Agent>
      <dc:title>Matplotlib v3.10.0, https://matplotlib.org/</dc:title>
     </cc:Agent>
    </dc:creator>
   </cc:Work>
  </rdf:RDF>
 </metadata>
 <defs>
  <style type="text/css">*{stroke-linejoin: round; stroke-linecap: butt}</style>
 </defs>
 <g id="figure_1">
  <g id="patch_1">
   <path d="M 0 463.197187 
L 476.305 463.197187 
L 476.305 0 
L 0 0 
L 0 463.197187 
z
" style="fill: none"/>
  </g>
  <g id="axes_1">
   <g id="patch_2">
    <path d="M 29.905 463.197187 
L 476.305 463.197187 
L 476.305 19.677187 
L 29.905 19.677187 
L 29.905 463.197187 
z
" style="fill: none"/>
   </g>
   <g id="matplotlib.axis_1"/>
   <g id="matplotlib.axis_2">
    <g id="ytick_1">
     <g id="line2d_1">
      <defs>
       <path id="m53b5c8efe7" d="M 0 0 
L -3.5 0 
" style="stroke: #262626; stroke-width: 0.8"/>
      </defs>
      <g>
       <use xlink:href="#m53b5c8efe7" x="29.905" y="449.337187" style="fill: #262626; stroke: #262626; stroke-width: 0.8"/>
      </g>
     </g>
     <g id="text_1">
      <!-- 15 -->
      <g style="fill: #262626" transform="translate(0 456.175781) scale(0.18 -0.18)">
       <defs>
        <path id="DejaVuSans-31" d="M 794 531 
L 1825 531 
L 1825 4091 
L 703 3866 
L 703 4441 
L 1819 4666 
L 2450 4666 
L 2450 531 
L 3481 531 
L 3481 0 
L 794 0 
L 794 531 
z
" transform="scale(0.015625)"/>
        <path id="DejaVuSans-35" d="M 691 4666 
L 3169 4666 
L 3169 4134 
L 1269 4134 
L 1269 2991 
Q 1406 3038 1543 3061 
Q 1681 3084 1819 3084 
Q 2600 3084 3056 2656 
Q 3513 2228 3513 1497 
Q 3513 744 3044 326 
Q 2575 -91 1722 -91 
Q 1428 -91 1123 -41 
Q 819 9 494 109 
L 494 744 
Q 775 591 1075 516 
Q 1375 441 1709 441 
Q 2250 441 2565 725 
Q 2881 1009 2881 1497 
Q 2881 1984 2565 2268 
Q 2250 2553 1709 2553 
Q 1456 2553 1204 2497 
Q 953 2441 691 2322 
L 691 4666 
z
" transform="scale(0.015625)"/>
       </defs>
       <use xlink:href="#DejaVuSans-31"/>
       <use xlink:href="#DejaVuSans-35" transform="translate(63.623047 0)"/>
      </g>
     </g>
    </g>
    <g id="ytick_2">
     <g id="line2d_2">
      <g>
       <use xlink:href="#m53b5c8efe7" x="29.905" y="421.617187" style="fill: #262626; stroke: #262626; stroke-width: 0.8"/>
      </g>
     </g>
     <g id="text_2">
      <!-- 14 -->
      <g style="fill: #262626" transform="translate(0 428.455781) scale(0.18 -0.18)">
       <defs>
        <path id="DejaVuSans-34" d="M 2419 4116 
L 825 1625 
L 2419 1625 
L 2419 4116 
z
M 2253 4666 
L 3047 4666 
L 3047 1625 
L 3713 1625 
L 3713 1100 
L 3047 1100 
L 3047 0 
L 2419 0 
L 2419 1100 
L 313 1100 
L 313 1709 
L 2253 4666 
z
" transform="scale(0.015625)"/>
       </defs>
       <use xlink:href="#DejaVuSans-31"/>
       <use xlink:href="#DejaVuSans-34" transform="translate(63.623047 0)"/>
      </g>
     </g>
    </g>
    <g id="ytick_3">
     <g id="line2d_3">
      <g>
       <use xlink:href="#m53b5c8efe7" x="29.905" y="393.897187" style="fill: #262626; stroke: #262626; stroke-width: 0.8"/>
      </g>
     </g>
     <g id="text_3">
      <!-- 13 -->
      <g style="fill: #262626" transform="translate(0 400.735781) scale(0.18 -0.18)">
       <defs>
        <path id="DejaVuSans-33" d="M 2597 2516 
Q 3050 2419 3304 2112 
Q 3559 1806 3559 1356 
Q 3559 666 3084 287 
Q 2609 -91 1734 -91 
Q 1441 -91 1130 -33 
Q 819 25 488 141 
L 488 750 
Q 750 597 1062 519 
Q 1375 441 1716 441 
Q 2309 441 2620 675 
Q 2931 909 2931 1356 
Q 2931 1769 2642 2001 
Q 2353 2234 1838 2234 
L 1294 2234 
L 1294 2753 
L 1863 2753 
Q 2328 2753 2575 2939 
Q 2822 3125 2822 3475 
Q 2822 3834 2567 4026 
Q 2313 4219 1838 4219 
Q 1578 4219 1281 4162 
Q 984 4106 628 3988 
L 628 4550 
Q 988 4650 1302 4700 
Q 1616 4750 1894 4750 
Q 2613 4750 3031 4423 
Q 3450 4097 3450 3541 
Q 3450 3153 3228 2886 
Q 3006 2619 2597 2516 
z
" transform="scale(0.015625)"/>
       </defs>
       <use xlink:href="#DejaVuSans-31"/>
       <use xlink:href="#DejaVuSans-33" transform="translate(63.623047 0)"/>
      </g>
     </g>
    </g>
    <g id="ytick_4">
     <g id="line2d_4">
      <g>
       <use xlink:href="#m53b5c8efe7" x="29.905" y="366.177187" style="fill: #262626; stroke: #262626; stroke-width: 0.8"/>
      </g>
     </g>
     <g id="text_4">
      <!-- 12 -->
      <g style="fill: #262626" transform="translate(0 373.015781) scale(0.18 -0.18)">
       <defs>
        <path id="DejaVuSans-32" d="M 1228 531 
L 3431 531 
L 3431 0 
L 469 0 
L 469 531 
Q 828 903 1448 1529 
Q 2069 2156 2228 2338 
Q 2531 2678 2651 2914 
Q 2772 3150 2772 3378 
Q 2772 3750 2511 3984 
Q 2250 4219 1831 4219 
Q 1534 4219 1204 4116 
Q 875 4013 500 3803 
L 500 4441 
Q 881 4594 1212 4672 
Q 1544 4750 1819 4750 
Q 2544 4750 2975 4387 
Q 3406 4025 3406 3419 
Q 3406 3131 3298 2873 
Q 3191 2616 2906 2266 
Q 2828 2175 2409 1742 
Q 1991 1309 1228 531 
z
" transform="scale(0.015625)"/>
       </defs>
       <use xlink:href="#DejaVuSans-31"/>
       <use xlink:href="#DejaVuSans-32" transform="translate(63.623047 0)"/>
      </g>
     </g>
    </g>
    <g id="ytick_5">
     <g id="line2d_5">
      <g>
       <use xlink:href="#m53b5c8efe7" x="29.905" y="338.457187" style="fill: #262626; stroke: #262626; stroke-width: 0.8"/>
      </g>
     </g>
     <g id="text_5">
      <!-- 11 -->
      <g style="fill: #262626" transform="translate(0 345.295781) scale(0.18 -0.18)">
       <use xlink:href="#DejaVuSans-31"/>
       <use xlink:href="#DejaVuSans-31" transform="translate(63.623047 0)"/>
      </g>
     </g>
    </g>
    <g id="ytick_6">
     <g id="line2d_6">
      <g>
       <use xlink:href="#m53b5c8efe7" x="29.905" y="310.737187" style="fill: #262626; stroke: #262626; stroke-width: 0.8"/>
      </g>
     </g>
     <g id="text_6">
      <!-- 10 -->
      <g style="fill: #262626" transform="translate(0 317.575781) scale(0.18 -0.18)">
       <defs>
        <path id="DejaVuSans-30" d="M 2034 4250 
Q 1547 4250 1301 3770 
Q 1056 3291 1056 2328 
Q 1056 1369 1301 889 
Q 1547 409 2034 409 
Q 2525 409 2770 889 
Q 3016 1369 3016 2328 
Q 3016 3291 2770 3770 
Q 2525 4250 2034 4250 
z
M 2034 4750 
Q 2819 4750 3233 4129 
Q 3647 3509 3647 2328 
Q 3647 1150 3233 529 
Q 2819 -91 2034 -91 
Q 1250 -91 836 529 
Q 422 1150 422 2328 
Q 422 3509 836 4129 
Q 1250 4750 2034 4750 
z
" transform="scale(0.015625)"/>
       </defs>
       <use xlink:href="#DejaVuSans-31"/>
       <use xlink:href="#DejaVuSans-30" transform="translate(63.623047 0)"/>
      </g>
     </g>
    </g>
    <g id="ytick_7">
     <g id="line2d_7">
      <g>
       <use xlink:href="#m53b5c8efe7" x="29.905" y="283.017187" style="fill: #262626; stroke: #262626; stroke-width: 0.8"/>
      </g>
     </g>
     <g id="text_7">
      <!-- 9 -->
      <g style="fill: #262626" transform="translate(11.4525 289.855781) scale(0.18 -0.18)">
       <defs>
        <path id="DejaVuSans-39" d="M 703 97 
L 703 672 
Q 941 559 1184 500 
Q 1428 441 1663 441 
Q 2288 441 2617 861 
Q 2947 1281 2994 2138 
Q 2813 1869 2534 1725 
Q 2256 1581 1919 1581 
Q 1219 1581 811 2004 
Q 403 2428 403 3163 
Q 403 3881 828 4315 
Q 1253 4750 1959 4750 
Q 2769 4750 3195 4129 
Q 3622 3509 3622 2328 
Q 3622 1225 3098 567 
Q 2575 -91 1691 -91 
Q 1453 -91 1209 -44 
Q 966 3 703 97 
z
M 1959 2075 
Q 2384 2075 2632 2365 
Q 2881 2656 2881 3163 
Q 2881 3666 2632 3958 
Q 2384 4250 1959 4250 
Q 1534 4250 1286 3958 
Q 1038 3666 1038 3163 
Q 1038 2656 1286 2365 
Q 1534 2075 1959 2075 
z
" transform="scale(0.015625)"/>
       </defs>
       <use xlink:href="#DejaVuSans-39"/>
      </g>
     </g>
    </g>
    <g id="ytick_8">
     <g id="line2d_8">
      <g>
       <use xlink:href="#m53b5c8efe7" x="29.905" y="255.297187" style="fill: #262626; stroke: #262626; stroke-width: 0.8"/>
      </g>
     </g>
     <g id="text_8">
      <!-- 8 -->
      <g style="fill: #262626" transform="translate(11.4525 262.135781) scale(0.18 -0.18)">
       <defs>
        <path id="DejaVuSans-38" d="M 2034 2216 
Q 1584 2216 1326 1975 
Q 1069 1734 1069 1313 
Q 1069 891 1326 650 
Q 1584 409 2034 409 
Q 2484 409 2743 651 
Q 3003 894 3003 1313 
Q 3003 1734 2745 1975 
Q 2488 2216 2034 2216 
z
M 1403 2484 
Q 997 2584 770 2862 
Q 544 3141 544 3541 
Q 544 4100 942 4425 
Q 1341 4750 2034 4750 
Q 2731 4750 3128 4425 
Q 3525 4100 3525 3541 
Q 3525 3141 3298 2862 
Q 3072 2584 2669 2484 
Q 3125 2378 3379 2068 
Q 3634 1759 3634 1313 
Q 3634 634 3220 271 
Q 2806 -91 2034 -91 
Q 1263 -91 848 271 
Q 434 634 434 1313 
Q 434 1759 690 2068 
Q 947 2378 1403 2484 
z
M 1172 3481 
Q 1172 3119 1398 2916 
Q 1625 2713 2034 2713 
Q 2441 2713 2670 2916 
Q 2900 3119 2900 3481 
Q 2900 3844 2670 4047 
Q 2441 4250 2034 4250 
Q 1625 4250 1398 4047 
Q 1172 3844 1172 3481 
z
" transform="scale(0.015625)"/>
       </defs>
       <use xlink:href="#DejaVuSans-38"/>
      </g>
     </g>
    </g>
    <g id="ytick_9">
     <g id="line2d_9">
      <g>
       <use xlink:href="#m53b5c8efe7" x="29.905" y="227.577187" style="fill: #262626; stroke: #262626; stroke-width: 0.8"/>
      </g>
     </g>
     <g id="text_9">
      <!-- 7 -->
      <g style="fill: #262626" transform="translate(11.4525 234.415781) scale(0.18 -0.18)">
       <defs>
        <path id="DejaVuSans-37" d="M 525 4666 
L 3525 4666 
L 3525 4397 
L 1831 0 
L 1172 0 
L 2766 4134 
L 525 4134 
L 525 4666 
z
" transform="scale(0.015625)"/>
       </defs>
       <use xlink:href="#DejaVuSans-37"/>
      </g>
     </g>
    </g>
    <g id="ytick_10">
     <g id="line2d_10">
      <g>
       <use xlink:href="#m53b5c8efe7" x="29.905" y="199.857187" style="fill: #262626; stroke: #262626; stroke-width: 0.8"/>
      </g>
     </g>
     <g id="text_10">
      <!-- 6 -->
      <g style="fill: #262626" transform="translate(11.4525 206.695781) scale(0.18 -0.18)">
       <defs>
        <path id="DejaVuSans-36" d="M 2113 2584 
Q 1688 2584 1439 2293 
Q 1191 2003 1191 1497 
Q 1191 994 1439 701 
Q 1688 409 2113 409 
Q 2538 409 2786 701 
Q 3034 994 3034 1497 
Q 3034 2003 2786 2293 
Q 2538 2584 2113 2584 
z
M 3366 4563 
L 3366 3988 
Q 3128 4100 2886 4159 
Q 2644 4219 2406 4219 
Q 1781 4219 1451 3797 
Q 1122 3375 1075 2522 
Q 1259 2794 1537 2939 
Q 1816 3084 2150 3084 
Q 2853 3084 3261 2657 
Q 3669 2231 3669 1497 
Q 3669 778 3244 343 
Q 2819 -91 2113 -91 
Q 1303 -91 875 529 
Q 447 1150 447 2328 
Q 447 3434 972 4092 
Q 1497 4750 2381 4750 
Q 2619 4750 2861 4703 
Q 3103 4656 3366 4563 
z
" transform="scale(0.015625)"/>
       </defs>
       <use xlink:href="#DejaVuSans-36"/>
      </g>
     </g>
    </g>
    <g id="ytick_11">
     <g id="line2d_11">
      <g>
       <use xlink:href="#m53b5c8efe7" x="29.905" y="172.137187" style="fill: #262626; stroke: #262626; stroke-width: 0.8"/>
      </g>
     </g>
     <g id="text_11">
      <!-- 5 -->
      <g style="fill: #262626" transform="translate(11.4525 178.975781) scale(0.18 -0.18)">
       <use xlink:href="#DejaVuSans-35"/>
      </g>
     </g>
    </g>
    <g id="ytick_12">
     <g id="line2d_12">
      <g>
       <use xlink:href="#m53b5c8efe7" x="29.905" y="144.417187" style="fill: #262626; stroke: #262626; stroke-width: 0.8"/>
      </g>
     </g>
     <g id="text_12">
      <!-- 4 -->
      <g style="fill: #262626" transform="translate(11.4525 151.255781) scale(0.18 -0.18)">
       <use xlink:href="#DejaVuSans-34"/>
      </g>
     </g>
    </g>
    <g id="ytick_13">
     <g id="line2d_13">
      <g>
       <use xlink:href="#m53b5c8efe7" x="29.905" y="116.697187" style="fill: #262626; stroke: #262626; stroke-width: 0.8"/>
      </g>
     </g>
     <g id="text_13">
      <!-- 3 -->
      <g style="fill: #262626" transform="translate(11.4525 123.535781) scale(0.18 -0.18)">
       <use xlink:href="#DejaVuSans-33"/>
      </g>
     </g>
    </g>
    <g id="ytick_14">
     <g id="line2d_14">
      <g>
       <use xlink:href="#m53b5c8efe7" x="29.905" y="88.977187" style="fill: #262626; stroke: #262626; stroke-width: 0.8"/>
      </g>
     </g>
     <g id="text_14">
      <!-- 2 -->
      <g style="fill: #262626" transform="translate(11.4525 95.815781) scale(0.18 -0.18)">
       <use xlink:href="#DejaVuSans-32"/>
      </g>
     </g>
    </g>
    <g id="ytick_15">
     <g id="line2d_15">
      <g>
       <use xlink:href="#m53b5c8efe7" x="29.905" y="61.257187" style="fill: #262626; stroke: #262626; stroke-width: 0.8"/>
      </g>
     </g>
     <g id="text_15">
      <!-- 1 -->
      <g style="fill: #262626" transform="translate(11.4525 68.095781) scale(0.18 -0.18)">
       <use xlink:href="#DejaVuSans-31"/>
      </g>
     </g>
    </g>
    <g id="ytick_16">
     <g id="line2d_16">
      <g>
       <use xlink:href="#m53b5c8efe7" x="29.905" y="33.537187" style="fill: #262626; stroke: #262626; stroke-width: 0.8"/>
      </g>
     </g>
     <g id="text_16">
      <!-- 0 -->
      <g style="fill: #262626" transform="translate(11.4525 40.375781) scale(0.18 -0.18)">
       <use xlink:href="#DejaVuSans-30"/>
      </g>
     </g>
    </g>
   </g>
   <g id="patch_3">
    <path d="M 29.905 47.397187 
L 57.805 47.397187 
L 57.805 19.677187 
L 29.905 19.677187 
z
" clip-path="url(#pf1b1d008eb)" style="fill: #ffffff; stroke: #ffffff; stroke-linejoin: miter"/>
   </g>
   <g id="patch_4">
    <path d="M 29.905 75.117187 
L 57.805 75.117187 
L 57.805 47.397187 
L 29.905 47.397187 
z
" clip-path="url(#pf1b1d008eb)" style="fill: #a6d854; stroke: #ffffff; stroke-linejoin: miter"/>
   </g>
   <g id="patch_5">
    <path d="M 29.905 102.837187 
L 57.805 102.837187 
L 57.805 75.117187 
L 29.905 75.117187 
z
" clip-path="url(#pf1b1d008eb)" style="fill: #ffffff; stroke: #ffffff; stroke-linejoin: miter"/>
   </g>
   <g id="patch_6">
    <path d="M 29.905 130.557187 
L 57.805 130.557187 
L 57.805 102.837187 
L 29.905 102.837187 
z
" clip-path="url(#pf1b1d008eb)" style="fill: #ffffff; stroke: #ffffff; stroke-linejoin: miter"/>
   </g>
   <g id="patch_7">
    <path d="M 29.905 158.277187 
L 57.805 158.277187 
L 57.805 130.557187 
L 29.905 130.557187 
z
" clip-path="url(#pf1b1d008eb)" style="fill: #ffffff; stroke: #ffffff; stroke-linejoin: miter"/>
   </g>
   <g id="patch_8">
    <path d="M 29.905 185.997187 
L 57.805 185.997187 
L 57.805 158.277187 
L 29.905 158.277187 
z
" clip-path="url(#pf1b1d008eb)" style="fill: #ffffff; stroke: #ffffff; stroke-linejoin: miter"/>
   </g>
   <g id="patch_9">
    <path d="M 29.905 213.717187 
L 57.805 213.717187 
L 57.805 185.997187 
L 29.905 185.997187 
z
" clip-path="url(#pf1b1d008eb)" style="fill: #ffffff; stroke: #ffffff; stroke-linejoin: miter"/>
   </g>
   <g id="patch_10">
    <path d="M 29.905 241.437187 
L 57.805 241.437187 
L 57.805 213.717187 
L 29.905 213.717187 
z
" clip-path="url(#pf1b1d008eb)" style="fill: #ffffff; stroke: #ffffff; stroke-linejoin: miter"/>
   </g>
   <g id="patch_11">
    <path d="M 29.905 269.157187 
L 57.805 269.157187 
L 57.805 241.437187 
L 29.905 241.437187 
z
" clip-path="url(#pf1b1d008eb)" style="fill: #ffffff; stroke: #ffffff; stroke-linejoin: miter"/>
   </g>
   <g id="patch_12">
    <path d="M 29.905 296.877187 
L 57.805 296.877187 
L 57.805 269.157187 
L 29.905 269.157187 
z
" clip-path="url(#pf1b1d008eb)" style="fill: #ffffff; stroke: #ffffff; stroke-linejoin: miter"/>
   </g>
   <g id="patch_13">
    <path d="M 29.905 324.597187 
L 57.805 324.597187 
L 57.805 296.877187 
L 29.905 296.877187 
z
" clip-path="url(#pf1b1d008eb)" style="fill: #ffffff; stroke: #ffffff; stroke-linejoin: miter"/>
   </g>
   <g id="patch_14">
    <path d="M 29.905 352.317187 
L 57.805 352.317187 
L 57.805 324.597187 
L 29.905 324.597187 
z
" clip-path="url(#pf1b1d008eb)" style="fill: #ffffff; stroke: #ffffff; stroke-linejoin: miter"/>
   </g>
   <g id="patch_15">
    <path d="M 29.905 380.037187 
L 57.805 380.037187 
L 57.805 352.317187 
L 29.905 352.317187 
z
" clip-path="url(#pf1b1d008eb)" style="fill: #ffffff; stroke: #ffffff; stroke-linejoin: miter"/>
   </g>
   <g id="patch_16">
    <path d="M 29.905 407.757187 
L 57.805 407.757187 
L 57.805 380.037187 
L 29.905 380.037187 
z
" clip-path="url(#pf1b1d008eb)" style="fill: #ffffff; stroke: #ffffff; stroke-linejoin: miter"/>
   </g>
   <g id="patch_17">
    <path d="M 29.905 435.477187 
L 57.805 435.477187 
L 57.805 407.757187 
L 29.905 407.757187 
z
" clip-path="url(#pf1b1d008eb)" style="fill: #ffffff; stroke: #ffffff; stroke-linejoin: miter"/>
   </g>
   <g id="patch_18">
    <path d="M 29.905 463.197187 
L 57.805 463.197187 
L 57.805 435.477187 
L 29.905 435.477187 
z
" clip-path="url(#pf1b1d008eb)" style="fill: #ffffff; stroke: #ffffff; stroke-linejoin: miter"/>
   </g>
   <g id="patch_19">
    <path d="M 57.805 47.397187 
L 85.705 47.397187 
L 85.705 19.677187 
L 57.805 19.677187 
z
" clip-path="url(#pf1b1d008eb)" style="fill: #a6d854; stroke: #ffffff; stroke-linejoin: miter"/>
   </g>
   <g id="patch_20">
    <path d="M 57.805 75.117187 
L 85.705 75.117187 
L 85.705 47.397187 
L 57.805 47.397187 
z
" clip-path="url(#pf1b1d008eb)" style="fill: #ffffff; stroke: #ffffff; stroke-linejoin: miter"/>
   </g>
   <g id="patch_21">
    <path d="M 57.805 102.837187 
L 85.705 102.837187 
L 85.705 75.117187 
L 57.805 75.117187 
z
" clip-path="url(#pf1b1d008eb)" style="fill: #a6d854; stroke: #ffffff; stroke-linejoin: miter"/>
   </g>
   <g id="patch_22">
    <path d="M 57.805 130.557187 
L 85.705 130.557187 
L 85.705 102.837187 
L 57.805 102.837187 
z
" clip-path="url(#pf1b1d008eb)" style="fill: #ffffff; stroke: #ffffff; stroke-linejoin: miter"/>
   </g>
   <g id="patch_23">
    <path d="M 57.805 158.277187 
L 85.705 158.277187 
L 85.705 130.557187 
L 57.805 130.557187 
z
" clip-path="url(#pf1b1d008eb)" style="fill: #ffffff; stroke: #ffffff; stroke-linejoin: miter"/>
   </g>
   <g id="patch_24">
    <path d="M 57.805 185.997187 
L 85.705 185.997187 
L 85.705 158.277187 
L 57.805 158.277187 
z
" clip-path="url(#pf1b1d008eb)" style="fill: #ffffff; stroke: #ffffff; stroke-linejoin: miter"/>
   </g>
   <g id="patch_25">
    <path d="M 57.805 213.717187 
L 85.705 213.717187 
L 85.705 185.997187 
L 57.805 185.997187 
z
" clip-path="url(#pf1b1d008eb)" style="fill: #ffffff; stroke: #ffffff; stroke-linejoin: miter"/>
   </g>
   <g id="patch_26">
    <path d="M 57.805 241.437187 
L 85.705 241.437187 
L 85.705 213.717187 
L 57.805 213.717187 
z
" clip-path="url(#pf1b1d008eb)" style="fill: #ffffff; stroke: #ffffff; stroke-linejoin: miter"/>
   </g>
   <g id="patch_27">
    <path d="M 57.805 269.157187 
L 85.705 269.157187 
L 85.705 241.437187 
L 57.805 241.437187 
z
" clip-path="url(#pf1b1d008eb)" style="fill: #ffffff; stroke: #ffffff; stroke-linejoin: miter"/>
   </g>
   <g id="patch_28">
    <path d="M 57.805 296.877187 
L 85.705 296.877187 
L 85.705 269.157187 
L 57.805 269.157187 
z
" clip-path="url(#pf1b1d008eb)" style="fill: #ffffff; stroke: #ffffff; stroke-linejoin: miter"/>
   </g>
   <g id="patch_29">
    <path d="M 57.805 324.597187 
L 85.705 324.597187 
L 85.705 296.877187 
L 57.805 296.877187 
z
" clip-path="url(#pf1b1d008eb)" style="fill: #ffffff; stroke: #ffffff; stroke-linejoin: miter"/>
   </g>
   <g id="patch_30">
    <path d="M 57.805 352.317187 
L 85.705 352.317187 
L 85.705 324.597187 
L 57.805 324.597187 
z
" clip-path="url(#pf1b1d008eb)" style="fill: #ffffff; stroke: #ffffff; stroke-linejoin: miter"/>
   </g>
   <g id="patch_31">
    <path d="M 57.805 380.037187 
L 85.705 380.037187 
L 85.705 352.317187 
L 57.805 352.317187 
z
" clip-path="url(#pf1b1d008eb)" style="fill: #ffffff; stroke: #ffffff; stroke-linejoin: miter"/>
   </g>
   <g id="patch_32">
    <path d="M 57.805 407.757187 
L 85.705 407.757187 
L 85.705 380.037187 
L 57.805 380.037187 
z
" clip-path="url(#pf1b1d008eb)" style="fill: #ffffff; stroke: #ffffff; stroke-linejoin: miter"/>
   </g>
   <g id="patch_33">
    <path d="M 57.805 435.477187 
L 85.705 435.477187 
L 85.705 407.757187 
L 57.805 407.757187 
z
" clip-path="url(#pf1b1d008eb)" style="fill: #a6d854; stroke: #ffffff; stroke-linejoin: miter"/>
   </g>
   <g id="patch_34">
    <path d="M 57.805 463.197187 
L 85.705 463.197187 
L 85.705 435.477187 
L 57.805 435.477187 
z
" clip-path="url(#pf1b1d008eb)" style="fill: #ffffff; stroke: #ffffff; stroke-linejoin: miter"/>
   </g>
   <g id="patch_35">
    <path d="M 85.705 47.397187 
L 113.605 47.397187 
L 113.605 19.677187 
L 85.705 19.677187 
z
" clip-path="url(#pf1b1d008eb)" style="fill: #ffffff; stroke: #ffffff; stroke-linejoin: miter"/>
   </g>
   <g id="patch_36">
    <path d="M 85.705 75.117187 
L 113.605 75.117187 
L 113.605 47.397187 
L 85.705 47.397187 
z
" clip-path="url(#pf1b1d008eb)" style="fill: #a6d854; stroke: #ffffff; stroke-linejoin: miter"/>
   </g>
   <g id="patch_37">
    <path d="M 85.705 102.837187 
L 113.605 102.837187 
L 113.605 75.117187 
L 85.705 75.117187 
z
" clip-path="url(#pf1b1d008eb)" style="fill: #ffffff; stroke: #ffffff; stroke-linejoin: miter"/>
   </g>
   <g id="patch_38">
    <path d="M 85.705 130.557187 
L 113.605 130.557187 
L 113.605 102.837187 
L 85.705 102.837187 
z
" clip-path="url(#pf1b1d008eb)" style="fill: #a6d854; stroke: #ffffff; stroke-linejoin: miter"/>
   </g>
   <g id="patch_39">
    <path d="M 85.705 158.277187 
L 113.605 158.277187 
L 113.605 130.557187 
L 85.705 130.557187 
z
" clip-path="url(#pf1b1d008eb)" style="fill: #a6d854; stroke: #ffffff; stroke-linejoin: miter"/>
   </g>
   <g id="patch_40">
    <path d="M 85.705 185.997187 
L 113.605 185.997187 
L 113.605 158.277187 
L 85.705 158.277187 
z
" clip-path="url(#pf1b1d008eb)" style="fill: #ffffff; stroke: #ffffff; stroke-linejoin: miter"/>
   </g>
   <g id="patch_41">
    <path d="M 85.705 213.717187 
L 113.605 213.717187 
L 113.605 185.997187 
L 85.705 185.997187 
z
" clip-path="url(#pf1b1d008eb)" style="fill: #ffffff; stroke: #ffffff; stroke-linejoin: miter"/>
   </g>
   <g id="patch_42">
    <path d="M 85.705 241.437187 
L 113.605 241.437187 
L 113.605 213.717187 
L 85.705 213.717187 
z
" clip-path="url(#pf1b1d008eb)" style="fill: #ffffff; stroke: #ffffff; stroke-linejoin: miter"/>
   </g>
   <g id="patch_43">
    <path d="M 85.705 269.157187 
L 113.605 269.157187 
L 113.605 241.437187 
L 85.705 241.437187 
z
" clip-path="url(#pf1b1d008eb)" style="fill: #ffffff; stroke: #ffffff; stroke-linejoin: miter"/>
   </g>
   <g id="patch_44">
    <path d="M 85.705 296.877187 
L 113.605 296.877187 
L 113.605 269.157187 
L 85.705 269.157187 
z
" clip-path="url(#pf1b1d008eb)" style="fill: #ffffff; stroke: #ffffff; stroke-linejoin: miter"/>
   </g>
   <g id="patch_45">
    <path d="M 85.705 324.597187 
L 113.605 324.597187 
L 113.605 296.877187 
L 85.705 296.877187 
z
" clip-path="url(#pf1b1d008eb)" style="fill: #ffffff; stroke: #ffffff; stroke-linejoin: miter"/>
   </g>
   <g id="patch_46">
    <path d="M 85.705 352.317187 
L 113.605 352.317187 
L 113.605 324.597187 
L 85.705 324.597187 
z
" clip-path="url(#pf1b1d008eb)" style="fill: #ffffff; stroke: #ffffff; stroke-linejoin: miter"/>
   </g>
   <g id="patch_47">
    <path d="M 85.705 380.037187 
L 113.605 380.037187 
L 113.605 352.317187 
L 85.705 352.317187 
z
" clip-path="url(#pf1b1d008eb)" style="fill: #ffffff; stroke: #ffffff; stroke-linejoin: miter"/>
   </g>
   <g id="patch_48">
    <path d="M 85.705 407.757187 
L 113.605 407.757187 
L 113.605 380.037187 
L 85.705 380.037187 
z
" clip-path="url(#pf1b1d008eb)" style="fill: #ffffff; stroke: #ffffff; stroke-linejoin: miter"/>
   </g>
   <g id="patch_49">
    <path d="M 85.705 435.477187 
L 113.605 435.477187 
L 113.605 407.757187 
L 85.705 407.757187 
z
" clip-path="url(#pf1b1d008eb)" style="fill: #ffffff; stroke: #ffffff; stroke-linejoin: miter"/>
   </g>
   <g id="patch_50">
    <path d="M 85.705 463.197187 
L 113.605 463.197187 
L 113.605 435.477187 
L 85.705 435.477187 
z
" clip-path="url(#pf1b1d008eb)" style="fill: #ffffff; stroke: #ffffff; stroke-linejoin: miter"/>
   </g>
   <g id="patch_51">
    <path d="M 113.605 47.397187 
L 141.505 47.397187 
L 141.505 19.677187 
L 113.605 19.677187 
z
" clip-path="url(#pf1b1d008eb)" style="fill: #ffffff; stroke: #ffffff; stroke-linejoin: miter"/>
   </g>
   <g id="patch_52">
    <path d="M 113.605 75.117187 
L 141.505 75.117187 
L 141.505 47.397187 
L 113.605 47.397187 
z
" clip-path="url(#pf1b1d008eb)" style="fill: #ffffff; stroke: #ffffff; stroke-linejoin: miter"/>
   </g>
   <g id="patch_53">
    <path d="M 113.605 102.837187 
L 141.505 102.837187 
L 141.505 75.117187 
L 113.605 75.117187 
z
" clip-path="url(#pf1b1d008eb)" style="fill: #a6d854; stroke: #ffffff; stroke-linejoin: miter"/>
   </g>
   <g id="patch_54">
    <path d="M 113.605 130.557187 
L 141.505 130.557187 
L 141.505 102.837187 
L 113.605 102.837187 
z
" clip-path="url(#pf1b1d008eb)" style="fill: #ffffff; stroke: #ffffff; stroke-linejoin: miter"/>
   </g>
   <g id="patch_55">
    <path d="M 113.605 158.277187 
L 141.505 158.277187 
L 141.505 130.557187 
L 113.605 130.557187 
z
" clip-path="url(#pf1b1d008eb)" style="fill: #ffffff; stroke: #ffffff; stroke-linejoin: miter"/>
   </g>
   <g id="patch_56">
    <path d="M 113.605 185.997187 
L 141.505 185.997187 
L 141.505 158.277187 
L 113.605 158.277187 
z
" clip-path="url(#pf1b1d008eb)" style="fill: #ffffff; stroke: #ffffff; stroke-linejoin: miter"/>
   </g>
   <g id="patch_57">
    <path d="M 113.605 213.717187 
L 141.505 213.717187 
L 141.505 185.997187 
L 113.605 185.997187 
z
" clip-path="url(#pf1b1d008eb)" style="fill: #ffffff; stroke: #ffffff; stroke-linejoin: miter"/>
   </g>
   <g id="patch_58">
    <path d="M 113.605 241.437187 
L 141.505 241.437187 
L 141.505 213.717187 
L 113.605 213.717187 
z
" clip-path="url(#pf1b1d008eb)" style="fill: #ffffff; stroke: #ffffff; stroke-linejoin: miter"/>
   </g>
   <g id="patch_59">
    <path d="M 113.605 269.157187 
L 141.505 269.157187 
L 141.505 241.437187 
L 113.605 241.437187 
z
" clip-path="url(#pf1b1d008eb)" style="fill: #ffffff; stroke: #ffffff; stroke-linejoin: miter"/>
   </g>
   <g id="patch_60">
    <path d="M 113.605 296.877187 
L 141.505 296.877187 
L 141.505 269.157187 
L 113.605 269.157187 
z
" clip-path="url(#pf1b1d008eb)" style="fill: #ffffff; stroke: #ffffff; stroke-linejoin: miter"/>
   </g>
   <g id="patch_61">
    <path d="M 113.605 324.597187 
L 141.505 324.597187 
L 141.505 296.877187 
L 113.605 296.877187 
z
" clip-path="url(#pf1b1d008eb)" style="fill: #ffffff; stroke: #ffffff; stroke-linejoin: miter"/>
   </g>
   <g id="patch_62">
    <path d="M 113.605 352.317187 
L 141.505 352.317187 
L 141.505 324.597187 
L 113.605 324.597187 
z
" clip-path="url(#pf1b1d008eb)" style="fill: #ffffff; stroke: #ffffff; stroke-linejoin: miter"/>
   </g>
   <g id="patch_63">
    <path d="M 113.605 380.037187 
L 141.505 380.037187 
L 141.505 352.317187 
L 113.605 352.317187 
z
" clip-path="url(#pf1b1d008eb)" style="fill: #ffffff; stroke: #ffffff; stroke-linejoin: miter"/>
   </g>
   <g id="patch_64">
    <path d="M 113.605 407.757187 
L 141.505 407.757187 
L 141.505 380.037187 
L 113.605 380.037187 
z
" clip-path="url(#pf1b1d008eb)" style="fill: #ffffff; stroke: #ffffff; stroke-linejoin: miter"/>
   </g>
   <g id="patch_65">
    <path d="M 113.605 435.477187 
L 141.505 435.477187 
L 141.505 407.757187 
L 113.605 407.757187 
z
" clip-path="url(#pf1b1d008eb)" style="fill: #ffffff; stroke: #ffffff; stroke-linejoin: miter"/>
   </g>
   <g id="patch_66">
    <path d="M 113.605 463.197187 
L 141.505 463.197187 
L 141.505 435.477187 
L 113.605 435.477187 
z
" clip-path="url(#pf1b1d008eb)" style="fill: #ffffff; stroke: #ffffff; stroke-linejoin: miter"/>
   </g>
   <g id="patch_67">
    <path d="M 141.505 47.397187 
L 169.405 47.397187 
L 169.405 19.677187 
L 141.505 19.677187 
z
" clip-path="url(#pf1b1d008eb)" style="fill: #ffffff; stroke: #ffffff; stroke-linejoin: miter"/>
   </g>
   <g id="patch_68">
    <path d="M 141.505 75.117187 
L 169.405 75.117187 
L 169.405 47.397187 
L 141.505 47.397187 
z
" clip-path="url(#pf1b1d008eb)" style="fill: #ffffff; stroke: #ffffff; stroke-linejoin: miter"/>
   </g>
   <g id="patch_69">
    <path d="M 141.505 102.837187 
L 169.405 102.837187 
L 169.405 75.117187 
L 141.505 75.117187 
z
" clip-path="url(#pf1b1d008eb)" style="fill: #a6d854; stroke: #ffffff; stroke-linejoin: miter"/>
   </g>
   <g id="patch_70">
    <path d="M 141.505 130.557187 
L 169.405 130.557187 
L 169.405 102.837187 
L 141.505 102.837187 
z
" clip-path="url(#pf1b1d008eb)" style="fill: #ffffff; stroke: #ffffff; stroke-linejoin: miter"/>
   </g>
   <g id="patch_71">
    <path d="M 141.505 158.277187 
L 169.405 158.277187 
L 169.405 130.557187 
L 141.505 130.557187 
z
" clip-path="url(#pf1b1d008eb)" style="fill: #ffffff; stroke: #ffffff; stroke-linejoin: miter"/>
   </g>
   <g id="patch_72">
    <path d="M 141.505 185.997187 
L 169.405 185.997187 
L 169.405 158.277187 
L 141.505 158.277187 
z
" clip-path="url(#pf1b1d008eb)" style="fill: #a6d854; stroke: #ffffff; stroke-linejoin: miter"/>
   </g>
   <g id="patch_73">
    <path d="M 141.505 213.717187 
L 169.405 213.717187 
L 169.405 185.997187 
L 141.505 185.997187 
z
" clip-path="url(#pf1b1d008eb)" style="fill: #ffffff; stroke: #ffffff; stroke-linejoin: miter"/>
   </g>
   <g id="patch_74">
    <path d="M 141.505 241.437187 
L 169.405 241.437187 
L 169.405 213.717187 
L 141.505 213.717187 
z
" clip-path="url(#pf1b1d008eb)" style="fill: #ffffff; stroke: #ffffff; stroke-linejoin: miter"/>
   </g>
   <g id="patch_75">
    <path d="M 141.505 269.157187 
L 169.405 269.157187 
L 169.405 241.437187 
L 141.505 241.437187 
z
" clip-path="url(#pf1b1d008eb)" style="fill: #ffffff; stroke: #ffffff; stroke-linejoin: miter"/>
   </g>
   <g id="patch_76">
    <path d="M 141.505 296.877187 
L 169.405 296.877187 
L 169.405 269.157187 
L 141.505 269.157187 
z
" clip-path="url(#pf1b1d008eb)" style="fill: #ffffff; stroke: #ffffff; stroke-linejoin: miter"/>
   </g>
   <g id="patch_77">
    <path d="M 141.505 324.597187 
L 169.405 324.597187 
L 169.405 296.877187 
L 141.505 296.877187 
z
" clip-path="url(#pf1b1d008eb)" style="fill: #ffffff; stroke: #ffffff; stroke-linejoin: miter"/>
   </g>
   <g id="patch_78">
    <path d="M 141.505 352.317187 
L 169.405 352.317187 
L 169.405 324.597187 
L 141.505 324.597187 
z
" clip-path="url(#pf1b1d008eb)" style="fill: #a6d854; stroke: #ffffff; stroke-linejoin: miter"/>
   </g>
   <g id="patch_79">
    <path d="M 141.505 380.037187 
L 169.405 380.037187 
L 169.405 352.317187 
L 141.505 352.317187 
z
" clip-path="url(#pf1b1d008eb)" style="fill: #ffffff; stroke: #ffffff; stroke-linejoin: miter"/>
   </g>
   <g id="patch_80">
    <path d="M 141.505 407.757187 
L 169.405 407.757187 
L 169.405 380.037187 
L 141.505 380.037187 
z
" clip-path="url(#pf1b1d008eb)" style="fill: #ffffff; stroke: #ffffff; stroke-linejoin: miter"/>
   </g>
   <g id="patch_81">
    <path d="M 141.505 435.477187 
L 169.405 435.477187 
L 169.405 407.757187 
L 141.505 407.757187 
z
" clip-path="url(#pf1b1d008eb)" style="fill: #ffffff; stroke: #ffffff; stroke-linejoin: miter"/>
   </g>
   <g id="patch_82">
    <path d="M 141.505 463.197187 
L 169.405 463.197187 
L 169.405 435.477187 
L 141.505 435.477187 
z
" clip-path="url(#pf1b1d008eb)" style="fill: #ffffff; stroke: #ffffff; stroke-linejoin: miter"/>
   </g>
   <g id="patch_83">
    <path d="M 169.405 47.397187 
L 197.305 47.397187 
L 197.305 19.677187 
L 169.405 19.677187 
z
" clip-path="url(#pf1b1d008eb)" style="fill: #ffffff; stroke: #ffffff; stroke-linejoin: miter"/>
   </g>
   <g id="patch_84">
    <path d="M 169.405 75.117187 
L 197.305 75.117187 
L 197.305 47.397187 
L 169.405 47.397187 
z
" clip-path="url(#pf1b1d008eb)" style="fill: #ffffff; stroke: #ffffff; stroke-linejoin: miter"/>
   </g>
   <g id="patch_85">
    <path d="M 169.405 102.837187 
L 197.305 102.837187 
L 197.305 75.117187 
L 169.405 75.117187 
z
" clip-path="url(#pf1b1d008eb)" style="fill: #ffffff; stroke: #ffffff; stroke-linejoin: miter"/>
   </g>
   <g id="patch_86">
    <path d="M 169.405 130.557187 
L 197.305 130.557187 
L 197.305 102.837187 
L 169.405 102.837187 
z
" clip-path="url(#pf1b1d008eb)" style="fill: #ffffff; stroke: #ffffff; stroke-linejoin: miter"/>
   </g>
   <g id="patch_87">
    <path d="M 169.405 158.277187 
L 197.305 158.277187 
L 197.305 130.557187 
L 169.405 130.557187 
z
" clip-path="url(#pf1b1d008eb)" style="fill: #a6d854; stroke: #ffffff; stroke-linejoin: miter"/>
   </g>
   <g id="patch_88">
    <path d="M 169.405 185.997187 
L 197.305 185.997187 
L 197.305 158.277187 
L 169.405 158.277187 
z
" clip-path="url(#pf1b1d008eb)" style="fill: #ffffff; stroke: #ffffff; stroke-linejoin: miter"/>
   </g>
   <g id="patch_89">
    <path d="M 169.405 213.717187 
L 197.305 213.717187 
L 197.305 185.997187 
L 169.405 185.997187 
z
" clip-path="url(#pf1b1d008eb)" style="fill: #a6d854; stroke: #ffffff; stroke-linejoin: miter"/>
   </g>
   <g id="patch_90">
    <path d="M 169.405 241.437187 
L 197.305 241.437187 
L 197.305 213.717187 
L 169.405 213.717187 
z
" clip-path="url(#pf1b1d008eb)" style="fill: #ffffff; stroke: #ffffff; stroke-linejoin: miter"/>
   </g>
   <g id="patch_91">
    <path d="M 169.405 269.157187 
L 197.305 269.157187 
L 197.305 241.437187 
L 169.405 241.437187 
z
" clip-path="url(#pf1b1d008eb)" style="fill: #ffffff; stroke: #ffffff; stroke-linejoin: miter"/>
   </g>
   <g id="patch_92">
    <path d="M 169.405 296.877187 
L 197.305 296.877187 
L 197.305 269.157187 
L 169.405 269.157187 
z
" clip-path="url(#pf1b1d008eb)" style="fill: #ffffff; stroke: #ffffff; stroke-linejoin: miter"/>
   </g>
   <g id="patch_93">
    <path d="M 169.405 324.597187 
L 197.305 324.597187 
L 197.305 296.877187 
L 169.405 296.877187 
z
" clip-path="url(#pf1b1d008eb)" style="fill: #ffffff; stroke: #ffffff; stroke-linejoin: miter"/>
   </g>
   <g id="patch_94">
    <path d="M 169.405 352.317187 
L 197.305 352.317187 
L 197.305 324.597187 
L 169.405 324.597187 
z
" clip-path="url(#pf1b1d008eb)" style="fill: #ffffff; stroke: #ffffff; stroke-linejoin: miter"/>
   </g>
   <g id="patch_95">
    <path d="M 169.405 380.037187 
L 197.305 380.037187 
L 197.305 352.317187 
L 169.405 352.317187 
z
" clip-path="url(#pf1b1d008eb)" style="fill: #ffffff; stroke: #ffffff; stroke-linejoin: miter"/>
   </g>
   <g id="patch_96">
    <path d="M 169.405 407.757187 
L 197.305 407.757187 
L 197.305 380.037187 
L 169.405 380.037187 
z
" clip-path="url(#pf1b1d008eb)" style="fill: #ffffff; stroke: #ffffff; stroke-linejoin: miter"/>
   </g>
   <g id="patch_97">
    <path d="M 169.405 435.477187 
L 197.305 435.477187 
L 197.305 407.757187 
L 169.405 407.757187 
z
" clip-path="url(#pf1b1d008eb)" style="fill: #ffffff; stroke: #ffffff; stroke-linejoin: miter"/>
   </g>
   <g id="patch_98">
    <path d="M 169.405 463.197187 
L 197.305 463.197187 
L 197.305 435.477187 
L 169.405 435.477187 
z
" clip-path="url(#pf1b1d008eb)" style="fill: #ffffff; stroke: #ffffff; stroke-linejoin: miter"/>
   </g>
   <g id="patch_99">
    <path d="M 197.305 47.397187 
L 225.205 47.397187 
L 225.205 19.677187 
L 197.305 19.677187 
z
" clip-path="url(#pf1b1d008eb)" style="fill: #ffffff; stroke: #ffffff; stroke-linejoin: miter"/>
   </g>
   <g id="patch_100">
    <path d="M 197.305 75.117187 
L 225.205 75.117187 
L 225.205 47.397187 
L 197.305 47.397187 
z
" clip-path="url(#pf1b1d008eb)" style="fill: #ffffff; stroke: #ffffff; stroke-linejoin: miter"/>
   </g>
   <g id="patch_101">
    <path d="M 197.305 102.837187 
L 225.205 102.837187 
L 225.205 75.117187 
L 197.305 75.117187 
z
" clip-path="url(#pf1b1d008eb)" style="fill: #ffffff; stroke: #ffffff; stroke-linejoin: miter"/>
   </g>
   <g id="patch_102">
    <path d="M 197.305 130.557187 
L 225.205 130.557187 
L 225.205 102.837187 
L 197.305 102.837187 
z
" clip-path="url(#pf1b1d008eb)" style="fill: #ffffff; stroke: #ffffff; stroke-linejoin: miter"/>
   </g>
   <g id="patch_103">
    <path d="M 197.305 158.277187 
L 225.205 158.277187 
L 225.205 130.557187 
L 197.305 130.557187 
z
" clip-path="url(#pf1b1d008eb)" style="fill: #ffffff; stroke: #ffffff; stroke-linejoin: miter"/>
   </g>
   <g id="patch_104">
    <path d="M 197.305 185.997187 
L 225.205 185.997187 
L 225.205 158.277187 
L 197.305 158.277187 
z
" clip-path="url(#pf1b1d008eb)" style="fill: #a6d854; stroke: #ffffff; stroke-linejoin: miter"/>
   </g>
   <g id="patch_105">
    <path d="M 197.305 213.717187 
L 225.205 213.717187 
L 225.205 185.997187 
L 197.305 185.997187 
z
" clip-path="url(#pf1b1d008eb)" style="fill: #ffffff; stroke: #ffffff; stroke-linejoin: miter"/>
   </g>
   <g id="patch_106">
    <path d="M 197.305 241.437187 
L 225.205 241.437187 
L 225.205 213.717187 
L 197.305 213.717187 
z
" clip-path="url(#pf1b1d008eb)" style="fill: #a6d854; stroke: #ffffff; stroke-linejoin: miter"/>
   </g>
   <g id="patch_107">
    <path d="M 197.305 269.157187 
L 225.205 269.157187 
L 225.205 241.437187 
L 197.305 241.437187 
z
" clip-path="url(#pf1b1d008eb)" style="fill: #ffffff; stroke: #ffffff; stroke-linejoin: miter"/>
   </g>
   <g id="patch_108">
    <path d="M 197.305 296.877187 
L 225.205 296.877187 
L 225.205 269.157187 
L 197.305 269.157187 
z
" clip-path="url(#pf1b1d008eb)" style="fill: #ffffff; stroke: #ffffff; stroke-linejoin: miter"/>
   </g>
   <g id="patch_109">
    <path d="M 197.305 324.597187 
L 225.205 324.597187 
L 225.205 296.877187 
L 197.305 296.877187 
z
" clip-path="url(#pf1b1d008eb)" style="fill: #ffffff; stroke: #ffffff; stroke-linejoin: miter"/>
   </g>
   <g id="patch_110">
    <path d="M 197.305 352.317187 
L 225.205 352.317187 
L 225.205 324.597187 
L 197.305 324.597187 
z
" clip-path="url(#pf1b1d008eb)" style="fill: #ffffff; stroke: #ffffff; stroke-linejoin: miter"/>
   </g>
   <g id="patch_111">
    <path d="M 197.305 380.037187 
L 225.205 380.037187 
L 225.205 352.317187 
L 197.305 352.317187 
z
" clip-path="url(#pf1b1d008eb)" style="fill: #ffffff; stroke: #ffffff; stroke-linejoin: miter"/>
   </g>
   <g id="patch_112">
    <path d="M 197.305 407.757187 
L 225.205 407.757187 
L 225.205 380.037187 
L 197.305 380.037187 
z
" clip-path="url(#pf1b1d008eb)" style="fill: #ffffff; stroke: #ffffff; stroke-linejoin: miter"/>
   </g>
   <g id="patch_113">
    <path d="M 197.305 435.477187 
L 225.205 435.477187 
L 225.205 407.757187 
L 197.305 407.757187 
z
" clip-path="url(#pf1b1d008eb)" style="fill: #ffffff; stroke: #ffffff; stroke-linejoin: miter"/>
   </g>
   <g id="patch_114">
    <path d="M 197.305 463.197187 
L 225.205 463.197187 
L 225.205 435.477187 
L 197.305 435.477187 
z
" clip-path="url(#pf1b1d008eb)" style="fill: #ffffff; stroke: #ffffff; stroke-linejoin: miter"/>
   </g>
   <g id="patch_115">
    <path d="M 225.205 47.397187 
L 253.105 47.397187 
L 253.105 19.677187 
L 225.205 19.677187 
z
" clip-path="url(#pf1b1d008eb)" style="fill: #ffffff; stroke: #ffffff; stroke-linejoin: miter"/>
   </g>
   <g id="patch_116">
    <path d="M 225.205 75.117187 
L 253.105 75.117187 
L 253.105 47.397187 
L 225.205 47.397187 
z
" clip-path="url(#pf1b1d008eb)" style="fill: #ffffff; stroke: #ffffff; stroke-linejoin: miter"/>
   </g>
   <g id="patch_117">
    <path d="M 225.205 102.837187 
L 253.105 102.837187 
L 253.105 75.117187 
L 225.205 75.117187 
z
" clip-path="url(#pf1b1d008eb)" style="fill: #ffffff; stroke: #ffffff; stroke-linejoin: miter"/>
   </g>
   <g id="patch_118">
    <path d="M 225.205 130.557187 
L 253.105 130.557187 
L 253.105 102.837187 
L 225.205 102.837187 
z
" clip-path="url(#pf1b1d008eb)" style="fill: #ffffff; stroke: #ffffff; stroke-linejoin: miter"/>
   </g>
   <g id="patch_119">
    <path d="M 225.205 158.277187 
L 253.105 158.277187 
L 253.105 130.557187 
L 225.205 130.557187 
z
" clip-path="url(#pf1b1d008eb)" style="fill: #ffffff; stroke: #ffffff; stroke-linejoin: miter"/>
   </g>
   <g id="patch_120">
    <path d="M 225.205 185.997187 
L 253.105 185.997187 
L 253.105 158.277187 
L 225.205 158.277187 
z
" clip-path="url(#pf1b1d008eb)" style="fill: #ffffff; stroke: #ffffff; stroke-linejoin: miter"/>
   </g>
   <g id="patch_121">
    <path d="M 225.205 213.717187 
L 253.105 213.717187 
L 253.105 185.997187 
L 225.205 185.997187 
z
" clip-path="url(#pf1b1d008eb)" style="fill: #a6d854; stroke: #ffffff; stroke-linejoin: miter"/>
   </g>
   <g id="patch_122">
    <path d="M 225.205 241.437187 
L 253.105 241.437187 
L 253.105 213.717187 
L 225.205 213.717187 
z
" clip-path="url(#pf1b1d008eb)" style="fill: #ffffff; stroke: #ffffff; stroke-linejoin: miter"/>
   </g>
   <g id="patch_123">
    <path d="M 225.205 269.157187 
L 253.105 269.157187 
L 253.105 241.437187 
L 225.205 241.437187 
z
" clip-path="url(#pf1b1d008eb)" style="fill: #a6d854; stroke: #ffffff; stroke-linejoin: miter"/>
   </g>
   <g id="patch_124">
    <path d="M 225.205 296.877187 
L 253.105 296.877187 
L 253.105 269.157187 
L 225.205 269.157187 
z
" clip-path="url(#pf1b1d008eb)" style="fill: #a6d854; stroke: #ffffff; stroke-linejoin: miter"/>
   </g>
   <g id="patch_125">
    <path d="M 225.205 324.597187 
L 253.105 324.597187 
L 253.105 296.877187 
L 225.205 296.877187 
z
" clip-path="url(#pf1b1d008eb)" style="fill: #a6d854; stroke: #ffffff; stroke-linejoin: miter"/>
   </g>
   <g id="patch_126">
    <path d="M 225.205 352.317187 
L 253.105 352.317187 
L 253.105 324.597187 
L 225.205 324.597187 
z
" clip-path="url(#pf1b1d008eb)" style="fill: #ffffff; stroke: #ffffff; stroke-linejoin: miter"/>
   </g>
   <g id="patch_127">
    <path d="M 225.205 380.037187 
L 253.105 380.037187 
L 253.105 352.317187 
L 225.205 352.317187 
z
" clip-path="url(#pf1b1d008eb)" style="fill: #ffffff; stroke: #ffffff; stroke-linejoin: miter"/>
   </g>
   <g id="patch_128">
    <path d="M 225.205 407.757187 
L 253.105 407.757187 
L 253.105 380.037187 
L 225.205 380.037187 
z
" clip-path="url(#pf1b1d008eb)" style="fill: #ffffff; stroke: #ffffff; stroke-linejoin: miter"/>
   </g>
   <g id="patch_129">
    <path d="M 225.205 435.477187 
L 253.105 435.477187 
L 253.105 407.757187 
L 225.205 407.757187 
z
" clip-path="url(#pf1b1d008eb)" style="fill: #ffffff; stroke: #ffffff; stroke-linejoin: miter"/>
   </g>
   <g id="patch_130">
    <path d="M 225.205 463.197187 
L 253.105 463.197187 
L 253.105 435.477187 
L 225.205 435.477187 
z
" clip-path="url(#pf1b1d008eb)" style="fill: #ffffff; stroke: #ffffff; stroke-linejoin: miter"/>
   </g>
   <g id="patch_131">
    <path d="M 253.105 47.397187 
L 281.005 47.397187 
L 281.005 19.677187 
L 253.105 19.677187 
z
" clip-path="url(#pf1b1d008eb)" style="fill: #ffffff; stroke: #ffffff; stroke-linejoin: miter"/>
   </g>
   <g id="patch_132">
    <path d="M 253.105 75.117187 
L 281.005 75.117187 
L 281.005 47.397187 
L 253.105 47.397187 
z
" clip-path="url(#pf1b1d008eb)" style="fill: #ffffff; stroke: #ffffff; stroke-linejoin: miter"/>
   </g>
   <g id="patch_133">
    <path d="M 253.105 102.837187 
L 281.005 102.837187 
L 281.005 75.117187 
L 253.105 75.117187 
z
" clip-path="url(#pf1b1d008eb)" style="fill: #ffffff; stroke: #ffffff; stroke-linejoin: miter"/>
   </g>
   <g id="patch_134">
    <path d="M 253.105 130.557187 
L 281.005 130.557187 
L 281.005 102.837187 
L 253.105 102.837187 
z
" clip-path="url(#pf1b1d008eb)" style="fill: #ffffff; stroke: #ffffff; stroke-linejoin: miter"/>
   </g>
   <g id="patch_135">
    <path d="M 253.105 158.277187 
L 281.005 158.277187 
L 281.005 130.557187 
L 253.105 130.557187 
z
" clip-path="url(#pf1b1d008eb)" style="fill: #ffffff; stroke: #ffffff; stroke-linejoin: miter"/>
   </g>
   <g id="patch_136">
    <path d="M 253.105 185.997187 
L 281.005 185.997187 
L 281.005 158.277187 
L 253.105 158.277187 
z
" clip-path="url(#pf1b1d008eb)" style="fill: #ffffff; stroke: #ffffff; stroke-linejoin: miter"/>
   </g>
   <g id="patch_137">
    <path d="M 253.105 213.717187 
L 281.005 213.717187 
L 281.005 185.997187 
L 253.105 185.997187 
z
" clip-path="url(#pf1b1d008eb)" style="fill: #ffffff; stroke: #ffffff; stroke-linejoin: miter"/>
   </g>
   <g id="patch_138">
    <path d="M 253.105 241.437187 
L 281.005 241.437187 
L 281.005 213.717187 
L 253.105 213.717187 
z
" clip-path="url(#pf1b1d008eb)" style="fill: #a6d854; stroke: #ffffff; stroke-linejoin: miter"/>
   </g>
   <g id="patch_139">
    <path d="M 253.105 269.157187 
L 281.005 269.157187 
L 281.005 241.437187 
L 253.105 241.437187 
z
" clip-path="url(#pf1b1d008eb)" style="fill: #ffffff; stroke: #ffffff; stroke-linejoin: miter"/>
   </g>
   <g id="patch_140">
    <path d="M 253.105 296.877187 
L 281.005 296.877187 
L 281.005 269.157187 
L 253.105 269.157187 
z
" clip-path="url(#pf1b1d008eb)" style="fill: #ffffff; stroke: #ffffff; stroke-linejoin: miter"/>
   </g>
   <g id="patch_141">
    <path d="M 253.105 324.597187 
L 281.005 324.597187 
L 281.005 296.877187 
L 253.105 296.877187 
z
" clip-path="url(#pf1b1d008eb)" style="fill: #ffffff; stroke: #ffffff; stroke-linejoin: miter"/>
   </g>
   <g id="patch_142">
    <path d="M 253.105 352.317187 
L 281.005 352.317187 
L 281.005 324.597187 
L 253.105 324.597187 
z
" clip-path="url(#pf1b1d008eb)" style="fill: #ffffff; stroke: #ffffff; stroke-linejoin: miter"/>
   </g>
   <g id="patch_143">
    <path d="M 253.105 380.037187 
L 281.005 380.037187 
L 281.005 352.317187 
L 253.105 352.317187 
z
" clip-path="url(#pf1b1d008eb)" style="fill: #ffffff; stroke: #ffffff; stroke-linejoin: miter"/>
   </g>
   <g id="patch_144">
    <path d="M 253.105 407.757187 
L 281.005 407.757187 
L 281.005 380.037187 
L 253.105 380.037187 
z
" clip-path="url(#pf1b1d008eb)" style="fill: #ffffff; stroke: #ffffff; stroke-linejoin: miter"/>
   </g>
   <g id="patch_145">
    <path d="M 253.105 435.477187 
L 281.005 435.477187 
L 281.005 407.757187 
L 253.105 407.757187 
z
" clip-path="url(#pf1b1d008eb)" style="fill: #ffffff; stroke: #ffffff; stroke-linejoin: miter"/>
   </g>
   <g id="patch_146">
    <path d="M 253.105 463.197187 
L 281.005 463.197187 
L 281.005 435.477187 
L 253.105 435.477187 
z
" clip-path="url(#pf1b1d008eb)" style="fill: #ffffff; stroke: #ffffff; stroke-linejoin: miter"/>
   </g>
   <g id="patch_147">
    <path d="M 281.005 47.397187 
L 308.905 47.397187 
L 308.905 19.677187 
L 281.005 19.677187 
z
" clip-path="url(#pf1b1d008eb)" style="fill: #ffffff; stroke: #ffffff; stroke-linejoin: miter"/>
   </g>
   <g id="patch_148">
    <path d="M 281.005 75.117187 
L 308.905 75.117187 
L 308.905 47.397187 
L 281.005 47.397187 
z
" clip-path="url(#pf1b1d008eb)" style="fill: #ffffff; stroke: #ffffff; stroke-linejoin: miter"/>
   </g>
   <g id="patch_149">
    <path d="M 281.005 102.837187 
L 308.905 102.837187 
L 308.905 75.117187 
L 281.005 75.117187 
z
" clip-path="url(#pf1b1d008eb)" style="fill: #ffffff; stroke: #ffffff; stroke-linejoin: miter"/>
   </g>
   <g id="patch_150">
    <path d="M 281.005 130.557187 
L 308.905 130.557187 
L 308.905 102.837187 
L 281.005 102.837187 
z
" clip-path="url(#pf1b1d008eb)" style="fill: #ffffff; stroke: #ffffff; stroke-linejoin: miter"/>
   </g>
   <g id="patch_151">
    <path d="M 281.005 158.277187 
L 308.905 158.277187 
L 308.905 130.557187 
L 281.005 130.557187 
z
" clip-path="url(#pf1b1d008eb)" style="fill: #ffffff; stroke: #ffffff; stroke-linejoin: miter"/>
   </g>
   <g id="patch_152">
    <path d="M 281.005 185.997187 
L 308.905 185.997187 
L 308.905 158.277187 
L 281.005 158.277187 
z
" clip-path="url(#pf1b1d008eb)" style="fill: #ffffff; stroke: #ffffff; stroke-linejoin: miter"/>
   </g>
   <g id="patch_153">
    <path d="M 281.005 213.717187 
L 308.905 213.717187 
L 308.905 185.997187 
L 281.005 185.997187 
z
" clip-path="url(#pf1b1d008eb)" style="fill: #ffffff; stroke: #ffffff; stroke-linejoin: miter"/>
   </g>
   <g id="patch_154">
    <path d="M 281.005 241.437187 
L 308.905 241.437187 
L 308.905 213.717187 
L 281.005 213.717187 
z
" clip-path="url(#pf1b1d008eb)" style="fill: #a6d854; stroke: #ffffff; stroke-linejoin: miter"/>
   </g>
   <g id="patch_155">
    <path d="M 281.005 269.157187 
L 308.905 269.157187 
L 308.905 241.437187 
L 281.005 241.437187 
z
" clip-path="url(#pf1b1d008eb)" style="fill: #ffffff; stroke: #ffffff; stroke-linejoin: miter"/>
   </g>
   <g id="patch_156">
    <path d="M 281.005 296.877187 
L 308.905 296.877187 
L 308.905 269.157187 
L 281.005 269.157187 
z
" clip-path="url(#pf1b1d008eb)" style="fill: #ffffff; stroke: #ffffff; stroke-linejoin: miter"/>
   </g>
   <g id="patch_157">
    <path d="M 281.005 324.597187 
L 308.905 324.597187 
L 308.905 296.877187 
L 281.005 296.877187 
z
" clip-path="url(#pf1b1d008eb)" style="fill: #ffffff; stroke: #ffffff; stroke-linejoin: miter"/>
   </g>
   <g id="patch_158">
    <path d="M 281.005 352.317187 
L 308.905 352.317187 
L 308.905 324.597187 
L 281.005 324.597187 
z
" clip-path="url(#pf1b1d008eb)" style="fill: #ffffff; stroke: #ffffff; stroke-linejoin: miter"/>
   </g>
   <g id="patch_159">
    <path d="M 281.005 380.037187 
L 308.905 380.037187 
L 308.905 352.317187 
L 281.005 352.317187 
z
" clip-path="url(#pf1b1d008eb)" style="fill: #ffffff; stroke: #ffffff; stroke-linejoin: miter"/>
   </g>
   <g id="patch_160">
    <path d="M 281.005 407.757187 
L 308.905 407.757187 
L 308.905 380.037187 
L 281.005 380.037187 
z
" clip-path="url(#pf1b1d008eb)" style="fill: #ffffff; stroke: #ffffff; stroke-linejoin: miter"/>
   </g>
   <g id="patch_161">
    <path d="M 281.005 435.477187 
L 308.905 435.477187 
L 308.905 407.757187 
L 281.005 407.757187 
z
" clip-path="url(#pf1b1d008eb)" style="fill: #ffffff; stroke: #ffffff; stroke-linejoin: miter"/>
   </g>
   <g id="patch_162">
    <path d="M 281.005 463.197187 
L 308.905 463.197187 
L 308.905 435.477187 
L 281.005 435.477187 
z
" clip-path="url(#pf1b1d008eb)" style="fill: #ffffff; stroke: #ffffff; stroke-linejoin: miter"/>
   </g>
   <g id="patch_163">
    <path d="M 308.905 47.397187 
L 336.805 47.397187 
L 336.805 19.677187 
L 308.905 19.677187 
z
" clip-path="url(#pf1b1d008eb)" style="fill: #ffffff; stroke: #ffffff; stroke-linejoin: miter"/>
   </g>
   <g id="patch_164">
    <path d="M 308.905 75.117187 
L 336.805 75.117187 
L 336.805 47.397187 
L 308.905 47.397187 
z
" clip-path="url(#pf1b1d008eb)" style="fill: #ffffff; stroke: #ffffff; stroke-linejoin: miter"/>
   </g>
   <g id="patch_165">
    <path d="M 308.905 102.837187 
L 336.805 102.837187 
L 336.805 75.117187 
L 308.905 75.117187 
z
" clip-path="url(#pf1b1d008eb)" style="fill: #ffffff; stroke: #ffffff; stroke-linejoin: miter"/>
   </g>
   <g id="patch_166">
    <path d="M 308.905 130.557187 
L 336.805 130.557187 
L 336.805 102.837187 
L 308.905 102.837187 
z
" clip-path="url(#pf1b1d008eb)" style="fill: #ffffff; stroke: #ffffff; stroke-linejoin: miter"/>
   </g>
   <g id="patch_167">
    <path d="M 308.905 158.277187 
L 336.805 158.277187 
L 336.805 130.557187 
L 308.905 130.557187 
z
" clip-path="url(#pf1b1d008eb)" style="fill: #ffffff; stroke: #ffffff; stroke-linejoin: miter"/>
   </g>
   <g id="patch_168">
    <path d="M 308.905 185.997187 
L 336.805 185.997187 
L 336.805 158.277187 
L 308.905 158.277187 
z
" clip-path="url(#pf1b1d008eb)" style="fill: #ffffff; stroke: #ffffff; stroke-linejoin: miter"/>
   </g>
   <g id="patch_169">
    <path d="M 308.905 213.717187 
L 336.805 213.717187 
L 336.805 185.997187 
L 308.905 185.997187 
z
" clip-path="url(#pf1b1d008eb)" style="fill: #ffffff; stroke: #ffffff; stroke-linejoin: miter"/>
   </g>
   <g id="patch_170">
    <path d="M 308.905 241.437187 
L 336.805 241.437187 
L 336.805 213.717187 
L 308.905 213.717187 
z
" clip-path="url(#pf1b1d008eb)" style="fill: #a6d854; stroke: #ffffff; stroke-linejoin: miter"/>
   </g>
   <g id="patch_171">
    <path d="M 308.905 269.157187 
L 336.805 269.157187 
L 336.805 241.437187 
L 308.905 241.437187 
z
" clip-path="url(#pf1b1d008eb)" style="fill: #ffffff; stroke: #ffffff; stroke-linejoin: miter"/>
   </g>
   <g id="patch_172">
    <path d="M 308.905 296.877187 
L 336.805 296.877187 
L 336.805 269.157187 
L 308.905 269.157187 
z
" clip-path="url(#pf1b1d008eb)" style="fill: #ffffff; stroke: #ffffff; stroke-linejoin: miter"/>
   </g>
   <g id="patch_173">
    <path d="M 308.905 324.597187 
L 336.805 324.597187 
L 336.805 296.877187 
L 308.905 296.877187 
z
" clip-path="url(#pf1b1d008eb)" style="fill: #ffffff; stroke: #ffffff; stroke-linejoin: miter"/>
   </g>
   <g id="patch_174">
    <path d="M 308.905 352.317187 
L 336.805 352.317187 
L 336.805 324.597187 
L 308.905 324.597187 
z
" clip-path="url(#pf1b1d008eb)" style="fill: #ffffff; stroke: #ffffff; stroke-linejoin: miter"/>
   </g>
   <g id="patch_175">
    <path d="M 308.905 380.037187 
L 336.805 380.037187 
L 336.805 352.317187 
L 308.905 352.317187 
z
" clip-path="url(#pf1b1d008eb)" style="fill: #ffffff; stroke: #ffffff; stroke-linejoin: miter"/>
   </g>
   <g id="patch_176">
    <path d="M 308.905 407.757187 
L 336.805 407.757187 
L 336.805 380.037187 
L 308.905 380.037187 
z
" clip-path="url(#pf1b1d008eb)" style="fill: #ffffff; stroke: #ffffff; stroke-linejoin: miter"/>
   </g>
   <g id="patch_177">
    <path d="M 308.905 435.477187 
L 336.805 435.477187 
L 336.805 407.757187 
L 308.905 407.757187 
z
" clip-path="url(#pf1b1d008eb)" style="fill: #ffffff; stroke: #ffffff; stroke-linejoin: miter"/>
   </g>
   <g id="patch_178">
    <path d="M 308.905 463.197187 
L 336.805 463.197187 
L 336.805 435.477187 
L 308.905 435.477187 
z
" clip-path="url(#pf1b1d008eb)" style="fill: #ffffff; stroke: #ffffff; stroke-linejoin: miter"/>
   </g>
   <g id="patch_179">
    <path d="M 336.805 47.397187 
L 364.705 47.397187 
L 364.705 19.677187 
L 336.805 19.677187 
z
" clip-path="url(#pf1b1d008eb)" style="fill: #ffffff; stroke: #ffffff; stroke-linejoin: miter"/>
   </g>
   <g id="patch_180">
    <path d="M 336.805 75.117187 
L 364.705 75.117187 
L 364.705 47.397187 
L 336.805 47.397187 
z
" clip-path="url(#pf1b1d008eb)" style="fill: #ffffff; stroke: #ffffff; stroke-linejoin: miter"/>
   </g>
   <g id="patch_181">
    <path d="M 336.805 102.837187 
L 364.705 102.837187 
L 364.705 75.117187 
L 336.805 75.117187 
z
" clip-path="url(#pf1b1d008eb)" style="fill: #ffffff; stroke: #ffffff; stroke-linejoin: miter"/>
   </g>
   <g id="patch_182">
    <path d="M 336.805 130.557187 
L 364.705 130.557187 
L 364.705 102.837187 
L 336.805 102.837187 
z
" clip-path="url(#pf1b1d008eb)" style="fill: #ffffff; stroke: #ffffff; stroke-linejoin: miter"/>
   </g>
   <g id="patch_183">
    <path d="M 336.805 158.277187 
L 364.705 158.277187 
L 364.705 130.557187 
L 336.805 130.557187 
z
" clip-path="url(#pf1b1d008eb)" style="fill: #a6d854; stroke: #ffffff; stroke-linejoin: miter"/>
   </g>
   <g id="patch_184">
    <path d="M 336.805 185.997187 
L 364.705 185.997187 
L 364.705 158.277187 
L 336.805 158.277187 
z
" clip-path="url(#pf1b1d008eb)" style="fill: #ffffff; stroke: #ffffff; stroke-linejoin: miter"/>
   </g>
   <g id="patch_185">
    <path d="M 336.805 213.717187 
L 364.705 213.717187 
L 364.705 185.997187 
L 336.805 185.997187 
z
" clip-path="url(#pf1b1d008eb)" style="fill: #ffffff; stroke: #ffffff; stroke-linejoin: miter"/>
   </g>
   <g id="patch_186">
    <path d="M 336.805 241.437187 
L 364.705 241.437187 
L 364.705 213.717187 
L 336.805 213.717187 
z
" clip-path="url(#pf1b1d008eb)" style="fill: #ffffff; stroke: #ffffff; stroke-linejoin: miter"/>
   </g>
   <g id="patch_187">
    <path d="M 336.805 269.157187 
L 364.705 269.157187 
L 364.705 241.437187 
L 336.805 241.437187 
z
" clip-path="url(#pf1b1d008eb)" style="fill: #ffffff; stroke: #ffffff; stroke-linejoin: miter"/>
   </g>
   <g id="patch_188">
    <path d="M 336.805 296.877187 
L 364.705 296.877187 
L 364.705 269.157187 
L 336.805 269.157187 
z
" clip-path="url(#pf1b1d008eb)" style="fill: #ffffff; stroke: #ffffff; stroke-linejoin: miter"/>
   </g>
   <g id="patch_189">
    <path d="M 336.805 324.597187 
L 364.705 324.597187 
L 364.705 296.877187 
L 336.805 296.877187 
z
" clip-path="url(#pf1b1d008eb)" style="fill: #ffffff; stroke: #ffffff; stroke-linejoin: miter"/>
   </g>
   <g id="patch_190">
    <path d="M 336.805 352.317187 
L 364.705 352.317187 
L 364.705 324.597187 
L 336.805 324.597187 
z
" clip-path="url(#pf1b1d008eb)" style="fill: #ffffff; stroke: #ffffff; stroke-linejoin: miter"/>
   </g>
   <g id="patch_191">
    <path d="M 336.805 380.037187 
L 364.705 380.037187 
L 364.705 352.317187 
L 336.805 352.317187 
z
" clip-path="url(#pf1b1d008eb)" style="fill: #a6d854; stroke: #ffffff; stroke-linejoin: miter"/>
   </g>
   <g id="patch_192">
    <path d="M 336.805 407.757187 
L 364.705 407.757187 
L 364.705 380.037187 
L 336.805 380.037187 
z
" clip-path="url(#pf1b1d008eb)" style="fill: #ffffff; stroke: #ffffff; stroke-linejoin: miter"/>
   </g>
   <g id="patch_193">
    <path d="M 336.805 435.477187 
L 364.705 435.477187 
L 364.705 407.757187 
L 336.805 407.757187 
z
" clip-path="url(#pf1b1d008eb)" style="fill: #ffffff; stroke: #ffffff; stroke-linejoin: miter"/>
   </g>
   <g id="patch_194">
    <path d="M 336.805 463.197187 
L 364.705 463.197187 
L 364.705 435.477187 
L 336.805 435.477187 
z
" clip-path="url(#pf1b1d008eb)" style="fill: #ffffff; stroke: #ffffff; stroke-linejoin: miter"/>
   </g>
   <g id="patch_195">
    <path d="M 364.705 47.397187 
L 392.605 47.397187 
L 392.605 19.677187 
L 364.705 19.677187 
z
" clip-path="url(#pf1b1d008eb)" style="fill: #ffffff; stroke: #ffffff; stroke-linejoin: miter"/>
   </g>
   <g id="patch_196">
    <path d="M 364.705 75.117187 
L 392.605 75.117187 
L 392.605 47.397187 
L 364.705 47.397187 
z
" clip-path="url(#pf1b1d008eb)" style="fill: #ffffff; stroke: #ffffff; stroke-linejoin: miter"/>
   </g>
   <g id="patch_197">
    <path d="M 364.705 102.837187 
L 392.605 102.837187 
L 392.605 75.117187 
L 364.705 75.117187 
z
" clip-path="url(#pf1b1d008eb)" style="fill: #ffffff; stroke: #ffffff; stroke-linejoin: miter"/>
   </g>
   <g id="patch_198">
    <path d="M 364.705 130.557187 
L 392.605 130.557187 
L 392.605 102.837187 
L 364.705 102.837187 
z
" clip-path="url(#pf1b1d008eb)" style="fill: #ffffff; stroke: #ffffff; stroke-linejoin: miter"/>
   </g>
   <g id="patch_199">
    <path d="M 364.705 158.277187 
L 392.605 158.277187 
L 392.605 130.557187 
L 364.705 130.557187 
z
" clip-path="url(#pf1b1d008eb)" style="fill: #ffffff; stroke: #ffffff; stroke-linejoin: miter"/>
   </g>
   <g id="patch_200">
    <path d="M 364.705 185.997187 
L 392.605 185.997187 
L 392.605 158.277187 
L 364.705 158.277187 
z
" clip-path="url(#pf1b1d008eb)" style="fill: #ffffff; stroke: #ffffff; stroke-linejoin: miter"/>
   </g>
   <g id="patch_201">
    <path d="M 364.705 213.717187 
L 392.605 213.717187 
L 392.605 185.997187 
L 364.705 185.997187 
z
" clip-path="url(#pf1b1d008eb)" style="fill: #ffffff; stroke: #ffffff; stroke-linejoin: miter"/>
   </g>
   <g id="patch_202">
    <path d="M 364.705 241.437187 
L 392.605 241.437187 
L 392.605 213.717187 
L 364.705 213.717187 
z
" clip-path="url(#pf1b1d008eb)" style="fill: #ffffff; stroke: #ffffff; stroke-linejoin: miter"/>
   </g>
   <g id="patch_203">
    <path d="M 364.705 269.157187 
L 392.605 269.157187 
L 392.605 241.437187 
L 364.705 241.437187 
z
" clip-path="url(#pf1b1d008eb)" style="fill: #ffffff; stroke: #ffffff; stroke-linejoin: miter"/>
   </g>
   <g id="patch_204">
    <path d="M 364.705 296.877187 
L 392.605 296.877187 
L 392.605 269.157187 
L 364.705 269.157187 
z
" clip-path="url(#pf1b1d008eb)" style="fill: #ffffff; stroke: #ffffff; stroke-linejoin: miter"/>
   </g>
   <g id="patch_205">
    <path d="M 364.705 324.597187 
L 392.605 324.597187 
L 392.605 296.877187 
L 364.705 296.877187 
z
" clip-path="url(#pf1b1d008eb)" style="fill: #ffffff; stroke: #ffffff; stroke-linejoin: miter"/>
   </g>
   <g id="patch_206">
    <path d="M 364.705 352.317187 
L 392.605 352.317187 
L 392.605 324.597187 
L 364.705 324.597187 
z
" clip-path="url(#pf1b1d008eb)" style="fill: #a6d854; stroke: #ffffff; stroke-linejoin: miter"/>
   </g>
   <g id="patch_207">
    <path d="M 364.705 380.037187 
L 392.605 380.037187 
L 392.605 352.317187 
L 364.705 352.317187 
z
" clip-path="url(#pf1b1d008eb)" style="fill: #ffffff; stroke: #ffffff; stroke-linejoin: miter"/>
   </g>
   <g id="patch_208">
    <path d="M 364.705 407.757187 
L 392.605 407.757187 
L 392.605 380.037187 
L 364.705 380.037187 
z
" clip-path="url(#pf1b1d008eb)" style="fill: #a6d854; stroke: #ffffff; stroke-linejoin: miter"/>
   </g>
   <g id="patch_209">
    <path d="M 364.705 435.477187 
L 392.605 435.477187 
L 392.605 407.757187 
L 364.705 407.757187 
z
" clip-path="url(#pf1b1d008eb)" style="fill: #a6d854; stroke: #ffffff; stroke-linejoin: miter"/>
   </g>
   <g id="patch_210">
    <path d="M 364.705 463.197187 
L 392.605 463.197187 
L 392.605 435.477187 
L 364.705 435.477187 
z
" clip-path="url(#pf1b1d008eb)" style="fill: #ffffff; stroke: #ffffff; stroke-linejoin: miter"/>
   </g>
   <g id="patch_211">
    <path d="M 392.605 47.397187 
L 420.505 47.397187 
L 420.505 19.677187 
L 392.605 19.677187 
z
" clip-path="url(#pf1b1d008eb)" style="fill: #ffffff; stroke: #ffffff; stroke-linejoin: miter"/>
   </g>
   <g id="patch_212">
    <path d="M 392.605 75.117187 
L 420.505 75.117187 
L 420.505 47.397187 
L 392.605 47.397187 
z
" clip-path="url(#pf1b1d008eb)" style="fill: #ffffff; stroke: #ffffff; stroke-linejoin: miter"/>
   </g>
   <g id="patch_213">
    <path d="M 392.605 102.837187 
L 420.505 102.837187 
L 420.505 75.117187 
L 392.605 75.117187 
z
" clip-path="url(#pf1b1d008eb)" style="fill: #ffffff; stroke: #ffffff; stroke-linejoin: miter"/>
   </g>
   <g id="patch_214">
    <path d="M 392.605 130.557187 
L 420.505 130.557187 
L 420.505 102.837187 
L 392.605 102.837187 
z
" clip-path="url(#pf1b1d008eb)" style="fill: #ffffff; stroke: #ffffff; stroke-linejoin: miter"/>
   </g>
   <g id="patch_215">
    <path d="M 392.605 158.277187 
L 420.505 158.277187 
L 420.505 130.557187 
L 392.605 130.557187 
z
" clip-path="url(#pf1b1d008eb)" style="fill: #ffffff; stroke: #ffffff; stroke-linejoin: miter"/>
   </g>
   <g id="patch_216">
    <path d="M 392.605 185.997187 
L 420.505 185.997187 
L 420.505 158.277187 
L 392.605 158.277187 
z
" clip-path="url(#pf1b1d008eb)" style="fill: #ffffff; stroke: #ffffff; stroke-linejoin: miter"/>
   </g>
   <g id="patch_217">
    <path d="M 392.605 213.717187 
L 420.505 213.717187 
L 420.505 185.997187 
L 392.605 185.997187 
z
" clip-path="url(#pf1b1d008eb)" style="fill: #ffffff; stroke: #ffffff; stroke-linejoin: miter"/>
   </g>
   <g id="patch_218">
    <path d="M 392.605 241.437187 
L 420.505 241.437187 
L 420.505 213.717187 
L 392.605 213.717187 
z
" clip-path="url(#pf1b1d008eb)" style="fill: #ffffff; stroke: #ffffff; stroke-linejoin: miter"/>
   </g>
   <g id="patch_219">
    <path d="M 392.605 269.157187 
L 420.505 269.157187 
L 420.505 241.437187 
L 392.605 241.437187 
z
" clip-path="url(#pf1b1d008eb)" style="fill: #ffffff; stroke: #ffffff; stroke-linejoin: miter"/>
   </g>
   <g id="patch_220">
    <path d="M 392.605 296.877187 
L 420.505 296.877187 
L 420.505 269.157187 
L 392.605 269.157187 
z
" clip-path="url(#pf1b1d008eb)" style="fill: #ffffff; stroke: #ffffff; stroke-linejoin: miter"/>
   </g>
   <g id="patch_221">
    <path d="M 392.605 324.597187 
L 420.505 324.597187 
L 420.505 296.877187 
L 392.605 296.877187 
z
" clip-path="url(#pf1b1d008eb)" style="fill: #ffffff; stroke: #ffffff; stroke-linejoin: miter"/>
   </g>
   <g id="patch_222">
    <path d="M 392.605 352.317187 
L 420.505 352.317187 
L 420.505 324.597187 
L 392.605 324.597187 
z
" clip-path="url(#pf1b1d008eb)" style="fill: #ffffff; stroke: #ffffff; stroke-linejoin: miter"/>
   </g>
   <g id="patch_223">
    <path d="M 392.605 380.037187 
L 420.505 380.037187 
L 420.505 352.317187 
L 392.605 352.317187 
z
" clip-path="url(#pf1b1d008eb)" style="fill: #a6d854; stroke: #ffffff; stroke-linejoin: miter"/>
   </g>
   <g id="patch_224">
    <path d="M 392.605 407.757187 
L 420.505 407.757187 
L 420.505 380.037187 
L 392.605 380.037187 
z
" clip-path="url(#pf1b1d008eb)" style="fill: #ffffff; stroke: #ffffff; stroke-linejoin: miter"/>
   </g>
   <g id="patch_225">
    <path d="M 392.605 435.477187 
L 420.505 435.477187 
L 420.505 407.757187 
L 392.605 407.757187 
z
" clip-path="url(#pf1b1d008eb)" style="fill: #ffffff; stroke: #ffffff; stroke-linejoin: miter"/>
   </g>
   <g id="patch_226">
    <path d="M 392.605 463.197187 
L 420.505 463.197187 
L 420.505 435.477187 
L 392.605 435.477187 
z
" clip-path="url(#pf1b1d008eb)" style="fill: #ffffff; stroke: #ffffff; stroke-linejoin: miter"/>
   </g>
   <g id="patch_227">
    <path d="M 420.505 47.397187 
L 448.405 47.397187 
L 448.405 19.677187 
L 420.505 19.677187 
z
" clip-path="url(#pf1b1d008eb)" style="fill: #ffffff; stroke: #ffffff; stroke-linejoin: miter"/>
   </g>
   <g id="patch_228">
    <path d="M 420.505 75.117187 
L 448.405 75.117187 
L 448.405 47.397187 
L 420.505 47.397187 
z
" clip-path="url(#pf1b1d008eb)" style="fill: #a6d854; stroke: #ffffff; stroke-linejoin: miter"/>
   </g>
   <g id="patch_229">
    <path d="M 420.505 102.837187 
L 448.405 102.837187 
L 448.405 75.117187 
L 420.505 75.117187 
z
" clip-path="url(#pf1b1d008eb)" style="fill: #ffffff; stroke: #ffffff; stroke-linejoin: miter"/>
   </g>
   <g id="patch_230">
    <path d="M 420.505 130.557187 
L 448.405 130.557187 
L 448.405 102.837187 
L 420.505 102.837187 
z
" clip-path="url(#pf1b1d008eb)" style="fill: #ffffff; stroke: #ffffff; stroke-linejoin: miter"/>
   </g>
   <g id="patch_231">
    <path d="M 420.505 158.277187 
L 448.405 158.277187 
L 448.405 130.557187 
L 420.505 130.557187 
z
" clip-path="url(#pf1b1d008eb)" style="fill: #ffffff; stroke: #ffffff; stroke-linejoin: miter"/>
   </g>
   <g id="patch_232">
    <path d="M 420.505 185.997187 
L 448.405 185.997187 
L 448.405 158.277187 
L 420.505 158.277187 
z
" clip-path="url(#pf1b1d008eb)" style="fill: #ffffff; stroke: #ffffff; stroke-linejoin: miter"/>
   </g>
   <g id="patch_233">
    <path d="M 420.505 213.717187 
L 448.405 213.717187 
L 448.405 185.997187 
L 420.505 185.997187 
z
" clip-path="url(#pf1b1d008eb)" style="fill: #ffffff; stroke: #ffffff; stroke-linejoin: miter"/>
   </g>
   <g id="patch_234">
    <path d="M 420.505 241.437187 
L 448.405 241.437187 
L 448.405 213.717187 
L 420.505 213.717187 
z
" clip-path="url(#pf1b1d008eb)" style="fill: #ffffff; stroke: #ffffff; stroke-linejoin: miter"/>
   </g>
   <g id="patch_235">
    <path d="M 420.505 269.157187 
L 448.405 269.157187 
L 448.405 241.437187 
L 420.505 241.437187 
z
" clip-path="url(#pf1b1d008eb)" style="fill: #ffffff; stroke: #ffffff; stroke-linejoin: miter"/>
   </g>
   <g id="patch_236">
    <path d="M 420.505 296.877187 
L 448.405 296.877187 
L 448.405 269.157187 
L 420.505 269.157187 
z
" clip-path="url(#pf1b1d008eb)" style="fill: #ffffff; stroke: #ffffff; stroke-linejoin: miter"/>
   </g>
   <g id="patch_237">
    <path d="M 420.505 324.597187 
L 448.405 324.597187 
L 448.405 296.877187 
L 420.505 296.877187 
z
" clip-path="url(#pf1b1d008eb)" style="fill: #ffffff; stroke: #ffffff; stroke-linejoin: miter"/>
   </g>
   <g id="patch_238">
    <path d="M 420.505 352.317187 
L 448.405 352.317187 
L 448.405 324.597187 
L 420.505 324.597187 
z
" clip-path="url(#pf1b1d008eb)" style="fill: #ffffff; stroke: #ffffff; stroke-linejoin: miter"/>
   </g>
   <g id="patch_239">
    <path d="M 420.505 380.037187 
L 448.405 380.037187 
L 448.405 352.317187 
L 420.505 352.317187 
z
" clip-path="url(#pf1b1d008eb)" style="fill: #a6d854; stroke: #ffffff; stroke-linejoin: miter"/>
   </g>
   <g id="patch_240">
    <path d="M 420.505 407.757187 
L 448.405 407.757187 
L 448.405 380.037187 
L 420.505 380.037187 
z
" clip-path="url(#pf1b1d008eb)" style="fill: #ffffff; stroke: #ffffff; stroke-linejoin: miter"/>
   </g>
   <g id="patch_241">
    <path d="M 420.505 435.477187 
L 448.405 435.477187 
L 448.405 407.757187 
L 420.505 407.757187 
z
" clip-path="url(#pf1b1d008eb)" style="fill: #ffffff; stroke: #ffffff; stroke-linejoin: miter"/>
   </g>
   <g id="patch_242">
    <path d="M 420.505 463.197187 
L 448.405 463.197187 
L 448.405 435.477187 
L 420.505 435.477187 
z
" clip-path="url(#pf1b1d008eb)" style="fill: #a6d854; stroke: #ffffff; stroke-linejoin: miter"/>
   </g>
   <g id="patch_243">
    <path d="M 448.405 47.397187 
L 476.305 47.397187 
L 476.305 19.677187 
L 448.405 19.677187 
z
" clip-path="url(#pf1b1d008eb)" style="fill: #ffffff; stroke: #ffffff; stroke-linejoin: miter"/>
   </g>
   <g id="patch_244">
    <path d="M 448.405 75.117187 
L 476.305 75.117187 
L 476.305 47.397187 
L 448.405 47.397187 
z
" clip-path="url(#pf1b1d008eb)" style="fill: #ffffff; stroke: #ffffff; stroke-linejoin: miter"/>
   </g>
   <g id="patch_245">
    <path d="M 448.405 102.837187 
L 476.305 102.837187 
L 476.305 75.117187 
L 448.405 75.117187 
z
" clip-path="url(#pf1b1d008eb)" style="fill: #ffffff; stroke: #ffffff; stroke-linejoin: miter"/>
   </g>
   <g id="patch_246">
    <path d="M 448.405 130.557187 
L 476.305 130.557187 
L 476.305 102.837187 
L 448.405 102.837187 
z
" clip-path="url(#pf1b1d008eb)" style="fill: #ffffff; stroke: #ffffff; stroke-linejoin: miter"/>
   </g>
   <g id="patch_247">
    <path d="M 448.405 158.277187 
L 476.305 158.277187 
L 476.305 130.557187 
L 448.405 130.557187 
z
" clip-path="url(#pf1b1d008eb)" style="fill: #ffffff; stroke: #ffffff; stroke-linejoin: miter"/>
   </g>
   <g id="patch_248">
    <path d="M 448.405 185.997187 
L 476.305 185.997187 
L 476.305 158.277187 
L 448.405 158.277187 
z
" clip-path="url(#pf1b1d008eb)" style="fill: #ffffff; stroke: #ffffff; stroke-linejoin: miter"/>
   </g>
   <g id="patch_249">
    <path d="M 448.405 213.717187 
L 476.305 213.717187 
L 476.305 185.997187 
L 448.405 185.997187 
z
" clip-path="url(#pf1b1d008eb)" style="fill: #ffffff; stroke: #ffffff; stroke-linejoin: miter"/>
   </g>
   <g id="patch_250">
    <path d="M 448.405 241.437187 
L 476.305 241.437187 
L 476.305 213.717187 
L 448.405 213.717187 
z
" clip-path="url(#pf1b1d008eb)" style="fill: #ffffff; stroke: #ffffff; stroke-linejoin: miter"/>
   </g>
   <g id="patch_251">
    <path d="M 448.405 269.157187 
L 476.305 269.157187 
L 476.305 241.437187 
L 448.405 241.437187 
z
" clip-path="url(#pf1b1d008eb)" style="fill: #ffffff; stroke: #ffffff; stroke-linejoin: miter"/>
   </g>
   <g id="patch_252">
    <path d="M 448.405 296.877187 
L 476.305 296.877187 
L 476.305 269.157187 
L 448.405 269.157187 
z
" clip-path="url(#pf1b1d008eb)" style="fill: #ffffff; stroke: #ffffff; stroke-linejoin: miter"/>
   </g>
   <g id="patch_253">
    <path d="M 448.405 324.597187 
L 476.305 324.597187 
L 476.305 296.877187 
L 448.405 296.877187 
z
" clip-path="url(#pf1b1d008eb)" style="fill: #ffffff; stroke: #ffffff; stroke-linejoin: miter"/>
   </g>
   <g id="patch_254">
    <path d="M 448.405 352.317187 
L 476.305 352.317187 
L 476.305 324.597187 
L 448.405 324.597187 
z
" clip-path="url(#pf1b1d008eb)" style="fill: #ffffff; stroke: #ffffff; stroke-linejoin: miter"/>
   </g>
   <g id="patch_255">
    <path d="M 448.405 380.037187 
L 476.305 380.037187 
L 476.305 352.317187 
L 448.405 352.317187 
z
" clip-path="url(#pf1b1d008eb)" style="fill: #ffffff; stroke: #ffffff; stroke-linejoin: miter"/>
   </g>
   <g id="patch_256">
    <path d="M 448.405 407.757187 
L 476.305 407.757187 
L 476.305 380.037187 
L 448.405 380.037187 
z
" clip-path="url(#pf1b1d008eb)" style="fill: #ffffff; stroke: #ffffff; stroke-linejoin: miter"/>
   </g>
   <g id="patch_257">
    <path d="M 448.405 435.477187 
L 476.305 435.477187 
L 476.305 407.757187 
L 448.405 407.757187 
z
" clip-path="url(#pf1b1d008eb)" style="fill: #a6d854; stroke: #ffffff; stroke-linejoin: miter"/>
   </g>
   <g id="patch_258">
    <path d="M 448.405 463.197187 
L 476.305 463.197187 
L 476.305 435.477187 
L 448.405 435.477187 
z
" clip-path="url(#pf1b1d008eb)" style="fill: #ffffff; stroke: #ffffff; stroke-linejoin: miter"/>
   </g>
   <g id="patch_259">
    <path d="M 29.905 463.197187 
L 29.905 19.677187 
" style="fill: none; stroke: #a6d854; stroke-width: 2; stroke-linejoin: miter; stroke-linecap: square"/>
   </g>
   <g id="patch_260">
    <path d="M 476.305 463.197187 
L 476.305 19.677187 
" style="fill: none; stroke: #a6d854; stroke-width: 2; stroke-linejoin: miter; stroke-linecap: square"/>
   </g>
   <g id="patch_261">
    <path d="M 29.905 463.197187 
L 476.305 463.197187 
" style="fill: none; stroke: #a6d854; stroke-width: 2; stroke-linejoin: miter; stroke-linecap: square"/>
   </g>
   <g id="patch_262">
    <path d="M 29.905 19.677187 
L 476.305 19.677187 
" style="fill: none; stroke: #a6d854; stroke-width: 2; stroke-linejoin: miter; stroke-linecap: square"/>
   </g>
   <g id="text_17">
    <!-- 16x16 -->
    <g style="fill: #a6d854" transform="translate(224.873125 13.677187) scale(0.18 -0.18)">
     <defs>
      <path id="DejaVuSans-78" d="M 3513 3500 
L 2247 1797 
L 3578 0 
L 2900 0 
L 1881 1375 
L 863 0 
L 184 0 
L 1544 1831 
L 300 3500 
L 978 3500 
L 1906 2253 
L 2834 3500 
L 3513 3500 
z
" transform="scale(0.015625)"/>
     </defs>
     <use xlink:href="#DejaVuSans-31"/>
     <use xlink:href="#DejaVuSans-36" transform="translate(63.623047 0)"/>
     <use xlink:href="#DejaVuSans-78" transform="translate(127.246094 0)"/>
     <use xlink:href="#DejaVuSans-31" transform="translate(186.425781 0)"/>
     <use xlink:href="#DejaVuSans-36" transform="translate(250.048828 0)"/>
    </g>
   </g>
  </g>
 </g>
 <defs>
  <clipPath id="pf1b1d008eb">
   <rect x="29.905" y="19.677187" width="446.4" height="443.52"/>
  </clipPath>
 </defs>
</svg>
