<?xml version="1.0" encoding="utf-8" standalone="no"?>
<!DOCTYPE svg PUBLIC "-//W3C//DTD SVG 1.1//EN"
  "http://www.w3.org/Graphics/SVG/1.1/DTD/svg11.dtd">
<svg xmlns:xlink="http://www.w3.org/1999/xlink" width="461.178125pt" height="83.16pt" viewBox="0 0 461.178125 83.16" xmlns="http://www.w3.org/2000/svg" version="1.1">
 <metadata>
  <rdf:RDF xmlns:dc="http://purl.org/dc/elements/1.1/" xmlns:cc="http://creativecommons.org/ns#" xmlns:rdf="http://www.w3.org/1999/02/22-rdf-syntax-ns#">
   <cc:Work>
    <dc:type rdf:resource="http://purl.org/dc/dcmitype/StillImage"/>
    <dc:date>2024-12-20T11:58:04.627274</dc:date>
    <dc:format>image/svg+xml</dc:format>
    <dc:creator>
     <cc:Agent>
      <dc:title>Matplotlib v3.9.2, https://matplotlib.org/</dc:title>
     </cc:Agent>
    </dc:creator>
   </cc:Work>
  </rdf:RDF>
 </metadata>
 <defs>
  <style type="text/css">*{stroke-linejoin: round; stroke-linecap: butt}</style>
 </defs>
 <g id="figure_1">
  <g id="patch_1">
   <path d="M 0 83.16 
L 461.178125 83.16 
L 461.178125 0 
L 0 0 
L 0 83.16 
z
" style="fill: none"/>
  </g>
  <g id="axes_1">
   <g id="patch_2">
    <path d="M 14.778125 83.16 
L 461.178125 83.16 
L 461.178125 -0 
L 14.778125 -0 
L 14.778125 83.16 
z
" style="fill: none"/>
   </g>
   <g id="matplotlib.axis_1"/>
   <g id="matplotlib.axis_2">
    <g id="ytick_1">
     <g id="line2d_1">
      <defs>
       <path id="m7e815739c9" d="M 0 0 
L -3.5 0 
" style="stroke: #262626; stroke-width: 0.8"/>
      </defs>
      <g>
       <use xlink:href="#m7e815739c9" x="14.778125" y="69.3" style="fill: #262626; stroke: #262626; stroke-width: 0.8"/>
      </g>
     </g>
     <g id="text_1">
      <!-- P -->
      <g style="fill: #262626" transform="translate(1.107813 72.878906) scale(0.1 -0.1)">
       <defs>
        <path id="ArialMT-50" d="M 494 0 
L 494 4581 
L 2222 4581 
Q 2678 4581 2919 4538 
Q 3256 4481 3484 4323 
Q 3713 4166 3852 3881 
Q 3991 3597 3991 3256 
Q 3991 2672 3619 2267 
Q 3247 1863 2275 1863 
L 1100 1863 
L 1100 0 
L 494 0 
z
M 1100 2403 
L 2284 2403 
Q 2872 2403 3119 2622 
Q 3366 2841 3366 3238 
Q 3366 3525 3220 3729 
Q 3075 3934 2838 4000 
Q 2684 4041 2272 4041 
L 1100 4041 
L 1100 2403 
z
" transform="scale(0.015625)"/>
       </defs>
       <use xlink:href="#ArialMT-50"/>
      </g>
     </g>
    </g>
    <g id="ytick_2">
     <g id="line2d_2">
      <g>
       <use xlink:href="#m7e815739c9" x="14.778125" y="41.58" style="fill: #262626; stroke: #262626; stroke-width: 0.8"/>
      </g>
     </g>
     <g id="text_2">
      <!-- O -->
      <g style="fill: #262626" transform="translate(0 45.158906) scale(0.1 -0.1)">
       <defs>
        <path id="ArialMT-4f" d="M 309 2231 
Q 309 3372 921 4017 
Q 1534 4663 2503 4663 
Q 3138 4663 3647 4359 
Q 4156 4056 4423 3514 
Q 4691 2972 4691 2284 
Q 4691 1588 4409 1038 
Q 4128 488 3612 205 
Q 3097 -78 2500 -78 
Q 1853 -78 1343 234 
Q 834 547 571 1087 
Q 309 1628 309 2231 
z
M 934 2222 
Q 934 1394 1379 917 
Q 1825 441 2497 441 
Q 3181 441 3623 922 
Q 4066 1403 4066 2288 
Q 4066 2847 3877 3264 
Q 3688 3681 3323 3911 
Q 2959 4141 2506 4141 
Q 1863 4141 1398 3698 
Q 934 3256 934 2222 
z
" transform="scale(0.015625)"/>
       </defs>
       <use xlink:href="#ArialMT-4f"/>
      </g>
     </g>
    </g>
    <g id="ytick_3">
     <g id="line2d_3">
      <g>
       <use xlink:href="#m7e815739c9" x="14.778125" y="13.86" style="fill: #262626; stroke: #262626; stroke-width: 0.8"/>
      </g>
     </g>
     <g id="text_3">
      <!-- C -->
      <g style="fill: #262626" transform="translate(0.55625 17.438906) scale(0.1 -0.1)">
       <defs>
        <path id="ArialMT-43" d="M 3763 1606 
L 4369 1453 
Q 4178 706 3683 314 
Q 3188 -78 2472 -78 
Q 1731 -78 1267 223 
Q 803 525 561 1097 
Q 319 1669 319 2325 
Q 319 3041 592 3573 
Q 866 4106 1370 4382 
Q 1875 4659 2481 4659 
Q 3169 4659 3637 4309 
Q 4106 3959 4291 3325 
L 3694 3184 
Q 3534 3684 3231 3912 
Q 2928 4141 2469 4141 
Q 1941 4141 1586 3887 
Q 1231 3634 1087 3207 
Q 944 2781 944 2328 
Q 944 1744 1114 1308 
Q 1284 872 1643 656 
Q 2003 441 2422 441 
Q 2931 441 3284 734 
Q 3638 1028 3763 1606 
z
" transform="scale(0.015625)"/>
       </defs>
       <use xlink:href="#ArialMT-43"/>
      </g>
     </g>
    </g>
   </g>
   <g id="patch_3">
    <path d="M 14.778125 27.72 
L 42.678125 27.72 
L 42.678125 -0 
L 14.778125 -0 
z
" clip-path="url(#p79206eba16)" style="fill: #ffffff; stroke: #ffffff; stroke-linejoin: miter"/>
   </g>
   <g id="patch_4">
    <path d="M 14.778125 55.44 
L 42.678125 55.44 
L 42.678125 27.72 
L 14.778125 27.72 
z
" clip-path="url(#p79206eba16)" style="fill: #dfaf0e; stroke: #ffffff; stroke-linejoin: miter"/>
   </g>
   <g id="patch_5">
    <path d="M 14.778125 83.16 
L 42.678125 83.16 
L 42.678125 55.44 
L 14.778125 55.44 
z
" clip-path="url(#p79206eba16)" style="fill: #ffffff; stroke: #ffffff; stroke-linejoin: miter"/>
   </g>
   <g id="patch_6">
    <path d="M 42.678125 27.72 
L 70.578125 27.72 
L 70.578125 -0 
L 42.678125 -0 
z
" clip-path="url(#p79206eba16)" style="fill: #fdd123; stroke: #ffffff; stroke-linejoin: miter"/>
   </g>
   <g id="patch_7">
    <path d="M 42.678125 55.44 
L 70.578125 55.44 
L 70.578125 27.72 
L 42.678125 27.72 
z
" clip-path="url(#p79206eba16)" style="fill: #ffffff; stroke: #ffffff; stroke-linejoin: miter"/>
   </g>
   <g id="patch_8">
    <path d="M 42.678125 83.16 
L 70.578125 83.16 
L 70.578125 55.44 
L 42.678125 55.44 
z
" clip-path="url(#p79206eba16)" style="fill: #ffffff; stroke: #ffffff; stroke-linejoin: miter"/>
   </g>
   <g id="patch_9">
    <path d="M 70.578125 27.72 
L 98.478125 27.72 
L 98.478125 -0 
L 70.578125 -0 
z
" clip-path="url(#p79206eba16)" style="fill: #fdd123; stroke: #ffffff; stroke-linejoin: miter"/>
   </g>
   <g id="patch_10">
    <path d="M 70.578125 55.44 
L 98.478125 55.44 
L 98.478125 27.72 
L 70.578125 27.72 
z
" clip-path="url(#p79206eba16)" style="fill: #ffffff; stroke: #ffffff; stroke-linejoin: miter"/>
   </g>
   <g id="patch_11">
    <path d="M 70.578125 83.16 
L 98.478125 83.16 
L 98.478125 55.44 
L 70.578125 55.44 
z
" clip-path="url(#p79206eba16)" style="fill: #ffffff; stroke: #ffffff; stroke-linejoin: miter"/>
   </g>
   <g id="patch_12">
    <path d="M 98.478125 27.72 
L 126.378125 27.72 
L 126.378125 -0 
L 98.478125 -0 
z
" clip-path="url(#p79206eba16)" style="fill: #ffffff; stroke: #ffffff; stroke-linejoin: miter"/>
   </g>
   <g id="patch_13">
    <path d="M 98.478125 55.44 
L 126.378125 55.44 
L 126.378125 27.72 
L 98.478125 27.72 
z
" clip-path="url(#p79206eba16)" style="fill: #dfaf0e; stroke: #ffffff; stroke-linejoin: miter"/>
   </g>
   <g id="patch_14">
    <path d="M 98.478125 83.16 
L 126.378125 83.16 
L 126.378125 55.44 
L 98.478125 55.44 
z
" clip-path="url(#p79206eba16)" style="fill: #ffffff; stroke: #ffffff; stroke-linejoin: miter"/>
   </g>
   <g id="patch_15">
    <path d="M 126.378125 27.72 
L 154.278125 27.72 
L 154.278125 -0 
L 126.378125 -0 
z
" clip-path="url(#p79206eba16)" style="fill: #fdd123; stroke: #ffffff; stroke-linejoin: miter"/>
   </g>
   <g id="patch_16">
    <path d="M 126.378125 55.44 
L 154.278125 55.44 
L 154.278125 27.72 
L 126.378125 27.72 
z
" clip-path="url(#p79206eba16)" style="fill: #ffffff; stroke: #ffffff; stroke-linejoin: miter"/>
   </g>
   <g id="patch_17">
    <path d="M 126.378125 83.16 
L 154.278125 83.16 
L 154.278125 55.44 
L 126.378125 55.44 
z
" clip-path="url(#p79206eba16)" style="fill: #ffffff; stroke: #ffffff; stroke-linejoin: miter"/>
   </g>
   <g id="patch_18">
    <path d="M 154.278125 27.72 
L 182.178125 27.72 
L 182.178125 -0 
L 154.278125 -0 
z
" clip-path="url(#p79206eba16)" style="fill: #fdd123; stroke: #ffffff; stroke-linejoin: miter"/>
   </g>
   <g id="patch_19">
    <path d="M 154.278125 55.44 
L 182.178125 55.44 
L 182.178125 27.72 
L 154.278125 27.72 
z
" clip-path="url(#p79206eba16)" style="fill: #ffffff; stroke: #ffffff; stroke-linejoin: miter"/>
   </g>
   <g id="patch_20">
    <path d="M 154.278125 83.16 
L 182.178125 83.16 
L 182.178125 55.44 
L 154.278125 55.44 
z
" clip-path="url(#p79206eba16)" style="fill: #ffffff; stroke: #ffffff; stroke-linejoin: miter"/>
   </g>
   <g id="patch_21">
    <path d="M 182.178125 27.72 
L 210.078125 27.72 
L 210.078125 -0 
L 182.178125 -0 
z
" clip-path="url(#p79206eba16)" style="fill: #ffffff; stroke: #ffffff; stroke-linejoin: miter"/>
   </g>
   <g id="patch_22">
    <path d="M 182.178125 55.44 
L 210.078125 55.44 
L 210.078125 27.72 
L 182.178125 27.72 
z
" clip-path="url(#p79206eba16)" style="fill: #dfaf0e; stroke: #ffffff; stroke-linejoin: miter"/>
   </g>
   <g id="patch_23">
    <path d="M 182.178125 83.16 
L 210.078125 83.16 
L 210.078125 55.44 
L 182.178125 55.44 
z
" clip-path="url(#p79206eba16)" style="fill: #ffffff; stroke: #ffffff; stroke-linejoin: miter"/>
   </g>
   <g id="patch_24">
    <path d="M 210.078125 27.72 
L 237.978125 27.72 
L 237.978125 -0 
L 210.078125 -0 
z
" clip-path="url(#p79206eba16)" style="fill: #ffffff; stroke: #ffffff; stroke-linejoin: miter"/>
   </g>
   <g id="patch_25">
    <path d="M 210.078125 55.44 
L 237.978125 55.44 
L 237.978125 27.72 
L 210.078125 27.72 
z
" clip-path="url(#p79206eba16)" style="fill: #ffffff; stroke: #ffffff; stroke-linejoin: miter"/>
   </g>
   <g id="patch_26">
    <path d="M 210.078125 83.16 
L 237.978125 83.16 
L 237.978125 55.44 
L 210.078125 55.44 
z
" clip-path="url(#p79206eba16)" style="fill: #ffdd54; stroke: #ffffff; stroke-linejoin: miter"/>
   </g>
   <g id="patch_27">
    <path d="M 237.978125 27.72 
L 265.878125 27.72 
L 265.878125 -0 
L 237.978125 -0 
z
" clip-path="url(#p79206eba16)" style="fill: #ffffff; stroke: #ffffff; stroke-linejoin: miter"/>
   </g>
   <g id="patch_28">
    <path d="M 237.978125 55.44 
L 265.878125 55.44 
L 265.878125 27.72 
L 237.978125 27.72 
z
" clip-path="url(#p79206eba16)" style="fill: #dfaf0e; stroke: #ffffff; stroke-linejoin: miter"/>
   </g>
   <g id="patch_29">
    <path d="M 237.978125 83.16 
L 265.878125 83.16 
L 265.878125 55.44 
L 237.978125 55.44 
z
" clip-path="url(#p79206eba16)" style="fill: #ffffff; stroke: #ffffff; stroke-linejoin: miter"/>
   </g>
   <g id="patch_30">
    <path d="M 265.878125 27.72 
L 293.778125 27.72 
L 293.778125 -0 
L 265.878125 -0 
z
" clip-path="url(#p79206eba16)" style="fill: #ffffff; stroke: #ffffff; stroke-linejoin: miter"/>
   </g>
   <g id="patch_31">
    <path d="M 265.878125 55.44 
L 293.778125 55.44 
L 293.778125 27.72 
L 265.878125 27.72 
z
" clip-path="url(#p79206eba16)" style="fill: #dfaf0e; stroke: #ffffff; stroke-linejoin: miter"/>
   </g>
   <g id="patch_32">
    <path d="M 265.878125 83.16 
L 293.778125 83.16 
L 293.778125 55.44 
L 265.878125 55.44 
z
" clip-path="url(#p79206eba16)" style="fill: #ffffff; stroke: #ffffff; stroke-linejoin: miter"/>
   </g>
   <g id="patch_33">
    <path d="M 293.778125 27.72 
L 321.678125 27.72 
L 321.678125 -0 
L 293.778125 -0 
z
" clip-path="url(#p79206eba16)" style="fill: #ffffff; stroke: #ffffff; stroke-linejoin: miter"/>
   </g>
   <g id="patch_34">
    <path d="M 293.778125 55.44 
L 321.678125 55.44 
L 321.678125 27.72 
L 293.778125 27.72 
z
" clip-path="url(#p79206eba16)" style="fill: #dfaf0e; stroke: #ffffff; stroke-linejoin: miter"/>
   </g>
   <g id="patch_35">
    <path d="M 293.778125 83.16 
L 321.678125 83.16 
L 321.678125 55.44 
L 293.778125 55.44 
z
" clip-path="url(#p79206eba16)" style="fill: #ffffff; stroke: #ffffff; stroke-linejoin: miter"/>
   </g>
   <g id="patch_36">
    <path d="M 321.678125 27.72 
L 349.578125 27.72 
L 349.578125 -0 
L 321.678125 -0 
z
" clip-path="url(#p79206eba16)" style="fill: #ffffff; stroke: #ffffff; stroke-linejoin: miter"/>
   </g>
   <g id="patch_37">
    <path d="M 321.678125 55.44 
L 349.578125 55.44 
L 349.578125 27.72 
L 321.678125 27.72 
z
" clip-path="url(#p79206eba16)" style="fill: #dfaf0e; stroke: #ffffff; stroke-linejoin: miter"/>
   </g>
   <g id="patch_38">
    <path d="M 321.678125 83.16 
L 349.578125 83.16 
L 349.578125 55.44 
L 321.678125 55.44 
z
" clip-path="url(#p79206eba16)" style="fill: #ffffff; stroke: #ffffff; stroke-linejoin: miter"/>
   </g>
   <g id="patch_39">
    <path d="M 349.578125 27.72 
L 377.478125 27.72 
L 377.478125 -0 
L 349.578125 -0 
z
" clip-path="url(#p79206eba16)" style="fill: #fdd123; stroke: #ffffff; stroke-linejoin: miter"/>
   </g>
   <g id="patch_40">
    <path d="M 349.578125 55.44 
L 377.478125 55.44 
L 377.478125 27.72 
L 349.578125 27.72 
z
" clip-path="url(#p79206eba16)" style="fill: #ffffff; stroke: #ffffff; stroke-linejoin: miter"/>
   </g>
   <g id="patch_41">
    <path d="M 349.578125 83.16 
L 377.478125 83.16 
L 377.478125 55.44 
L 349.578125 55.44 
z
" clip-path="url(#p79206eba16)" style="fill: #ffffff; stroke: #ffffff; stroke-linejoin: miter"/>
   </g>
   <g id="patch_42">
    <path d="M 377.478125 27.72 
L 405.378125 27.72 
L 405.378125 -0 
L 377.478125 -0 
z
" clip-path="url(#p79206eba16)" style="fill: #ffffff; stroke: #ffffff; stroke-linejoin: miter"/>
   </g>
   <g id="patch_43">
    <path d="M 377.478125 55.44 
L 405.378125 55.44 
L 405.378125 27.72 
L 377.478125 27.72 
z
" clip-path="url(#p79206eba16)" style="fill: #dfaf0e; stroke: #ffffff; stroke-linejoin: miter"/>
   </g>
   <g id="patch_44">
    <path d="M 377.478125 83.16 
L 405.378125 83.16 
L 405.378125 55.44 
L 377.478125 55.44 
z
" clip-path="url(#p79206eba16)" style="fill: #ffffff; stroke: #ffffff; stroke-linejoin: miter"/>
   </g>
   <g id="patch_45">
    <path d="M 405.378125 27.72 
L 433.278125 27.72 
L 433.278125 -0 
L 405.378125 -0 
z
" clip-path="url(#p79206eba16)" style="fill: #fdd123; stroke: #ffffff; stroke-linejoin: miter"/>
   </g>
   <g id="patch_46">
    <path d="M 405.378125 55.44 
L 433.278125 55.44 
L 433.278125 27.72 
L 405.378125 27.72 
z
" clip-path="url(#p79206eba16)" style="fill: #ffffff; stroke: #ffffff; stroke-linejoin: miter"/>
   </g>
   <g id="patch_47">
    <path d="M 405.378125 83.16 
L 433.278125 83.16 
L 433.278125 55.44 
L 405.378125 55.44 
z
" clip-path="url(#p79206eba16)" style="fill: #ffffff; stroke: #ffffff; stroke-linejoin: miter"/>
   </g>
   <g id="patch_48">
    <path d="M 433.278125 27.72 
L 461.178125 27.72 
L 461.178125 -0 
L 433.278125 -0 
z
" clip-path="url(#p79206eba16)" style="fill: #ffffff; stroke: #ffffff; stroke-linejoin: miter"/>
   </g>
   <g id="patch_49">
    <path d="M 433.278125 55.44 
L 461.178125 55.44 
L 461.178125 27.72 
L 433.278125 27.72 
z
" clip-path="url(#p79206eba16)" style="fill: #dfaf0e; stroke: #ffffff; stroke-linejoin: miter"/>
   </g>
   <g id="patch_50">
    <path d="M 433.278125 83.16 
L 461.178125 83.16 
L 461.178125 55.44 
L 433.278125 55.44 
z
" clip-path="url(#p79206eba16)" style="fill: #ffffff; stroke: #ffffff; stroke-linejoin: miter"/>
   </g>
   <g id="patch_51">
    <path d="M 14.778125 83.16 
L 14.778125 -0 
" style="fill: none; stroke: #fdc523; stroke-width: 2; stroke-linejoin: miter; stroke-linecap: square"/>
   </g>
   <g id="patch_52">
    <path d="M 461.178125 83.16 
L 461.178125 -0 
" style="fill: none; stroke: #fdc523; stroke-width: 2; stroke-linejoin: miter; stroke-linecap: square"/>
   </g>
   <g id="patch_53">
    <path d="M 14.778125 83.16 
L 461.178125 83.16 
" style="fill: none; stroke: #fdc523; stroke-width: 2; stroke-linejoin: miter; stroke-linecap: square"/>
   </g>
   <g id="patch_54">
    <path d="M 14.778125 -0 
L 461.178125 -0 
" style="fill: none; stroke: #fdc523; stroke-width: 2; stroke-linejoin: miter; stroke-linecap: square"/>
   </g>
  </g>
 </g>
 <defs>
  <clipPath id="p79206eba16">
   <rect x="14.778125" y="-0" width="446.4" height="83.16"/>
  </clipPath>
 </defs>
</svg>
