<?xml version="1.0" encoding="utf-8" standalone="no"?>
<!DOCTYPE svg PUBLIC "-//W3C//DTD SVG 1.1//EN"
  "http://www.w3.org/Graphics/SVG/1.1/DTD/svg11.dtd">
<svg xmlns:xlink="http://www.w3.org/1999/xlink" width="467.569375pt" height="102.837187pt" viewBox="0 0 467.569375 102.837187" xmlns="http://www.w3.org/2000/svg" version="1.1">
 <metadata>
  <rdf:RDF xmlns:dc="http://purl.org/dc/elements/1.1/" xmlns:cc="http://creativecommons.org/ns#" xmlns:rdf="http://www.w3.org/1999/02/22-rdf-syntax-ns#">
   <cc:Work>
    <dc:type rdf:resource="http://purl.org/dc/dcmitype/StillImage"/>
    <dc:date>2025-01-29T23:18:41.988421</dc:date>
    <dc:format>image/svg+xml</dc:format>
    <dc:creator>
     <cc:Agent>
      <dc:title>Matplotlib v3.10.0, https://matplotlib.org/</dc:title>
     </cc:Agent>
    </dc:creator>
   </cc:Work>
  </rdf:RDF>
 </metadata>
 <defs>
  <style type="text/css">*{stroke-linejoin: round; stroke-linecap: butt}</style>
 </defs>
 <g id="figure_1">
  <g id="patch_1">
   <path d="M 0 102.837187 
L 467.569375 102.837187 
L 467.569375 0 
L 0 0 
L 0 102.837187 
z
" style="fill: none"/>
  </g>
  <g id="axes_1">
   <g id="patch_2">
    <path d="M 21.169375 102.837187 
L 467.569375 102.837187 
L 467.569375 19.677187 
L 21.169375 19.677187 
L 21.169375 102.837187 
z
" style="fill: none"/>
   </g>
   <g id="matplotlib.axis_1"/>
   <g id="matplotlib.axis_2">
    <g id="ytick_1">
     <g id="line2d_1">
      <defs>
       <path id="mb0969d822d" d="M 0 0 
L -3.5 0 
" style="stroke: #262626; stroke-width: 0.8"/>
      </defs>
      <g>
       <use xlink:href="#mb0969d822d" x="21.169375" y="88.977187" style="fill: #262626; stroke: #262626; stroke-width: 0.8"/>
      </g>
     </g>
     <g id="text_1">
      <!-- P -->
      <g style="fill: #262626" transform="translate(3.315938 95.815781) scale(0.18 -0.18)">
       <defs>
        <path id="DejaVuSans-50" d="M 1259 4147 
L 1259 2394 
L 2053 2394 
Q 2494 2394 2734 2622 
Q 2975 2850 2975 3272 
Q 2975 3691 2734 3919 
Q 2494 4147 2053 4147 
L 1259 4147 
z
M 628 4666 
L 2053 4666 
Q 2838 4666 3239 4311 
Q 3641 3956 3641 3272 
Q 3641 2581 3239 2228 
Q 2838 1875 2053 1875 
L 1259 1875 
L 1259 0 
L 628 0 
L 628 4666 
z
" transform="scale(0.015625)"/>
       </defs>
       <use xlink:href="#DejaVuSans-50"/>
      </g>
     </g>
    </g>
    <g id="ytick_2">
     <g id="line2d_2">
      <g>
       <use xlink:href="#mb0969d822d" x="21.169375" y="61.257187" style="fill: #262626; stroke: #262626; stroke-width: 0.8"/>
      </g>
     </g>
     <g id="text_2">
      <!-- O -->
      <g style="fill: #262626" transform="translate(0 68.095781) scale(0.18 -0.18)">
       <defs>
        <path id="DejaVuSans-4f" d="M 2522 4238 
Q 1834 4238 1429 3725 
Q 1025 3213 1025 2328 
Q 1025 1447 1429 934 
Q 1834 422 2522 422 
Q 3209 422 3611 934 
Q 4013 1447 4013 2328 
Q 4013 3213 3611 3725 
Q 3209 4238 2522 4238 
z
M 2522 4750 
Q 3503 4750 4090 4092 
Q 4678 3434 4678 2328 
Q 4678 1225 4090 567 
Q 3503 -91 2522 -91 
Q 1538 -91 948 565 
Q 359 1222 359 2328 
Q 359 3434 948 4092 
Q 1538 4750 2522 4750 
z
" transform="scale(0.015625)"/>
       </defs>
       <use xlink:href="#DejaVuSans-4f"/>
      </g>
     </g>
    </g>
    <g id="ytick_3">
     <g id="line2d_3">
      <g>
       <use xlink:href="#mb0969d822d" x="21.169375" y="33.537187" style="fill: #262626; stroke: #262626; stroke-width: 0.8"/>
      </g>
     </g>
     <g id="text_3">
      <!-- C -->
      <g style="fill: #262626" transform="translate(1.600313 40.375781) scale(0.18 -0.18)">
       <defs>
        <path id="DejaVuSans-43" d="M 4122 4306 
L 4122 3641 
Q 3803 3938 3442 4084 
Q 3081 4231 2675 4231 
Q 1875 4231 1450 3742 
Q 1025 3253 1025 2328 
Q 1025 1406 1450 917 
Q 1875 428 2675 428 
Q 3081 428 3442 575 
Q 3803 722 4122 1019 
L 4122 359 
Q 3791 134 3420 21 
Q 3050 -91 2638 -91 
Q 1578 -91 968 557 
Q 359 1206 359 2328 
Q 359 3453 968 4101 
Q 1578 4750 2638 4750 
Q 3056 4750 3426 4639 
Q 3797 4528 4122 4306 
z
" transform="scale(0.015625)"/>
       </defs>
       <use xlink:href="#DejaVuSans-43"/>
      </g>
     </g>
    </g>
   </g>
   <g id="patch_3">
    <path d="M 21.169375 47.397187 
L 49.069375 47.397187 
L 49.069375 19.677187 
L 21.169375 19.677187 
z
" clip-path="url(#pe6c4f72749)" style="fill: #ffffff; stroke: #ffffff; stroke-linejoin: miter"/>
   </g>
   <g id="patch_4">
    <path d="M 21.169375 75.117188 
L 49.069375 75.117188 
L 49.069375 47.397188 
L 21.169375 47.397188 
z
" clip-path="url(#pe6c4f72749)" style="fill: #dfaf0e; stroke: #ffffff; stroke-linejoin: miter"/>
   </g>
   <g id="patch_5">
    <path d="M 21.169375 102.837187 
L 49.069375 102.837187 
L 49.069375 75.117188 
L 21.169375 75.117188 
z
" clip-path="url(#pe6c4f72749)" style="fill: #ffffff; stroke: #ffffff; stroke-linejoin: miter"/>
   </g>
   <g id="patch_6">
    <path d="M 49.069375 47.397187 
L 76.969375 47.397187 
L 76.969375 19.677187 
L 49.069375 19.677187 
z
" clip-path="url(#pe6c4f72749)" style="fill: #fdd123; stroke: #ffffff; stroke-linejoin: miter"/>
   </g>
   <g id="patch_7">
    <path d="M 49.069375 75.117188 
L 76.969375 75.117188 
L 76.969375 47.397188 
L 49.069375 47.397188 
z
" clip-path="url(#pe6c4f72749)" style="fill: #ffffff; stroke: #ffffff; stroke-linejoin: miter"/>
   </g>
   <g id="patch_8">
    <path d="M 49.069375 102.837187 
L 76.969375 102.837187 
L 76.969375 75.117188 
L 49.069375 75.117188 
z
" clip-path="url(#pe6c4f72749)" style="fill: #ffffff; stroke: #ffffff; stroke-linejoin: miter"/>
   </g>
   <g id="patch_9">
    <path d="M 76.969375 47.397187 
L 104.869375 47.397187 
L 104.869375 19.677187 
L 76.969375 19.677187 
z
" clip-path="url(#pe6c4f72749)" style="fill: #fdd123; stroke: #ffffff; stroke-linejoin: miter"/>
   </g>
   <g id="patch_10">
    <path d="M 76.969375 75.117188 
L 104.869375 75.117188 
L 104.869375 47.397188 
L 76.969375 47.397188 
z
" clip-path="url(#pe6c4f72749)" style="fill: #ffffff; stroke: #ffffff; stroke-linejoin: miter"/>
   </g>
   <g id="patch_11">
    <path d="M 76.969375 102.837187 
L 104.869375 102.837187 
L 104.869375 75.117188 
L 76.969375 75.117188 
z
" clip-path="url(#pe6c4f72749)" style="fill: #ffffff; stroke: #ffffff; stroke-linejoin: miter"/>
   </g>
   <g id="patch_12">
    <path d="M 104.869375 47.397187 
L 132.769375 47.397187 
L 132.769375 19.677187 
L 104.869375 19.677187 
z
" clip-path="url(#pe6c4f72749)" style="fill: #ffffff; stroke: #ffffff; stroke-linejoin: miter"/>
   </g>
   <g id="patch_13">
    <path d="M 104.869375 75.117188 
L 132.769375 75.117188 
L 132.769375 47.397188 
L 104.869375 47.397188 
z
" clip-path="url(#pe6c4f72749)" style="fill: #dfaf0e; stroke: #ffffff; stroke-linejoin: miter"/>
   </g>
   <g id="patch_14">
    <path d="M 104.869375 102.837187 
L 132.769375 102.837187 
L 132.769375 75.117188 
L 104.869375 75.117188 
z
" clip-path="url(#pe6c4f72749)" style="fill: #ffffff; stroke: #ffffff; stroke-linejoin: miter"/>
   </g>
   <g id="patch_15">
    <path d="M 132.769375 47.397187 
L 160.669375 47.397187 
L 160.669375 19.677187 
L 132.769375 19.677187 
z
" clip-path="url(#pe6c4f72749)" style="fill: #fdd123; stroke: #ffffff; stroke-linejoin: miter"/>
   </g>
   <g id="patch_16">
    <path d="M 132.769375 75.117188 
L 160.669375 75.117188 
L 160.669375 47.397188 
L 132.769375 47.397188 
z
" clip-path="url(#pe6c4f72749)" style="fill: #ffffff; stroke: #ffffff; stroke-linejoin: miter"/>
   </g>
   <g id="patch_17">
    <path d="M 132.769375 102.837187 
L 160.669375 102.837187 
L 160.669375 75.117188 
L 132.769375 75.117188 
z
" clip-path="url(#pe6c4f72749)" style="fill: #ffffff; stroke: #ffffff; stroke-linejoin: miter"/>
   </g>
   <g id="patch_18">
    <path d="M 160.669375 47.397187 
L 188.569375 47.397187 
L 188.569375 19.677187 
L 160.669375 19.677187 
z
" clip-path="url(#pe6c4f72749)" style="fill: #fdd123; stroke: #ffffff; stroke-linejoin: miter"/>
   </g>
   <g id="patch_19">
    <path d="M 160.669375 75.117188 
L 188.569375 75.117188 
L 188.569375 47.397188 
L 160.669375 47.397188 
z
" clip-path="url(#pe6c4f72749)" style="fill: #ffffff; stroke: #ffffff; stroke-linejoin: miter"/>
   </g>
   <g id="patch_20">
    <path d="M 160.669375 102.837187 
L 188.569375 102.837187 
L 188.569375 75.117188 
L 160.669375 75.117188 
z
" clip-path="url(#pe6c4f72749)" style="fill: #ffffff; stroke: #ffffff; stroke-linejoin: miter"/>
   </g>
   <g id="patch_21">
    <path d="M 188.569375 47.397187 
L 216.469375 47.397187 
L 216.469375 19.677187 
L 188.569375 19.677187 
z
" clip-path="url(#pe6c4f72749)" style="fill: #ffffff; stroke: #ffffff; stroke-linejoin: miter"/>
   </g>
   <g id="patch_22">
    <path d="M 188.569375 75.117188 
L 216.469375 75.117188 
L 216.469375 47.397188 
L 188.569375 47.397188 
z
" clip-path="url(#pe6c4f72749)" style="fill: #dfaf0e; stroke: #ffffff; stroke-linejoin: miter"/>
   </g>
   <g id="patch_23">
    <path d="M 188.569375 102.837187 
L 216.469375 102.837187 
L 216.469375 75.117188 
L 188.569375 75.117188 
z
" clip-path="url(#pe6c4f72749)" style="fill: #ffffff; stroke: #ffffff; stroke-linejoin: miter"/>
   </g>
   <g id="patch_24">
    <path d="M 216.469375 47.397187 
L 244.369375 47.397187 
L 244.369375 19.677187 
L 216.469375 19.677187 
z
" clip-path="url(#pe6c4f72749)" style="fill: #ffffff; stroke: #ffffff; stroke-linejoin: miter"/>
   </g>
   <g id="patch_25">
    <path d="M 216.469375 75.117188 
L 244.369375 75.117188 
L 244.369375 47.397188 
L 216.469375 47.397188 
z
" clip-path="url(#pe6c4f72749)" style="fill: #ffffff; stroke: #ffffff; stroke-linejoin: miter"/>
   </g>
   <g id="patch_26">
    <path d="M 216.469375 102.837187 
L 244.369375 102.837187 
L 244.369375 75.117188 
L 216.469375 75.117188 
z
" clip-path="url(#pe6c4f72749)" style="fill: #ffdd54; stroke: #ffffff; stroke-linejoin: miter"/>
   </g>
   <g id="patch_27">
    <path d="M 244.369375 47.397187 
L 272.269375 47.397187 
L 272.269375 19.677187 
L 244.369375 19.677187 
z
" clip-path="url(#pe6c4f72749)" style="fill: #ffffff; stroke: #ffffff; stroke-linejoin: miter"/>
   </g>
   <g id="patch_28">
    <path d="M 244.369375 75.117188 
L 272.269375 75.117188 
L 272.269375 47.397188 
L 244.369375 47.397188 
z
" clip-path="url(#pe6c4f72749)" style="fill: #dfaf0e; stroke: #ffffff; stroke-linejoin: miter"/>
   </g>
   <g id="patch_29">
    <path d="M 244.369375 102.837187 
L 272.269375 102.837187 
L 272.269375 75.117188 
L 244.369375 75.117188 
z
" clip-path="url(#pe6c4f72749)" style="fill: #ffffff; stroke: #ffffff; stroke-linejoin: miter"/>
   </g>
   <g id="patch_30">
    <path d="M 272.269375 47.397187 
L 300.169375 47.397187 
L 300.169375 19.677187 
L 272.269375 19.677187 
z
" clip-path="url(#pe6c4f72749)" style="fill: #ffffff; stroke: #ffffff; stroke-linejoin: miter"/>
   </g>
   <g id="patch_31">
    <path d="M 272.269375 75.117188 
L 300.169375 75.117188 
L 300.169375 47.397188 
L 272.269375 47.397188 
z
" clip-path="url(#pe6c4f72749)" style="fill: #dfaf0e; stroke: #ffffff; stroke-linejoin: miter"/>
   </g>
   <g id="patch_32">
    <path d="M 272.269375 102.837187 
L 300.169375 102.837187 
L 300.169375 75.117188 
L 272.269375 75.117188 
z
" clip-path="url(#pe6c4f72749)" style="fill: #ffffff; stroke: #ffffff; stroke-linejoin: miter"/>
   </g>
   <g id="patch_33">
    <path d="M 300.169375 47.397187 
L 328.069375 47.397187 
L 328.069375 19.677187 
L 300.169375 19.677187 
z
" clip-path="url(#pe6c4f72749)" style="fill: #ffffff; stroke: #ffffff; stroke-linejoin: miter"/>
   </g>
   <g id="patch_34">
    <path d="M 300.169375 75.117188 
L 328.069375 75.117188 
L 328.069375 47.397188 
L 300.169375 47.397188 
z
" clip-path="url(#pe6c4f72749)" style="fill: #dfaf0e; stroke: #ffffff; stroke-linejoin: miter"/>
   </g>
   <g id="patch_35">
    <path d="M 300.169375 102.837187 
L 328.069375 102.837187 
L 328.069375 75.117188 
L 300.169375 75.117188 
z
" clip-path="url(#pe6c4f72749)" style="fill: #ffffff; stroke: #ffffff; stroke-linejoin: miter"/>
   </g>
   <g id="patch_36">
    <path d="M 328.069375 47.397187 
L 355.969375 47.397187 
L 355.969375 19.677187 
L 328.069375 19.677187 
z
" clip-path="url(#pe6c4f72749)" style="fill: #ffffff; stroke: #ffffff; stroke-linejoin: miter"/>
   </g>
   <g id="patch_37">
    <path d="M 328.069375 75.117188 
L 355.969375 75.117188 
L 355.969375 47.397188 
L 328.069375 47.397188 
z
" clip-path="url(#pe6c4f72749)" style="fill: #dfaf0e; stroke: #ffffff; stroke-linejoin: miter"/>
   </g>
   <g id="patch_38">
    <path d="M 328.069375 102.837187 
L 355.969375 102.837187 
L 355.969375 75.117188 
L 328.069375 75.117188 
z
" clip-path="url(#pe6c4f72749)" style="fill: #ffffff; stroke: #ffffff; stroke-linejoin: miter"/>
   </g>
   <g id="patch_39">
    <path d="M 355.969375 47.397187 
L 383.869375 47.397187 
L 383.869375 19.677187 
L 355.969375 19.677187 
z
" clip-path="url(#pe6c4f72749)" style="fill: #fdd123; stroke: #ffffff; stroke-linejoin: miter"/>
   </g>
   <g id="patch_40">
    <path d="M 355.969375 75.117188 
L 383.869375 75.117188 
L 383.869375 47.397188 
L 355.969375 47.397188 
z
" clip-path="url(#pe6c4f72749)" style="fill: #ffffff; stroke: #ffffff; stroke-linejoin: miter"/>
   </g>
   <g id="patch_41">
    <path d="M 355.969375 102.837187 
L 383.869375 102.837187 
L 383.869375 75.117188 
L 355.969375 75.117188 
z
" clip-path="url(#pe6c4f72749)" style="fill: #ffffff; stroke: #ffffff; stroke-linejoin: miter"/>
   </g>
   <g id="patch_42">
    <path d="M 383.869375 47.397187 
L 411.769375 47.397187 
L 411.769375 19.677187 
L 383.869375 19.677187 
z
" clip-path="url(#pe6c4f72749)" style="fill: #ffffff; stroke: #ffffff; stroke-linejoin: miter"/>
   </g>
   <g id="patch_43">
    <path d="M 383.869375 75.117188 
L 411.769375 75.117188 
L 411.769375 47.397188 
L 383.869375 47.397188 
z
" clip-path="url(#pe6c4f72749)" style="fill: #dfaf0e; stroke: #ffffff; stroke-linejoin: miter"/>
   </g>
   <g id="patch_44">
    <path d="M 383.869375 102.837187 
L 411.769375 102.837187 
L 411.769375 75.117188 
L 383.869375 75.117188 
z
" clip-path="url(#pe6c4f72749)" style="fill: #ffffff; stroke: #ffffff; stroke-linejoin: miter"/>
   </g>
   <g id="patch_45">
    <path d="M 411.769375 47.397187 
L 439.669375 47.397187 
L 439.669375 19.677187 
L 411.769375 19.677187 
z
" clip-path="url(#pe6c4f72749)" style="fill: #fdd123; stroke: #ffffff; stroke-linejoin: miter"/>
   </g>
   <g id="patch_46">
    <path d="M 411.769375 75.117188 
L 439.669375 75.117188 
L 439.669375 47.397188 
L 411.769375 47.397188 
z
" clip-path="url(#pe6c4f72749)" style="fill: #ffffff; stroke: #ffffff; stroke-linejoin: miter"/>
   </g>
   <g id="patch_47">
    <path d="M 411.769375 102.837187 
L 439.669375 102.837187 
L 439.669375 75.117188 
L 411.769375 75.117188 
z
" clip-path="url(#pe6c4f72749)" style="fill: #ffffff; stroke: #ffffff; stroke-linejoin: miter"/>
   </g>
   <g id="patch_48">
    <path d="M 439.669375 47.397187 
L 467.569375 47.397187 
L 467.569375 19.677187 
L 439.669375 19.677187 
z
" clip-path="url(#pe6c4f72749)" style="fill: #ffffff; stroke: #ffffff; stroke-linejoin: miter"/>
   </g>
   <g id="patch_49">
    <path d="M 439.669375 75.117188 
L 467.569375 75.117188 
L 467.569375 47.397188 
L 439.669375 47.397188 
z
" clip-path="url(#pe6c4f72749)" style="fill: #dfaf0e; stroke: #ffffff; stroke-linejoin: miter"/>
   </g>
   <g id="patch_50">
    <path d="M 439.669375 102.837187 
L 467.569375 102.837187 
L 467.569375 75.117188 
L 439.669375 75.117188 
z
" clip-path="url(#pe6c4f72749)" style="fill: #ffffff; stroke: #ffffff; stroke-linejoin: miter"/>
   </g>
   <g id="patch_51">
    <path d="M 21.169375 102.837187 
L 21.169375 19.677187 
" style="fill: none; stroke: #fdc523; stroke-width: 2; stroke-linejoin: miter; stroke-linecap: square"/>
   </g>
   <g id="patch_52">
    <path d="M 467.569375 102.837187 
L 467.569375 19.677187 
" style="fill: none; stroke: #fdc523; stroke-width: 2; stroke-linejoin: miter; stroke-linecap: square"/>
   </g>
   <g id="patch_53">
    <path d="M 21.169375 102.837187 
L 467.569375 102.837187 
" style="fill: none; stroke: #fdc523; stroke-width: 2; stroke-linejoin: miter; stroke-linecap: square"/>
   </g>
   <g id="patch_54">
    <path d="M 21.169375 19.677187 
L 467.569375 19.677187 
" style="fill: none; stroke: #fdc523; stroke-width: 2; stroke-linejoin: miter; stroke-linecap: square"/>
   </g>
   <g id="text_4">
    <!-- 16x3 -->
    <g style="fill: #fdc523" transform="translate(221.86375 13.677187) scale(0.18 -0.18)">
     <defs>
      <path id="DejaVuSans-31" d="M 794 531 
L 1825 531 
L 1825 4091 
L 703 3866 
L 703 4441 
L 1819 4666 
L 2450 4666 
L 2450 531 
L 3481 531 
L 3481 0 
L 794 0 
L 794 531 
z
" transform="scale(0.015625)"/>
      <path id="DejaVuSans-36" d="M 2113 2584 
Q 1688 2584 1439 2293 
Q 1191 2003 1191 1497 
Q 1191 994 1439 701 
Q 1688 409 2113 409 
Q 2538 409 2786 701 
Q 3034 994 3034 1497 
Q 3034 2003 2786 2293 
Q 2538 2584 2113 2584 
z
M 3366 4563 
L 3366 3988 
Q 3128 4100 2886 4159 
Q 2644 4219 2406 4219 
Q 1781 4219 1451 3797 
Q 1122 3375 1075 2522 
Q 1259 2794 1537 2939 
Q 1816 3084 2150 3084 
Q 2853 3084 3261 2657 
Q 3669 2231 3669 1497 
Q 3669 778 3244 343 
Q 2819 -91 2113 -91 
Q 1303 -91 875 529 
Q 447 1150 447 2328 
Q 447 3434 972 4092 
Q 1497 4750 2381 4750 
Q 2619 4750 2861 4703 
Q 3103 4656 3366 4563 
z
" transform="scale(0.015625)"/>
      <path id="DejaVuSans-78" d="M 3513 3500 
L 2247 1797 
L 3578 0 
L 2900 0 
L 1881 1375 
L 863 0 
L 184 0 
L 1544 1831 
L 300 3500 
L 978 3500 
L 1906 2253 
L 2834 3500 
L 3513 3500 
z
" transform="scale(0.015625)"/>
      <path id="DejaVuSans-33" d="M 2597 2516 
Q 3050 2419 3304 2112 
Q 3559 1806 3559 1356 
Q 3559 666 3084 287 
Q 2609 -91 1734 -91 
Q 1441 -91 1130 -33 
Q 819 25 488 141 
L 488 750 
Q 750 597 1062 519 
Q 1375 441 1716 441 
Q 2309 441 2620 675 
Q 2931 909 2931 1356 
Q 2931 1769 2642 2001 
Q 2353 2234 1838 2234 
L 1294 2234 
L 1294 2753 
L 1863 2753 
Q 2328 2753 2575 2939 
Q 2822 3125 2822 3475 
Q 2822 3834 2567 4026 
Q 2313 4219 1838 4219 
Q 1578 4219 1281 4162 
Q 984 4106 628 3988 
L 628 4550 
Q 988 4650 1302 4700 
Q 1616 4750 1894 4750 
Q 2613 4750 3031 4423 
Q 3450 4097 3450 3541 
Q 3450 3153 3228 2886 
Q 3006 2619 2597 2516 
z
" transform="scale(0.015625)"/>
     </defs>
     <use xlink:href="#DejaVuSans-31"/>
     <use xlink:href="#DejaVuSans-36" transform="translate(63.623047 0)"/>
     <use xlink:href="#DejaVuSans-78" transform="translate(127.246094 0)"/>
     <use xlink:href="#DejaVuSans-33" transform="translate(186.425781 0)"/>
    </g>
   </g>
  </g>
 </g>
 <defs>
  <clipPath id="pe6c4f72749">
   <rect x="21.169375" y="19.677187" width="446.4" height="83.16"/>
  </clipPath>
 </defs>
</svg>
