<?xml version="1.0" encoding="utf-8" standalone="no"?>
<!DOCTYPE svg PUBLIC "-//W3C//DTD SVG 1.1//EN"
  "http://www.w3.org/Graphics/SVG/1.1/DTD/svg11.dtd">
<svg xmlns:xlink="http://www.w3.org/1999/xlink" width="467.400625pt" height="97.749375pt" viewBox="0 0 467.400625 97.749375" xmlns="http://www.w3.org/2000/svg" version="1.1">
 <metadata>
  <rdf:RDF xmlns:dc="http://purl.org/dc/elements/1.1/" xmlns:cc="http://creativecommons.org/ns#" xmlns:rdf="http://www.w3.org/1999/02/22-rdf-syntax-ns#">
   <cc:Work>
    <dc:type rdf:resource="http://purl.org/dc/dcmitype/StillImage"/>
    <dc:date>2024-12-20T17:02:49.597134</dc:date>
    <dc:format>image/svg+xml</dc:format>
    <dc:creator>
     <cc:Agent>
      <dc:title>Matplotlib v3.9.2, https://matplotlib.org/</dc:title>
     </cc:Agent>
    </dc:creator>
   </cc:Work>
  </rdf:RDF>
 </metadata>
 <defs>
  <style type="text/css">*{stroke-linejoin: round; stroke-linecap: butt}</style>
 </defs>
 <g id="figure_1">
  <g id="patch_1">
   <path d="M 0 97.749375 
L 467.400625 97.749375 
L 467.400625 0 
L 0 0 
L 0 97.749375 
z
" style="fill: none"/>
  </g>
  <g id="axes_1">
   <g id="patch_2">
    <path d="M 21.000625 97.749375 
L 467.400625 97.749375 
L 467.400625 14.589375 
L 21.000625 14.589375 
L 21.000625 97.749375 
z
" style="fill: none"/>
   </g>
   <g id="matplotlib.axis_1"/>
   <g id="matplotlib.axis_2">
    <g id="ytick_1">
     <g id="line2d_1">
      <defs>
       <path id="m7f7e8a0c5f" d="M 0 0 
L -3.5 0 
" style="stroke: #262626; stroke-width: 0.8"/>
      </defs>
      <g>
       <use xlink:href="#m7f7e8a0c5f" x="21.000625" y="83.889375" style="fill: #262626; stroke: #262626; stroke-width: 0.8"/>
      </g>
     </g>
     <g id="text_1">
      <!-- P -->
      <g style="fill: #262626" transform="translate(1.994063 90.331406) scale(0.18 -0.18)">
       <defs>
        <path id="ArialMT-50" d="M 494 0 
L 494 4581 
L 2222 4581 
Q 2678 4581 2919 4538 
Q 3256 4481 3484 4323 
Q 3713 4166 3852 3881 
Q 3991 3597 3991 3256 
Q 3991 2672 3619 2267 
Q 3247 1863 2275 1863 
L 1100 1863 
L 1100 0 
L 494 0 
z
M 1100 2403 
L 2284 2403 
Q 2872 2403 3119 2622 
Q 3366 2841 3366 3238 
Q 3366 3525 3220 3729 
Q 3075 3934 2838 4000 
Q 2684 4041 2272 4041 
L 1100 4041 
L 1100 2403 
z
" transform="scale(0.015625)"/>
       </defs>
       <use xlink:href="#ArialMT-50"/>
      </g>
     </g>
    </g>
    <g id="ytick_2">
     <g id="line2d_2">
      <g>
       <use xlink:href="#m7f7e8a0c5f" x="21.000625" y="56.169375" style="fill: #262626; stroke: #262626; stroke-width: 0.8"/>
      </g>
     </g>
     <g id="text_2">
      <!-- O -->
      <g style="fill: #262626" transform="translate(0 62.611406) scale(0.18 -0.18)">
       <defs>
        <path id="ArialMT-4f" d="M 309 2231 
Q 309 3372 921 4017 
Q 1534 4663 2503 4663 
Q 3138 4663 3647 4359 
Q 4156 4056 4423 3514 
Q 4691 2972 4691 2284 
Q 4691 1588 4409 1038 
Q 4128 488 3612 205 
Q 3097 -78 2500 -78 
Q 1853 -78 1343 234 
Q 834 547 571 1087 
Q 309 1628 309 2231 
z
M 934 2222 
Q 934 1394 1379 917 
Q 1825 441 2497 441 
Q 3181 441 3623 922 
Q 4066 1403 4066 2288 
Q 4066 2847 3877 3264 
Q 3688 3681 3323 3911 
Q 2959 4141 2506 4141 
Q 1863 4141 1398 3698 
Q 934 3256 934 2222 
z
" transform="scale(0.015625)"/>
       </defs>
       <use xlink:href="#ArialMT-4f"/>
      </g>
     </g>
    </g>
    <g id="ytick_3">
     <g id="line2d_3">
      <g>
       <use xlink:href="#m7f7e8a0c5f" x="21.000625" y="28.449375" style="fill: #262626; stroke: #262626; stroke-width: 0.8"/>
      </g>
     </g>
     <g id="text_3">
      <!-- C -->
      <g style="fill: #262626" transform="translate(1.00125 34.891406) scale(0.18 -0.18)">
       <defs>
        <path id="ArialMT-43" d="M 3763 1606 
L 4369 1453 
Q 4178 706 3683 314 
Q 3188 -78 2472 -78 
Q 1731 -78 1267 223 
Q 803 525 561 1097 
Q 319 1669 319 2325 
Q 319 3041 592 3573 
Q 866 4106 1370 4382 
Q 1875 4659 2481 4659 
Q 3169 4659 3637 4309 
Q 4106 3959 4291 3325 
L 3694 3184 
Q 3534 3684 3231 3912 
Q 2928 4141 2469 4141 
Q 1941 4141 1586 3887 
Q 1231 3634 1087 3207 
Q 944 2781 944 2328 
Q 944 1744 1114 1308 
Q 1284 872 1643 656 
Q 2003 441 2422 441 
Q 2931 441 3284 734 
Q 3638 1028 3763 1606 
z
" transform="scale(0.015625)"/>
       </defs>
       <use xlink:href="#ArialMT-43"/>
      </g>
     </g>
    </g>
   </g>
   <g id="patch_3">
    <path d="M 21.000625 42.309375 
L 48.900625 42.309375 
L 48.900625 14.589375 
L 21.000625 14.589375 
z
" clip-path="url(#p069c0624b0)" style="fill: #ffffff; stroke: #ffffff; stroke-linejoin: miter"/>
   </g>
   <g id="patch_4">
    <path d="M 21.000625 70.029375 
L 48.900625 70.029375 
L 48.900625 42.309375 
L 21.000625 42.309375 
z
" clip-path="url(#p069c0624b0)" style="fill: #dfaf0e; stroke: #ffffff; stroke-linejoin: miter"/>
   </g>
   <g id="patch_5">
    <path d="M 21.000625 97.749375 
L 48.900625 97.749375 
L 48.900625 70.029375 
L 21.000625 70.029375 
z
" clip-path="url(#p069c0624b0)" style="fill: #ffffff; stroke: #ffffff; stroke-linejoin: miter"/>
   </g>
   <g id="patch_6">
    <path d="M 48.900625 42.309375 
L 76.800625 42.309375 
L 76.800625 14.589375 
L 48.900625 14.589375 
z
" clip-path="url(#p069c0624b0)" style="fill: #fdd123; stroke: #ffffff; stroke-linejoin: miter"/>
   </g>
   <g id="patch_7">
    <path d="M 48.900625 70.029375 
L 76.800625 70.029375 
L 76.800625 42.309375 
L 48.900625 42.309375 
z
" clip-path="url(#p069c0624b0)" style="fill: #ffffff; stroke: #ffffff; stroke-linejoin: miter"/>
   </g>
   <g id="patch_8">
    <path d="M 48.900625 97.749375 
L 76.800625 97.749375 
L 76.800625 70.029375 
L 48.900625 70.029375 
z
" clip-path="url(#p069c0624b0)" style="fill: #ffffff; stroke: #ffffff; stroke-linejoin: miter"/>
   </g>
   <g id="patch_9">
    <path d="M 76.800625 42.309375 
L 104.700625 42.309375 
L 104.700625 14.589375 
L 76.800625 14.589375 
z
" clip-path="url(#p069c0624b0)" style="fill: #fdd123; stroke: #ffffff; stroke-linejoin: miter"/>
   </g>
   <g id="patch_10">
    <path d="M 76.800625 70.029375 
L 104.700625 70.029375 
L 104.700625 42.309375 
L 76.800625 42.309375 
z
" clip-path="url(#p069c0624b0)" style="fill: #ffffff; stroke: #ffffff; stroke-linejoin: miter"/>
   </g>
   <g id="patch_11">
    <path d="M 76.800625 97.749375 
L 104.700625 97.749375 
L 104.700625 70.029375 
L 76.800625 70.029375 
z
" clip-path="url(#p069c0624b0)" style="fill: #ffffff; stroke: #ffffff; stroke-linejoin: miter"/>
   </g>
   <g id="patch_12">
    <path d="M 104.700625 42.309375 
L 132.600625 42.309375 
L 132.600625 14.589375 
L 104.700625 14.589375 
z
" clip-path="url(#p069c0624b0)" style="fill: #ffffff; stroke: #ffffff; stroke-linejoin: miter"/>
   </g>
   <g id="patch_13">
    <path d="M 104.700625 70.029375 
L 132.600625 70.029375 
L 132.600625 42.309375 
L 104.700625 42.309375 
z
" clip-path="url(#p069c0624b0)" style="fill: #dfaf0e; stroke: #ffffff; stroke-linejoin: miter"/>
   </g>
   <g id="patch_14">
    <path d="M 104.700625 97.749375 
L 132.600625 97.749375 
L 132.600625 70.029375 
L 104.700625 70.029375 
z
" clip-path="url(#p069c0624b0)" style="fill: #ffffff; stroke: #ffffff; stroke-linejoin: miter"/>
   </g>
   <g id="patch_15">
    <path d="M 132.600625 42.309375 
L 160.500625 42.309375 
L 160.500625 14.589375 
L 132.600625 14.589375 
z
" clip-path="url(#p069c0624b0)" style="fill: #fdd123; stroke: #ffffff; stroke-linejoin: miter"/>
   </g>
   <g id="patch_16">
    <path d="M 132.600625 70.029375 
L 160.500625 70.029375 
L 160.500625 42.309375 
L 132.600625 42.309375 
z
" clip-path="url(#p069c0624b0)" style="fill: #ffffff; stroke: #ffffff; stroke-linejoin: miter"/>
   </g>
   <g id="patch_17">
    <path d="M 132.600625 97.749375 
L 160.500625 97.749375 
L 160.500625 70.029375 
L 132.600625 70.029375 
z
" clip-path="url(#p069c0624b0)" style="fill: #ffffff; stroke: #ffffff; stroke-linejoin: miter"/>
   </g>
   <g id="patch_18">
    <path d="M 160.500625 42.309375 
L 188.400625 42.309375 
L 188.400625 14.589375 
L 160.500625 14.589375 
z
" clip-path="url(#p069c0624b0)" style="fill: #fdd123; stroke: #ffffff; stroke-linejoin: miter"/>
   </g>
   <g id="patch_19">
    <path d="M 160.500625 70.029375 
L 188.400625 70.029375 
L 188.400625 42.309375 
L 160.500625 42.309375 
z
" clip-path="url(#p069c0624b0)" style="fill: #ffffff; stroke: #ffffff; stroke-linejoin: miter"/>
   </g>
   <g id="patch_20">
    <path d="M 160.500625 97.749375 
L 188.400625 97.749375 
L 188.400625 70.029375 
L 160.500625 70.029375 
z
" clip-path="url(#p069c0624b0)" style="fill: #ffffff; stroke: #ffffff; stroke-linejoin: miter"/>
   </g>
   <g id="patch_21">
    <path d="M 188.400625 42.309375 
L 216.300625 42.309375 
L 216.300625 14.589375 
L 188.400625 14.589375 
z
" clip-path="url(#p069c0624b0)" style="fill: #ffffff; stroke: #ffffff; stroke-linejoin: miter"/>
   </g>
   <g id="patch_22">
    <path d="M 188.400625 70.029375 
L 216.300625 70.029375 
L 216.300625 42.309375 
L 188.400625 42.309375 
z
" clip-path="url(#p069c0624b0)" style="fill: #dfaf0e; stroke: #ffffff; stroke-linejoin: miter"/>
   </g>
   <g id="patch_23">
    <path d="M 188.400625 97.749375 
L 216.300625 97.749375 
L 216.300625 70.029375 
L 188.400625 70.029375 
z
" clip-path="url(#p069c0624b0)" style="fill: #ffffff; stroke: #ffffff; stroke-linejoin: miter"/>
   </g>
   <g id="patch_24">
    <path d="M 216.300625 42.309375 
L 244.200625 42.309375 
L 244.200625 14.589375 
L 216.300625 14.589375 
z
" clip-path="url(#p069c0624b0)" style="fill: #ffffff; stroke: #ffffff; stroke-linejoin: miter"/>
   </g>
   <g id="patch_25">
    <path d="M 216.300625 70.029375 
L 244.200625 70.029375 
L 244.200625 42.309375 
L 216.300625 42.309375 
z
" clip-path="url(#p069c0624b0)" style="fill: #ffffff; stroke: #ffffff; stroke-linejoin: miter"/>
   </g>
   <g id="patch_26">
    <path d="M 216.300625 97.749375 
L 244.200625 97.749375 
L 244.200625 70.029375 
L 216.300625 70.029375 
z
" clip-path="url(#p069c0624b0)" style="fill: #ffdd54; stroke: #ffffff; stroke-linejoin: miter"/>
   </g>
   <g id="patch_27">
    <path d="M 244.200625 42.309375 
L 272.100625 42.309375 
L 272.100625 14.589375 
L 244.200625 14.589375 
z
" clip-path="url(#p069c0624b0)" style="fill: #ffffff; stroke: #ffffff; stroke-linejoin: miter"/>
   </g>
   <g id="patch_28">
    <path d="M 244.200625 70.029375 
L 272.100625 70.029375 
L 272.100625 42.309375 
L 244.200625 42.309375 
z
" clip-path="url(#p069c0624b0)" style="fill: #dfaf0e; stroke: #ffffff; stroke-linejoin: miter"/>
   </g>
   <g id="patch_29">
    <path d="M 244.200625 97.749375 
L 272.100625 97.749375 
L 272.100625 70.029375 
L 244.200625 70.029375 
z
" clip-path="url(#p069c0624b0)" style="fill: #ffffff; stroke: #ffffff; stroke-linejoin: miter"/>
   </g>
   <g id="patch_30">
    <path d="M 272.100625 42.309375 
L 300.000625 42.309375 
L 300.000625 14.589375 
L 272.100625 14.589375 
z
" clip-path="url(#p069c0624b0)" style="fill: #ffffff; stroke: #ffffff; stroke-linejoin: miter"/>
   </g>
   <g id="patch_31">
    <path d="M 272.100625 70.029375 
L 300.000625 70.029375 
L 300.000625 42.309375 
L 272.100625 42.309375 
z
" clip-path="url(#p069c0624b0)" style="fill: #dfaf0e; stroke: #ffffff; stroke-linejoin: miter"/>
   </g>
   <g id="patch_32">
    <path d="M 272.100625 97.749375 
L 300.000625 97.749375 
L 300.000625 70.029375 
L 272.100625 70.029375 
z
" clip-path="url(#p069c0624b0)" style="fill: #ffffff; stroke: #ffffff; stroke-linejoin: miter"/>
   </g>
   <g id="patch_33">
    <path d="M 300.000625 42.309375 
L 327.900625 42.309375 
L 327.900625 14.589375 
L 300.000625 14.589375 
z
" clip-path="url(#p069c0624b0)" style="fill: #ffffff; stroke: #ffffff; stroke-linejoin: miter"/>
   </g>
   <g id="patch_34">
    <path d="M 300.000625 70.029375 
L 327.900625 70.029375 
L 327.900625 42.309375 
L 300.000625 42.309375 
z
" clip-path="url(#p069c0624b0)" style="fill: #dfaf0e; stroke: #ffffff; stroke-linejoin: miter"/>
   </g>
   <g id="patch_35">
    <path d="M 300.000625 97.749375 
L 327.900625 97.749375 
L 327.900625 70.029375 
L 300.000625 70.029375 
z
" clip-path="url(#p069c0624b0)" style="fill: #ffffff; stroke: #ffffff; stroke-linejoin: miter"/>
   </g>
   <g id="patch_36">
    <path d="M 327.900625 42.309375 
L 355.800625 42.309375 
L 355.800625 14.589375 
L 327.900625 14.589375 
z
" clip-path="url(#p069c0624b0)" style="fill: #ffffff; stroke: #ffffff; stroke-linejoin: miter"/>
   </g>
   <g id="patch_37">
    <path d="M 327.900625 70.029375 
L 355.800625 70.029375 
L 355.800625 42.309375 
L 327.900625 42.309375 
z
" clip-path="url(#p069c0624b0)" style="fill: #dfaf0e; stroke: #ffffff; stroke-linejoin: miter"/>
   </g>
   <g id="patch_38">
    <path d="M 327.900625 97.749375 
L 355.800625 97.749375 
L 355.800625 70.029375 
L 327.900625 70.029375 
z
" clip-path="url(#p069c0624b0)" style="fill: #ffffff; stroke: #ffffff; stroke-linejoin: miter"/>
   </g>
   <g id="patch_39">
    <path d="M 355.800625 42.309375 
L 383.700625 42.309375 
L 383.700625 14.589375 
L 355.800625 14.589375 
z
" clip-path="url(#p069c0624b0)" style="fill: #fdd123; stroke: #ffffff; stroke-linejoin: miter"/>
   </g>
   <g id="patch_40">
    <path d="M 355.800625 70.029375 
L 383.700625 70.029375 
L 383.700625 42.309375 
L 355.800625 42.309375 
z
" clip-path="url(#p069c0624b0)" style="fill: #ffffff; stroke: #ffffff; stroke-linejoin: miter"/>
   </g>
   <g id="patch_41">
    <path d="M 355.800625 97.749375 
L 383.700625 97.749375 
L 383.700625 70.029375 
L 355.800625 70.029375 
z
" clip-path="url(#p069c0624b0)" style="fill: #ffffff; stroke: #ffffff; stroke-linejoin: miter"/>
   </g>
   <g id="patch_42">
    <path d="M 383.700625 42.309375 
L 411.600625 42.309375 
L 411.600625 14.589375 
L 383.700625 14.589375 
z
" clip-path="url(#p069c0624b0)" style="fill: #ffffff; stroke: #ffffff; stroke-linejoin: miter"/>
   </g>
   <g id="patch_43">
    <path d="M 383.700625 70.029375 
L 411.600625 70.029375 
L 411.600625 42.309375 
L 383.700625 42.309375 
z
" clip-path="url(#p069c0624b0)" style="fill: #dfaf0e; stroke: #ffffff; stroke-linejoin: miter"/>
   </g>
   <g id="patch_44">
    <path d="M 383.700625 97.749375 
L 411.600625 97.749375 
L 411.600625 70.029375 
L 383.700625 70.029375 
z
" clip-path="url(#p069c0624b0)" style="fill: #ffffff; stroke: #ffffff; stroke-linejoin: miter"/>
   </g>
   <g id="patch_45">
    <path d="M 411.600625 42.309375 
L 439.500625 42.309375 
L 439.500625 14.589375 
L 411.600625 14.589375 
z
" clip-path="url(#p069c0624b0)" style="fill: #fdd123; stroke: #ffffff; stroke-linejoin: miter"/>
   </g>
   <g id="patch_46">
    <path d="M 411.600625 70.029375 
L 439.500625 70.029375 
L 439.500625 42.309375 
L 411.600625 42.309375 
z
" clip-path="url(#p069c0624b0)" style="fill: #ffffff; stroke: #ffffff; stroke-linejoin: miter"/>
   </g>
   <g id="patch_47">
    <path d="M 411.600625 97.749375 
L 439.500625 97.749375 
L 439.500625 70.029375 
L 411.600625 70.029375 
z
" clip-path="url(#p069c0624b0)" style="fill: #ffffff; stroke: #ffffff; stroke-linejoin: miter"/>
   </g>
   <g id="patch_48">
    <path d="M 439.500625 42.309375 
L 467.400625 42.309375 
L 467.400625 14.589375 
L 439.500625 14.589375 
z
" clip-path="url(#p069c0624b0)" style="fill: #ffffff; stroke: #ffffff; stroke-linejoin: miter"/>
   </g>
   <g id="patch_49">
    <path d="M 439.500625 70.029375 
L 467.400625 70.029375 
L 467.400625 42.309375 
L 439.500625 42.309375 
z
" clip-path="url(#p069c0624b0)" style="fill: #dfaf0e; stroke: #ffffff; stroke-linejoin: miter"/>
   </g>
   <g id="patch_50">
    <path d="M 439.500625 97.749375 
L 467.400625 97.749375 
L 467.400625 70.029375 
L 439.500625 70.029375 
z
" clip-path="url(#p069c0624b0)" style="fill: #ffffff; stroke: #ffffff; stroke-linejoin: miter"/>
   </g>
   <g id="patch_51">
    <path d="M 21.000625 97.749375 
L 21.000625 14.589375 
" style="fill: none; stroke: #fdc523; stroke-width: 2; stroke-linejoin: miter; stroke-linecap: square"/>
   </g>
   <g id="patch_52">
    <path d="M 467.400625 97.749375 
L 467.400625 14.589375 
" style="fill: none; stroke: #fdc523; stroke-width: 2; stroke-linejoin: miter; stroke-linecap: square"/>
   </g>
   <g id="patch_53">
    <path d="M 21.000625 97.749375 
L 467.400625 97.749375 
" style="fill: none; stroke: #fdc523; stroke-width: 2; stroke-linejoin: miter; stroke-linecap: square"/>
   </g>
   <g id="patch_54">
    <path d="M 21.000625 14.589375 
L 467.400625 14.589375 
" style="fill: none; stroke: #fdc523; stroke-width: 2; stroke-linejoin: miter; stroke-linecap: square"/>
   </g>
   <g id="text_4">
    <!-- 16x3 -->
    <g style="fill: #fdc523" transform="translate(231.190937 8.589375) scale(0.12 -0.12)">
     <defs>
      <path id="ArialMT-31" d="M 2384 0 
L 1822 0 
L 1822 3584 
Q 1619 3391 1289 3197 
Q 959 3003 697 2906 
L 697 3450 
Q 1169 3672 1522 3987 
Q 1875 4303 2022 4600 
L 2384 4600 
L 2384 0 
z
" transform="scale(0.015625)"/>
      <path id="ArialMT-36" d="M 3184 3459 
L 2625 3416 
Q 2550 3747 2413 3897 
Q 2184 4138 1850 4138 
Q 1581 4138 1378 3988 
Q 1113 3794 959 3422 
Q 806 3050 800 2363 
Q 1003 2672 1297 2822 
Q 1591 2972 1913 2972 
Q 2475 2972 2870 2558 
Q 3266 2144 3266 1488 
Q 3266 1056 3080 686 
Q 2894 316 2569 119 
Q 2244 -78 1831 -78 
Q 1128 -78 684 439 
Q 241 956 241 2144 
Q 241 3472 731 4075 
Q 1159 4600 1884 4600 
Q 2425 4600 2770 4297 
Q 3116 3994 3184 3459 
z
M 888 1484 
Q 888 1194 1011 928 
Q 1134 663 1356 523 
Q 1578 384 1822 384 
Q 2178 384 2434 671 
Q 2691 959 2691 1453 
Q 2691 1928 2437 2201 
Q 2184 2475 1800 2475 
Q 1419 2475 1153 2201 
Q 888 1928 888 1484 
z
" transform="scale(0.015625)"/>
      <path id="ArialMT-78" d="M 47 0 
L 1259 1725 
L 138 3319 
L 841 3319 
L 1350 2541 
Q 1494 2319 1581 2169 
Q 1719 2375 1834 2534 
L 2394 3319 
L 3066 3319 
L 1919 1756 
L 3153 0 
L 2463 0 
L 1781 1031 
L 1600 1309 
L 728 0 
L 47 0 
z
" transform="scale(0.015625)"/>
      <path id="ArialMT-33" d="M 269 1209 
L 831 1284 
Q 928 806 1161 595 
Q 1394 384 1728 384 
Q 2125 384 2398 659 
Q 2672 934 2672 1341 
Q 2672 1728 2419 1979 
Q 2166 2231 1775 2231 
Q 1616 2231 1378 2169 
L 1441 2663 
Q 1497 2656 1531 2656 
Q 1891 2656 2178 2843 
Q 2466 3031 2466 3422 
Q 2466 3731 2256 3934 
Q 2047 4138 1716 4138 
Q 1388 4138 1169 3931 
Q 950 3725 888 3313 
L 325 3413 
Q 428 3978 793 4289 
Q 1159 4600 1703 4600 
Q 2078 4600 2393 4439 
Q 2709 4278 2876 4000 
Q 3044 3722 3044 3409 
Q 3044 3113 2884 2869 
Q 2725 2625 2413 2481 
Q 2819 2388 3044 2092 
Q 3269 1797 3269 1353 
Q 3269 753 2831 336 
Q 2394 -81 1725 -81 
Q 1122 -81 723 278 
Q 325 638 269 1209 
z
" transform="scale(0.015625)"/>
     </defs>
     <use xlink:href="#ArialMT-31"/>
     <use xlink:href="#ArialMT-36" x="55.615234"/>
     <use xlink:href="#ArialMT-78" x="111.230469"/>
     <use xlink:href="#ArialMT-33" x="161.230469"/>
    </g>
   </g>
  </g>
 </g>
 <defs>
  <clipPath id="p069c0624b0">
   <rect x="21.000625" y="14.589375" width="446.4" height="83.16"/>
  </clipPath>
 </defs>
</svg>
