<?xml version="1.0" encoding="utf-8" standalone="no"?>
<!DOCTYPE svg PUBLIC "-//W3C//DTD SVG 1.1//EN"
  "http://www.w3.org/Graphics/SVG/1.1/DTD/svg11.dtd">
<svg xmlns:xlink="http://www.w3.org/1999/xlink" width="461.271875pt" height="83.16pt" viewBox="0 0 461.271875 83.16" xmlns="http://www.w3.org/2000/svg" version="1.1">
 <metadata>
  <rdf:RDF xmlns:dc="http://purl.org/dc/elements/1.1/" xmlns:cc="http://creativecommons.org/ns#" xmlns:rdf="http://www.w3.org/1999/02/22-rdf-syntax-ns#">
   <cc:Work>
    <dc:type rdf:resource="http://purl.org/dc/dcmitype/StillImage"/>
    <dc:date>2024-12-20T16:58:45.145337</dc:date>
    <dc:format>image/svg+xml</dc:format>
    <dc:creator>
     <cc:Agent>
      <dc:title>Matplotlib v3.10.0, https://matplotlib.org/</dc:title>
     </cc:Agent>
    </dc:creator>
   </cc:Work>
  </rdf:RDF>
 </metadata>
 <defs>
  <style type="text/css">*{stroke-linejoin: round; stroke-linecap: butt}</style>
 </defs>
 <g id="figure_1">
  <g id="patch_1">
   <path d="M 0 83.16 
L 461.271875 83.16 
L 461.271875 0 
L 0 0 
L 0 83.16 
z
" style="fill: none"/>
  </g>
  <g id="axes_1">
   <g id="patch_2">
    <path d="M 14.871875 83.16 
L 461.271875 83.16 
L 461.271875 -0 
L 14.871875 -0 
L 14.871875 83.16 
z
" style="fill: none"/>
   </g>
   <g id="matplotlib.axis_1"/>
   <g id="matplotlib.axis_2">
    <g id="ytick_1">
     <g id="line2d_1">
      <defs>
       <path id="mc13da29ea7" d="M 0 0 
L -3.5 0 
" style="stroke: #262626; stroke-width: 0.8"/>
      </defs>
      <g>
       <use xlink:href="#mc13da29ea7" x="14.871875" y="69.3" style="fill: #262626; stroke: #262626; stroke-width: 0.8"/>
      </g>
     </g>
     <g id="text_1">
      <!-- P -->
      <g style="fill: #262626" transform="translate(1.842188 73.099219) scale(0.1 -0.1)">
       <defs>
        <path id="DejaVuSans-50" d="M 1259 4147 
L 1259 2394 
L 2053 2394 
Q 2494 2394 2734 2622 
Q 2975 2850 2975 3272 
Q 2975 3691 2734 3919 
Q 2494 4147 2053 4147 
L 1259 4147 
z
M 628 4666 
L 2053 4666 
Q 2838 4666 3239 4311 
Q 3641 3956 3641 3272 
Q 3641 2581 3239 2228 
Q 2838 1875 2053 1875 
L 1259 1875 
L 1259 0 
L 628 0 
L 628 4666 
z
" transform="scale(0.015625)"/>
       </defs>
       <use xlink:href="#DejaVuSans-50"/>
      </g>
     </g>
    </g>
    <g id="ytick_2">
     <g id="line2d_2">
      <g>
       <use xlink:href="#mc13da29ea7" x="14.871875" y="41.58" style="fill: #262626; stroke: #262626; stroke-width: 0.8"/>
      </g>
     </g>
     <g id="text_2">
      <!-- O -->
      <g style="fill: #262626" transform="translate(0 45.379219) scale(0.1 -0.1)">
       <defs>
        <path id="DejaVuSans-4f" d="M 2522 4238 
Q 1834 4238 1429 3725 
Q 1025 3213 1025 2328 
Q 1025 1447 1429 934 
Q 1834 422 2522 422 
Q 3209 422 3611 934 
Q 4013 1447 4013 2328 
Q 4013 3213 3611 3725 
Q 3209 4238 2522 4238 
z
M 2522 4750 
Q 3503 4750 4090 4092 
Q 4678 3434 4678 2328 
Q 4678 1225 4090 567 
Q 3503 -91 2522 -91 
Q 1538 -91 948 565 
Q 359 1222 359 2328 
Q 359 3434 948 4092 
Q 1538 4750 2522 4750 
z
" transform="scale(0.015625)"/>
       </defs>
       <use xlink:href="#DejaVuSans-4f"/>
      </g>
     </g>
    </g>
    <g id="ytick_3">
     <g id="line2d_3">
      <g>
       <use xlink:href="#mc13da29ea7" x="14.871875" y="13.86" style="fill: #262626; stroke: #262626; stroke-width: 0.8"/>
      </g>
     </g>
     <g id="text_3">
      <!-- C -->
      <g style="fill: #262626" transform="translate(0.889063 17.659219) scale(0.1 -0.1)">
       <defs>
        <path id="DejaVuSans-43" d="M 4122 4306 
L 4122 3641 
Q 3803 3938 3442 4084 
Q 3081 4231 2675 4231 
Q 1875 4231 1450 3742 
Q 1025 3253 1025 2328 
Q 1025 1406 1450 917 
Q 1875 428 2675 428 
Q 3081 428 3442 575 
Q 3803 722 4122 1019 
L 4122 359 
Q 3791 134 3420 21 
Q 3050 -91 2638 -91 
Q 1578 -91 968 557 
Q 359 1206 359 2328 
Q 359 3453 968 4101 
Q 1578 4750 2638 4750 
Q 3056 4750 3426 4639 
Q 3797 4528 4122 4306 
z
" transform="scale(0.015625)"/>
       </defs>
       <use xlink:href="#DejaVuSans-43"/>
      </g>
     </g>
    </g>
   </g>
   <g id="patch_3">
    <path d="M 14.871875 27.72 
L 42.771875 27.72 
L 42.771875 -0 
L 14.871875 -0 
z
" clip-path="url(#p5c021643ea)" style="fill: #ffffff; stroke: #ffffff; stroke-linejoin: miter"/>
   </g>
   <g id="patch_4">
    <path d="M 14.871875 55.44 
L 42.771875 55.44 
L 42.771875 27.72 
L 14.871875 27.72 
z
" clip-path="url(#p5c021643ea)" style="fill: #dfaf0e; stroke: #ffffff; stroke-linejoin: miter"/>
   </g>
   <g id="patch_5">
    <path d="M 14.871875 83.16 
L 42.771875 83.16 
L 42.771875 55.44 
L 14.871875 55.44 
z
" clip-path="url(#p5c021643ea)" style="fill: #ffffff; stroke: #ffffff; stroke-linejoin: miter"/>
   </g>
   <g id="patch_6">
    <path d="M 42.771875 27.72 
L 70.671875 27.72 
L 70.671875 -0 
L 42.771875 -0 
z
" clip-path="url(#p5c021643ea)" style="fill: #fdd123; stroke: #ffffff; stroke-linejoin: miter"/>
   </g>
   <g id="patch_7">
    <path d="M 42.771875 55.44 
L 70.671875 55.44 
L 70.671875 27.72 
L 42.771875 27.72 
z
" clip-path="url(#p5c021643ea)" style="fill: #ffffff; stroke: #ffffff; stroke-linejoin: miter"/>
   </g>
   <g id="patch_8">
    <path d="M 42.771875 83.16 
L 70.671875 83.16 
L 70.671875 55.44 
L 42.771875 55.44 
z
" clip-path="url(#p5c021643ea)" style="fill: #ffffff; stroke: #ffffff; stroke-linejoin: miter"/>
   </g>
   <g id="patch_9">
    <path d="M 70.671875 27.72 
L 98.571875 27.72 
L 98.571875 -0 
L 70.671875 -0 
z
" clip-path="url(#p5c021643ea)" style="fill: #fdd123; stroke: #ffffff; stroke-linejoin: miter"/>
   </g>
   <g id="patch_10">
    <path d="M 70.671875 55.44 
L 98.571875 55.44 
L 98.571875 27.72 
L 70.671875 27.72 
z
" clip-path="url(#p5c021643ea)" style="fill: #ffffff; stroke: #ffffff; stroke-linejoin: miter"/>
   </g>
   <g id="patch_11">
    <path d="M 70.671875 83.16 
L 98.571875 83.16 
L 98.571875 55.44 
L 70.671875 55.44 
z
" clip-path="url(#p5c021643ea)" style="fill: #ffffff; stroke: #ffffff; stroke-linejoin: miter"/>
   </g>
   <g id="patch_12">
    <path d="M 98.571875 27.72 
L 126.471875 27.72 
L 126.471875 -0 
L 98.571875 -0 
z
" clip-path="url(#p5c021643ea)" style="fill: #ffffff; stroke: #ffffff; stroke-linejoin: miter"/>
   </g>
   <g id="patch_13">
    <path d="M 98.571875 55.44 
L 126.471875 55.44 
L 126.471875 27.72 
L 98.571875 27.72 
z
" clip-path="url(#p5c021643ea)" style="fill: #dfaf0e; stroke: #ffffff; stroke-linejoin: miter"/>
   </g>
   <g id="patch_14">
    <path d="M 98.571875 83.16 
L 126.471875 83.16 
L 126.471875 55.44 
L 98.571875 55.44 
z
" clip-path="url(#p5c021643ea)" style="fill: #ffffff; stroke: #ffffff; stroke-linejoin: miter"/>
   </g>
   <g id="patch_15">
    <path d="M 126.471875 27.72 
L 154.371875 27.72 
L 154.371875 -0 
L 126.471875 -0 
z
" clip-path="url(#p5c021643ea)" style="fill: #fdd123; stroke: #ffffff; stroke-linejoin: miter"/>
   </g>
   <g id="patch_16">
    <path d="M 126.471875 55.44 
L 154.371875 55.44 
L 154.371875 27.72 
L 126.471875 27.72 
z
" clip-path="url(#p5c021643ea)" style="fill: #ffffff; stroke: #ffffff; stroke-linejoin: miter"/>
   </g>
   <g id="patch_17">
    <path d="M 126.471875 83.16 
L 154.371875 83.16 
L 154.371875 55.44 
L 126.471875 55.44 
z
" clip-path="url(#p5c021643ea)" style="fill: #ffffff; stroke: #ffffff; stroke-linejoin: miter"/>
   </g>
   <g id="patch_18">
    <path d="M 154.371875 27.72 
L 182.271875 27.72 
L 182.271875 -0 
L 154.371875 -0 
z
" clip-path="url(#p5c021643ea)" style="fill: #fdd123; stroke: #ffffff; stroke-linejoin: miter"/>
   </g>
   <g id="patch_19">
    <path d="M 154.371875 55.44 
L 182.271875 55.44 
L 182.271875 27.72 
L 154.371875 27.72 
z
" clip-path="url(#p5c021643ea)" style="fill: #ffffff; stroke: #ffffff; stroke-linejoin: miter"/>
   </g>
   <g id="patch_20">
    <path d="M 154.371875 83.16 
L 182.271875 83.16 
L 182.271875 55.44 
L 154.371875 55.44 
z
" clip-path="url(#p5c021643ea)" style="fill: #ffffff; stroke: #ffffff; stroke-linejoin: miter"/>
   </g>
   <g id="patch_21">
    <path d="M 182.271875 27.72 
L 210.171875 27.72 
L 210.171875 -0 
L 182.271875 -0 
z
" clip-path="url(#p5c021643ea)" style="fill: #ffffff; stroke: #ffffff; stroke-linejoin: miter"/>
   </g>
   <g id="patch_22">
    <path d="M 182.271875 55.44 
L 210.171875 55.44 
L 210.171875 27.72 
L 182.271875 27.72 
z
" clip-path="url(#p5c021643ea)" style="fill: #dfaf0e; stroke: #ffffff; stroke-linejoin: miter"/>
   </g>
   <g id="patch_23">
    <path d="M 182.271875 83.16 
L 210.171875 83.16 
L 210.171875 55.44 
L 182.271875 55.44 
z
" clip-path="url(#p5c021643ea)" style="fill: #ffffff; stroke: #ffffff; stroke-linejoin: miter"/>
   </g>
   <g id="patch_24">
    <path d="M 210.171875 27.72 
L 238.071875 27.72 
L 238.071875 -0 
L 210.171875 -0 
z
" clip-path="url(#p5c021643ea)" style="fill: #ffffff; stroke: #ffffff; stroke-linejoin: miter"/>
   </g>
   <g id="patch_25">
    <path d="M 210.171875 55.44 
L 238.071875 55.44 
L 238.071875 27.72 
L 210.171875 27.72 
z
" clip-path="url(#p5c021643ea)" style="fill: #ffffff; stroke: #ffffff; stroke-linejoin: miter"/>
   </g>
   <g id="patch_26">
    <path d="M 210.171875 83.16 
L 238.071875 83.16 
L 238.071875 55.44 
L 210.171875 55.44 
z
" clip-path="url(#p5c021643ea)" style="fill: #ffdd54; stroke: #ffffff; stroke-linejoin: miter"/>
   </g>
   <g id="patch_27">
    <path d="M 238.071875 27.72 
L 265.971875 27.72 
L 265.971875 -0 
L 238.071875 -0 
z
" clip-path="url(#p5c021643ea)" style="fill: #ffffff; stroke: #ffffff; stroke-linejoin: miter"/>
   </g>
   <g id="patch_28">
    <path d="M 238.071875 55.44 
L 265.971875 55.44 
L 265.971875 27.72 
L 238.071875 27.72 
z
" clip-path="url(#p5c021643ea)" style="fill: #dfaf0e; stroke: #ffffff; stroke-linejoin: miter"/>
   </g>
   <g id="patch_29">
    <path d="M 238.071875 83.16 
L 265.971875 83.16 
L 265.971875 55.44 
L 238.071875 55.44 
z
" clip-path="url(#p5c021643ea)" style="fill: #ffffff; stroke: #ffffff; stroke-linejoin: miter"/>
   </g>
   <g id="patch_30">
    <path d="M 265.971875 27.72 
L 293.871875 27.72 
L 293.871875 -0 
L 265.971875 -0 
z
" clip-path="url(#p5c021643ea)" style="fill: #ffffff; stroke: #ffffff; stroke-linejoin: miter"/>
   </g>
   <g id="patch_31">
    <path d="M 265.971875 55.44 
L 293.871875 55.44 
L 293.871875 27.72 
L 265.971875 27.72 
z
" clip-path="url(#p5c021643ea)" style="fill: #dfaf0e; stroke: #ffffff; stroke-linejoin: miter"/>
   </g>
   <g id="patch_32">
    <path d="M 265.971875 83.16 
L 293.871875 83.16 
L 293.871875 55.44 
L 265.971875 55.44 
z
" clip-path="url(#p5c021643ea)" style="fill: #ffffff; stroke: #ffffff; stroke-linejoin: miter"/>
   </g>
   <g id="patch_33">
    <path d="M 293.871875 27.72 
L 321.771875 27.72 
L 321.771875 -0 
L 293.871875 -0 
z
" clip-path="url(#p5c021643ea)" style="fill: #ffffff; stroke: #ffffff; stroke-linejoin: miter"/>
   </g>
   <g id="patch_34">
    <path d="M 293.871875 55.44 
L 321.771875 55.44 
L 321.771875 27.72 
L 293.871875 27.72 
z
" clip-path="url(#p5c021643ea)" style="fill: #dfaf0e; stroke: #ffffff; stroke-linejoin: miter"/>
   </g>
   <g id="patch_35">
    <path d="M 293.871875 83.16 
L 321.771875 83.16 
L 321.771875 55.44 
L 293.871875 55.44 
z
" clip-path="url(#p5c021643ea)" style="fill: #ffffff; stroke: #ffffff; stroke-linejoin: miter"/>
   </g>
   <g id="patch_36">
    <path d="M 321.771875 27.72 
L 349.671875 27.72 
L 349.671875 -0 
L 321.771875 -0 
z
" clip-path="url(#p5c021643ea)" style="fill: #ffffff; stroke: #ffffff; stroke-linejoin: miter"/>
   </g>
   <g id="patch_37">
    <path d="M 321.771875 55.44 
L 349.671875 55.44 
L 349.671875 27.72 
L 321.771875 27.72 
z
" clip-path="url(#p5c021643ea)" style="fill: #dfaf0e; stroke: #ffffff; stroke-linejoin: miter"/>
   </g>
   <g id="patch_38">
    <path d="M 321.771875 83.16 
L 349.671875 83.16 
L 349.671875 55.44 
L 321.771875 55.44 
z
" clip-path="url(#p5c021643ea)" style="fill: #ffffff; stroke: #ffffff; stroke-linejoin: miter"/>
   </g>
   <g id="patch_39">
    <path d="M 349.671875 27.72 
L 377.571875 27.72 
L 377.571875 -0 
L 349.671875 -0 
z
" clip-path="url(#p5c021643ea)" style="fill: #fdd123; stroke: #ffffff; stroke-linejoin: miter"/>
   </g>
   <g id="patch_40">
    <path d="M 349.671875 55.44 
L 377.571875 55.44 
L 377.571875 27.72 
L 349.671875 27.72 
z
" clip-path="url(#p5c021643ea)" style="fill: #ffffff; stroke: #ffffff; stroke-linejoin: miter"/>
   </g>
   <g id="patch_41">
    <path d="M 349.671875 83.16 
L 377.571875 83.16 
L 377.571875 55.44 
L 349.671875 55.44 
z
" clip-path="url(#p5c021643ea)" style="fill: #ffffff; stroke: #ffffff; stroke-linejoin: miter"/>
   </g>
   <g id="patch_42">
    <path d="M 377.571875 27.72 
L 405.471875 27.72 
L 405.471875 -0 
L 377.571875 -0 
z
" clip-path="url(#p5c021643ea)" style="fill: #ffffff; stroke: #ffffff; stroke-linejoin: miter"/>
   </g>
   <g id="patch_43">
    <path d="M 377.571875 55.44 
L 405.471875 55.44 
L 405.471875 27.72 
L 377.571875 27.72 
z
" clip-path="url(#p5c021643ea)" style="fill: #dfaf0e; stroke: #ffffff; stroke-linejoin: miter"/>
   </g>
   <g id="patch_44">
    <path d="M 377.571875 83.16 
L 405.471875 83.16 
L 405.471875 55.44 
L 377.571875 55.44 
z
" clip-path="url(#p5c021643ea)" style="fill: #ffffff; stroke: #ffffff; stroke-linejoin: miter"/>
   </g>
   <g id="patch_45">
    <path d="M 405.471875 27.72 
L 433.371875 27.72 
L 433.371875 -0 
L 405.471875 -0 
z
" clip-path="url(#p5c021643ea)" style="fill: #fdd123; stroke: #ffffff; stroke-linejoin: miter"/>
   </g>
   <g id="patch_46">
    <path d="M 405.471875 55.44 
L 433.371875 55.44 
L 433.371875 27.72 
L 405.471875 27.72 
z
" clip-path="url(#p5c021643ea)" style="fill: #ffffff; stroke: #ffffff; stroke-linejoin: miter"/>
   </g>
   <g id="patch_47">
    <path d="M 405.471875 83.16 
L 433.371875 83.16 
L 433.371875 55.44 
L 405.471875 55.44 
z
" clip-path="url(#p5c021643ea)" style="fill: #ffffff; stroke: #ffffff; stroke-linejoin: miter"/>
   </g>
   <g id="patch_48">
    <path d="M 433.371875 27.72 
L 461.271875 27.72 
L 461.271875 -0 
L 433.371875 -0 
z
" clip-path="url(#p5c021643ea)" style="fill: #ffffff; stroke: #ffffff; stroke-linejoin: miter"/>
   </g>
   <g id="patch_49">
    <path d="M 433.371875 55.44 
L 461.271875 55.44 
L 461.271875 27.72 
L 433.371875 27.72 
z
" clip-path="url(#p5c021643ea)" style="fill: #dfaf0e; stroke: #ffffff; stroke-linejoin: miter"/>
   </g>
   <g id="patch_50">
    <path d="M 433.371875 83.16 
L 461.271875 83.16 
L 461.271875 55.44 
L 433.371875 55.44 
z
" clip-path="url(#p5c021643ea)" style="fill: #ffffff; stroke: #ffffff; stroke-linejoin: miter"/>
   </g>
   <g id="patch_51">
    <path d="M 14.871875 83.16 
L 14.871875 -0 
" style="fill: none; stroke: #fdc523; stroke-width: 2; stroke-linejoin: miter; stroke-linecap: square"/>
   </g>
   <g id="patch_52">
    <path d="M 461.271875 83.16 
L 461.271875 -0 
" style="fill: none; stroke: #fdc523; stroke-width: 2; stroke-linejoin: miter; stroke-linecap: square"/>
   </g>
   <g id="patch_53">
    <path d="M 14.871875 83.16 
L 461.271875 83.16 
" style="fill: none; stroke: #fdc523; stroke-width: 2; stroke-linejoin: miter; stroke-linecap: square"/>
   </g>
   <g id="patch_54">
    <path d="M 14.871875 -0 
L 461.271875 -0 
" style="fill: none; stroke: #fdc523; stroke-width: 2; stroke-linejoin: miter; stroke-linecap: square"/>
   </g>
  </g>
 </g>
 <defs>
  <clipPath id="p5c021643ea">
   <rect x="14.871875" y="-0" width="446.4" height="83.16"/>
  </clipPath>
 </defs>
</svg>
