<?xml version="1.0" encoding="utf-8" standalone="no"?>
<!DOCTYPE svg PUBLIC "-//W3C//DTD SVG 1.1//EN"
  "http://www.w3.org/Graphics/SVG/1.1/DTD/svg11.dtd">
<svg xmlns:xlink="http://www.w3.org/1999/xlink" width="473.419375pt" height="462.404062pt" viewBox="0 0 473.419375 462.404062" xmlns="http://www.w3.org/2000/svg" version="1.1">
 <metadata>
  <rdf:RDF xmlns:dc="http://purl.org/dc/elements/1.1/" xmlns:cc="http://creativecommons.org/ns#" xmlns:rdf="http://www.w3.org/1999/02/22-rdf-syntax-ns#">
   <cc:Work>
    <dc:type rdf:resource="http://purl.org/dc/dcmitype/StillImage"/>
    <dc:date>2024-12-20T17:02:49.868220</dc:date>
    <dc:format>image/svg+xml</dc:format>
    <dc:creator>
     <cc:Agent>
      <dc:title>Matplotlib v3.9.2, https://matplotlib.org/</dc:title>
     </cc:Agent>
    </dc:creator>
   </cc:Work>
  </rdf:RDF>
 </metadata>
 <defs>
  <style type="text/css">*{stroke-linejoin: round; stroke-linecap: butt}</style>
 </defs>
 <g id="figure_1">
  <g id="patch_1">
   <path d="M 0 462.404062 
L 473.419375 462.404062 
L 473.419375 0 
L 0 0 
L 0 462.404062 
z
" style="fill: none"/>
  </g>
  <g id="axes_1">
   <g id="patch_2">
    <path d="M 27.019375 462.404062 
L 473.419375 462.404062 
L 473.419375 18.884062 
L 27.019375 18.884062 
L 27.019375 462.404062 
z
" style="fill: none"/>
   </g>
   <g id="matplotlib.axis_1"/>
   <g id="matplotlib.axis_2">
    <g id="ytick_1">
     <g id="line2d_1">
      <defs>
       <path id="m4b6c2c1d96" d="M 0 0 
L -3.5 0 
" style="stroke: #262626; stroke-width: 0.8"/>
      </defs>
      <g>
       <use xlink:href="#m4b6c2c1d96" x="27.019375" y="448.544062" style="fill: #262626; stroke: #262626; stroke-width: 0.8"/>
      </g>
     </g>
     <g id="text_1">
      <!-- 15 -->
      <g style="fill: #262626" transform="translate(0 454.986094) scale(0.18 -0.18)">
       <defs>
        <path id="ArialMT-31" d="M 2384 0 
L 1822 0 
L 1822 3584 
Q 1619 3391 1289 3197 
Q 959 3003 697 2906 
L 697 3450 
Q 1169 3672 1522 3987 
Q 1875 4303 2022 4600 
L 2384 4600 
L 2384 0 
z
" transform="scale(0.015625)"/>
        <path id="ArialMT-35" d="M 266 1200 
L 856 1250 
Q 922 819 1161 601 
Q 1400 384 1738 384 
Q 2144 384 2425 690 
Q 2706 997 2706 1503 
Q 2706 1984 2436 2262 
Q 2166 2541 1728 2541 
Q 1456 2541 1237 2417 
Q 1019 2294 894 2097 
L 366 2166 
L 809 4519 
L 3088 4519 
L 3088 3981 
L 1259 3981 
L 1013 2750 
Q 1425 3038 1878 3038 
Q 2478 3038 2890 2622 
Q 3303 2206 3303 1553 
Q 3303 931 2941 478 
Q 2500 -78 1738 -78 
Q 1113 -78 717 272 
Q 322 622 266 1200 
z
" transform="scale(0.015625)"/>
       </defs>
       <use xlink:href="#ArialMT-31"/>
       <use xlink:href="#ArialMT-35" x="55.615234"/>
      </g>
     </g>
    </g>
    <g id="ytick_2">
     <g id="line2d_2">
      <g>
       <use xlink:href="#m4b6c2c1d96" x="27.019375" y="420.824062" style="fill: #262626; stroke: #262626; stroke-width: 0.8"/>
      </g>
     </g>
     <g id="text_2">
      <!-- 14 -->
      <g style="fill: #262626" transform="translate(0 427.266094) scale(0.18 -0.18)">
       <defs>
        <path id="ArialMT-34" d="M 2069 0 
L 2069 1097 
L 81 1097 
L 81 1613 
L 2172 4581 
L 2631 4581 
L 2631 1613 
L 3250 1613 
L 3250 1097 
L 2631 1097 
L 2631 0 
L 2069 0 
z
M 2069 1613 
L 2069 3678 
L 634 1613 
L 2069 1613 
z
" transform="scale(0.015625)"/>
       </defs>
       <use xlink:href="#ArialMT-31"/>
       <use xlink:href="#ArialMT-34" x="55.615234"/>
      </g>
     </g>
    </g>
    <g id="ytick_3">
     <g id="line2d_3">
      <g>
       <use xlink:href="#m4b6c2c1d96" x="27.019375" y="393.104062" style="fill: #262626; stroke: #262626; stroke-width: 0.8"/>
      </g>
     </g>
     <g id="text_3">
      <!-- 13 -->
      <g style="fill: #262626" transform="translate(0 399.546094) scale(0.18 -0.18)">
       <defs>
        <path id="ArialMT-33" d="M 269 1209 
L 831 1284 
Q 928 806 1161 595 
Q 1394 384 1728 384 
Q 2125 384 2398 659 
Q 2672 934 2672 1341 
Q 2672 1728 2419 1979 
Q 2166 2231 1775 2231 
Q 1616 2231 1378 2169 
L 1441 2663 
Q 1497 2656 1531 2656 
Q 1891 2656 2178 2843 
Q 2466 3031 2466 3422 
Q 2466 3731 2256 3934 
Q 2047 4138 1716 4138 
Q 1388 4138 1169 3931 
Q 950 3725 888 3313 
L 325 3413 
Q 428 3978 793 4289 
Q 1159 4600 1703 4600 
Q 2078 4600 2393 4439 
Q 2709 4278 2876 4000 
Q 3044 3722 3044 3409 
Q 3044 3113 2884 2869 
Q 2725 2625 2413 2481 
Q 2819 2388 3044 2092 
Q 3269 1797 3269 1353 
Q 3269 753 2831 336 
Q 2394 -81 1725 -81 
Q 1122 -81 723 278 
Q 325 638 269 1209 
z
" transform="scale(0.015625)"/>
       </defs>
       <use xlink:href="#ArialMT-31"/>
       <use xlink:href="#ArialMT-33" x="55.615234"/>
      </g>
     </g>
    </g>
    <g id="ytick_4">
     <g id="line2d_4">
      <g>
       <use xlink:href="#m4b6c2c1d96" x="27.019375" y="365.384062" style="fill: #262626; stroke: #262626; stroke-width: 0.8"/>
      </g>
     </g>
     <g id="text_4">
      <!-- 12 -->
      <g style="fill: #262626" transform="translate(0 371.826094) scale(0.18 -0.18)">
       <defs>
        <path id="ArialMT-32" d="M 3222 541 
L 3222 0 
L 194 0 
Q 188 203 259 391 
Q 375 700 629 1000 
Q 884 1300 1366 1694 
Q 2113 2306 2375 2664 
Q 2638 3022 2638 3341 
Q 2638 3675 2398 3904 
Q 2159 4134 1775 4134 
Q 1369 4134 1125 3890 
Q 881 3647 878 3216 
L 300 3275 
Q 359 3922 746 4261 
Q 1134 4600 1788 4600 
Q 2447 4600 2831 4234 
Q 3216 3869 3216 3328 
Q 3216 3053 3103 2787 
Q 2991 2522 2730 2228 
Q 2469 1934 1863 1422 
Q 1356 997 1212 845 
Q 1069 694 975 541 
L 3222 541 
z
" transform="scale(0.015625)"/>
       </defs>
       <use xlink:href="#ArialMT-31"/>
       <use xlink:href="#ArialMT-32" x="55.615234"/>
      </g>
     </g>
    </g>
    <g id="ytick_5">
     <g id="line2d_5">
      <g>
       <use xlink:href="#m4b6c2c1d96" x="27.019375" y="337.664062" style="fill: #262626; stroke: #262626; stroke-width: 0.8"/>
      </g>
     </g>
     <g id="text_5">
      <!-- 11 -->
      <g style="fill: #262626" transform="translate(1.3275 344.106094) scale(0.18 -0.18)">
       <use xlink:href="#ArialMT-31"/>
       <use xlink:href="#ArialMT-31" x="48.240234"/>
      </g>
     </g>
    </g>
    <g id="ytick_6">
     <g id="line2d_6">
      <g>
       <use xlink:href="#m4b6c2c1d96" x="27.019375" y="309.944062" style="fill: #262626; stroke: #262626; stroke-width: 0.8"/>
      </g>
     </g>
     <g id="text_6">
      <!-- 10 -->
      <g style="fill: #262626" transform="translate(0 316.386094) scale(0.18 -0.18)">
       <defs>
        <path id="ArialMT-30" d="M 266 2259 
Q 266 3072 433 3567 
Q 600 4063 929 4331 
Q 1259 4600 1759 4600 
Q 2128 4600 2406 4451 
Q 2684 4303 2865 4023 
Q 3047 3744 3150 3342 
Q 3253 2941 3253 2259 
Q 3253 1453 3087 958 
Q 2922 463 2592 192 
Q 2263 -78 1759 -78 
Q 1097 -78 719 397 
Q 266 969 266 2259 
z
M 844 2259 
Q 844 1131 1108 757 
Q 1372 384 1759 384 
Q 2147 384 2411 759 
Q 2675 1134 2675 2259 
Q 2675 3391 2411 3762 
Q 2147 4134 1753 4134 
Q 1366 4134 1134 3806 
Q 844 3388 844 2259 
z
" transform="scale(0.015625)"/>
       </defs>
       <use xlink:href="#ArialMT-31"/>
       <use xlink:href="#ArialMT-30" x="55.615234"/>
      </g>
     </g>
    </g>
    <g id="ytick_7">
     <g id="line2d_7">
      <g>
       <use xlink:href="#m4b6c2c1d96" x="27.019375" y="282.224062" style="fill: #262626; stroke: #262626; stroke-width: 0.8"/>
      </g>
     </g>
     <g id="text_7">
      <!-- 9 -->
      <g style="fill: #262626" transform="translate(10.009688 288.666094) scale(0.18 -0.18)">
       <defs>
        <path id="ArialMT-39" d="M 350 1059 
L 891 1109 
Q 959 728 1153 556 
Q 1347 384 1650 384 
Q 1909 384 2104 503 
Q 2300 622 2425 820 
Q 2550 1019 2634 1356 
Q 2719 1694 2719 2044 
Q 2719 2081 2716 2156 
Q 2547 1888 2255 1720 
Q 1963 1553 1622 1553 
Q 1053 1553 659 1965 
Q 266 2378 266 3053 
Q 266 3750 677 4175 
Q 1088 4600 1706 4600 
Q 2153 4600 2523 4359 
Q 2894 4119 3086 3673 
Q 3278 3228 3278 2384 
Q 3278 1506 3087 986 
Q 2897 466 2520 194 
Q 2144 -78 1638 -78 
Q 1100 -78 759 220 
Q 419 519 350 1059 
z
M 2653 3081 
Q 2653 3566 2395 3850 
Q 2138 4134 1775 4134 
Q 1400 4134 1122 3828 
Q 844 3522 844 3034 
Q 844 2597 1108 2323 
Q 1372 2050 1759 2050 
Q 2150 2050 2401 2323 
Q 2653 2597 2653 3081 
z
" transform="scale(0.015625)"/>
       </defs>
       <use xlink:href="#ArialMT-39"/>
      </g>
     </g>
    </g>
    <g id="ytick_8">
     <g id="line2d_8">
      <g>
       <use xlink:href="#m4b6c2c1d96" x="27.019375" y="254.504062" style="fill: #262626; stroke: #262626; stroke-width: 0.8"/>
      </g>
     </g>
     <g id="text_8">
      <!-- 8 -->
      <g style="fill: #262626" transform="translate(10.009688 260.946094) scale(0.18 -0.18)">
       <defs>
        <path id="ArialMT-38" d="M 1131 2484 
Q 781 2613 612 2850 
Q 444 3088 444 3419 
Q 444 3919 803 4259 
Q 1163 4600 1759 4600 
Q 2359 4600 2725 4251 
Q 3091 3903 3091 3403 
Q 3091 3084 2923 2848 
Q 2756 2613 2416 2484 
Q 2838 2347 3058 2040 
Q 3278 1734 3278 1309 
Q 3278 722 2862 322 
Q 2447 -78 1769 -78 
Q 1091 -78 675 323 
Q 259 725 259 1325 
Q 259 1772 486 2073 
Q 713 2375 1131 2484 
z
M 1019 3438 
Q 1019 3113 1228 2906 
Q 1438 2700 1772 2700 
Q 2097 2700 2305 2904 
Q 2513 3109 2513 3406 
Q 2513 3716 2298 3927 
Q 2084 4138 1766 4138 
Q 1444 4138 1231 3931 
Q 1019 3725 1019 3438 
z
M 838 1322 
Q 838 1081 952 856 
Q 1066 631 1291 507 
Q 1516 384 1775 384 
Q 2178 384 2440 643 
Q 2703 903 2703 1303 
Q 2703 1709 2433 1975 
Q 2163 2241 1756 2241 
Q 1359 2241 1098 1978 
Q 838 1716 838 1322 
z
" transform="scale(0.015625)"/>
       </defs>
       <use xlink:href="#ArialMT-38"/>
      </g>
     </g>
    </g>
    <g id="ytick_9">
     <g id="line2d_9">
      <g>
       <use xlink:href="#m4b6c2c1d96" x="27.019375" y="226.784062" style="fill: #262626; stroke: #262626; stroke-width: 0.8"/>
      </g>
     </g>
     <g id="text_9">
      <!-- 7 -->
      <g style="fill: #262626" transform="translate(10.009688 233.226094) scale(0.18 -0.18)">
       <defs>
        <path id="ArialMT-37" d="M 303 3981 
L 303 4522 
L 3269 4522 
L 3269 4084 
Q 2831 3619 2401 2847 
Q 1972 2075 1738 1259 
Q 1569 684 1522 0 
L 944 0 
Q 953 541 1156 1306 
Q 1359 2072 1739 2783 
Q 2119 3494 2547 3981 
L 303 3981 
z
" transform="scale(0.015625)"/>
       </defs>
       <use xlink:href="#ArialMT-37"/>
      </g>
     </g>
    </g>
    <g id="ytick_10">
     <g id="line2d_10">
      <g>
       <use xlink:href="#m4b6c2c1d96" x="27.019375" y="199.064062" style="fill: #262626; stroke: #262626; stroke-width: 0.8"/>
      </g>
     </g>
     <g id="text_10">
      <!-- 6 -->
      <g style="fill: #262626" transform="translate(10.009688 205.506094) scale(0.18 -0.18)">
       <defs>
        <path id="ArialMT-36" d="M 3184 3459 
L 2625 3416 
Q 2550 3747 2413 3897 
Q 2184 4138 1850 4138 
Q 1581 4138 1378 3988 
Q 1113 3794 959 3422 
Q 806 3050 800 2363 
Q 1003 2672 1297 2822 
Q 1591 2972 1913 2972 
Q 2475 2972 2870 2558 
Q 3266 2144 3266 1488 
Q 3266 1056 3080 686 
Q 2894 316 2569 119 
Q 2244 -78 1831 -78 
Q 1128 -78 684 439 
Q 241 956 241 2144 
Q 241 3472 731 4075 
Q 1159 4600 1884 4600 
Q 2425 4600 2770 4297 
Q 3116 3994 3184 3459 
z
M 888 1484 
Q 888 1194 1011 928 
Q 1134 663 1356 523 
Q 1578 384 1822 384 
Q 2178 384 2434 671 
Q 2691 959 2691 1453 
Q 2691 1928 2437 2201 
Q 2184 2475 1800 2475 
Q 1419 2475 1153 2201 
Q 888 1928 888 1484 
z
" transform="scale(0.015625)"/>
       </defs>
       <use xlink:href="#ArialMT-36"/>
      </g>
     </g>
    </g>
    <g id="ytick_11">
     <g id="line2d_11">
      <g>
       <use xlink:href="#m4b6c2c1d96" x="27.019375" y="171.344062" style="fill: #262626; stroke: #262626; stroke-width: 0.8"/>
      </g>
     </g>
     <g id="text_11">
      <!-- 5 -->
      <g style="fill: #262626" transform="translate(10.009688 177.786094) scale(0.18 -0.18)">
       <use xlink:href="#ArialMT-35"/>
      </g>
     </g>
    </g>
    <g id="ytick_12">
     <g id="line2d_12">
      <g>
       <use xlink:href="#m4b6c2c1d96" x="27.019375" y="143.624062" style="fill: #262626; stroke: #262626; stroke-width: 0.8"/>
      </g>
     </g>
     <g id="text_12">
      <!-- 4 -->
      <g style="fill: #262626" transform="translate(10.009688 150.066094) scale(0.18 -0.18)">
       <use xlink:href="#ArialMT-34"/>
      </g>
     </g>
    </g>
    <g id="ytick_13">
     <g id="line2d_13">
      <g>
       <use xlink:href="#m4b6c2c1d96" x="27.019375" y="115.904062" style="fill: #262626; stroke: #262626; stroke-width: 0.8"/>
      </g>
     </g>
     <g id="text_13">
      <!-- 3 -->
      <g style="fill: #262626" transform="translate(10.009688 122.346094) scale(0.18 -0.18)">
       <use xlink:href="#ArialMT-33"/>
      </g>
     </g>
    </g>
    <g id="ytick_14">
     <g id="line2d_14">
      <g>
       <use xlink:href="#m4b6c2c1d96" x="27.019375" y="88.184062" style="fill: #262626; stroke: #262626; stroke-width: 0.8"/>
      </g>
     </g>
     <g id="text_14">
      <!-- 2 -->
      <g style="fill: #262626" transform="translate(10.009688 94.626094) scale(0.18 -0.18)">
       <use xlink:href="#ArialMT-32"/>
      </g>
     </g>
    </g>
    <g id="ytick_15">
     <g id="line2d_15">
      <g>
       <use xlink:href="#m4b6c2c1d96" x="27.019375" y="60.464062" style="fill: #262626; stroke: #262626; stroke-width: 0.8"/>
      </g>
     </g>
     <g id="text_15">
      <!-- 1 -->
      <g style="fill: #262626" transform="translate(10.009688 66.906094) scale(0.18 -0.18)">
       <use xlink:href="#ArialMT-31"/>
      </g>
     </g>
    </g>
    <g id="ytick_16">
     <g id="line2d_16">
      <g>
       <use xlink:href="#m4b6c2c1d96" x="27.019375" y="32.744062" style="fill: #262626; stroke: #262626; stroke-width: 0.8"/>
      </g>
     </g>
     <g id="text_16">
      <!-- 0 -->
      <g style="fill: #262626" transform="translate(10.009688 39.186094) scale(0.18 -0.18)">
       <use xlink:href="#ArialMT-30"/>
      </g>
     </g>
    </g>
   </g>
   <g id="patch_3">
    <path d="M 27.019375 46.604062 
L 54.919375 46.604062 
L 54.919375 18.884062 
L 27.019375 18.884062 
z
" clip-path="url(#pec415d40c6)" style="fill: #ffffff; stroke: #ffffff; stroke-linejoin: miter"/>
   </g>
   <g id="patch_4">
    <path d="M 27.019375 74.324062 
L 54.919375 74.324062 
L 54.919375 46.604062 
L 27.019375 46.604062 
z
" clip-path="url(#pec415d40c6)" style="fill: #a6d854; stroke: #ffffff; stroke-linejoin: miter"/>
   </g>
   <g id="patch_5">
    <path d="M 27.019375 102.044062 
L 54.919375 102.044062 
L 54.919375 74.324062 
L 27.019375 74.324062 
z
" clip-path="url(#pec415d40c6)" style="fill: #ffffff; stroke: #ffffff; stroke-linejoin: miter"/>
   </g>
   <g id="patch_6">
    <path d="M 27.019375 129.764062 
L 54.919375 129.764062 
L 54.919375 102.044062 
L 27.019375 102.044062 
z
" clip-path="url(#pec415d40c6)" style="fill: #ffffff; stroke: #ffffff; stroke-linejoin: miter"/>
   </g>
   <g id="patch_7">
    <path d="M 27.019375 157.484062 
L 54.919375 157.484062 
L 54.919375 129.764062 
L 27.019375 129.764062 
z
" clip-path="url(#pec415d40c6)" style="fill: #ffffff; stroke: #ffffff; stroke-linejoin: miter"/>
   </g>
   <g id="patch_8">
    <path d="M 27.019375 185.204062 
L 54.919375 185.204062 
L 54.919375 157.484062 
L 27.019375 157.484062 
z
" clip-path="url(#pec415d40c6)" style="fill: #ffffff; stroke: #ffffff; stroke-linejoin: miter"/>
   </g>
   <g id="patch_9">
    <path d="M 27.019375 212.924062 
L 54.919375 212.924062 
L 54.919375 185.204062 
L 27.019375 185.204062 
z
" clip-path="url(#pec415d40c6)" style="fill: #ffffff; stroke: #ffffff; stroke-linejoin: miter"/>
   </g>
   <g id="patch_10">
    <path d="M 27.019375 240.644062 
L 54.919375 240.644062 
L 54.919375 212.924062 
L 27.019375 212.924062 
z
" clip-path="url(#pec415d40c6)" style="fill: #ffffff; stroke: #ffffff; stroke-linejoin: miter"/>
   </g>
   <g id="patch_11">
    <path d="M 27.019375 268.364062 
L 54.919375 268.364062 
L 54.919375 240.644062 
L 27.019375 240.644062 
z
" clip-path="url(#pec415d40c6)" style="fill: #ffffff; stroke: #ffffff; stroke-linejoin: miter"/>
   </g>
   <g id="patch_12">
    <path d="M 27.019375 296.084062 
L 54.919375 296.084062 
L 54.919375 268.364062 
L 27.019375 268.364062 
z
" clip-path="url(#pec415d40c6)" style="fill: #ffffff; stroke: #ffffff; stroke-linejoin: miter"/>
   </g>
   <g id="patch_13">
    <path d="M 27.019375 323.804062 
L 54.919375 323.804062 
L 54.919375 296.084062 
L 27.019375 296.084062 
z
" clip-path="url(#pec415d40c6)" style="fill: #ffffff; stroke: #ffffff; stroke-linejoin: miter"/>
   </g>
   <g id="patch_14">
    <path d="M 27.019375 351.524062 
L 54.919375 351.524062 
L 54.919375 323.804062 
L 27.019375 323.804062 
z
" clip-path="url(#pec415d40c6)" style="fill: #ffffff; stroke: #ffffff; stroke-linejoin: miter"/>
   </g>
   <g id="patch_15">
    <path d="M 27.019375 379.244062 
L 54.919375 379.244062 
L 54.919375 351.524062 
L 27.019375 351.524062 
z
" clip-path="url(#pec415d40c6)" style="fill: #ffffff; stroke: #ffffff; stroke-linejoin: miter"/>
   </g>
   <g id="patch_16">
    <path d="M 27.019375 406.964062 
L 54.919375 406.964062 
L 54.919375 379.244062 
L 27.019375 379.244062 
z
" clip-path="url(#pec415d40c6)" style="fill: #ffffff; stroke: #ffffff; stroke-linejoin: miter"/>
   </g>
   <g id="patch_17">
    <path d="M 27.019375 434.684062 
L 54.919375 434.684062 
L 54.919375 406.964062 
L 27.019375 406.964062 
z
" clip-path="url(#pec415d40c6)" style="fill: #ffffff; stroke: #ffffff; stroke-linejoin: miter"/>
   </g>
   <g id="patch_18">
    <path d="M 27.019375 462.404062 
L 54.919375 462.404062 
L 54.919375 434.684062 
L 27.019375 434.684062 
z
" clip-path="url(#pec415d40c6)" style="fill: #ffffff; stroke: #ffffff; stroke-linejoin: miter"/>
   </g>
   <g id="patch_19">
    <path d="M 54.919375 46.604062 
L 82.819375 46.604062 
L 82.819375 18.884062 
L 54.919375 18.884062 
z
" clip-path="url(#pec415d40c6)" style="fill: #a6d854; stroke: #ffffff; stroke-linejoin: miter"/>
   </g>
   <g id="patch_20">
    <path d="M 54.919375 74.324062 
L 82.819375 74.324062 
L 82.819375 46.604062 
L 54.919375 46.604062 
z
" clip-path="url(#pec415d40c6)" style="fill: #ffffff; stroke: #ffffff; stroke-linejoin: miter"/>
   </g>
   <g id="patch_21">
    <path d="M 54.919375 102.044062 
L 82.819375 102.044062 
L 82.819375 74.324062 
L 54.919375 74.324062 
z
" clip-path="url(#pec415d40c6)" style="fill: #a6d854; stroke: #ffffff; stroke-linejoin: miter"/>
   </g>
   <g id="patch_22">
    <path d="M 54.919375 129.764062 
L 82.819375 129.764062 
L 82.819375 102.044062 
L 54.919375 102.044062 
z
" clip-path="url(#pec415d40c6)" style="fill: #ffffff; stroke: #ffffff; stroke-linejoin: miter"/>
   </g>
   <g id="patch_23">
    <path d="M 54.919375 157.484062 
L 82.819375 157.484062 
L 82.819375 129.764062 
L 54.919375 129.764062 
z
" clip-path="url(#pec415d40c6)" style="fill: #ffffff; stroke: #ffffff; stroke-linejoin: miter"/>
   </g>
   <g id="patch_24">
    <path d="M 54.919375 185.204062 
L 82.819375 185.204062 
L 82.819375 157.484062 
L 54.919375 157.484062 
z
" clip-path="url(#pec415d40c6)" style="fill: #ffffff; stroke: #ffffff; stroke-linejoin: miter"/>
   </g>
   <g id="patch_25">
    <path d="M 54.919375 212.924062 
L 82.819375 212.924062 
L 82.819375 185.204062 
L 54.919375 185.204062 
z
" clip-path="url(#pec415d40c6)" style="fill: #ffffff; stroke: #ffffff; stroke-linejoin: miter"/>
   </g>
   <g id="patch_26">
    <path d="M 54.919375 240.644062 
L 82.819375 240.644062 
L 82.819375 212.924062 
L 54.919375 212.924062 
z
" clip-path="url(#pec415d40c6)" style="fill: #ffffff; stroke: #ffffff; stroke-linejoin: miter"/>
   </g>
   <g id="patch_27">
    <path d="M 54.919375 268.364062 
L 82.819375 268.364062 
L 82.819375 240.644062 
L 54.919375 240.644062 
z
" clip-path="url(#pec415d40c6)" style="fill: #ffffff; stroke: #ffffff; stroke-linejoin: miter"/>
   </g>
   <g id="patch_28">
    <path d="M 54.919375 296.084062 
L 82.819375 296.084062 
L 82.819375 268.364062 
L 54.919375 268.364062 
z
" clip-path="url(#pec415d40c6)" style="fill: #ffffff; stroke: #ffffff; stroke-linejoin: miter"/>
   </g>
   <g id="patch_29">
    <path d="M 54.919375 323.804062 
L 82.819375 323.804062 
L 82.819375 296.084062 
L 54.919375 296.084062 
z
" clip-path="url(#pec415d40c6)" style="fill: #ffffff; stroke: #ffffff; stroke-linejoin: miter"/>
   </g>
   <g id="patch_30">
    <path d="M 54.919375 351.524062 
L 82.819375 351.524062 
L 82.819375 323.804062 
L 54.919375 323.804062 
z
" clip-path="url(#pec415d40c6)" style="fill: #ffffff; stroke: #ffffff; stroke-linejoin: miter"/>
   </g>
   <g id="patch_31">
    <path d="M 54.919375 379.244062 
L 82.819375 379.244062 
L 82.819375 351.524062 
L 54.919375 351.524062 
z
" clip-path="url(#pec415d40c6)" style="fill: #ffffff; stroke: #ffffff; stroke-linejoin: miter"/>
   </g>
   <g id="patch_32">
    <path d="M 54.919375 406.964062 
L 82.819375 406.964062 
L 82.819375 379.244062 
L 54.919375 379.244062 
z
" clip-path="url(#pec415d40c6)" style="fill: #ffffff; stroke: #ffffff; stroke-linejoin: miter"/>
   </g>
   <g id="patch_33">
    <path d="M 54.919375 434.684062 
L 82.819375 434.684062 
L 82.819375 406.964062 
L 54.919375 406.964062 
z
" clip-path="url(#pec415d40c6)" style="fill: #a6d854; stroke: #ffffff; stroke-linejoin: miter"/>
   </g>
   <g id="patch_34">
    <path d="M 54.919375 462.404062 
L 82.819375 462.404062 
L 82.819375 434.684062 
L 54.919375 434.684062 
z
" clip-path="url(#pec415d40c6)" style="fill: #ffffff; stroke: #ffffff; stroke-linejoin: miter"/>
   </g>
   <g id="patch_35">
    <path d="M 82.819375 46.604062 
L 110.719375 46.604062 
L 110.719375 18.884062 
L 82.819375 18.884062 
z
" clip-path="url(#pec415d40c6)" style="fill: #ffffff; stroke: #ffffff; stroke-linejoin: miter"/>
   </g>
   <g id="patch_36">
    <path d="M 82.819375 74.324062 
L 110.719375 74.324062 
L 110.719375 46.604062 
L 82.819375 46.604062 
z
" clip-path="url(#pec415d40c6)" style="fill: #a6d854; stroke: #ffffff; stroke-linejoin: miter"/>
   </g>
   <g id="patch_37">
    <path d="M 82.819375 102.044062 
L 110.719375 102.044062 
L 110.719375 74.324062 
L 82.819375 74.324062 
z
" clip-path="url(#pec415d40c6)" style="fill: #ffffff; stroke: #ffffff; stroke-linejoin: miter"/>
   </g>
   <g id="patch_38">
    <path d="M 82.819375 129.764062 
L 110.719375 129.764062 
L 110.719375 102.044062 
L 82.819375 102.044062 
z
" clip-path="url(#pec415d40c6)" style="fill: #a6d854; stroke: #ffffff; stroke-linejoin: miter"/>
   </g>
   <g id="patch_39">
    <path d="M 82.819375 157.484062 
L 110.719375 157.484062 
L 110.719375 129.764062 
L 82.819375 129.764062 
z
" clip-path="url(#pec415d40c6)" style="fill: #a6d854; stroke: #ffffff; stroke-linejoin: miter"/>
   </g>
   <g id="patch_40">
    <path d="M 82.819375 185.204062 
L 110.719375 185.204062 
L 110.719375 157.484062 
L 82.819375 157.484062 
z
" clip-path="url(#pec415d40c6)" style="fill: #ffffff; stroke: #ffffff; stroke-linejoin: miter"/>
   </g>
   <g id="patch_41">
    <path d="M 82.819375 212.924062 
L 110.719375 212.924062 
L 110.719375 185.204062 
L 82.819375 185.204062 
z
" clip-path="url(#pec415d40c6)" style="fill: #ffffff; stroke: #ffffff; stroke-linejoin: miter"/>
   </g>
   <g id="patch_42">
    <path d="M 82.819375 240.644062 
L 110.719375 240.644062 
L 110.719375 212.924062 
L 82.819375 212.924062 
z
" clip-path="url(#pec415d40c6)" style="fill: #ffffff; stroke: #ffffff; stroke-linejoin: miter"/>
   </g>
   <g id="patch_43">
    <path d="M 82.819375 268.364062 
L 110.719375 268.364062 
L 110.719375 240.644062 
L 82.819375 240.644062 
z
" clip-path="url(#pec415d40c6)" style="fill: #ffffff; stroke: #ffffff; stroke-linejoin: miter"/>
   </g>
   <g id="patch_44">
    <path d="M 82.819375 296.084062 
L 110.719375 296.084062 
L 110.719375 268.364062 
L 82.819375 268.364062 
z
" clip-path="url(#pec415d40c6)" style="fill: #ffffff; stroke: #ffffff; stroke-linejoin: miter"/>
   </g>
   <g id="patch_45">
    <path d="M 82.819375 323.804062 
L 110.719375 323.804062 
L 110.719375 296.084062 
L 82.819375 296.084062 
z
" clip-path="url(#pec415d40c6)" style="fill: #ffffff; stroke: #ffffff; stroke-linejoin: miter"/>
   </g>
   <g id="patch_46">
    <path d="M 82.819375 351.524062 
L 110.719375 351.524062 
L 110.719375 323.804062 
L 82.819375 323.804062 
z
" clip-path="url(#pec415d40c6)" style="fill: #ffffff; stroke: #ffffff; stroke-linejoin: miter"/>
   </g>
   <g id="patch_47">
    <path d="M 82.819375 379.244062 
L 110.719375 379.244062 
L 110.719375 351.524062 
L 82.819375 351.524062 
z
" clip-path="url(#pec415d40c6)" style="fill: #ffffff; stroke: #ffffff; stroke-linejoin: miter"/>
   </g>
   <g id="patch_48">
    <path d="M 82.819375 406.964062 
L 110.719375 406.964062 
L 110.719375 379.244062 
L 82.819375 379.244062 
z
" clip-path="url(#pec415d40c6)" style="fill: #ffffff; stroke: #ffffff; stroke-linejoin: miter"/>
   </g>
   <g id="patch_49">
    <path d="M 82.819375 434.684062 
L 110.719375 434.684062 
L 110.719375 406.964062 
L 82.819375 406.964062 
z
" clip-path="url(#pec415d40c6)" style="fill: #ffffff; stroke: #ffffff; stroke-linejoin: miter"/>
   </g>
   <g id="patch_50">
    <path d="M 82.819375 462.404062 
L 110.719375 462.404062 
L 110.719375 434.684062 
L 82.819375 434.684062 
z
" clip-path="url(#pec415d40c6)" style="fill: #ffffff; stroke: #ffffff; stroke-linejoin: miter"/>
   </g>
   <g id="patch_51">
    <path d="M 110.719375 46.604062 
L 138.619375 46.604062 
L 138.619375 18.884062 
L 110.719375 18.884062 
z
" clip-path="url(#pec415d40c6)" style="fill: #ffffff; stroke: #ffffff; stroke-linejoin: miter"/>
   </g>
   <g id="patch_52">
    <path d="M 110.719375 74.324062 
L 138.619375 74.324062 
L 138.619375 46.604062 
L 110.719375 46.604062 
z
" clip-path="url(#pec415d40c6)" style="fill: #ffffff; stroke: #ffffff; stroke-linejoin: miter"/>
   </g>
   <g id="patch_53">
    <path d="M 110.719375 102.044062 
L 138.619375 102.044062 
L 138.619375 74.324062 
L 110.719375 74.324062 
z
" clip-path="url(#pec415d40c6)" style="fill: #a6d854; stroke: #ffffff; stroke-linejoin: miter"/>
   </g>
   <g id="patch_54">
    <path d="M 110.719375 129.764062 
L 138.619375 129.764062 
L 138.619375 102.044062 
L 110.719375 102.044062 
z
" clip-path="url(#pec415d40c6)" style="fill: #ffffff; stroke: #ffffff; stroke-linejoin: miter"/>
   </g>
   <g id="patch_55">
    <path d="M 110.719375 157.484062 
L 138.619375 157.484062 
L 138.619375 129.764062 
L 110.719375 129.764062 
z
" clip-path="url(#pec415d40c6)" style="fill: #ffffff; stroke: #ffffff; stroke-linejoin: miter"/>
   </g>
   <g id="patch_56">
    <path d="M 110.719375 185.204062 
L 138.619375 185.204062 
L 138.619375 157.484062 
L 110.719375 157.484062 
z
" clip-path="url(#pec415d40c6)" style="fill: #ffffff; stroke: #ffffff; stroke-linejoin: miter"/>
   </g>
   <g id="patch_57">
    <path d="M 110.719375 212.924062 
L 138.619375 212.924062 
L 138.619375 185.204062 
L 110.719375 185.204062 
z
" clip-path="url(#pec415d40c6)" style="fill: #ffffff; stroke: #ffffff; stroke-linejoin: miter"/>
   </g>
   <g id="patch_58">
    <path d="M 110.719375 240.644062 
L 138.619375 240.644062 
L 138.619375 212.924062 
L 110.719375 212.924062 
z
" clip-path="url(#pec415d40c6)" style="fill: #ffffff; stroke: #ffffff; stroke-linejoin: miter"/>
   </g>
   <g id="patch_59">
    <path d="M 110.719375 268.364062 
L 138.619375 268.364062 
L 138.619375 240.644062 
L 110.719375 240.644062 
z
" clip-path="url(#pec415d40c6)" style="fill: #ffffff; stroke: #ffffff; stroke-linejoin: miter"/>
   </g>
   <g id="patch_60">
    <path d="M 110.719375 296.084062 
L 138.619375 296.084062 
L 138.619375 268.364062 
L 110.719375 268.364062 
z
" clip-path="url(#pec415d40c6)" style="fill: #ffffff; stroke: #ffffff; stroke-linejoin: miter"/>
   </g>
   <g id="patch_61">
    <path d="M 110.719375 323.804062 
L 138.619375 323.804062 
L 138.619375 296.084062 
L 110.719375 296.084062 
z
" clip-path="url(#pec415d40c6)" style="fill: #ffffff; stroke: #ffffff; stroke-linejoin: miter"/>
   </g>
   <g id="patch_62">
    <path d="M 110.719375 351.524062 
L 138.619375 351.524062 
L 138.619375 323.804062 
L 110.719375 323.804062 
z
" clip-path="url(#pec415d40c6)" style="fill: #ffffff; stroke: #ffffff; stroke-linejoin: miter"/>
   </g>
   <g id="patch_63">
    <path d="M 110.719375 379.244062 
L 138.619375 379.244062 
L 138.619375 351.524062 
L 110.719375 351.524062 
z
" clip-path="url(#pec415d40c6)" style="fill: #ffffff; stroke: #ffffff; stroke-linejoin: miter"/>
   </g>
   <g id="patch_64">
    <path d="M 110.719375 406.964062 
L 138.619375 406.964062 
L 138.619375 379.244062 
L 110.719375 379.244062 
z
" clip-path="url(#pec415d40c6)" style="fill: #ffffff; stroke: #ffffff; stroke-linejoin: miter"/>
   </g>
   <g id="patch_65">
    <path d="M 110.719375 434.684062 
L 138.619375 434.684062 
L 138.619375 406.964062 
L 110.719375 406.964062 
z
" clip-path="url(#pec415d40c6)" style="fill: #ffffff; stroke: #ffffff; stroke-linejoin: miter"/>
   </g>
   <g id="patch_66">
    <path d="M 110.719375 462.404062 
L 138.619375 462.404062 
L 138.619375 434.684062 
L 110.719375 434.684062 
z
" clip-path="url(#pec415d40c6)" style="fill: #ffffff; stroke: #ffffff; stroke-linejoin: miter"/>
   </g>
   <g id="patch_67">
    <path d="M 138.619375 46.604062 
L 166.519375 46.604062 
L 166.519375 18.884062 
L 138.619375 18.884062 
z
" clip-path="url(#pec415d40c6)" style="fill: #ffffff; stroke: #ffffff; stroke-linejoin: miter"/>
   </g>
   <g id="patch_68">
    <path d="M 138.619375 74.324062 
L 166.519375 74.324062 
L 166.519375 46.604062 
L 138.619375 46.604062 
z
" clip-path="url(#pec415d40c6)" style="fill: #ffffff; stroke: #ffffff; stroke-linejoin: miter"/>
   </g>
   <g id="patch_69">
    <path d="M 138.619375 102.044062 
L 166.519375 102.044062 
L 166.519375 74.324062 
L 138.619375 74.324062 
z
" clip-path="url(#pec415d40c6)" style="fill: #a6d854; stroke: #ffffff; stroke-linejoin: miter"/>
   </g>
   <g id="patch_70">
    <path d="M 138.619375 129.764062 
L 166.519375 129.764062 
L 166.519375 102.044062 
L 138.619375 102.044062 
z
" clip-path="url(#pec415d40c6)" style="fill: #ffffff; stroke: #ffffff; stroke-linejoin: miter"/>
   </g>
   <g id="patch_71">
    <path d="M 138.619375 157.484062 
L 166.519375 157.484062 
L 166.519375 129.764062 
L 138.619375 129.764062 
z
" clip-path="url(#pec415d40c6)" style="fill: #ffffff; stroke: #ffffff; stroke-linejoin: miter"/>
   </g>
   <g id="patch_72">
    <path d="M 138.619375 185.204062 
L 166.519375 185.204062 
L 166.519375 157.484062 
L 138.619375 157.484062 
z
" clip-path="url(#pec415d40c6)" style="fill: #a6d854; stroke: #ffffff; stroke-linejoin: miter"/>
   </g>
   <g id="patch_73">
    <path d="M 138.619375 212.924062 
L 166.519375 212.924062 
L 166.519375 185.204062 
L 138.619375 185.204062 
z
" clip-path="url(#pec415d40c6)" style="fill: #ffffff; stroke: #ffffff; stroke-linejoin: miter"/>
   </g>
   <g id="patch_74">
    <path d="M 138.619375 240.644062 
L 166.519375 240.644062 
L 166.519375 212.924062 
L 138.619375 212.924062 
z
" clip-path="url(#pec415d40c6)" style="fill: #ffffff; stroke: #ffffff; stroke-linejoin: miter"/>
   </g>
   <g id="patch_75">
    <path d="M 138.619375 268.364062 
L 166.519375 268.364062 
L 166.519375 240.644062 
L 138.619375 240.644062 
z
" clip-path="url(#pec415d40c6)" style="fill: #ffffff; stroke: #ffffff; stroke-linejoin: miter"/>
   </g>
   <g id="patch_76">
    <path d="M 138.619375 296.084062 
L 166.519375 296.084062 
L 166.519375 268.364062 
L 138.619375 268.364062 
z
" clip-path="url(#pec415d40c6)" style="fill: #ffffff; stroke: #ffffff; stroke-linejoin: miter"/>
   </g>
   <g id="patch_77">
    <path d="M 138.619375 323.804062 
L 166.519375 323.804062 
L 166.519375 296.084062 
L 138.619375 296.084062 
z
" clip-path="url(#pec415d40c6)" style="fill: #ffffff; stroke: #ffffff; stroke-linejoin: miter"/>
   </g>
   <g id="patch_78">
    <path d="M 138.619375 351.524062 
L 166.519375 351.524062 
L 166.519375 323.804062 
L 138.619375 323.804062 
z
" clip-path="url(#pec415d40c6)" style="fill: #a6d854; stroke: #ffffff; stroke-linejoin: miter"/>
   </g>
   <g id="patch_79">
    <path d="M 138.619375 379.244062 
L 166.519375 379.244062 
L 166.519375 351.524062 
L 138.619375 351.524062 
z
" clip-path="url(#pec415d40c6)" style="fill: #ffffff; stroke: #ffffff; stroke-linejoin: miter"/>
   </g>
   <g id="patch_80">
    <path d="M 138.619375 406.964062 
L 166.519375 406.964062 
L 166.519375 379.244062 
L 138.619375 379.244062 
z
" clip-path="url(#pec415d40c6)" style="fill: #ffffff; stroke: #ffffff; stroke-linejoin: miter"/>
   </g>
   <g id="patch_81">
    <path d="M 138.619375 434.684062 
L 166.519375 434.684062 
L 166.519375 406.964062 
L 138.619375 406.964062 
z
" clip-path="url(#pec415d40c6)" style="fill: #ffffff; stroke: #ffffff; stroke-linejoin: miter"/>
   </g>
   <g id="patch_82">
    <path d="M 138.619375 462.404062 
L 166.519375 462.404062 
L 166.519375 434.684062 
L 138.619375 434.684062 
z
" clip-path="url(#pec415d40c6)" style="fill: #ffffff; stroke: #ffffff; stroke-linejoin: miter"/>
   </g>
   <g id="patch_83">
    <path d="M 166.519375 46.604062 
L 194.419375 46.604062 
L 194.419375 18.884062 
L 166.519375 18.884062 
z
" clip-path="url(#pec415d40c6)" style="fill: #ffffff; stroke: #ffffff; stroke-linejoin: miter"/>
   </g>
   <g id="patch_84">
    <path d="M 166.519375 74.324062 
L 194.419375 74.324062 
L 194.419375 46.604062 
L 166.519375 46.604062 
z
" clip-path="url(#pec415d40c6)" style="fill: #ffffff; stroke: #ffffff; stroke-linejoin: miter"/>
   </g>
   <g id="patch_85">
    <path d="M 166.519375 102.044062 
L 194.419375 102.044062 
L 194.419375 74.324062 
L 166.519375 74.324062 
z
" clip-path="url(#pec415d40c6)" style="fill: #ffffff; stroke: #ffffff; stroke-linejoin: miter"/>
   </g>
   <g id="patch_86">
    <path d="M 166.519375 129.764062 
L 194.419375 129.764062 
L 194.419375 102.044062 
L 166.519375 102.044062 
z
" clip-path="url(#pec415d40c6)" style="fill: #ffffff; stroke: #ffffff; stroke-linejoin: miter"/>
   </g>
   <g id="patch_87">
    <path d="M 166.519375 157.484062 
L 194.419375 157.484062 
L 194.419375 129.764062 
L 166.519375 129.764062 
z
" clip-path="url(#pec415d40c6)" style="fill: #a6d854; stroke: #ffffff; stroke-linejoin: miter"/>
   </g>
   <g id="patch_88">
    <path d="M 166.519375 185.204062 
L 194.419375 185.204062 
L 194.419375 157.484062 
L 166.519375 157.484062 
z
" clip-path="url(#pec415d40c6)" style="fill: #ffffff; stroke: #ffffff; stroke-linejoin: miter"/>
   </g>
   <g id="patch_89">
    <path d="M 166.519375 212.924062 
L 194.419375 212.924062 
L 194.419375 185.204062 
L 166.519375 185.204062 
z
" clip-path="url(#pec415d40c6)" style="fill: #a6d854; stroke: #ffffff; stroke-linejoin: miter"/>
   </g>
   <g id="patch_90">
    <path d="M 166.519375 240.644062 
L 194.419375 240.644062 
L 194.419375 212.924062 
L 166.519375 212.924062 
z
" clip-path="url(#pec415d40c6)" style="fill: #ffffff; stroke: #ffffff; stroke-linejoin: miter"/>
   </g>
   <g id="patch_91">
    <path d="M 166.519375 268.364062 
L 194.419375 268.364062 
L 194.419375 240.644062 
L 166.519375 240.644062 
z
" clip-path="url(#pec415d40c6)" style="fill: #ffffff; stroke: #ffffff; stroke-linejoin: miter"/>
   </g>
   <g id="patch_92">
    <path d="M 166.519375 296.084062 
L 194.419375 296.084062 
L 194.419375 268.364062 
L 166.519375 268.364062 
z
" clip-path="url(#pec415d40c6)" style="fill: #ffffff; stroke: #ffffff; stroke-linejoin: miter"/>
   </g>
   <g id="patch_93">
    <path d="M 166.519375 323.804062 
L 194.419375 323.804062 
L 194.419375 296.084062 
L 166.519375 296.084062 
z
" clip-path="url(#pec415d40c6)" style="fill: #ffffff; stroke: #ffffff; stroke-linejoin: miter"/>
   </g>
   <g id="patch_94">
    <path d="M 166.519375 351.524062 
L 194.419375 351.524062 
L 194.419375 323.804062 
L 166.519375 323.804062 
z
" clip-path="url(#pec415d40c6)" style="fill: #ffffff; stroke: #ffffff; stroke-linejoin: miter"/>
   </g>
   <g id="patch_95">
    <path d="M 166.519375 379.244062 
L 194.419375 379.244062 
L 194.419375 351.524062 
L 166.519375 351.524062 
z
" clip-path="url(#pec415d40c6)" style="fill: #ffffff; stroke: #ffffff; stroke-linejoin: miter"/>
   </g>
   <g id="patch_96">
    <path d="M 166.519375 406.964062 
L 194.419375 406.964062 
L 194.419375 379.244062 
L 166.519375 379.244062 
z
" clip-path="url(#pec415d40c6)" style="fill: #ffffff; stroke: #ffffff; stroke-linejoin: miter"/>
   </g>
   <g id="patch_97">
    <path d="M 166.519375 434.684062 
L 194.419375 434.684062 
L 194.419375 406.964062 
L 166.519375 406.964062 
z
" clip-path="url(#pec415d40c6)" style="fill: #ffffff; stroke: #ffffff; stroke-linejoin: miter"/>
   </g>
   <g id="patch_98">
    <path d="M 166.519375 462.404062 
L 194.419375 462.404062 
L 194.419375 434.684062 
L 166.519375 434.684062 
z
" clip-path="url(#pec415d40c6)" style="fill: #ffffff; stroke: #ffffff; stroke-linejoin: miter"/>
   </g>
   <g id="patch_99">
    <path d="M 194.419375 46.604062 
L 222.319375 46.604062 
L 222.319375 18.884062 
L 194.419375 18.884062 
z
" clip-path="url(#pec415d40c6)" style="fill: #ffffff; stroke: #ffffff; stroke-linejoin: miter"/>
   </g>
   <g id="patch_100">
    <path d="M 194.419375 74.324062 
L 222.319375 74.324062 
L 222.319375 46.604062 
L 194.419375 46.604062 
z
" clip-path="url(#pec415d40c6)" style="fill: #ffffff; stroke: #ffffff; stroke-linejoin: miter"/>
   </g>
   <g id="patch_101">
    <path d="M 194.419375 102.044062 
L 222.319375 102.044062 
L 222.319375 74.324062 
L 194.419375 74.324062 
z
" clip-path="url(#pec415d40c6)" style="fill: #ffffff; stroke: #ffffff; stroke-linejoin: miter"/>
   </g>
   <g id="patch_102">
    <path d="M 194.419375 129.764062 
L 222.319375 129.764062 
L 222.319375 102.044062 
L 194.419375 102.044062 
z
" clip-path="url(#pec415d40c6)" style="fill: #ffffff; stroke: #ffffff; stroke-linejoin: miter"/>
   </g>
   <g id="patch_103">
    <path d="M 194.419375 157.484062 
L 222.319375 157.484062 
L 222.319375 129.764062 
L 194.419375 129.764062 
z
" clip-path="url(#pec415d40c6)" style="fill: #ffffff; stroke: #ffffff; stroke-linejoin: miter"/>
   </g>
   <g id="patch_104">
    <path d="M 194.419375 185.204062 
L 222.319375 185.204062 
L 222.319375 157.484062 
L 194.419375 157.484062 
z
" clip-path="url(#pec415d40c6)" style="fill: #a6d854; stroke: #ffffff; stroke-linejoin: miter"/>
   </g>
   <g id="patch_105">
    <path d="M 194.419375 212.924062 
L 222.319375 212.924062 
L 222.319375 185.204062 
L 194.419375 185.204062 
z
" clip-path="url(#pec415d40c6)" style="fill: #ffffff; stroke: #ffffff; stroke-linejoin: miter"/>
   </g>
   <g id="patch_106">
    <path d="M 194.419375 240.644062 
L 222.319375 240.644062 
L 222.319375 212.924062 
L 194.419375 212.924062 
z
" clip-path="url(#pec415d40c6)" style="fill: #a6d854; stroke: #ffffff; stroke-linejoin: miter"/>
   </g>
   <g id="patch_107">
    <path d="M 194.419375 268.364062 
L 222.319375 268.364062 
L 222.319375 240.644062 
L 194.419375 240.644062 
z
" clip-path="url(#pec415d40c6)" style="fill: #ffffff; stroke: #ffffff; stroke-linejoin: miter"/>
   </g>
   <g id="patch_108">
    <path d="M 194.419375 296.084062 
L 222.319375 296.084062 
L 222.319375 268.364062 
L 194.419375 268.364062 
z
" clip-path="url(#pec415d40c6)" style="fill: #ffffff; stroke: #ffffff; stroke-linejoin: miter"/>
   </g>
   <g id="patch_109">
    <path d="M 194.419375 323.804062 
L 222.319375 323.804062 
L 222.319375 296.084062 
L 194.419375 296.084062 
z
" clip-path="url(#pec415d40c6)" style="fill: #ffffff; stroke: #ffffff; stroke-linejoin: miter"/>
   </g>
   <g id="patch_110">
    <path d="M 194.419375 351.524062 
L 222.319375 351.524062 
L 222.319375 323.804062 
L 194.419375 323.804062 
z
" clip-path="url(#pec415d40c6)" style="fill: #ffffff; stroke: #ffffff; stroke-linejoin: miter"/>
   </g>
   <g id="patch_111">
    <path d="M 194.419375 379.244062 
L 222.319375 379.244062 
L 222.319375 351.524062 
L 194.419375 351.524062 
z
" clip-path="url(#pec415d40c6)" style="fill: #ffffff; stroke: #ffffff; stroke-linejoin: miter"/>
   </g>
   <g id="patch_112">
    <path d="M 194.419375 406.964062 
L 222.319375 406.964062 
L 222.319375 379.244062 
L 194.419375 379.244062 
z
" clip-path="url(#pec415d40c6)" style="fill: #ffffff; stroke: #ffffff; stroke-linejoin: miter"/>
   </g>
   <g id="patch_113">
    <path d="M 194.419375 434.684062 
L 222.319375 434.684062 
L 222.319375 406.964062 
L 194.419375 406.964062 
z
" clip-path="url(#pec415d40c6)" style="fill: #ffffff; stroke: #ffffff; stroke-linejoin: miter"/>
   </g>
   <g id="patch_114">
    <path d="M 194.419375 462.404062 
L 222.319375 462.404062 
L 222.319375 434.684062 
L 194.419375 434.684062 
z
" clip-path="url(#pec415d40c6)" style="fill: #ffffff; stroke: #ffffff; stroke-linejoin: miter"/>
   </g>
   <g id="patch_115">
    <path d="M 222.319375 46.604062 
L 250.219375 46.604062 
L 250.219375 18.884062 
L 222.319375 18.884062 
z
" clip-path="url(#pec415d40c6)" style="fill: #ffffff; stroke: #ffffff; stroke-linejoin: miter"/>
   </g>
   <g id="patch_116">
    <path d="M 222.319375 74.324062 
L 250.219375 74.324062 
L 250.219375 46.604062 
L 222.319375 46.604062 
z
" clip-path="url(#pec415d40c6)" style="fill: #ffffff; stroke: #ffffff; stroke-linejoin: miter"/>
   </g>
   <g id="patch_117">
    <path d="M 222.319375 102.044062 
L 250.219375 102.044062 
L 250.219375 74.324062 
L 222.319375 74.324062 
z
" clip-path="url(#pec415d40c6)" style="fill: #ffffff; stroke: #ffffff; stroke-linejoin: miter"/>
   </g>
   <g id="patch_118">
    <path d="M 222.319375 129.764062 
L 250.219375 129.764062 
L 250.219375 102.044062 
L 222.319375 102.044062 
z
" clip-path="url(#pec415d40c6)" style="fill: #ffffff; stroke: #ffffff; stroke-linejoin: miter"/>
   </g>
   <g id="patch_119">
    <path d="M 222.319375 157.484062 
L 250.219375 157.484062 
L 250.219375 129.764062 
L 222.319375 129.764062 
z
" clip-path="url(#pec415d40c6)" style="fill: #ffffff; stroke: #ffffff; stroke-linejoin: miter"/>
   </g>
   <g id="patch_120">
    <path d="M 222.319375 185.204062 
L 250.219375 185.204062 
L 250.219375 157.484062 
L 222.319375 157.484062 
z
" clip-path="url(#pec415d40c6)" style="fill: #ffffff; stroke: #ffffff; stroke-linejoin: miter"/>
   </g>
   <g id="patch_121">
    <path d="M 222.319375 212.924062 
L 250.219375 212.924062 
L 250.219375 185.204062 
L 222.319375 185.204062 
z
" clip-path="url(#pec415d40c6)" style="fill: #a6d854; stroke: #ffffff; stroke-linejoin: miter"/>
   </g>
   <g id="patch_122">
    <path d="M 222.319375 240.644062 
L 250.219375 240.644062 
L 250.219375 212.924062 
L 222.319375 212.924062 
z
" clip-path="url(#pec415d40c6)" style="fill: #ffffff; stroke: #ffffff; stroke-linejoin: miter"/>
   </g>
   <g id="patch_123">
    <path d="M 222.319375 268.364062 
L 250.219375 268.364062 
L 250.219375 240.644062 
L 222.319375 240.644062 
z
" clip-path="url(#pec415d40c6)" style="fill: #a6d854; stroke: #ffffff; stroke-linejoin: miter"/>
   </g>
   <g id="patch_124">
    <path d="M 222.319375 296.084062 
L 250.219375 296.084062 
L 250.219375 268.364062 
L 222.319375 268.364062 
z
" clip-path="url(#pec415d40c6)" style="fill: #a6d854; stroke: #ffffff; stroke-linejoin: miter"/>
   </g>
   <g id="patch_125">
    <path d="M 222.319375 323.804062 
L 250.219375 323.804062 
L 250.219375 296.084062 
L 222.319375 296.084062 
z
" clip-path="url(#pec415d40c6)" style="fill: #a6d854; stroke: #ffffff; stroke-linejoin: miter"/>
   </g>
   <g id="patch_126">
    <path d="M 222.319375 351.524062 
L 250.219375 351.524062 
L 250.219375 323.804062 
L 222.319375 323.804062 
z
" clip-path="url(#pec415d40c6)" style="fill: #ffffff; stroke: #ffffff; stroke-linejoin: miter"/>
   </g>
   <g id="patch_127">
    <path d="M 222.319375 379.244062 
L 250.219375 379.244062 
L 250.219375 351.524062 
L 222.319375 351.524062 
z
" clip-path="url(#pec415d40c6)" style="fill: #ffffff; stroke: #ffffff; stroke-linejoin: miter"/>
   </g>
   <g id="patch_128">
    <path d="M 222.319375 406.964062 
L 250.219375 406.964062 
L 250.219375 379.244062 
L 222.319375 379.244062 
z
" clip-path="url(#pec415d40c6)" style="fill: #ffffff; stroke: #ffffff; stroke-linejoin: miter"/>
   </g>
   <g id="patch_129">
    <path d="M 222.319375 434.684062 
L 250.219375 434.684062 
L 250.219375 406.964062 
L 222.319375 406.964062 
z
" clip-path="url(#pec415d40c6)" style="fill: #ffffff; stroke: #ffffff; stroke-linejoin: miter"/>
   </g>
   <g id="patch_130">
    <path d="M 222.319375 462.404062 
L 250.219375 462.404062 
L 250.219375 434.684062 
L 222.319375 434.684062 
z
" clip-path="url(#pec415d40c6)" style="fill: #ffffff; stroke: #ffffff; stroke-linejoin: miter"/>
   </g>
   <g id="patch_131">
    <path d="M 250.219375 46.604062 
L 278.119375 46.604062 
L 278.119375 18.884062 
L 250.219375 18.884062 
z
" clip-path="url(#pec415d40c6)" style="fill: #ffffff; stroke: #ffffff; stroke-linejoin: miter"/>
   </g>
   <g id="patch_132">
    <path d="M 250.219375 74.324062 
L 278.119375 74.324062 
L 278.119375 46.604062 
L 250.219375 46.604062 
z
" clip-path="url(#pec415d40c6)" style="fill: #ffffff; stroke: #ffffff; stroke-linejoin: miter"/>
   </g>
   <g id="patch_133">
    <path d="M 250.219375 102.044062 
L 278.119375 102.044062 
L 278.119375 74.324062 
L 250.219375 74.324062 
z
" clip-path="url(#pec415d40c6)" style="fill: #ffffff; stroke: #ffffff; stroke-linejoin: miter"/>
   </g>
   <g id="patch_134">
    <path d="M 250.219375 129.764062 
L 278.119375 129.764062 
L 278.119375 102.044062 
L 250.219375 102.044062 
z
" clip-path="url(#pec415d40c6)" style="fill: #ffffff; stroke: #ffffff; stroke-linejoin: miter"/>
   </g>
   <g id="patch_135">
    <path d="M 250.219375 157.484062 
L 278.119375 157.484062 
L 278.119375 129.764062 
L 250.219375 129.764062 
z
" clip-path="url(#pec415d40c6)" style="fill: #ffffff; stroke: #ffffff; stroke-linejoin: miter"/>
   </g>
   <g id="patch_136">
    <path d="M 250.219375 185.204062 
L 278.119375 185.204062 
L 278.119375 157.484062 
L 250.219375 157.484062 
z
" clip-path="url(#pec415d40c6)" style="fill: #ffffff; stroke: #ffffff; stroke-linejoin: miter"/>
   </g>
   <g id="patch_137">
    <path d="M 250.219375 212.924062 
L 278.119375 212.924062 
L 278.119375 185.204062 
L 250.219375 185.204062 
z
" clip-path="url(#pec415d40c6)" style="fill: #ffffff; stroke: #ffffff; stroke-linejoin: miter"/>
   </g>
   <g id="patch_138">
    <path d="M 250.219375 240.644062 
L 278.119375 240.644062 
L 278.119375 212.924062 
L 250.219375 212.924062 
z
" clip-path="url(#pec415d40c6)" style="fill: #a6d854; stroke: #ffffff; stroke-linejoin: miter"/>
   </g>
   <g id="patch_139">
    <path d="M 250.219375 268.364062 
L 278.119375 268.364062 
L 278.119375 240.644062 
L 250.219375 240.644062 
z
" clip-path="url(#pec415d40c6)" style="fill: #ffffff; stroke: #ffffff; stroke-linejoin: miter"/>
   </g>
   <g id="patch_140">
    <path d="M 250.219375 296.084062 
L 278.119375 296.084062 
L 278.119375 268.364062 
L 250.219375 268.364062 
z
" clip-path="url(#pec415d40c6)" style="fill: #ffffff; stroke: #ffffff; stroke-linejoin: miter"/>
   </g>
   <g id="patch_141">
    <path d="M 250.219375 323.804062 
L 278.119375 323.804062 
L 278.119375 296.084062 
L 250.219375 296.084062 
z
" clip-path="url(#pec415d40c6)" style="fill: #ffffff; stroke: #ffffff; stroke-linejoin: miter"/>
   </g>
   <g id="patch_142">
    <path d="M 250.219375 351.524062 
L 278.119375 351.524062 
L 278.119375 323.804062 
L 250.219375 323.804062 
z
" clip-path="url(#pec415d40c6)" style="fill: #ffffff; stroke: #ffffff; stroke-linejoin: miter"/>
   </g>
   <g id="patch_143">
    <path d="M 250.219375 379.244062 
L 278.119375 379.244062 
L 278.119375 351.524062 
L 250.219375 351.524062 
z
" clip-path="url(#pec415d40c6)" style="fill: #ffffff; stroke: #ffffff; stroke-linejoin: miter"/>
   </g>
   <g id="patch_144">
    <path d="M 250.219375 406.964062 
L 278.119375 406.964062 
L 278.119375 379.244062 
L 250.219375 379.244062 
z
" clip-path="url(#pec415d40c6)" style="fill: #ffffff; stroke: #ffffff; stroke-linejoin: miter"/>
   </g>
   <g id="patch_145">
    <path d="M 250.219375 434.684062 
L 278.119375 434.684062 
L 278.119375 406.964062 
L 250.219375 406.964062 
z
" clip-path="url(#pec415d40c6)" style="fill: #ffffff; stroke: #ffffff; stroke-linejoin: miter"/>
   </g>
   <g id="patch_146">
    <path d="M 250.219375 462.404062 
L 278.119375 462.404062 
L 278.119375 434.684062 
L 250.219375 434.684062 
z
" clip-path="url(#pec415d40c6)" style="fill: #ffffff; stroke: #ffffff; stroke-linejoin: miter"/>
   </g>
   <g id="patch_147">
    <path d="M 278.119375 46.604062 
L 306.019375 46.604062 
L 306.019375 18.884062 
L 278.119375 18.884062 
z
" clip-path="url(#pec415d40c6)" style="fill: #ffffff; stroke: #ffffff; stroke-linejoin: miter"/>
   </g>
   <g id="patch_148">
    <path d="M 278.119375 74.324062 
L 306.019375 74.324062 
L 306.019375 46.604062 
L 278.119375 46.604062 
z
" clip-path="url(#pec415d40c6)" style="fill: #ffffff; stroke: #ffffff; stroke-linejoin: miter"/>
   </g>
   <g id="patch_149">
    <path d="M 278.119375 102.044062 
L 306.019375 102.044062 
L 306.019375 74.324062 
L 278.119375 74.324062 
z
" clip-path="url(#pec415d40c6)" style="fill: #ffffff; stroke: #ffffff; stroke-linejoin: miter"/>
   </g>
   <g id="patch_150">
    <path d="M 278.119375 129.764062 
L 306.019375 129.764062 
L 306.019375 102.044062 
L 278.119375 102.044062 
z
" clip-path="url(#pec415d40c6)" style="fill: #ffffff; stroke: #ffffff; stroke-linejoin: miter"/>
   </g>
   <g id="patch_151">
    <path d="M 278.119375 157.484062 
L 306.019375 157.484062 
L 306.019375 129.764062 
L 278.119375 129.764062 
z
" clip-path="url(#pec415d40c6)" style="fill: #ffffff; stroke: #ffffff; stroke-linejoin: miter"/>
   </g>
   <g id="patch_152">
    <path d="M 278.119375 185.204062 
L 306.019375 185.204062 
L 306.019375 157.484062 
L 278.119375 157.484062 
z
" clip-path="url(#pec415d40c6)" style="fill: #ffffff; stroke: #ffffff; stroke-linejoin: miter"/>
   </g>
   <g id="patch_153">
    <path d="M 278.119375 212.924062 
L 306.019375 212.924062 
L 306.019375 185.204062 
L 278.119375 185.204062 
z
" clip-path="url(#pec415d40c6)" style="fill: #ffffff; stroke: #ffffff; stroke-linejoin: miter"/>
   </g>
   <g id="patch_154">
    <path d="M 278.119375 240.644062 
L 306.019375 240.644062 
L 306.019375 212.924062 
L 278.119375 212.924062 
z
" clip-path="url(#pec415d40c6)" style="fill: #a6d854; stroke: #ffffff; stroke-linejoin: miter"/>
   </g>
   <g id="patch_155">
    <path d="M 278.119375 268.364062 
L 306.019375 268.364062 
L 306.019375 240.644062 
L 278.119375 240.644062 
z
" clip-path="url(#pec415d40c6)" style="fill: #ffffff; stroke: #ffffff; stroke-linejoin: miter"/>
   </g>
   <g id="patch_156">
    <path d="M 278.119375 296.084062 
L 306.019375 296.084062 
L 306.019375 268.364062 
L 278.119375 268.364062 
z
" clip-path="url(#pec415d40c6)" style="fill: #ffffff; stroke: #ffffff; stroke-linejoin: miter"/>
   </g>
   <g id="patch_157">
    <path d="M 278.119375 323.804062 
L 306.019375 323.804062 
L 306.019375 296.084062 
L 278.119375 296.084062 
z
" clip-path="url(#pec415d40c6)" style="fill: #ffffff; stroke: #ffffff; stroke-linejoin: miter"/>
   </g>
   <g id="patch_158">
    <path d="M 278.119375 351.524062 
L 306.019375 351.524062 
L 306.019375 323.804062 
L 278.119375 323.804062 
z
" clip-path="url(#pec415d40c6)" style="fill: #ffffff; stroke: #ffffff; stroke-linejoin: miter"/>
   </g>
   <g id="patch_159">
    <path d="M 278.119375 379.244062 
L 306.019375 379.244062 
L 306.019375 351.524062 
L 278.119375 351.524062 
z
" clip-path="url(#pec415d40c6)" style="fill: #ffffff; stroke: #ffffff; stroke-linejoin: miter"/>
   </g>
   <g id="patch_160">
    <path d="M 278.119375 406.964062 
L 306.019375 406.964062 
L 306.019375 379.244062 
L 278.119375 379.244062 
z
" clip-path="url(#pec415d40c6)" style="fill: #ffffff; stroke: #ffffff; stroke-linejoin: miter"/>
   </g>
   <g id="patch_161">
    <path d="M 278.119375 434.684062 
L 306.019375 434.684062 
L 306.019375 406.964062 
L 278.119375 406.964062 
z
" clip-path="url(#pec415d40c6)" style="fill: #ffffff; stroke: #ffffff; stroke-linejoin: miter"/>
   </g>
   <g id="patch_162">
    <path d="M 278.119375 462.404062 
L 306.019375 462.404062 
L 306.019375 434.684062 
L 278.119375 434.684062 
z
" clip-path="url(#pec415d40c6)" style="fill: #ffffff; stroke: #ffffff; stroke-linejoin: miter"/>
   </g>
   <g id="patch_163">
    <path d="M 306.019375 46.604062 
L 333.919375 46.604062 
L 333.919375 18.884062 
L 306.019375 18.884062 
z
" clip-path="url(#pec415d40c6)" style="fill: #ffffff; stroke: #ffffff; stroke-linejoin: miter"/>
   </g>
   <g id="patch_164">
    <path d="M 306.019375 74.324062 
L 333.919375 74.324062 
L 333.919375 46.604062 
L 306.019375 46.604062 
z
" clip-path="url(#pec415d40c6)" style="fill: #ffffff; stroke: #ffffff; stroke-linejoin: miter"/>
   </g>
   <g id="patch_165">
    <path d="M 306.019375 102.044062 
L 333.919375 102.044062 
L 333.919375 74.324062 
L 306.019375 74.324062 
z
" clip-path="url(#pec415d40c6)" style="fill: #ffffff; stroke: #ffffff; stroke-linejoin: miter"/>
   </g>
   <g id="patch_166">
    <path d="M 306.019375 129.764062 
L 333.919375 129.764062 
L 333.919375 102.044062 
L 306.019375 102.044062 
z
" clip-path="url(#pec415d40c6)" style="fill: #ffffff; stroke: #ffffff; stroke-linejoin: miter"/>
   </g>
   <g id="patch_167">
    <path d="M 306.019375 157.484062 
L 333.919375 157.484062 
L 333.919375 129.764062 
L 306.019375 129.764062 
z
" clip-path="url(#pec415d40c6)" style="fill: #ffffff; stroke: #ffffff; stroke-linejoin: miter"/>
   </g>
   <g id="patch_168">
    <path d="M 306.019375 185.204062 
L 333.919375 185.204062 
L 333.919375 157.484062 
L 306.019375 157.484062 
z
" clip-path="url(#pec415d40c6)" style="fill: #ffffff; stroke: #ffffff; stroke-linejoin: miter"/>
   </g>
   <g id="patch_169">
    <path d="M 306.019375 212.924062 
L 333.919375 212.924062 
L 333.919375 185.204062 
L 306.019375 185.204062 
z
" clip-path="url(#pec415d40c6)" style="fill: #ffffff; stroke: #ffffff; stroke-linejoin: miter"/>
   </g>
   <g id="patch_170">
    <path d="M 306.019375 240.644062 
L 333.919375 240.644062 
L 333.919375 212.924062 
L 306.019375 212.924062 
z
" clip-path="url(#pec415d40c6)" style="fill: #a6d854; stroke: #ffffff; stroke-linejoin: miter"/>
   </g>
   <g id="patch_171">
    <path d="M 306.019375 268.364062 
L 333.919375 268.364062 
L 333.919375 240.644062 
L 306.019375 240.644062 
z
" clip-path="url(#pec415d40c6)" style="fill: #ffffff; stroke: #ffffff; stroke-linejoin: miter"/>
   </g>
   <g id="patch_172">
    <path d="M 306.019375 296.084062 
L 333.919375 296.084062 
L 333.919375 268.364062 
L 306.019375 268.364062 
z
" clip-path="url(#pec415d40c6)" style="fill: #ffffff; stroke: #ffffff; stroke-linejoin: miter"/>
   </g>
   <g id="patch_173">
    <path d="M 306.019375 323.804062 
L 333.919375 323.804062 
L 333.919375 296.084062 
L 306.019375 296.084062 
z
" clip-path="url(#pec415d40c6)" style="fill: #ffffff; stroke: #ffffff; stroke-linejoin: miter"/>
   </g>
   <g id="patch_174">
    <path d="M 306.019375 351.524062 
L 333.919375 351.524062 
L 333.919375 323.804062 
L 306.019375 323.804062 
z
" clip-path="url(#pec415d40c6)" style="fill: #ffffff; stroke: #ffffff; stroke-linejoin: miter"/>
   </g>
   <g id="patch_175">
    <path d="M 306.019375 379.244062 
L 333.919375 379.244062 
L 333.919375 351.524062 
L 306.019375 351.524062 
z
" clip-path="url(#pec415d40c6)" style="fill: #ffffff; stroke: #ffffff; stroke-linejoin: miter"/>
   </g>
   <g id="patch_176">
    <path d="M 306.019375 406.964062 
L 333.919375 406.964062 
L 333.919375 379.244062 
L 306.019375 379.244062 
z
" clip-path="url(#pec415d40c6)" style="fill: #ffffff; stroke: #ffffff; stroke-linejoin: miter"/>
   </g>
   <g id="patch_177">
    <path d="M 306.019375 434.684062 
L 333.919375 434.684062 
L 333.919375 406.964062 
L 306.019375 406.964062 
z
" clip-path="url(#pec415d40c6)" style="fill: #ffffff; stroke: #ffffff; stroke-linejoin: miter"/>
   </g>
   <g id="patch_178">
    <path d="M 306.019375 462.404062 
L 333.919375 462.404062 
L 333.919375 434.684062 
L 306.019375 434.684062 
z
" clip-path="url(#pec415d40c6)" style="fill: #ffffff; stroke: #ffffff; stroke-linejoin: miter"/>
   </g>
   <g id="patch_179">
    <path d="M 333.919375 46.604062 
L 361.819375 46.604062 
L 361.819375 18.884062 
L 333.919375 18.884062 
z
" clip-path="url(#pec415d40c6)" style="fill: #ffffff; stroke: #ffffff; stroke-linejoin: miter"/>
   </g>
   <g id="patch_180">
    <path d="M 333.919375 74.324062 
L 361.819375 74.324062 
L 361.819375 46.604062 
L 333.919375 46.604062 
z
" clip-path="url(#pec415d40c6)" style="fill: #ffffff; stroke: #ffffff; stroke-linejoin: miter"/>
   </g>
   <g id="patch_181">
    <path d="M 333.919375 102.044062 
L 361.819375 102.044062 
L 361.819375 74.324062 
L 333.919375 74.324062 
z
" clip-path="url(#pec415d40c6)" style="fill: #ffffff; stroke: #ffffff; stroke-linejoin: miter"/>
   </g>
   <g id="patch_182">
    <path d="M 333.919375 129.764062 
L 361.819375 129.764062 
L 361.819375 102.044062 
L 333.919375 102.044062 
z
" clip-path="url(#pec415d40c6)" style="fill: #ffffff; stroke: #ffffff; stroke-linejoin: miter"/>
   </g>
   <g id="patch_183">
    <path d="M 333.919375 157.484062 
L 361.819375 157.484062 
L 361.819375 129.764062 
L 333.919375 129.764062 
z
" clip-path="url(#pec415d40c6)" style="fill: #a6d854; stroke: #ffffff; stroke-linejoin: miter"/>
   </g>
   <g id="patch_184">
    <path d="M 333.919375 185.204062 
L 361.819375 185.204062 
L 361.819375 157.484062 
L 333.919375 157.484062 
z
" clip-path="url(#pec415d40c6)" style="fill: #ffffff; stroke: #ffffff; stroke-linejoin: miter"/>
   </g>
   <g id="patch_185">
    <path d="M 333.919375 212.924062 
L 361.819375 212.924062 
L 361.819375 185.204062 
L 333.919375 185.204062 
z
" clip-path="url(#pec415d40c6)" style="fill: #ffffff; stroke: #ffffff; stroke-linejoin: miter"/>
   </g>
   <g id="patch_186">
    <path d="M 333.919375 240.644062 
L 361.819375 240.644062 
L 361.819375 212.924062 
L 333.919375 212.924062 
z
" clip-path="url(#pec415d40c6)" style="fill: #ffffff; stroke: #ffffff; stroke-linejoin: miter"/>
   </g>
   <g id="patch_187">
    <path d="M 333.919375 268.364062 
L 361.819375 268.364062 
L 361.819375 240.644062 
L 333.919375 240.644062 
z
" clip-path="url(#pec415d40c6)" style="fill: #ffffff; stroke: #ffffff; stroke-linejoin: miter"/>
   </g>
   <g id="patch_188">
    <path d="M 333.919375 296.084062 
L 361.819375 296.084062 
L 361.819375 268.364062 
L 333.919375 268.364062 
z
" clip-path="url(#pec415d40c6)" style="fill: #ffffff; stroke: #ffffff; stroke-linejoin: miter"/>
   </g>
   <g id="patch_189">
    <path d="M 333.919375 323.804062 
L 361.819375 323.804062 
L 361.819375 296.084062 
L 333.919375 296.084062 
z
" clip-path="url(#pec415d40c6)" style="fill: #ffffff; stroke: #ffffff; stroke-linejoin: miter"/>
   </g>
   <g id="patch_190">
    <path d="M 333.919375 351.524062 
L 361.819375 351.524062 
L 361.819375 323.804062 
L 333.919375 323.804062 
z
" clip-path="url(#pec415d40c6)" style="fill: #ffffff; stroke: #ffffff; stroke-linejoin: miter"/>
   </g>
   <g id="patch_191">
    <path d="M 333.919375 379.244062 
L 361.819375 379.244062 
L 361.819375 351.524062 
L 333.919375 351.524062 
z
" clip-path="url(#pec415d40c6)" style="fill: #a6d854; stroke: #ffffff; stroke-linejoin: miter"/>
   </g>
   <g id="patch_192">
    <path d="M 333.919375 406.964062 
L 361.819375 406.964062 
L 361.819375 379.244062 
L 333.919375 379.244062 
z
" clip-path="url(#pec415d40c6)" style="fill: #ffffff; stroke: #ffffff; stroke-linejoin: miter"/>
   </g>
   <g id="patch_193">
    <path d="M 333.919375 434.684062 
L 361.819375 434.684062 
L 361.819375 406.964062 
L 333.919375 406.964062 
z
" clip-path="url(#pec415d40c6)" style="fill: #ffffff; stroke: #ffffff; stroke-linejoin: miter"/>
   </g>
   <g id="patch_194">
    <path d="M 333.919375 462.404062 
L 361.819375 462.404062 
L 361.819375 434.684062 
L 333.919375 434.684062 
z
" clip-path="url(#pec415d40c6)" style="fill: #ffffff; stroke: #ffffff; stroke-linejoin: miter"/>
   </g>
   <g id="patch_195">
    <path d="M 361.819375 46.604062 
L 389.719375 46.604062 
L 389.719375 18.884062 
L 361.819375 18.884062 
z
" clip-path="url(#pec415d40c6)" style="fill: #ffffff; stroke: #ffffff; stroke-linejoin: miter"/>
   </g>
   <g id="patch_196">
    <path d="M 361.819375 74.324062 
L 389.719375 74.324062 
L 389.719375 46.604062 
L 361.819375 46.604062 
z
" clip-path="url(#pec415d40c6)" style="fill: #ffffff; stroke: #ffffff; stroke-linejoin: miter"/>
   </g>
   <g id="patch_197">
    <path d="M 361.819375 102.044062 
L 389.719375 102.044062 
L 389.719375 74.324062 
L 361.819375 74.324062 
z
" clip-path="url(#pec415d40c6)" style="fill: #ffffff; stroke: #ffffff; stroke-linejoin: miter"/>
   </g>
   <g id="patch_198">
    <path d="M 361.819375 129.764062 
L 389.719375 129.764062 
L 389.719375 102.044062 
L 361.819375 102.044062 
z
" clip-path="url(#pec415d40c6)" style="fill: #ffffff; stroke: #ffffff; stroke-linejoin: miter"/>
   </g>
   <g id="patch_199">
    <path d="M 361.819375 157.484062 
L 389.719375 157.484062 
L 389.719375 129.764062 
L 361.819375 129.764062 
z
" clip-path="url(#pec415d40c6)" style="fill: #ffffff; stroke: #ffffff; stroke-linejoin: miter"/>
   </g>
   <g id="patch_200">
    <path d="M 361.819375 185.204062 
L 389.719375 185.204062 
L 389.719375 157.484062 
L 361.819375 157.484062 
z
" clip-path="url(#pec415d40c6)" style="fill: #ffffff; stroke: #ffffff; stroke-linejoin: miter"/>
   </g>
   <g id="patch_201">
    <path d="M 361.819375 212.924062 
L 389.719375 212.924062 
L 389.719375 185.204062 
L 361.819375 185.204062 
z
" clip-path="url(#pec415d40c6)" style="fill: #ffffff; stroke: #ffffff; stroke-linejoin: miter"/>
   </g>
   <g id="patch_202">
    <path d="M 361.819375 240.644062 
L 389.719375 240.644062 
L 389.719375 212.924062 
L 361.819375 212.924062 
z
" clip-path="url(#pec415d40c6)" style="fill: #ffffff; stroke: #ffffff; stroke-linejoin: miter"/>
   </g>
   <g id="patch_203">
    <path d="M 361.819375 268.364062 
L 389.719375 268.364062 
L 389.719375 240.644062 
L 361.819375 240.644062 
z
" clip-path="url(#pec415d40c6)" style="fill: #ffffff; stroke: #ffffff; stroke-linejoin: miter"/>
   </g>
   <g id="patch_204">
    <path d="M 361.819375 296.084062 
L 389.719375 296.084062 
L 389.719375 268.364062 
L 361.819375 268.364062 
z
" clip-path="url(#pec415d40c6)" style="fill: #ffffff; stroke: #ffffff; stroke-linejoin: miter"/>
   </g>
   <g id="patch_205">
    <path d="M 361.819375 323.804062 
L 389.719375 323.804062 
L 389.719375 296.084062 
L 361.819375 296.084062 
z
" clip-path="url(#pec415d40c6)" style="fill: #ffffff; stroke: #ffffff; stroke-linejoin: miter"/>
   </g>
   <g id="patch_206">
    <path d="M 361.819375 351.524062 
L 389.719375 351.524062 
L 389.719375 323.804062 
L 361.819375 323.804062 
z
" clip-path="url(#pec415d40c6)" style="fill: #a6d854; stroke: #ffffff; stroke-linejoin: miter"/>
   </g>
   <g id="patch_207">
    <path d="M 361.819375 379.244062 
L 389.719375 379.244062 
L 389.719375 351.524062 
L 361.819375 351.524062 
z
" clip-path="url(#pec415d40c6)" style="fill: #ffffff; stroke: #ffffff; stroke-linejoin: miter"/>
   </g>
   <g id="patch_208">
    <path d="M 361.819375 406.964062 
L 389.719375 406.964062 
L 389.719375 379.244062 
L 361.819375 379.244062 
z
" clip-path="url(#pec415d40c6)" style="fill: #a6d854; stroke: #ffffff; stroke-linejoin: miter"/>
   </g>
   <g id="patch_209">
    <path d="M 361.819375 434.684062 
L 389.719375 434.684062 
L 389.719375 406.964062 
L 361.819375 406.964062 
z
" clip-path="url(#pec415d40c6)" style="fill: #a6d854; stroke: #ffffff; stroke-linejoin: miter"/>
   </g>
   <g id="patch_210">
    <path d="M 361.819375 462.404062 
L 389.719375 462.404062 
L 389.719375 434.684062 
L 361.819375 434.684062 
z
" clip-path="url(#pec415d40c6)" style="fill: #ffffff; stroke: #ffffff; stroke-linejoin: miter"/>
   </g>
   <g id="patch_211">
    <path d="M 389.719375 46.604062 
L 417.619375 46.604062 
L 417.619375 18.884062 
L 389.719375 18.884062 
z
" clip-path="url(#pec415d40c6)" style="fill: #ffffff; stroke: #ffffff; stroke-linejoin: miter"/>
   </g>
   <g id="patch_212">
    <path d="M 389.719375 74.324062 
L 417.619375 74.324062 
L 417.619375 46.604062 
L 389.719375 46.604062 
z
" clip-path="url(#pec415d40c6)" style="fill: #ffffff; stroke: #ffffff; stroke-linejoin: miter"/>
   </g>
   <g id="patch_213">
    <path d="M 389.719375 102.044062 
L 417.619375 102.044062 
L 417.619375 74.324062 
L 389.719375 74.324062 
z
" clip-path="url(#pec415d40c6)" style="fill: #ffffff; stroke: #ffffff; stroke-linejoin: miter"/>
   </g>
   <g id="patch_214">
    <path d="M 389.719375 129.764062 
L 417.619375 129.764062 
L 417.619375 102.044062 
L 389.719375 102.044062 
z
" clip-path="url(#pec415d40c6)" style="fill: #ffffff; stroke: #ffffff; stroke-linejoin: miter"/>
   </g>
   <g id="patch_215">
    <path d="M 389.719375 157.484062 
L 417.619375 157.484062 
L 417.619375 129.764062 
L 389.719375 129.764062 
z
" clip-path="url(#pec415d40c6)" style="fill: #ffffff; stroke: #ffffff; stroke-linejoin: miter"/>
   </g>
   <g id="patch_216">
    <path d="M 389.719375 185.204062 
L 417.619375 185.204062 
L 417.619375 157.484062 
L 389.719375 157.484062 
z
" clip-path="url(#pec415d40c6)" style="fill: #ffffff; stroke: #ffffff; stroke-linejoin: miter"/>
   </g>
   <g id="patch_217">
    <path d="M 389.719375 212.924062 
L 417.619375 212.924062 
L 417.619375 185.204062 
L 389.719375 185.204062 
z
" clip-path="url(#pec415d40c6)" style="fill: #ffffff; stroke: #ffffff; stroke-linejoin: miter"/>
   </g>
   <g id="patch_218">
    <path d="M 389.719375 240.644062 
L 417.619375 240.644062 
L 417.619375 212.924062 
L 389.719375 212.924062 
z
" clip-path="url(#pec415d40c6)" style="fill: #ffffff; stroke: #ffffff; stroke-linejoin: miter"/>
   </g>
   <g id="patch_219">
    <path d="M 389.719375 268.364062 
L 417.619375 268.364062 
L 417.619375 240.644062 
L 389.719375 240.644062 
z
" clip-path="url(#pec415d40c6)" style="fill: #ffffff; stroke: #ffffff; stroke-linejoin: miter"/>
   </g>
   <g id="patch_220">
    <path d="M 389.719375 296.084062 
L 417.619375 296.084062 
L 417.619375 268.364062 
L 389.719375 268.364062 
z
" clip-path="url(#pec415d40c6)" style="fill: #ffffff; stroke: #ffffff; stroke-linejoin: miter"/>
   </g>
   <g id="patch_221">
    <path d="M 389.719375 323.804062 
L 417.619375 323.804062 
L 417.619375 296.084062 
L 389.719375 296.084062 
z
" clip-path="url(#pec415d40c6)" style="fill: #ffffff; stroke: #ffffff; stroke-linejoin: miter"/>
   </g>
   <g id="patch_222">
    <path d="M 389.719375 351.524062 
L 417.619375 351.524062 
L 417.619375 323.804062 
L 389.719375 323.804062 
z
" clip-path="url(#pec415d40c6)" style="fill: #ffffff; stroke: #ffffff; stroke-linejoin: miter"/>
   </g>
   <g id="patch_223">
    <path d="M 389.719375 379.244062 
L 417.619375 379.244062 
L 417.619375 351.524062 
L 389.719375 351.524062 
z
" clip-path="url(#pec415d40c6)" style="fill: #a6d854; stroke: #ffffff; stroke-linejoin: miter"/>
   </g>
   <g id="patch_224">
    <path d="M 389.719375 406.964062 
L 417.619375 406.964062 
L 417.619375 379.244062 
L 389.719375 379.244062 
z
" clip-path="url(#pec415d40c6)" style="fill: #ffffff; stroke: #ffffff; stroke-linejoin: miter"/>
   </g>
   <g id="patch_225">
    <path d="M 389.719375 434.684062 
L 417.619375 434.684062 
L 417.619375 406.964062 
L 389.719375 406.964062 
z
" clip-path="url(#pec415d40c6)" style="fill: #ffffff; stroke: #ffffff; stroke-linejoin: miter"/>
   </g>
   <g id="patch_226">
    <path d="M 389.719375 462.404062 
L 417.619375 462.404062 
L 417.619375 434.684062 
L 389.719375 434.684062 
z
" clip-path="url(#pec415d40c6)" style="fill: #ffffff; stroke: #ffffff; stroke-linejoin: miter"/>
   </g>
   <g id="patch_227">
    <path d="M 417.619375 46.604062 
L 445.519375 46.604062 
L 445.519375 18.884062 
L 417.619375 18.884062 
z
" clip-path="url(#pec415d40c6)" style="fill: #ffffff; stroke: #ffffff; stroke-linejoin: miter"/>
   </g>
   <g id="patch_228">
    <path d="M 417.619375 74.324062 
L 445.519375 74.324062 
L 445.519375 46.604062 
L 417.619375 46.604062 
z
" clip-path="url(#pec415d40c6)" style="fill: #a6d854; stroke: #ffffff; stroke-linejoin: miter"/>
   </g>
   <g id="patch_229">
    <path d="M 417.619375 102.044062 
L 445.519375 102.044062 
L 445.519375 74.324062 
L 417.619375 74.324062 
z
" clip-path="url(#pec415d40c6)" style="fill: #ffffff; stroke: #ffffff; stroke-linejoin: miter"/>
   </g>
   <g id="patch_230">
    <path d="M 417.619375 129.764062 
L 445.519375 129.764062 
L 445.519375 102.044062 
L 417.619375 102.044062 
z
" clip-path="url(#pec415d40c6)" style="fill: #ffffff; stroke: #ffffff; stroke-linejoin: miter"/>
   </g>
   <g id="patch_231">
    <path d="M 417.619375 157.484062 
L 445.519375 157.484062 
L 445.519375 129.764062 
L 417.619375 129.764062 
z
" clip-path="url(#pec415d40c6)" style="fill: #ffffff; stroke: #ffffff; stroke-linejoin: miter"/>
   </g>
   <g id="patch_232">
    <path d="M 417.619375 185.204062 
L 445.519375 185.204062 
L 445.519375 157.484062 
L 417.619375 157.484062 
z
" clip-path="url(#pec415d40c6)" style="fill: #ffffff; stroke: #ffffff; stroke-linejoin: miter"/>
   </g>
   <g id="patch_233">
    <path d="M 417.619375 212.924062 
L 445.519375 212.924062 
L 445.519375 185.204062 
L 417.619375 185.204062 
z
" clip-path="url(#pec415d40c6)" style="fill: #ffffff; stroke: #ffffff; stroke-linejoin: miter"/>
   </g>
   <g id="patch_234">
    <path d="M 417.619375 240.644062 
L 445.519375 240.644062 
L 445.519375 212.924062 
L 417.619375 212.924062 
z
" clip-path="url(#pec415d40c6)" style="fill: #ffffff; stroke: #ffffff; stroke-linejoin: miter"/>
   </g>
   <g id="patch_235">
    <path d="M 417.619375 268.364062 
L 445.519375 268.364062 
L 445.519375 240.644062 
L 417.619375 240.644062 
z
" clip-path="url(#pec415d40c6)" style="fill: #ffffff; stroke: #ffffff; stroke-linejoin: miter"/>
   </g>
   <g id="patch_236">
    <path d="M 417.619375 296.084062 
L 445.519375 296.084062 
L 445.519375 268.364062 
L 417.619375 268.364062 
z
" clip-path="url(#pec415d40c6)" style="fill: #ffffff; stroke: #ffffff; stroke-linejoin: miter"/>
   </g>
   <g id="patch_237">
    <path d="M 417.619375 323.804062 
L 445.519375 323.804062 
L 445.519375 296.084062 
L 417.619375 296.084062 
z
" clip-path="url(#pec415d40c6)" style="fill: #ffffff; stroke: #ffffff; stroke-linejoin: miter"/>
   </g>
   <g id="patch_238">
    <path d="M 417.619375 351.524062 
L 445.519375 351.524062 
L 445.519375 323.804062 
L 417.619375 323.804062 
z
" clip-path="url(#pec415d40c6)" style="fill: #ffffff; stroke: #ffffff; stroke-linejoin: miter"/>
   </g>
   <g id="patch_239">
    <path d="M 417.619375 379.244062 
L 445.519375 379.244062 
L 445.519375 351.524062 
L 417.619375 351.524062 
z
" clip-path="url(#pec415d40c6)" style="fill: #a6d854; stroke: #ffffff; stroke-linejoin: miter"/>
   </g>
   <g id="patch_240">
    <path d="M 417.619375 406.964062 
L 445.519375 406.964062 
L 445.519375 379.244062 
L 417.619375 379.244062 
z
" clip-path="url(#pec415d40c6)" style="fill: #ffffff; stroke: #ffffff; stroke-linejoin: miter"/>
   </g>
   <g id="patch_241">
    <path d="M 417.619375 434.684062 
L 445.519375 434.684062 
L 445.519375 406.964062 
L 417.619375 406.964062 
z
" clip-path="url(#pec415d40c6)" style="fill: #ffffff; stroke: #ffffff; stroke-linejoin: miter"/>
   </g>
   <g id="patch_242">
    <path d="M 417.619375 462.404062 
L 445.519375 462.404062 
L 445.519375 434.684062 
L 417.619375 434.684062 
z
" clip-path="url(#pec415d40c6)" style="fill: #a6d854; stroke: #ffffff; stroke-linejoin: miter"/>
   </g>
   <g id="patch_243">
    <path d="M 445.519375 46.604062 
L 473.419375 46.604062 
L 473.419375 18.884062 
L 445.519375 18.884062 
z
" clip-path="url(#pec415d40c6)" style="fill: #ffffff; stroke: #ffffff; stroke-linejoin: miter"/>
   </g>
   <g id="patch_244">
    <path d="M 445.519375 74.324062 
L 473.419375 74.324062 
L 473.419375 46.604062 
L 445.519375 46.604062 
z
" clip-path="url(#pec415d40c6)" style="fill: #ffffff; stroke: #ffffff; stroke-linejoin: miter"/>
   </g>
   <g id="patch_245">
    <path d="M 445.519375 102.044062 
L 473.419375 102.044062 
L 473.419375 74.324062 
L 445.519375 74.324062 
z
" clip-path="url(#pec415d40c6)" style="fill: #ffffff; stroke: #ffffff; stroke-linejoin: miter"/>
   </g>
   <g id="patch_246">
    <path d="M 445.519375 129.764062 
L 473.419375 129.764062 
L 473.419375 102.044062 
L 445.519375 102.044062 
z
" clip-path="url(#pec415d40c6)" style="fill: #ffffff; stroke: #ffffff; stroke-linejoin: miter"/>
   </g>
   <g id="patch_247">
    <path d="M 445.519375 157.484062 
L 473.419375 157.484062 
L 473.419375 129.764062 
L 445.519375 129.764062 
z
" clip-path="url(#pec415d40c6)" style="fill: #ffffff; stroke: #ffffff; stroke-linejoin: miter"/>
   </g>
   <g id="patch_248">
    <path d="M 445.519375 185.204062 
L 473.419375 185.204062 
L 473.419375 157.484062 
L 445.519375 157.484062 
z
" clip-path="url(#pec415d40c6)" style="fill: #ffffff; stroke: #ffffff; stroke-linejoin: miter"/>
   </g>
   <g id="patch_249">
    <path d="M 445.519375 212.924062 
L 473.419375 212.924062 
L 473.419375 185.204062 
L 445.519375 185.204062 
z
" clip-path="url(#pec415d40c6)" style="fill: #ffffff; stroke: #ffffff; stroke-linejoin: miter"/>
   </g>
   <g id="patch_250">
    <path d="M 445.519375 240.644062 
L 473.419375 240.644062 
L 473.419375 212.924062 
L 445.519375 212.924062 
z
" clip-path="url(#pec415d40c6)" style="fill: #ffffff; stroke: #ffffff; stroke-linejoin: miter"/>
   </g>
   <g id="patch_251">
    <path d="M 445.519375 268.364062 
L 473.419375 268.364062 
L 473.419375 240.644062 
L 445.519375 240.644062 
z
" clip-path="url(#pec415d40c6)" style="fill: #ffffff; stroke: #ffffff; stroke-linejoin: miter"/>
   </g>
   <g id="patch_252">
    <path d="M 445.519375 296.084062 
L 473.419375 296.084062 
L 473.419375 268.364062 
L 445.519375 268.364062 
z
" clip-path="url(#pec415d40c6)" style="fill: #ffffff; stroke: #ffffff; stroke-linejoin: miter"/>
   </g>
   <g id="patch_253">
    <path d="M 445.519375 323.804062 
L 473.419375 323.804062 
L 473.419375 296.084062 
L 445.519375 296.084062 
z
" clip-path="url(#pec415d40c6)" style="fill: #ffffff; stroke: #ffffff; stroke-linejoin: miter"/>
   </g>
   <g id="patch_254">
    <path d="M 445.519375 351.524062 
L 473.419375 351.524062 
L 473.419375 323.804062 
L 445.519375 323.804062 
z
" clip-path="url(#pec415d40c6)" style="fill: #ffffff; stroke: #ffffff; stroke-linejoin: miter"/>
   </g>
   <g id="patch_255">
    <path d="M 445.519375 379.244062 
L 473.419375 379.244062 
L 473.419375 351.524062 
L 445.519375 351.524062 
z
" clip-path="url(#pec415d40c6)" style="fill: #ffffff; stroke: #ffffff; stroke-linejoin: miter"/>
   </g>
   <g id="patch_256">
    <path d="M 445.519375 406.964062 
L 473.419375 406.964062 
L 473.419375 379.244062 
L 445.519375 379.244062 
z
" clip-path="url(#pec415d40c6)" style="fill: #ffffff; stroke: #ffffff; stroke-linejoin: miter"/>
   </g>
   <g id="patch_257">
    <path d="M 445.519375 434.684062 
L 473.419375 434.684062 
L 473.419375 406.964062 
L 445.519375 406.964062 
z
" clip-path="url(#pec415d40c6)" style="fill: #a6d854; stroke: #ffffff; stroke-linejoin: miter"/>
   </g>
   <g id="patch_258">
    <path d="M 445.519375 462.404062 
L 473.419375 462.404062 
L 473.419375 434.684062 
L 445.519375 434.684062 
z
" clip-path="url(#pec415d40c6)" style="fill: #ffffff; stroke: #ffffff; stroke-linejoin: miter"/>
   </g>
   <g id="patch_259">
    <path d="M 27.019375 462.404062 
L 27.019375 18.884062 
" style="fill: none; stroke: #a6d854; stroke-width: 2; stroke-linejoin: miter; stroke-linecap: square"/>
   </g>
   <g id="patch_260">
    <path d="M 473.419375 462.404062 
L 473.419375 18.884062 
" style="fill: none; stroke: #a6d854; stroke-width: 2; stroke-linejoin: miter; stroke-linecap: square"/>
   </g>
   <g id="patch_261">
    <path d="M 27.019375 462.404062 
L 473.419375 462.404062 
" style="fill: none; stroke: #a6d854; stroke-width: 2; stroke-linejoin: miter; stroke-linecap: square"/>
   </g>
   <g id="patch_262">
    <path d="M 27.019375 18.884062 
L 473.419375 18.884062 
" style="fill: none; stroke: #a6d854; stroke-width: 2; stroke-linejoin: miter; stroke-linecap: square"/>
   </g>
   <g id="text_17">
    <!-- 16x16 -->
    <g style="fill: #a6d854" transform="translate(225.7 12.884062) scale(0.18 -0.18)">
     <defs>
      <path id="ArialMT-78" d="M 47 0 
L 1259 1725 
L 138 3319 
L 841 3319 
L 1350 2541 
Q 1494 2319 1581 2169 
Q 1719 2375 1834 2534 
L 2394 3319 
L 3066 3319 
L 1919 1756 
L 3153 0 
L 2463 0 
L 1781 1031 
L 1600 1309 
L 728 0 
L 47 0 
z
" transform="scale(0.015625)"/>
     </defs>
     <use xlink:href="#ArialMT-31"/>
     <use xlink:href="#ArialMT-36" x="55.615234"/>
     <use xlink:href="#ArialMT-78" x="111.230469"/>
     <use xlink:href="#ArialMT-31" x="161.230469"/>
     <use xlink:href="#ArialMT-36" x="216.845703"/>
    </g>
   </g>
  </g>
 </g>
 <defs>
  <clipPath id="pec415d40c6">
   <rect x="27.019375" y="18.884062" width="446.4" height="443.52"/>
  </clipPath>
 </defs>
</svg>
