<?xml version="1.0" encoding="utf-8" standalone="no"?>
<!DOCTYPE svg PUBLIC "-//W3C//DTD SVG 1.1//EN"
  "http://www.w3.org/Graphics/SVG/1.1/DTD/svg11.dtd">
<svg xmlns:xlink="http://www.w3.org/1999/xlink" width="494.523437pt" height="55.44pt" viewBox="0 0 494.523437 55.44" xmlns="http://www.w3.org/2000/svg" version="1.1">
 <metadata>
  <rdf:RDF xmlns:dc="http://purl.org/dc/elements/1.1/" xmlns:cc="http://creativecommons.org/ns#" xmlns:rdf="http://www.w3.org/1999/02/22-rdf-syntax-ns#">
   <cc:Work>
    <dc:type rdf:resource="http://purl.org/dc/dcmitype/StillImage"/>
    <dc:date>2024-12-20T11:58:04.687762</dc:date>
    <dc:format>image/svg+xml</dc:format>
    <dc:creator>
     <cc:Agent>
      <dc:title>Matplotlib v3.9.2, https://matplotlib.org/</dc:title>
     </cc:Agent>
    </dc:creator>
   </cc:Work>
  </rdf:RDF>
 </metadata>
 <defs>
  <style type="text/css">*{stroke-linejoin: round; stroke-linecap: butt}</style>
 </defs>
 <g id="figure_1">
  <g id="patch_1">
   <path d="M 0 55.44 
L 494.523437 55.44 
L 494.523437 0 
L 0 0 
L 0 55.44 
z
" style="fill: none"/>
  </g>
  <g id="axes_1">
   <g id="patch_2">
    <path d="M 48.123438 55.44 
L 494.523438 55.44 
L 494.523438 -0 
L 48.123438 -0 
L 48.123438 55.44 
z
" style="fill: none"/>
   </g>
   <g id="matplotlib.axis_1"/>
   <g id="matplotlib.axis_2">
    <g id="ytick_1">
     <g id="line2d_1">
      <defs>
       <path id="med9c55c2fa" d="M 0 0 
L -3.5 0 
" style="stroke: #262626; stroke-width: 0.8"/>
      </defs>
      <g>
       <use xlink:href="#med9c55c2fa" x="48.123438" y="41.58" style="fill: #262626; stroke: #262626; stroke-width: 0.8"/>
      </g>
     </g>
     <g id="text_1">
      <!-- DOUBLE -->
      <g style="fill: #262626" transform="translate(0 45.158906) scale(0.1 -0.1)">
       <defs>
        <path id="ArialMT-44" d="M 494 0 
L 494 4581 
L 2072 4581 
Q 2606 4581 2888 4516 
Q 3281 4425 3559 4188 
Q 3922 3881 4101 3404 
Q 4281 2928 4281 2316 
Q 4281 1794 4159 1391 
Q 4038 988 3847 723 
Q 3656 459 3429 307 
Q 3203 156 2883 78 
Q 2563 0 2147 0 
L 494 0 
z
M 1100 541 
L 2078 541 
Q 2531 541 2789 625 
Q 3047 709 3200 863 
Q 3416 1078 3536 1442 
Q 3656 1806 3656 2325 
Q 3656 3044 3420 3430 
Q 3184 3816 2847 3947 
Q 2603 4041 2063 4041 
L 1100 4041 
L 1100 541 
z
" transform="scale(0.015625)"/>
        <path id="ArialMT-4f" d="M 309 2231 
Q 309 3372 921 4017 
Q 1534 4663 2503 4663 
Q 3138 4663 3647 4359 
Q 4156 4056 4423 3514 
Q 4691 2972 4691 2284 
Q 4691 1588 4409 1038 
Q 4128 488 3612 205 
Q 3097 -78 2500 -78 
Q 1853 -78 1343 234 
Q 834 547 571 1087 
Q 309 1628 309 2231 
z
M 934 2222 
Q 934 1394 1379 917 
Q 1825 441 2497 441 
Q 3181 441 3623 922 
Q 4066 1403 4066 2288 
Q 4066 2847 3877 3264 
Q 3688 3681 3323 3911 
Q 2959 4141 2506 4141 
Q 1863 4141 1398 3698 
Q 934 3256 934 2222 
z
" transform="scale(0.015625)"/>
        <path id="ArialMT-55" d="M 3500 4581 
L 4106 4581 
L 4106 1934 
Q 4106 1244 3950 837 
Q 3794 431 3386 176 
Q 2978 -78 2316 -78 
Q 1672 -78 1262 144 
Q 853 366 678 786 
Q 503 1206 503 1934 
L 503 4581 
L 1109 4581 
L 1109 1938 
Q 1109 1341 1220 1058 
Q 1331 775 1601 622 
Q 1872 469 2263 469 
Q 2931 469 3215 772 
Q 3500 1075 3500 1938 
L 3500 4581 
z
" transform="scale(0.015625)"/>
        <path id="ArialMT-42" d="M 469 0 
L 469 4581 
L 2188 4581 
Q 2713 4581 3030 4442 
Q 3347 4303 3526 4014 
Q 3706 3725 3706 3409 
Q 3706 3116 3547 2856 
Q 3388 2597 3066 2438 
Q 3481 2316 3704 2022 
Q 3928 1728 3928 1328 
Q 3928 1006 3792 729 
Q 3656 453 3456 303 
Q 3256 153 2954 76 
Q 2653 0 2216 0 
L 469 0 
z
M 1075 2656 
L 2066 2656 
Q 2469 2656 2644 2709 
Q 2875 2778 2992 2937 
Q 3109 3097 3109 3338 
Q 3109 3566 3000 3739 
Q 2891 3913 2687 3977 
Q 2484 4041 1991 4041 
L 1075 4041 
L 1075 2656 
z
M 1075 541 
L 2216 541 
Q 2509 541 2628 563 
Q 2838 600 2978 687 
Q 3119 775 3209 942 
Q 3300 1109 3300 1328 
Q 3300 1584 3169 1773 
Q 3038 1963 2805 2039 
Q 2572 2116 2134 2116 
L 1075 2116 
L 1075 541 
z
" transform="scale(0.015625)"/>
        <path id="ArialMT-4c" d="M 469 0 
L 469 4581 
L 1075 4581 
L 1075 541 
L 3331 541 
L 3331 0 
L 469 0 
z
" transform="scale(0.015625)"/>
        <path id="ArialMT-45" d="M 506 0 
L 506 4581 
L 3819 4581 
L 3819 4041 
L 1113 4041 
L 1113 2638 
L 3647 2638 
L 3647 2100 
L 1113 2100 
L 1113 541 
L 3925 541 
L 3925 0 
L 506 0 
z
" transform="scale(0.015625)"/>
       </defs>
       <use xlink:href="#ArialMT-44"/>
       <use xlink:href="#ArialMT-4f" x="72.216797"/>
       <use xlink:href="#ArialMT-55" x="150"/>
       <use xlink:href="#ArialMT-42" x="222.216797"/>
       <use xlink:href="#ArialMT-4c" x="288.916016"/>
       <use xlink:href="#ArialMT-45" x="344.53125"/>
      </g>
     </g>
    </g>
    <g id="ytick_2">
     <g id="line2d_2">
      <g>
       <use xlink:href="#med9c55c2fa" x="48.123438" y="13.86" style="fill: #262626; stroke: #262626; stroke-width: 0.8"/>
      </g>
     </g>
     <g id="text_2">
      <!-- SINGLE -->
      <g style="fill: #262626" transform="translate(4.44375 17.438906) scale(0.1 -0.1)">
       <defs>
        <path id="ArialMT-53" d="M 288 1472 
L 859 1522 
Q 900 1178 1048 958 
Q 1197 738 1509 602 
Q 1822 466 2213 466 
Q 2559 466 2825 569 
Q 3091 672 3220 851 
Q 3350 1031 3350 1244 
Q 3350 1459 3225 1620 
Q 3100 1781 2813 1891 
Q 2628 1963 1997 2114 
Q 1366 2266 1113 2400 
Q 784 2572 623 2826 
Q 463 3081 463 3397 
Q 463 3744 659 4045 
Q 856 4347 1234 4503 
Q 1613 4659 2075 4659 
Q 2584 4659 2973 4495 
Q 3363 4331 3572 4012 
Q 3781 3694 3797 3291 
L 3216 3247 
Q 3169 3681 2898 3903 
Q 2628 4125 2100 4125 
Q 1550 4125 1298 3923 
Q 1047 3722 1047 3438 
Q 1047 3191 1225 3031 
Q 1400 2872 2139 2705 
Q 2878 2538 3153 2413 
Q 3553 2228 3743 1945 
Q 3934 1663 3934 1294 
Q 3934 928 3725 604 
Q 3516 281 3123 101 
Q 2731 -78 2241 -78 
Q 1619 -78 1198 103 
Q 778 284 539 648 
Q 300 1013 288 1472 
z
" transform="scale(0.015625)"/>
        <path id="ArialMT-49" d="M 597 0 
L 597 4581 
L 1203 4581 
L 1203 0 
L 597 0 
z
" transform="scale(0.015625)"/>
        <path id="ArialMT-4e" d="M 488 0 
L 488 4581 
L 1109 4581 
L 3516 984 
L 3516 4581 
L 4097 4581 
L 4097 0 
L 3475 0 
L 1069 3600 
L 1069 0 
L 488 0 
z
" transform="scale(0.015625)"/>
        <path id="ArialMT-47" d="M 2638 1797 
L 2638 2334 
L 4578 2338 
L 4578 638 
Q 4131 281 3656 101 
Q 3181 -78 2681 -78 
Q 2006 -78 1454 211 
Q 903 500 622 1047 
Q 341 1594 341 2269 
Q 341 2938 620 3517 
Q 900 4097 1425 4378 
Q 1950 4659 2634 4659 
Q 3131 4659 3532 4498 
Q 3934 4338 4162 4050 
Q 4391 3763 4509 3300 
L 3963 3150 
Q 3859 3500 3706 3700 
Q 3553 3900 3268 4020 
Q 2984 4141 2638 4141 
Q 2222 4141 1919 4014 
Q 1616 3888 1430 3681 
Q 1244 3475 1141 3228 
Q 966 2803 966 2306 
Q 966 1694 1177 1281 
Q 1388 869 1791 669 
Q 2194 469 2647 469 
Q 3041 469 3416 620 
Q 3791 772 3984 944 
L 3984 1797 
L 2638 1797 
z
" transform="scale(0.015625)"/>
       </defs>
       <use xlink:href="#ArialMT-53"/>
       <use xlink:href="#ArialMT-49" x="66.699219"/>
       <use xlink:href="#ArialMT-4e" x="94.482422"/>
       <use xlink:href="#ArialMT-47" x="166.699219"/>
       <use xlink:href="#ArialMT-4c" x="244.482422"/>
       <use xlink:href="#ArialMT-45" x="300.097656"/>
      </g>
     </g>
    </g>
   </g>
   <g id="patch_3">
    <path d="M 48.123438 27.72 
L 76.023438 27.72 
L 76.023438 -0 
L 48.123438 -0 
z
" clip-path="url(#pa3c5808962)" style="fill: #4c9ee0; stroke: #ffffff; stroke-linejoin: miter"/>
   </g>
   <g id="patch_4">
    <path d="M 48.123438 55.44 
L 76.023438 55.44 
L 76.023438 27.72 
L 48.123438 27.72 
z
" clip-path="url(#pa3c5808962)" style="fill: #ffffff; stroke: #ffffff; stroke-linejoin: miter"/>
   </g>
   <g id="patch_5">
    <path d="M 76.023438 27.72 
L 103.923438 27.72 
L 103.923438 -0 
L 76.023438 -0 
z
" clip-path="url(#pa3c5808962)" style="fill: #4c9ee0; stroke: #ffffff; stroke-linejoin: miter"/>
   </g>
   <g id="patch_6">
    <path d="M 76.023438 55.44 
L 103.923438 55.44 
L 103.923438 27.72 
L 76.023438 27.72 
z
" clip-path="url(#pa3c5808962)" style="fill: #ffffff; stroke: #ffffff; stroke-linejoin: miter"/>
   </g>
   <g id="patch_7">
    <path d="M 103.923438 27.72 
L 131.823438 27.72 
L 131.823438 -0 
L 103.923438 -0 
z
" clip-path="url(#pa3c5808962)" style="fill: #4c9ee0; stroke: #ffffff; stroke-linejoin: miter"/>
   </g>
   <g id="patch_8">
    <path d="M 103.923438 55.44 
L 131.823438 55.44 
L 131.823438 27.72 
L 103.923438 27.72 
z
" clip-path="url(#pa3c5808962)" style="fill: #ffffff; stroke: #ffffff; stroke-linejoin: miter"/>
   </g>
   <g id="patch_9">
    <path d="M 131.823438 27.72 
L 159.723438 27.72 
L 159.723438 -0 
L 131.823438 -0 
z
" clip-path="url(#pa3c5808962)" style="fill: #4c9ee0; stroke: #ffffff; stroke-linejoin: miter"/>
   </g>
   <g id="patch_10">
    <path d="M 131.823438 55.44 
L 159.723438 55.44 
L 159.723438 27.72 
L 131.823438 27.72 
z
" clip-path="url(#pa3c5808962)" style="fill: #ffffff; stroke: #ffffff; stroke-linejoin: miter"/>
   </g>
   <g id="patch_11">
    <path d="M 159.723437 27.72 
L 187.623437 27.72 
L 187.623437 -0 
L 159.723437 -0 
z
" clip-path="url(#pa3c5808962)" style="fill: #4c9ee0; stroke: #ffffff; stroke-linejoin: miter"/>
   </g>
   <g id="patch_12">
    <path d="M 159.723437 55.44 
L 187.623437 55.44 
L 187.623437 27.72 
L 159.723437 27.72 
z
" clip-path="url(#pa3c5808962)" style="fill: #ffffff; stroke: #ffffff; stroke-linejoin: miter"/>
   </g>
   <g id="patch_13">
    <path d="M 187.623438 27.72 
L 215.523438 27.72 
L 215.523438 -0 
L 187.623438 -0 
z
" clip-path="url(#pa3c5808962)" style="fill: #4c9ee0; stroke: #ffffff; stroke-linejoin: miter"/>
   </g>
   <g id="patch_14">
    <path d="M 187.623438 55.44 
L 215.523438 55.44 
L 215.523438 27.72 
L 187.623438 27.72 
z
" clip-path="url(#pa3c5808962)" style="fill: #ffffff; stroke: #ffffff; stroke-linejoin: miter"/>
   </g>
   <g id="patch_15">
    <path d="M 215.523438 27.72 
L 243.423438 27.72 
L 243.423438 -0 
L 215.523438 -0 
z
" clip-path="url(#pa3c5808962)" style="fill: #4c9ee0; stroke: #ffffff; stroke-linejoin: miter"/>
   </g>
   <g id="patch_16">
    <path d="M 215.523438 55.44 
L 243.423438 55.44 
L 243.423438 27.72 
L 215.523438 27.72 
z
" clip-path="url(#pa3c5808962)" style="fill: #ffffff; stroke: #ffffff; stroke-linejoin: miter"/>
   </g>
   <g id="patch_17">
    <path d="M 243.423437 27.72 
L 271.323437 27.72 
L 271.323437 -0 
L 243.423437 -0 
z
" clip-path="url(#pa3c5808962)" style="fill: #4c9ee0; stroke: #ffffff; stroke-linejoin: miter"/>
   </g>
   <g id="patch_18">
    <path d="M 243.423437 55.44 
L 271.323437 55.44 
L 271.323437 27.72 
L 243.423437 27.72 
z
" clip-path="url(#pa3c5808962)" style="fill: #ffffff; stroke: #ffffff; stroke-linejoin: miter"/>
   </g>
   <g id="patch_19">
    <path d="M 271.323438 27.72 
L 299.223437 27.72 
L 299.223437 -0 
L 271.323438 -0 
z
" clip-path="url(#pa3c5808962)" style="fill: #4c9ee0; stroke: #ffffff; stroke-linejoin: miter"/>
   </g>
   <g id="patch_20">
    <path d="M 271.323438 55.44 
L 299.223437 55.44 
L 299.223437 27.72 
L 271.323438 27.72 
z
" clip-path="url(#pa3c5808962)" style="fill: #ffffff; stroke: #ffffff; stroke-linejoin: miter"/>
   </g>
   <g id="patch_21">
    <path d="M 299.223437 27.72 
L 327.123437 27.72 
L 327.123437 -0 
L 299.223437 -0 
z
" clip-path="url(#pa3c5808962)" style="fill: #4c9ee0; stroke: #ffffff; stroke-linejoin: miter"/>
   </g>
   <g id="patch_22">
    <path d="M 299.223437 55.44 
L 327.123437 55.44 
L 327.123437 27.72 
L 299.223437 27.72 
z
" clip-path="url(#pa3c5808962)" style="fill: #ffffff; stroke: #ffffff; stroke-linejoin: miter"/>
   </g>
   <g id="patch_23">
    <path d="M 327.123438 27.72 
L 355.023438 27.72 
L 355.023438 -0 
L 327.123438 -0 
z
" clip-path="url(#pa3c5808962)" style="fill: #4c9ee0; stroke: #ffffff; stroke-linejoin: miter"/>
   </g>
   <g id="patch_24">
    <path d="M 327.123438 55.44 
L 355.023438 55.44 
L 355.023438 27.72 
L 327.123438 27.72 
z
" clip-path="url(#pa3c5808962)" style="fill: #ffffff; stroke: #ffffff; stroke-linejoin: miter"/>
   </g>
   <g id="patch_25">
    <path d="M 355.023438 27.72 
L 382.923437 27.72 
L 382.923437 -0 
L 355.023438 -0 
z
" clip-path="url(#pa3c5808962)" style="fill: #ffffff; stroke: #ffffff; stroke-linejoin: miter"/>
   </g>
   <g id="patch_26">
    <path d="M 355.023438 55.44 
L 382.923437 55.44 
L 382.923437 27.72 
L 355.023438 27.72 
z
" clip-path="url(#pa3c5808962)" style="fill: #3191c9; stroke: #ffffff; stroke-linejoin: miter"/>
   </g>
   <g id="patch_27">
    <path d="M 382.923437 27.72 
L 410.823437 27.72 
L 410.823437 -0 
L 382.923437 -0 
z
" clip-path="url(#pa3c5808962)" style="fill: #4c9ee0; stroke: #ffffff; stroke-linejoin: miter"/>
   </g>
   <g id="patch_28">
    <path d="M 382.923437 55.44 
L 410.823437 55.44 
L 410.823437 27.72 
L 382.923437 27.72 
z
" clip-path="url(#pa3c5808962)" style="fill: #ffffff; stroke: #ffffff; stroke-linejoin: miter"/>
   </g>
   <g id="patch_29">
    <path d="M 410.823438 27.72 
L 438.723437 27.72 
L 438.723437 -0 
L 410.823438 -0 
z
" clip-path="url(#pa3c5808962)" style="fill: #4c9ee0; stroke: #ffffff; stroke-linejoin: miter"/>
   </g>
   <g id="patch_30">
    <path d="M 410.823438 55.44 
L 438.723437 55.44 
L 438.723437 27.72 
L 410.823438 27.72 
z
" clip-path="url(#pa3c5808962)" style="fill: #ffffff; stroke: #ffffff; stroke-linejoin: miter"/>
   </g>
   <g id="patch_31">
    <path d="M 438.723437 27.72 
L 466.623437 27.72 
L 466.623437 -0 
L 438.723437 -0 
z
" clip-path="url(#pa3c5808962)" style="fill: #4c9ee0; stroke: #ffffff; stroke-linejoin: miter"/>
   </g>
   <g id="patch_32">
    <path d="M 438.723437 55.44 
L 466.623437 55.44 
L 466.623437 27.72 
L 438.723437 27.72 
z
" clip-path="url(#pa3c5808962)" style="fill: #ffffff; stroke: #ffffff; stroke-linejoin: miter"/>
   </g>
   <g id="patch_33">
    <path d="M 466.623438 27.72 
L 494.523438 27.72 
L 494.523438 -0 
L 466.623438 -0 
z
" clip-path="url(#pa3c5808962)" style="fill: #4c9ee0; stroke: #ffffff; stroke-linejoin: miter"/>
   </g>
   <g id="patch_34">
    <path d="M 466.623438 55.44 
L 494.523438 55.44 
L 494.523438 27.72 
L 466.623438 27.72 
z
" clip-path="url(#pa3c5808962)" style="fill: #ffffff; stroke: #ffffff; stroke-linejoin: miter"/>
   </g>
   <g id="patch_35">
    <path d="M 48.123438 55.44 
L 48.123438 -0 
" style="fill: none; stroke: #4ca5e0; stroke-width: 2; stroke-linejoin: miter; stroke-linecap: square"/>
   </g>
   <g id="patch_36">
    <path d="M 494.523438 55.44 
L 494.523438 -0 
" style="fill: none; stroke: #4ca5e0; stroke-width: 2; stroke-linejoin: miter; stroke-linecap: square"/>
   </g>
   <g id="patch_37">
    <path d="M 48.123438 55.44 
L 494.523438 55.44 
" style="fill: none; stroke: #4ca5e0; stroke-width: 2; stroke-linejoin: miter; stroke-linecap: square"/>
   </g>
   <g id="patch_38">
    <path d="M 48.123438 -0 
L 494.523438 -0 
" style="fill: none; stroke: #4ca5e0; stroke-width: 2; stroke-linejoin: miter; stroke-linecap: square"/>
   </g>
  </g>
 </g>
 <defs>
  <clipPath id="pa3c5808962">
   <rect x="48.123438" y="-0" width="446.4" height="55.44"/>
  </clipPath>
 </defs>
</svg>
