<?xml version="1.0" encoding="utf-8" standalone="no"?>
<!DOCTYPE svg PUBLIC "-//W3C//DTD SVG 1.1//EN"
  "http://www.w3.org/Graphics/SVG/1.1/DTD/svg11.dtd">
<svg xmlns:xlink="http://www.w3.org/1999/xlink" width="528.355937pt" height="75.117188pt" viewBox="0 0 528.355937 75.117188" xmlns="http://www.w3.org/2000/svg" version="1.1">
 <metadata>
  <rdf:RDF xmlns:dc="http://purl.org/dc/elements/1.1/" xmlns:cc="http://creativecommons.org/ns#" xmlns:rdf="http://www.w3.org/1999/02/22-rdf-syntax-ns#">
   <cc:Work>
    <dc:type rdf:resource="http://purl.org/dc/dcmitype/StillImage"/>
    <dc:date>2025-02-06T11:26:02.326313</dc:date>
    <dc:format>image/svg+xml</dc:format>
    <dc:creator>
     <cc:Agent>
      <dc:title>Matplotlib v3.10.0, https://matplotlib.org/</dc:title>
     </cc:Agent>
    </dc:creator>
   </cc:Work>
  </rdf:RDF>
 </metadata>
 <defs>
  <style type="text/css">*{stroke-linejoin: round; stroke-linecap: butt}</style>
 </defs>
 <g id="figure_1">
  <g id="patch_1">
   <path d="M 0 75.117188 
L 528.355937 75.117188 
L 528.355937 0 
L 0 0 
L 0 75.117188 
z
" style="fill: none"/>
  </g>
  <g id="axes_1">
   <g id="patch_2">
    <path d="M 81.955937 75.117188 
L 528.355937 75.117188 
L 528.355937 19.677188 
L 81.955937 19.677188 
L 81.955937 75.117188 
z
" style="fill: none"/>
   </g>
   <g id="matplotlib.axis_1"/>
   <g id="matplotlib.axis_2">
    <g id="ytick_1">
     <g id="line2d_1">
      <defs>
       <path id="m6da83b4ebc" d="M 0 0 
L -3.5 0 
" style="stroke: #262626; stroke-width: 0.8"/>
      </defs>
      <g>
       <use xlink:href="#m6da83b4ebc" x="81.955937" y="61.257188" style="fill: #262626; stroke: #262626; stroke-width: 0.8"/>
      </g>
     </g>
     <g id="text_1">
      <!-- DOUBLE -->
      <g style="fill: #262626" transform="translate(0 68.095781) scale(0.18 -0.18)">
       <defs>
        <path id="DejaVuSans-44" d="M 1259 4147 
L 1259 519 
L 2022 519 
Q 2988 519 3436 956 
Q 3884 1394 3884 2338 
Q 3884 3275 3436 3711 
Q 2988 4147 2022 4147 
L 1259 4147 
z
M 628 4666 
L 1925 4666 
Q 3281 4666 3915 4102 
Q 4550 3538 4550 2338 
Q 4550 1131 3912 565 
Q 3275 0 1925 0 
L 628 0 
L 628 4666 
z
" transform="scale(0.015625)"/>
        <path id="DejaVuSans-4f" d="M 2522 4238 
Q 1834 4238 1429 3725 
Q 1025 3213 1025 2328 
Q 1025 1447 1429 934 
Q 1834 422 2522 422 
Q 3209 422 3611 934 
Q 4013 1447 4013 2328 
Q 4013 3213 3611 3725 
Q 3209 4238 2522 4238 
z
M 2522 4750 
Q 3503 4750 4090 4092 
Q 4678 3434 4678 2328 
Q 4678 1225 4090 567 
Q 3503 -91 2522 -91 
Q 1538 -91 948 565 
Q 359 1222 359 2328 
Q 359 3434 948 4092 
Q 1538 4750 2522 4750 
z
" transform="scale(0.015625)"/>
        <path id="DejaVuSans-55" d="M 556 4666 
L 1191 4666 
L 1191 1831 
Q 1191 1081 1462 751 
Q 1734 422 2344 422 
Q 2950 422 3222 751 
Q 3494 1081 3494 1831 
L 3494 4666 
L 4128 4666 
L 4128 1753 
Q 4128 841 3676 375 
Q 3225 -91 2344 -91 
Q 1459 -91 1007 375 
Q 556 841 556 1753 
L 556 4666 
z
" transform="scale(0.015625)"/>
        <path id="DejaVuSans-42" d="M 1259 2228 
L 1259 519 
L 2272 519 
Q 2781 519 3026 730 
Q 3272 941 3272 1375 
Q 3272 1813 3026 2020 
Q 2781 2228 2272 2228 
L 1259 2228 
z
M 1259 4147 
L 1259 2741 
L 2194 2741 
Q 2656 2741 2882 2914 
Q 3109 3088 3109 3444 
Q 3109 3797 2882 3972 
Q 2656 4147 2194 4147 
L 1259 4147 
z
M 628 4666 
L 2241 4666 
Q 2963 4666 3353 4366 
Q 3744 4066 3744 3513 
Q 3744 3084 3544 2831 
Q 3344 2578 2956 2516 
Q 3422 2416 3680 2098 
Q 3938 1781 3938 1306 
Q 3938 681 3513 340 
Q 3088 0 2303 0 
L 628 0 
L 628 4666 
z
" transform="scale(0.015625)"/>
        <path id="DejaVuSans-4c" d="M 628 4666 
L 1259 4666 
L 1259 531 
L 3531 531 
L 3531 0 
L 628 0 
L 628 4666 
z
" transform="scale(0.015625)"/>
        <path id="DejaVuSans-45" d="M 628 4666 
L 3578 4666 
L 3578 4134 
L 1259 4134 
L 1259 2753 
L 3481 2753 
L 3481 2222 
L 1259 2222 
L 1259 531 
L 3634 531 
L 3634 0 
L 628 0 
L 628 4666 
z
" transform="scale(0.015625)"/>
       </defs>
       <use xlink:href="#DejaVuSans-44"/>
       <use xlink:href="#DejaVuSans-4f" transform="translate(77.001953 0)"/>
       <use xlink:href="#DejaVuSans-55" transform="translate(155.712891 0)"/>
       <use xlink:href="#DejaVuSans-42" transform="translate(228.90625 0)"/>
       <use xlink:href="#DejaVuSans-4c" transform="translate(297.509766 0)"/>
       <use xlink:href="#DejaVuSans-45" transform="translate(353.222656 0)"/>
      </g>
     </g>
    </g>
    <g id="ytick_2">
     <g id="line2d_2">
      <g>
       <use xlink:href="#m6da83b4ebc" x="81.955937" y="33.537188" style="fill: #262626; stroke: #262626; stroke-width: 0.8"/>
      </g>
     </g>
     <g id="text_2">
      <!-- SINGLE -->
      <g style="fill: #262626" transform="translate(9.402187 40.375781) scale(0.18 -0.18)">
       <defs>
        <path id="DejaVuSans-53" d="M 3425 4513 
L 3425 3897 
Q 3066 4069 2747 4153 
Q 2428 4238 2131 4238 
Q 1616 4238 1336 4038 
Q 1056 3838 1056 3469 
Q 1056 3159 1242 3001 
Q 1428 2844 1947 2747 
L 2328 2669 
Q 3034 2534 3370 2195 
Q 3706 1856 3706 1288 
Q 3706 609 3251 259 
Q 2797 -91 1919 -91 
Q 1588 -91 1214 -16 
Q 841 59 441 206 
L 441 856 
Q 825 641 1194 531 
Q 1563 422 1919 422 
Q 2459 422 2753 634 
Q 3047 847 3047 1241 
Q 3047 1584 2836 1778 
Q 2625 1972 2144 2069 
L 1759 2144 
Q 1053 2284 737 2584 
Q 422 2884 422 3419 
Q 422 4038 858 4394 
Q 1294 4750 2059 4750 
Q 2388 4750 2728 4690 
Q 3069 4631 3425 4513 
z
" transform="scale(0.015625)"/>
        <path id="DejaVuSans-49" d="M 628 4666 
L 1259 4666 
L 1259 0 
L 628 0 
L 628 4666 
z
" transform="scale(0.015625)"/>
        <path id="DejaVuSans-4e" d="M 628 4666 
L 1478 4666 
L 3547 763 
L 3547 4666 
L 4159 4666 
L 4159 0 
L 3309 0 
L 1241 3903 
L 1241 0 
L 628 0 
L 628 4666 
z
" transform="scale(0.015625)"/>
        <path id="DejaVuSans-47" d="M 3809 666 
L 3809 1919 
L 2778 1919 
L 2778 2438 
L 4434 2438 
L 4434 434 
Q 4069 175 3628 42 
Q 3188 -91 2688 -91 
Q 1594 -91 976 548 
Q 359 1188 359 2328 
Q 359 3472 976 4111 
Q 1594 4750 2688 4750 
Q 3144 4750 3555 4637 
Q 3966 4525 4313 4306 
L 4313 3634 
Q 3963 3931 3569 4081 
Q 3175 4231 2741 4231 
Q 1884 4231 1454 3753 
Q 1025 3275 1025 2328 
Q 1025 1384 1454 906 
Q 1884 428 2741 428 
Q 3075 428 3337 486 
Q 3600 544 3809 666 
z
" transform="scale(0.015625)"/>
       </defs>
       <use xlink:href="#DejaVuSans-53"/>
       <use xlink:href="#DejaVuSans-49" transform="translate(63.476562 0)"/>
       <use xlink:href="#DejaVuSans-4e" transform="translate(92.96875 0)"/>
       <use xlink:href="#DejaVuSans-47" transform="translate(167.773438 0)"/>
       <use xlink:href="#DejaVuSans-4c" transform="translate(245.263672 0)"/>
       <use xlink:href="#DejaVuSans-45" transform="translate(300.976562 0)"/>
      </g>
     </g>
    </g>
   </g>
   <g id="patch_3">
    <path d="M 81.955937 47.397188 
L 109.855937 47.397188 
L 109.855937 19.677188 
L 81.955937 19.677188 
z
" clip-path="url(#p68225d3fbf)" style="fill: #4c9ee0; stroke: #ffffff; stroke-linejoin: miter"/>
   </g>
   <g id="patch_4">
    <path d="M 81.955937 75.117188 
L 109.855937 75.117188 
L 109.855937 47.397188 
L 81.955937 47.397188 
z
" clip-path="url(#p68225d3fbf)" style="fill: #ffffff; stroke: #ffffff; stroke-linejoin: miter"/>
   </g>
   <g id="patch_5">
    <path d="M 109.855937 47.397188 
L 137.755937 47.397188 
L 137.755937 19.677188 
L 109.855937 19.677188 
z
" clip-path="url(#p68225d3fbf)" style="fill: #4c9ee0; stroke: #ffffff; stroke-linejoin: miter"/>
   </g>
   <g id="patch_6">
    <path d="M 109.855937 75.117188 
L 137.755937 75.117188 
L 137.755937 47.397188 
L 109.855937 47.397188 
z
" clip-path="url(#p68225d3fbf)" style="fill: #ffffff; stroke: #ffffff; stroke-linejoin: miter"/>
   </g>
   <g id="patch_7">
    <path d="M 137.755937 47.397188 
L 165.655937 47.397188 
L 165.655937 19.677188 
L 137.755937 19.677188 
z
" clip-path="url(#p68225d3fbf)" style="fill: #4c9ee0; stroke: #ffffff; stroke-linejoin: miter"/>
   </g>
   <g id="patch_8">
    <path d="M 137.755937 75.117188 
L 165.655937 75.117188 
L 165.655937 47.397188 
L 137.755937 47.397188 
z
" clip-path="url(#p68225d3fbf)" style="fill: #ffffff; stroke: #ffffff; stroke-linejoin: miter"/>
   </g>
   <g id="patch_9">
    <path d="M 165.655937 47.397188 
L 193.555937 47.397188 
L 193.555937 19.677188 
L 165.655937 19.677188 
z
" clip-path="url(#p68225d3fbf)" style="fill: #4c9ee0; stroke: #ffffff; stroke-linejoin: miter"/>
   </g>
   <g id="patch_10">
    <path d="M 165.655937 75.117188 
L 193.555937 75.117188 
L 193.555937 47.397188 
L 165.655937 47.397188 
z
" clip-path="url(#p68225d3fbf)" style="fill: #ffffff; stroke: #ffffff; stroke-linejoin: miter"/>
   </g>
   <g id="patch_11">
    <path d="M 193.555937 47.397188 
L 221.455937 47.397188 
L 221.455937 19.677188 
L 193.555937 19.677188 
z
" clip-path="url(#p68225d3fbf)" style="fill: #4c9ee0; stroke: #ffffff; stroke-linejoin: miter"/>
   </g>
   <g id="patch_12">
    <path d="M 193.555937 75.117188 
L 221.455937 75.117188 
L 221.455937 47.397188 
L 193.555937 47.397188 
z
" clip-path="url(#p68225d3fbf)" style="fill: #ffffff; stroke: #ffffff; stroke-linejoin: miter"/>
   </g>
   <g id="patch_13">
    <path d="M 221.455938 47.397188 
L 249.355938 47.397188 
L 249.355938 19.677188 
L 221.455938 19.677188 
z
" clip-path="url(#p68225d3fbf)" style="fill: #4c9ee0; stroke: #ffffff; stroke-linejoin: miter"/>
   </g>
   <g id="patch_14">
    <path d="M 221.455938 75.117188 
L 249.355938 75.117188 
L 249.355938 47.397188 
L 221.455938 47.397188 
z
" clip-path="url(#p68225d3fbf)" style="fill: #ffffff; stroke: #ffffff; stroke-linejoin: miter"/>
   </g>
   <g id="patch_15">
    <path d="M 249.355937 47.397188 
L 277.255937 47.397188 
L 277.255937 19.677188 
L 249.355937 19.677188 
z
" clip-path="url(#p68225d3fbf)" style="fill: #4c9ee0; stroke: #ffffff; stroke-linejoin: miter"/>
   </g>
   <g id="patch_16">
    <path d="M 249.355937 75.117188 
L 277.255937 75.117188 
L 277.255937 47.397188 
L 249.355937 47.397188 
z
" clip-path="url(#p68225d3fbf)" style="fill: #ffffff; stroke: #ffffff; stroke-linejoin: miter"/>
   </g>
   <g id="patch_17">
    <path d="M 277.255937 47.397188 
L 305.155937 47.397188 
L 305.155937 19.677188 
L 277.255937 19.677188 
z
" clip-path="url(#p68225d3fbf)" style="fill: #4c9ee0; stroke: #ffffff; stroke-linejoin: miter"/>
   </g>
   <g id="patch_18">
    <path d="M 277.255937 75.117188 
L 305.155937 75.117188 
L 305.155937 47.397188 
L 277.255937 47.397188 
z
" clip-path="url(#p68225d3fbf)" style="fill: #ffffff; stroke: #ffffff; stroke-linejoin: miter"/>
   </g>
   <g id="patch_19">
    <path d="M 305.155937 47.397188 
L 333.055937 47.397188 
L 333.055937 19.677188 
L 305.155937 19.677188 
z
" clip-path="url(#p68225d3fbf)" style="fill: #4c9ee0; stroke: #ffffff; stroke-linejoin: miter"/>
   </g>
   <g id="patch_20">
    <path d="M 305.155937 75.117188 
L 333.055937 75.117188 
L 333.055937 47.397188 
L 305.155937 47.397188 
z
" clip-path="url(#p68225d3fbf)" style="fill: #ffffff; stroke: #ffffff; stroke-linejoin: miter"/>
   </g>
   <g id="patch_21">
    <path d="M 333.055937 47.397188 
L 360.955937 47.397188 
L 360.955937 19.677188 
L 333.055937 19.677188 
z
" clip-path="url(#p68225d3fbf)" style="fill: #4c9ee0; stroke: #ffffff; stroke-linejoin: miter"/>
   </g>
   <g id="patch_22">
    <path d="M 333.055937 75.117188 
L 360.955937 75.117188 
L 360.955937 47.397188 
L 333.055937 47.397188 
z
" clip-path="url(#p68225d3fbf)" style="fill: #ffffff; stroke: #ffffff; stroke-linejoin: miter"/>
   </g>
   <g id="patch_23">
    <path d="M 360.955938 47.397188 
L 388.855937 47.397188 
L 388.855937 19.677188 
L 360.955938 19.677188 
z
" clip-path="url(#p68225d3fbf)" style="fill: #4c9ee0; stroke: #ffffff; stroke-linejoin: miter"/>
   </g>
   <g id="patch_24">
    <path d="M 360.955938 75.117188 
L 388.855937 75.117188 
L 388.855937 47.397188 
L 360.955938 47.397188 
z
" clip-path="url(#p68225d3fbf)" style="fill: #ffffff; stroke: #ffffff; stroke-linejoin: miter"/>
   </g>
   <g id="patch_25">
    <path d="M 388.855937 47.397188 
L 416.755937 47.397188 
L 416.755937 19.677188 
L 388.855937 19.677188 
z
" clip-path="url(#p68225d3fbf)" style="fill: #ffffff; stroke: #ffffff; stroke-linejoin: miter"/>
   </g>
   <g id="patch_26">
    <path d="M 388.855937 75.117188 
L 416.755937 75.117188 
L 416.755937 47.397188 
L 388.855937 47.397188 
z
" clip-path="url(#p68225d3fbf)" style="fill: #3191c9; stroke: #ffffff; stroke-linejoin: miter"/>
   </g>
   <g id="patch_27">
    <path d="M 416.755937 47.397188 
L 444.655937 47.397188 
L 444.655937 19.677188 
L 416.755937 19.677188 
z
" clip-path="url(#p68225d3fbf)" style="fill: #4c9ee0; stroke: #ffffff; stroke-linejoin: miter"/>
   </g>
   <g id="patch_28">
    <path d="M 416.755937 75.117188 
L 444.655937 75.117188 
L 444.655937 47.397188 
L 416.755937 47.397188 
z
" clip-path="url(#p68225d3fbf)" style="fill: #ffffff; stroke: #ffffff; stroke-linejoin: miter"/>
   </g>
   <g id="patch_29">
    <path d="M 444.655937 47.397188 
L 472.555937 47.397188 
L 472.555937 19.677188 
L 444.655937 19.677188 
z
" clip-path="url(#p68225d3fbf)" style="fill: #4c9ee0; stroke: #ffffff; stroke-linejoin: miter"/>
   </g>
   <g id="patch_30">
    <path d="M 444.655937 75.117188 
L 472.555937 75.117188 
L 472.555937 47.397188 
L 444.655937 47.397188 
z
" clip-path="url(#p68225d3fbf)" style="fill: #ffffff; stroke: #ffffff; stroke-linejoin: miter"/>
   </g>
   <g id="patch_31">
    <path d="M 472.555937 47.397188 
L 500.455937 47.397188 
L 500.455937 19.677188 
L 472.555937 19.677188 
z
" clip-path="url(#p68225d3fbf)" style="fill: #4c9ee0; stroke: #ffffff; stroke-linejoin: miter"/>
   </g>
   <g id="patch_32">
    <path d="M 472.555937 75.117188 
L 500.455937 75.117188 
L 500.455937 47.397188 
L 472.555937 47.397188 
z
" clip-path="url(#p68225d3fbf)" style="fill: #ffffff; stroke: #ffffff; stroke-linejoin: miter"/>
   </g>
   <g id="patch_33">
    <path d="M 500.455938 47.397188 
L 528.355937 47.397188 
L 528.355937 19.677188 
L 500.455938 19.677188 
z
" clip-path="url(#p68225d3fbf)" style="fill: #4c9ee0; stroke: #ffffff; stroke-linejoin: miter"/>
   </g>
   <g id="patch_34">
    <path d="M 500.455938 75.117188 
L 528.355937 75.117188 
L 528.355937 47.397188 
L 500.455938 47.397188 
z
" clip-path="url(#p68225d3fbf)" style="fill: #ffffff; stroke: #ffffff; stroke-linejoin: miter"/>
   </g>
   <g id="patch_35">
    <path d="M 81.955937 75.117188 
L 81.955937 19.677188 
" style="fill: none; stroke: #4ca5e0; stroke-width: 2; stroke-linejoin: miter; stroke-linecap: square"/>
   </g>
   <g id="patch_36">
    <path d="M 528.355937 75.117188 
L 528.355937 19.677188 
" style="fill: none; stroke: #4ca5e0; stroke-width: 2; stroke-linejoin: miter; stroke-linecap: square"/>
   </g>
   <g id="patch_37">
    <path d="M 81.955937 75.117188 
L 528.355937 75.117188 
" style="fill: none; stroke: #4ca5e0; stroke-width: 2; stroke-linejoin: miter; stroke-linecap: square"/>
   </g>
   <g id="patch_38">
    <path d="M 81.955937 19.677188 
L 528.355937 19.677188 
" style="fill: none; stroke: #4ca5e0; stroke-width: 2; stroke-linejoin: miter; stroke-linecap: square"/>
   </g>
   <g id="text_3">
    <!-- 16x2 -->
    <g style="fill: #4ca5e0" transform="translate(282.650312 13.677188) scale(0.18 -0.18)">
     <defs>
      <path id="DejaVuSans-31" d="M 794 531 
L 1825 531 
L 1825 4091 
L 703 3866 
L 703 4441 
L 1819 4666 
L 2450 4666 
L 2450 531 
L 3481 531 
L 3481 0 
L 794 0 
L 794 531 
z
" transform="scale(0.015625)"/>
      <path id="DejaVuSans-36" d="M 2113 2584 
Q 1688 2584 1439 2293 
Q 1191 2003 1191 1497 
Q 1191 994 1439 701 
Q 1688 409 2113 409 
Q 2538 409 2786 701 
Q 3034 994 3034 1497 
Q 3034 2003 2786 2293 
Q 2538 2584 2113 2584 
z
M 3366 4563 
L 3366 3988 
Q 3128 4100 2886 4159 
Q 2644 4219 2406 4219 
Q 1781 4219 1451 3797 
Q 1122 3375 1075 2522 
Q 1259 2794 1537 2939 
Q 1816 3084 2150 3084 
Q 2853 3084 3261 2657 
Q 3669 2231 3669 1497 
Q 3669 778 3244 343 
Q 2819 -91 2113 -91 
Q 1303 -91 875 529 
Q 447 1150 447 2328 
Q 447 3434 972 4092 
Q 1497 4750 2381 4750 
Q 2619 4750 2861 4703 
Q 3103 4656 3366 4563 
z
" transform="scale(0.015625)"/>
      <path id="DejaVuSans-78" d="M 3513 3500 
L 2247 1797 
L 3578 0 
L 2900 0 
L 1881 1375 
L 863 0 
L 184 0 
L 1544 1831 
L 300 3500 
L 978 3500 
L 1906 2253 
L 2834 3500 
L 3513 3500 
z
" transform="scale(0.015625)"/>
      <path id="DejaVuSans-32" d="M 1228 531 
L 3431 531 
L 3431 0 
L 469 0 
L 469 531 
Q 828 903 1448 1529 
Q 2069 2156 2228 2338 
Q 2531 2678 2651 2914 
Q 2772 3150 2772 3378 
Q 2772 3750 2511 3984 
Q 2250 4219 1831 4219 
Q 1534 4219 1204 4116 
Q 875 4013 500 3803 
L 500 4441 
Q 881 4594 1212 4672 
Q 1544 4750 1819 4750 
Q 2544 4750 2975 4387 
Q 3406 4025 3406 3419 
Q 3406 3131 3298 2873 
Q 3191 2616 2906 2266 
Q 2828 2175 2409 1742 
Q 1991 1309 1228 531 
z
" transform="scale(0.015625)"/>
     </defs>
     <use xlink:href="#DejaVuSans-31"/>
     <use xlink:href="#DejaVuSans-36" transform="translate(63.623047 0)"/>
     <use xlink:href="#DejaVuSans-78" transform="translate(127.246094 0)"/>
     <use xlink:href="#DejaVuSans-32" transform="translate(186.425781 0)"/>
    </g>
   </g>
  </g>
 </g>
 <defs>
  <clipPath id="p68225d3fbf">
   <rect x="81.955937" y="19.677188" width="446.4" height="55.44"/>
  </clipPath>
 </defs>
</svg>
