<?xml version="1.0" encoding="utf-8" standalone="no"?>
<!DOCTYPE svg PUBLIC "-//W3C//DTD SVG 1.1//EN"
  "http://www.w3.org/Graphics/SVG/1.1/DTD/svg11.dtd">
<svg xmlns:xlink="http://www.w3.org/1999/xlink" width="951.676563pt" height="102.837187pt" viewBox="0 0 951.676563 102.837187" xmlns="http://www.w3.org/2000/svg" version="1.1">
 <metadata>
  <rdf:RDF xmlns:dc="http://purl.org/dc/elements/1.1/" xmlns:cc="http://creativecommons.org/ns#" xmlns:rdf="http://www.w3.org/1999/02/22-rdf-syntax-ns#">
   <cc:Work>
    <dc:type rdf:resource="http://purl.org/dc/dcmitype/StillImage"/>
    <dc:date>2025-02-06T11:26:02.181432</dc:date>
    <dc:format>image/svg+xml</dc:format>
    <dc:creator>
     <cc:Agent>
      <dc:title>Matplotlib v3.10.0, https://matplotlib.org/</dc:title>
     </cc:Agent>
    </dc:creator>
   </cc:Work>
  </rdf:RDF>
 </metadata>
 <defs>
  <style type="text/css">*{stroke-linejoin: round; stroke-linecap: butt}</style>
 </defs>
 <g id="figure_1">
  <g id="patch_1">
   <path d="M 0 102.837187 
L 951.676563 102.837187 
L 951.676563 0 
L 0 0 
L 0 102.837187 
z
" style="fill: none"/>
  </g>
  <g id="axes_1">
   <g id="patch_2">
    <path d="M 30.976562 102.837187 
L 951.676563 102.837187 
L 951.676563 19.677187 
L 30.976562 19.677187 
L 30.976562 102.837187 
z
" style="fill: none"/>
   </g>
   <g id="matplotlib.axis_1"/>
   <g id="matplotlib.axis_2">
    <g id="ytick_1">
     <g id="line2d_1">
      <defs>
       <path id="m319d1a4790" d="M 0 0 
L -3.5 0 
" style="stroke: #262626; stroke-width: 0.8"/>
      </defs>
      <g>
       <use xlink:href="#m319d1a4790" x="30.976562" y="88.977187" style="fill: #262626; stroke: #262626; stroke-width: 0.8"/>
      </g>
     </g>
     <g id="text_1">
      <!-- Cu -->
      <g style="fill: #262626" transform="translate(0 95.815781) scale(0.18 -0.18)">
       <defs>
        <path id="DejaVuSans-43" d="M 4122 4306 
L 4122 3641 
Q 3803 3938 3442 4084 
Q 3081 4231 2675 4231 
Q 1875 4231 1450 3742 
Q 1025 3253 1025 2328 
Q 1025 1406 1450 917 
Q 1875 428 2675 428 
Q 3081 428 3442 575 
Q 3803 722 4122 1019 
L 4122 359 
Q 3791 134 3420 21 
Q 3050 -91 2638 -91 
Q 1578 -91 968 557 
Q 359 1206 359 2328 
Q 359 3453 968 4101 
Q 1578 4750 2638 4750 
Q 3056 4750 3426 4639 
Q 3797 4528 4122 4306 
z
" transform="scale(0.015625)"/>
        <path id="DejaVuSans-75" d="M 544 1381 
L 544 3500 
L 1119 3500 
L 1119 1403 
Q 1119 906 1312 657 
Q 1506 409 1894 409 
Q 2359 409 2629 706 
Q 2900 1003 2900 1516 
L 2900 3500 
L 3475 3500 
L 3475 0 
L 2900 0 
L 2900 538 
Q 2691 219 2414 64 
Q 2138 -91 1772 -91 
Q 1169 -91 856 284 
Q 544 659 544 1381 
z
M 1991 3584 
L 1991 3584 
z
" transform="scale(0.015625)"/>
       </defs>
       <use xlink:href="#DejaVuSans-43"/>
       <use xlink:href="#DejaVuSans-75" transform="translate(69.824219 0)"/>
      </g>
     </g>
    </g>
    <g id="ytick_2">
     <g id="line2d_2">
      <g>
       <use xlink:href="#m319d1a4790" x="30.976562" y="61.257187" style="fill: #262626; stroke: #262626; stroke-width: 0.8"/>
      </g>
     </g>
     <g id="text_2">
      <!-- O -->
      <g style="fill: #262626" transform="translate(9.807188 68.095781) scale(0.18 -0.18)">
       <defs>
        <path id="DejaVuSans-4f" d="M 2522 4238 
Q 1834 4238 1429 3725 
Q 1025 3213 1025 2328 
Q 1025 1447 1429 934 
Q 1834 422 2522 422 
Q 3209 422 3611 934 
Q 4013 1447 4013 2328 
Q 4013 3213 3611 3725 
Q 3209 4238 2522 4238 
z
M 2522 4750 
Q 3503 4750 4090 4092 
Q 4678 3434 4678 2328 
Q 4678 1225 4090 567 
Q 3503 -91 2522 -91 
Q 1538 -91 948 565 
Q 359 1222 359 2328 
Q 359 3434 948 4092 
Q 1538 4750 2522 4750 
z
" transform="scale(0.015625)"/>
       </defs>
       <use xlink:href="#DejaVuSans-4f"/>
      </g>
     </g>
    </g>
    <g id="ytick_3">
     <g id="line2d_3">
      <g>
       <use xlink:href="#m319d1a4790" x="30.976562" y="33.537187" style="fill: #262626; stroke: #262626; stroke-width: 0.8"/>
      </g>
     </g>
     <g id="text_3">
      <!-- C -->
      <g style="fill: #262626" transform="translate(11.4075 40.375781) scale(0.18 -0.18)">
       <use xlink:href="#DejaVuSans-43"/>
      </g>
     </g>
    </g>
   </g>
   <g id="patch_3">
    <path d="M 30.976562 47.397187 
L 58.876563 47.397187 
L 58.876563 19.677187 
L 30.976562 19.677187 
z
" clip-path="url(#pe60e7b6ef5)" style="fill: #ffffff; stroke: #ffffff; stroke-linejoin: miter"/>
   </g>
   <g id="patch_4">
    <path d="M 30.976562 75.117188 
L 58.876563 75.117188 
L 58.876563 47.397188 
L 30.976562 47.397188 
z
" clip-path="url(#pe60e7b6ef5)" style="fill: #ffffff; stroke: #ffffff; stroke-linejoin: miter"/>
   </g>
   <g id="patch_5">
    <path d="M 30.976562 102.837187 
L 58.876563 102.837187 
L 58.876563 75.117188 
L 30.976562 75.117188 
z
" clip-path="url(#pe60e7b6ef5)" style="fill: #ffdd54; stroke: #ffffff; stroke-linejoin: miter"/>
   </g>
   <g id="patch_6">
    <path d="M 58.876563 47.397187 
L 86.776563 47.397187 
L 86.776563 19.677187 
L 58.876563 19.677187 
z
" clip-path="url(#pe60e7b6ef5)" style="fill: #ffffff; stroke: #ffffff; stroke-linejoin: miter"/>
   </g>
   <g id="patch_7">
    <path d="M 58.876563 75.117188 
L 86.776563 75.117188 
L 86.776563 47.397188 
L 58.876563 47.397188 
z
" clip-path="url(#pe60e7b6ef5)" style="fill: #ffffff; stroke: #ffffff; stroke-linejoin: miter"/>
   </g>
   <g id="patch_8">
    <path d="M 58.876563 102.837187 
L 86.776563 102.837187 
L 86.776563 75.117188 
L 58.876563 75.117188 
z
" clip-path="url(#pe60e7b6ef5)" style="fill: #ffdd54; stroke: #ffffff; stroke-linejoin: miter"/>
   </g>
   <g id="patch_9">
    <path d="M 86.776563 47.397187 
L 114.676563 47.397187 
L 114.676563 19.677187 
L 86.776563 19.677187 
z
" clip-path="url(#pe60e7b6ef5)" style="fill: #ffffff; stroke: #ffffff; stroke-linejoin: miter"/>
   </g>
   <g id="patch_10">
    <path d="M 86.776563 75.117188 
L 114.676563 75.117188 
L 114.676563 47.397188 
L 86.776563 47.397188 
z
" clip-path="url(#pe60e7b6ef5)" style="fill: #ffffff; stroke: #ffffff; stroke-linejoin: miter"/>
   </g>
   <g id="patch_11">
    <path d="M 86.776563 102.837187 
L 114.676563 102.837187 
L 114.676563 75.117188 
L 86.776563 75.117188 
z
" clip-path="url(#pe60e7b6ef5)" style="fill: #ffdd54; stroke: #ffffff; stroke-linejoin: miter"/>
   </g>
   <g id="patch_12">
    <path d="M 114.676563 47.397187 
L 142.576562 47.397187 
L 142.576562 19.677187 
L 114.676563 19.677187 
z
" clip-path="url(#pe60e7b6ef5)" style="fill: #ffffff; stroke: #ffffff; stroke-linejoin: miter"/>
   </g>
   <g id="patch_13">
    <path d="M 114.676563 75.117188 
L 142.576562 75.117188 
L 142.576562 47.397188 
L 114.676563 47.397188 
z
" clip-path="url(#pe60e7b6ef5)" style="fill: #dfaf0e; stroke: #ffffff; stroke-linejoin: miter"/>
   </g>
   <g id="patch_14">
    <path d="M 114.676563 102.837187 
L 142.576562 102.837187 
L 142.576562 75.117188 
L 114.676563 75.117188 
z
" clip-path="url(#pe60e7b6ef5)" style="fill: #ffffff; stroke: #ffffff; stroke-linejoin: miter"/>
   </g>
   <g id="patch_15">
    <path d="M 142.576563 47.397187 
L 170.476563 47.397187 
L 170.476563 19.677187 
L 142.576563 19.677187 
z
" clip-path="url(#pe60e7b6ef5)" style="fill: #fdd123; stroke: #ffffff; stroke-linejoin: miter"/>
   </g>
   <g id="patch_16">
    <path d="M 142.576563 75.117188 
L 170.476563 75.117188 
L 170.476563 47.397188 
L 142.576563 47.397188 
z
" clip-path="url(#pe60e7b6ef5)" style="fill: #ffffff; stroke: #ffffff; stroke-linejoin: miter"/>
   </g>
   <g id="patch_17">
    <path d="M 142.576563 102.837187 
L 170.476563 102.837187 
L 170.476563 75.117188 
L 142.576563 75.117188 
z
" clip-path="url(#pe60e7b6ef5)" style="fill: #ffffff; stroke: #ffffff; stroke-linejoin: miter"/>
   </g>
   <g id="patch_18">
    <path d="M 170.476562 47.397187 
L 198.376563 47.397187 
L 198.376563 19.677187 
L 170.476562 19.677187 
z
" clip-path="url(#pe60e7b6ef5)" style="fill: #ffffff; stroke: #ffffff; stroke-linejoin: miter"/>
   </g>
   <g id="patch_19">
    <path d="M 170.476562 75.117188 
L 198.376563 75.117188 
L 198.376563 47.397188 
L 170.476562 47.397188 
z
" clip-path="url(#pe60e7b6ef5)" style="fill: #dfaf0e; stroke: #ffffff; stroke-linejoin: miter"/>
   </g>
   <g id="patch_20">
    <path d="M 170.476562 102.837187 
L 198.376563 102.837187 
L 198.376563 75.117188 
L 170.476562 75.117188 
z
" clip-path="url(#pe60e7b6ef5)" style="fill: #ffffff; stroke: #ffffff; stroke-linejoin: miter"/>
   </g>
   <g id="patch_21">
    <path d="M 198.376563 47.397187 
L 226.276563 47.397187 
L 226.276563 19.677187 
L 198.376563 19.677187 
z
" clip-path="url(#pe60e7b6ef5)" style="fill: #fdd123; stroke: #ffffff; stroke-linejoin: miter"/>
   </g>
   <g id="patch_22">
    <path d="M 198.376563 75.117188 
L 226.276563 75.117188 
L 226.276563 47.397188 
L 198.376563 47.397188 
z
" clip-path="url(#pe60e7b6ef5)" style="fill: #ffffff; stroke: #ffffff; stroke-linejoin: miter"/>
   </g>
   <g id="patch_23">
    <path d="M 198.376563 102.837187 
L 226.276563 102.837187 
L 226.276563 75.117188 
L 198.376563 75.117188 
z
" clip-path="url(#pe60e7b6ef5)" style="fill: #ffffff; stroke: #ffffff; stroke-linejoin: miter"/>
   </g>
   <g id="patch_24">
    <path d="M 226.276563 47.397187 
L 254.176563 47.397187 
L 254.176563 19.677187 
L 226.276563 19.677187 
z
" clip-path="url(#pe60e7b6ef5)" style="fill: #fdd123; stroke: #ffffff; stroke-linejoin: miter"/>
   </g>
   <g id="patch_25">
    <path d="M 226.276563 75.117188 
L 254.176563 75.117188 
L 254.176563 47.397188 
L 226.276563 47.397188 
z
" clip-path="url(#pe60e7b6ef5)" style="fill: #ffffff; stroke: #ffffff; stroke-linejoin: miter"/>
   </g>
   <g id="patch_26">
    <path d="M 226.276563 102.837187 
L 254.176563 102.837187 
L 254.176563 75.117188 
L 226.276563 75.117188 
z
" clip-path="url(#pe60e7b6ef5)" style="fill: #ffffff; stroke: #ffffff; stroke-linejoin: miter"/>
   </g>
   <g id="patch_27">
    <path d="M 254.176563 47.397187 
L 282.076563 47.397187 
L 282.076563 19.677187 
L 254.176563 19.677187 
z
" clip-path="url(#pe60e7b6ef5)" style="fill: #fdd123; stroke: #ffffff; stroke-linejoin: miter"/>
   </g>
   <g id="patch_28">
    <path d="M 254.176563 75.117188 
L 282.076563 75.117188 
L 282.076563 47.397188 
L 254.176563 47.397188 
z
" clip-path="url(#pe60e7b6ef5)" style="fill: #ffffff; stroke: #ffffff; stroke-linejoin: miter"/>
   </g>
   <g id="patch_29">
    <path d="M 254.176563 102.837187 
L 282.076563 102.837187 
L 282.076563 75.117188 
L 254.176563 75.117188 
z
" clip-path="url(#pe60e7b6ef5)" style="fill: #ffffff; stroke: #ffffff; stroke-linejoin: miter"/>
   </g>
   <g id="patch_30">
    <path d="M 282.076563 47.397187 
L 309.976562 47.397187 
L 309.976562 19.677187 
L 282.076563 19.677187 
z
" clip-path="url(#pe60e7b6ef5)" style="fill: #fdd123; stroke: #ffffff; stroke-linejoin: miter"/>
   </g>
   <g id="patch_31">
    <path d="M 282.076563 75.117188 
L 309.976562 75.117188 
L 309.976562 47.397188 
L 282.076563 47.397188 
z
" clip-path="url(#pe60e7b6ef5)" style="fill: #ffffff; stroke: #ffffff; stroke-linejoin: miter"/>
   </g>
   <g id="patch_32">
    <path d="M 282.076563 102.837187 
L 309.976562 102.837187 
L 309.976562 75.117188 
L 282.076563 75.117188 
z
" clip-path="url(#pe60e7b6ef5)" style="fill: #ffffff; stroke: #ffffff; stroke-linejoin: miter"/>
   </g>
   <g id="patch_33">
    <path d="M 309.976562 47.397187 
L 337.876562 47.397187 
L 337.876562 19.677187 
L 309.976562 19.677187 
z
" clip-path="url(#pe60e7b6ef5)" style="fill: #ffffff; stroke: #ffffff; stroke-linejoin: miter"/>
   </g>
   <g id="patch_34">
    <path d="M 309.976562 75.117188 
L 337.876562 75.117188 
L 337.876562 47.397188 
L 309.976562 47.397188 
z
" clip-path="url(#pe60e7b6ef5)" style="fill: #dfaf0e; stroke: #ffffff; stroke-linejoin: miter"/>
   </g>
   <g id="patch_35">
    <path d="M 309.976562 102.837187 
L 337.876562 102.837187 
L 337.876562 75.117188 
L 309.976562 75.117188 
z
" clip-path="url(#pe60e7b6ef5)" style="fill: #ffffff; stroke: #ffffff; stroke-linejoin: miter"/>
   </g>
   <g id="patch_36">
    <path d="M 337.876563 47.397187 
L 365.776563 47.397187 
L 365.776563 19.677187 
L 337.876563 19.677187 
z
" clip-path="url(#pe60e7b6ef5)" style="fill: #ffffff; stroke: #ffffff; stroke-linejoin: miter"/>
   </g>
   <g id="patch_37">
    <path d="M 337.876563 75.117188 
L 365.776563 75.117188 
L 365.776563 47.397188 
L 337.876563 47.397188 
z
" clip-path="url(#pe60e7b6ef5)" style="fill: #dfaf0e; stroke: #ffffff; stroke-linejoin: miter"/>
   </g>
   <g id="patch_38">
    <path d="M 337.876563 102.837187 
L 365.776563 102.837187 
L 365.776563 75.117188 
L 337.876563 75.117188 
z
" clip-path="url(#pe60e7b6ef5)" style="fill: #ffffff; stroke: #ffffff; stroke-linejoin: miter"/>
   </g>
   <g id="patch_39">
    <path d="M 365.776563 47.397187 
L 393.676562 47.397187 
L 393.676562 19.677187 
L 365.776563 19.677187 
z
" clip-path="url(#pe60e7b6ef5)" style="fill: #fdd123; stroke: #ffffff; stroke-linejoin: miter"/>
   </g>
   <g id="patch_40">
    <path d="M 365.776563 75.117188 
L 393.676562 75.117188 
L 393.676562 47.397188 
L 365.776563 47.397188 
z
" clip-path="url(#pe60e7b6ef5)" style="fill: #ffffff; stroke: #ffffff; stroke-linejoin: miter"/>
   </g>
   <g id="patch_41">
    <path d="M 365.776563 102.837187 
L 393.676562 102.837187 
L 393.676562 75.117188 
L 365.776563 75.117188 
z
" clip-path="url(#pe60e7b6ef5)" style="fill: #ffffff; stroke: #ffffff; stroke-linejoin: miter"/>
   </g>
   <g id="patch_42">
    <path d="M 393.676563 47.397187 
L 421.576563 47.397187 
L 421.576563 19.677187 
L 393.676563 19.677187 
z
" clip-path="url(#pe60e7b6ef5)" style="fill: #fdd123; stroke: #ffffff; stroke-linejoin: miter"/>
   </g>
   <g id="patch_43">
    <path d="M 393.676563 75.117188 
L 421.576563 75.117188 
L 421.576563 47.397188 
L 393.676563 47.397188 
z
" clip-path="url(#pe60e7b6ef5)" style="fill: #ffffff; stroke: #ffffff; stroke-linejoin: miter"/>
   </g>
   <g id="patch_44">
    <path d="M 393.676563 102.837187 
L 421.576563 102.837187 
L 421.576563 75.117188 
L 393.676563 75.117188 
z
" clip-path="url(#pe60e7b6ef5)" style="fill: #ffffff; stroke: #ffffff; stroke-linejoin: miter"/>
   </g>
   <g id="patch_45">
    <path d="M 421.576563 47.397187 
L 449.476562 47.397187 
L 449.476562 19.677187 
L 421.576563 19.677187 
z
" clip-path="url(#pe60e7b6ef5)" style="fill: #fdd123; stroke: #ffffff; stroke-linejoin: miter"/>
   </g>
   <g id="patch_46">
    <path d="M 421.576563 75.117188 
L 449.476562 75.117188 
L 449.476562 47.397188 
L 421.576563 47.397188 
z
" clip-path="url(#pe60e7b6ef5)" style="fill: #ffffff; stroke: #ffffff; stroke-linejoin: miter"/>
   </g>
   <g id="patch_47">
    <path d="M 421.576563 102.837187 
L 449.476562 102.837187 
L 449.476562 75.117188 
L 421.576563 75.117188 
z
" clip-path="url(#pe60e7b6ef5)" style="fill: #ffffff; stroke: #ffffff; stroke-linejoin: miter"/>
   </g>
   <g id="patch_48">
    <path d="M 449.476563 47.397187 
L 477.376563 47.397187 
L 477.376563 19.677187 
L 449.476563 19.677187 
z
" clip-path="url(#pe60e7b6ef5)" style="fill: #ffffff; stroke: #ffffff; stroke-linejoin: miter"/>
   </g>
   <g id="patch_49">
    <path d="M 449.476563 75.117188 
L 477.376563 75.117188 
L 477.376563 47.397188 
L 449.476563 47.397188 
z
" clip-path="url(#pe60e7b6ef5)" style="fill: #dfaf0e; stroke: #ffffff; stroke-linejoin: miter"/>
   </g>
   <g id="patch_50">
    <path d="M 449.476563 102.837187 
L 477.376563 102.837187 
L 477.376563 75.117188 
L 449.476563 75.117188 
z
" clip-path="url(#pe60e7b6ef5)" style="fill: #ffffff; stroke: #ffffff; stroke-linejoin: miter"/>
   </g>
   <g id="patch_51">
    <path d="M 477.376563 47.397187 
L 505.276563 47.397187 
L 505.276563 19.677187 
L 477.376563 19.677187 
z
" clip-path="url(#pe60e7b6ef5)" style="fill: #ffffff; stroke: #ffffff; stroke-linejoin: miter"/>
   </g>
   <g id="patch_52">
    <path d="M 477.376563 75.117188 
L 505.276563 75.117188 
L 505.276563 47.397188 
L 477.376563 47.397188 
z
" clip-path="url(#pe60e7b6ef5)" style="fill: #dfaf0e; stroke: #ffffff; stroke-linejoin: miter"/>
   </g>
   <g id="patch_53">
    <path d="M 477.376563 102.837187 
L 505.276563 102.837187 
L 505.276563 75.117188 
L 477.376563 75.117188 
z
" clip-path="url(#pe60e7b6ef5)" style="fill: #ffffff; stroke: #ffffff; stroke-linejoin: miter"/>
   </g>
   <g id="patch_54">
    <path d="M 505.276563 47.397187 
L 533.176563 47.397187 
L 533.176563 19.677187 
L 505.276563 19.677187 
z
" clip-path="url(#pe60e7b6ef5)" style="fill: #fdd123; stroke: #ffffff; stroke-linejoin: miter"/>
   </g>
   <g id="patch_55">
    <path d="M 505.276563 75.117188 
L 533.176563 75.117188 
L 533.176563 47.397188 
L 505.276563 47.397188 
z
" clip-path="url(#pe60e7b6ef5)" style="fill: #ffffff; stroke: #ffffff; stroke-linejoin: miter"/>
   </g>
   <g id="patch_56">
    <path d="M 505.276563 102.837187 
L 533.176563 102.837187 
L 533.176563 75.117188 
L 505.276563 75.117188 
z
" clip-path="url(#pe60e7b6ef5)" style="fill: #ffffff; stroke: #ffffff; stroke-linejoin: miter"/>
   </g>
   <g id="patch_57">
    <path d="M 533.176563 47.397187 
L 561.076563 47.397187 
L 561.076563 19.677187 
L 533.176563 19.677187 
z
" clip-path="url(#pe60e7b6ef5)" style="fill: #ffffff; stroke: #ffffff; stroke-linejoin: miter"/>
   </g>
   <g id="patch_58">
    <path d="M 533.176563 75.117188 
L 561.076563 75.117188 
L 561.076563 47.397188 
L 533.176563 47.397188 
z
" clip-path="url(#pe60e7b6ef5)" style="fill: #dfaf0e; stroke: #ffffff; stroke-linejoin: miter"/>
   </g>
   <g id="patch_59">
    <path d="M 533.176563 102.837187 
L 561.076563 102.837187 
L 561.076563 75.117188 
L 533.176563 75.117188 
z
" clip-path="url(#pe60e7b6ef5)" style="fill: #ffffff; stroke: #ffffff; stroke-linejoin: miter"/>
   </g>
   <g id="patch_60">
    <path d="M 561.076563 47.397187 
L 588.976562 47.397187 
L 588.976562 19.677187 
L 561.076563 19.677187 
z
" clip-path="url(#pe60e7b6ef5)" style="fill: #fdd123; stroke: #ffffff; stroke-linejoin: miter"/>
   </g>
   <g id="patch_61">
    <path d="M 561.076563 75.117188 
L 588.976562 75.117188 
L 588.976562 47.397188 
L 561.076563 47.397188 
z
" clip-path="url(#pe60e7b6ef5)" style="fill: #ffffff; stroke: #ffffff; stroke-linejoin: miter"/>
   </g>
   <g id="patch_62">
    <path d="M 561.076563 102.837187 
L 588.976562 102.837187 
L 588.976562 75.117188 
L 561.076563 75.117188 
z
" clip-path="url(#pe60e7b6ef5)" style="fill: #ffffff; stroke: #ffffff; stroke-linejoin: miter"/>
   </g>
   <g id="patch_63">
    <path d="M 588.976562 47.397187 
L 616.876562 47.397187 
L 616.876562 19.677187 
L 588.976562 19.677187 
z
" clip-path="url(#pe60e7b6ef5)" style="fill: #ffffff; stroke: #ffffff; stroke-linejoin: miter"/>
   </g>
   <g id="patch_64">
    <path d="M 588.976562 75.117188 
L 616.876562 75.117188 
L 616.876562 47.397188 
L 588.976562 47.397188 
z
" clip-path="url(#pe60e7b6ef5)" style="fill: #dfaf0e; stroke: #ffffff; stroke-linejoin: miter"/>
   </g>
   <g id="patch_65">
    <path d="M 588.976562 102.837187 
L 616.876562 102.837187 
L 616.876562 75.117188 
L 588.976562 75.117188 
z
" clip-path="url(#pe60e7b6ef5)" style="fill: #ffffff; stroke: #ffffff; stroke-linejoin: miter"/>
   </g>
   <g id="patch_66">
    <path d="M 616.876563 47.397187 
L 644.776563 47.397187 
L 644.776563 19.677187 
L 616.876563 19.677187 
z
" clip-path="url(#pe60e7b6ef5)" style="fill: #fdd123; stroke: #ffffff; stroke-linejoin: miter"/>
   </g>
   <g id="patch_67">
    <path d="M 616.876563 75.117188 
L 644.776563 75.117188 
L 644.776563 47.397188 
L 616.876563 47.397188 
z
" clip-path="url(#pe60e7b6ef5)" style="fill: #ffffff; stroke: #ffffff; stroke-linejoin: miter"/>
   </g>
   <g id="patch_68">
    <path d="M 616.876563 102.837187 
L 644.776563 102.837187 
L 644.776563 75.117188 
L 616.876563 75.117188 
z
" clip-path="url(#pe60e7b6ef5)" style="fill: #ffffff; stroke: #ffffff; stroke-linejoin: miter"/>
   </g>
   <g id="patch_69">
    <path d="M 644.776563 47.397187 
L 672.676563 47.397187 
L 672.676563 19.677187 
L 644.776563 19.677187 
z
" clip-path="url(#pe60e7b6ef5)" style="fill: #fdd123; stroke: #ffffff; stroke-linejoin: miter"/>
   </g>
   <g id="patch_70">
    <path d="M 644.776563 75.117188 
L 672.676563 75.117188 
L 672.676563 47.397188 
L 644.776563 47.397188 
z
" clip-path="url(#pe60e7b6ef5)" style="fill: #ffffff; stroke: #ffffff; stroke-linejoin: miter"/>
   </g>
   <g id="patch_71">
    <path d="M 644.776563 102.837187 
L 672.676563 102.837187 
L 672.676563 75.117188 
L 644.776563 75.117188 
z
" clip-path="url(#pe60e7b6ef5)" style="fill: #ffffff; stroke: #ffffff; stroke-linejoin: miter"/>
   </g>
   <g id="patch_72">
    <path d="M 672.676563 47.397187 
L 700.576563 47.397187 
L 700.576563 19.677187 
L 672.676563 19.677187 
z
" clip-path="url(#pe60e7b6ef5)" style="fill: #fdd123; stroke: #ffffff; stroke-linejoin: miter"/>
   </g>
   <g id="patch_73">
    <path d="M 672.676563 75.117188 
L 700.576563 75.117188 
L 700.576563 47.397188 
L 672.676563 47.397188 
z
" clip-path="url(#pe60e7b6ef5)" style="fill: #ffffff; stroke: #ffffff; stroke-linejoin: miter"/>
   </g>
   <g id="patch_74">
    <path d="M 672.676563 102.837187 
L 700.576563 102.837187 
L 700.576563 75.117188 
L 672.676563 75.117188 
z
" clip-path="url(#pe60e7b6ef5)" style="fill: #ffffff; stroke: #ffffff; stroke-linejoin: miter"/>
   </g>
   <g id="patch_75">
    <path d="M 700.576563 47.397187 
L 728.476562 47.397187 
L 728.476562 19.677187 
L 700.576563 19.677187 
z
" clip-path="url(#pe60e7b6ef5)" style="fill: #fdd123; stroke: #ffffff; stroke-linejoin: miter"/>
   </g>
   <g id="patch_76">
    <path d="M 700.576563 75.117188 
L 728.476562 75.117188 
L 728.476562 47.397188 
L 700.576563 47.397188 
z
" clip-path="url(#pe60e7b6ef5)" style="fill: #ffffff; stroke: #ffffff; stroke-linejoin: miter"/>
   </g>
   <g id="patch_77">
    <path d="M 700.576563 102.837187 
L 728.476562 102.837187 
L 728.476562 75.117188 
L 700.576563 75.117188 
z
" clip-path="url(#pe60e7b6ef5)" style="fill: #ffffff; stroke: #ffffff; stroke-linejoin: miter"/>
   </g>
   <g id="patch_78">
    <path d="M 728.476562 47.397187 
L 756.376562 47.397187 
L 756.376562 19.677187 
L 728.476562 19.677187 
z
" clip-path="url(#pe60e7b6ef5)" style="fill: #ffffff; stroke: #ffffff; stroke-linejoin: miter"/>
   </g>
   <g id="patch_79">
    <path d="M 728.476562 75.117188 
L 756.376562 75.117188 
L 756.376562 47.397188 
L 728.476562 47.397188 
z
" clip-path="url(#pe60e7b6ef5)" style="fill: #dfaf0e; stroke: #ffffff; stroke-linejoin: miter"/>
   </g>
   <g id="patch_80">
    <path d="M 728.476562 102.837187 
L 756.376562 102.837187 
L 756.376562 75.117188 
L 728.476562 75.117188 
z
" clip-path="url(#pe60e7b6ef5)" style="fill: #ffffff; stroke: #ffffff; stroke-linejoin: miter"/>
   </g>
   <g id="patch_81">
    <path d="M 756.376563 47.397187 
L 784.276563 47.397187 
L 784.276563 19.677187 
L 756.376563 19.677187 
z
" clip-path="url(#pe60e7b6ef5)" style="fill: #ffffff; stroke: #ffffff; stroke-linejoin: miter"/>
   </g>
   <g id="patch_82">
    <path d="M 756.376563 75.117188 
L 784.276563 75.117188 
L 784.276563 47.397188 
L 756.376563 47.397188 
z
" clip-path="url(#pe60e7b6ef5)" style="fill: #dfaf0e; stroke: #ffffff; stroke-linejoin: miter"/>
   </g>
   <g id="patch_83">
    <path d="M 756.376563 102.837187 
L 784.276563 102.837187 
L 784.276563 75.117188 
L 756.376563 75.117188 
z
" clip-path="url(#pe60e7b6ef5)" style="fill: #ffffff; stroke: #ffffff; stroke-linejoin: miter"/>
   </g>
   <g id="patch_84">
    <path d="M 784.276563 47.397187 
L 812.176563 47.397187 
L 812.176563 19.677187 
L 784.276563 19.677187 
z
" clip-path="url(#pe60e7b6ef5)" style="fill: #fdd123; stroke: #ffffff; stroke-linejoin: miter"/>
   </g>
   <g id="patch_85">
    <path d="M 784.276563 75.117188 
L 812.176563 75.117188 
L 812.176563 47.397188 
L 784.276563 47.397188 
z
" clip-path="url(#pe60e7b6ef5)" style="fill: #ffffff; stroke: #ffffff; stroke-linejoin: miter"/>
   </g>
   <g id="patch_86">
    <path d="M 784.276563 102.837187 
L 812.176563 102.837187 
L 812.176563 75.117188 
L 784.276563 75.117188 
z
" clip-path="url(#pe60e7b6ef5)" style="fill: #ffffff; stroke: #ffffff; stroke-linejoin: miter"/>
   </g>
   <g id="patch_87">
    <path d="M 812.176563 47.397187 
L 840.076563 47.397187 
L 840.076563 19.677187 
L 812.176563 19.677187 
z
" clip-path="url(#pe60e7b6ef5)" style="fill: #fdd123; stroke: #ffffff; stroke-linejoin: miter"/>
   </g>
   <g id="patch_88">
    <path d="M 812.176563 75.117188 
L 840.076563 75.117188 
L 840.076563 47.397188 
L 812.176563 47.397188 
z
" clip-path="url(#pe60e7b6ef5)" style="fill: #ffffff; stroke: #ffffff; stroke-linejoin: miter"/>
   </g>
   <g id="patch_89">
    <path d="M 812.176563 102.837187 
L 840.076563 102.837187 
L 840.076563 75.117188 
L 812.176563 75.117188 
z
" clip-path="url(#pe60e7b6ef5)" style="fill: #ffffff; stroke: #ffffff; stroke-linejoin: miter"/>
   </g>
   <g id="patch_90">
    <path d="M 840.076563 47.397187 
L 867.976562 47.397187 
L 867.976562 19.677187 
L 840.076563 19.677187 
z
" clip-path="url(#pe60e7b6ef5)" style="fill: #fdd123; stroke: #ffffff; stroke-linejoin: miter"/>
   </g>
   <g id="patch_91">
    <path d="M 840.076563 75.117188 
L 867.976562 75.117188 
L 867.976562 47.397188 
L 840.076563 47.397188 
z
" clip-path="url(#pe60e7b6ef5)" style="fill: #ffffff; stroke: #ffffff; stroke-linejoin: miter"/>
   </g>
   <g id="patch_92">
    <path d="M 840.076563 102.837187 
L 867.976562 102.837187 
L 867.976562 75.117188 
L 840.076563 75.117188 
z
" clip-path="url(#pe60e7b6ef5)" style="fill: #ffffff; stroke: #ffffff; stroke-linejoin: miter"/>
   </g>
   <g id="patch_93">
    <path d="M 867.976563 47.397187 
L 895.876563 47.397187 
L 895.876563 19.677187 
L 867.976563 19.677187 
z
" clip-path="url(#pe60e7b6ef5)" style="fill: #ffffff; stroke: #ffffff; stroke-linejoin: miter"/>
   </g>
   <g id="patch_94">
    <path d="M 867.976563 75.117188 
L 895.876563 75.117188 
L 895.876563 47.397188 
L 867.976563 47.397188 
z
" clip-path="url(#pe60e7b6ef5)" style="fill: #dfaf0e; stroke: #ffffff; stroke-linejoin: miter"/>
   </g>
   <g id="patch_95">
    <path d="M 867.976563 102.837187 
L 895.876563 102.837187 
L 895.876563 75.117188 
L 867.976563 75.117188 
z
" clip-path="url(#pe60e7b6ef5)" style="fill: #ffffff; stroke: #ffffff; stroke-linejoin: miter"/>
   </g>
   <g id="patch_96">
    <path d="M 895.876563 47.397187 
L 923.776563 47.397187 
L 923.776563 19.677187 
L 895.876563 19.677187 
z
" clip-path="url(#pe60e7b6ef5)" style="fill: #ffffff; stroke: #ffffff; stroke-linejoin: miter"/>
   </g>
   <g id="patch_97">
    <path d="M 895.876563 75.117188 
L 923.776563 75.117188 
L 923.776563 47.397188 
L 895.876563 47.397188 
z
" clip-path="url(#pe60e7b6ef5)" style="fill: #dfaf0e; stroke: #ffffff; stroke-linejoin: miter"/>
   </g>
   <g id="patch_98">
    <path d="M 895.876563 102.837187 
L 923.776563 102.837187 
L 923.776563 75.117188 
L 895.876563 75.117188 
z
" clip-path="url(#pe60e7b6ef5)" style="fill: #ffffff; stroke: #ffffff; stroke-linejoin: miter"/>
   </g>
   <g id="patch_99">
    <path d="M 923.776563 47.397187 
L 951.676563 47.397187 
L 951.676563 19.677187 
L 923.776563 19.677187 
z
" clip-path="url(#pe60e7b6ef5)" style="fill: #fdd123; stroke: #ffffff; stroke-linejoin: miter"/>
   </g>
   <g id="patch_100">
    <path d="M 923.776563 75.117188 
L 951.676563 75.117188 
L 951.676563 47.397188 
L 923.776563 47.397188 
z
" clip-path="url(#pe60e7b6ef5)" style="fill: #ffffff; stroke: #ffffff; stroke-linejoin: miter"/>
   </g>
   <g id="patch_101">
    <path d="M 923.776563 102.837187 
L 951.676563 102.837187 
L 951.676563 75.117188 
L 923.776563 75.117188 
z
" clip-path="url(#pe60e7b6ef5)" style="fill: #ffffff; stroke: #ffffff; stroke-linejoin: miter"/>
   </g>
   <g id="patch_102">
    <path d="M 30.976562 102.837187 
L 30.976562 19.677187 
" style="fill: none; stroke: #fdc523; stroke-width: 2; stroke-linejoin: miter; stroke-linecap: square"/>
   </g>
   <g id="patch_103">
    <path d="M 951.676563 102.837187 
L 951.676563 19.677187 
" style="fill: none; stroke: #fdc523; stroke-width: 2; stroke-linejoin: miter; stroke-linecap: square"/>
   </g>
   <g id="patch_104">
    <path d="M 30.976562 102.837187 
L 951.676563 102.837187 
" style="fill: none; stroke: #fdc523; stroke-width: 2; stroke-linejoin: miter; stroke-linecap: square"/>
   </g>
   <g id="patch_105">
    <path d="M 30.976562 19.677187 
L 951.676563 19.677187 
" style="fill: none; stroke: #fdc523; stroke-width: 2; stroke-linejoin: miter; stroke-linecap: square"/>
   </g>
   <g id="text_4">
    <!-- 33x3 -->
    <g style="fill: #fdc523" transform="translate(468.820938 13.677187) scale(0.18 -0.18)">
     <defs>
      <path id="DejaVuSans-33" d="M 2597 2516 
Q 3050 2419 3304 2112 
Q 3559 1806 3559 1356 
Q 3559 666 3084 287 
Q 2609 -91 1734 -91 
Q 1441 -91 1130 -33 
Q 819 25 488 141 
L 488 750 
Q 750 597 1062 519 
Q 1375 441 1716 441 
Q 2309 441 2620 675 
Q 2931 909 2931 1356 
Q 2931 1769 2642 2001 
Q 2353 2234 1838 2234 
L 1294 2234 
L 1294 2753 
L 1863 2753 
Q 2328 2753 2575 2939 
Q 2822 3125 2822 3475 
Q 2822 3834 2567 4026 
Q 2313 4219 1838 4219 
Q 1578 4219 1281 4162 
Q 984 4106 628 3988 
L 628 4550 
Q 988 4650 1302 4700 
Q 1616 4750 1894 4750 
Q 2613 4750 3031 4423 
Q 3450 4097 3450 3541 
Q 3450 3153 3228 2886 
Q 3006 2619 2597 2516 
z
" transform="scale(0.015625)"/>
      <path id="DejaVuSans-78" d="M 3513 3500 
L 2247 1797 
L 3578 0 
L 2900 0 
L 1881 1375 
L 863 0 
L 184 0 
L 1544 1831 
L 300 3500 
L 978 3500 
L 1906 2253 
L 2834 3500 
L 3513 3500 
z
" transform="scale(0.015625)"/>
     </defs>
     <use xlink:href="#DejaVuSans-33"/>
     <use xlink:href="#DejaVuSans-33" transform="translate(63.623047 0)"/>
     <use xlink:href="#DejaVuSans-78" transform="translate(127.246094 0)"/>
     <use xlink:href="#DejaVuSans-33" transform="translate(186.425781 0)"/>
    </g>
   </g>
  </g>
 </g>
 <defs>
  <clipPath id="pe60e7b6ef5">
   <rect x="30.976562" y="19.677187" width="920.7" height="83.16"/>
  </clipPath>
 </defs>
</svg>
