<?xml version="1.0" encoding="utf-8" standalone="no"?>
<!DOCTYPE svg PUBLIC "-//W3C//DTD SVG 1.1//EN"
  "http://www.w3.org/Graphics/SVG/1.1/DTD/svg11.dtd">
<svg xmlns:xlink="http://www.w3.org/1999/xlink" width="1080pt" height="288pt" viewBox="0 0 1080 288" xmlns="http://www.w3.org/2000/svg" version="1.1">
 <metadata>
  <rdf:RDF xmlns:dc="http://purl.org/dc/elements/1.1/" xmlns:cc="http://creativecommons.org/ns#" xmlns:rdf="http://www.w3.org/1999/02/22-rdf-syntax-ns#">
   <cc:Work>
    <dc:type rdf:resource="http://purl.org/dc/dcmitype/StillImage"/>
    <dc:date>2025-03-03T21:15:36.407111</dc:date>
    <dc:format>image/svg+xml</dc:format>
    <dc:creator>
     <cc:Agent>
      <dc:title>Matplotlib v3.5.3, https://matplotlib.org/</dc:title>
     </cc:Agent>
    </dc:creator>
   </cc:Work>
  </rdf:RDF>
 </metadata>
 <defs>
  <style type="text/css">*{stroke-linejoin: round; stroke-linecap: butt}</style>
 </defs>
 <g id="figure_1">
  <g id="patch_1">
   <path d="M 0 288 
L 1080 288 
L 1080 0 
L 0 0 
z
" style="fill: #ffffff"/>
  </g>
  <g id="axes_1">
   <g id="patch_2">
    <path d="M 47.18 248.6275 
L 350.843922 248.6275 
L 350.843922 25.49625 
L 47.18 25.49625 
z
" style="fill: #ffffff"/>
   </g>
   <g id="matplotlib.axis_1">
    <g id="xtick_1">
     <g id="line2d_1">
      <path d="M 55.192913 248.6275 
L 55.192913 25.49625 
" clip-path="url(#p316c8cc902)" style="fill: none; stroke: #cccccc; stroke-width: 0.8; stroke-linecap: round"/>
     </g>
     <g id="text_1">
      <!-- 0 -->
      <g style="fill: #262626" transform="translate(52.412444 262.785313)scale(0.1 -0.1)">
       <defs>
        <path id="ArialMT-30" d="M 266 2259 
Q 266 3072 433 3567 
Q 600 4063 929 4331 
Q 1259 4600 1759 4600 
Q 2128 4600 2406 4451 
Q 2684 4303 2865 4023 
Q 3047 3744 3150 3342 
Q 3253 2941 3253 2259 
Q 3253 1453 3087 958 
Q 2922 463 2592 192 
Q 2263 -78 1759 -78 
Q 1097 -78 719 397 
Q 266 969 266 2259 
z
M 844 2259 
Q 844 1131 1108 757 
Q 1372 384 1759 384 
Q 2147 384 2411 759 
Q 2675 1134 2675 2259 
Q 2675 3391 2411 3762 
Q 2147 4134 1753 4134 
Q 1366 4134 1134 3806 
Q 844 3388 844 2259 
z
" transform="scale(0.015625)"/>
       </defs>
       <use xlink:href="#ArialMT-30"/>
      </g>
     </g>
    </g>
    <g id="xtick_2">
     <g id="line2d_2">
      <path d="M 91.283375 248.6275 
L 91.283375 25.49625 
" clip-path="url(#p316c8cc902)" style="fill: none; stroke: #cccccc; stroke-width: 0.8; stroke-linecap: round"/>
     </g>
     <g id="text_2">
      <!-- 100 -->
      <g style="fill: #262626" transform="translate(82.941969 262.785313)scale(0.1 -0.1)">
       <defs>
        <path id="ArialMT-31" d="M 2384 0 
L 1822 0 
L 1822 3584 
Q 1619 3391 1289 3197 
Q 959 3003 697 2906 
L 697 3450 
Q 1169 3672 1522 3987 
Q 1875 4303 2022 4600 
L 2384 4600 
L 2384 0 
z
" transform="scale(0.015625)"/>
       </defs>
       <use xlink:href="#ArialMT-31"/>
       <use xlink:href="#ArialMT-30" x="55.615234"/>
       <use xlink:href="#ArialMT-30" x="111.230469"/>
      </g>
     </g>
    </g>
    <g id="xtick_3">
     <g id="line2d_3">
      <path d="M 127.373837 248.6275 
L 127.373837 25.49625 
" clip-path="url(#p316c8cc902)" style="fill: none; stroke: #cccccc; stroke-width: 0.8; stroke-linecap: round"/>
     </g>
     <g id="text_3">
      <!-- 200 -->
      <g style="fill: #262626" transform="translate(119.032431 262.785313)scale(0.1 -0.1)">
       <defs>
        <path id="ArialMT-32" d="M 3222 541 
L 3222 0 
L 194 0 
Q 188 203 259 391 
Q 375 700 629 1000 
Q 884 1300 1366 1694 
Q 2113 2306 2375 2664 
Q 2638 3022 2638 3341 
Q 2638 3675 2398 3904 
Q 2159 4134 1775 4134 
Q 1369 4134 1125 3890 
Q 881 3647 878 3216 
L 300 3275 
Q 359 3922 746 4261 
Q 1134 4600 1788 4600 
Q 2447 4600 2831 4234 
Q 3216 3869 3216 3328 
Q 3216 3053 3103 2787 
Q 2991 2522 2730 2228 
Q 2469 1934 1863 1422 
Q 1356 997 1212 845 
Q 1069 694 975 541 
L 3222 541 
z
" transform="scale(0.015625)"/>
       </defs>
       <use xlink:href="#ArialMT-32"/>
       <use xlink:href="#ArialMT-30" x="55.615234"/>
       <use xlink:href="#ArialMT-30" x="111.230469"/>
      </g>
     </g>
    </g>
    <g id="xtick_4">
     <g id="line2d_4">
      <path d="M 163.464299 248.6275 
L 163.464299 25.49625 
" clip-path="url(#p316c8cc902)" style="fill: none; stroke: #cccccc; stroke-width: 0.8; stroke-linecap: round"/>
     </g>
     <g id="text_4">
      <!-- 300 -->
      <g style="fill: #262626" transform="translate(155.122893 262.785313)scale(0.1 -0.1)">
       <defs>
        <path id="ArialMT-33" d="M 269 1209 
L 831 1284 
Q 928 806 1161 595 
Q 1394 384 1728 384 
Q 2125 384 2398 659 
Q 2672 934 2672 1341 
Q 2672 1728 2419 1979 
Q 2166 2231 1775 2231 
Q 1616 2231 1378 2169 
L 1441 2663 
Q 1497 2656 1531 2656 
Q 1891 2656 2178 2843 
Q 2466 3031 2466 3422 
Q 2466 3731 2256 3934 
Q 2047 4138 1716 4138 
Q 1388 4138 1169 3931 
Q 950 3725 888 3313 
L 325 3413 
Q 428 3978 793 4289 
Q 1159 4600 1703 4600 
Q 2078 4600 2393 4439 
Q 2709 4278 2876 4000 
Q 3044 3722 3044 3409 
Q 3044 3113 2884 2869 
Q 2725 2625 2413 2481 
Q 2819 2388 3044 2092 
Q 3269 1797 3269 1353 
Q 3269 753 2831 336 
Q 2394 -81 1725 -81 
Q 1122 -81 723 278 
Q 325 638 269 1209 
z
" transform="scale(0.015625)"/>
       </defs>
       <use xlink:href="#ArialMT-33"/>
       <use xlink:href="#ArialMT-30" x="55.615234"/>
       <use xlink:href="#ArialMT-30" x="111.230469"/>
      </g>
     </g>
    </g>
    <g id="xtick_5">
     <g id="line2d_5">
      <path d="M 199.554762 248.6275 
L 199.554762 25.49625 
" clip-path="url(#p316c8cc902)" style="fill: none; stroke: #cccccc; stroke-width: 0.8; stroke-linecap: round"/>
     </g>
     <g id="text_5">
      <!-- 400 -->
      <g style="fill: #262626" transform="translate(191.213355 262.785313)scale(0.1 -0.1)">
       <defs>
        <path id="ArialMT-34" d="M 2069 0 
L 2069 1097 
L 81 1097 
L 81 1613 
L 2172 4581 
L 2631 4581 
L 2631 1613 
L 3250 1613 
L 3250 1097 
L 2631 1097 
L 2631 0 
L 2069 0 
z
M 2069 1613 
L 2069 3678 
L 634 1613 
L 2069 1613 
z
" transform="scale(0.015625)"/>
       </defs>
       <use xlink:href="#ArialMT-34"/>
       <use xlink:href="#ArialMT-30" x="55.615234"/>
       <use xlink:href="#ArialMT-30" x="111.230469"/>
      </g>
     </g>
    </g>
    <g id="xtick_6">
     <g id="line2d_6">
      <path d="M 235.645224 248.6275 
L 235.645224 25.49625 
" clip-path="url(#p316c8cc902)" style="fill: none; stroke: #cccccc; stroke-width: 0.8; stroke-linecap: round"/>
     </g>
     <g id="text_6">
      <!-- 500 -->
      <g style="fill: #262626" transform="translate(227.303818 262.785313)scale(0.1 -0.1)">
       <defs>
        <path id="ArialMT-35" d="M 266 1200 
L 856 1250 
Q 922 819 1161 601 
Q 1400 384 1738 384 
Q 2144 384 2425 690 
Q 2706 997 2706 1503 
Q 2706 1984 2436 2262 
Q 2166 2541 1728 2541 
Q 1456 2541 1237 2417 
Q 1019 2294 894 2097 
L 366 2166 
L 809 4519 
L 3088 4519 
L 3088 3981 
L 1259 3981 
L 1013 2750 
Q 1425 3038 1878 3038 
Q 2478 3038 2890 2622 
Q 3303 2206 3303 1553 
Q 3303 931 2941 478 
Q 2500 -78 1738 -78 
Q 1113 -78 717 272 
Q 322 622 266 1200 
z
" transform="scale(0.015625)"/>
       </defs>
       <use xlink:href="#ArialMT-35"/>
       <use xlink:href="#ArialMT-30" x="55.615234"/>
       <use xlink:href="#ArialMT-30" x="111.230469"/>
      </g>
     </g>
    </g>
    <g id="xtick_7">
     <g id="line2d_7">
      <path d="M 271.735686 248.6275 
L 271.735686 25.49625 
" clip-path="url(#p316c8cc902)" style="fill: none; stroke: #cccccc; stroke-width: 0.8; stroke-linecap: round"/>
     </g>
     <g id="text_7">
      <!-- 600 -->
      <g style="fill: #262626" transform="translate(263.39428 262.785313)scale(0.1 -0.1)">
       <defs>
        <path id="ArialMT-36" d="M 3184 3459 
L 2625 3416 
Q 2550 3747 2413 3897 
Q 2184 4138 1850 4138 
Q 1581 4138 1378 3988 
Q 1113 3794 959 3422 
Q 806 3050 800 2363 
Q 1003 2672 1297 2822 
Q 1591 2972 1913 2972 
Q 2475 2972 2870 2558 
Q 3266 2144 3266 1488 
Q 3266 1056 3080 686 
Q 2894 316 2569 119 
Q 2244 -78 1831 -78 
Q 1128 -78 684 439 
Q 241 956 241 2144 
Q 241 3472 731 4075 
Q 1159 4600 1884 4600 
Q 2425 4600 2770 4297 
Q 3116 3994 3184 3459 
z
M 888 1484 
Q 888 1194 1011 928 
Q 1134 663 1356 523 
Q 1578 384 1822 384 
Q 2178 384 2434 671 
Q 2691 959 2691 1453 
Q 2691 1928 2437 2201 
Q 2184 2475 1800 2475 
Q 1419 2475 1153 2201 
Q 888 1928 888 1484 
z
" transform="scale(0.015625)"/>
       </defs>
       <use xlink:href="#ArialMT-36"/>
       <use xlink:href="#ArialMT-30" x="55.615234"/>
       <use xlink:href="#ArialMT-30" x="111.230469"/>
      </g>
     </g>
    </g>
    <g id="xtick_8">
     <g id="line2d_8">
      <path d="M 307.826148 248.6275 
L 307.826148 25.49625 
" clip-path="url(#p316c8cc902)" style="fill: none; stroke: #cccccc; stroke-width: 0.8; stroke-linecap: round"/>
     </g>
     <g id="text_8">
      <!-- 700 -->
      <g style="fill: #262626" transform="translate(299.484742 262.785313)scale(0.1 -0.1)">
       <defs>
        <path id="ArialMT-37" d="M 303 3981 
L 303 4522 
L 3269 4522 
L 3269 4084 
Q 2831 3619 2401 2847 
Q 1972 2075 1738 1259 
Q 1569 684 1522 0 
L 944 0 
Q 953 541 1156 1306 
Q 1359 2072 1739 2783 
Q 2119 3494 2547 3981 
L 303 3981 
z
" transform="scale(0.015625)"/>
       </defs>
       <use xlink:href="#ArialMT-37"/>
       <use xlink:href="#ArialMT-30" x="55.615234"/>
       <use xlink:href="#ArialMT-30" x="111.230469"/>
      </g>
     </g>
    </g>
    <g id="xtick_9">
     <g id="line2d_9">
      <path d="M 343.916611 248.6275 
L 343.916611 25.49625 
" clip-path="url(#p316c8cc902)" style="fill: none; stroke: #cccccc; stroke-width: 0.8; stroke-linecap: round"/>
     </g>
     <g id="text_9">
      <!-- 800 -->
      <g style="fill: #262626" transform="translate(335.575204 262.785313)scale(0.1 -0.1)">
       <defs>
        <path id="ArialMT-38" d="M 1131 2484 
Q 781 2613 612 2850 
Q 444 3088 444 3419 
Q 444 3919 803 4259 
Q 1163 4600 1759 4600 
Q 2359 4600 2725 4251 
Q 3091 3903 3091 3403 
Q 3091 3084 2923 2848 
Q 2756 2613 2416 2484 
Q 2838 2347 3058 2040 
Q 3278 1734 3278 1309 
Q 3278 722 2862 322 
Q 2447 -78 1769 -78 
Q 1091 -78 675 323 
Q 259 725 259 1325 
Q 259 1772 486 2073 
Q 713 2375 1131 2484 
z
M 1019 3438 
Q 1019 3113 1228 2906 
Q 1438 2700 1772 2700 
Q 2097 2700 2305 2904 
Q 2513 3109 2513 3406 
Q 2513 3716 2298 3927 
Q 2084 4138 1766 4138 
Q 1444 4138 1231 3931 
Q 1019 3725 1019 3438 
z
M 838 1322 
Q 838 1081 952 856 
Q 1066 631 1291 507 
Q 1516 384 1775 384 
Q 2178 384 2440 643 
Q 2703 903 2703 1303 
Q 2703 1709 2433 1975 
Q 2163 2241 1756 2241 
Q 1359 2241 1098 1978 
Q 838 1716 838 1322 
z
" transform="scale(0.015625)"/>
       </defs>
       <use xlink:href="#ArialMT-38"/>
       <use xlink:href="#ArialMT-30" x="55.615234"/>
       <use xlink:href="#ArialMT-30" x="111.230469"/>
      </g>
     </g>
    </g>
    <g id="text_10">
     <!-- Molecular Weight -->
     <g style="fill: #262626" transform="translate(160.476024 275.930625)scale(0.1 -0.1)">
      <defs>
       <path id="ArialMT-4d" d="M 475 0 
L 475 4581 
L 1388 4581 
L 2472 1338 
Q 2622 884 2691 659 
Q 2769 909 2934 1394 
L 4031 4581 
L 4847 4581 
L 4847 0 
L 4263 0 
L 4263 3834 
L 2931 0 
L 2384 0 
L 1059 3900 
L 1059 0 
L 475 0 
z
" transform="scale(0.015625)"/>
       <path id="ArialMT-6f" d="M 213 1659 
Q 213 2581 725 3025 
Q 1153 3394 1769 3394 
Q 2453 3394 2887 2945 
Q 3322 2497 3322 1706 
Q 3322 1066 3130 698 
Q 2938 331 2570 128 
Q 2203 -75 1769 -75 
Q 1072 -75 642 372 
Q 213 819 213 1659 
z
M 791 1659 
Q 791 1022 1069 705 
Q 1347 388 1769 388 
Q 2188 388 2466 706 
Q 2744 1025 2744 1678 
Q 2744 2294 2464 2611 
Q 2184 2928 1769 2928 
Q 1347 2928 1069 2612 
Q 791 2297 791 1659 
z
" transform="scale(0.015625)"/>
       <path id="ArialMT-6c" d="M 409 0 
L 409 4581 
L 972 4581 
L 972 0 
L 409 0 
z
" transform="scale(0.015625)"/>
       <path id="ArialMT-65" d="M 2694 1069 
L 3275 997 
Q 3138 488 2766 206 
Q 2394 -75 1816 -75 
Q 1088 -75 661 373 
Q 234 822 234 1631 
Q 234 2469 665 2931 
Q 1097 3394 1784 3394 
Q 2450 3394 2872 2941 
Q 3294 2488 3294 1666 
Q 3294 1616 3291 1516 
L 816 1516 
Q 847 969 1125 678 
Q 1403 388 1819 388 
Q 2128 388 2347 550 
Q 2566 713 2694 1069 
z
M 847 1978 
L 2700 1978 
Q 2663 2397 2488 2606 
Q 2219 2931 1791 2931 
Q 1403 2931 1139 2672 
Q 875 2413 847 1978 
z
" transform="scale(0.015625)"/>
       <path id="ArialMT-63" d="M 2588 1216 
L 3141 1144 
Q 3050 572 2676 248 
Q 2303 -75 1759 -75 
Q 1078 -75 664 370 
Q 250 816 250 1647 
Q 250 2184 428 2587 
Q 606 2991 970 3192 
Q 1334 3394 1763 3394 
Q 2303 3394 2647 3120 
Q 2991 2847 3088 2344 
L 2541 2259 
Q 2463 2594 2264 2762 
Q 2066 2931 1784 2931 
Q 1359 2931 1093 2626 
Q 828 2322 828 1663 
Q 828 994 1084 691 
Q 1341 388 1753 388 
Q 2084 388 2306 591 
Q 2528 794 2588 1216 
z
" transform="scale(0.015625)"/>
       <path id="ArialMT-75" d="M 2597 0 
L 2597 488 
Q 2209 -75 1544 -75 
Q 1250 -75 995 37 
Q 741 150 617 320 
Q 494 491 444 738 
Q 409 903 409 1263 
L 409 3319 
L 972 3319 
L 972 1478 
Q 972 1038 1006 884 
Q 1059 663 1231 536 
Q 1403 409 1656 409 
Q 1909 409 2131 539 
Q 2353 669 2445 892 
Q 2538 1116 2538 1541 
L 2538 3319 
L 3100 3319 
L 3100 0 
L 2597 0 
z
" transform="scale(0.015625)"/>
       <path id="ArialMT-61" d="M 2588 409 
Q 2275 144 1986 34 
Q 1697 -75 1366 -75 
Q 819 -75 525 192 
Q 231 459 231 875 
Q 231 1119 342 1320 
Q 453 1522 633 1644 
Q 813 1766 1038 1828 
Q 1203 1872 1538 1913 
Q 2219 1994 2541 2106 
Q 2544 2222 2544 2253 
Q 2544 2597 2384 2738 
Q 2169 2928 1744 2928 
Q 1347 2928 1158 2789 
Q 969 2650 878 2297 
L 328 2372 
Q 403 2725 575 2942 
Q 747 3159 1072 3276 
Q 1397 3394 1825 3394 
Q 2250 3394 2515 3294 
Q 2781 3194 2906 3042 
Q 3031 2891 3081 2659 
Q 3109 2516 3109 2141 
L 3109 1391 
Q 3109 606 3145 398 
Q 3181 191 3288 0 
L 2700 0 
Q 2613 175 2588 409 
z
M 2541 1666 
Q 2234 1541 1622 1453 
Q 1275 1403 1131 1340 
Q 988 1278 909 1158 
Q 831 1038 831 891 
Q 831 666 1001 516 
Q 1172 366 1500 366 
Q 1825 366 2078 508 
Q 2331 650 2450 897 
Q 2541 1088 2541 1459 
L 2541 1666 
z
" transform="scale(0.015625)"/>
       <path id="ArialMT-72" d="M 416 0 
L 416 3319 
L 922 3319 
L 922 2816 
Q 1116 3169 1280 3281 
Q 1444 3394 1641 3394 
Q 1925 3394 2219 3213 
L 2025 2691 
Q 1819 2813 1613 2813 
Q 1428 2813 1281 2702 
Q 1134 2591 1072 2394 
Q 978 2094 978 1738 
L 978 0 
L 416 0 
z
" transform="scale(0.015625)"/>
       <path id="ArialMT-20" transform="scale(0.015625)"/>
       <path id="ArialMT-57" d="M 1294 0 
L 78 4581 
L 700 4581 
L 1397 1578 
Q 1509 1106 1591 641 
Q 1766 1375 1797 1488 
L 2669 4581 
L 3400 4581 
L 4056 2263 
Q 4303 1400 4413 641 
Q 4500 1075 4641 1638 
L 5359 4581 
L 5969 4581 
L 4713 0 
L 4128 0 
L 3163 3491 
Q 3041 3928 3019 4028 
Q 2947 3713 2884 3491 
L 1913 0 
L 1294 0 
z
" transform="scale(0.015625)"/>
       <path id="ArialMT-69" d="M 425 3934 
L 425 4581 
L 988 4581 
L 988 3934 
L 425 3934 
z
M 425 0 
L 425 3319 
L 988 3319 
L 988 0 
L 425 0 
z
" transform="scale(0.015625)"/>
       <path id="ArialMT-67" d="M 319 -275 
L 866 -356 
Q 900 -609 1056 -725 
Q 1266 -881 1628 -881 
Q 2019 -881 2231 -725 
Q 2444 -569 2519 -288 
Q 2563 -116 2559 434 
Q 2191 0 1641 0 
Q 956 0 581 494 
Q 206 988 206 1678 
Q 206 2153 378 2554 
Q 550 2956 876 3175 
Q 1203 3394 1644 3394 
Q 2231 3394 2613 2919 
L 2613 3319 
L 3131 3319 
L 3131 450 
Q 3131 -325 2973 -648 
Q 2816 -972 2473 -1159 
Q 2131 -1347 1631 -1347 
Q 1038 -1347 672 -1080 
Q 306 -813 319 -275 
z
M 784 1719 
Q 784 1066 1043 766 
Q 1303 466 1694 466 
Q 2081 466 2343 764 
Q 2606 1063 2606 1700 
Q 2606 2309 2336 2618 
Q 2066 2928 1684 2928 
Q 1309 2928 1046 2623 
Q 784 2319 784 1719 
z
" transform="scale(0.015625)"/>
       <path id="ArialMT-68" d="M 422 0 
L 422 4581 
L 984 4581 
L 984 2938 
Q 1378 3394 1978 3394 
Q 2347 3394 2619 3248 
Q 2891 3103 3008 2847 
Q 3125 2591 3125 2103 
L 3125 0 
L 2563 0 
L 2563 2103 
Q 2563 2525 2380 2717 
Q 2197 2909 1863 2909 
Q 1613 2909 1392 2779 
Q 1172 2650 1078 2428 
Q 984 2206 984 1816 
L 984 0 
L 422 0 
z
" transform="scale(0.015625)"/>
       <path id="ArialMT-74" d="M 1650 503 
L 1731 6 
Q 1494 -44 1306 -44 
Q 1000 -44 831 53 
Q 663 150 594 308 
Q 525 466 525 972 
L 525 2881 
L 113 2881 
L 113 3319 
L 525 3319 
L 525 4141 
L 1084 4478 
L 1084 3319 
L 1650 3319 
L 1650 2881 
L 1084 2881 
L 1084 941 
Q 1084 700 1114 631 
Q 1144 563 1211 522 
Q 1278 481 1403 481 
Q 1497 481 1650 503 
z
" transform="scale(0.015625)"/>
      </defs>
      <use xlink:href="#ArialMT-4d"/>
      <use xlink:href="#ArialMT-6f" x="83.300781"/>
      <use xlink:href="#ArialMT-6c" x="138.916016"/>
      <use xlink:href="#ArialMT-65" x="161.132812"/>
      <use xlink:href="#ArialMT-63" x="216.748047"/>
      <use xlink:href="#ArialMT-75" x="266.748047"/>
      <use xlink:href="#ArialMT-6c" x="322.363281"/>
      <use xlink:href="#ArialMT-61" x="344.580078"/>
      <use xlink:href="#ArialMT-72" x="400.195312"/>
      <use xlink:href="#ArialMT-20" x="433.496094"/>
      <use xlink:href="#ArialMT-57" x="461.279297"/>
      <use xlink:href="#ArialMT-65" x="553.914062"/>
      <use xlink:href="#ArialMT-69" x="609.529297"/>
      <use xlink:href="#ArialMT-67" x="631.746094"/>
      <use xlink:href="#ArialMT-68" x="687.361328"/>
      <use xlink:href="#ArialMT-74" x="742.976562"/>
     </g>
    </g>
   </g>
   <g id="matplotlib.axis_2">
    <g id="ytick_1">
     <g id="line2d_10">
      <path d="M 47.18 248.6275 
L 350.843922 248.6275 
" clip-path="url(#p316c8cc902)" style="fill: none; stroke: #cccccc; stroke-width: 0.8; stroke-linecap: round"/>
     </g>
     <g id="text_11">
      <!-- 0 -->
      <g style="fill: #262626" transform="translate(34.619062 252.206406)scale(0.1 -0.1)">
       <use xlink:href="#ArialMT-30"/>
      </g>
     </g>
    </g>
    <g id="ytick_2">
     <g id="line2d_11">
      <path d="M 47.18 200.110159 
L 350.843922 200.110159 
" clip-path="url(#p316c8cc902)" style="fill: none; stroke: #cccccc; stroke-width: 0.8; stroke-linecap: round"/>
     </g>
     <g id="text_12">
      <!-- 50 -->
      <g style="fill: #262626" transform="translate(29.058125 203.689066)scale(0.1 -0.1)">
       <use xlink:href="#ArialMT-35"/>
       <use xlink:href="#ArialMT-30" x="55.615234"/>
      </g>
     </g>
    </g>
    <g id="ytick_3">
     <g id="line2d_12">
      <path d="M 47.18 151.592819 
L 350.843922 151.592819 
" clip-path="url(#p316c8cc902)" style="fill: none; stroke: #cccccc; stroke-width: 0.8; stroke-linecap: round"/>
     </g>
     <g id="text_13">
      <!-- 100 -->
      <g style="fill: #262626" transform="translate(23.497187 155.171725)scale(0.1 -0.1)">
       <use xlink:href="#ArialMT-31"/>
       <use xlink:href="#ArialMT-30" x="55.615234"/>
       <use xlink:href="#ArialMT-30" x="111.230469"/>
      </g>
     </g>
    </g>
    <g id="ytick_4">
     <g id="line2d_13">
      <path d="M 47.18 103.075478 
L 350.843922 103.075478 
" clip-path="url(#p316c8cc902)" style="fill: none; stroke: #cccccc; stroke-width: 0.8; stroke-linecap: round"/>
     </g>
     <g id="text_14">
      <!-- 150 -->
      <g style="fill: #262626" transform="translate(23.497187 106.654384)scale(0.1 -0.1)">
       <use xlink:href="#ArialMT-31"/>
       <use xlink:href="#ArialMT-35" x="55.615234"/>
       <use xlink:href="#ArialMT-30" x="111.230469"/>
      </g>
     </g>
    </g>
    <g id="ytick_5">
     <g id="line2d_14">
      <path d="M 47.18 54.558137 
L 350.843922 54.558137 
" clip-path="url(#p316c8cc902)" style="fill: none; stroke: #cccccc; stroke-width: 0.8; stroke-linecap: round"/>
     </g>
     <g id="text_15">
      <!-- 200 -->
      <g style="fill: #262626" transform="translate(23.497187 58.137043)scale(0.1 -0.1)">
       <use xlink:href="#ArialMT-32"/>
       <use xlink:href="#ArialMT-30" x="55.615234"/>
       <use xlink:href="#ArialMT-30" x="111.230469"/>
      </g>
     </g>
    </g>
    <g id="text_16">
     <!-- Count -->
     <g style="fill: #262626" transform="translate(17.509687 150.403281)rotate(-90)scale(0.1 -0.1)">
      <defs>
       <path id="ArialMT-43" d="M 3763 1606 
L 4369 1453 
Q 4178 706 3683 314 
Q 3188 -78 2472 -78 
Q 1731 -78 1267 223 
Q 803 525 561 1097 
Q 319 1669 319 2325 
Q 319 3041 592 3573 
Q 866 4106 1370 4382 
Q 1875 4659 2481 4659 
Q 3169 4659 3637 4309 
Q 4106 3959 4291 3325 
L 3694 3184 
Q 3534 3684 3231 3912 
Q 2928 4141 2469 4141 
Q 1941 4141 1586 3887 
Q 1231 3634 1087 3207 
Q 944 2781 944 2328 
Q 944 1744 1114 1308 
Q 1284 872 1643 656 
Q 2003 441 2422 441 
Q 2931 441 3284 734 
Q 3638 1028 3763 1606 
z
" transform="scale(0.015625)"/>
       <path id="ArialMT-6e" d="M 422 0 
L 422 3319 
L 928 3319 
L 928 2847 
Q 1294 3394 1984 3394 
Q 2284 3394 2536 3286 
Q 2788 3178 2913 3003 
Q 3038 2828 3088 2588 
Q 3119 2431 3119 2041 
L 3119 0 
L 2556 0 
L 2556 2019 
Q 2556 2363 2490 2533 
Q 2425 2703 2258 2804 
Q 2091 2906 1866 2906 
Q 1506 2906 1245 2678 
Q 984 2450 984 1813 
L 984 0 
L 422 0 
z
" transform="scale(0.015625)"/>
      </defs>
      <use xlink:href="#ArialMT-43"/>
      <use xlink:href="#ArialMT-6f" x="72.216797"/>
      <use xlink:href="#ArialMT-75" x="127.832031"/>
      <use xlink:href="#ArialMT-6e" x="183.447266"/>
      <use xlink:href="#ArialMT-74" x="239.0625"/>
     </g>
    </g>
   </g>
   <g id="patch_3">
    <path d="M 60.982906 248.6275 
L 74.785811 248.6275 
L 74.785811 235.042645 
L 60.982906 235.042645 
z
" clip-path="url(#p316c8cc902)" style="fill: #fdc422; fill-opacity: 0.5; stroke: #ffffff; stroke-linejoin: miter"/>
   </g>
   <g id="patch_4">
    <path d="M 74.785811 248.6275 
L 88.588717 248.6275 
L 88.588717 144.800391 
L 74.785811 144.800391 
z
" clip-path="url(#p316c8cc902)" style="fill: #fdc422; fill-opacity: 0.5; stroke: #ffffff; stroke-linejoin: miter"/>
   </g>
   <g id="patch_5">
    <path d="M 88.588717 248.6275 
L 102.391622 248.6275 
L 102.391622 36.121548 
L 88.588717 36.121548 
z
" clip-path="url(#p316c8cc902)" style="fill: #fdc422; fill-opacity: 0.5; stroke: #ffffff; stroke-linejoin: miter"/>
   </g>
   <g id="patch_6">
    <path d="M 102.391622 248.6275 
L 116.194528 248.6275 
L 116.194528 80.757501 
L 102.391622 80.757501 
z
" clip-path="url(#p316c8cc902)" style="fill: #fdc422; fill-opacity: 0.5; stroke: #ffffff; stroke-linejoin: miter"/>
   </g>
   <g id="patch_7">
    <path d="M 116.194528 248.6275 
L 129.997433 248.6275 
L 129.997433 129.274842 
L 116.194528 129.274842 
z
" clip-path="url(#p316c8cc902)" style="fill: #fdc422; fill-opacity: 0.5; stroke: #ffffff; stroke-linejoin: miter"/>
   </g>
   <g id="patch_8">
    <path d="M 129.997433 248.6275 
L 143.800339 248.6275 
L 143.800339 117.63068 
L 129.997433 117.63068 
z
" clip-path="url(#p316c8cc902)" style="fill: #fdc422; fill-opacity: 0.5; stroke: #ffffff; stroke-linejoin: miter"/>
   </g>
   <g id="patch_9">
    <path d="M 143.800339 248.6275 
L 157.603244 248.6275 
L 157.603244 154.503859 
L 143.800339 154.503859 
z
" clip-path="url(#p316c8cc902)" style="fill: #fdc422; fill-opacity: 0.5; stroke: #ffffff; stroke-linejoin: miter"/>
   </g>
   <g id="patch_10">
    <path d="M 157.603244 248.6275 
L 171.40615 248.6275 
L 171.40615 154.503859 
L 157.603244 154.503859 
z
" clip-path="url(#p316c8cc902)" style="fill: #fdc422; fill-opacity: 0.5; stroke: #ffffff; stroke-linejoin: miter"/>
   </g>
   <g id="patch_11">
    <path d="M 171.40615 248.6275 
L 185.209056 248.6275 
L 185.209056 187.495651 
L 171.40615 187.495651 
z
" clip-path="url(#p316c8cc902)" style="fill: #fdc422; fill-opacity: 0.5; stroke: #ffffff; stroke-linejoin: miter"/>
   </g>
   <g id="patch_12">
    <path d="M 185.209056 248.6275 
L 199.011961 248.6275 
L 199.011961 193.317732 
L 185.209056 193.317732 
z
" clip-path="url(#p316c8cc902)" style="fill: #fdc422; fill-opacity: 0.5; stroke: #ffffff; stroke-linejoin: miter"/>
   </g>
   <g id="patch_13">
    <path d="M 199.011961 248.6275 
L 212.814867 248.6275 
L 212.814867 225.339176 
L 199.011961 225.339176 
z
" clip-path="url(#p316c8cc902)" style="fill: #fdc422; fill-opacity: 0.5; stroke: #ffffff; stroke-linejoin: miter"/>
   </g>
   <g id="patch_14">
    <path d="M 212.814867 248.6275 
L 226.617772 248.6275 
L 226.617772 242.805419 
L 212.814867 242.805419 
z
" clip-path="url(#p316c8cc902)" style="fill: #fdc422; fill-opacity: 0.5; stroke: #ffffff; stroke-linejoin: miter"/>
   </g>
   <g id="patch_15">
    <path d="M 226.617772 248.6275 
L 240.420678 248.6275 
L 240.420678 240.864725 
L 226.617772 240.864725 
z
" clip-path="url(#p316c8cc902)" style="fill: #fdc422; fill-opacity: 0.5; stroke: #ffffff; stroke-linejoin: miter"/>
   </g>
   <g id="patch_16">
    <path d="M 240.420678 248.6275 
L 254.223583 248.6275 
L 254.223583 246.686806 
L 240.420678 246.686806 
z
" clip-path="url(#p316c8cc902)" style="fill: #fdc422; fill-opacity: 0.5; stroke: #ffffff; stroke-linejoin: miter"/>
   </g>
   <g id="patch_17">
    <path d="M 254.223583 248.6275 
L 268.026489 248.6275 
L 268.026489 247.657153 
L 254.223583 247.657153 
z
" clip-path="url(#p316c8cc902)" style="fill: #fdc422; fill-opacity: 0.5; stroke: #ffffff; stroke-linejoin: miter"/>
   </g>
   <g id="patch_18">
    <path d="M 268.026489 248.6275 
L 281.829394 248.6275 
L 281.829394 248.6275 
L 268.026489 248.6275 
z
" clip-path="url(#p316c8cc902)" style="fill: #fdc422; fill-opacity: 0.5; stroke: #ffffff; stroke-linejoin: miter"/>
   </g>
   <g id="patch_19">
    <path d="M 281.829394 248.6275 
L 295.6323 248.6275 
L 295.6323 248.6275 
L 281.829394 248.6275 
z
" clip-path="url(#p316c8cc902)" style="fill: #fdc422; fill-opacity: 0.5; stroke: #ffffff; stroke-linejoin: miter"/>
   </g>
   <g id="patch_20">
    <path d="M 295.6323 248.6275 
L 309.435205 248.6275 
L 309.435205 248.6275 
L 295.6323 248.6275 
z
" clip-path="url(#p316c8cc902)" style="fill: #fdc422; fill-opacity: 0.5; stroke: #ffffff; stroke-linejoin: miter"/>
   </g>
   <g id="patch_21">
    <path d="M 309.435205 248.6275 
L 323.238111 248.6275 
L 323.238111 248.6275 
L 309.435205 248.6275 
z
" clip-path="url(#p316c8cc902)" style="fill: #fdc422; fill-opacity: 0.5; stroke: #ffffff; stroke-linejoin: miter"/>
   </g>
   <g id="patch_22">
    <path d="M 323.238111 248.6275 
L 337.041017 248.6275 
L 337.041017 246.686806 
L 323.238111 246.686806 
z
" clip-path="url(#p316c8cc902)" style="fill: #fdc422; fill-opacity: 0.5; stroke: #ffffff; stroke-linejoin: miter"/>
   </g>
   <g id="line2d_15">
    <path d="M 60.982906 238.390131 
L 62.370132 235.961798 
L 63.757359 233.08559 
L 65.144586 229.709091 
L 66.531812 225.781837 
L 67.919039 221.258044 
L 69.306266 216.099695 
L 70.693492 210.279807 
L 72.080719 203.785673 
L 73.467946 196.621866 
L 76.242399 180.404463 
L 79.016853 162.088023 
L 87.340213 104.073157 
L 88.727439 95.576131 
L 90.114666 87.826538 
L 91.501893 80.948422 
L 92.889119 75.040726 
L 94.276346 70.173538 
L 95.663573 66.386023 
L 97.050799 63.686175 
L 98.438026 62.052329 
L 99.825253 61.436228 
L 101.21248 61.767259 
L 102.599706 62.957381 
L 103.986933 64.90626 
L 105.37416 67.506119 
L 106.761386 70.645958 
L 108.148613 74.214922 
L 110.923066 82.211418 
L 116.471973 98.927388 
L 119.246426 106.350199 
L 120.633653 109.619439 
L 122.02088 112.54971 
L 123.408107 115.128637 
L 124.795333 117.361728 
L 126.18256 119.27214 
L 127.569787 120.899052 
L 128.957013 122.294589 
L 131.731467 124.63784 
L 135.893147 127.933781 
L 138.6676 130.474182 
L 141.442053 133.397683 
L 145.603734 138.230502 
L 151.15264 144.657969 
L 158.088774 152.534379 
L 160.863227 156.031054 
L 163.637681 159.862246 
L 167.799361 166.110245 
L 174.735494 176.734057 
L 187.220534 195.351152 
L 201.092801 217.338789 
L 205.254481 223.222348 
L 208.028935 226.832303 
L 210.803388 230.146507 
L 213.577841 233.10742 
L 216.352295 235.65206 
L 219.126748 237.732728 
L 221.901201 239.338443 
L 224.675655 240.507745 
L 227.450108 241.327293 
L 231.611788 242.164253 
L 238.547922 243.440433 
L 244.096828 244.757758 
L 249.645735 246.070666 
L 253.807415 246.830041 
L 257.969095 247.33346 
L 263.518002 247.693689 
L 285.713629 248.545922 
L 296.811443 248.623637 
L 312.070936 248.550695 
L 319.00707 248.308536 
L 334.266563 247.509992 
L 337.041017 247.559454 
L 337.041017 247.559454 
" clip-path="url(#p316c8cc902)" style="fill: none; stroke: #fdc422; stroke-width: 1.5; stroke-linecap: round"/>
   </g>
   <g id="patch_23">
    <path d="M 47.18 248.6275 
L 47.18 25.49625 
" style="fill: none; stroke: #cccccc; stroke-width: 0.8; stroke-linejoin: miter; stroke-linecap: square"/>
   </g>
   <g id="patch_24">
    <path d="M 350.843922 248.6275 
L 350.843922 25.49625 
" style="fill: none; stroke: #cccccc; stroke-width: 0.8; stroke-linejoin: miter; stroke-linecap: square"/>
   </g>
   <g id="patch_25">
    <path d="M 47.18 248.6275 
L 350.843922 248.6275 
" style="fill: none; stroke: #cccccc; stroke-width: 0.8; stroke-linejoin: miter; stroke-linecap: square"/>
   </g>
   <g id="patch_26">
    <path d="M 47.18 25.49625 
L 350.843922 25.49625 
" style="fill: none; stroke: #cccccc; stroke-width: 0.8; stroke-linejoin: miter; stroke-linecap: square"/>
   </g>
   <g id="text_17">
    <!-- Molecular Weight (MW) Distribution -->
    <g style="fill: #262626" transform="translate(104.767899 19.49625)scale(0.12 -0.12)">
     <defs>
      <path id="ArialMT-28" d="M 1497 -1347 
Q 1031 -759 709 28 
Q 388 816 388 1659 
Q 388 2403 628 3084 
Q 909 3875 1497 4659 
L 1900 4659 
Q 1522 4009 1400 3731 
Q 1209 3300 1100 2831 
Q 966 2247 966 1656 
Q 966 153 1900 -1347 
L 1497 -1347 
z
" transform="scale(0.015625)"/>
      <path id="ArialMT-29" d="M 791 -1347 
L 388 -1347 
Q 1322 153 1322 1656 
Q 1322 2244 1188 2822 
Q 1081 3291 891 3722 
Q 769 4003 388 4659 
L 791 4659 
Q 1378 3875 1659 3084 
Q 1900 2403 1900 1659 
Q 1900 816 1576 28 
Q 1253 -759 791 -1347 
z
" transform="scale(0.015625)"/>
      <path id="ArialMT-44" d="M 494 0 
L 494 4581 
L 2072 4581 
Q 2606 4581 2888 4516 
Q 3281 4425 3559 4188 
Q 3922 3881 4101 3404 
Q 4281 2928 4281 2316 
Q 4281 1794 4159 1391 
Q 4038 988 3847 723 
Q 3656 459 3429 307 
Q 3203 156 2883 78 
Q 2563 0 2147 0 
L 494 0 
z
M 1100 541 
L 2078 541 
Q 2531 541 2789 625 
Q 3047 709 3200 863 
Q 3416 1078 3536 1442 
Q 3656 1806 3656 2325 
Q 3656 3044 3420 3430 
Q 3184 3816 2847 3947 
Q 2603 4041 2063 4041 
L 1100 4041 
L 1100 541 
z
" transform="scale(0.015625)"/>
      <path id="ArialMT-73" d="M 197 991 
L 753 1078 
Q 800 744 1014 566 
Q 1228 388 1613 388 
Q 2000 388 2187 545 
Q 2375 703 2375 916 
Q 2375 1106 2209 1216 
Q 2094 1291 1634 1406 
Q 1016 1563 777 1677 
Q 538 1791 414 1992 
Q 291 2194 291 2438 
Q 291 2659 392 2848 
Q 494 3038 669 3163 
Q 800 3259 1026 3326 
Q 1253 3394 1513 3394 
Q 1903 3394 2198 3281 
Q 2494 3169 2634 2976 
Q 2775 2784 2828 2463 
L 2278 2388 
Q 2241 2644 2061 2787 
Q 1881 2931 1553 2931 
Q 1166 2931 1000 2803 
Q 834 2675 834 2503 
Q 834 2394 903 2306 
Q 972 2216 1119 2156 
Q 1203 2125 1616 2013 
Q 2213 1853 2448 1751 
Q 2684 1650 2818 1456 
Q 2953 1263 2953 975 
Q 2953 694 2789 445 
Q 2625 197 2315 61 
Q 2006 -75 1616 -75 
Q 969 -75 630 194 
Q 291 463 197 991 
z
" transform="scale(0.015625)"/>
      <path id="ArialMT-62" d="M 941 0 
L 419 0 
L 419 4581 
L 981 4581 
L 981 2947 
Q 1338 3394 1891 3394 
Q 2197 3394 2470 3270 
Q 2744 3147 2920 2923 
Q 3097 2700 3197 2384 
Q 3297 2069 3297 1709 
Q 3297 856 2875 390 
Q 2453 -75 1863 -75 
Q 1275 -75 941 416 
L 941 0 
z
M 934 1684 
Q 934 1088 1097 822 
Q 1363 388 1816 388 
Q 2184 388 2453 708 
Q 2722 1028 2722 1663 
Q 2722 2313 2464 2622 
Q 2206 2931 1841 2931 
Q 1472 2931 1203 2611 
Q 934 2291 934 1684 
z
" transform="scale(0.015625)"/>
     </defs>
     <use xlink:href="#ArialMT-4d"/>
     <use xlink:href="#ArialMT-6f" x="83.300781"/>
     <use xlink:href="#ArialMT-6c" x="138.916016"/>
     <use xlink:href="#ArialMT-65" x="161.132812"/>
     <use xlink:href="#ArialMT-63" x="216.748047"/>
     <use xlink:href="#ArialMT-75" x="266.748047"/>
     <use xlink:href="#ArialMT-6c" x="322.363281"/>
     <use xlink:href="#ArialMT-61" x="344.580078"/>
     <use xlink:href="#ArialMT-72" x="400.195312"/>
     <use xlink:href="#ArialMT-20" x="433.496094"/>
     <use xlink:href="#ArialMT-57" x="461.279297"/>
     <use xlink:href="#ArialMT-65" x="553.914062"/>
     <use xlink:href="#ArialMT-69" x="609.529297"/>
     <use xlink:href="#ArialMT-67" x="631.746094"/>
     <use xlink:href="#ArialMT-68" x="687.361328"/>
     <use xlink:href="#ArialMT-74" x="742.976562"/>
     <use xlink:href="#ArialMT-20" x="770.759766"/>
     <use xlink:href="#ArialMT-28" x="798.542969"/>
     <use xlink:href="#ArialMT-4d" x="831.84375"/>
     <use xlink:href="#ArialMT-57" x="915.144531"/>
     <use xlink:href="#ArialMT-29" x="1009.529297"/>
     <use xlink:href="#ArialMT-20" x="1042.830078"/>
     <use xlink:href="#ArialMT-44" x="1070.613281"/>
     <use xlink:href="#ArialMT-69" x="1142.830078"/>
     <use xlink:href="#ArialMT-73" x="1165.046875"/>
     <use xlink:href="#ArialMT-74" x="1215.046875"/>
     <use xlink:href="#ArialMT-72" x="1242.830078"/>
     <use xlink:href="#ArialMT-69" x="1276.130859"/>
     <use xlink:href="#ArialMT-62" x="1298.347656"/>
     <use xlink:href="#ArialMT-75" x="1353.962891"/>
     <use xlink:href="#ArialMT-74" x="1409.578125"/>
     <use xlink:href="#ArialMT-69" x="1437.361328"/>
     <use xlink:href="#ArialMT-6f" x="1459.578125"/>
     <use xlink:href="#ArialMT-6e" x="1515.193359"/>
    </g>
   </g>
  </g>
  <g id="axes_2">
   <g id="patch_27">
    <path d="M 406.358039 248.6275 
L 710.021961 248.6275 
L 710.021961 25.49625 
L 406.358039 25.49625 
z
" style="fill: #ffffff"/>
   </g>
   <g id="matplotlib.axis_3">
    <g id="xtick_10">
     <g id="line2d_16">
      <path d="M 420.160944 248.6275 
L 420.160944 25.49625 
" clip-path="url(#pc3f8f58d71)" style="fill: none; stroke: #cccccc; stroke-width: 0.8; stroke-linecap: round"/>
     </g>
     <g id="text_18">
      <!-- 0 -->
      <g style="fill: #262626" transform="translate(417.380476 262.785313)scale(0.1 -0.1)">
       <use xlink:href="#ArialMT-30"/>
      </g>
     </g>
    </g>
    <g id="xtick_11">
     <g id="line2d_17">
      <path d="M 470.353328 248.6275 
L 470.353328 25.49625 
" clip-path="url(#pc3f8f58d71)" style="fill: none; stroke: #cccccc; stroke-width: 0.8; stroke-linecap: round"/>
     </g>
     <g id="text_19">
      <!-- 2 -->
      <g style="fill: #262626" transform="translate(467.57286 262.785313)scale(0.1 -0.1)">
       <use xlink:href="#ArialMT-32"/>
      </g>
     </g>
    </g>
    <g id="xtick_12">
     <g id="line2d_18">
      <path d="M 520.545712 248.6275 
L 520.545712 25.49625 
" clip-path="url(#pc3f8f58d71)" style="fill: none; stroke: #cccccc; stroke-width: 0.8; stroke-linecap: round"/>
     </g>
     <g id="text_20">
      <!-- 4 -->
      <g style="fill: #262626" transform="translate(517.765243 262.785313)scale(0.1 -0.1)">
       <use xlink:href="#ArialMT-34"/>
      </g>
     </g>
    </g>
    <g id="xtick_13">
     <g id="line2d_19">
      <path d="M 570.738096 248.6275 
L 570.738096 25.49625 
" clip-path="url(#pc3f8f58d71)" style="fill: none; stroke: #cccccc; stroke-width: 0.8; stroke-linecap: round"/>
     </g>
     <g id="text_21">
      <!-- 6 -->
      <g style="fill: #262626" transform="translate(567.957627 262.785313)scale(0.1 -0.1)">
       <use xlink:href="#ArialMT-36"/>
      </g>
     </g>
    </g>
    <g id="xtick_14">
     <g id="line2d_20">
      <path d="M 620.93048 248.6275 
L 620.93048 25.49625 
" clip-path="url(#pc3f8f58d71)" style="fill: none; stroke: #cccccc; stroke-width: 0.8; stroke-linecap: round"/>
     </g>
     <g id="text_22">
      <!-- 8 -->
      <g style="fill: #262626" transform="translate(618.150011 262.785313)scale(0.1 -0.1)">
       <use xlink:href="#ArialMT-38"/>
      </g>
     </g>
    </g>
    <g id="xtick_15">
     <g id="line2d_21">
      <path d="M 671.122864 248.6275 
L 671.122864 25.49625 
" clip-path="url(#pc3f8f58d71)" style="fill: none; stroke: #cccccc; stroke-width: 0.8; stroke-linecap: round"/>
     </g>
     <g id="text_23">
      <!-- 10 -->
      <g style="fill: #262626" transform="translate(665.561926 262.785313)scale(0.1 -0.1)">
       <use xlink:href="#ArialMT-31"/>
       <use xlink:href="#ArialMT-30" x="55.615234"/>
      </g>
     </g>
    </g>
    <g id="text_24">
     <!-- Number of H-Bond Donors -->
     <g style="fill: #262626" transform="translate(499.001719 275.930625)scale(0.1 -0.1)">
      <defs>
       <path id="ArialMT-4e" d="M 488 0 
L 488 4581 
L 1109 4581 
L 3516 984 
L 3516 4581 
L 4097 4581 
L 4097 0 
L 3475 0 
L 1069 3600 
L 1069 0 
L 488 0 
z
" transform="scale(0.015625)"/>
       <path id="ArialMT-6d" d="M 422 0 
L 422 3319 
L 925 3319 
L 925 2853 
Q 1081 3097 1340 3245 
Q 1600 3394 1931 3394 
Q 2300 3394 2536 3241 
Q 2772 3088 2869 2813 
Q 3263 3394 3894 3394 
Q 4388 3394 4653 3120 
Q 4919 2847 4919 2278 
L 4919 0 
L 4359 0 
L 4359 2091 
Q 4359 2428 4304 2576 
Q 4250 2725 4106 2815 
Q 3963 2906 3769 2906 
Q 3419 2906 3187 2673 
Q 2956 2441 2956 1928 
L 2956 0 
L 2394 0 
L 2394 2156 
Q 2394 2531 2256 2718 
Q 2119 2906 1806 2906 
Q 1569 2906 1367 2781 
Q 1166 2656 1075 2415 
Q 984 2175 984 1722 
L 984 0 
L 422 0 
z
" transform="scale(0.015625)"/>
       <path id="ArialMT-66" d="M 556 0 
L 556 2881 
L 59 2881 
L 59 3319 
L 556 3319 
L 556 3672 
Q 556 4006 616 4169 
Q 697 4388 901 4523 
Q 1106 4659 1475 4659 
Q 1713 4659 2000 4603 
L 1916 4113 
Q 1741 4144 1584 4144 
Q 1328 4144 1222 4034 
Q 1116 3925 1116 3625 
L 1116 3319 
L 1763 3319 
L 1763 2881 
L 1116 2881 
L 1116 0 
L 556 0 
z
" transform="scale(0.015625)"/>
       <path id="ArialMT-48" d="M 513 0 
L 513 4581 
L 1119 4581 
L 1119 2700 
L 3500 2700 
L 3500 4581 
L 4106 4581 
L 4106 0 
L 3500 0 
L 3500 2159 
L 1119 2159 
L 1119 0 
L 513 0 
z
" transform="scale(0.015625)"/>
       <path id="ArialMT-2d" d="M 203 1375 
L 203 1941 
L 1931 1941 
L 1931 1375 
L 203 1375 
z
" transform="scale(0.015625)"/>
       <path id="ArialMT-42" d="M 469 0 
L 469 4581 
L 2188 4581 
Q 2713 4581 3030 4442 
Q 3347 4303 3526 4014 
Q 3706 3725 3706 3409 
Q 3706 3116 3547 2856 
Q 3388 2597 3066 2438 
Q 3481 2316 3704 2022 
Q 3928 1728 3928 1328 
Q 3928 1006 3792 729 
Q 3656 453 3456 303 
Q 3256 153 2954 76 
Q 2653 0 2216 0 
L 469 0 
z
M 1075 2656 
L 2066 2656 
Q 2469 2656 2644 2709 
Q 2875 2778 2992 2937 
Q 3109 3097 3109 3338 
Q 3109 3566 3000 3739 
Q 2891 3913 2687 3977 
Q 2484 4041 1991 4041 
L 1075 4041 
L 1075 2656 
z
M 1075 541 
L 2216 541 
Q 2509 541 2628 563 
Q 2838 600 2978 687 
Q 3119 775 3209 942 
Q 3300 1109 3300 1328 
Q 3300 1584 3169 1773 
Q 3038 1963 2805 2039 
Q 2572 2116 2134 2116 
L 1075 2116 
L 1075 541 
z
" transform="scale(0.015625)"/>
       <path id="ArialMT-64" d="M 2575 0 
L 2575 419 
Q 2259 -75 1647 -75 
Q 1250 -75 917 144 
Q 584 363 401 755 
Q 219 1147 219 1656 
Q 219 2153 384 2558 
Q 550 2963 881 3178 
Q 1213 3394 1622 3394 
Q 1922 3394 2156 3267 
Q 2391 3141 2538 2938 
L 2538 4581 
L 3097 4581 
L 3097 0 
L 2575 0 
z
M 797 1656 
Q 797 1019 1065 703 
Q 1334 388 1700 388 
Q 2069 388 2326 689 
Q 2584 991 2584 1609 
Q 2584 2291 2321 2609 
Q 2059 2928 1675 2928 
Q 1300 2928 1048 2622 
Q 797 2316 797 1656 
z
" transform="scale(0.015625)"/>
      </defs>
      <use xlink:href="#ArialMT-4e"/>
      <use xlink:href="#ArialMT-75" x="72.216797"/>
      <use xlink:href="#ArialMT-6d" x="127.832031"/>
      <use xlink:href="#ArialMT-62" x="211.132812"/>
      <use xlink:href="#ArialMT-65" x="266.748047"/>
      <use xlink:href="#ArialMT-72" x="322.363281"/>
      <use xlink:href="#ArialMT-20" x="355.664062"/>
      <use xlink:href="#ArialMT-6f" x="383.447266"/>
      <use xlink:href="#ArialMT-66" x="439.0625"/>
      <use xlink:href="#ArialMT-20" x="466.845703"/>
      <use xlink:href="#ArialMT-48" x="494.628906"/>
      <use xlink:href="#ArialMT-2d" x="566.845703"/>
      <use xlink:href="#ArialMT-42" x="600.146484"/>
      <use xlink:href="#ArialMT-6f" x="666.845703"/>
      <use xlink:href="#ArialMT-6e" x="722.460938"/>
      <use xlink:href="#ArialMT-64" x="778.076172"/>
      <use xlink:href="#ArialMT-20" x="833.691406"/>
      <use xlink:href="#ArialMT-44" x="861.474609"/>
      <use xlink:href="#ArialMT-6f" x="933.691406"/>
      <use xlink:href="#ArialMT-6e" x="989.306641"/>
      <use xlink:href="#ArialMT-6f" x="1044.921875"/>
      <use xlink:href="#ArialMT-72" x="1100.537109"/>
      <use xlink:href="#ArialMT-73" x="1133.837891"/>
     </g>
    </g>
   </g>
   <g id="matplotlib.axis_4">
    <g id="ytick_6">
     <g id="line2d_22">
      <path d="M 406.358039 248.6275 
L 710.021961 248.6275 
" clip-path="url(#pc3f8f58d71)" style="fill: none; stroke: #cccccc; stroke-width: 0.8; stroke-linecap: round"/>
     </g>
     <g id="text_25">
      <!-- 0 -->
      <g style="fill: #262626" transform="translate(393.797101 252.206406)scale(0.1 -0.1)">
       <use xlink:href="#ArialMT-30"/>
      </g>
     </g>
    </g>
    <g id="ytick_7">
     <g id="line2d_23">
      <path d="M 406.358039 207.890446 
L 710.021961 207.890446 
" clip-path="url(#pc3f8f58d71)" style="fill: none; stroke: #cccccc; stroke-width: 0.8; stroke-linecap: round"/>
     </g>
     <g id="text_26">
      <!-- 200 -->
      <g style="fill: #262626" transform="translate(382.675226 211.469353)scale(0.1 -0.1)">
       <use xlink:href="#ArialMT-32"/>
       <use xlink:href="#ArialMT-30" x="55.615234"/>
       <use xlink:href="#ArialMT-30" x="111.230469"/>
      </g>
     </g>
    </g>
    <g id="ytick_8">
     <g id="line2d_24">
      <path d="M 406.358039 167.153393 
L 710.021961 167.153393 
" clip-path="url(#pc3f8f58d71)" style="fill: none; stroke: #cccccc; stroke-width: 0.8; stroke-linecap: round"/>
     </g>
     <g id="text_27">
      <!-- 400 -->
      <g style="fill: #262626" transform="translate(382.675226 170.732299)scale(0.1 -0.1)">
       <use xlink:href="#ArialMT-34"/>
       <use xlink:href="#ArialMT-30" x="55.615234"/>
       <use xlink:href="#ArialMT-30" x="111.230469"/>
      </g>
     </g>
    </g>
    <g id="ytick_9">
     <g id="line2d_25">
      <path d="M 406.358039 126.416339 
L 710.021961 126.416339 
" clip-path="url(#pc3f8f58d71)" style="fill: none; stroke: #cccccc; stroke-width: 0.8; stroke-linecap: round"/>
     </g>
     <g id="text_28">
      <!-- 600 -->
      <g style="fill: #262626" transform="translate(382.675226 129.995246)scale(0.1 -0.1)">
       <use xlink:href="#ArialMT-36"/>
       <use xlink:href="#ArialMT-30" x="55.615234"/>
       <use xlink:href="#ArialMT-30" x="111.230469"/>
      </g>
     </g>
    </g>
    <g id="ytick_10">
     <g id="line2d_26">
      <path d="M 406.358039 85.679286 
L 710.021961 85.679286 
" clip-path="url(#pc3f8f58d71)" style="fill: none; stroke: #cccccc; stroke-width: 0.8; stroke-linecap: round"/>
     </g>
     <g id="text_29">
      <!-- 800 -->
      <g style="fill: #262626" transform="translate(382.675226 89.258192)scale(0.1 -0.1)">
       <use xlink:href="#ArialMT-38"/>
       <use xlink:href="#ArialMT-30" x="55.615234"/>
       <use xlink:href="#ArialMT-30" x="111.230469"/>
      </g>
     </g>
    </g>
    <g id="ytick_11">
     <g id="line2d_27">
      <path d="M 406.358039 44.942232 
L 710.021961 44.942232 
" clip-path="url(#pc3f8f58d71)" style="fill: none; stroke: #cccccc; stroke-width: 0.8; stroke-linecap: round"/>
     </g>
     <g id="text_30">
      <!-- 1000 -->
      <g style="fill: #262626" transform="translate(377.114289 48.521138)scale(0.1 -0.1)">
       <use xlink:href="#ArialMT-31"/>
       <use xlink:href="#ArialMT-30" x="55.615234"/>
       <use xlink:href="#ArialMT-30" x="111.230469"/>
       <use xlink:href="#ArialMT-30" x="166.845703"/>
      </g>
     </g>
    </g>
    <g id="text_31">
     <!-- Count -->
     <g style="fill: #262626" transform="translate(371.126789 150.403281)rotate(-90)scale(0.1 -0.1)">
      <use xlink:href="#ArialMT-43"/>
      <use xlink:href="#ArialMT-6f" x="72.216797"/>
      <use xlink:href="#ArialMT-75" x="127.832031"/>
      <use xlink:href="#ArialMT-6e" x="183.447266"/>
      <use xlink:href="#ArialMT-74" x="239.0625"/>
     </g>
    </g>
   </g>
   <g id="patch_28">
    <path d="M 420.160944 248.6275 
L 447.766756 248.6275 
L 447.766756 56.755978 
L 420.160944 56.755978 
z
" clip-path="url(#pc3f8f58d71)" style="fill: #fdc422; fill-opacity: 0.5; stroke: #ffffff; stroke-linejoin: miter"/>
   </g>
   <g id="patch_29">
    <path d="M 447.766756 248.6275 
L 475.372567 248.6275 
L 475.372567 220.722618 
L 447.766756 220.722618 
z
" clip-path="url(#pc3f8f58d71)" style="fill: #fdc422; fill-opacity: 0.5; stroke: #ffffff; stroke-linejoin: miter"/>
   </g>
   <g id="patch_30">
    <path d="M 475.372567 248.6275 
L 502.978378 248.6275 
L 502.978378 244.146424 
L 475.372567 244.146424 
z
" clip-path="url(#pc3f8f58d71)" style="fill: #fdc422; fill-opacity: 0.5; stroke: #ffffff; stroke-linejoin: miter"/>
   </g>
   <g id="patch_31">
    <path d="M 502.978378 248.6275 
L 530.584189 248.6275 
L 530.584189 246.386962 
L 502.978378 246.386962 
z
" clip-path="url(#pc3f8f58d71)" style="fill: #fdc422; fill-opacity: 0.5; stroke: #ffffff; stroke-linejoin: miter"/>
   </g>
   <g id="patch_32">
    <path d="M 530.584189 248.6275 
L 558.19 248.6275 
L 558.19 247.405388 
L 530.584189 247.405388 
z
" clip-path="url(#pc3f8f58d71)" style="fill: #fdc422; fill-opacity: 0.5; stroke: #ffffff; stroke-linejoin: miter"/>
   </g>
   <g id="patch_33">
    <path d="M 558.19 248.6275 
L 585.795811 248.6275 
L 585.795811 247.405388 
L 558.19 247.405388 
z
" clip-path="url(#pc3f8f58d71)" style="fill: #fdc422; fill-opacity: 0.5; stroke: #ffffff; stroke-linejoin: miter"/>
   </g>
   <g id="patch_34">
    <path d="M 585.795811 248.6275 
L 613.401622 248.6275 
L 613.401622 248.423815 
L 585.795811 248.423815 
z
" clip-path="url(#pc3f8f58d71)" style="fill: #fdc422; fill-opacity: 0.5; stroke: #ffffff; stroke-linejoin: miter"/>
   </g>
   <g id="patch_35">
    <path d="M 613.401622 248.6275 
L 641.007433 248.6275 
L 641.007433 248.220129 
L 613.401622 248.220129 
z
" clip-path="url(#pc3f8f58d71)" style="fill: #fdc422; fill-opacity: 0.5; stroke: #ffffff; stroke-linejoin: miter"/>
   </g>
   <g id="patch_36">
    <path d="M 641.007433 248.6275 
L 668.613244 248.6275 
L 668.613244 248.6275 
L 641.007433 248.6275 
z
" clip-path="url(#pc3f8f58d71)" style="fill: #fdc422; fill-opacity: 0.5; stroke: #ffffff; stroke-linejoin: miter"/>
   </g>
   <g id="patch_37">
    <path d="M 668.613244 248.6275 
L 696.219056 248.6275 
L 696.219056 248.423815 
L 668.613244 248.423815 
z
" clip-path="url(#pc3f8f58d71)" style="fill: #fdc422; fill-opacity: 0.5; stroke: #ffffff; stroke-linejoin: miter"/>
   </g>
   <g id="line2d_28">
    <path d="M 420.160944 36.121548 
L 421.548171 40.513223 
L 422.935398 53.234767 
L 424.322625 72.635284 
L 427.097078 121.587394 
L 428.484305 145.80481 
L 429.871531 166.790594 
L 431.258758 182.993636 
L 432.645985 193.564224 
L 434.033211 198.319342 
L 435.420438 197.655071 
L 436.807665 192.444186 
L 438.194891 183.933819 
L 440.969345 163.192447 
L 442.356572 154.208759 
L 443.743798 148.059767 
L 445.131025 145.705629 
L 446.518252 147.55684 
L 447.905478 153.427701 
L 449.292705 162.594628 
L 452.067158 186.19096 
L 453.454385 198.061418 
L 454.841612 208.489525 
L 456.228838 216.708164 
L 457.616065 222.28798 
L 459.003292 225.121596 
L 460.390518 225.379409 
L 461.777745 223.456968 
L 463.164972 219.923246 
L 467.326652 206.779887 
L 468.713879 203.920239 
L 470.101105 202.719059 
L 471.488332 203.390322 
L 472.875559 205.882598 
L 474.262785 209.902812 
L 475.650012 214.982321 
L 478.424465 226.122543 
L 479.811692 231.192712 
L 481.198919 235.465756 
L 482.586145 238.777641 
L 483.973372 241.099615 
L 485.360599 242.507788 
L 486.747826 243.14818 
L 488.135052 243.205263 
L 489.522279 242.877273 
L 493.683959 241.409961 
L 495.071186 241.225924 
L 496.458412 241.321859 
L 497.845639 241.701193 
L 499.232866 242.323186 
L 502.007319 243.984042 
L 504.781772 245.60076 
L 506.168999 246.206772 
L 507.556226 246.621372 
L 508.943453 246.831892 
L 510.330679 246.84682 
L 511.717906 246.69242 
L 514.492359 246.048612 
L 517.266813 245.325206 
L 518.654039 245.07234 
L 520.041266 244.94809 
L 521.428493 244.972641 
L 522.815719 245.1449 
L 525.590173 245.831383 
L 529.751853 247.072306 
L 532.526306 247.585093 
L 535.30076 247.6893 
L 538.075213 247.444771 
L 543.62412 246.698853 
L 546.398573 246.628241 
L 549.173027 246.868463 
L 556.10916 247.848007 
L 558.883613 247.921097 
L 561.658067 247.709134 
L 569.981427 246.630223 
L 572.75588 246.707819 
L 575.530334 247.069219 
L 581.07924 247.98657 
L 583.853694 248.263245 
L 588.015374 248.385342 
L 600.500414 248.35835 
L 607.436547 248.464263 
L 612.985454 248.283179 
L 619.921588 247.965484 
L 624.083268 248.028436 
L 637.955535 248.600841 
L 654.602255 248.627498 
L 685.121242 248.542445 
L 696.219056 248.292992 
L 696.219056 248.292992 
" clip-path="url(#pc3f8f58d71)" style="fill: none; stroke: #fdc422; stroke-width: 1.5; stroke-linecap: round"/>
   </g>
   <g id="patch_38">
    <path d="M 406.358039 248.6275 
L 406.358039 25.49625 
" style="fill: none; stroke: #cccccc; stroke-width: 0.8; stroke-linejoin: miter; stroke-linecap: square"/>
   </g>
   <g id="patch_39">
    <path d="M 710.021961 248.6275 
L 710.021961 25.49625 
" style="fill: none; stroke: #cccccc; stroke-width: 0.8; stroke-linejoin: miter; stroke-linecap: square"/>
   </g>
   <g id="patch_40">
    <path d="M 406.358039 248.6275 
L 710.021961 248.6275 
" style="fill: none; stroke: #cccccc; stroke-width: 0.8; stroke-linejoin: miter; stroke-linecap: square"/>
   </g>
   <g id="patch_41">
    <path d="M 406.358039 25.49625 
L 710.021961 25.49625 
" style="fill: none; stroke: #cccccc; stroke-width: 0.8; stroke-linejoin: miter; stroke-linecap: square"/>
   </g>
   <g id="text_32">
    <!-- NHBA Distribution -->
    <g style="fill: #262626" transform="translate(510.172188 19.49625)scale(0.12 -0.12)">
     <defs>
      <path id="ArialMT-41" d="M -9 0 
L 1750 4581 
L 2403 4581 
L 4278 0 
L 3588 0 
L 3053 1388 
L 1138 1388 
L 634 0 
L -9 0 
z
M 1313 1881 
L 2866 1881 
L 2388 3150 
Q 2169 3728 2063 4100 
Q 1975 3659 1816 3225 
L 1313 1881 
z
" transform="scale(0.015625)"/>
     </defs>
     <use xlink:href="#ArialMT-4e"/>
     <use xlink:href="#ArialMT-48" x="72.216797"/>
     <use xlink:href="#ArialMT-42" x="144.433594"/>
     <use xlink:href="#ArialMT-41" x="211.132812"/>
     <use xlink:href="#ArialMT-20" x="272.332031"/>
     <use xlink:href="#ArialMT-44" x="300.115234"/>
     <use xlink:href="#ArialMT-69" x="372.332031"/>
     <use xlink:href="#ArialMT-73" x="394.548828"/>
     <use xlink:href="#ArialMT-74" x="444.548828"/>
     <use xlink:href="#ArialMT-72" x="472.332031"/>
     <use xlink:href="#ArialMT-69" x="505.632812"/>
     <use xlink:href="#ArialMT-62" x="527.849609"/>
     <use xlink:href="#ArialMT-75" x="583.464844"/>
     <use xlink:href="#ArialMT-74" x="639.080078"/>
     <use xlink:href="#ArialMT-69" x="666.863281"/>
     <use xlink:href="#ArialMT-6f" x="689.080078"/>
     <use xlink:href="#ArialMT-6e" x="744.695312"/>
    </g>
   </g>
  </g>
  <g id="axes_3">
   <g id="patch_42">
    <path d="M 765.536078 248.6275 
L 1069.2 248.6275 
L 1069.2 25.49625 
L 765.536078 25.49625 
z
" style="fill: #ffffff"/>
   </g>
   <g id="matplotlib.axis_5">
    <g id="xtick_16">
     <g id="line2d_29">
      <path d="M 770.960892 248.6275 
L 770.960892 25.49625 
" clip-path="url(#pe2ef935864)" style="fill: none; stroke: #cccccc; stroke-width: 0.8; stroke-linecap: round"/>
     </g>
     <g id="text_33">
      <!-- 12 -->
      <g style="fill: #262626" transform="translate(762.479642 262.785313)scale(0.1 -0.1)">
       <defs>
        <path id="ArialMT-2212" d="M 3381 1997 
L 356 1997 
L 356 2522 
L 3381 2522 
L 3381 1997 
z
" transform="scale(0.015625)"/>
       </defs>
       <use xlink:href="#ArialMT-2212"/>
       <use xlink:href="#ArialMT-31" x="58.398438"/>
       <use xlink:href="#ArialMT-32" x="114.013672"/>
      </g>
     </g>
    </g>
    <g id="xtick_17">
     <g id="line2d_30">
      <path d="M 812.851349 248.6275 
L 812.851349 25.49625 
" clip-path="url(#pe2ef935864)" style="fill: none; stroke: #cccccc; stroke-width: 0.8; stroke-linecap: round"/>
     </g>
     <g id="text_34">
      <!-- 10 -->
      <g style="fill: #262626" transform="translate(804.370099 262.785313)scale(0.1 -0.1)">
       <use xlink:href="#ArialMT-2212"/>
       <use xlink:href="#ArialMT-31" x="58.398438"/>
       <use xlink:href="#ArialMT-30" x="114.013672"/>
      </g>
     </g>
    </g>
    <g id="xtick_18">
     <g id="line2d_31">
      <path d="M 854.741806 248.6275 
L 854.741806 25.49625 
" clip-path="url(#pe2ef935864)" style="fill: none; stroke: #cccccc; stroke-width: 0.8; stroke-linecap: round"/>
     </g>
     <g id="text_35">
      <!-- 8 -->
      <g style="fill: #262626" transform="translate(849.041025 262.785313)scale(0.1 -0.1)">
       <use xlink:href="#ArialMT-2212"/>
       <use xlink:href="#ArialMT-38" x="58.398438"/>
      </g>
     </g>
    </g>
    <g id="xtick_19">
     <g id="line2d_32">
      <path d="M 896.632263 248.6275 
L 896.632263 25.49625 
" clip-path="url(#pe2ef935864)" style="fill: none; stroke: #cccccc; stroke-width: 0.8; stroke-linecap: round"/>
     </g>
     <g id="text_36">
      <!-- 6 -->
      <g style="fill: #262626" transform="translate(890.931482 262.785313)scale(0.1 -0.1)">
       <use xlink:href="#ArialMT-2212"/>
       <use xlink:href="#ArialMT-36" x="58.398438"/>
      </g>
     </g>
    </g>
    <g id="xtick_20">
     <g id="line2d_33">
      <path d="M 938.52272 248.6275 
L 938.52272 25.49625 
" clip-path="url(#pe2ef935864)" style="fill: none; stroke: #cccccc; stroke-width: 0.8; stroke-linecap: round"/>
     </g>
     <g id="text_37">
      <!-- 4 -->
      <g style="fill: #262626" transform="translate(932.821938 262.785313)scale(0.1 -0.1)">
       <use xlink:href="#ArialMT-2212"/>
       <use xlink:href="#ArialMT-34" x="58.398438"/>
      </g>
     </g>
    </g>
    <g id="xtick_21">
     <g id="line2d_34">
      <path d="M 980.413177 248.6275 
L 980.413177 25.49625 
" clip-path="url(#pe2ef935864)" style="fill: none; stroke: #cccccc; stroke-width: 0.8; stroke-linecap: round"/>
     </g>
     <g id="text_38">
      <!-- 2 -->
      <g style="fill: #262626" transform="translate(974.712395 262.785313)scale(0.1 -0.1)">
       <use xlink:href="#ArialMT-2212"/>
       <use xlink:href="#ArialMT-32" x="58.398438"/>
      </g>
     </g>
    </g>
    <g id="xtick_22">
     <g id="line2d_35">
      <path d="M 1022.303633 248.6275 
L 1022.303633 25.49625 
" clip-path="url(#pe2ef935864)" style="fill: none; stroke: #cccccc; stroke-width: 0.8; stroke-linecap: round"/>
     </g>
     <g id="text_39">
      <!-- 0 -->
      <g style="fill: #262626" transform="translate(1019.523165 262.785313)scale(0.1 -0.1)">
       <use xlink:href="#ArialMT-30"/>
      </g>
     </g>
    </g>
    <g id="xtick_23">
     <g id="line2d_36">
      <path d="M 1064.19409 248.6275 
L 1064.19409 25.49625 
" clip-path="url(#pe2ef935864)" style="fill: none; stroke: #cccccc; stroke-width: 0.8; stroke-linecap: round"/>
     </g>
     <g id="text_40">
      <!-- 2 -->
      <g style="fill: #262626" transform="translate(1061.413622 262.785313)scale(0.1 -0.1)">
       <use xlink:href="#ArialMT-32"/>
      </g>
     </g>
    </g>
    <g id="text_41">
     <!-- measured log solubility in mols per litre -->
     <g style="fill: #262626" transform="translate(831.225851 275.930625)scale(0.1 -0.1)">
      <defs>
       <path id="ArialMT-79" d="M 397 -1278 
L 334 -750 
Q 519 -800 656 -800 
Q 844 -800 956 -737 
Q 1069 -675 1141 -563 
Q 1194 -478 1313 -144 
Q 1328 -97 1363 -6 
L 103 3319 
L 709 3319 
L 1400 1397 
Q 1534 1031 1641 628 
Q 1738 1016 1872 1384 
L 2581 3319 
L 3144 3319 
L 1881 -56 
Q 1678 -603 1566 -809 
Q 1416 -1088 1222 -1217 
Q 1028 -1347 759 -1347 
Q 597 -1347 397 -1278 
z
" transform="scale(0.015625)"/>
       <path id="ArialMT-70" d="M 422 -1272 
L 422 3319 
L 934 3319 
L 934 2888 
Q 1116 3141 1344 3267 
Q 1572 3394 1897 3394 
Q 2322 3394 2647 3175 
Q 2972 2956 3137 2557 
Q 3303 2159 3303 1684 
Q 3303 1175 3120 767 
Q 2938 359 2589 142 
Q 2241 -75 1856 -75 
Q 1575 -75 1351 44 
Q 1128 163 984 344 
L 984 -1272 
L 422 -1272 
z
M 931 1641 
Q 931 1000 1190 694 
Q 1450 388 1819 388 
Q 2194 388 2461 705 
Q 2728 1022 2728 1688 
Q 2728 2322 2467 2637 
Q 2206 2953 1844 2953 
Q 1484 2953 1207 2617 
Q 931 2281 931 1641 
z
" transform="scale(0.015625)"/>
      </defs>
      <use xlink:href="#ArialMT-6d"/>
      <use xlink:href="#ArialMT-65" x="83.300781"/>
      <use xlink:href="#ArialMT-61" x="138.916016"/>
      <use xlink:href="#ArialMT-73" x="194.53125"/>
      <use xlink:href="#ArialMT-75" x="244.53125"/>
      <use xlink:href="#ArialMT-72" x="300.146484"/>
      <use xlink:href="#ArialMT-65" x="333.447266"/>
      <use xlink:href="#ArialMT-64" x="389.0625"/>
      <use xlink:href="#ArialMT-20" x="444.677734"/>
      <use xlink:href="#ArialMT-6c" x="472.460938"/>
      <use xlink:href="#ArialMT-6f" x="494.677734"/>
      <use xlink:href="#ArialMT-67" x="550.292969"/>
      <use xlink:href="#ArialMT-20" x="605.908203"/>
      <use xlink:href="#ArialMT-73" x="633.691406"/>
      <use xlink:href="#ArialMT-6f" x="683.691406"/>
      <use xlink:href="#ArialMT-6c" x="739.306641"/>
      <use xlink:href="#ArialMT-75" x="761.523438"/>
      <use xlink:href="#ArialMT-62" x="817.138672"/>
      <use xlink:href="#ArialMT-69" x="872.753906"/>
      <use xlink:href="#ArialMT-6c" x="894.970703"/>
      <use xlink:href="#ArialMT-69" x="917.1875"/>
      <use xlink:href="#ArialMT-74" x="939.404297"/>
      <use xlink:href="#ArialMT-79" x="967.1875"/>
      <use xlink:href="#ArialMT-20" x="1017.1875"/>
      <use xlink:href="#ArialMT-69" x="1044.970703"/>
      <use xlink:href="#ArialMT-6e" x="1067.1875"/>
      <use xlink:href="#ArialMT-20" x="1122.802734"/>
      <use xlink:href="#ArialMT-6d" x="1150.585938"/>
      <use xlink:href="#ArialMT-6f" x="1233.886719"/>
      <use xlink:href="#ArialMT-6c" x="1289.501953"/>
      <use xlink:href="#ArialMT-73" x="1311.71875"/>
      <use xlink:href="#ArialMT-20" x="1361.71875"/>
      <use xlink:href="#ArialMT-70" x="1389.501953"/>
      <use xlink:href="#ArialMT-65" x="1445.117188"/>
      <use xlink:href="#ArialMT-72" x="1500.732422"/>
      <use xlink:href="#ArialMT-20" x="1534.033203"/>
      <use xlink:href="#ArialMT-6c" x="1561.816406"/>
      <use xlink:href="#ArialMT-69" x="1584.033203"/>
      <use xlink:href="#ArialMT-74" x="1606.25"/>
      <use xlink:href="#ArialMT-72" x="1634.033203"/>
      <use xlink:href="#ArialMT-65" x="1667.333984"/>
     </g>
    </g>
   </g>
   <g id="matplotlib.axis_6">
    <g id="ytick_12">
     <g id="line2d_37">
      <path d="M 765.536078 248.6275 
L 1069.2 248.6275 
" clip-path="url(#pe2ef935864)" style="fill: none; stroke: #cccccc; stroke-width: 0.8; stroke-linecap: round"/>
     </g>
     <g id="text_42">
      <!-- 0 -->
      <g style="fill: #262626" transform="translate(752.97514 252.206406)scale(0.1 -0.1)">
       <use xlink:href="#ArialMT-30"/>
      </g>
     </g>
    </g>
    <g id="ytick_13">
     <g id="line2d_38">
      <path d="M 765.536078 221.029324 
L 1069.2 221.029324 
" clip-path="url(#pe2ef935864)" style="fill: none; stroke: #cccccc; stroke-width: 0.8; stroke-linecap: round"/>
     </g>
     <g id="text_43">
      <!-- 20 -->
      <g style="fill: #262626" transform="translate(747.414203 224.608231)scale(0.1 -0.1)">
       <use xlink:href="#ArialMT-32"/>
       <use xlink:href="#ArialMT-30" x="55.615234"/>
      </g>
     </g>
    </g>
    <g id="ytick_14">
     <g id="line2d_39">
      <path d="M 765.536078 193.431149 
L 1069.2 193.431149 
" clip-path="url(#pe2ef935864)" style="fill: none; stroke: #cccccc; stroke-width: 0.8; stroke-linecap: round"/>
     </g>
     <g id="text_44">
      <!-- 40 -->
      <g style="fill: #262626" transform="translate(747.414203 197.010055)scale(0.1 -0.1)">
       <use xlink:href="#ArialMT-34"/>
       <use xlink:href="#ArialMT-30" x="55.615234"/>
      </g>
     </g>
    </g>
    <g id="ytick_15">
     <g id="line2d_40">
      <path d="M 765.536078 165.832973 
L 1069.2 165.832973 
" clip-path="url(#pe2ef935864)" style="fill: none; stroke: #cccccc; stroke-width: 0.8; stroke-linecap: round"/>
     </g>
     <g id="text_45">
      <!-- 60 -->
      <g style="fill: #262626" transform="translate(747.414203 169.411879)scale(0.1 -0.1)">
       <use xlink:href="#ArialMT-36"/>
       <use xlink:href="#ArialMT-30" x="55.615234"/>
      </g>
     </g>
    </g>
    <g id="ytick_16">
     <g id="line2d_41">
      <path d="M 765.536078 138.234797 
L 1069.2 138.234797 
" clip-path="url(#pe2ef935864)" style="fill: none; stroke: #cccccc; stroke-width: 0.8; stroke-linecap: round"/>
     </g>
     <g id="text_46">
      <!-- 80 -->
      <g style="fill: #262626" transform="translate(747.414203 141.813704)scale(0.1 -0.1)">
       <use xlink:href="#ArialMT-38"/>
       <use xlink:href="#ArialMT-30" x="55.615234"/>
      </g>
     </g>
    </g>
    <g id="ytick_17">
     <g id="line2d_42">
      <path d="M 765.536078 110.636622 
L 1069.2 110.636622 
" clip-path="url(#pe2ef935864)" style="fill: none; stroke: #cccccc; stroke-width: 0.8; stroke-linecap: round"/>
     </g>
     <g id="text_47">
      <!-- 100 -->
      <g style="fill: #262626" transform="translate(741.853265 114.215528)scale(0.1 -0.1)">
       <use xlink:href="#ArialMT-31"/>
       <use xlink:href="#ArialMT-30" x="55.615234"/>
       <use xlink:href="#ArialMT-30" x="111.230469"/>
      </g>
     </g>
    </g>
    <g id="ytick_18">
     <g id="line2d_43">
      <path d="M 765.536078 83.038446 
L 1069.2 83.038446 
" clip-path="url(#pe2ef935864)" style="fill: none; stroke: #cccccc; stroke-width: 0.8; stroke-linecap: round"/>
     </g>
     <g id="text_48">
      <!-- 120 -->
      <g style="fill: #262626" transform="translate(741.853265 86.617352)scale(0.1 -0.1)">
       <use xlink:href="#ArialMT-31"/>
       <use xlink:href="#ArialMT-32" x="55.615234"/>
       <use xlink:href="#ArialMT-30" x="111.230469"/>
      </g>
     </g>
    </g>
    <g id="ytick_19">
     <g id="line2d_44">
      <path d="M 765.536078 55.440271 
L 1069.2 55.440271 
" clip-path="url(#pe2ef935864)" style="fill: none; stroke: #cccccc; stroke-width: 0.8; stroke-linecap: round"/>
     </g>
     <g id="text_49">
      <!-- 140 -->
      <g style="fill: #262626" transform="translate(741.853265 59.019177)scale(0.1 -0.1)">
       <use xlink:href="#ArialMT-31"/>
       <use xlink:href="#ArialMT-34" x="55.615234"/>
       <use xlink:href="#ArialMT-30" x="111.230469"/>
      </g>
     </g>
    </g>
    <g id="ytick_20">
     <g id="line2d_45">
      <path d="M 765.536078 27.842095 
L 1069.2 27.842095 
" clip-path="url(#pe2ef935864)" style="fill: none; stroke: #cccccc; stroke-width: 0.8; stroke-linecap: round"/>
     </g>
     <g id="text_50">
      <!-- 160 -->
      <g style="fill: #262626" transform="translate(741.853265 31.421001)scale(0.1 -0.1)">
       <use xlink:href="#ArialMT-31"/>
       <use xlink:href="#ArialMT-36" x="55.615234"/>
       <use xlink:href="#ArialMT-30" x="111.230469"/>
      </g>
     </g>
    </g>
    <g id="text_51">
     <!-- Count -->
     <g style="fill: #262626" transform="translate(735.865765 150.403281)rotate(-90)scale(0.1 -0.1)">
      <use xlink:href="#ArialMT-43"/>
      <use xlink:href="#ArialMT-6f" x="72.216797"/>
      <use xlink:href="#ArialMT-75" x="127.832031"/>
      <use xlink:href="#ArialMT-6e" x="183.447266"/>
      <use xlink:href="#ArialMT-74" x="239.0625"/>
     </g>
    </g>
   </g>
   <g id="patch_43">
    <path d="M 779.338983 248.6275 
L 793.141889 248.6275 
L 793.141889 247.247591 
L 779.338983 247.247591 
z
" clip-path="url(#pe2ef935864)" style="fill: #fc8d62; fill-opacity: 0.5; stroke: #ffffff; stroke-linejoin: miter"/>
   </g>
   <g id="patch_44">
    <path d="M 793.141889 248.6275 
L 806.944795 248.6275 
L 806.944795 248.6275 
L 793.141889 248.6275 
z
" clip-path="url(#pe2ef935864)" style="fill: #fc8d62; fill-opacity: 0.5; stroke: #ffffff; stroke-linejoin: miter"/>
   </g>
   <g id="patch_45">
    <path d="M 806.944795 248.6275 
L 820.7477 248.6275 
L 820.7477 248.6275 
L 806.944795 248.6275 
z
" clip-path="url(#pe2ef935864)" style="fill: #fc8d62; fill-opacity: 0.5; stroke: #ffffff; stroke-linejoin: miter"/>
   </g>
   <g id="patch_46">
    <path d="M 820.7477 248.6275 
L 834.550606 248.6275 
L 834.550606 243.107865 
L 820.7477 243.107865 
z
" clip-path="url(#pe2ef935864)" style="fill: #fc8d62; fill-opacity: 0.5; stroke: #ffffff; stroke-linejoin: miter"/>
   </g>
   <g id="patch_47">
    <path d="M 834.550606 248.6275 
L 848.353511 248.6275 
L 848.353511 230.688686 
L 834.550606 230.688686 
z
" clip-path="url(#pe2ef935864)" style="fill: #fc8d62; fill-opacity: 0.5; stroke: #ffffff; stroke-linejoin: miter"/>
   </g>
   <g id="patch_48">
    <path d="M 848.353511 248.6275 
L 862.156417 248.6275 
L 862.156417 221.029324 
L 848.353511 221.029324 
z
" clip-path="url(#pe2ef935864)" style="fill: #fc8d62; fill-opacity: 0.5; stroke: #ffffff; stroke-linejoin: miter"/>
   </g>
   <g id="patch_49">
    <path d="M 862.156417 248.6275 
L 875.959322 248.6275 
L 875.959322 221.029324 
L 862.156417 221.029324 
z
" clip-path="url(#pe2ef935864)" style="fill: #fc8d62; fill-opacity: 0.5; stroke: #ffffff; stroke-linejoin: miter"/>
   </g>
   <g id="patch_50">
    <path d="M 875.959322 248.6275 
L 889.762228 248.6275 
L 889.762228 211.369963 
L 875.959322 211.369963 
z
" clip-path="url(#pe2ef935864)" style="fill: #fc8d62; fill-opacity: 0.5; stroke: #ffffff; stroke-linejoin: miter"/>
   </g>
   <g id="patch_51">
    <path d="M 889.762228 248.6275 
L 903.565133 248.6275 
L 903.565133 197.570875 
L 889.762228 197.570875 
z
" clip-path="url(#pe2ef935864)" style="fill: #fc8d62; fill-opacity: 0.5; stroke: #ffffff; stroke-linejoin: miter"/>
   </g>
   <g id="patch_52">
    <path d="M 903.565133 248.6275 
L 917.368039 248.6275 
L 917.368039 168.592791 
L 903.565133 168.592791 
z
" clip-path="url(#pe2ef935864)" style="fill: #fc8d62; fill-opacity: 0.5; stroke: #ffffff; stroke-linejoin: miter"/>
   </g>
   <g id="patch_53">
    <path d="M 917.368039 248.6275 
L 931.170944 248.6275 
L 931.170944 112.016531 
L 917.368039 112.016531 
z
" clip-path="url(#pe2ef935864)" style="fill: #fc8d62; fill-opacity: 0.5; stroke: #ffffff; stroke-linejoin: miter"/>
   </g>
   <g id="patch_54">
    <path d="M 931.170944 248.6275 
L 944.97385 248.6275 
L 944.97385 95.457625 
L 931.170944 95.457625 
z
" clip-path="url(#pe2ef935864)" style="fill: #fc8d62; fill-opacity: 0.5; stroke: #ffffff; stroke-linejoin: miter"/>
   </g>
   <g id="patch_55">
    <path d="M 944.97385 248.6275 
L 958.776756 248.6275 
L 958.776756 48.540727 
L 944.97385 48.540727 
z
" clip-path="url(#pe2ef935864)" style="fill: #fc8d62; fill-opacity: 0.5; stroke: #ffffff; stroke-linejoin: miter"/>
   </g>
   <g id="patch_56">
    <path d="M 958.776756 248.6275 
L 972.579661 248.6275 
L 972.579661 60.959906 
L 958.776756 60.959906 
z
" clip-path="url(#pe2ef935864)" style="fill: #fc8d62; fill-opacity: 0.5; stroke: #ffffff; stroke-linejoin: miter"/>
   </g>
   <g id="patch_57">
    <path d="M 972.579661 248.6275 
L 986.382567 248.6275 
L 986.382567 36.121548 
L 972.579661 36.121548 
z
" clip-path="url(#pe2ef935864)" style="fill: #fc8d62; fill-opacity: 0.5; stroke: #ffffff; stroke-linejoin: miter"/>
   </g>
   <g id="patch_58">
    <path d="M 986.382567 248.6275 
L 1000.185472 248.6275 
L 1000.185472 92.697808 
L 986.382567 92.697808 
z
" clip-path="url(#pe2ef935864)" style="fill: #fc8d62; fill-opacity: 0.5; stroke: #ffffff; stroke-linejoin: miter"/>
   </g>
   <g id="patch_59">
    <path d="M 1000.185472 248.6275 
L 1013.988378 248.6275 
L 1013.988378 120.295983 
L 1000.185472 120.295983 
z
" clip-path="url(#pe2ef935864)" style="fill: #fc8d62; fill-opacity: 0.5; stroke: #ffffff; stroke-linejoin: miter"/>
   </g>
   <g id="patch_60">
    <path d="M 1013.988378 248.6275 
L 1027.791283 248.6275 
L 1027.791283 189.291422 
L 1013.988378 189.291422 
z
" clip-path="url(#pe2ef935864)" style="fill: #fc8d62; fill-opacity: 0.5; stroke: #ffffff; stroke-linejoin: miter"/>
   </g>
   <g id="patch_61">
    <path d="M 1027.791283 248.6275 
L 1041.594189 248.6275 
L 1041.594189 194.811058 
L 1027.791283 194.811058 
z
" clip-path="url(#pe2ef935864)" style="fill: #fc8d62; fill-opacity: 0.5; stroke: #ffffff; stroke-linejoin: miter"/>
   </g>
   <g id="patch_62">
    <path d="M 1041.594189 248.6275 
L 1055.397094 248.6275 
L 1055.397094 227.928868 
L 1041.594189 227.928868 
z
" clip-path="url(#pe2ef935864)" style="fill: #fc8d62; fill-opacity: 0.5; stroke: #ffffff; stroke-linejoin: miter"/>
   </g>
   <g id="line2d_46">
    <path d="M 779.338983 247.921729 
L 786.275117 248.053051 
L 800.147384 248.445182 
L 805.696291 248.319328 
L 809.857971 247.982001 
L 812.632424 247.583347 
L 815.406877 247.004037 
L 818.181331 246.211981 
L 820.955784 245.184962 
L 823.730237 243.915393 
L 826.504691 242.412542 
L 829.279144 240.702023 
L 833.440824 237.836231 
L 845.925864 228.858193 
L 848.700318 227.159551 
L 851.474771 225.648716 
L 855.636451 223.69957 
L 866.734265 218.945379 
L 870.895945 216.78937 
L 875.057625 214.313967 
L 879.219305 211.490807 
L 881.993758 209.389397 
L 884.768212 207.085941 
L 887.542665 204.54827 
L 890.317119 201.727756 
L 893.091572 198.551013 
L 895.866025 194.917699 
L 898.640479 190.708744 
L 901.414932 185.804112 
L 904.189385 180.105001 
L 906.963839 173.554824 
L 909.738292 166.15608 
L 912.512746 157.983019 
L 916.674426 144.630956 
L 923.610559 121.721133 
L 926.385012 113.248527 
L 929.159466 105.556476 
L 931.933919 98.755236 
L 934.708373 92.825632 
L 937.482826 87.64553 
L 940.257279 83.041563 
L 943.031733 78.844071 
L 947.193413 73.038962 
L 951.355093 67.60862 
L 956.904 60.710155 
L 961.06568 55.786868 
L 963.840133 52.826189 
L 965.22736 51.536992 
L 966.614586 50.433491 
L 968.001813 49.564526 
L 969.38904 48.979568 
L 970.776266 48.725293 
L 972.163493 48.842095 
L 973.55072 49.360873 
L 974.937947 50.300443 
L 976.325173 51.665847 
L 977.7124 53.447736 
L 979.099627 55.622888 
L 980.486853 58.15583 
L 981.87408 61.001374 
L 984.648533 67.420711 
L 988.810213 78.083912 
L 1001.295254 111.236248 
L 1005.456934 123.23797 
L 1009.618614 136.084873 
L 1016.554747 157.784337 
L 1019.329201 165.809198 
L 1022.103654 173.177995 
L 1024.878107 179.867339 
L 1027.652561 185.980188 
L 1031.814241 194.482382 
L 1047.073734 224.603579 
L 1049.848188 229.454256 
L 1052.622641 233.777122 
L 1055.397094 237.484669 
L 1055.397094 237.484669 
" clip-path="url(#pe2ef935864)" style="fill: none; stroke: #fc8d62; stroke-width: 1.5; stroke-linecap: round"/>
   </g>
   <g id="patch_63">
    <path d="M 765.536078 248.6275 
L 765.536078 25.49625 
" style="fill: none; stroke: #cccccc; stroke-width: 0.8; stroke-linejoin: miter; stroke-linecap: square"/>
   </g>
   <g id="patch_64">
    <path d="M 1069.2 248.6275 
L 1069.2 25.49625 
" style="fill: none; stroke: #cccccc; stroke-width: 0.8; stroke-linejoin: miter; stroke-linecap: square"/>
   </g>
   <g id="patch_65">
    <path d="M 765.536078 248.6275 
L 1069.2 248.6275 
" style="fill: none; stroke: #cccccc; stroke-width: 0.8; stroke-linejoin: miter; stroke-linecap: square"/>
   </g>
   <g id="patch_66">
    <path d="M 765.536078 25.49625 
L 1069.2 25.49625 
" style="fill: none; stroke: #cccccc; stroke-width: 0.8; stroke-linejoin: miter; stroke-linecap: square"/>
   </g>
   <g id="text_52">
    <!-- logS Distribution -->
    <g style="fill: #262626" transform="translate(873.682414 19.49625)scale(0.12 -0.12)">
     <defs>
      <path id="ArialMT-53" d="M 288 1472 
L 859 1522 
Q 900 1178 1048 958 
Q 1197 738 1509 602 
Q 1822 466 2213 466 
Q 2559 466 2825 569 
Q 3091 672 3220 851 
Q 3350 1031 3350 1244 
Q 3350 1459 3225 1620 
Q 3100 1781 2813 1891 
Q 2628 1963 1997 2114 
Q 1366 2266 1113 2400 
Q 784 2572 623 2826 
Q 463 3081 463 3397 
Q 463 3744 659 4045 
Q 856 4347 1234 4503 
Q 1613 4659 2075 4659 
Q 2584 4659 2973 4495 
Q 3363 4331 3572 4012 
Q 3781 3694 3797 3291 
L 3216 3247 
Q 3169 3681 2898 3903 
Q 2628 4125 2100 4125 
Q 1550 4125 1298 3923 
Q 1047 3722 1047 3438 
Q 1047 3191 1225 3031 
Q 1400 2872 2139 2705 
Q 2878 2538 3153 2413 
Q 3553 2228 3743 1945 
Q 3934 1663 3934 1294 
Q 3934 928 3725 604 
Q 3516 281 3123 101 
Q 2731 -78 2241 -78 
Q 1619 -78 1198 103 
Q 778 284 539 648 
Q 300 1013 288 1472 
z
" transform="scale(0.015625)"/>
     </defs>
     <use xlink:href="#ArialMT-6c"/>
     <use xlink:href="#ArialMT-6f" x="22.216797"/>
     <use xlink:href="#ArialMT-67" x="77.832031"/>
     <use xlink:href="#ArialMT-53" x="133.447266"/>
     <use xlink:href="#ArialMT-20" x="200.146484"/>
     <use xlink:href="#ArialMT-44" x="227.929688"/>
     <use xlink:href="#ArialMT-69" x="300.146484"/>
     <use xlink:href="#ArialMT-73" x="322.363281"/>
     <use xlink:href="#ArialMT-74" x="372.363281"/>
     <use xlink:href="#ArialMT-72" x="400.146484"/>
     <use xlink:href="#ArialMT-69" x="433.447266"/>
     <use xlink:href="#ArialMT-62" x="455.664062"/>
     <use xlink:href="#ArialMT-75" x="511.279297"/>
     <use xlink:href="#ArialMT-74" x="566.894531"/>
     <use xlink:href="#ArialMT-69" x="594.677734"/>
     <use xlink:href="#ArialMT-6f" x="616.894531"/>
     <use xlink:href="#ArialMT-6e" x="672.509766"/>
    </g>
   </g>
  </g>
 </g>
 <defs>
  <clipPath id="p316c8cc902">
   <rect x="47.18" y="25.49625" width="303.663922" height="223.13125"/>
  </clipPath>
  <clipPath id="pc3f8f58d71">
   <rect x="406.358039" y="25.49625" width="303.663922" height="223.13125"/>
  </clipPath>
  <clipPath id="pe2ef935864">
   <rect x="765.536078" y="25.49625" width="303.663922" height="223.13125"/>
  </clipPath>
 </defs>
</svg>
