<?xml version="1.0" encoding="utf-8" standalone="no"?>
<!DOCTYPE svg PUBLIC "-//W3C//DTD SVG 1.1//EN"
  "http://www.w3.org/Graphics/SVG/1.1/DTD/svg11.dtd">
<svg xmlns:xlink="http://www.w3.org/1999/xlink" width="1080pt" height="288pt" viewBox="0 0 1080 288" xmlns="http://www.w3.org/2000/svg" version="1.1">
 <metadata>
  <rdf:RDF xmlns:dc="http://purl.org/dc/elements/1.1/" xmlns:cc="http://creativecommons.org/ns#" xmlns:rdf="http://www.w3.org/1999/02/22-rdf-syntax-ns#">
   <cc:Work>
    <dc:type rdf:resource="http://purl.org/dc/dcmitype/StillImage"/>
    <dc:date>2025-02-24T13:13:27.978065</dc:date>
    <dc:format>image/svg+xml</dc:format>
    <dc:creator>
     <cc:Agent>
      <dc:title>Matplotlib v3.10.0, https://matplotlib.org/</dc:title>
     </cc:Agent>
    </dc:creator>
   </cc:Work>
  </rdf:RDF>
 </metadata>
 <defs>
  <style type="text/css">*{stroke-linejoin: round; stroke-linecap: butt}</style>
 </defs>
 <g id="figure_1">
  <g id="patch_1">
   <path d="M 0 288 
L 1080 288 
L 1080 0 
L 0 0 
z
" style="fill: #ffffff"/>
  </g>
  <g id="axes_1">
   <g id="patch_2">
    <path d="M 43.04 260.12 
L 350.82 260.12 
L 350.82 26.925 
L 43.04 26.925 
z
" style="fill: #ffffff"/>
   </g>
   <g id="matplotlib.axis_1">
    <g id="xtick_1">
     <g id="line2d_1">
      <path d="M 87.134809 260.12 
L 87.134809 26.925 
" clip-path="url(#p101b608568)" style="fill: none; stroke: #cccccc; stroke-width: 0.8; stroke-linecap: round"/>
     </g>
     <g id="text_1">
      <!-- 200 -->
      <g style="fill: #262626" transform="translate(78.793403 274.277812) scale(0.1 -0.1)">
       <defs>
        <path id="ArialMT-32" d="M 3222 541 
L 3222 0 
L 194 0 
Q 188 203 259 391 
Q 375 700 629 1000 
Q 884 1300 1366 1694 
Q 2113 2306 2375 2664 
Q 2638 3022 2638 3341 
Q 2638 3675 2398 3904 
Q 2159 4134 1775 4134 
Q 1369 4134 1125 3890 
Q 881 3647 878 3216 
L 300 3275 
Q 359 3922 746 4261 
Q 1134 4600 1788 4600 
Q 2447 4600 2831 4234 
Q 3216 3869 3216 3328 
Q 3216 3053 3103 2787 
Q 2991 2522 2730 2228 
Q 2469 1934 1863 1422 
Q 1356 997 1212 845 
Q 1069 694 975 541 
L 3222 541 
z
" transform="scale(0.015625)"/>
        <path id="ArialMT-30" d="M 266 2259 
Q 266 3072 433 3567 
Q 600 4063 929 4331 
Q 1259 4600 1759 4600 
Q 2128 4600 2406 4451 
Q 2684 4303 2865 4023 
Q 3047 3744 3150 3342 
Q 3253 2941 3253 2259 
Q 3253 1453 3087 958 
Q 2922 463 2592 192 
Q 2263 -78 1759 -78 
Q 1097 -78 719 397 
Q 266 969 266 2259 
z
M 844 2259 
Q 844 1131 1108 757 
Q 1372 384 1759 384 
Q 2147 384 2411 759 
Q 2675 1134 2675 2259 
Q 2675 3391 2411 3762 
Q 2147 4134 1753 4134 
Q 1366 4134 1134 3806 
Q 844 3388 844 2259 
z
" transform="scale(0.015625)"/>
       </defs>
       <use xlink:href="#ArialMT-32"/>
       <use xlink:href="#ArialMT-30" transform="translate(55.615234 0)"/>
       <use xlink:href="#ArialMT-30" transform="translate(111.230469 0)"/>
      </g>
     </g>
    </g>
    <g id="xtick_2">
     <g id="line2d_2">
      <path d="M 150.493283 260.12 
L 150.493283 26.925 
" clip-path="url(#p101b608568)" style="fill: none; stroke: #cccccc; stroke-width: 0.8; stroke-linecap: round"/>
     </g>
     <g id="text_2">
      <!-- 300 -->
      <g style="fill: #262626" transform="translate(142.151877 274.277812) scale(0.1 -0.1)">
       <defs>
        <path id="ArialMT-33" d="M 269 1209 
L 831 1284 
Q 928 806 1161 595 
Q 1394 384 1728 384 
Q 2125 384 2398 659 
Q 2672 934 2672 1341 
Q 2672 1728 2419 1979 
Q 2166 2231 1775 2231 
Q 1616 2231 1378 2169 
L 1441 2663 
Q 1497 2656 1531 2656 
Q 1891 2656 2178 2843 
Q 2466 3031 2466 3422 
Q 2466 3731 2256 3934 
Q 2047 4138 1716 4138 
Q 1388 4138 1169 3931 
Q 950 3725 888 3313 
L 325 3413 
Q 428 3978 793 4289 
Q 1159 4600 1703 4600 
Q 2078 4600 2393 4439 
Q 2709 4278 2876 4000 
Q 3044 3722 3044 3409 
Q 3044 3113 2884 2869 
Q 2725 2625 2413 2481 
Q 2819 2388 3044 2092 
Q 3269 1797 3269 1353 
Q 3269 753 2831 336 
Q 2394 -81 1725 -81 
Q 1122 -81 723 278 
Q 325 638 269 1209 
z
" transform="scale(0.015625)"/>
       </defs>
       <use xlink:href="#ArialMT-33"/>
       <use xlink:href="#ArialMT-30" transform="translate(55.615234 0)"/>
       <use xlink:href="#ArialMT-30" transform="translate(111.230469 0)"/>
      </g>
     </g>
    </g>
    <g id="xtick_3">
     <g id="line2d_3">
      <path d="M 213.851758 260.12 
L 213.851758 26.925 
" clip-path="url(#p101b608568)" style="fill: none; stroke: #cccccc; stroke-width: 0.8; stroke-linecap: round"/>
     </g>
     <g id="text_3">
      <!-- 400 -->
      <g style="fill: #262626" transform="translate(205.510352 274.277812) scale(0.1 -0.1)">
       <defs>
        <path id="ArialMT-34" d="M 2069 0 
L 2069 1097 
L 81 1097 
L 81 1613 
L 2172 4581 
L 2631 4581 
L 2631 1613 
L 3250 1613 
L 3250 1097 
L 2631 1097 
L 2631 0 
L 2069 0 
z
M 2069 1613 
L 2069 3678 
L 634 1613 
L 2069 1613 
z
" transform="scale(0.015625)"/>
       </defs>
       <use xlink:href="#ArialMT-34"/>
       <use xlink:href="#ArialMT-30" transform="translate(55.615234 0)"/>
       <use xlink:href="#ArialMT-30" transform="translate(111.230469 0)"/>
      </g>
     </g>
    </g>
    <g id="xtick_4">
     <g id="line2d_4">
      <path d="M 277.210232 260.12 
L 277.210232 26.925 
" clip-path="url(#p101b608568)" style="fill: none; stroke: #cccccc; stroke-width: 0.8; stroke-linecap: round"/>
     </g>
     <g id="text_4">
      <!-- 500 -->
      <g style="fill: #262626" transform="translate(268.868826 274.277812) scale(0.1 -0.1)">
       <defs>
        <path id="ArialMT-35" d="M 266 1200 
L 856 1250 
Q 922 819 1161 601 
Q 1400 384 1738 384 
Q 2144 384 2425 690 
Q 2706 997 2706 1503 
Q 2706 1984 2436 2262 
Q 2166 2541 1728 2541 
Q 1456 2541 1237 2417 
Q 1019 2294 894 2097 
L 366 2166 
L 809 4519 
L 3088 4519 
L 3088 3981 
L 1259 3981 
L 1013 2750 
Q 1425 3038 1878 3038 
Q 2478 3038 2890 2622 
Q 3303 2206 3303 1553 
Q 3303 931 2941 478 
Q 2500 -78 1738 -78 
Q 1113 -78 717 272 
Q 322 622 266 1200 
z
" transform="scale(0.015625)"/>
       </defs>
       <use xlink:href="#ArialMT-35"/>
       <use xlink:href="#ArialMT-30" transform="translate(55.615234 0)"/>
       <use xlink:href="#ArialMT-30" transform="translate(111.230469 0)"/>
      </g>
     </g>
    </g>
    <g id="xtick_5">
     <g id="line2d_5">
      <path d="M 340.568707 260.12 
L 340.568707 26.925 
" clip-path="url(#p101b608568)" style="fill: none; stroke: #cccccc; stroke-width: 0.8; stroke-linecap: round"/>
     </g>
     <g id="text_5">
      <!-- 600 -->
      <g style="fill: #262626" transform="translate(332.2273 274.277812) scale(0.1 -0.1)">
       <defs>
        <path id="ArialMT-36" d="M 3184 3459 
L 2625 3416 
Q 2550 3747 2413 3897 
Q 2184 4138 1850 4138 
Q 1581 4138 1378 3988 
Q 1113 3794 959 3422 
Q 806 3050 800 2363 
Q 1003 2672 1297 2822 
Q 1591 2972 1913 2972 
Q 2475 2972 2870 2558 
Q 3266 2144 3266 1488 
Q 3266 1056 3080 686 
Q 2894 316 2569 119 
Q 2244 -78 1831 -78 
Q 1128 -78 684 439 
Q 241 956 241 2144 
Q 241 3472 731 4075 
Q 1159 4600 1884 4600 
Q 2425 4600 2770 4297 
Q 3116 3994 3184 3459 
z
M 888 1484 
Q 888 1194 1011 928 
Q 1134 663 1356 523 
Q 1578 384 1822 384 
Q 2178 384 2434 671 
Q 2691 959 2691 1453 
Q 2691 1928 2437 2201 
Q 2184 2475 1800 2475 
Q 1419 2475 1153 2201 
Q 888 1928 888 1484 
z
" transform="scale(0.015625)"/>
       </defs>
       <use xlink:href="#ArialMT-36"/>
       <use xlink:href="#ArialMT-30" transform="translate(55.615234 0)"/>
       <use xlink:href="#ArialMT-30" transform="translate(111.230469 0)"/>
      </g>
     </g>
    </g>
   </g>
   <g id="matplotlib.axis_2">
    <g id="ytick_1">
     <g id="line2d_6">
      <path d="M 43.04 260.12 
L 350.82 260.12 
" clip-path="url(#p101b608568)" style="fill: none; stroke: #cccccc; stroke-width: 0.8; stroke-linecap: round"/>
     </g>
     <g id="text_6">
      <!-- 0 -->
      <g style="fill: #262626" transform="translate(30.479062 263.698906) scale(0.1 -0.1)">
       <use xlink:href="#ArialMT-30"/>
      </g>
     </g>
    </g>
    <g id="ytick_2">
     <g id="line2d_7">
      <path d="M 43.04 230.507937 
L 350.82 230.507937 
" clip-path="url(#p101b608568)" style="fill: none; stroke: #cccccc; stroke-width: 0.8; stroke-linecap: round"/>
     </g>
     <g id="text_7">
      <!-- 2 -->
      <g style="fill: #262626" transform="translate(30.479062 234.086843) scale(0.1 -0.1)">
       <use xlink:href="#ArialMT-32"/>
      </g>
     </g>
    </g>
    <g id="ytick_3">
     <g id="line2d_8">
      <path d="M 43.04 200.895873 
L 350.82 200.895873 
" clip-path="url(#p101b608568)" style="fill: none; stroke: #cccccc; stroke-width: 0.8; stroke-linecap: round"/>
     </g>
     <g id="text_8">
      <!-- 4 -->
      <g style="fill: #262626" transform="translate(30.479062 204.474779) scale(0.1 -0.1)">
       <use xlink:href="#ArialMT-34"/>
      </g>
     </g>
    </g>
    <g id="ytick_4">
     <g id="line2d_9">
      <path d="M 43.04 171.28381 
L 350.82 171.28381 
" clip-path="url(#p101b608568)" style="fill: none; stroke: #cccccc; stroke-width: 0.8; stroke-linecap: round"/>
     </g>
     <g id="text_9">
      <!-- 6 -->
      <g style="fill: #262626" transform="translate(30.479062 174.862716) scale(0.1 -0.1)">
       <use xlink:href="#ArialMT-36"/>
      </g>
     </g>
    </g>
    <g id="ytick_5">
     <g id="line2d_10">
      <path d="M 43.04 141.671746 
L 350.82 141.671746 
" clip-path="url(#p101b608568)" style="fill: none; stroke: #cccccc; stroke-width: 0.8; stroke-linecap: round"/>
     </g>
     <g id="text_10">
      <!-- 8 -->
      <g style="fill: #262626" transform="translate(30.479062 145.250652) scale(0.1 -0.1)">
       <defs>
        <path id="ArialMT-38" d="M 1131 2484 
Q 781 2613 612 2850 
Q 444 3088 444 3419 
Q 444 3919 803 4259 
Q 1163 4600 1759 4600 
Q 2359 4600 2725 4251 
Q 3091 3903 3091 3403 
Q 3091 3084 2923 2848 
Q 2756 2613 2416 2484 
Q 2838 2347 3058 2040 
Q 3278 1734 3278 1309 
Q 3278 722 2862 322 
Q 2447 -78 1769 -78 
Q 1091 -78 675 323 
Q 259 725 259 1325 
Q 259 1772 486 2073 
Q 713 2375 1131 2484 
z
M 1019 3438 
Q 1019 3113 1228 2906 
Q 1438 2700 1772 2700 
Q 2097 2700 2305 2904 
Q 2513 3109 2513 3406 
Q 2513 3716 2298 3927 
Q 2084 4138 1766 4138 
Q 1444 4138 1231 3931 
Q 1019 3725 1019 3438 
z
M 838 1322 
Q 838 1081 952 856 
Q 1066 631 1291 507 
Q 1516 384 1775 384 
Q 2178 384 2440 643 
Q 2703 903 2703 1303 
Q 2703 1709 2433 1975 
Q 2163 2241 1756 2241 
Q 1359 2241 1098 1978 
Q 838 1716 838 1322 
z
" transform="scale(0.015625)"/>
       </defs>
       <use xlink:href="#ArialMT-38"/>
      </g>
     </g>
    </g>
    <g id="ytick_6">
     <g id="line2d_11">
      <path d="M 43.04 112.059683 
L 350.82 112.059683 
" clip-path="url(#p101b608568)" style="fill: none; stroke: #cccccc; stroke-width: 0.8; stroke-linecap: round"/>
     </g>
     <g id="text_11">
      <!-- 10 -->
      <g style="fill: #262626" transform="translate(24.918125 115.638589) scale(0.1 -0.1)">
       <defs>
        <path id="ArialMT-31" d="M 2384 0 
L 1822 0 
L 1822 3584 
Q 1619 3391 1289 3197 
Q 959 3003 697 2906 
L 697 3450 
Q 1169 3672 1522 3987 
Q 1875 4303 2022 4600 
L 2384 4600 
L 2384 0 
z
" transform="scale(0.015625)"/>
       </defs>
       <use xlink:href="#ArialMT-31"/>
       <use xlink:href="#ArialMT-30" transform="translate(55.615234 0)"/>
      </g>
     </g>
    </g>
    <g id="ytick_7">
     <g id="line2d_12">
      <path d="M 43.04 82.447619 
L 350.82 82.447619 
" clip-path="url(#p101b608568)" style="fill: none; stroke: #cccccc; stroke-width: 0.8; stroke-linecap: round"/>
     </g>
     <g id="text_12">
      <!-- 12 -->
      <g style="fill: #262626" transform="translate(24.918125 86.026525) scale(0.1 -0.1)">
       <use xlink:href="#ArialMT-31"/>
       <use xlink:href="#ArialMT-32" transform="translate(55.615234 0)"/>
      </g>
     </g>
    </g>
    <g id="ytick_8">
     <g id="line2d_13">
      <path d="M 43.04 52.835556 
L 350.82 52.835556 
" clip-path="url(#p101b608568)" style="fill: none; stroke: #cccccc; stroke-width: 0.8; stroke-linecap: round"/>
     </g>
     <g id="text_13">
      <!-- 14 -->
      <g style="fill: #262626" transform="translate(24.918125 56.414462) scale(0.1 -0.1)">
       <use xlink:href="#ArialMT-31"/>
       <use xlink:href="#ArialMT-34" transform="translate(55.615234 0)"/>
      </g>
     </g>
    </g>
    <g id="text_14">
     <!-- Count -->
     <g style="fill: #262626" transform="translate(18.930625 156.863906) rotate(-90) scale(0.1 -0.1)">
      <defs>
       <path id="ArialMT-43" d="M 3763 1606 
L 4369 1453 
Q 4178 706 3683 314 
Q 3188 -78 2472 -78 
Q 1731 -78 1267 223 
Q 803 525 561 1097 
Q 319 1669 319 2325 
Q 319 3041 592 3573 
Q 866 4106 1370 4382 
Q 1875 4659 2481 4659 
Q 3169 4659 3637 4309 
Q 4106 3959 4291 3325 
L 3694 3184 
Q 3534 3684 3231 3912 
Q 2928 4141 2469 4141 
Q 1941 4141 1586 3887 
Q 1231 3634 1087 3207 
Q 944 2781 944 2328 
Q 944 1744 1114 1308 
Q 1284 872 1643 656 
Q 2003 441 2422 441 
Q 2931 441 3284 734 
Q 3638 1028 3763 1606 
z
" transform="scale(0.015625)"/>
       <path id="ArialMT-6f" d="M 213 1659 
Q 213 2581 725 3025 
Q 1153 3394 1769 3394 
Q 2453 3394 2887 2945 
Q 3322 2497 3322 1706 
Q 3322 1066 3130 698 
Q 2938 331 2570 128 
Q 2203 -75 1769 -75 
Q 1072 -75 642 372 
Q 213 819 213 1659 
z
M 791 1659 
Q 791 1022 1069 705 
Q 1347 388 1769 388 
Q 2188 388 2466 706 
Q 2744 1025 2744 1678 
Q 2744 2294 2464 2611 
Q 2184 2928 1769 2928 
Q 1347 2928 1069 2612 
Q 791 2297 791 1659 
z
" transform="scale(0.015625)"/>
       <path id="ArialMT-75" d="M 2597 0 
L 2597 488 
Q 2209 -75 1544 -75 
Q 1250 -75 995 37 
Q 741 150 617 320 
Q 494 491 444 738 
Q 409 903 409 1263 
L 409 3319 
L 972 3319 
L 972 1478 
Q 972 1038 1006 884 
Q 1059 663 1231 536 
Q 1403 409 1656 409 
Q 1909 409 2131 539 
Q 2353 669 2445 892 
Q 2538 1116 2538 1541 
L 2538 3319 
L 3100 3319 
L 3100 0 
L 2597 0 
z
" transform="scale(0.015625)"/>
       <path id="ArialMT-6e" d="M 422 0 
L 422 3319 
L 928 3319 
L 928 2847 
Q 1294 3394 1984 3394 
Q 2284 3394 2536 3286 
Q 2788 3178 2913 3003 
Q 3038 2828 3088 2588 
Q 3119 2431 3119 2041 
L 3119 0 
L 2556 0 
L 2556 2019 
Q 2556 2363 2490 2533 
Q 2425 2703 2258 2804 
Q 2091 2906 1866 2906 
Q 1506 2906 1245 2678 
Q 984 2450 984 1813 
L 984 0 
L 422 0 
z
" transform="scale(0.015625)"/>
       <path id="ArialMT-74" d="M 1650 503 
L 1731 6 
Q 1494 -44 1306 -44 
Q 1000 -44 831 53 
Q 663 150 594 308 
Q 525 466 525 972 
L 525 2881 
L 113 2881 
L 113 3319 
L 525 3319 
L 525 4141 
L 1084 4478 
L 1084 3319 
L 1650 3319 
L 1650 2881 
L 1084 2881 
L 1084 941 
Q 1084 700 1114 631 
Q 1144 563 1211 522 
Q 1278 481 1403 481 
Q 1497 481 1650 503 
z
" transform="scale(0.015625)"/>
      </defs>
      <use xlink:href="#ArialMT-43"/>
      <use xlink:href="#ArialMT-6f" transform="translate(72.216797 0)"/>
      <use xlink:href="#ArialMT-75" transform="translate(127.832031 0)"/>
      <use xlink:href="#ArialMT-6e" transform="translate(183.447266 0)"/>
      <use xlink:href="#ArialMT-74" transform="translate(239.0625 0)"/>
     </g>
    </g>
   </g>
   <g id="patch_3">
    <path d="M 57.03 260.12 
L 71.02 260.12 
L 71.02 82.447619 
L 57.03 82.447619 
z
" clip-path="url(#p101b608568)" style="fill: #fdc422; fill-opacity: 0.5; stroke: #ffffff; stroke-linejoin: miter"/>
   </g>
   <g id="patch_4">
    <path d="M 71.02 260.12 
L 85.01 260.12 
L 85.01 112.059683 
L 71.02 112.059683 
z
" clip-path="url(#p101b608568)" style="fill: #fdc422; fill-opacity: 0.5; stroke: #ffffff; stroke-linejoin: miter"/>
   </g>
   <g id="patch_5">
    <path d="M 85.01 260.12 
L 99 260.12 
L 99 97.253651 
L 85.01 97.253651 
z
" clip-path="url(#p101b608568)" style="fill: #fdc422; fill-opacity: 0.5; stroke: #ffffff; stroke-linejoin: miter"/>
   </g>
   <g id="patch_6">
    <path d="M 99 260.12 
L 112.99 260.12 
L 112.99 67.641587 
L 99 67.641587 
z
" clip-path="url(#p101b608568)" style="fill: #fdc422; fill-opacity: 0.5; stroke: #ffffff; stroke-linejoin: miter"/>
   </g>
   <g id="patch_7">
    <path d="M 112.99 260.12 
L 126.98 260.12 
L 126.98 112.059683 
L 112.99 112.059683 
z
" clip-path="url(#p101b608568)" style="fill: #fdc422; fill-opacity: 0.5; stroke: #ffffff; stroke-linejoin: miter"/>
   </g>
   <g id="patch_8">
    <path d="M 126.98 260.12 
L 140.97 260.12 
L 140.97 112.059683 
L 126.98 112.059683 
z
" clip-path="url(#p101b608568)" style="fill: #fdc422; fill-opacity: 0.5; stroke: #ffffff; stroke-linejoin: miter"/>
   </g>
   <g id="patch_9">
    <path d="M 140.97 260.12 
L 154.96 260.12 
L 154.96 38.029524 
L 140.97 38.029524 
z
" clip-path="url(#p101b608568)" style="fill: #fdc422; fill-opacity: 0.5; stroke: #ffffff; stroke-linejoin: miter"/>
   </g>
   <g id="patch_10">
    <path d="M 154.96 260.12 
L 168.95 260.12 
L 168.95 126.865714 
L 154.96 126.865714 
z
" clip-path="url(#p101b608568)" style="fill: #fdc422; fill-opacity: 0.5; stroke: #ffffff; stroke-linejoin: miter"/>
   </g>
   <g id="patch_11">
    <path d="M 168.95 260.12 
L 182.94 260.12 
L 182.94 171.28381 
L 168.95 171.28381 
z
" clip-path="url(#p101b608568)" style="fill: #fdc422; fill-opacity: 0.5; stroke: #ffffff; stroke-linejoin: miter"/>
   </g>
   <g id="patch_12">
    <path d="M 182.94 260.12 
L 196.93 260.12 
L 196.93 186.089841 
L 182.94 186.089841 
z
" clip-path="url(#p101b608568)" style="fill: #fdc422; fill-opacity: 0.5; stroke: #ffffff; stroke-linejoin: miter"/>
   </g>
   <g id="patch_13">
    <path d="M 196.93 260.12 
L 210.92 260.12 
L 210.92 52.835556 
L 196.93 52.835556 
z
" clip-path="url(#p101b608568)" style="fill: #fdc422; fill-opacity: 0.5; stroke: #ffffff; stroke-linejoin: miter"/>
   </g>
   <g id="patch_14">
    <path d="M 210.92 260.12 
L 224.91 260.12 
L 224.91 186.089841 
L 210.92 186.089841 
z
" clip-path="url(#p101b608568)" style="fill: #fdc422; fill-opacity: 0.5; stroke: #ffffff; stroke-linejoin: miter"/>
   </g>
   <g id="patch_15">
    <path d="M 224.91 260.12 
L 238.9 260.12 
L 238.9 67.641587 
L 224.91 67.641587 
z
" clip-path="url(#p101b608568)" style="fill: #fdc422; fill-opacity: 0.5; stroke: #ffffff; stroke-linejoin: miter"/>
   </g>
   <g id="patch_16">
    <path d="M 238.9 260.12 
L 252.89 260.12 
L 252.89 156.477778 
L 238.9 156.477778 
z
" clip-path="url(#p101b608568)" style="fill: #fdc422; fill-opacity: 0.5; stroke: #ffffff; stroke-linejoin: miter"/>
   </g>
   <g id="patch_17">
    <path d="M 252.89 260.12 
L 266.88 260.12 
L 266.88 126.865714 
L 252.89 126.865714 
z
" clip-path="url(#p101b608568)" style="fill: #fdc422; fill-opacity: 0.5; stroke: #ffffff; stroke-linejoin: miter"/>
   </g>
   <g id="patch_18">
    <path d="M 266.88 260.12 
L 280.87 260.12 
L 280.87 126.865714 
L 266.88 126.865714 
z
" clip-path="url(#p101b608568)" style="fill: #fdc422; fill-opacity: 0.5; stroke: #ffffff; stroke-linejoin: miter"/>
   </g>
   <g id="patch_19">
    <path d="M 280.87 260.12 
L 294.86 260.12 
L 294.86 97.253651 
L 280.87 97.253651 
z
" clip-path="url(#p101b608568)" style="fill: #fdc422; fill-opacity: 0.5; stroke: #ffffff; stroke-linejoin: miter"/>
   </g>
   <g id="patch_20">
    <path d="M 294.86 260.12 
L 308.85 260.12 
L 308.85 156.477778 
L 294.86 156.477778 
z
" clip-path="url(#p101b608568)" style="fill: #fdc422; fill-opacity: 0.5; stroke: #ffffff; stroke-linejoin: miter"/>
   </g>
   <g id="patch_21">
    <path d="M 308.85 260.12 
L 322.84 260.12 
L 322.84 67.641587 
L 308.85 67.641587 
z
" clip-path="url(#p101b608568)" style="fill: #fdc422; fill-opacity: 0.5; stroke: #ffffff; stroke-linejoin: miter"/>
   </g>
   <g id="patch_22">
    <path d="M 322.84 260.12 
L 336.83 260.12 
L 336.83 97.253651 
L 322.84 97.253651 
z
" clip-path="url(#p101b608568)" style="fill: #fdc422; fill-opacity: 0.5; stroke: #ffffff; stroke-linejoin: miter"/>
   </g>
   <g id="line2d_14">
    <path d="M 57.03 176.989921 
L 64.060151 161.471556 
L 68.278241 152.554353 
L 72.496332 144.128232 
L 76.714422 136.318327 
L 79.526482 131.499681 
L 82.338543 127.012653 
L 85.150603 122.86752 
L 87.962663 119.068161 
L 90.774724 115.612923 
L 93.586784 112.495704 
L 96.398844 109.707139 
L 99.210905 107.23584 
L 102.022965 105.069603 
L 104.835025 103.196487 
L 107.647085 101.605733 
L 110.459146 100.28843 
L 113.271206 99.237913 
L 116.083266 98.449864 
L 118.895327 97.922107 
L 121.707387 97.654128 
L 124.519447 97.64634 
L 127.331508 97.899163 
L 130.143568 98.411973 
L 132.955628 99.182011 
L 135.767688 100.203323 
L 138.579749 101.465829 
L 141.391809 102.954582 
L 144.203869 104.649307 
L 148.42196 107.519786 
L 152.64005 110.685846 
L 166.700352 121.624425 
L 170.918442 124.479691 
L 173.730503 126.162225 
L 176.542563 127.639713 
L 179.354623 128.896115 
L 182.166683 129.923094 
L 184.978744 130.720001 
L 187.790804 131.29348 
L 190.602864 131.656739 
L 193.414925 131.828535 
L 196.226985 131.831957 
L 200.445075 131.578857 
L 204.663166 131.099032 
L 211.693317 130.038004 
L 221.535528 128.537233 
L 228.565678 127.680514 
L 237.001859 126.886114 
L 251.062161 125.611335 
L 259.498342 124.584587 
L 276.370704 122.366127 
L 280.588794 122.105138 
L 283.400854 122.090741 
L 286.212915 122.242742 
L 289.024975 122.596104 
L 291.837035 123.186463 
L 294.649095 124.049157 
L 297.461156 125.218149 
L 300.273216 126.724861 
L 303.085276 128.596951 
L 305.897337 130.857103 
L 308.709397 133.521858 
L 311.521457 136.600568 
L 314.333518 140.094523 
L 317.145578 143.996313 
L 319.957638 148.289483 
L 322.769698 152.948502 
L 325.581759 157.939087 
L 329.799849 165.952007 
L 334.01794 174.442494 
L 336.83 180.271656 
L 336.83 180.271656 
" clip-path="url(#p101b608568)" style="fill: none; stroke: #fdc422; stroke-width: 1.5; stroke-linecap: round"/>
   </g>
   <g id="patch_23">
    <path d="M 43.04 260.12 
L 43.04 26.925 
" style="fill: none; stroke: #cccccc; stroke-width: 0.8; stroke-linejoin: miter; stroke-linecap: square"/>
   </g>
   <g id="patch_24">
    <path d="M 350.82 260.12 
L 350.82 26.925 
" style="fill: none; stroke: #cccccc; stroke-width: 0.8; stroke-linejoin: miter; stroke-linecap: square"/>
   </g>
   <g id="patch_25">
    <path d="M 43.04 260.12 
L 350.82 260.12 
" style="fill: none; stroke: #cccccc; stroke-width: 0.8; stroke-linejoin: miter; stroke-linecap: square"/>
   </g>
   <g id="patch_26">
    <path d="M 43.04 26.925 
L 350.82 26.925 
" style="fill: none; stroke: #cccccc; stroke-width: 0.8; stroke-linejoin: miter; stroke-linecap: square"/>
   </g>
   <g id="text_15">
    <!-- Molecular Weight (MW) Distribution -->
    <g style="fill: #262626" transform="translate(71.374375 20.925) scale(0.12 -0.12)">
     <defs>
      <path id="FiraCode-Regular-4d" d="M 3482 4519 
L 3738 0 
L 3190 0 
L 3049 2360 
Q 3033 2675 3024 3003 
Q 3016 3331 3013 3598 
Q 3010 3866 3013 3998 
L 2252 811 
L 1680 811 
L 863 3998 
Q 870 3870 873 3591 
Q 876 3312 873 2980 
Q 870 2649 857 2366 
L 735 0 
L 200 0 
L 456 4519 
L 1251 4519 
L 1982 1424 
L 2681 4519 
L 3482 4519 
z
" transform="scale(0.015625)"/>
      <path id="FiraCode-Regular-6f" d="M 1976 3528 
Q 2708 3528 3082 3039 
Q 3456 2550 3456 1730 
Q 3456 1201 3285 794 
Q 3115 387 2783 156 
Q 2452 -75 1969 -75 
Q 1237 -75 860 417 
Q 483 909 483 1723 
Q 483 2255 653 2663 
Q 824 3072 1157 3300 
Q 1490 3528 1976 3528 
z
M 1976 3079 
Q 1529 3079 1301 2747 
Q 1073 2416 1073 1723 
Q 1073 1037 1298 707 
Q 1523 377 1969 377 
Q 2416 377 2640 708 
Q 2865 1040 2865 1730 
Q 2865 2419 2642 2749 
Q 2419 3079 1976 3079 
z
" transform="scale(0.015625)"/>
      <path id="FiraCode-Regular-6c" d="M 2005 4848 
L 2005 853 
Q 2005 597 2164 490 
Q 2324 384 2576 384 
Q 2731 384 2873 417 
Q 3016 450 3157 505 
L 3305 102 
Q 3164 33 2955 -21 
Q 2747 -75 2485 -75 
Q 2025 -75 1739 179 
Q 1454 433 1454 883 
L 1454 4411 
L 394 4411 
L 394 4848 
L 2005 4848 
z
" transform="scale(0.015625)"/>
      <path id="FiraCode-Regular-65" d="M 1093 1533 
Q 1116 932 1409 658 
Q 1703 384 2104 384 
Q 2370 384 2583 463 
Q 2796 542 3026 696 
L 3285 331 
Q 3046 141 2734 33 
Q 2422 -75 2097 -75 
Q 1592 -75 1239 151 
Q 886 377 700 782 
Q 515 1188 515 1723 
Q 515 2248 700 2655 
Q 886 3062 1226 3295 
Q 1566 3528 2025 3528 
Q 2678 3528 3054 3075 
Q 3430 2622 3430 1835 
Q 3430 1746 3425 1667 
Q 3420 1589 3417 1533 
L 1093 1533 
z
M 2032 3075 
Q 1648 3075 1388 2802 
Q 1129 2530 1096 1959 
L 2898 1959 
Q 2888 2514 2655 2794 
Q 2422 3075 2032 3075 
z
" transform="scale(0.015625)"/>
      <path id="FiraCode-Regular-63" d="M 2222 400 
Q 2481 400 2706 484 
Q 2931 568 3121 702 
L 3390 341 
Q 3164 148 2845 36 
Q 2527 -75 2222 -75 
Q 1707 -75 1344 146 
Q 981 368 791 770 
Q 601 1172 601 1713 
Q 601 2232 791 2642 
Q 981 3052 1345 3290 
Q 1710 3528 2229 3528 
Q 2888 3528 3384 3128 
L 3115 2760 
Q 2665 3069 2222 3069 
Q 1776 3069 1487 2732 
Q 1198 2396 1198 1713 
Q 1198 1021 1487 710 
Q 1776 400 2222 400 
z
" transform="scale(0.015625)"/>
      <path id="FiraCode-Regular-75" d="M 1211 3456 
L 1211 1008 
Q 1211 666 1352 515 
Q 1493 364 1792 364 
Q 2078 364 2332 526 
Q 2586 689 2727 912 
L 2727 3456 
L 3279 3456 
L 3279 0 
L 2809 0 
L 2764 466 
Q 2560 203 2259 64 
Q 1959 -75 1657 -75 
Q 1155 -75 907 192 
Q 660 459 660 942 
L 660 3456 
L 1211 3456 
z
" transform="scale(0.015625)"/>
      <path id="FiraCode-Regular-61" d="M 3134 755 
Q 3134 545 3203 449 
Q 3272 354 3417 312 
L 3282 -75 
Q 3059 -46 2891 67 
Q 2724 181 2649 410 
Q 2462 171 2181 48 
Q 1900 -75 1566 -75 
Q 1047 -75 748 217 
Q 450 509 450 991 
Q 450 1526 866 1811 
Q 1283 2097 2071 2097 
L 2580 2097 
L 2580 2386 
Q 2580 2760 2361 2916 
Q 2143 3072 1756 3072 
Q 1585 3072 1355 3031 
Q 1126 2990 857 2895 
L 712 3312 
Q 1027 3430 1308 3479 
Q 1589 3528 1841 3528 
Q 2485 3528 2809 3226 
Q 3134 2924 3134 2412 
L 3134 755 
z
M 1707 345 
Q 1963 345 2194 474 
Q 2425 604 2580 834 
L 2580 1723 
L 2081 1723 
Q 1510 1723 1275 1526 
Q 1040 1329 1040 998 
Q 1040 345 1707 345 
z
" transform="scale(0.015625)"/>
      <path id="FiraCode-Regular-72" d="M 693 0 
L 693 423 
L 1231 423 
L 1231 3033 
L 693 3033 
L 693 3456 
L 1651 3456 
L 1753 2639 
Q 1953 3065 2238 3298 
Q 2524 3531 2993 3531 
Q 3138 3531 3251 3510 
Q 3364 3489 3482 3456 
L 3404 2288 
L 2951 2288 
L 2951 3023 
Q 2937 3023 2921 3023 
Q 2127 3023 1782 1887 
L 1782 423 
L 2485 423 
L 2485 0 
L 693 0 
z
" transform="scale(0.015625)"/>
      <path id="FiraCode-Regular-20" transform="scale(0.015625)"/>
      <path id="FiraCode-Regular-57" d="M 3909 4519 
L 3220 0 
L 2471 0 
L 1953 3410 
L 1431 0 
L 666 0 
L 30 4519 
L 601 4519 
L 1083 627 
L 1625 3994 
L 2324 3994 
L 2839 627 
L 3381 4519 
L 3909 4519 
z
" transform="scale(0.015625)"/>
      <path id="FiraCode-Regular-69" d="M 1969 5074 
Q 2153 5074 2263 4962 
Q 2373 4851 2373 4690 
Q 2373 4523 2263 4409 
Q 2153 4296 1969 4296 
Q 1795 4296 1683 4409 
Q 1572 4523 1572 4690 
Q 1572 4851 1683 4962 
Q 1795 5074 1969 5074 
z
M 2409 3456 
L 2409 437 
L 3384 437 
L 3384 0 
L 791 0 
L 791 437 
L 1858 437 
L 1858 3019 
L 824 3019 
L 824 3456 
L 2409 3456 
z
" transform="scale(0.015625)"/>
      <path id="FiraCode-Regular-67" d="M 3469 3824 
L 3640 3305 
Q 3417 3236 3169 3219 
Q 2921 3203 2629 3203 
Q 3230 2928 3230 2334 
Q 3230 1822 2887 1490 
Q 2544 1159 1930 1159 
Q 1756 1159 1639 1175 
Q 1523 1191 1415 1224 
Q 1336 1168 1285 1078 
Q 1234 988 1234 889 
Q 1234 765 1332 683 
Q 1431 601 1697 601 
L 2320 601 
Q 2668 601 2944 476 
Q 3220 351 3380 139 
Q 3541 -72 3541 -338 
Q 3541 -847 3109 -1119 
Q 2678 -1392 1891 -1392 
Q 1339 -1392 1020 -1278 
Q 702 -1165 566 -933 
Q 430 -702 430 -351 
L 929 -351 
Q 929 -551 1007 -682 
Q 1086 -814 1293 -878 
Q 1500 -942 1887 -942 
Q 2458 -942 2720 -799 
Q 2983 -656 2983 -374 
Q 2983 -128 2760 -3 
Q 2537 121 2202 121 
L 1585 121 
Q 1136 121 926 318 
Q 716 515 716 771 
Q 716 1126 1096 1375 
Q 515 1684 515 2330 
Q 515 2681 689 2952 
Q 863 3223 1175 3377 
Q 1487 3531 1894 3531 
Q 2330 3531 2602 3567 
Q 2875 3604 3070 3669 
Q 3266 3735 3469 3824 
z
M 1894 3128 
Q 1477 3128 1278 2901 
Q 1080 2675 1080 2330 
Q 1080 1979 1282 1752 
Q 1484 1526 1907 1526 
Q 2271 1526 2465 1739 
Q 2659 1953 2659 2334 
Q 2659 3128 1894 3128 
z
" transform="scale(0.015625)"/>
      <path id="FiraCode-Regular-68" d="M 1211 4900 
L 1211 2983 
Q 1415 3253 1712 3390 
Q 2009 3528 2314 3528 
Q 2819 3528 3052 3259 
Q 3285 2990 3285 2511 
L 3285 0 
L 2734 0 
L 2734 2498 
Q 2734 2809 2589 2952 
Q 2445 3095 2137 3095 
Q 1940 3095 1762 3006 
Q 1585 2918 1444 2786 
Q 1303 2655 1211 2517 
L 1211 0 
L 660 0 
L 660 4841 
L 1211 4900 
z
" transform="scale(0.015625)"/>
      <path id="FiraCode-Regular-74" d="M 3404 174 
Q 3226 56 2973 -9 
Q 2721 -75 2478 -75 
Q 1920 -75 1618 217 
Q 1316 509 1316 968 
L 1316 3029 
L 522 3029 
L 522 3456 
L 1316 3456 
L 1316 4240 
L 1868 4306 
L 1868 3456 
L 3062 3456 
L 2997 3029 
L 1868 3029 
L 1868 975 
Q 1868 686 2020 535 
Q 2173 384 2527 384 
Q 2721 384 2885 430 
Q 3049 476 3190 548 
L 3404 174 
z
" transform="scale(0.015625)"/>
      <path id="FiraCode-Regular-28" d="M 1395 2297 
Q 1395 1611 1551 1114 
Q 1707 617 2018 207 
Q 2330 -203 2800 -617 
L 2511 -919 
Q 1979 -486 1600 -29 
Q 1221 427 1019 988 
Q 817 1549 817 2297 
Q 817 3046 1019 3607 
Q 1221 4168 1600 4624 
Q 1979 5081 2511 5514 
L 2800 5212 
Q 2445 4897 2181 4593 
Q 1917 4290 1743 3955 
Q 1569 3620 1482 3216 
Q 1395 2813 1395 2297 
z
" transform="scale(0.015625)"/>
      <path id="FiraCode-Regular-29" d="M 2544 2297 
Q 2544 2813 2457 3216 
Q 2370 3620 2196 3955 
Q 2022 4290 1757 4593 
Q 1493 4897 1139 5212 
L 1428 5514 
Q 1959 5081 2338 4624 
Q 2718 4168 2919 3607 
Q 3121 3046 3121 2297 
Q 3121 1549 2919 988 
Q 2718 427 2338 -29 
Q 1959 -486 1428 -919 
L 1139 -617 
Q 1608 -203 1920 207 
Q 2232 617 2388 1114 
Q 2544 1611 2544 2297 
z
" transform="scale(0.015625)"/>
      <path id="FiraCode-Regular-44" d="M 3627 2281 
Q 3627 1572 3443 1124 
Q 3259 676 2957 431 
Q 2655 187 2295 93 
Q 1936 0 1585 0 
L 548 0 
L 548 4519 
L 1513 4519 
Q 1910 4519 2286 4430 
Q 2662 4342 2965 4104 
Q 3269 3866 3448 3426 
Q 3627 2987 3627 2281 
z
M 3020 2281 
Q 3020 2872 2895 3226 
Q 2770 3581 2566 3758 
Q 2363 3935 2122 3994 
Q 1881 4053 1648 4053 
L 1116 4053 
L 1116 456 
L 1654 456 
Q 1897 456 2140 533 
Q 2383 610 2581 807 
Q 2780 1004 2900 1362 
Q 3020 1720 3020 2281 
z
" transform="scale(0.015625)"/>
      <path id="FiraCode-Regular-73" d="M 1835 381 
Q 2235 381 2465 528 
Q 2695 676 2695 929 
Q 2695 1083 2637 1198 
Q 2580 1313 2402 1406 
Q 2225 1500 1858 1592 
Q 1500 1680 1236 1796 
Q 972 1913 825 2100 
Q 679 2288 679 2586 
Q 679 3023 1043 3275 
Q 1408 3528 1992 3528 
Q 2409 3528 2719 3416 
Q 3029 3305 3246 3147 
L 3003 2773 
Q 2809 2908 2571 2995 
Q 2334 3082 1999 3082 
Q 1592 3082 1421 2955 
Q 1251 2829 1251 2629 
Q 1251 2475 1334 2374 
Q 1418 2274 1618 2195 
Q 1818 2117 2169 2022 
Q 2508 1930 2760 1805 
Q 3013 1680 3152 1478 
Q 3292 1277 3292 955 
Q 3292 587 3082 359 
Q 2872 131 2539 28 
Q 2206 -75 1835 -75 
Q 1365 -75 1035 61 
Q 706 197 483 391 
L 798 755 
Q 1001 587 1265 484 
Q 1529 381 1835 381 
z
" transform="scale(0.015625)"/>
      <path id="FiraCode-Regular-62" d="M 1211 3006 
Q 1398 3256 1649 3392 
Q 1900 3528 2196 3528 
Q 2659 3528 2944 3305 
Q 3230 3082 3361 2676 
Q 3492 2271 3492 1730 
Q 3492 1208 3336 799 
Q 3180 391 2875 158 
Q 2570 -75 2124 -75 
Q 1523 -75 1182 358 
L 1142 0 
L 660 0 
L 660 4848 
L 1211 4917 
L 1211 3006 
z
M 1992 371 
Q 2425 371 2658 705 
Q 2892 1040 2892 1733 
Q 2892 3085 2078 3085 
Q 1789 3085 1569 2913 
Q 1349 2741 1211 2530 
L 1211 817 
Q 1346 610 1551 490 
Q 1756 371 1992 371 
z
" transform="scale(0.015625)"/>
      <path id="FiraCode-Regular-6e" d="M 660 0 
L 660 3456 
L 1129 3456 
L 1172 2977 
Q 1382 3243 1697 3385 
Q 2012 3528 2314 3528 
Q 2823 3528 3054 3259 
Q 3285 2990 3285 2511 
L 3285 0 
L 2734 0 
L 2734 2104 
Q 2734 2458 2694 2674 
Q 2655 2891 2529 2993 
Q 2403 3095 2143 3095 
Q 1940 3095 1761 3006 
Q 1582 2918 1442 2785 
Q 1303 2652 1211 2517 
L 1211 0 
L 660 0 
z
" transform="scale(0.015625)"/>
     </defs>
     <use xlink:href="#FiraCode-Regular-4d"/>
     <use xlink:href="#FiraCode-Regular-6f" transform="translate(61.538452 0)"/>
     <use xlink:href="#FiraCode-Regular-6c" transform="translate(123.076904 0)"/>
     <use xlink:href="#FiraCode-Regular-65" transform="translate(184.615356 0)"/>
     <use xlink:href="#FiraCode-Regular-63" transform="translate(246.153809 0)"/>
     <use xlink:href="#FiraCode-Regular-75" transform="translate(307.692261 0)"/>
     <use xlink:href="#FiraCode-Regular-6c" transform="translate(369.230713 0)"/>
     <use xlink:href="#FiraCode-Regular-61" transform="translate(430.769165 0)"/>
     <use xlink:href="#FiraCode-Regular-72" transform="translate(492.307617 0)"/>
     <use xlink:href="#FiraCode-Regular-20" transform="translate(553.846069 0)"/>
     <use xlink:href="#FiraCode-Regular-57" transform="translate(615.384521 0)"/>
     <use xlink:href="#FiraCode-Regular-65" transform="translate(676.922974 0)"/>
     <use xlink:href="#FiraCode-Regular-69" transform="translate(738.461426 0)"/>
     <use xlink:href="#FiraCode-Regular-67" transform="translate(799.999878 0)"/>
     <use xlink:href="#FiraCode-Regular-68" transform="translate(861.53833 0)"/>
     <use xlink:href="#FiraCode-Regular-74" transform="translate(923.076782 0)"/>
     <use xlink:href="#FiraCode-Regular-20" transform="translate(984.615234 0)"/>
     <use xlink:href="#FiraCode-Regular-28" transform="translate(1046.153687 0)"/>
     <use xlink:href="#FiraCode-Regular-4d" transform="translate(1107.692139 0)"/>
     <use xlink:href="#FiraCode-Regular-57" transform="translate(1169.230591 0)"/>
     <use xlink:href="#FiraCode-Regular-29" transform="translate(1230.769043 0)"/>
     <use xlink:href="#FiraCode-Regular-20" transform="translate(1292.307495 0)"/>
     <use xlink:href="#FiraCode-Regular-44" transform="translate(1353.845947 0)"/>
     <use xlink:href="#FiraCode-Regular-69" transform="translate(1415.384399 0)"/>
     <use xlink:href="#FiraCode-Regular-73" transform="translate(1476.922852 0)"/>
     <use xlink:href="#FiraCode-Regular-74" transform="translate(1538.461304 0)"/>
     <use xlink:href="#FiraCode-Regular-72" transform="translate(1599.999756 0)"/>
     <use xlink:href="#FiraCode-Regular-69" transform="translate(1661.538208 0)"/>
     <use xlink:href="#FiraCode-Regular-62" transform="translate(1723.07666 0)"/>
     <use xlink:href="#FiraCode-Regular-75" transform="translate(1784.615112 0)"/>
     <use xlink:href="#FiraCode-Regular-74" transform="translate(1846.153564 0)"/>
     <use xlink:href="#FiraCode-Regular-69" transform="translate(1907.692017 0)"/>
     <use xlink:href="#FiraCode-Regular-6f" transform="translate(1969.230469 0)"/>
     <use xlink:href="#FiraCode-Regular-6e" transform="translate(2030.768921 0)"/>
    </g>
   </g>
  </g>
  <g id="axes_2">
   <g id="patch_27">
    <path d="M 402.23 260.12 
L 710.01 260.12 
L 710.01 26.925 
L 402.23 26.925 
z
" style="fill: #ffffff"/>
   </g>
   <g id="matplotlib.axis_3">
    <g id="xtick_6">
     <g id="line2d_15">
      <path d="M 416.22 260.12 
L 416.22 26.925 
" clip-path="url(#p2617c5b51a)" style="fill: none; stroke: #cccccc; stroke-width: 0.8; stroke-linecap: round"/>
     </g>
     <g id="text_16">
      <!-- 0 -->
      <g style="fill: #262626" transform="translate(413.439531 274.277812) scale(0.1 -0.1)">
       <use xlink:href="#ArialMT-30"/>
      </g>
     </g>
    </g>
    <g id="xtick_7">
     <g id="line2d_16">
      <path d="M 478.397778 260.12 
L 478.397778 26.925 
" clip-path="url(#p2617c5b51a)" style="fill: none; stroke: #cccccc; stroke-width: 0.8; stroke-linecap: round"/>
     </g>
     <g id="text_17">
      <!-- 2 -->
      <g style="fill: #262626" transform="translate(475.617309 274.277812) scale(0.1 -0.1)">
       <use xlink:href="#ArialMT-32"/>
      </g>
     </g>
    </g>
    <g id="xtick_8">
     <g id="line2d_17">
      <path d="M 540.575556 260.12 
L 540.575556 26.925 
" clip-path="url(#p2617c5b51a)" style="fill: none; stroke: #cccccc; stroke-width: 0.8; stroke-linecap: round"/>
     </g>
     <g id="text_18">
      <!-- 4 -->
      <g style="fill: #262626" transform="translate(537.795087 274.277812) scale(0.1 -0.1)">
       <use xlink:href="#ArialMT-34"/>
      </g>
     </g>
    </g>
    <g id="xtick_9">
     <g id="line2d_18">
      <path d="M 602.753333 260.12 
L 602.753333 26.925 
" clip-path="url(#p2617c5b51a)" style="fill: none; stroke: #cccccc; stroke-width: 0.8; stroke-linecap: round"/>
     </g>
     <g id="text_19">
      <!-- 6 -->
      <g style="fill: #262626" transform="translate(599.972865 274.277812) scale(0.1 -0.1)">
       <use xlink:href="#ArialMT-36"/>
      </g>
     </g>
    </g>
    <g id="xtick_10">
     <g id="line2d_19">
      <path d="M 664.931111 260.12 
L 664.931111 26.925 
" clip-path="url(#p2617c5b51a)" style="fill: none; stroke: #cccccc; stroke-width: 0.8; stroke-linecap: round"/>
     </g>
     <g id="text_20">
      <!-- 8 -->
      <g style="fill: #262626" transform="translate(662.150642 274.277812) scale(0.1 -0.1)">
       <use xlink:href="#ArialMT-38"/>
      </g>
     </g>
    </g>
   </g>
   <g id="matplotlib.axis_4">
    <g id="ytick_9">
     <g id="line2d_20">
      <path d="M 402.23 260.12 
L 710.01 260.12 
" clip-path="url(#p2617c5b51a)" style="fill: none; stroke: #cccccc; stroke-width: 0.8; stroke-linecap: round"/>
     </g>
     <g id="text_21">
      <!-- 0 -->
      <g style="fill: #262626" transform="translate(389.669062 263.698906) scale(0.1 -0.1)">
       <use xlink:href="#ArialMT-30"/>
      </g>
     </g>
    </g>
    <g id="ytick_10">
     <g id="line2d_21">
      <path d="M 402.23 215.701905 
L 710.01 215.701905 
" clip-path="url(#p2617c5b51a)" style="fill: none; stroke: #cccccc; stroke-width: 0.8; stroke-linecap: round"/>
     </g>
     <g id="text_22">
      <!-- 5 -->
      <g style="fill: #262626" transform="translate(389.669062 219.280811) scale(0.1 -0.1)">
       <use xlink:href="#ArialMT-35"/>
      </g>
     </g>
    </g>
    <g id="ytick_11">
     <g id="line2d_22">
      <path d="M 402.23 171.28381 
L 710.01 171.28381 
" clip-path="url(#p2617c5b51a)" style="fill: none; stroke: #cccccc; stroke-width: 0.8; stroke-linecap: round"/>
     </g>
     <g id="text_23">
      <!-- 10 -->
      <g style="fill: #262626" transform="translate(384.108125 174.862716) scale(0.1 -0.1)">
       <use xlink:href="#ArialMT-31"/>
       <use xlink:href="#ArialMT-30" transform="translate(55.615234 0)"/>
      </g>
     </g>
    </g>
    <g id="ytick_12">
     <g id="line2d_23">
      <path d="M 402.23 126.865714 
L 710.01 126.865714 
" clip-path="url(#p2617c5b51a)" style="fill: none; stroke: #cccccc; stroke-width: 0.8; stroke-linecap: round"/>
     </g>
     <g id="text_24">
      <!-- 15 -->
      <g style="fill: #262626" transform="translate(384.108125 130.444621) scale(0.1 -0.1)">
       <use xlink:href="#ArialMT-31"/>
       <use xlink:href="#ArialMT-35" transform="translate(55.615234 0)"/>
      </g>
     </g>
    </g>
    <g id="ytick_13">
     <g id="line2d_24">
      <path d="M 402.23 82.447619 
L 710.01 82.447619 
" clip-path="url(#p2617c5b51a)" style="fill: none; stroke: #cccccc; stroke-width: 0.8; stroke-linecap: round"/>
     </g>
     <g id="text_25">
      <!-- 20 -->
      <g style="fill: #262626" transform="translate(384.108125 86.026525) scale(0.1 -0.1)">
       <use xlink:href="#ArialMT-32"/>
       <use xlink:href="#ArialMT-30" transform="translate(55.615234 0)"/>
      </g>
     </g>
    </g>
    <g id="ytick_14">
     <g id="line2d_25">
      <path d="M 402.23 38.029524 
L 710.01 38.029524 
" clip-path="url(#p2617c5b51a)" style="fill: none; stroke: #cccccc; stroke-width: 0.8; stroke-linecap: round"/>
     </g>
     <g id="text_26">
      <!-- 25 -->
      <g style="fill: #262626" transform="translate(384.108125 41.60843) scale(0.1 -0.1)">
       <use xlink:href="#ArialMT-32"/>
       <use xlink:href="#ArialMT-35" transform="translate(55.615234 0)"/>
      </g>
     </g>
    </g>
    <g id="text_27">
     <!-- Count -->
     <g style="fill: #262626" transform="translate(378.120625 156.863906) rotate(-90) scale(0.1 -0.1)">
      <use xlink:href="#ArialMT-43"/>
      <use xlink:href="#ArialMT-6f" transform="translate(72.216797 0)"/>
      <use xlink:href="#ArialMT-75" transform="translate(127.832031 0)"/>
      <use xlink:href="#ArialMT-6e" transform="translate(183.447266 0)"/>
      <use xlink:href="#ArialMT-74" transform="translate(239.0625 0)"/>
     </g>
    </g>
   </g>
   <g id="patch_28">
    <path d="M 416.22 260.12 
L 444.2 260.12 
L 444.2 38.029524 
L 416.22 38.029524 
z
" clip-path="url(#p2617c5b51a)" style="fill: #fdc422; fill-opacity: 0.5; stroke: #ffffff; stroke-linejoin: miter"/>
   </g>
   <g id="patch_29">
    <path d="M 444.2 260.12 
L 472.18 260.12 
L 472.18 117.982095 
L 444.2 117.982095 
z
" clip-path="url(#p2617c5b51a)" style="fill: #fdc422; fill-opacity: 0.5; stroke: #ffffff; stroke-linejoin: miter"/>
   </g>
   <g id="patch_30">
    <path d="M 472.18 260.12 
L 500.16 260.12 
L 500.16 64.680381 
L 472.18 64.680381 
z
" clip-path="url(#p2617c5b51a)" style="fill: #fdc422; fill-opacity: 0.5; stroke: #ffffff; stroke-linejoin: miter"/>
   </g>
   <g id="patch_31">
    <path d="M 500.16 260.12 
L 528.14 260.12 
L 528.14 82.447619 
L 500.16 82.447619 
z
" clip-path="url(#p2617c5b51a)" style="fill: #fdc422; fill-opacity: 0.5; stroke: #ffffff; stroke-linejoin: miter"/>
   </g>
   <g id="patch_32">
    <path d="M 528.14 260.12 
L 556.12 260.12 
L 556.12 64.680381 
L 528.14 64.680381 
z
" clip-path="url(#p2617c5b51a)" style="fill: #fdc422; fill-opacity: 0.5; stroke: #ffffff; stroke-linejoin: miter"/>
   </g>
   <g id="patch_33">
    <path d="M 556.12 260.12 
L 584.1 260.12 
L 584.1 73.564 
L 556.12 73.564 
z
" clip-path="url(#p2617c5b51a)" style="fill: #fdc422; fill-opacity: 0.5; stroke: #ffffff; stroke-linejoin: miter"/>
   </g>
   <g id="patch_34">
    <path d="M 584.1 260.12 
L 612.08 260.12 
L 612.08 100.214857 
L 584.1 100.214857 
z
" clip-path="url(#p2617c5b51a)" style="fill: #fdc422; fill-opacity: 0.5; stroke: #ffffff; stroke-linejoin: miter"/>
   </g>
   <g id="patch_35">
    <path d="M 612.08 260.12 
L 640.06 260.12 
L 640.06 91.331238 
L 612.08 91.331238 
z
" clip-path="url(#p2617c5b51a)" style="fill: #fdc422; fill-opacity: 0.5; stroke: #ffffff; stroke-linejoin: miter"/>
   </g>
   <g id="patch_36">
    <path d="M 640.06 260.12 
L 668.04 260.12 
L 668.04 153.516571 
L 640.06 153.516571 
z
" clip-path="url(#p2617c5b51a)" style="fill: #fdc422; fill-opacity: 0.5; stroke: #ffffff; stroke-linejoin: miter"/>
   </g>
   <g id="patch_37">
    <path d="M 668.04 260.12 
L 696.02 260.12 
L 696.02 38.029524 
L 668.04 38.029524 
z
" clip-path="url(#p2617c5b51a)" style="fill: #fdc422; fill-opacity: 0.5; stroke: #ffffff; stroke-linejoin: miter"/>
   </g>
   <g id="line2d_26">
    <path d="M 416.22 139.836175 
L 419.03206 135.334205 
L 421.844121 131.199885 
L 424.656181 127.439826 
L 427.468241 124.051475 
L 430.280302 121.023862 
L 433.092362 118.338667 
L 435.904422 115.971537 
L 438.716482 113.893568 
L 441.528543 112.072861 
L 444.340603 110.476079 
L 447.152663 109.0699 
L 451.370754 107.248652 
L 455.588844 105.687866 
L 461.212965 103.877874 
L 468.243116 101.87708 
L 476.679296 99.709009 
L 485.115477 97.769864 
L 492.145628 96.359039 
L 499.175779 95.152209 
L 506.20593 94.144312 
L 514.642111 93.178402 
L 521.672261 92.576357 
L 528.702412 92.189473 
L 534.326533 92.073338 
L 539.950653 92.169118 
L 545.574774 92.513093 
L 551.198894 93.133304 
L 556.823015 94.043621 
L 562.447136 95.240319 
L 568.071256 96.701765 
L 573.695377 98.391245 
L 580.725528 100.752686 
L 589.161709 103.827816 
L 604.62804 109.757794 
L 627.124523 118.37834 
L 634.154673 120.845117 
L 639.778794 122.622306 
L 645.402915 124.175174 
L 651.027035 125.496169 
L 659.463216 127.186154 
L 665.087337 128.35089 
L 669.305427 129.421919 
L 672.117487 130.303576 
L 674.929548 131.369045 
L 677.741608 132.661443 
L 680.553668 134.222405 
L 683.365729 136.090242 
L 686.177789 138.298111 
L 688.989849 140.872299 
L 691.80191 143.830741 
L 694.61397 147.181826 
L 696.02 149.004415 
L 696.02 149.004415 
" clip-path="url(#p2617c5b51a)" style="fill: none; stroke: #fdc422; stroke-width: 1.5; stroke-linecap: round"/>
   </g>
   <g id="patch_38">
    <path d="M 402.23 260.12 
L 402.23 26.925 
" style="fill: none; stroke: #cccccc; stroke-width: 0.8; stroke-linejoin: miter; stroke-linecap: square"/>
   </g>
   <g id="patch_39">
    <path d="M 710.01 260.12 
L 710.01 26.925 
" style="fill: none; stroke: #cccccc; stroke-width: 0.8; stroke-linejoin: miter; stroke-linecap: square"/>
   </g>
   <g id="patch_40">
    <path d="M 402.23 260.12 
L 710.01 260.12 
" style="fill: none; stroke: #cccccc; stroke-width: 0.8; stroke-linejoin: miter; stroke-linecap: square"/>
   </g>
   <g id="patch_41">
    <path d="M 402.23 26.925 
L 710.01 26.925 
" style="fill: none; stroke: #cccccc; stroke-width: 0.8; stroke-linejoin: miter; stroke-linecap: square"/>
   </g>
   <g id="text_28">
    <!-- NHBA Distribution -->
    <g style="fill: #262626" transform="translate(493.342188 20.925) scale(0.12 -0.12)">
     <defs>
      <path id="FiraCode-Regular-4e" d="M 2593 0 
L 1001 3975 
Q 1004 3876 1024 3602 
Q 1044 3328 1060 2972 
Q 1077 2616 1077 2265 
L 1077 0 
L 548 0 
L 548 4519 
L 1319 4519 
L 2937 528 
Q 2934 624 2914 878 
Q 2895 1132 2878 1491 
Q 2862 1851 2862 2258 
L 2862 4519 
L 3390 4519 
L 3390 0 
L 2593 0 
z
" transform="scale(0.015625)"/>
      <path id="FiraCode-Regular-48" d="M 2823 0 
L 2823 2143 
L 1116 2143 
L 1116 0 
L 548 0 
L 548 4519 
L 1116 4519 
L 1116 2609 
L 2823 2609 
L 2823 4519 
L 3390 4519 
L 3390 0 
L 2823 0 
z
" transform="scale(0.015625)"/>
      <path id="FiraCode-Regular-42" d="M 3541 1290 
Q 3541 919 3395 671 
Q 3249 423 3004 275 
Q 2760 128 2460 64 
Q 2160 0 1848 0 
L 633 0 
L 633 4519 
L 1746 4519 
Q 2041 4519 2327 4465 
Q 2613 4411 2842 4281 
Q 3072 4152 3208 3932 
Q 3344 3712 3344 3381 
Q 3344 3088 3224 2886 
Q 3105 2685 2913 2563 
Q 2721 2442 2504 2393 
Q 2754 2350 2992 2236 
Q 3230 2123 3385 1897 
Q 3541 1671 3541 1290 
z
M 2760 3351 
Q 2760 3735 2522 3897 
Q 2284 4060 1874 4060 
L 1201 4060 
L 1201 2596 
L 1930 2596 
Q 2330 2596 2545 2775 
Q 2760 2954 2760 3351 
z
M 2941 1270 
Q 2941 1611 2808 1796 
Q 2675 1982 2455 2054 
Q 2235 2127 1973 2127 
L 1201 2127 
L 1201 469 
L 1946 469 
Q 2169 469 2399 530 
Q 2629 591 2785 763 
Q 2941 935 2941 1270 
z
" transform="scale(0.015625)"/>
      <path id="FiraCode-Regular-41" d="M 2846 1152 
L 1057 1152 
L 696 0 
L 135 0 
L 1605 4519 
L 2334 4519 
L 3804 0 
L 3207 0 
L 2846 1152 
z
M 1205 1625 
L 2698 1625 
L 1956 4040 
L 1205 1625 
z
" transform="scale(0.015625)"/>
     </defs>
     <use xlink:href="#FiraCode-Regular-4e"/>
     <use xlink:href="#FiraCode-Regular-48" transform="translate(61.538452 0)"/>
     <use xlink:href="#FiraCode-Regular-42" transform="translate(123.076904 0)"/>
     <use xlink:href="#FiraCode-Regular-41" transform="translate(184.615356 0)"/>
     <use xlink:href="#FiraCode-Regular-20" transform="translate(246.153809 0)"/>
     <use xlink:href="#FiraCode-Regular-44" transform="translate(307.692261 0)"/>
     <use xlink:href="#FiraCode-Regular-69" transform="translate(369.230713 0)"/>
     <use xlink:href="#FiraCode-Regular-73" transform="translate(430.769165 0)"/>
     <use xlink:href="#FiraCode-Regular-74" transform="translate(492.307617 0)"/>
     <use xlink:href="#FiraCode-Regular-72" transform="translate(553.846069 0)"/>
     <use xlink:href="#FiraCode-Regular-69" transform="translate(615.384521 0)"/>
     <use xlink:href="#FiraCode-Regular-62" transform="translate(676.922974 0)"/>
     <use xlink:href="#FiraCode-Regular-75" transform="translate(738.461426 0)"/>
     <use xlink:href="#FiraCode-Regular-74" transform="translate(799.999878 0)"/>
     <use xlink:href="#FiraCode-Regular-69" transform="translate(861.53833 0)"/>
     <use xlink:href="#FiraCode-Regular-6f" transform="translate(923.076782 0)"/>
     <use xlink:href="#FiraCode-Regular-6e" transform="translate(984.615234 0)"/>
    </g>
   </g>
  </g>
  <g id="axes_3">
   <g id="patch_42">
    <path d="M 761.42 260.12 
L 1069.2 260.12 
L 1069.2 26.925 
L 761.42 26.925 
z
" style="fill: #ffffff"/>
   </g>
   <g id="matplotlib.axis_5">
    <g id="xtick_11">
     <g id="line2d_27">
      <path d="M 769.937369 260.12 
L 769.937369 26.925 
" clip-path="url(#p0621d29d08)" style="fill: none; stroke: #cccccc; stroke-width: 0.8; stroke-linecap: round"/>
     </g>
     <g id="text_29">
      <!-- 2 -->
      <g style="fill: #262626" transform="translate(764.236587 274.277812) scale(0.1 -0.1)">
       <defs>
        <path id="ArialMT-2212" d="M 3381 1997 
L 356 1997 
L 356 2522 
L 3381 2522 
L 3381 1997 
z
" transform="scale(0.015625)"/>
       </defs>
       <use xlink:href="#ArialMT-2212"/>
       <use xlink:href="#ArialMT-32" transform="translate(58.398438 0)"/>
      </g>
     </g>
    </g>
    <g id="xtick_12">
     <g id="line2d_28">
      <path d="M 807.482172 260.12 
L 807.482172 26.925 
" clip-path="url(#p0621d29d08)" style="fill: none; stroke: #cccccc; stroke-width: 0.8; stroke-linecap: round"/>
     </g>
     <g id="text_30">
      <!-- 0 -->
      <g style="fill: #262626" transform="translate(804.701703 274.277812) scale(0.1 -0.1)">
       <use xlink:href="#ArialMT-30"/>
      </g>
     </g>
    </g>
    <g id="xtick_13">
     <g id="line2d_29">
      <path d="M 845.026976 260.12 
L 845.026976 26.925 
" clip-path="url(#p0621d29d08)" style="fill: none; stroke: #cccccc; stroke-width: 0.8; stroke-linecap: round"/>
     </g>
     <g id="text_31">
      <!-- 2 -->
      <g style="fill: #262626" transform="translate(842.246507 274.277812) scale(0.1 -0.1)">
       <use xlink:href="#ArialMT-32"/>
      </g>
     </g>
    </g>
    <g id="xtick_14">
     <g id="line2d_30">
      <path d="M 882.571779 260.12 
L 882.571779 26.925 
" clip-path="url(#p0621d29d08)" style="fill: none; stroke: #cccccc; stroke-width: 0.8; stroke-linecap: round"/>
     </g>
     <g id="text_32">
      <!-- 4 -->
      <g style="fill: #262626" transform="translate(879.79131 274.277812) scale(0.1 -0.1)">
       <use xlink:href="#ArialMT-34"/>
      </g>
     </g>
    </g>
    <g id="xtick_15">
     <g id="line2d_31">
      <path d="M 920.116583 260.12 
L 920.116583 26.925 
" clip-path="url(#p0621d29d08)" style="fill: none; stroke: #cccccc; stroke-width: 0.8; stroke-linecap: round"/>
     </g>
     <g id="text_33">
      <!-- 6 -->
      <g style="fill: #262626" transform="translate(917.336114 274.277812) scale(0.1 -0.1)">
       <use xlink:href="#ArialMT-36"/>
      </g>
     </g>
    </g>
    <g id="xtick_16">
     <g id="line2d_32">
      <path d="M 957.661386 260.12 
L 957.661386 26.925 
" clip-path="url(#p0621d29d08)" style="fill: none; stroke: #cccccc; stroke-width: 0.8; stroke-linecap: round"/>
     </g>
     <g id="text_34">
      <!-- 8 -->
      <g style="fill: #262626" transform="translate(954.880917 274.277812) scale(0.1 -0.1)">
       <use xlink:href="#ArialMT-38"/>
      </g>
     </g>
    </g>
    <g id="xtick_17">
     <g id="line2d_33">
      <path d="M 995.20619 260.12 
L 995.20619 26.925 
" clip-path="url(#p0621d29d08)" style="fill: none; stroke: #cccccc; stroke-width: 0.8; stroke-linecap: round"/>
     </g>
     <g id="text_35">
      <!-- 10 -->
      <g style="fill: #262626" transform="translate(989.645252 274.277812) scale(0.1 -0.1)">
       <use xlink:href="#ArialMT-31"/>
       <use xlink:href="#ArialMT-30" transform="translate(55.615234 0)"/>
      </g>
     </g>
    </g>
    <g id="xtick_18">
     <g id="line2d_34">
      <path d="M 1032.750993 260.12 
L 1032.750993 26.925 
" clip-path="url(#p0621d29d08)" style="fill: none; stroke: #cccccc; stroke-width: 0.8; stroke-linecap: round"/>
     </g>
     <g id="text_36">
      <!-- 12 -->
      <g style="fill: #262626" transform="translate(1027.190056 274.277812) scale(0.1 -0.1)">
       <use xlink:href="#ArialMT-31"/>
       <use xlink:href="#ArialMT-32" transform="translate(55.615234 0)"/>
      </g>
     </g>
    </g>
   </g>
   <g id="matplotlib.axis_6">
    <g id="ytick_15">
     <g id="line2d_35">
      <path d="M 761.42 260.12 
L 1069.2 260.12 
" clip-path="url(#p0621d29d08)" style="fill: none; stroke: #cccccc; stroke-width: 0.8; stroke-linecap: round"/>
     </g>
     <g id="text_37">
      <!-- 0.0 -->
      <g style="fill: #262626" transform="translate(740.52 263.698906) scale(0.1 -0.1)">
       <defs>
        <path id="ArialMT-2e" d="M 581 0 
L 581 641 
L 1222 641 
L 1222 0 
L 581 0 
z
" transform="scale(0.015625)"/>
       </defs>
       <use xlink:href="#ArialMT-30"/>
       <use xlink:href="#ArialMT-2e" transform="translate(55.615234 0)"/>
       <use xlink:href="#ArialMT-30" transform="translate(83.398438 0)"/>
      </g>
     </g>
    </g>
    <g id="ytick_16">
     <g id="line2d_36">
      <path d="M 761.42 233.680658 
L 1069.2 233.680658 
" clip-path="url(#p0621d29d08)" style="fill: none; stroke: #cccccc; stroke-width: 0.8; stroke-linecap: round"/>
     </g>
     <g id="text_38">
      <!-- 2.5 -->
      <g style="fill: #262626" transform="translate(740.52 237.259564) scale(0.1 -0.1)">
       <use xlink:href="#ArialMT-32"/>
       <use xlink:href="#ArialMT-2e" transform="translate(55.615234 0)"/>
       <use xlink:href="#ArialMT-35" transform="translate(83.398438 0)"/>
      </g>
     </g>
    </g>
    <g id="ytick_17">
     <g id="line2d_37">
      <path d="M 761.42 207.241315 
L 1069.2 207.241315 
" clip-path="url(#p0621d29d08)" style="fill: none; stroke: #cccccc; stroke-width: 0.8; stroke-linecap: round"/>
     </g>
     <g id="text_39">
      <!-- 5.0 -->
      <g style="fill: #262626" transform="translate(740.52 210.820221) scale(0.1 -0.1)">
       <use xlink:href="#ArialMT-35"/>
       <use xlink:href="#ArialMT-2e" transform="translate(55.615234 0)"/>
       <use xlink:href="#ArialMT-30" transform="translate(83.398438 0)"/>
      </g>
     </g>
    </g>
    <g id="ytick_18">
     <g id="line2d_38">
      <path d="M 761.42 180.801973 
L 1069.2 180.801973 
" clip-path="url(#p0621d29d08)" style="fill: none; stroke: #cccccc; stroke-width: 0.8; stroke-linecap: round"/>
     </g>
     <g id="text_40">
      <!-- 7.5 -->
      <g style="fill: #262626" transform="translate(740.52 184.380879) scale(0.1 -0.1)">
       <defs>
        <path id="ArialMT-37" d="M 303 3981 
L 303 4522 
L 3269 4522 
L 3269 4084 
Q 2831 3619 2401 2847 
Q 1972 2075 1738 1259 
Q 1569 684 1522 0 
L 944 0 
Q 953 541 1156 1306 
Q 1359 2072 1739 2783 
Q 2119 3494 2547 3981 
L 303 3981 
z
" transform="scale(0.015625)"/>
       </defs>
       <use xlink:href="#ArialMT-37"/>
       <use xlink:href="#ArialMT-2e" transform="translate(55.615234 0)"/>
       <use xlink:href="#ArialMT-35" transform="translate(83.398438 0)"/>
      </g>
     </g>
    </g>
    <g id="ytick_19">
     <g id="line2d_39">
      <path d="M 761.42 154.36263 
L 1069.2 154.36263 
" clip-path="url(#p0621d29d08)" style="fill: none; stroke: #cccccc; stroke-width: 0.8; stroke-linecap: round"/>
     </g>
     <g id="text_41">
      <!-- 10.0 -->
      <g style="fill: #262626" transform="translate(734.959062 157.941537) scale(0.1 -0.1)">
       <use xlink:href="#ArialMT-31"/>
       <use xlink:href="#ArialMT-30" transform="translate(55.615234 0)"/>
       <use xlink:href="#ArialMT-2e" transform="translate(111.230469 0)"/>
       <use xlink:href="#ArialMT-30" transform="translate(139.013672 0)"/>
      </g>
     </g>
    </g>
    <g id="ytick_20">
     <g id="line2d_40">
      <path d="M 761.42 127.923288 
L 1069.2 127.923288 
" clip-path="url(#p0621d29d08)" style="fill: none; stroke: #cccccc; stroke-width: 0.8; stroke-linecap: round"/>
     </g>
     <g id="text_42">
      <!-- 12.5 -->
      <g style="fill: #262626" transform="translate(734.959062 131.502194) scale(0.1 -0.1)">
       <use xlink:href="#ArialMT-31"/>
       <use xlink:href="#ArialMT-32" transform="translate(55.615234 0)"/>
       <use xlink:href="#ArialMT-2e" transform="translate(111.230469 0)"/>
       <use xlink:href="#ArialMT-35" transform="translate(139.013672 0)"/>
      </g>
     </g>
    </g>
    <g id="ytick_21">
     <g id="line2d_41">
      <path d="M 761.42 101.483946 
L 1069.2 101.483946 
" clip-path="url(#p0621d29d08)" style="fill: none; stroke: #cccccc; stroke-width: 0.8; stroke-linecap: round"/>
     </g>
     <g id="text_43">
      <!-- 15.0 -->
      <g style="fill: #262626" transform="translate(734.959062 105.062852) scale(0.1 -0.1)">
       <use xlink:href="#ArialMT-31"/>
       <use xlink:href="#ArialMT-35" transform="translate(55.615234 0)"/>
       <use xlink:href="#ArialMT-2e" transform="translate(111.230469 0)"/>
       <use xlink:href="#ArialMT-30" transform="translate(139.013672 0)"/>
      </g>
     </g>
    </g>
    <g id="ytick_22">
     <g id="line2d_42">
      <path d="M 761.42 75.044603 
L 1069.2 75.044603 
" clip-path="url(#p0621d29d08)" style="fill: none; stroke: #cccccc; stroke-width: 0.8; stroke-linecap: round"/>
     </g>
     <g id="text_44">
      <!-- 17.5 -->
      <g style="fill: #262626" transform="translate(734.959062 78.623509) scale(0.1 -0.1)">
       <use xlink:href="#ArialMT-31"/>
       <use xlink:href="#ArialMT-37" transform="translate(55.615234 0)"/>
       <use xlink:href="#ArialMT-2e" transform="translate(111.230469 0)"/>
       <use xlink:href="#ArialMT-35" transform="translate(139.013672 0)"/>
      </g>
     </g>
    </g>
    <g id="ytick_23">
     <g id="line2d_43">
      <path d="M 761.42 48.605261 
L 1069.2 48.605261 
" clip-path="url(#p0621d29d08)" style="fill: none; stroke: #cccccc; stroke-width: 0.8; stroke-linecap: round"/>
     </g>
     <g id="text_45">
      <!-- 20.0 -->
      <g style="fill: #262626" transform="translate(734.959062 52.184167) scale(0.1 -0.1)">
       <use xlink:href="#ArialMT-32"/>
       <use xlink:href="#ArialMT-30" transform="translate(55.615234 0)"/>
       <use xlink:href="#ArialMT-2e" transform="translate(111.230469 0)"/>
       <use xlink:href="#ArialMT-30" transform="translate(139.013672 0)"/>
      </g>
     </g>
    </g>
    <g id="text_46">
     <!-- Count -->
     <g style="fill: #262626" transform="translate(728.971563 156.863906) rotate(-90) scale(0.1 -0.1)">
      <use xlink:href="#ArialMT-43"/>
      <use xlink:href="#ArialMT-6f" transform="translate(72.216797 0)"/>
      <use xlink:href="#ArialMT-75" transform="translate(127.832031 0)"/>
      <use xlink:href="#ArialMT-6e" transform="translate(183.447266 0)"/>
      <use xlink:href="#ArialMT-74" transform="translate(239.0625 0)"/>
     </g>
    </g>
   </g>
   <g id="patch_43">
    <path d="M 775.41 260.12 
L 789.4 260.12 
L 789.4 238.968526 
L 775.41 238.968526 
z
" clip-path="url(#p0621d29d08)" style="fill: #fc8d62; fill-opacity: 0.5; stroke: #ffffff; stroke-linejoin: miter"/>
   </g>
   <g id="patch_44">
    <path d="M 789.4 260.12 
L 803.39 260.12 
L 803.39 196.665578 
L 789.4 196.665578 
z
" clip-path="url(#p0621d29d08)" style="fill: #fc8d62; fill-opacity: 0.5; stroke: #ffffff; stroke-linejoin: miter"/>
   </g>
   <g id="patch_45">
    <path d="M 803.39 260.12 
L 817.38 260.12 
L 817.38 175.514104 
L 803.39 175.514104 
z
" clip-path="url(#p0621d29d08)" style="fill: #fc8d62; fill-opacity: 0.5; stroke: #ffffff; stroke-linejoin: miter"/>
   </g>
   <g id="patch_46">
    <path d="M 817.38 260.12 
L 831.37 260.12 
L 831.37 164.938367 
L 817.38 164.938367 
z
" clip-path="url(#p0621d29d08)" style="fill: #fc8d62; fill-opacity: 0.5; stroke: #ffffff; stroke-linejoin: miter"/>
   </g>
   <g id="patch_47">
    <path d="M 831.37 260.12 
L 845.36 260.12 
L 845.36 196.665578 
L 831.37 196.665578 
z
" clip-path="url(#p0621d29d08)" style="fill: #fc8d62; fill-opacity: 0.5; stroke: #ffffff; stroke-linejoin: miter"/>
   </g>
   <g id="patch_48">
    <path d="M 845.36 260.12 
L 859.35 260.12 
L 859.35 59.180998 
L 845.36 59.180998 
z
" clip-path="url(#p0621d29d08)" style="fill: #fc8d62; fill-opacity: 0.5; stroke: #ffffff; stroke-linejoin: miter"/>
   </g>
   <g id="patch_49">
    <path d="M 859.35 260.12 
L 873.34 260.12 
L 873.34 38.029524 
L 859.35 38.029524 
z
" clip-path="url(#p0621d29d08)" style="fill: #fc8d62; fill-opacity: 0.5; stroke: #ffffff; stroke-linejoin: miter"/>
   </g>
   <g id="patch_50">
    <path d="M 873.34 260.12 
L 887.33 260.12 
L 887.33 122.63542 
L 873.34 122.63542 
z
" clip-path="url(#p0621d29d08)" style="fill: #fc8d62; fill-opacity: 0.5; stroke: #ffffff; stroke-linejoin: miter"/>
   </g>
   <g id="patch_51">
    <path d="M 887.33 260.12 
L 901.32 260.12 
L 901.32 101.483946 
L 887.33 101.483946 
z
" clip-path="url(#p0621d29d08)" style="fill: #fc8d62; fill-opacity: 0.5; stroke: #ffffff; stroke-linejoin: miter"/>
   </g>
   <g id="patch_52">
    <path d="M 901.32 260.12 
L 915.31 260.12 
L 915.31 101.483946 
L 901.32 101.483946 
z
" clip-path="url(#p0621d29d08)" style="fill: #fc8d62; fill-opacity: 0.5; stroke: #ffffff; stroke-linejoin: miter"/>
   </g>
   <g id="patch_53">
    <path d="M 915.31 260.12 
L 929.3 260.12 
L 929.3 101.483946 
L 915.31 101.483946 
z
" clip-path="url(#p0621d29d08)" style="fill: #fc8d62; fill-opacity: 0.5; stroke: #ffffff; stroke-linejoin: miter"/>
   </g>
   <g id="patch_54">
    <path d="M 929.3 260.12 
L 943.29 260.12 
L 943.29 143.786893 
L 929.3 143.786893 
z
" clip-path="url(#p0621d29d08)" style="fill: #fc8d62; fill-opacity: 0.5; stroke: #ffffff; stroke-linejoin: miter"/>
   </g>
   <g id="patch_55">
    <path d="M 943.29 260.12 
L 957.28 260.12 
L 957.28 122.63542 
L 943.29 122.63542 
z
" clip-path="url(#p0621d29d08)" style="fill: #fc8d62; fill-opacity: 0.5; stroke: #ffffff; stroke-linejoin: miter"/>
   </g>
   <g id="patch_56">
    <path d="M 957.28 260.12 
L 971.27 260.12 
L 971.27 154.36263 
L 957.28 154.36263 
z
" clip-path="url(#p0621d29d08)" style="fill: #fc8d62; fill-opacity: 0.5; stroke: #ffffff; stroke-linejoin: miter"/>
   </g>
   <g id="patch_57">
    <path d="M 971.27 260.12 
L 985.26 260.12 
L 985.26 122.63542 
L 971.27 122.63542 
z
" clip-path="url(#p0621d29d08)" style="fill: #fc8d62; fill-opacity: 0.5; stroke: #ffffff; stroke-linejoin: miter"/>
   </g>
   <g id="patch_58">
    <path d="M 985.26 260.12 
L 999.25 260.12 
L 999.25 133.211156 
L 985.26 133.211156 
z
" clip-path="url(#p0621d29d08)" style="fill: #fc8d62; fill-opacity: 0.5; stroke: #ffffff; stroke-linejoin: miter"/>
   </g>
   <g id="patch_59">
    <path d="M 999.25 260.12 
L 1013.24 260.12 
L 1013.24 207.241315 
L 999.25 207.241315 
z
" clip-path="url(#p0621d29d08)" style="fill: #fc8d62; fill-opacity: 0.5; stroke: #ffffff; stroke-linejoin: miter"/>
   </g>
   <g id="patch_60">
    <path d="M 1013.24 260.12 
L 1027.23 260.12 
L 1027.23 228.392789 
L 1013.24 228.392789 
z
" clip-path="url(#p0621d29d08)" style="fill: #fc8d62; fill-opacity: 0.5; stroke: #ffffff; stroke-linejoin: miter"/>
   </g>
   <g id="patch_61">
    <path d="M 1027.23 260.12 
L 1041.22 260.12 
L 1041.22 238.968526 
L 1027.23 238.968526 
z
" clip-path="url(#p0621d29d08)" style="fill: #fc8d62; fill-opacity: 0.5; stroke: #ffffff; stroke-linejoin: miter"/>
   </g>
   <g id="patch_62">
    <path d="M 1041.22 260.12 
L 1055.21 260.12 
L 1055.21 238.968526 
L 1041.22 238.968526 
z
" clip-path="url(#p0621d29d08)" style="fill: #fc8d62; fill-opacity: 0.5; stroke: #ffffff; stroke-linejoin: miter"/>
   </g>
   <g id="line2d_44">
    <path d="M 775.41 238.425064 
L 778.22206 234.947422 
L 781.034121 231.184833 
L 785.252211 225.070856 
L 789.470302 218.511512 
L 796.500452 207.02976 
L 804.936633 193.243346 
L 811.966784 182.247152 
L 824.621055 162.786613 
L 828.839146 155.833555 
L 833.057236 148.428592 
L 837.275327 140.560743 
L 844.305477 126.788313 
L 849.929598 115.93202 
L 852.741658 110.85936 
L 855.553719 106.174306 
L 858.365779 101.975555 
L 861.177839 98.340872 
L 863.989899 95.321469 
L 865.39593 94.050466 
L 866.80196 92.939111 
L 868.20799 91.985542 
L 869.61402 91.186237 
L 871.02005 90.536168 
L 872.42608 90.028992 
L 873.832111 89.657268 
L 875.238141 89.412695 
L 878.050201 89.268979 
L 880.862261 89.523645 
L 883.674322 90.104221 
L 886.486382 90.946325 
L 889.298442 91.998133 
L 893.516533 93.89194 
L 897.734623 96.111582 
L 901.952714 98.643802 
L 906.170804 101.49623 
L 910.388894 104.66485 
L 914.606985 108.111436 
L 921.637136 114.243172 
L 928.667286 120.386404 
L 932.885377 123.851225 
L 937.103467 127.041671 
L 941.321558 129.906392 
L 945.539648 132.426247 
L 949.757739 134.612102 
L 953.975829 136.505248 
L 959.59995 138.71192 
L 966.630101 141.403901 
L 969.442161 142.63533 
L 972.254221 144.053296 
L 975.066281 145.726396 
L 977.878342 147.719935 
L 980.690402 150.090987 
L 983.502462 152.883531 
L 986.314523 156.12422 
L 989.126583 159.819285 
L 991.938643 163.952944 
L 994.750704 168.487533 
L 997.562764 173.365379 
L 1001.780854 181.159872 
L 1014.435126 205.148764 
L 1018.653216 212.404265 
L 1021.465276 216.859075 
L 1024.277337 220.973801 
L 1027.089397 224.73706 
L 1029.901457 228.151831 
L 1032.713518 231.23312 
L 1035.525578 234.005151 
L 1038.337638 236.498359 
L 1041.149698 238.746429 
L 1043.961759 240.783581 
L 1048.179849 243.513905 
L 1052.39794 245.935162 
L 1055.21 247.412294 
L 1055.21 247.412294 
" clip-path="url(#p0621d29d08)" style="fill: none; stroke: #fc8d62; stroke-width: 1.5; stroke-linecap: round"/>
   </g>
   <g id="patch_63">
    <path d="M 761.42 260.12 
L 761.42 26.925 
" style="fill: none; stroke: #cccccc; stroke-width: 0.8; stroke-linejoin: miter; stroke-linecap: square"/>
   </g>
   <g id="patch_64">
    <path d="M 1069.2 260.12 
L 1069.2 26.925 
" style="fill: none; stroke: #cccccc; stroke-width: 0.8; stroke-linejoin: miter; stroke-linecap: square"/>
   </g>
   <g id="patch_65">
    <path d="M 761.42 260.12 
L 1069.2 260.12 
" style="fill: none; stroke: #cccccc; stroke-width: 0.8; stroke-linejoin: miter; stroke-linecap: square"/>
   </g>
   <g id="patch_66">
    <path d="M 761.42 26.925 
L 1069.2 26.925 
" style="fill: none; stroke: #cccccc; stroke-width: 0.8; stroke-linejoin: miter; stroke-linecap: square"/>
   </g>
   <g id="text_47">
    <!-- logP Distribution -->
    <g style="fill: #262626" transform="translate(852.532187 20.925) scale(0.12 -0.12)">
     <defs>
      <path id="FiraCode-Regular-50" d="M 3656 3131 
Q 3656 2603 3431 2284 
Q 3207 1966 2813 1821 
Q 2419 1677 1907 1677 
L 1329 1677 
L 1329 0 
L 758 0 
L 758 4519 
L 1913 4519 
Q 2721 4519 3188 4181 
Q 3656 3843 3656 3131 
z
M 3046 3125 
Q 3046 3472 2908 3679 
Q 2770 3886 2529 3976 
Q 2288 4066 1982 4066 
L 1329 4066 
L 1329 2137 
L 1959 2137 
Q 2275 2137 2521 2222 
Q 2767 2307 2906 2522 
Q 3046 2737 3046 3125 
z
" transform="scale(0.015625)"/>
     </defs>
     <use xlink:href="#FiraCode-Regular-6c"/>
     <use xlink:href="#FiraCode-Regular-6f" transform="translate(61.538452 0)"/>
     <use xlink:href="#FiraCode-Regular-67" transform="translate(123.076904 0)"/>
     <use xlink:href="#FiraCode-Regular-50" transform="translate(184.615356 0)"/>
     <use xlink:href="#FiraCode-Regular-20" transform="translate(246.153809 0)"/>
     <use xlink:href="#FiraCode-Regular-44" transform="translate(307.692261 0)"/>
     <use xlink:href="#FiraCode-Regular-69" transform="translate(369.230713 0)"/>
     <use xlink:href="#FiraCode-Regular-73" transform="translate(430.769165 0)"/>
     <use xlink:href="#FiraCode-Regular-74" transform="translate(492.307617 0)"/>
     <use xlink:href="#FiraCode-Regular-72" transform="translate(553.846069 0)"/>
     <use xlink:href="#FiraCode-Regular-69" transform="translate(615.384521 0)"/>
     <use xlink:href="#FiraCode-Regular-62" transform="translate(676.922974 0)"/>
     <use xlink:href="#FiraCode-Regular-75" transform="translate(738.461426 0)"/>
     <use xlink:href="#FiraCode-Regular-74" transform="translate(799.999878 0)"/>
     <use xlink:href="#FiraCode-Regular-69" transform="translate(861.53833 0)"/>
     <use xlink:href="#FiraCode-Regular-6f" transform="translate(923.076782 0)"/>
     <use xlink:href="#FiraCode-Regular-6e" transform="translate(984.615234 0)"/>
    </g>
   </g>
  </g>
 </g>
 <defs>
  <clipPath id="p101b608568">
   <rect x="43.04" y="26.925" width="307.78" height="233.195"/>
  </clipPath>
  <clipPath id="p2617c5b51a">
   <rect x="402.23" y="26.925" width="307.78" height="233.195"/>
  </clipPath>
  <clipPath id="p0621d29d08">
   <rect x="761.42" y="26.925" width="307.78" height="233.195"/>
  </clipPath>
 </defs>
</svg>
