<?xml version="1.0" encoding="utf-8" standalone="no"?>
<!DOCTYPE svg PUBLIC "-//W3C//DTD SVG 1.1//EN"
  "http://www.w3.org/Graphics/SVG/1.1/DTD/svg11.dtd">
<svg xmlns:xlink="http://www.w3.org/1999/xlink" width="1080pt" height="288pt" viewBox="0 0 1080 288" xmlns="http://www.w3.org/2000/svg" version="1.1">
 <metadata>
  <rdf:RDF xmlns:dc="http://purl.org/dc/elements/1.1/" xmlns:cc="http://creativecommons.org/ns#" xmlns:rdf="http://www.w3.org/1999/02/22-rdf-syntax-ns#">
   <cc:Work>
    <dc:type rdf:resource="http://purl.org/dc/dcmitype/StillImage"/>
    <dc:date>2025-02-24T15:49:32.177411</dc:date>
    <dc:format>image/svg+xml</dc:format>
    <dc:creator>
     <cc:Agent>
      <dc:title>Matplotlib v3.10.0, https://matplotlib.org/</dc:title>
     </cc:Agent>
    </dc:creator>
   </cc:Work>
  </rdf:RDF>
 </metadata>
 <defs>
  <style type="text/css">*{stroke-linejoin: round; stroke-linecap: butt}</style>
 </defs>
 <g id="figure_1">
  <g id="patch_1">
   <path d="M 0 288 
L 1080 288 
L 1080 0 
L 0 0 
z
" style="fill: #ffffff"/>
  </g>
  <g id="axes_1">
   <g id="patch_2">
    <path d="M 48.62 260.12 
L 354.593922 260.12 
L 354.593922 26.925 
L 48.62 26.925 
z
" style="fill: #ffffff"/>
   </g>
   <g id="matplotlib.axis_1">
    <g id="xtick_1">
     <g id="line2d_1">
      <path d="M 56.693868 260.12 
L 56.693868 26.925 
" clip-path="url(#p79b7b84dfd)" style="fill: none; stroke: #cccccc; stroke-width: 0.8; stroke-linecap: round"/>
     </g>
     <g id="text_1">
      <!-- 0 -->
      <g style="fill: #262626" transform="translate(53.913399 274.277812) scale(0.1 -0.1)">
       <defs>
        <path id="ArialMT-30" d="M 266 2259 
Q 266 3072 433 3567 
Q 600 4063 929 4331 
Q 1259 4600 1759 4600 
Q 2128 4600 2406 4451 
Q 2684 4303 2865 4023 
Q 3047 3744 3150 3342 
Q 3253 2941 3253 2259 
Q 3253 1453 3087 958 
Q 2922 463 2592 192 
Q 2263 -78 1759 -78 
Q 1097 -78 719 397 
Q 266 969 266 2259 
z
M 844 2259 
Q 844 1131 1108 757 
Q 1372 384 1759 384 
Q 2147 384 2411 759 
Q 2675 1134 2675 2259 
Q 2675 3391 2411 3762 
Q 2147 4134 1753 4134 
Q 1366 4134 1134 3806 
Q 844 3388 844 2259 
z
" transform="scale(0.015625)"/>
       </defs>
       <use xlink:href="#ArialMT-30"/>
      </g>
     </g>
    </g>
    <g id="xtick_2">
     <g id="line2d_2">
      <path d="M 93.058873 260.12 
L 93.058873 26.925 
" clip-path="url(#p79b7b84dfd)" style="fill: none; stroke: #cccccc; stroke-width: 0.8; stroke-linecap: round"/>
     </g>
     <g id="text_2">
      <!-- 100 -->
      <g style="fill: #262626" transform="translate(84.717467 274.277812) scale(0.1 -0.1)">
       <defs>
        <path id="ArialMT-31" d="M 2384 0 
L 1822 0 
L 1822 3584 
Q 1619 3391 1289 3197 
Q 959 3003 697 2906 
L 697 3450 
Q 1169 3672 1522 3987 
Q 1875 4303 2022 4600 
L 2384 4600 
L 2384 0 
z
" transform="scale(0.015625)"/>
       </defs>
       <use xlink:href="#ArialMT-31"/>
       <use xlink:href="#ArialMT-30" transform="translate(55.615234 0)"/>
       <use xlink:href="#ArialMT-30" transform="translate(111.230469 0)"/>
      </g>
     </g>
    </g>
    <g id="xtick_3">
     <g id="line2d_3">
      <path d="M 129.423879 260.12 
L 129.423879 26.925 
" clip-path="url(#p79b7b84dfd)" style="fill: none; stroke: #cccccc; stroke-width: 0.8; stroke-linecap: round"/>
     </g>
     <g id="text_3">
      <!-- 200 -->
      <g style="fill: #262626" transform="translate(121.082473 274.277812) scale(0.1 -0.1)">
       <defs>
        <path id="ArialMT-32" d="M 3222 541 
L 3222 0 
L 194 0 
Q 188 203 259 391 
Q 375 700 629 1000 
Q 884 1300 1366 1694 
Q 2113 2306 2375 2664 
Q 2638 3022 2638 3341 
Q 2638 3675 2398 3904 
Q 2159 4134 1775 4134 
Q 1369 4134 1125 3890 
Q 881 3647 878 3216 
L 300 3275 
Q 359 3922 746 4261 
Q 1134 4600 1788 4600 
Q 2447 4600 2831 4234 
Q 3216 3869 3216 3328 
Q 3216 3053 3103 2787 
Q 2991 2522 2730 2228 
Q 2469 1934 1863 1422 
Q 1356 997 1212 845 
Q 1069 694 975 541 
L 3222 541 
z
" transform="scale(0.015625)"/>
       </defs>
       <use xlink:href="#ArialMT-32"/>
       <use xlink:href="#ArialMT-30" transform="translate(55.615234 0)"/>
       <use xlink:href="#ArialMT-30" transform="translate(111.230469 0)"/>
      </g>
     </g>
    </g>
    <g id="xtick_4">
     <g id="line2d_4">
      <path d="M 165.788885 260.12 
L 165.788885 26.925 
" clip-path="url(#p79b7b84dfd)" style="fill: none; stroke: #cccccc; stroke-width: 0.8; stroke-linecap: round"/>
     </g>
     <g id="text_4">
      <!-- 300 -->
      <g style="fill: #262626" transform="translate(157.447479 274.277812) scale(0.1 -0.1)">
       <defs>
        <path id="ArialMT-33" d="M 269 1209 
L 831 1284 
Q 928 806 1161 595 
Q 1394 384 1728 384 
Q 2125 384 2398 659 
Q 2672 934 2672 1341 
Q 2672 1728 2419 1979 
Q 2166 2231 1775 2231 
Q 1616 2231 1378 2169 
L 1441 2663 
Q 1497 2656 1531 2656 
Q 1891 2656 2178 2843 
Q 2466 3031 2466 3422 
Q 2466 3731 2256 3934 
Q 2047 4138 1716 4138 
Q 1388 4138 1169 3931 
Q 950 3725 888 3313 
L 325 3413 
Q 428 3978 793 4289 
Q 1159 4600 1703 4600 
Q 2078 4600 2393 4439 
Q 2709 4278 2876 4000 
Q 3044 3722 3044 3409 
Q 3044 3113 2884 2869 
Q 2725 2625 2413 2481 
Q 2819 2388 3044 2092 
Q 3269 1797 3269 1353 
Q 3269 753 2831 336 
Q 2394 -81 1725 -81 
Q 1122 -81 723 278 
Q 325 638 269 1209 
z
" transform="scale(0.015625)"/>
       </defs>
       <use xlink:href="#ArialMT-33"/>
       <use xlink:href="#ArialMT-30" transform="translate(55.615234 0)"/>
       <use xlink:href="#ArialMT-30" transform="translate(111.230469 0)"/>
      </g>
     </g>
    </g>
    <g id="xtick_5">
     <g id="line2d_5">
      <path d="M 202.153891 260.12 
L 202.153891 26.925 
" clip-path="url(#p79b7b84dfd)" style="fill: none; stroke: #cccccc; stroke-width: 0.8; stroke-linecap: round"/>
     </g>
     <g id="text_5">
      <!-- 400 -->
      <g style="fill: #262626" transform="translate(193.812485 274.277812) scale(0.1 -0.1)">
       <defs>
        <path id="ArialMT-34" d="M 2069 0 
L 2069 1097 
L 81 1097 
L 81 1613 
L 2172 4581 
L 2631 4581 
L 2631 1613 
L 3250 1613 
L 3250 1097 
L 2631 1097 
L 2631 0 
L 2069 0 
z
M 2069 1613 
L 2069 3678 
L 634 1613 
L 2069 1613 
z
" transform="scale(0.015625)"/>
       </defs>
       <use xlink:href="#ArialMT-34"/>
       <use xlink:href="#ArialMT-30" transform="translate(55.615234 0)"/>
       <use xlink:href="#ArialMT-30" transform="translate(111.230469 0)"/>
      </g>
     </g>
    </g>
    <g id="xtick_6">
     <g id="line2d_6">
      <path d="M 238.518897 260.12 
L 238.518897 26.925 
" clip-path="url(#p79b7b84dfd)" style="fill: none; stroke: #cccccc; stroke-width: 0.8; stroke-linecap: round"/>
     </g>
     <g id="text_6">
      <!-- 500 -->
      <g style="fill: #262626" transform="translate(230.17749 274.277812) scale(0.1 -0.1)">
       <defs>
        <path id="ArialMT-35" d="M 266 1200 
L 856 1250 
Q 922 819 1161 601 
Q 1400 384 1738 384 
Q 2144 384 2425 690 
Q 2706 997 2706 1503 
Q 2706 1984 2436 2262 
Q 2166 2541 1728 2541 
Q 1456 2541 1237 2417 
Q 1019 2294 894 2097 
L 366 2166 
L 809 4519 
L 3088 4519 
L 3088 3981 
L 1259 3981 
L 1013 2750 
Q 1425 3038 1878 3038 
Q 2478 3038 2890 2622 
Q 3303 2206 3303 1553 
Q 3303 931 2941 478 
Q 2500 -78 1738 -78 
Q 1113 -78 717 272 
Q 322 622 266 1200 
z
" transform="scale(0.015625)"/>
       </defs>
       <use xlink:href="#ArialMT-35"/>
       <use xlink:href="#ArialMT-30" transform="translate(55.615234 0)"/>
       <use xlink:href="#ArialMT-30" transform="translate(111.230469 0)"/>
      </g>
     </g>
    </g>
    <g id="xtick_7">
     <g id="line2d_7">
      <path d="M 274.883902 260.12 
L 274.883902 26.925 
" clip-path="url(#p79b7b84dfd)" style="fill: none; stroke: #cccccc; stroke-width: 0.8; stroke-linecap: round"/>
     </g>
     <g id="text_7">
      <!-- 600 -->
      <g style="fill: #262626" transform="translate(266.542496 274.277812) scale(0.1 -0.1)">
       <defs>
        <path id="ArialMT-36" d="M 3184 3459 
L 2625 3416 
Q 2550 3747 2413 3897 
Q 2184 4138 1850 4138 
Q 1581 4138 1378 3988 
Q 1113 3794 959 3422 
Q 806 3050 800 2363 
Q 1003 2672 1297 2822 
Q 1591 2972 1913 2972 
Q 2475 2972 2870 2558 
Q 3266 2144 3266 1488 
Q 3266 1056 3080 686 
Q 2894 316 2569 119 
Q 2244 -78 1831 -78 
Q 1128 -78 684 439 
Q 241 956 241 2144 
Q 241 3472 731 4075 
Q 1159 4600 1884 4600 
Q 2425 4600 2770 4297 
Q 3116 3994 3184 3459 
z
M 888 1484 
Q 888 1194 1011 928 
Q 1134 663 1356 523 
Q 1578 384 1822 384 
Q 2178 384 2434 671 
Q 2691 959 2691 1453 
Q 2691 1928 2437 2201 
Q 2184 2475 1800 2475 
Q 1419 2475 1153 2201 
Q 888 1928 888 1484 
z
" transform="scale(0.015625)"/>
       </defs>
       <use xlink:href="#ArialMT-36"/>
       <use xlink:href="#ArialMT-30" transform="translate(55.615234 0)"/>
       <use xlink:href="#ArialMT-30" transform="translate(111.230469 0)"/>
      </g>
     </g>
    </g>
    <g id="xtick_8">
     <g id="line2d_8">
      <path d="M 311.248908 260.12 
L 311.248908 26.925 
" clip-path="url(#p79b7b84dfd)" style="fill: none; stroke: #cccccc; stroke-width: 0.8; stroke-linecap: round"/>
     </g>
     <g id="text_8">
      <!-- 700 -->
      <g style="fill: #262626" transform="translate(302.907502 274.277812) scale(0.1 -0.1)">
       <defs>
        <path id="ArialMT-37" d="M 303 3981 
L 303 4522 
L 3269 4522 
L 3269 4084 
Q 2831 3619 2401 2847 
Q 1972 2075 1738 1259 
Q 1569 684 1522 0 
L 944 0 
Q 953 541 1156 1306 
Q 1359 2072 1739 2783 
Q 2119 3494 2547 3981 
L 303 3981 
z
" transform="scale(0.015625)"/>
       </defs>
       <use xlink:href="#ArialMT-37"/>
       <use xlink:href="#ArialMT-30" transform="translate(55.615234 0)"/>
       <use xlink:href="#ArialMT-30" transform="translate(111.230469 0)"/>
      </g>
     </g>
    </g>
    <g id="xtick_9">
     <g id="line2d_9">
      <path d="M 347.613914 260.12 
L 347.613914 26.925 
" clip-path="url(#p79b7b84dfd)" style="fill: none; stroke: #cccccc; stroke-width: 0.8; stroke-linecap: round"/>
     </g>
     <g id="text_9">
      <!-- 800 -->
      <g style="fill: #262626" transform="translate(339.272508 274.277812) scale(0.1 -0.1)">
       <defs>
        <path id="ArialMT-38" d="M 1131 2484 
Q 781 2613 612 2850 
Q 444 3088 444 3419 
Q 444 3919 803 4259 
Q 1163 4600 1759 4600 
Q 2359 4600 2725 4251 
Q 3091 3903 3091 3403 
Q 3091 3084 2923 2848 
Q 2756 2613 2416 2484 
Q 2838 2347 3058 2040 
Q 3278 1734 3278 1309 
Q 3278 722 2862 322 
Q 2447 -78 1769 -78 
Q 1091 -78 675 323 
Q 259 725 259 1325 
Q 259 1772 486 2073 
Q 713 2375 1131 2484 
z
M 1019 3438 
Q 1019 3113 1228 2906 
Q 1438 2700 1772 2700 
Q 2097 2700 2305 2904 
Q 2513 3109 2513 3406 
Q 2513 3716 2298 3927 
Q 2084 4138 1766 4138 
Q 1444 4138 1231 3931 
Q 1019 3725 1019 3438 
z
M 838 1322 
Q 838 1081 952 856 
Q 1066 631 1291 507 
Q 1516 384 1775 384 
Q 2178 384 2440 643 
Q 2703 903 2703 1303 
Q 2703 1709 2433 1975 
Q 2163 2241 1756 2241 
Q 1359 2241 1098 1978 
Q 838 1716 838 1322 
z
" transform="scale(0.015625)"/>
       </defs>
       <use xlink:href="#ArialMT-38"/>
       <use xlink:href="#ArialMT-30" transform="translate(55.615234 0)"/>
       <use xlink:href="#ArialMT-30" transform="translate(111.230469 0)"/>
      </g>
     </g>
    </g>
   </g>
   <g id="matplotlib.axis_2">
    <g id="ytick_1">
     <g id="line2d_10">
      <path d="M 48.62 260.12 
L 354.593922 260.12 
" clip-path="url(#p79b7b84dfd)" style="fill: none; stroke: #cccccc; stroke-width: 0.8; stroke-linecap: round"/>
     </g>
     <g id="text_10">
      <!-- 0 -->
      <g style="fill: #262626" transform="translate(36.059063 263.698906) scale(0.1 -0.1)">
       <use xlink:href="#ArialMT-30"/>
      </g>
     </g>
    </g>
    <g id="ytick_2">
     <g id="line2d_11">
      <path d="M 48.62 228.026001 
L 354.593922 228.026001 
" clip-path="url(#p79b7b84dfd)" style="fill: none; stroke: #cccccc; stroke-width: 0.8; stroke-linecap: round"/>
     </g>
     <g id="text_11">
      <!-- 25 -->
      <g style="fill: #262626" transform="translate(30.498125 231.604907) scale(0.1 -0.1)">
       <use xlink:href="#ArialMT-32"/>
       <use xlink:href="#ArialMT-35" transform="translate(55.615234 0)"/>
      </g>
     </g>
    </g>
    <g id="ytick_3">
     <g id="line2d_12">
      <path d="M 48.62 195.932001 
L 354.593922 195.932001 
" clip-path="url(#p79b7b84dfd)" style="fill: none; stroke: #cccccc; stroke-width: 0.8; stroke-linecap: round"/>
     </g>
     <g id="text_12">
      <!-- 50 -->
      <g style="fill: #262626" transform="translate(30.498125 199.510907) scale(0.1 -0.1)">
       <use xlink:href="#ArialMT-35"/>
       <use xlink:href="#ArialMT-30" transform="translate(55.615234 0)"/>
      </g>
     </g>
    </g>
    <g id="ytick_4">
     <g id="line2d_13">
      <path d="M 48.62 163.838002 
L 354.593922 163.838002 
" clip-path="url(#p79b7b84dfd)" style="fill: none; stroke: #cccccc; stroke-width: 0.8; stroke-linecap: round"/>
     </g>
     <g id="text_13">
      <!-- 75 -->
      <g style="fill: #262626" transform="translate(30.498125 167.416908) scale(0.1 -0.1)">
       <use xlink:href="#ArialMT-37"/>
       <use xlink:href="#ArialMT-35" transform="translate(55.615234 0)"/>
      </g>
     </g>
    </g>
    <g id="ytick_5">
     <g id="line2d_14">
      <path d="M 48.62 131.744002 
L 354.593922 131.744002 
" clip-path="url(#p79b7b84dfd)" style="fill: none; stroke: #cccccc; stroke-width: 0.8; stroke-linecap: round"/>
     </g>
     <g id="text_14">
      <!-- 100 -->
      <g style="fill: #262626" transform="translate(24.937188 135.322908) scale(0.1 -0.1)">
       <use xlink:href="#ArialMT-31"/>
       <use xlink:href="#ArialMT-30" transform="translate(55.615234 0)"/>
       <use xlink:href="#ArialMT-30" transform="translate(111.230469 0)"/>
      </g>
     </g>
    </g>
    <g id="ytick_6">
     <g id="line2d_15">
      <path d="M 48.62 99.650003 
L 354.593922 99.650003 
" clip-path="url(#p79b7b84dfd)" style="fill: none; stroke: #cccccc; stroke-width: 0.8; stroke-linecap: round"/>
     </g>
     <g id="text_15">
      <!-- 125 -->
      <g style="fill: #262626" transform="translate(24.937188 103.228909) scale(0.1 -0.1)">
       <use xlink:href="#ArialMT-31"/>
       <use xlink:href="#ArialMT-32" transform="translate(55.615234 0)"/>
       <use xlink:href="#ArialMT-35" transform="translate(111.230469 0)"/>
      </g>
     </g>
    </g>
    <g id="ytick_7">
     <g id="line2d_16">
      <path d="M 48.62 67.556003 
L 354.593922 67.556003 
" clip-path="url(#p79b7b84dfd)" style="fill: none; stroke: #cccccc; stroke-width: 0.8; stroke-linecap: round"/>
     </g>
     <g id="text_16">
      <!-- 150 -->
      <g style="fill: #262626" transform="translate(24.937188 71.13491) scale(0.1 -0.1)">
       <use xlink:href="#ArialMT-31"/>
       <use xlink:href="#ArialMT-35" transform="translate(55.615234 0)"/>
       <use xlink:href="#ArialMT-30" transform="translate(111.230469 0)"/>
      </g>
     </g>
    </g>
    <g id="ytick_8">
     <g id="line2d_17">
      <path d="M 48.62 35.462004 
L 354.593922 35.462004 
" clip-path="url(#p79b7b84dfd)" style="fill: none; stroke: #cccccc; stroke-width: 0.8; stroke-linecap: round"/>
     </g>
     <g id="text_17">
      <!-- 175 -->
      <g style="fill: #262626" transform="translate(24.937188 39.04091) scale(0.1 -0.1)">
       <use xlink:href="#ArialMT-31"/>
       <use xlink:href="#ArialMT-37" transform="translate(55.615234 0)"/>
       <use xlink:href="#ArialMT-35" transform="translate(111.230469 0)"/>
      </g>
     </g>
    </g>
    <g id="text_18">
     <!-- Count -->
     <g style="fill: #262626" transform="translate(18.949688 156.863906) rotate(-90) scale(0.1 -0.1)">
      <defs>
       <path id="ArialMT-43" d="M 3763 1606 
L 4369 1453 
Q 4178 706 3683 314 
Q 3188 -78 2472 -78 
Q 1731 -78 1267 223 
Q 803 525 561 1097 
Q 319 1669 319 2325 
Q 319 3041 592 3573 
Q 866 4106 1370 4382 
Q 1875 4659 2481 4659 
Q 3169 4659 3637 4309 
Q 4106 3959 4291 3325 
L 3694 3184 
Q 3534 3684 3231 3912 
Q 2928 4141 2469 4141 
Q 1941 4141 1586 3887 
Q 1231 3634 1087 3207 
Q 944 2781 944 2328 
Q 944 1744 1114 1308 
Q 1284 872 1643 656 
Q 2003 441 2422 441 
Q 2931 441 3284 734 
Q 3638 1028 3763 1606 
z
" transform="scale(0.015625)"/>
       <path id="ArialMT-6f" d="M 213 1659 
Q 213 2581 725 3025 
Q 1153 3394 1769 3394 
Q 2453 3394 2887 2945 
Q 3322 2497 3322 1706 
Q 3322 1066 3130 698 
Q 2938 331 2570 128 
Q 2203 -75 1769 -75 
Q 1072 -75 642 372 
Q 213 819 213 1659 
z
M 791 1659 
Q 791 1022 1069 705 
Q 1347 388 1769 388 
Q 2188 388 2466 706 
Q 2744 1025 2744 1678 
Q 2744 2294 2464 2611 
Q 2184 2928 1769 2928 
Q 1347 2928 1069 2612 
Q 791 2297 791 1659 
z
" transform="scale(0.015625)"/>
       <path id="ArialMT-75" d="M 2597 0 
L 2597 488 
Q 2209 -75 1544 -75 
Q 1250 -75 995 37 
Q 741 150 617 320 
Q 494 491 444 738 
Q 409 903 409 1263 
L 409 3319 
L 972 3319 
L 972 1478 
Q 972 1038 1006 884 
Q 1059 663 1231 536 
Q 1403 409 1656 409 
Q 1909 409 2131 539 
Q 2353 669 2445 892 
Q 2538 1116 2538 1541 
L 2538 3319 
L 3100 3319 
L 3100 0 
L 2597 0 
z
" transform="scale(0.015625)"/>
       <path id="ArialMT-6e" d="M 422 0 
L 422 3319 
L 928 3319 
L 928 2847 
Q 1294 3394 1984 3394 
Q 2284 3394 2536 3286 
Q 2788 3178 2913 3003 
Q 3038 2828 3088 2588 
Q 3119 2431 3119 2041 
L 3119 0 
L 2556 0 
L 2556 2019 
Q 2556 2363 2490 2533 
Q 2425 2703 2258 2804 
Q 2091 2906 1866 2906 
Q 1506 2906 1245 2678 
Q 984 2450 984 1813 
L 984 0 
L 422 0 
z
" transform="scale(0.015625)"/>
       <path id="ArialMT-74" d="M 1650 503 
L 1731 6 
Q 1494 -44 1306 -44 
Q 1000 -44 831 53 
Q 663 150 594 308 
Q 525 466 525 972 
L 525 2881 
L 113 2881 
L 113 3319 
L 525 3319 
L 525 4141 
L 1084 4478 
L 1084 3319 
L 1650 3319 
L 1650 2881 
L 1084 2881 
L 1084 941 
Q 1084 700 1114 631 
Q 1144 563 1211 522 
Q 1278 481 1403 481 
Q 1497 481 1650 503 
z
" transform="scale(0.015625)"/>
      </defs>
      <use xlink:href="#ArialMT-43"/>
      <use xlink:href="#ArialMT-6f" transform="translate(72.216797 0)"/>
      <use xlink:href="#ArialMT-75" transform="translate(127.832031 0)"/>
      <use xlink:href="#ArialMT-6e" transform="translate(183.447266 0)"/>
      <use xlink:href="#ArialMT-74" transform="translate(239.0625 0)"/>
     </g>
    </g>
   </g>
   <g id="patch_3">
    <path d="M 62.527906 260.12 
L 76.435811 260.12 
L 76.435811 243.43112 
L 62.527906 243.43112 
z
" clip-path="url(#p79b7b84dfd)" style="fill: #fdc422; fill-opacity: 0.5; stroke: #ffffff; stroke-linejoin: miter"/>
   </g>
   <g id="patch_4">
    <path d="M 76.435811 260.12 
L 90.343717 260.12 
L 90.343717 154.851682 
L 76.435811 154.851682 
z
" clip-path="url(#p79b7b84dfd)" style="fill: #fdc422; fill-opacity: 0.5; stroke: #ffffff; stroke-linejoin: miter"/>
   </g>
   <g id="patch_5">
    <path d="M 90.343717 260.12 
L 104.251622 260.12 
L 104.251622 38.029524 
L 90.343717 38.029524 
z
" clip-path="url(#p79b7b84dfd)" style="fill: #fdc422; fill-opacity: 0.5; stroke: #ffffff; stroke-linejoin: miter"/>
   </g>
   <g id="patch_6">
    <path d="M 104.251622 260.12 
L 118.159528 260.12 
L 118.159528 76.542323 
L 104.251622 76.542323 
z
" clip-path="url(#p79b7b84dfd)" style="fill: #fdc422; fill-opacity: 0.5; stroke: #ffffff; stroke-linejoin: miter"/>
   </g>
   <g id="patch_7">
    <path d="M 118.159528 260.12 
L 132.067433 260.12 
L 132.067433 134.311522 
L 118.159528 134.311522 
z
" clip-path="url(#p79b7b84dfd)" style="fill: #fdc422; fill-opacity: 0.5; stroke: #ffffff; stroke-linejoin: miter"/>
   </g>
   <g id="patch_8">
    <path d="M 132.067433 260.12 
L 145.975339 260.12 
L 145.975339 122.757682 
L 132.067433 122.757682 
z
" clip-path="url(#p79b7b84dfd)" style="fill: #fdc422; fill-opacity: 0.5; stroke: #ffffff; stroke-linejoin: miter"/>
   </g>
   <g id="patch_9">
    <path d="M 145.975339 260.12 
L 159.883244 260.12 
L 159.883244 168.973042 
L 145.975339 168.973042 
z
" clip-path="url(#p79b7b84dfd)" style="fill: #fdc422; fill-opacity: 0.5; stroke: #ffffff; stroke-linejoin: miter"/>
   </g>
   <g id="patch_10">
    <path d="M 159.883244 260.12 
L 173.79115 260.12 
L 173.79115 157.419202 
L 159.883244 157.419202 
z
" clip-path="url(#p79b7b84dfd)" style="fill: #fdc422; fill-opacity: 0.5; stroke: #ffffff; stroke-linejoin: miter"/>
   </g>
   <g id="patch_11">
    <path d="M 173.79115 260.12 
L 187.699056 260.12 
L 187.699056 192.080721 
L 173.79115 192.080721 
z
" clip-path="url(#p79b7b84dfd)" style="fill: #fdc422; fill-opacity: 0.5; stroke: #ffffff; stroke-linejoin: miter"/>
   </g>
   <g id="patch_12">
    <path d="M 187.699056 260.12 
L 201.606961 260.12 
L 201.606961 198.499521 
L 187.699056 198.499521 
z
" clip-path="url(#p79b7b84dfd)" style="fill: #fdc422; fill-opacity: 0.5; stroke: #ffffff; stroke-linejoin: miter"/>
   </g>
   <g id="patch_13">
    <path d="M 201.606961 260.12 
L 215.514867 260.12 
L 215.514867 234.4448 
L 201.606961 234.4448 
z
" clip-path="url(#p79b7b84dfd)" style="fill: #fdc422; fill-opacity: 0.5; stroke: #ffffff; stroke-linejoin: miter"/>
   </g>
   <g id="patch_14">
    <path d="M 215.514867 260.12 
L 229.422772 260.12 
L 229.422772 253.7012 
L 215.514867 253.7012 
z
" clip-path="url(#p79b7b84dfd)" style="fill: #fdc422; fill-opacity: 0.5; stroke: #ffffff; stroke-linejoin: miter"/>
   </g>
   <g id="patch_15">
    <path d="M 229.422772 260.12 
L 243.330678 260.12 
L 243.330678 254.98496 
L 229.422772 254.98496 
z
" clip-path="url(#p79b7b84dfd)" style="fill: #fdc422; fill-opacity: 0.5; stroke: #ffffff; stroke-linejoin: miter"/>
   </g>
   <g id="patch_16">
    <path d="M 243.330678 260.12 
L 257.238583 260.12 
L 257.238583 257.55248 
L 243.330678 257.55248 
z
" clip-path="url(#p79b7b84dfd)" style="fill: #fdc422; fill-opacity: 0.5; stroke: #ffffff; stroke-linejoin: miter"/>
   </g>
   <g id="patch_17">
    <path d="M 257.238583 260.12 
L 271.146489 260.12 
L 271.146489 258.83624 
L 257.238583 258.83624 
z
" clip-path="url(#p79b7b84dfd)" style="fill: #fdc422; fill-opacity: 0.5; stroke: #ffffff; stroke-linejoin: miter"/>
   </g>
   <g id="patch_18">
    <path d="M 271.146489 260.12 
L 285.054394 260.12 
L 285.054394 260.12 
L 271.146489 260.12 
z
" clip-path="url(#p79b7b84dfd)" style="fill: #fdc422; fill-opacity: 0.5; stroke: #ffffff; stroke-linejoin: miter"/>
   </g>
   <g id="patch_19">
    <path d="M 285.054394 260.12 
L 298.9623 260.12 
L 298.9623 260.12 
L 285.054394 260.12 
z
" clip-path="url(#p79b7b84dfd)" style="fill: #fdc422; fill-opacity: 0.5; stroke: #ffffff; stroke-linejoin: miter"/>
   </g>
   <g id="patch_20">
    <path d="M 298.9623 260.12 
L 312.870205 260.12 
L 312.870205 260.12 
L 298.9623 260.12 
z
" clip-path="url(#p79b7b84dfd)" style="fill: #fdc422; fill-opacity: 0.5; stroke: #ffffff; stroke-linejoin: miter"/>
   </g>
   <g id="patch_21">
    <path d="M 312.870205 260.12 
L 326.778111 260.12 
L 326.778111 260.12 
L 312.870205 260.12 
z
" clip-path="url(#p79b7b84dfd)" style="fill: #fdc422; fill-opacity: 0.5; stroke: #ffffff; stroke-linejoin: miter"/>
   </g>
   <g id="patch_22">
    <path d="M 326.778111 260.12 
L 340.686017 260.12 
L 340.686017 257.55248 
L 326.778111 257.55248 
z
" clip-path="url(#p79b7b84dfd)" style="fill: #fdc422; fill-opacity: 0.5; stroke: #ffffff; stroke-linejoin: miter"/>
   </g>
   <g id="line2d_18">
    <path d="M 62.527906 247.219104 
L 63.925685 244.457481 
L 65.323464 241.247959 
L 66.721244 237.546243 
L 68.119023 233.310108 
L 69.516803 228.501578 
L 70.914582 223.089461 
L 72.312362 217.052103 
L 73.710141 210.380256 
L 75.107921 203.079831 
L 77.90348 186.707047 
L 80.699038 168.363982 
L 89.085715 110.445798 
L 90.483495 101.901566 
L 91.881274 94.065943 
L 93.279054 87.057154 
L 94.676833 80.969865 
L 96.074612 75.871852 
L 97.472392 71.802352 
L 98.870171 68.77216 
L 100.267951 66.765353 
L 101.66573 65.742345 
L 103.06351 65.643846 
L 104.461289 66.395237 
L 105.859069 67.910884 
L 107.256848 70.098 
L 108.654627 72.859805 
L 110.052407 76.097893 
L 112.847966 83.61051 
L 121.234643 107.846121 
L 124.030201 114.507006 
L 125.427981 117.379571 
L 126.82576 119.945669 
L 128.22354 122.227271 
L 131.019099 126.101719 
L 135.212437 131.032412 
L 138.007996 134.360572 
L 140.803555 138.005034 
L 150.588011 151.445396 
L 153.38357 154.531004 
L 156.179129 157.159671 
L 163.168026 163.165165 
L 165.963585 165.975155 
L 168.759144 169.192081 
L 171.554703 172.765711 
L 175.748041 178.560256 
L 179.94138 184.676261 
L 184.134718 191.18928 
L 188.328056 198.285316 
L 192.521395 205.914971 
L 199.510292 218.77361 
L 203.70363 225.895289 
L 206.499189 230.252237 
L 209.294748 234.272417 
L 212.090307 237.947245 
L 214.885866 241.265323 
L 217.681425 244.210047 
L 220.476984 246.766384 
L 223.272543 248.932365 
L 226.068101 250.728144 
L 228.86366 252.196509 
L 231.659219 253.393984 
L 234.454778 254.377533 
L 238.648117 255.550786 
L 242.841455 256.451437 
L 248.432573 257.347138 
L 254.023691 258.013197 
L 261.012588 258.611756 
L 269.399265 259.060379 
L 291.763736 260.050323 
L 302.945971 260.11361 
L 315.525986 259.995411 
L 321.117104 259.756991 
L 328.106002 259.227138 
L 333.697119 258.821428 
L 337.890458 258.711981 
L 340.686017 258.76868 
L 340.686017 258.76868 
" clip-path="url(#p79b7b84dfd)" style="fill: none; stroke: #fdc422; stroke-width: 1.5; stroke-linecap: round"/>
   </g>
   <g id="patch_23">
    <path d="M 48.62 260.12 
L 48.62 26.925 
" style="fill: none; stroke: #cccccc; stroke-width: 0.8; stroke-linejoin: miter; stroke-linecap: square"/>
   </g>
   <g id="patch_24">
    <path d="M 354.593922 260.12 
L 354.593922 26.925 
" style="fill: none; stroke: #cccccc; stroke-width: 0.8; stroke-linejoin: miter; stroke-linecap: square"/>
   </g>
   <g id="patch_25">
    <path d="M 48.62 260.12 
L 354.593922 260.12 
" style="fill: none; stroke: #cccccc; stroke-width: 0.8; stroke-linejoin: miter; stroke-linecap: square"/>
   </g>
   <g id="patch_26">
    <path d="M 48.62 26.925 
L 354.593922 26.925 
" style="fill: none; stroke: #cccccc; stroke-width: 0.8; stroke-linejoin: miter; stroke-linecap: square"/>
   </g>
   <g id="text_19">
    <!-- Molecular Weight (MW) Distribution -->
    <g style="fill: #262626" transform="translate(76.051336 20.925) scale(0.12 -0.12)">
     <defs>
      <path id="FiraCode-Regular-4d" d="M 3482 4519 
L 3738 0 
L 3190 0 
L 3049 2360 
Q 3033 2675 3024 3003 
Q 3016 3331 3013 3598 
Q 3010 3866 3013 3998 
L 2252 811 
L 1680 811 
L 863 3998 
Q 870 3870 873 3591 
Q 876 3312 873 2980 
Q 870 2649 857 2366 
L 735 0 
L 200 0 
L 456 4519 
L 1251 4519 
L 1982 1424 
L 2681 4519 
L 3482 4519 
z
" transform="scale(0.015625)"/>
      <path id="FiraCode-Regular-6f" d="M 1976 3528 
Q 2708 3528 3082 3039 
Q 3456 2550 3456 1730 
Q 3456 1201 3285 794 
Q 3115 387 2783 156 
Q 2452 -75 1969 -75 
Q 1237 -75 860 417 
Q 483 909 483 1723 
Q 483 2255 653 2663 
Q 824 3072 1157 3300 
Q 1490 3528 1976 3528 
z
M 1976 3079 
Q 1529 3079 1301 2747 
Q 1073 2416 1073 1723 
Q 1073 1037 1298 707 
Q 1523 377 1969 377 
Q 2416 377 2640 708 
Q 2865 1040 2865 1730 
Q 2865 2419 2642 2749 
Q 2419 3079 1976 3079 
z
" transform="scale(0.015625)"/>
      <path id="FiraCode-Regular-6c" d="M 2005 4848 
L 2005 853 
Q 2005 597 2164 490 
Q 2324 384 2576 384 
Q 2731 384 2873 417 
Q 3016 450 3157 505 
L 3305 102 
Q 3164 33 2955 -21 
Q 2747 -75 2485 -75 
Q 2025 -75 1739 179 
Q 1454 433 1454 883 
L 1454 4411 
L 394 4411 
L 394 4848 
L 2005 4848 
z
" transform="scale(0.015625)"/>
      <path id="FiraCode-Regular-65" d="M 1093 1533 
Q 1116 932 1409 658 
Q 1703 384 2104 384 
Q 2370 384 2583 463 
Q 2796 542 3026 696 
L 3285 331 
Q 3046 141 2734 33 
Q 2422 -75 2097 -75 
Q 1592 -75 1239 151 
Q 886 377 700 782 
Q 515 1188 515 1723 
Q 515 2248 700 2655 
Q 886 3062 1226 3295 
Q 1566 3528 2025 3528 
Q 2678 3528 3054 3075 
Q 3430 2622 3430 1835 
Q 3430 1746 3425 1667 
Q 3420 1589 3417 1533 
L 1093 1533 
z
M 2032 3075 
Q 1648 3075 1388 2802 
Q 1129 2530 1096 1959 
L 2898 1959 
Q 2888 2514 2655 2794 
Q 2422 3075 2032 3075 
z
" transform="scale(0.015625)"/>
      <path id="FiraCode-Regular-63" d="M 2222 400 
Q 2481 400 2706 484 
Q 2931 568 3121 702 
L 3390 341 
Q 3164 148 2845 36 
Q 2527 -75 2222 -75 
Q 1707 -75 1344 146 
Q 981 368 791 770 
Q 601 1172 601 1713 
Q 601 2232 791 2642 
Q 981 3052 1345 3290 
Q 1710 3528 2229 3528 
Q 2888 3528 3384 3128 
L 3115 2760 
Q 2665 3069 2222 3069 
Q 1776 3069 1487 2732 
Q 1198 2396 1198 1713 
Q 1198 1021 1487 710 
Q 1776 400 2222 400 
z
" transform="scale(0.015625)"/>
      <path id="FiraCode-Regular-75" d="M 1211 3456 
L 1211 1008 
Q 1211 666 1352 515 
Q 1493 364 1792 364 
Q 2078 364 2332 526 
Q 2586 689 2727 912 
L 2727 3456 
L 3279 3456 
L 3279 0 
L 2809 0 
L 2764 466 
Q 2560 203 2259 64 
Q 1959 -75 1657 -75 
Q 1155 -75 907 192 
Q 660 459 660 942 
L 660 3456 
L 1211 3456 
z
" transform="scale(0.015625)"/>
      <path id="FiraCode-Regular-61" d="M 3134 755 
Q 3134 545 3203 449 
Q 3272 354 3417 312 
L 3282 -75 
Q 3059 -46 2891 67 
Q 2724 181 2649 410 
Q 2462 171 2181 48 
Q 1900 -75 1566 -75 
Q 1047 -75 748 217 
Q 450 509 450 991 
Q 450 1526 866 1811 
Q 1283 2097 2071 2097 
L 2580 2097 
L 2580 2386 
Q 2580 2760 2361 2916 
Q 2143 3072 1756 3072 
Q 1585 3072 1355 3031 
Q 1126 2990 857 2895 
L 712 3312 
Q 1027 3430 1308 3479 
Q 1589 3528 1841 3528 
Q 2485 3528 2809 3226 
Q 3134 2924 3134 2412 
L 3134 755 
z
M 1707 345 
Q 1963 345 2194 474 
Q 2425 604 2580 834 
L 2580 1723 
L 2081 1723 
Q 1510 1723 1275 1526 
Q 1040 1329 1040 998 
Q 1040 345 1707 345 
z
" transform="scale(0.015625)"/>
      <path id="FiraCode-Regular-72" d="M 693 0 
L 693 423 
L 1231 423 
L 1231 3033 
L 693 3033 
L 693 3456 
L 1651 3456 
L 1753 2639 
Q 1953 3065 2238 3298 
Q 2524 3531 2993 3531 
Q 3138 3531 3251 3510 
Q 3364 3489 3482 3456 
L 3404 2288 
L 2951 2288 
L 2951 3023 
Q 2937 3023 2921 3023 
Q 2127 3023 1782 1887 
L 1782 423 
L 2485 423 
L 2485 0 
L 693 0 
z
" transform="scale(0.015625)"/>
      <path id="FiraCode-Regular-20" transform="scale(0.015625)"/>
      <path id="FiraCode-Regular-57" d="M 3909 4519 
L 3220 0 
L 2471 0 
L 1953 3410 
L 1431 0 
L 666 0 
L 30 4519 
L 601 4519 
L 1083 627 
L 1625 3994 
L 2324 3994 
L 2839 627 
L 3381 4519 
L 3909 4519 
z
" transform="scale(0.015625)"/>
      <path id="FiraCode-Regular-69" d="M 1969 5074 
Q 2153 5074 2263 4962 
Q 2373 4851 2373 4690 
Q 2373 4523 2263 4409 
Q 2153 4296 1969 4296 
Q 1795 4296 1683 4409 
Q 1572 4523 1572 4690 
Q 1572 4851 1683 4962 
Q 1795 5074 1969 5074 
z
M 2409 3456 
L 2409 437 
L 3384 437 
L 3384 0 
L 791 0 
L 791 437 
L 1858 437 
L 1858 3019 
L 824 3019 
L 824 3456 
L 2409 3456 
z
" transform="scale(0.015625)"/>
      <path id="FiraCode-Regular-67" d="M 3469 3824 
L 3640 3305 
Q 3417 3236 3169 3219 
Q 2921 3203 2629 3203 
Q 3230 2928 3230 2334 
Q 3230 1822 2887 1490 
Q 2544 1159 1930 1159 
Q 1756 1159 1639 1175 
Q 1523 1191 1415 1224 
Q 1336 1168 1285 1078 
Q 1234 988 1234 889 
Q 1234 765 1332 683 
Q 1431 601 1697 601 
L 2320 601 
Q 2668 601 2944 476 
Q 3220 351 3380 139 
Q 3541 -72 3541 -338 
Q 3541 -847 3109 -1119 
Q 2678 -1392 1891 -1392 
Q 1339 -1392 1020 -1278 
Q 702 -1165 566 -933 
Q 430 -702 430 -351 
L 929 -351 
Q 929 -551 1007 -682 
Q 1086 -814 1293 -878 
Q 1500 -942 1887 -942 
Q 2458 -942 2720 -799 
Q 2983 -656 2983 -374 
Q 2983 -128 2760 -3 
Q 2537 121 2202 121 
L 1585 121 
Q 1136 121 926 318 
Q 716 515 716 771 
Q 716 1126 1096 1375 
Q 515 1684 515 2330 
Q 515 2681 689 2952 
Q 863 3223 1175 3377 
Q 1487 3531 1894 3531 
Q 2330 3531 2602 3567 
Q 2875 3604 3070 3669 
Q 3266 3735 3469 3824 
z
M 1894 3128 
Q 1477 3128 1278 2901 
Q 1080 2675 1080 2330 
Q 1080 1979 1282 1752 
Q 1484 1526 1907 1526 
Q 2271 1526 2465 1739 
Q 2659 1953 2659 2334 
Q 2659 3128 1894 3128 
z
" transform="scale(0.015625)"/>
      <path id="FiraCode-Regular-68" d="M 1211 4900 
L 1211 2983 
Q 1415 3253 1712 3390 
Q 2009 3528 2314 3528 
Q 2819 3528 3052 3259 
Q 3285 2990 3285 2511 
L 3285 0 
L 2734 0 
L 2734 2498 
Q 2734 2809 2589 2952 
Q 2445 3095 2137 3095 
Q 1940 3095 1762 3006 
Q 1585 2918 1444 2786 
Q 1303 2655 1211 2517 
L 1211 0 
L 660 0 
L 660 4841 
L 1211 4900 
z
" transform="scale(0.015625)"/>
      <path id="FiraCode-Regular-74" d="M 3404 174 
Q 3226 56 2973 -9 
Q 2721 -75 2478 -75 
Q 1920 -75 1618 217 
Q 1316 509 1316 968 
L 1316 3029 
L 522 3029 
L 522 3456 
L 1316 3456 
L 1316 4240 
L 1868 4306 
L 1868 3456 
L 3062 3456 
L 2997 3029 
L 1868 3029 
L 1868 975 
Q 1868 686 2020 535 
Q 2173 384 2527 384 
Q 2721 384 2885 430 
Q 3049 476 3190 548 
L 3404 174 
z
" transform="scale(0.015625)"/>
      <path id="FiraCode-Regular-28" d="M 1395 2297 
Q 1395 1611 1551 1114 
Q 1707 617 2018 207 
Q 2330 -203 2800 -617 
L 2511 -919 
Q 1979 -486 1600 -29 
Q 1221 427 1019 988 
Q 817 1549 817 2297 
Q 817 3046 1019 3607 
Q 1221 4168 1600 4624 
Q 1979 5081 2511 5514 
L 2800 5212 
Q 2445 4897 2181 4593 
Q 1917 4290 1743 3955 
Q 1569 3620 1482 3216 
Q 1395 2813 1395 2297 
z
" transform="scale(0.015625)"/>
      <path id="FiraCode-Regular-29" d="M 2544 2297 
Q 2544 2813 2457 3216 
Q 2370 3620 2196 3955 
Q 2022 4290 1757 4593 
Q 1493 4897 1139 5212 
L 1428 5514 
Q 1959 5081 2338 4624 
Q 2718 4168 2919 3607 
Q 3121 3046 3121 2297 
Q 3121 1549 2919 988 
Q 2718 427 2338 -29 
Q 1959 -486 1428 -919 
L 1139 -617 
Q 1608 -203 1920 207 
Q 2232 617 2388 1114 
Q 2544 1611 2544 2297 
z
" transform="scale(0.015625)"/>
      <path id="FiraCode-Regular-44" d="M 3627 2281 
Q 3627 1572 3443 1124 
Q 3259 676 2957 431 
Q 2655 187 2295 93 
Q 1936 0 1585 0 
L 548 0 
L 548 4519 
L 1513 4519 
Q 1910 4519 2286 4430 
Q 2662 4342 2965 4104 
Q 3269 3866 3448 3426 
Q 3627 2987 3627 2281 
z
M 3020 2281 
Q 3020 2872 2895 3226 
Q 2770 3581 2566 3758 
Q 2363 3935 2122 3994 
Q 1881 4053 1648 4053 
L 1116 4053 
L 1116 456 
L 1654 456 
Q 1897 456 2140 533 
Q 2383 610 2581 807 
Q 2780 1004 2900 1362 
Q 3020 1720 3020 2281 
z
" transform="scale(0.015625)"/>
      <path id="FiraCode-Regular-73" d="M 1835 381 
Q 2235 381 2465 528 
Q 2695 676 2695 929 
Q 2695 1083 2637 1198 
Q 2580 1313 2402 1406 
Q 2225 1500 1858 1592 
Q 1500 1680 1236 1796 
Q 972 1913 825 2100 
Q 679 2288 679 2586 
Q 679 3023 1043 3275 
Q 1408 3528 1992 3528 
Q 2409 3528 2719 3416 
Q 3029 3305 3246 3147 
L 3003 2773 
Q 2809 2908 2571 2995 
Q 2334 3082 1999 3082 
Q 1592 3082 1421 2955 
Q 1251 2829 1251 2629 
Q 1251 2475 1334 2374 
Q 1418 2274 1618 2195 
Q 1818 2117 2169 2022 
Q 2508 1930 2760 1805 
Q 3013 1680 3152 1478 
Q 3292 1277 3292 955 
Q 3292 587 3082 359 
Q 2872 131 2539 28 
Q 2206 -75 1835 -75 
Q 1365 -75 1035 61 
Q 706 197 483 391 
L 798 755 
Q 1001 587 1265 484 
Q 1529 381 1835 381 
z
" transform="scale(0.015625)"/>
      <path id="FiraCode-Regular-62" d="M 1211 3006 
Q 1398 3256 1649 3392 
Q 1900 3528 2196 3528 
Q 2659 3528 2944 3305 
Q 3230 3082 3361 2676 
Q 3492 2271 3492 1730 
Q 3492 1208 3336 799 
Q 3180 391 2875 158 
Q 2570 -75 2124 -75 
Q 1523 -75 1182 358 
L 1142 0 
L 660 0 
L 660 4848 
L 1211 4917 
L 1211 3006 
z
M 1992 371 
Q 2425 371 2658 705 
Q 2892 1040 2892 1733 
Q 2892 3085 2078 3085 
Q 1789 3085 1569 2913 
Q 1349 2741 1211 2530 
L 1211 817 
Q 1346 610 1551 490 
Q 1756 371 1992 371 
z
" transform="scale(0.015625)"/>
      <path id="FiraCode-Regular-6e" d="M 660 0 
L 660 3456 
L 1129 3456 
L 1172 2977 
Q 1382 3243 1697 3385 
Q 2012 3528 2314 3528 
Q 2823 3528 3054 3259 
Q 3285 2990 3285 2511 
L 3285 0 
L 2734 0 
L 2734 2104 
Q 2734 2458 2694 2674 
Q 2655 2891 2529 2993 
Q 2403 3095 2143 3095 
Q 1940 3095 1761 3006 
Q 1582 2918 1442 2785 
Q 1303 2652 1211 2517 
L 1211 0 
L 660 0 
z
" transform="scale(0.015625)"/>
     </defs>
     <use xlink:href="#FiraCode-Regular-4d"/>
     <use xlink:href="#FiraCode-Regular-6f" transform="translate(61.538452 0)"/>
     <use xlink:href="#FiraCode-Regular-6c" transform="translate(123.076904 0)"/>
     <use xlink:href="#FiraCode-Regular-65" transform="translate(184.615356 0)"/>
     <use xlink:href="#FiraCode-Regular-63" transform="translate(246.153809 0)"/>
     <use xlink:href="#FiraCode-Regular-75" transform="translate(307.692261 0)"/>
     <use xlink:href="#FiraCode-Regular-6c" transform="translate(369.230713 0)"/>
     <use xlink:href="#FiraCode-Regular-61" transform="translate(430.769165 0)"/>
     <use xlink:href="#FiraCode-Regular-72" transform="translate(492.307617 0)"/>
     <use xlink:href="#FiraCode-Regular-20" transform="translate(553.846069 0)"/>
     <use xlink:href="#FiraCode-Regular-57" transform="translate(615.384521 0)"/>
     <use xlink:href="#FiraCode-Regular-65" transform="translate(676.922974 0)"/>
     <use xlink:href="#FiraCode-Regular-69" transform="translate(738.461426 0)"/>
     <use xlink:href="#FiraCode-Regular-67" transform="translate(799.999878 0)"/>
     <use xlink:href="#FiraCode-Regular-68" transform="translate(861.53833 0)"/>
     <use xlink:href="#FiraCode-Regular-74" transform="translate(923.076782 0)"/>
     <use xlink:href="#FiraCode-Regular-20" transform="translate(984.615234 0)"/>
     <use xlink:href="#FiraCode-Regular-28" transform="translate(1046.153687 0)"/>
     <use xlink:href="#FiraCode-Regular-4d" transform="translate(1107.692139 0)"/>
     <use xlink:href="#FiraCode-Regular-57" transform="translate(1169.230591 0)"/>
     <use xlink:href="#FiraCode-Regular-29" transform="translate(1230.769043 0)"/>
     <use xlink:href="#FiraCode-Regular-20" transform="translate(1292.307495 0)"/>
     <use xlink:href="#FiraCode-Regular-44" transform="translate(1353.845947 0)"/>
     <use xlink:href="#FiraCode-Regular-69" transform="translate(1415.384399 0)"/>
     <use xlink:href="#FiraCode-Regular-73" transform="translate(1476.922852 0)"/>
     <use xlink:href="#FiraCode-Regular-74" transform="translate(1538.461304 0)"/>
     <use xlink:href="#FiraCode-Regular-72" transform="translate(1599.999756 0)"/>
     <use xlink:href="#FiraCode-Regular-69" transform="translate(1661.538208 0)"/>
     <use xlink:href="#FiraCode-Regular-62" transform="translate(1723.07666 0)"/>
     <use xlink:href="#FiraCode-Regular-75" transform="translate(1784.615112 0)"/>
     <use xlink:href="#FiraCode-Regular-74" transform="translate(1846.153564 0)"/>
     <use xlink:href="#FiraCode-Regular-69" transform="translate(1907.692017 0)"/>
     <use xlink:href="#FiraCode-Regular-6f" transform="translate(1969.230469 0)"/>
     <use xlink:href="#FiraCode-Regular-6e" transform="translate(2030.768921 0)"/>
    </g>
   </g>
  </g>
  <g id="axes_2">
   <g id="patch_27">
    <path d="M 405.923039 260.12 
L 711.896961 260.12 
L 711.896961 26.925 
L 405.923039 26.925 
z
" style="fill: #ffffff"/>
   </g>
   <g id="matplotlib.axis_3">
    <g id="xtick_10">
     <g id="line2d_19">
      <path d="M 419.830944 260.12 
L 419.830944 26.925 
" clip-path="url(#p745864a578)" style="fill: none; stroke: #cccccc; stroke-width: 0.8; stroke-linecap: round"/>
     </g>
     <g id="text_20">
      <!-- 0 -->
      <g style="fill: #262626" transform="translate(417.050476 274.277812) scale(0.1 -0.1)">
       <use xlink:href="#ArialMT-30"/>
      </g>
     </g>
    </g>
    <g id="xtick_11">
     <g id="line2d_20">
      <path d="M 454.600708 260.12 
L 454.600708 26.925 
" clip-path="url(#p745864a578)" style="fill: none; stroke: #cccccc; stroke-width: 0.8; stroke-linecap: round"/>
     </g>
     <g id="text_21">
      <!-- 1 -->
      <g style="fill: #262626" transform="translate(451.82024 274.277812) scale(0.1 -0.1)">
       <use xlink:href="#ArialMT-31"/>
      </g>
     </g>
    </g>
    <g id="xtick_12">
     <g id="line2d_21">
      <path d="M 489.370472 260.12 
L 489.370472 26.925 
" clip-path="url(#p745864a578)" style="fill: none; stroke: #cccccc; stroke-width: 0.8; stroke-linecap: round"/>
     </g>
     <g id="text_22">
      <!-- 2 -->
      <g style="fill: #262626" transform="translate(486.590003 274.277812) scale(0.1 -0.1)">
       <use xlink:href="#ArialMT-32"/>
      </g>
     </g>
    </g>
    <g id="xtick_13">
     <g id="line2d_22">
      <path d="M 524.140236 260.12 
L 524.140236 26.925 
" clip-path="url(#p745864a578)" style="fill: none; stroke: #cccccc; stroke-width: 0.8; stroke-linecap: round"/>
     </g>
     <g id="text_23">
      <!-- 3 -->
      <g style="fill: #262626" transform="translate(521.359767 274.277812) scale(0.1 -0.1)">
       <use xlink:href="#ArialMT-33"/>
      </g>
     </g>
    </g>
    <g id="xtick_14">
     <g id="line2d_23">
      <path d="M 558.91 260.12 
L 558.91 26.925 
" clip-path="url(#p745864a578)" style="fill: none; stroke: #cccccc; stroke-width: 0.8; stroke-linecap: round"/>
     </g>
     <g id="text_24">
      <!-- 4 -->
      <g style="fill: #262626" transform="translate(556.129531 274.277812) scale(0.1 -0.1)">
       <use xlink:href="#ArialMT-34"/>
      </g>
     </g>
    </g>
    <g id="xtick_15">
     <g id="line2d_24">
      <path d="M 593.679764 260.12 
L 593.679764 26.925 
" clip-path="url(#p745864a578)" style="fill: none; stroke: #cccccc; stroke-width: 0.8; stroke-linecap: round"/>
     </g>
     <g id="text_25">
      <!-- 5 -->
      <g style="fill: #262626" transform="translate(590.899295 274.277812) scale(0.1 -0.1)">
       <use xlink:href="#ArialMT-35"/>
      </g>
     </g>
    </g>
    <g id="xtick_16">
     <g id="line2d_25">
      <path d="M 628.449528 260.12 
L 628.449528 26.925 
" clip-path="url(#p745864a578)" style="fill: none; stroke: #cccccc; stroke-width: 0.8; stroke-linecap: round"/>
     </g>
     <g id="text_26">
      <!-- 6 -->
      <g style="fill: #262626" transform="translate(625.669059 274.277812) scale(0.1 -0.1)">
       <use xlink:href="#ArialMT-36"/>
      </g>
     </g>
    </g>
    <g id="xtick_17">
     <g id="line2d_26">
      <path d="M 663.219292 260.12 
L 663.219292 26.925 
" clip-path="url(#p745864a578)" style="fill: none; stroke: #cccccc; stroke-width: 0.8; stroke-linecap: round"/>
     </g>
     <g id="text_27">
      <!-- 7 -->
      <g style="fill: #262626" transform="translate(660.438823 274.277812) scale(0.1 -0.1)">
       <use xlink:href="#ArialMT-37"/>
      </g>
     </g>
    </g>
    <g id="xtick_18">
     <g id="line2d_27">
      <path d="M 697.989056 260.12 
L 697.989056 26.925 
" clip-path="url(#p745864a578)" style="fill: none; stroke: #cccccc; stroke-width: 0.8; stroke-linecap: round"/>
     </g>
     <g id="text_28">
      <!-- 8 -->
      <g style="fill: #262626" transform="translate(695.208587 274.277812) scale(0.1 -0.1)">
       <use xlink:href="#ArialMT-38"/>
      </g>
     </g>
    </g>
   </g>
   <g id="matplotlib.axis_4">
    <g id="ytick_9">
     <g id="line2d_28">
      <path d="M 405.923039 260.12 
L 711.896961 260.12 
" clip-path="url(#p745864a578)" style="fill: none; stroke: #cccccc; stroke-width: 0.8; stroke-linecap: round"/>
     </g>
     <g id="text_29">
      <!-- 0 -->
      <g style="fill: #262626" transform="translate(393.362101 263.698906) scale(0.1 -0.1)">
       <use xlink:href="#ArialMT-30"/>
      </g>
     </g>
    </g>
    <g id="ytick_10">
     <g id="line2d_29">
      <path d="M 405.923039 222.529632 
L 711.896961 222.529632 
" clip-path="url(#p745864a578)" style="fill: none; stroke: #cccccc; stroke-width: 0.8; stroke-linecap: round"/>
     </g>
     <g id="text_30">
      <!-- 100 -->
      <g style="fill: #262626" transform="translate(382.240226 226.108538) scale(0.1 -0.1)">
       <use xlink:href="#ArialMT-31"/>
       <use xlink:href="#ArialMT-30" transform="translate(55.615234 0)"/>
       <use xlink:href="#ArialMT-30" transform="translate(111.230469 0)"/>
      </g>
     </g>
    </g>
    <g id="ytick_11">
     <g id="line2d_30">
      <path d="M 405.923039 184.939264 
L 711.896961 184.939264 
" clip-path="url(#p745864a578)" style="fill: none; stroke: #cccccc; stroke-width: 0.8; stroke-linecap: round"/>
     </g>
     <g id="text_31">
      <!-- 200 -->
      <g style="fill: #262626" transform="translate(382.240226 188.51817) scale(0.1 -0.1)">
       <use xlink:href="#ArialMT-32"/>
       <use xlink:href="#ArialMT-30" transform="translate(55.615234 0)"/>
       <use xlink:href="#ArialMT-30" transform="translate(111.230469 0)"/>
      </g>
     </g>
    </g>
    <g id="ytick_12">
     <g id="line2d_31">
      <path d="M 405.923039 147.348896 
L 711.896961 147.348896 
" clip-path="url(#p745864a578)" style="fill: none; stroke: #cccccc; stroke-width: 0.8; stroke-linecap: round"/>
     </g>
     <g id="text_32">
      <!-- 300 -->
      <g style="fill: #262626" transform="translate(382.240226 150.927802) scale(0.1 -0.1)">
       <use xlink:href="#ArialMT-33"/>
       <use xlink:href="#ArialMT-30" transform="translate(55.615234 0)"/>
       <use xlink:href="#ArialMT-30" transform="translate(111.230469 0)"/>
      </g>
     </g>
    </g>
    <g id="ytick_13">
     <g id="line2d_32">
      <path d="M 405.923039 109.758528 
L 711.896961 109.758528 
" clip-path="url(#p745864a578)" style="fill: none; stroke: #cccccc; stroke-width: 0.8; stroke-linecap: round"/>
     </g>
     <g id="text_33">
      <!-- 400 -->
      <g style="fill: #262626" transform="translate(382.240226 113.337434) scale(0.1 -0.1)">
       <use xlink:href="#ArialMT-34"/>
       <use xlink:href="#ArialMT-30" transform="translate(55.615234 0)"/>
       <use xlink:href="#ArialMT-30" transform="translate(111.230469 0)"/>
      </g>
     </g>
    </g>
    <g id="ytick_14">
     <g id="line2d_33">
      <path d="M 405.923039 72.16816 
L 711.896961 72.16816 
" clip-path="url(#p745864a578)" style="fill: none; stroke: #cccccc; stroke-width: 0.8; stroke-linecap: round"/>
     </g>
     <g id="text_34">
      <!-- 500 -->
      <g style="fill: #262626" transform="translate(382.240226 75.747066) scale(0.1 -0.1)">
       <use xlink:href="#ArialMT-35"/>
       <use xlink:href="#ArialMT-30" transform="translate(55.615234 0)"/>
       <use xlink:href="#ArialMT-30" transform="translate(111.230469 0)"/>
      </g>
     </g>
    </g>
    <g id="ytick_15">
     <g id="line2d_34">
      <path d="M 405.923039 34.577791 
L 711.896961 34.577791 
" clip-path="url(#p745864a578)" style="fill: none; stroke: #cccccc; stroke-width: 0.8; stroke-linecap: round"/>
     </g>
     <g id="text_35">
      <!-- 600 -->
      <g style="fill: #262626" transform="translate(382.240226 38.156698) scale(0.1 -0.1)">
       <use xlink:href="#ArialMT-36"/>
       <use xlink:href="#ArialMT-30" transform="translate(55.615234 0)"/>
       <use xlink:href="#ArialMT-30" transform="translate(111.230469 0)"/>
      </g>
     </g>
    </g>
    <g id="text_36">
     <!-- Count -->
     <g style="fill: #262626" transform="translate(376.252726 156.863906) rotate(-90) scale(0.1 -0.1)">
      <use xlink:href="#ArialMT-43"/>
      <use xlink:href="#ArialMT-6f" transform="translate(72.216797 0)"/>
      <use xlink:href="#ArialMT-75" transform="translate(127.832031 0)"/>
      <use xlink:href="#ArialMT-6e" transform="translate(183.447266 0)"/>
      <use xlink:href="#ArialMT-74" transform="translate(239.0625 0)"/>
     </g>
    </g>
   </g>
   <g id="patch_28">
    <path d="M 419.830944 260.12 
L 447.646756 260.12 
L 447.646756 69.16093 
L 419.830944 69.16093 
z
" clip-path="url(#p745864a578)" style="fill: #fdc422; fill-opacity: 0.5; stroke: #ffffff; stroke-linejoin: miter"/>
   </g>
   <g id="patch_29">
    <path d="M 447.646756 260.12 
L 475.462567 260.12 
L 475.462567 168.775406 
L 447.646756 168.775406 
z
" clip-path="url(#p745864a578)" style="fill: #fdc422; fill-opacity: 0.5; stroke: #ffffff; stroke-linejoin: miter"/>
   </g>
   <g id="patch_30">
    <path d="M 475.462567 260.12 
L 503.278378 260.12 
L 503.278378 217.642884 
L 475.462567 217.642884 
z
" clip-path="url(#p745864a578)" style="fill: #fdc422; fill-opacity: 0.5; stroke: #ffffff; stroke-linejoin: miter"/>
   </g>
   <g id="patch_31">
    <path d="M 503.278378 260.12 
L 531.094189 260.12 
L 531.094189 254.105541 
L 503.278378 254.105541 
z
" clip-path="url(#p745864a578)" style="fill: #fdc422; fill-opacity: 0.5; stroke: #ffffff; stroke-linejoin: miter"/>
   </g>
   <g id="patch_32">
    <path d="M 531.094189 260.12 
L 558.91 260.12 
L 558.91 260.12 
L 531.094189 260.12 
z
" clip-path="url(#p745864a578)" style="fill: #fdc422; fill-opacity: 0.5; stroke: #ffffff; stroke-linejoin: miter"/>
   </g>
   <g id="patch_33">
    <path d="M 558.91 260.12 
L 586.725811 260.12 
L 586.725811 256.736867 
L 558.91 256.736867 
z
" clip-path="url(#p745864a578)" style="fill: #fdc422; fill-opacity: 0.5; stroke: #ffffff; stroke-linejoin: miter"/>
   </g>
   <g id="patch_34">
    <path d="M 586.725811 260.12 
L 614.541622 260.12 
L 614.541622 258.616385 
L 586.725811 258.616385 
z
" clip-path="url(#p745864a578)" style="fill: #fdc422; fill-opacity: 0.5; stroke: #ffffff; stroke-linejoin: miter"/>
   </g>
   <g id="patch_35">
    <path d="M 614.541622 260.12 
L 642.357433 260.12 
L 642.357433 257.864578 
L 614.541622 257.864578 
z
" clip-path="url(#p745864a578)" style="fill: #fdc422; fill-opacity: 0.5; stroke: #ffffff; stroke-linejoin: miter"/>
   </g>
   <g id="patch_36">
    <path d="M 642.357433 260.12 
L 670.173244 260.12 
L 670.173244 259.744096 
L 642.357433 259.744096 
z
" clip-path="url(#p745864a578)" style="fill: #fdc422; fill-opacity: 0.5; stroke: #ffffff; stroke-linejoin: miter"/>
   </g>
   <g id="patch_37">
    <path d="M 670.173244 260.12 
L 697.989056 260.12 
L 697.989056 259.368193 
L 670.173244 259.368193 
z
" clip-path="url(#p745864a578)" style="fill: #fdc422; fill-opacity: 0.5; stroke: #ffffff; stroke-linejoin: miter"/>
   </g>
   <g id="line2d_35">
    <path d="M 419.830944 38.029524 
L 421.228724 40.299435 
L 422.626503 47.09354 
L 424.024283 57.948131 
L 425.422062 72.148838 
L 426.819842 88.796061 
L 432.41096 159.825923 
L 433.808739 174.207077 
L 435.206518 185.946883 
L 436.604298 194.726043 
L 438.002077 200.415739 
L 439.399857 203.063885 
L 440.797636 202.87611 
L 442.195416 200.194121 
L 443.593195 195.472536 
L 444.990975 189.253996 
L 449.184313 167.758556 
L 450.582092 161.697826 
L 451.979872 157.087655 
L 453.377651 154.315104 
L 454.775431 153.625271 
L 456.17321 155.105656 
L 457.57099 158.684052 
L 458.968769 164.140585 
L 460.366549 171.132576 
L 463.162108 187.950694 
L 465.957666 205.348227 
L 467.355446 213.164342 
L 468.753225 219.935937 
L 470.151005 225.430374 
L 471.548784 229.508059 
L 472.946564 232.119403 
L 474.344343 233.297639 
L 475.742123 233.149306 
L 477.139902 231.843617 
L 478.537681 229.601198 
L 479.935461 226.682062 
L 484.128799 216.76608 
L 485.526579 214.031432 
L 486.924358 211.995353 
L 488.322138 210.832174 
L 489.719917 210.649232 
L 491.117697 211.480637 
L 492.515476 213.287454 
L 493.913255 215.964485 
L 495.311035 219.352894 
L 498.106594 227.463611 
L 500.902153 235.951835 
L 502.299932 239.874076 
L 503.697712 243.400517 
L 505.095491 246.446314 
L 506.493271 248.967192 
L 507.89105 250.955305 
L 509.288829 252.433086 
L 510.686609 253.446218 
L 512.084388 254.056658 
L 513.482168 254.336302 
L 514.879947 254.361591 
L 517.675506 253.951824 
L 521.868845 253.171885 
L 523.266624 253.064485 
L 524.664403 253.080424 
L 526.062183 253.228433 
L 527.459962 253.504916 
L 530.255521 254.37724 
L 537.244418 257.09486 
L 540.039977 257.815334 
L 542.835536 258.139224 
L 545.631095 258.070241 
L 548.426654 257.693004 
L 555.415551 256.40931 
L 558.21111 256.184567 
L 561.006669 256.272443 
L 563.802228 256.657279 
L 567.995566 257.572662 
L 572.188905 258.48645 
L 574.984464 258.910048 
L 577.780023 259.125586 
L 580.575582 259.139109 
L 584.76892 258.88897 
L 591.757817 258.395211 
L 595.951155 258.411013 
L 600.144494 258.697683 
L 607.133391 259.255616 
L 609.92895 259.309954 
L 612.724509 259.205721 
L 616.917847 258.765598 
L 625.304524 257.629568 
L 628.100083 257.497158 
L 630.895642 257.580886 
L 633.691201 257.861357 
L 646.271216 259.570494 
L 650.464554 259.757358 
L 656.055672 259.750134 
L 665.840128 259.695005 
L 682.613482 259.825576 
L 691.000158 259.445222 
L 696.591276 259.254523 
L 697.989056 259.245603 
L 697.989056 259.245603 
" clip-path="url(#p745864a578)" style="fill: none; stroke: #fdc422; stroke-width: 1.5; stroke-linecap: round"/>
   </g>
   <g id="patch_38">
    <path d="M 405.923039 260.12 
L 405.923039 26.925 
" style="fill: none; stroke: #cccccc; stroke-width: 0.8; stroke-linejoin: miter; stroke-linecap: square"/>
   </g>
   <g id="patch_39">
    <path d="M 711.896961 260.12 
L 711.896961 26.925 
" style="fill: none; stroke: #cccccc; stroke-width: 0.8; stroke-linejoin: miter; stroke-linecap: square"/>
   </g>
   <g id="patch_40">
    <path d="M 405.923039 260.12 
L 711.896961 260.12 
" style="fill: none; stroke: #cccccc; stroke-width: 0.8; stroke-linejoin: miter; stroke-linecap: square"/>
   </g>
   <g id="patch_41">
    <path d="M 405.923039 26.925 
L 711.896961 26.925 
" style="fill: none; stroke: #cccccc; stroke-width: 0.8; stroke-linejoin: miter; stroke-linecap: square"/>
   </g>
   <g id="text_37">
    <!-- NHBA Distribution -->
    <g style="fill: #262626" transform="translate(496.132187 20.925) scale(0.12 -0.12)">
     <defs>
      <path id="FiraCode-Regular-4e" d="M 2593 0 
L 1001 3975 
Q 1004 3876 1024 3602 
Q 1044 3328 1060 2972 
Q 1077 2616 1077 2265 
L 1077 0 
L 548 0 
L 548 4519 
L 1319 4519 
L 2937 528 
Q 2934 624 2914 878 
Q 2895 1132 2878 1491 
Q 2862 1851 2862 2258 
L 2862 4519 
L 3390 4519 
L 3390 0 
L 2593 0 
z
" transform="scale(0.015625)"/>
      <path id="FiraCode-Regular-48" d="M 2823 0 
L 2823 2143 
L 1116 2143 
L 1116 0 
L 548 0 
L 548 4519 
L 1116 4519 
L 1116 2609 
L 2823 2609 
L 2823 4519 
L 3390 4519 
L 3390 0 
L 2823 0 
z
" transform="scale(0.015625)"/>
      <path id="FiraCode-Regular-42" d="M 3541 1290 
Q 3541 919 3395 671 
Q 3249 423 3004 275 
Q 2760 128 2460 64 
Q 2160 0 1848 0 
L 633 0 
L 633 4519 
L 1746 4519 
Q 2041 4519 2327 4465 
Q 2613 4411 2842 4281 
Q 3072 4152 3208 3932 
Q 3344 3712 3344 3381 
Q 3344 3088 3224 2886 
Q 3105 2685 2913 2563 
Q 2721 2442 2504 2393 
Q 2754 2350 2992 2236 
Q 3230 2123 3385 1897 
Q 3541 1671 3541 1290 
z
M 2760 3351 
Q 2760 3735 2522 3897 
Q 2284 4060 1874 4060 
L 1201 4060 
L 1201 2596 
L 1930 2596 
Q 2330 2596 2545 2775 
Q 2760 2954 2760 3351 
z
M 2941 1270 
Q 2941 1611 2808 1796 
Q 2675 1982 2455 2054 
Q 2235 2127 1973 2127 
L 1201 2127 
L 1201 469 
L 1946 469 
Q 2169 469 2399 530 
Q 2629 591 2785 763 
Q 2941 935 2941 1270 
z
" transform="scale(0.015625)"/>
      <path id="FiraCode-Regular-41" d="M 2846 1152 
L 1057 1152 
L 696 0 
L 135 0 
L 1605 4519 
L 2334 4519 
L 3804 0 
L 3207 0 
L 2846 1152 
z
M 1205 1625 
L 2698 1625 
L 1956 4040 
L 1205 1625 
z
" transform="scale(0.015625)"/>
     </defs>
     <use xlink:href="#FiraCode-Regular-4e"/>
     <use xlink:href="#FiraCode-Regular-48" transform="translate(61.538452 0)"/>
     <use xlink:href="#FiraCode-Regular-42" transform="translate(123.076904 0)"/>
     <use xlink:href="#FiraCode-Regular-41" transform="translate(184.615356 0)"/>
     <use xlink:href="#FiraCode-Regular-20" transform="translate(246.153809 0)"/>
     <use xlink:href="#FiraCode-Regular-44" transform="translate(307.692261 0)"/>
     <use xlink:href="#FiraCode-Regular-69" transform="translate(369.230713 0)"/>
     <use xlink:href="#FiraCode-Regular-73" transform="translate(430.769165 0)"/>
     <use xlink:href="#FiraCode-Regular-74" transform="translate(492.307617 0)"/>
     <use xlink:href="#FiraCode-Regular-72" transform="translate(553.846069 0)"/>
     <use xlink:href="#FiraCode-Regular-69" transform="translate(615.384521 0)"/>
     <use xlink:href="#FiraCode-Regular-62" transform="translate(676.922974 0)"/>
     <use xlink:href="#FiraCode-Regular-75" transform="translate(738.461426 0)"/>
     <use xlink:href="#FiraCode-Regular-74" transform="translate(799.999878 0)"/>
     <use xlink:href="#FiraCode-Regular-69" transform="translate(861.53833 0)"/>
     <use xlink:href="#FiraCode-Regular-6f" transform="translate(923.076782 0)"/>
     <use xlink:href="#FiraCode-Regular-6e" transform="translate(984.615234 0)"/>
    </g>
   </g>
  </g>
  <g id="axes_3">
   <g id="patch_42">
    <path d="M 763.226078 260.12 
L 1069.2 260.12 
L 1069.2 26.925 
L 763.226078 26.925 
z
" style="fill: #ffffff"/>
   </g>
   <g id="matplotlib.axis_5">
    <g id="xtick_19">
     <g id="line2d_36">
      <path d="M 768.692159 260.12 
L 768.692159 26.925 
" clip-path="url(#pafb13f982d)" style="fill: none; stroke: #cccccc; stroke-width: 0.8; stroke-linecap: round"/>
     </g>
     <g id="text_38">
      <!-- 12 -->
      <g style="fill: #262626" transform="translate(760.210909 274.277812) scale(0.1 -0.1)">
       <defs>
        <path id="ArialMT-2212" d="M 3381 1997 
L 356 1997 
L 356 2522 
L 3381 2522 
L 3381 1997 
z
" transform="scale(0.015625)"/>
       </defs>
       <use xlink:href="#ArialMT-2212"/>
       <use xlink:href="#ArialMT-31" transform="translate(58.398438 0)"/>
       <use xlink:href="#ArialMT-32" transform="translate(114.013672 0)"/>
      </g>
     </g>
    </g>
    <g id="xtick_20">
     <g id="line2d_37">
      <path d="M 810.901281 260.12 
L 810.901281 26.925 
" clip-path="url(#pafb13f982d)" style="fill: none; stroke: #cccccc; stroke-width: 0.8; stroke-linecap: round"/>
     </g>
     <g id="text_39">
      <!-- 10 -->
      <g style="fill: #262626" transform="translate(802.420031 274.277812) scale(0.1 -0.1)">
       <use xlink:href="#ArialMT-2212"/>
       <use xlink:href="#ArialMT-31" transform="translate(58.398438 0)"/>
       <use xlink:href="#ArialMT-30" transform="translate(114.013672 0)"/>
      </g>
     </g>
    </g>
    <g id="xtick_21">
     <g id="line2d_38">
      <path d="M 853.110402 260.12 
L 853.110402 26.925 
" clip-path="url(#pafb13f982d)" style="fill: none; stroke: #cccccc; stroke-width: 0.8; stroke-linecap: round"/>
     </g>
     <g id="text_40">
      <!-- 8 -->
      <g style="fill: #262626" transform="translate(847.409621 274.277812) scale(0.1 -0.1)">
       <use xlink:href="#ArialMT-2212"/>
       <use xlink:href="#ArialMT-38" transform="translate(58.398438 0)"/>
      </g>
     </g>
    </g>
    <g id="xtick_22">
     <g id="line2d_39">
      <path d="M 895.319524 260.12 
L 895.319524 26.925 
" clip-path="url(#pafb13f982d)" style="fill: none; stroke: #cccccc; stroke-width: 0.8; stroke-linecap: round"/>
     </g>
     <g id="text_41">
      <!-- 6 -->
      <g style="fill: #262626" transform="translate(889.618743 274.277812) scale(0.1 -0.1)">
       <use xlink:href="#ArialMT-2212"/>
       <use xlink:href="#ArialMT-36" transform="translate(58.398438 0)"/>
      </g>
     </g>
    </g>
    <g id="xtick_23">
     <g id="line2d_40">
      <path d="M 937.528645 260.12 
L 937.528645 26.925 
" clip-path="url(#pafb13f982d)" style="fill: none; stroke: #cccccc; stroke-width: 0.8; stroke-linecap: round"/>
     </g>
     <g id="text_42">
      <!-- 4 -->
      <g style="fill: #262626" transform="translate(931.827864 274.277812) scale(0.1 -0.1)">
       <use xlink:href="#ArialMT-2212"/>
       <use xlink:href="#ArialMT-34" transform="translate(58.398438 0)"/>
      </g>
     </g>
    </g>
    <g id="xtick_24">
     <g id="line2d_41">
      <path d="M 979.737767 260.12 
L 979.737767 26.925 
" clip-path="url(#pafb13f982d)" style="fill: none; stroke: #cccccc; stroke-width: 0.8; stroke-linecap: round"/>
     </g>
     <g id="text_43">
      <!-- 2 -->
      <g style="fill: #262626" transform="translate(974.036986 274.277812) scale(0.1 -0.1)">
       <use xlink:href="#ArialMT-2212"/>
       <use xlink:href="#ArialMT-32" transform="translate(58.398438 0)"/>
      </g>
     </g>
    </g>
    <g id="xtick_25">
     <g id="line2d_42">
      <path d="M 1021.946888 260.12 
L 1021.946888 26.925 
" clip-path="url(#pafb13f982d)" style="fill: none; stroke: #cccccc; stroke-width: 0.8; stroke-linecap: round"/>
     </g>
     <g id="text_44">
      <!-- 0 -->
      <g style="fill: #262626" transform="translate(1019.16642 274.277812) scale(0.1 -0.1)">
       <use xlink:href="#ArialMT-30"/>
      </g>
     </g>
    </g>
    <g id="xtick_26">
     <g id="line2d_43">
      <path d="M 1064.15601 260.12 
L 1064.15601 26.925 
" clip-path="url(#pafb13f982d)" style="fill: none; stroke: #cccccc; stroke-width: 0.8; stroke-linecap: round"/>
     </g>
     <g id="text_45">
      <!-- 2 -->
      <g style="fill: #262626" transform="translate(1061.375541 274.277812) scale(0.1 -0.1)">
       <use xlink:href="#ArialMT-32"/>
      </g>
     </g>
    </g>
   </g>
   <g id="matplotlib.axis_6">
    <g id="ytick_16">
     <g id="line2d_44">
      <path d="M 763.226078 260.12 
L 1069.2 260.12 
" clip-path="url(#pafb13f982d)" style="fill: none; stroke: #cccccc; stroke-width: 0.8; stroke-linecap: round"/>
     </g>
     <g id="text_46">
      <!-- 0 -->
      <g style="fill: #262626" transform="translate(750.66514 263.698906) scale(0.1 -0.1)">
       <use xlink:href="#ArialMT-30"/>
      </g>
     </g>
    </g>
    <g id="ytick_17">
     <g id="line2d_45">
      <path d="M 763.226078 224.007727 
L 1069.2 224.007727 
" clip-path="url(#pafb13f982d)" style="fill: none; stroke: #cccccc; stroke-width: 0.8; stroke-linecap: round"/>
     </g>
     <g id="text_47">
      <!-- 20 -->
      <g style="fill: #262626" transform="translate(745.104203 227.586634) scale(0.1 -0.1)">
       <use xlink:href="#ArialMT-32"/>
       <use xlink:href="#ArialMT-30" transform="translate(55.615234 0)"/>
      </g>
     </g>
    </g>
    <g id="ytick_18">
     <g id="line2d_46">
      <path d="M 763.226078 187.895455 
L 1069.2 187.895455 
" clip-path="url(#pafb13f982d)" style="fill: none; stroke: #cccccc; stroke-width: 0.8; stroke-linecap: round"/>
     </g>
     <g id="text_48">
      <!-- 40 -->
      <g style="fill: #262626" transform="translate(745.104203 191.474361) scale(0.1 -0.1)">
       <use xlink:href="#ArialMT-34"/>
       <use xlink:href="#ArialMT-30" transform="translate(55.615234 0)"/>
      </g>
     </g>
    </g>
    <g id="ytick_19">
     <g id="line2d_47">
      <path d="M 763.226078 151.783182 
L 1069.2 151.783182 
" clip-path="url(#pafb13f982d)" style="fill: none; stroke: #cccccc; stroke-width: 0.8; stroke-linecap: round"/>
     </g>
     <g id="text_49">
      <!-- 60 -->
      <g style="fill: #262626" transform="translate(745.104203 155.362089) scale(0.1 -0.1)">
       <use xlink:href="#ArialMT-36"/>
       <use xlink:href="#ArialMT-30" transform="translate(55.615234 0)"/>
      </g>
     </g>
    </g>
    <g id="ytick_20">
     <g id="line2d_48">
      <path d="M 763.226078 115.67091 
L 1069.2 115.67091 
" clip-path="url(#pafb13f982d)" style="fill: none; stroke: #cccccc; stroke-width: 0.8; stroke-linecap: round"/>
     </g>
     <g id="text_50">
      <!-- 80 -->
      <g style="fill: #262626" transform="translate(745.104203 119.249816) scale(0.1 -0.1)">
       <use xlink:href="#ArialMT-38"/>
       <use xlink:href="#ArialMT-30" transform="translate(55.615234 0)"/>
      </g>
     </g>
    </g>
    <g id="ytick_21">
     <g id="line2d_49">
      <path d="M 763.226078 79.558637 
L 1069.2 79.558637 
" clip-path="url(#pafb13f982d)" style="fill: none; stroke: #cccccc; stroke-width: 0.8; stroke-linecap: round"/>
     </g>
     <g id="text_51">
      <!-- 100 -->
      <g style="fill: #262626" transform="translate(739.543265 83.137543) scale(0.1 -0.1)">
       <use xlink:href="#ArialMT-31"/>
       <use xlink:href="#ArialMT-30" transform="translate(55.615234 0)"/>
       <use xlink:href="#ArialMT-30" transform="translate(111.230469 0)"/>
      </g>
     </g>
    </g>
    <g id="ytick_22">
     <g id="line2d_50">
      <path d="M 763.226078 43.446365 
L 1069.2 43.446365 
" clip-path="url(#pafb13f982d)" style="fill: none; stroke: #cccccc; stroke-width: 0.8; stroke-linecap: round"/>
     </g>
     <g id="text_52">
      <!-- 120 -->
      <g style="fill: #262626" transform="translate(739.543265 47.025271) scale(0.1 -0.1)">
       <use xlink:href="#ArialMT-31"/>
       <use xlink:href="#ArialMT-32" transform="translate(55.615234 0)"/>
       <use xlink:href="#ArialMT-30" transform="translate(111.230469 0)"/>
      </g>
     </g>
    </g>
    <g id="text_53">
     <!-- Count -->
     <g style="fill: #262626" transform="translate(733.555765 156.863906) rotate(-90) scale(0.1 -0.1)">
      <use xlink:href="#ArialMT-43"/>
      <use xlink:href="#ArialMT-6f" transform="translate(72.216797 0)"/>
      <use xlink:href="#ArialMT-75" transform="translate(127.832031 0)"/>
      <use xlink:href="#ArialMT-6e" transform="translate(183.447266 0)"/>
      <use xlink:href="#ArialMT-74" transform="translate(239.0625 0)"/>
     </g>
    </g>
   </g>
   <g id="patch_43">
    <path d="M 777.133983 260.12 
L 791.041889 260.12 
L 791.041889 258.314386 
L 777.133983 258.314386 
z
" clip-path="url(#pafb13f982d)" style="fill: #fc8d62; fill-opacity: 0.5; stroke: #ffffff; stroke-linejoin: miter"/>
   </g>
   <g id="patch_44">
    <path d="M 791.041889 260.12 
L 804.949795 260.12 
L 804.949795 260.12 
L 791.041889 260.12 
z
" clip-path="url(#pafb13f982d)" style="fill: #fc8d62; fill-opacity: 0.5; stroke: #ffffff; stroke-linejoin: miter"/>
   </g>
   <g id="patch_45">
    <path d="M 804.949795 260.12 
L 818.8577 260.12 
L 818.8577 260.12 
L 804.949795 260.12 
z
" clip-path="url(#pafb13f982d)" style="fill: #fc8d62; fill-opacity: 0.5; stroke: #ffffff; stroke-linejoin: miter"/>
   </g>
   <g id="patch_46">
    <path d="M 818.8577 260.12 
L 832.765606 260.12 
L 832.765606 252.897545 
L 818.8577 252.897545 
z
" clip-path="url(#pafb13f982d)" style="fill: #fc8d62; fill-opacity: 0.5; stroke: #ffffff; stroke-linejoin: miter"/>
   </g>
   <g id="patch_47">
    <path d="M 832.765606 260.12 
L 846.673511 260.12 
L 846.673511 243.869477 
L 832.765606 243.869477 
z
" clip-path="url(#pafb13f982d)" style="fill: #fc8d62; fill-opacity: 0.5; stroke: #ffffff; stroke-linejoin: miter"/>
   </g>
   <g id="patch_48">
    <path d="M 846.673511 260.12 
L 860.581417 260.12 
L 860.581417 240.25825 
L 846.673511 240.25825 
z
" clip-path="url(#pafb13f982d)" style="fill: #fc8d62; fill-opacity: 0.5; stroke: #ffffff; stroke-linejoin: miter"/>
   </g>
   <g id="patch_49">
    <path d="M 860.581417 260.12 
L 874.489322 260.12 
L 874.489322 231.230182 
L 860.581417 231.230182 
z
" clip-path="url(#pafb13f982d)" style="fill: #fc8d62; fill-opacity: 0.5; stroke: #ffffff; stroke-linejoin: miter"/>
   </g>
   <g id="patch_50">
    <path d="M 874.489322 260.12 
L 888.397228 260.12 
L 888.397228 220.3965 
L 874.489322 220.3965 
z
" clip-path="url(#pafb13f982d)" style="fill: #fc8d62; fill-opacity: 0.5; stroke: #ffffff; stroke-linejoin: miter"/>
   </g>
   <g id="patch_51">
    <path d="M 888.397228 260.12 
L 902.305133 260.12 
L 902.305133 205.951591 
L 888.397228 205.951591 
z
" clip-path="url(#pafb13f982d)" style="fill: #fc8d62; fill-opacity: 0.5; stroke: #ffffff; stroke-linejoin: miter"/>
   </g>
   <g id="patch_52">
    <path d="M 902.305133 260.12 
L 916.213039 260.12 
L 916.213039 169.839319 
L 902.305133 169.839319 
z
" clip-path="url(#pafb13f982d)" style="fill: #fc8d62; fill-opacity: 0.5; stroke: #ffffff; stroke-linejoin: miter"/>
   </g>
   <g id="patch_53">
    <path d="M 916.213039 260.12 
L 930.120944 260.12 
L 930.120944 117.476523 
L 916.213039 117.476523 
z
" clip-path="url(#pafb13f982d)" style="fill: #fc8d62; fill-opacity: 0.5; stroke: #ffffff; stroke-linejoin: miter"/>
   </g>
   <g id="patch_54">
    <path d="M 930.120944 260.12 
L 944.02885 260.12 
L 944.02885 97.614774 
L 930.120944 97.614774 
z
" clip-path="url(#pafb13f982d)" style="fill: #fc8d62; fill-opacity: 0.5; stroke: #ffffff; stroke-linejoin: miter"/>
   </g>
   <g id="patch_55">
    <path d="M 944.02885 260.12 
L 957.936756 260.12 
L 957.936756 38.029524 
L 944.02885 38.029524 
z
" clip-path="url(#pafb13f982d)" style="fill: #fc8d62; fill-opacity: 0.5; stroke: #ffffff; stroke-linejoin: miter"/>
   </g>
   <g id="patch_56">
    <path d="M 957.936756 260.12 
L 971.844661 260.12 
L 971.844661 66.919342 
L 957.936756 66.919342 
z
" clip-path="url(#pafb13f982d)" style="fill: #fc8d62; fill-opacity: 0.5; stroke: #ffffff; stroke-linejoin: miter"/>
   </g>
   <g id="patch_57">
    <path d="M 971.844661 260.12 
L 985.752567 260.12 
L 985.752567 43.446365 
L 971.844661 43.446365 
z
" clip-path="url(#pafb13f982d)" style="fill: #fc8d62; fill-opacity: 0.5; stroke: #ffffff; stroke-linejoin: miter"/>
   </g>
   <g id="patch_58">
    <path d="M 985.752567 260.12 
L 999.660472 260.12 
L 999.660472 106.642842 
L 985.752567 106.642842 
z
" clip-path="url(#pafb13f982d)" style="fill: #fc8d62; fill-opacity: 0.5; stroke: #ffffff; stroke-linejoin: miter"/>
   </g>
   <g id="patch_59">
    <path d="M 999.660472 260.12 
L 1013.568378 260.12 
L 1013.568378 117.476523 
L 999.660472 117.476523 
z
" clip-path="url(#pafb13f982d)" style="fill: #fc8d62; fill-opacity: 0.5; stroke: #ffffff; stroke-linejoin: miter"/>
   </g>
   <g id="patch_60">
    <path d="M 1013.568378 260.12 
L 1027.476283 260.12 
L 1027.476283 204.145978 
L 1013.568378 204.145978 
z
" clip-path="url(#pafb13f982d)" style="fill: #fc8d62; fill-opacity: 0.5; stroke: #ffffff; stroke-linejoin: miter"/>
   </g>
   <g id="patch_61">
    <path d="M 1027.476283 260.12 
L 1041.384189 260.12 
L 1041.384189 202.340364 
L 1027.476283 202.340364 
z
" clip-path="url(#pafb13f982d)" style="fill: #fc8d62; fill-opacity: 0.5; stroke: #ffffff; stroke-linejoin: miter"/>
   </g>
   <g id="patch_62">
    <path d="M 1041.384189 260.12 
L 1055.292094 260.12 
L 1055.292094 236.647023 
L 1041.384189 236.647023 
z
" clip-path="url(#pafb13f982d)" style="fill: #fc8d62; fill-opacity: 0.5; stroke: #ffffff; stroke-linejoin: miter"/>
   </g>
   <g id="line2d_51">
    <path d="M 777.133983 259.228308 
L 782.725101 259.330985 
L 798.100675 259.846713 
L 802.294014 259.748947 
L 806.487352 259.415405 
L 809.282911 259.013897 
L 812.07847 258.434514 
L 814.874029 257.654819 
L 817.669588 256.666027 
L 820.465146 255.477688 
L 824.658485 253.38867 
L 831.647382 249.504344 
L 837.2385 246.493061 
L 841.431838 244.45317 
L 848.420735 241.386901 
L 852.614074 239.504243 
L 856.807412 237.343139 
L 859.602971 235.6739 
L 862.39853 233.807234 
L 866.591868 230.679872 
L 870.785207 227.25961 
L 876.376325 222.359942 
L 880.569663 218.384832 
L 884.763001 214.018745 
L 887.55856 210.801726 
L 890.354119 207.256006 
L 893.149678 203.292033 
L 895.945237 198.811434 
L 898.740796 193.720744 
L 901.536355 187.946883 
L 904.331914 181.448764 
L 907.127472 174.22317 
L 909.923031 166.307984 
L 912.71859 157.78752 
L 916.911929 144.192919 
L 923.900826 121.274511 
L 926.696385 112.784836 
L 929.491944 104.992029 
L 932.287503 97.969565 
L 935.083062 91.681284 
L 937.87862 86.013891 
L 940.674179 80.830962 
L 943.469738 76.025626 
L 946.265297 71.550683 
L 949.060856 67.417295 
L 951.856415 63.67018 
L 954.651974 60.359377 
L 957.447533 57.529309 
L 960.243092 55.233893 
L 961.640871 54.313933 
L 963.038651 53.568173 
L 964.43643 53.019027 
L 965.834209 52.692948 
L 967.231989 52.619201 
L 968.629768 52.827965 
L 970.027548 53.347919 
L 971.425327 54.203537 
L 972.823107 55.412392 
L 974.220886 56.98278 
L 975.618666 58.911952 
L 977.016445 61.185193 
L 978.414225 63.77591 
L 981.209783 69.751781 
L 984.005342 76.455655 
L 993.789799 100.614031 
L 999.380916 114.155059 
L 1002.176475 121.520776 
L 1004.972034 129.562737 
L 1007.767593 138.28895 
L 1018.949829 174.49636 
L 1021.745388 182.184601 
L 1024.540946 189.027244 
L 1027.336505 195.162071 
L 1031.529844 203.568905 
L 1039.91652 220.065895 
L 1045.507638 231.177693 
L 1048.303197 236.410466 
L 1051.098756 241.215943 
L 1053.894315 245.472233 
L 1055.292094 247.369558 
L 1055.292094 247.369558 
" clip-path="url(#pafb13f982d)" style="fill: none; stroke: #fc8d62; stroke-width: 1.5; stroke-linecap: round"/>
   </g>
   <g id="patch_63">
    <path d="M 763.226078 260.12 
L 763.226078 26.925 
" style="fill: none; stroke: #cccccc; stroke-width: 0.8; stroke-linejoin: miter; stroke-linecap: square"/>
   </g>
   <g id="patch_64">
    <path d="M 1069.2 260.12 
L 1069.2 26.925 
" style="fill: none; stroke: #cccccc; stroke-width: 0.8; stroke-linejoin: miter; stroke-linecap: square"/>
   </g>
   <g id="patch_65">
    <path d="M 763.226078 260.12 
L 1069.2 260.12 
" style="fill: none; stroke: #cccccc; stroke-width: 0.8; stroke-linejoin: miter; stroke-linecap: square"/>
   </g>
   <g id="patch_66">
    <path d="M 763.226078 26.925 
L 1069.2 26.925 
" style="fill: none; stroke: #cccccc; stroke-width: 0.8; stroke-linejoin: miter; stroke-linecap: square"/>
   </g>
   <g id="text_54">
    <!-- logS Distribution -->
    <g style="fill: #262626" transform="translate(853.435226 20.925) scale(0.12 -0.12)">
     <defs>
      <path id="FiraCode-Regular-53" d="M 3522 1250 
Q 3522 860 3328 561 
Q 3134 263 2765 94 
Q 2396 -75 1871 -75 
Q 1375 -75 973 75 
Q 571 226 286 502 
L 624 883 
Q 857 663 1162 533 
Q 1467 404 1881 404 
Q 2156 404 2396 494 
Q 2636 584 2783 769 
Q 2931 955 2931 1241 
Q 2931 1457 2845 1613 
Q 2760 1769 2543 1889 
Q 2327 2009 1940 2123 
Q 1493 2255 1166 2420 
Q 840 2586 661 2827 
Q 483 3069 483 3430 
Q 483 3768 670 4030 
Q 857 4293 1186 4442 
Q 1516 4592 1946 4592 
Q 2416 4592 2762 4459 
Q 3108 4326 3390 4076 
L 3056 3705 
Q 2813 3919 2534 4017 
Q 2255 4116 1966 4116 
Q 1595 4116 1329 3951 
Q 1063 3787 1063 3449 
Q 1063 3253 1168 3113 
Q 1273 2974 1522 2855 
Q 1772 2737 2202 2613 
Q 2553 2511 2853 2358 
Q 3154 2206 3338 1945 
Q 3522 1684 3522 1250 
z
" transform="scale(0.015625)"/>
     </defs>
     <use xlink:href="#FiraCode-Regular-6c"/>
     <use xlink:href="#FiraCode-Regular-6f" transform="translate(61.538452 0)"/>
     <use xlink:href="#FiraCode-Regular-67" transform="translate(123.076904 0)"/>
     <use xlink:href="#FiraCode-Regular-53" transform="translate(184.615356 0)"/>
     <use xlink:href="#FiraCode-Regular-20" transform="translate(246.153809 0)"/>
     <use xlink:href="#FiraCode-Regular-44" transform="translate(307.692261 0)"/>
     <use xlink:href="#FiraCode-Regular-69" transform="translate(369.230713 0)"/>
     <use xlink:href="#FiraCode-Regular-73" transform="translate(430.769165 0)"/>
     <use xlink:href="#FiraCode-Regular-74" transform="translate(492.307617 0)"/>
     <use xlink:href="#FiraCode-Regular-72" transform="translate(553.846069 0)"/>
     <use xlink:href="#FiraCode-Regular-69" transform="translate(615.384521 0)"/>
     <use xlink:href="#FiraCode-Regular-62" transform="translate(676.922974 0)"/>
     <use xlink:href="#FiraCode-Regular-75" transform="translate(738.461426 0)"/>
     <use xlink:href="#FiraCode-Regular-74" transform="translate(799.999878 0)"/>
     <use xlink:href="#FiraCode-Regular-69" transform="translate(861.53833 0)"/>
     <use xlink:href="#FiraCode-Regular-6f" transform="translate(923.076782 0)"/>
     <use xlink:href="#FiraCode-Regular-6e" transform="translate(984.615234 0)"/>
    </g>
   </g>
  </g>
 </g>
 <defs>
  <clipPath id="p79b7b84dfd">
   <rect x="48.62" y="26.925" width="305.973922" height="233.195"/>
  </clipPath>
  <clipPath id="p745864a578">
   <rect x="405.923039" y="26.925" width="305.973922" height="233.195"/>
  </clipPath>
  <clipPath id="pafb13f982d">
   <rect x="763.226078" y="26.925" width="305.973922" height="233.195"/>
  </clipPath>
 </defs>
</svg>
