<?xml version="1.0" encoding="utf-8" standalone="no"?>
<!DOCTYPE svg PUBLIC "-//W3C//DTD SVG 1.1//EN"
  "http://www.w3.org/Graphics/SVG/1.1/DTD/svg11.dtd">
<svg xmlns:xlink="http://www.w3.org/1999/xlink" width="1080pt" height="288pt" viewBox="0 0 1080 288" xmlns="http://www.w3.org/2000/svg" version="1.1">
 <metadata>
  <rdf:RDF xmlns:dc="http://purl.org/dc/elements/1.1/" xmlns:cc="http://creativecommons.org/ns#" xmlns:rdf="http://www.w3.org/1999/02/22-rdf-syntax-ns#">
   <cc:Work>
    <dc:type rdf:resource="http://purl.org/dc/dcmitype/StillImage"/>
    <dc:date>2025-02-28T14:38:24.321031</dc:date>
    <dc:format>image/svg+xml</dc:format>
    <dc:creator>
     <cc:Agent>
      <dc:title>Matplotlib v3.10.0, https://matplotlib.org/</dc:title>
     </cc:Agent>
    </dc:creator>
   </cc:Work>
  </rdf:RDF>
 </metadata>
 <defs>
  <style type="text/css">*{stroke-linejoin: round; stroke-linecap: butt}</style>
 </defs>
 <g id="figure_1">
  <g id="patch_1">
   <path d="M 0 288 
L 1080 288 
L 1080 0 
L 0 0 
z
" style="fill: #ffffff"/>
  </g>
  <g id="axes_1">
   <g id="patch_2">
    <path d="M 48.62 246.04 
L 350.873922 246.04 
L 350.873922 26.925 
L 48.62 26.925 
z
" style="fill: #ffffff"/>
   </g>
   <g id="matplotlib.axis_1">
    <g id="xtick_1">
     <g id="line2d_1">
      <path d="M 56.595706 246.04 
L 56.595706 26.925 
" clip-path="url(#pc74b68ce37)" style="fill: none; stroke: #cccccc; stroke-width: 0.8; stroke-linecap: round"/>
     </g>
     <g id="text_1">
      <!-- 0 -->
      <g style="fill: #262626" transform="translate(53.815238 260.197812) scale(0.1 -0.1)">
       <defs>
        <path id="ArialMT-30" d="M 266 2259 
Q 266 3072 433 3567 
Q 600 4063 929 4331 
Q 1259 4600 1759 4600 
Q 2128 4600 2406 4451 
Q 2684 4303 2865 4023 
Q 3047 3744 3150 3342 
Q 3253 2941 3253 2259 
Q 3253 1453 3087 958 
Q 2922 463 2592 192 
Q 2263 -78 1759 -78 
Q 1097 -78 719 397 
Q 266 969 266 2259 
z
M 844 2259 
Q 844 1131 1108 757 
Q 1372 384 1759 384 
Q 2147 384 2411 759 
Q 2675 1134 2675 2259 
Q 2675 3391 2411 3762 
Q 2147 4134 1753 4134 
Q 1366 4134 1134 3806 
Q 844 3388 844 2259 
z
" transform="scale(0.015625)"/>
       </defs>
       <use xlink:href="#ArialMT-30"/>
      </g>
     </g>
    </g>
    <g id="xtick_2">
     <g id="line2d_2">
      <path d="M 92.51859 246.04 
L 92.51859 26.925 
" clip-path="url(#pc74b68ce37)" style="fill: none; stroke: #cccccc; stroke-width: 0.8; stroke-linecap: round"/>
     </g>
     <g id="text_2">
      <!-- 100 -->
      <g style="fill: #262626" transform="translate(84.177184 260.197812) scale(0.1 -0.1)">
       <defs>
        <path id="ArialMT-31" d="M 2384 0 
L 1822 0 
L 1822 3584 
Q 1619 3391 1289 3197 
Q 959 3003 697 2906 
L 697 3450 
Q 1169 3672 1522 3987 
Q 1875 4303 2022 4600 
L 2384 4600 
L 2384 0 
z
" transform="scale(0.015625)"/>
       </defs>
       <use xlink:href="#ArialMT-31"/>
       <use xlink:href="#ArialMT-30" transform="translate(55.615234 0)"/>
       <use xlink:href="#ArialMT-30" transform="translate(111.230469 0)"/>
      </g>
     </g>
    </g>
    <g id="xtick_3">
     <g id="line2d_3">
      <path d="M 128.441474 246.04 
L 128.441474 26.925 
" clip-path="url(#pc74b68ce37)" style="fill: none; stroke: #cccccc; stroke-width: 0.8; stroke-linecap: round"/>
     </g>
     <g id="text_3">
      <!-- 200 -->
      <g style="fill: #262626" transform="translate(120.100068 260.197812) scale(0.1 -0.1)">
       <defs>
        <path id="ArialMT-32" d="M 3222 541 
L 3222 0 
L 194 0 
Q 188 203 259 391 
Q 375 700 629 1000 
Q 884 1300 1366 1694 
Q 2113 2306 2375 2664 
Q 2638 3022 2638 3341 
Q 2638 3675 2398 3904 
Q 2159 4134 1775 4134 
Q 1369 4134 1125 3890 
Q 881 3647 878 3216 
L 300 3275 
Q 359 3922 746 4261 
Q 1134 4600 1788 4600 
Q 2447 4600 2831 4234 
Q 3216 3869 3216 3328 
Q 3216 3053 3103 2787 
Q 2991 2522 2730 2228 
Q 2469 1934 1863 1422 
Q 1356 997 1212 845 
Q 1069 694 975 541 
L 3222 541 
z
" transform="scale(0.015625)"/>
       </defs>
       <use xlink:href="#ArialMT-32"/>
       <use xlink:href="#ArialMT-30" transform="translate(55.615234 0)"/>
       <use xlink:href="#ArialMT-30" transform="translate(111.230469 0)"/>
      </g>
     </g>
    </g>
    <g id="xtick_4">
     <g id="line2d_4">
      <path d="M 164.364358 246.04 
L 164.364358 26.925 
" clip-path="url(#pc74b68ce37)" style="fill: none; stroke: #cccccc; stroke-width: 0.8; stroke-linecap: round"/>
     </g>
     <g id="text_4">
      <!-- 300 -->
      <g style="fill: #262626" transform="translate(156.022951 260.197812) scale(0.1 -0.1)">
       <defs>
        <path id="ArialMT-33" d="M 269 1209 
L 831 1284 
Q 928 806 1161 595 
Q 1394 384 1728 384 
Q 2125 384 2398 659 
Q 2672 934 2672 1341 
Q 2672 1728 2419 1979 
Q 2166 2231 1775 2231 
Q 1616 2231 1378 2169 
L 1441 2663 
Q 1497 2656 1531 2656 
Q 1891 2656 2178 2843 
Q 2466 3031 2466 3422 
Q 2466 3731 2256 3934 
Q 2047 4138 1716 4138 
Q 1388 4138 1169 3931 
Q 950 3725 888 3313 
L 325 3413 
Q 428 3978 793 4289 
Q 1159 4600 1703 4600 
Q 2078 4600 2393 4439 
Q 2709 4278 2876 4000 
Q 3044 3722 3044 3409 
Q 3044 3113 2884 2869 
Q 2725 2625 2413 2481 
Q 2819 2388 3044 2092 
Q 3269 1797 3269 1353 
Q 3269 753 2831 336 
Q 2394 -81 1725 -81 
Q 1122 -81 723 278 
Q 325 638 269 1209 
z
" transform="scale(0.015625)"/>
       </defs>
       <use xlink:href="#ArialMT-33"/>
       <use xlink:href="#ArialMT-30" transform="translate(55.615234 0)"/>
       <use xlink:href="#ArialMT-30" transform="translate(111.230469 0)"/>
      </g>
     </g>
    </g>
    <g id="xtick_5">
     <g id="line2d_5">
      <path d="M 200.287241 246.04 
L 200.287241 26.925 
" clip-path="url(#pc74b68ce37)" style="fill: none; stroke: #cccccc; stroke-width: 0.8; stroke-linecap: round"/>
     </g>
     <g id="text_5">
      <!-- 400 -->
      <g style="fill: #262626" transform="translate(191.945835 260.197812) scale(0.1 -0.1)">
       <defs>
        <path id="ArialMT-34" d="M 2069 0 
L 2069 1097 
L 81 1097 
L 81 1613 
L 2172 4581 
L 2631 4581 
L 2631 1613 
L 3250 1613 
L 3250 1097 
L 2631 1097 
L 2631 0 
L 2069 0 
z
M 2069 1613 
L 2069 3678 
L 634 1613 
L 2069 1613 
z
" transform="scale(0.015625)"/>
       </defs>
       <use xlink:href="#ArialMT-34"/>
       <use xlink:href="#ArialMT-30" transform="translate(55.615234 0)"/>
       <use xlink:href="#ArialMT-30" transform="translate(111.230469 0)"/>
      </g>
     </g>
    </g>
    <g id="xtick_6">
     <g id="line2d_6">
      <path d="M 236.210125 246.04 
L 236.210125 26.925 
" clip-path="url(#pc74b68ce37)" style="fill: none; stroke: #cccccc; stroke-width: 0.8; stroke-linecap: round"/>
     </g>
     <g id="text_6">
      <!-- 500 -->
      <g style="fill: #262626" transform="translate(227.868719 260.197812) scale(0.1 -0.1)">
       <defs>
        <path id="ArialMT-35" d="M 266 1200 
L 856 1250 
Q 922 819 1161 601 
Q 1400 384 1738 384 
Q 2144 384 2425 690 
Q 2706 997 2706 1503 
Q 2706 1984 2436 2262 
Q 2166 2541 1728 2541 
Q 1456 2541 1237 2417 
Q 1019 2294 894 2097 
L 366 2166 
L 809 4519 
L 3088 4519 
L 3088 3981 
L 1259 3981 
L 1013 2750 
Q 1425 3038 1878 3038 
Q 2478 3038 2890 2622 
Q 3303 2206 3303 1553 
Q 3303 931 2941 478 
Q 2500 -78 1738 -78 
Q 1113 -78 717 272 
Q 322 622 266 1200 
z
" transform="scale(0.015625)"/>
       </defs>
       <use xlink:href="#ArialMT-35"/>
       <use xlink:href="#ArialMT-30" transform="translate(55.615234 0)"/>
       <use xlink:href="#ArialMT-30" transform="translate(111.230469 0)"/>
      </g>
     </g>
    </g>
    <g id="xtick_7">
     <g id="line2d_7">
      <path d="M 272.133009 246.04 
L 272.133009 26.925 
" clip-path="url(#pc74b68ce37)" style="fill: none; stroke: #cccccc; stroke-width: 0.8; stroke-linecap: round"/>
     </g>
     <g id="text_7">
      <!-- 600 -->
      <g style="fill: #262626" transform="translate(263.791602 260.197812) scale(0.1 -0.1)">
       <defs>
        <path id="ArialMT-36" d="M 3184 3459 
L 2625 3416 
Q 2550 3747 2413 3897 
Q 2184 4138 1850 4138 
Q 1581 4138 1378 3988 
Q 1113 3794 959 3422 
Q 806 3050 800 2363 
Q 1003 2672 1297 2822 
Q 1591 2972 1913 2972 
Q 2475 2972 2870 2558 
Q 3266 2144 3266 1488 
Q 3266 1056 3080 686 
Q 2894 316 2569 119 
Q 2244 -78 1831 -78 
Q 1128 -78 684 439 
Q 241 956 241 2144 
Q 241 3472 731 4075 
Q 1159 4600 1884 4600 
Q 2425 4600 2770 4297 
Q 3116 3994 3184 3459 
z
M 888 1484 
Q 888 1194 1011 928 
Q 1134 663 1356 523 
Q 1578 384 1822 384 
Q 2178 384 2434 671 
Q 2691 959 2691 1453 
Q 2691 1928 2437 2201 
Q 2184 2475 1800 2475 
Q 1419 2475 1153 2201 
Q 888 1928 888 1484 
z
" transform="scale(0.015625)"/>
       </defs>
       <use xlink:href="#ArialMT-36"/>
       <use xlink:href="#ArialMT-30" transform="translate(55.615234 0)"/>
       <use xlink:href="#ArialMT-30" transform="translate(111.230469 0)"/>
      </g>
     </g>
    </g>
    <g id="xtick_8">
     <g id="line2d_8">
      <path d="M 308.055892 246.04 
L 308.055892 26.925 
" clip-path="url(#pc74b68ce37)" style="fill: none; stroke: #cccccc; stroke-width: 0.8; stroke-linecap: round"/>
     </g>
     <g id="text_8">
      <!-- 700 -->
      <g style="fill: #262626" transform="translate(299.714486 260.197812) scale(0.1 -0.1)">
       <defs>
        <path id="ArialMT-37" d="M 303 3981 
L 303 4522 
L 3269 4522 
L 3269 4084 
Q 2831 3619 2401 2847 
Q 1972 2075 1738 1259 
Q 1569 684 1522 0 
L 944 0 
Q 953 541 1156 1306 
Q 1359 2072 1739 2783 
Q 2119 3494 2547 3981 
L 303 3981 
z
" transform="scale(0.015625)"/>
       </defs>
       <use xlink:href="#ArialMT-37"/>
       <use xlink:href="#ArialMT-30" transform="translate(55.615234 0)"/>
       <use xlink:href="#ArialMT-30" transform="translate(111.230469 0)"/>
      </g>
     </g>
    </g>
    <g id="xtick_9">
     <g id="line2d_9">
      <path d="M 343.978776 246.04 
L 343.978776 26.925 
" clip-path="url(#pc74b68ce37)" style="fill: none; stroke: #cccccc; stroke-width: 0.8; stroke-linecap: round"/>
     </g>
     <g id="text_9">
      <!-- 800 -->
      <g style="fill: #262626" transform="translate(335.63737 260.197812) scale(0.1 -0.1)">
       <defs>
        <path id="ArialMT-38" d="M 1131 2484 
Q 781 2613 612 2850 
Q 444 3088 444 3419 
Q 444 3919 803 4259 
Q 1163 4600 1759 4600 
Q 2359 4600 2725 4251 
Q 3091 3903 3091 3403 
Q 3091 3084 2923 2848 
Q 2756 2613 2416 2484 
Q 2838 2347 3058 2040 
Q 3278 1734 3278 1309 
Q 3278 722 2862 322 
Q 2447 -78 1769 -78 
Q 1091 -78 675 323 
Q 259 725 259 1325 
Q 259 1772 486 2073 
Q 713 2375 1131 2484 
z
M 1019 3438 
Q 1019 3113 1228 2906 
Q 1438 2700 1772 2700 
Q 2097 2700 2305 2904 
Q 2513 3109 2513 3406 
Q 2513 3716 2298 3927 
Q 2084 4138 1766 4138 
Q 1444 4138 1231 3931 
Q 1019 3725 1019 3438 
z
M 838 1322 
Q 838 1081 952 856 
Q 1066 631 1291 507 
Q 1516 384 1775 384 
Q 2178 384 2440 643 
Q 2703 903 2703 1303 
Q 2703 1709 2433 1975 
Q 2163 2241 1756 2241 
Q 1359 2241 1098 1978 
Q 838 1716 838 1322 
z
" transform="scale(0.015625)"/>
       </defs>
       <use xlink:href="#ArialMT-38"/>
       <use xlink:href="#ArialMT-30" transform="translate(55.615234 0)"/>
       <use xlink:href="#ArialMT-30" transform="translate(111.230469 0)"/>
      </g>
     </g>
    </g>
    <g id="text_10">
     <!-- Molecular Weight -->
     <g style="fill: #262626" transform="translate(161.211024 273.343125) scale(0.1 -0.1)">
      <defs>
       <path id="ArialMT-4d" d="M 475 0 
L 475 4581 
L 1388 4581 
L 2472 1338 
Q 2622 884 2691 659 
Q 2769 909 2934 1394 
L 4031 4581 
L 4847 4581 
L 4847 0 
L 4263 0 
L 4263 3834 
L 2931 0 
L 2384 0 
L 1059 3900 
L 1059 0 
L 475 0 
z
" transform="scale(0.015625)"/>
       <path id="ArialMT-6f" d="M 213 1659 
Q 213 2581 725 3025 
Q 1153 3394 1769 3394 
Q 2453 3394 2887 2945 
Q 3322 2497 3322 1706 
Q 3322 1066 3130 698 
Q 2938 331 2570 128 
Q 2203 -75 1769 -75 
Q 1072 -75 642 372 
Q 213 819 213 1659 
z
M 791 1659 
Q 791 1022 1069 705 
Q 1347 388 1769 388 
Q 2188 388 2466 706 
Q 2744 1025 2744 1678 
Q 2744 2294 2464 2611 
Q 2184 2928 1769 2928 
Q 1347 2928 1069 2612 
Q 791 2297 791 1659 
z
" transform="scale(0.015625)"/>
       <path id="ArialMT-6c" d="M 409 0 
L 409 4581 
L 972 4581 
L 972 0 
L 409 0 
z
" transform="scale(0.015625)"/>
       <path id="ArialMT-65" d="M 2694 1069 
L 3275 997 
Q 3138 488 2766 206 
Q 2394 -75 1816 -75 
Q 1088 -75 661 373 
Q 234 822 234 1631 
Q 234 2469 665 2931 
Q 1097 3394 1784 3394 
Q 2450 3394 2872 2941 
Q 3294 2488 3294 1666 
Q 3294 1616 3291 1516 
L 816 1516 
Q 847 969 1125 678 
Q 1403 388 1819 388 
Q 2128 388 2347 550 
Q 2566 713 2694 1069 
z
M 847 1978 
L 2700 1978 
Q 2663 2397 2488 2606 
Q 2219 2931 1791 2931 
Q 1403 2931 1139 2672 
Q 875 2413 847 1978 
z
" transform="scale(0.015625)"/>
       <path id="ArialMT-63" d="M 2588 1216 
L 3141 1144 
Q 3050 572 2676 248 
Q 2303 -75 1759 -75 
Q 1078 -75 664 370 
Q 250 816 250 1647 
Q 250 2184 428 2587 
Q 606 2991 970 3192 
Q 1334 3394 1763 3394 
Q 2303 3394 2647 3120 
Q 2991 2847 3088 2344 
L 2541 2259 
Q 2463 2594 2264 2762 
Q 2066 2931 1784 2931 
Q 1359 2931 1093 2626 
Q 828 2322 828 1663 
Q 828 994 1084 691 
Q 1341 388 1753 388 
Q 2084 388 2306 591 
Q 2528 794 2588 1216 
z
" transform="scale(0.015625)"/>
       <path id="ArialMT-75" d="M 2597 0 
L 2597 488 
Q 2209 -75 1544 -75 
Q 1250 -75 995 37 
Q 741 150 617 320 
Q 494 491 444 738 
Q 409 903 409 1263 
L 409 3319 
L 972 3319 
L 972 1478 
Q 972 1038 1006 884 
Q 1059 663 1231 536 
Q 1403 409 1656 409 
Q 1909 409 2131 539 
Q 2353 669 2445 892 
Q 2538 1116 2538 1541 
L 2538 3319 
L 3100 3319 
L 3100 0 
L 2597 0 
z
" transform="scale(0.015625)"/>
       <path id="ArialMT-61" d="M 2588 409 
Q 2275 144 1986 34 
Q 1697 -75 1366 -75 
Q 819 -75 525 192 
Q 231 459 231 875 
Q 231 1119 342 1320 
Q 453 1522 633 1644 
Q 813 1766 1038 1828 
Q 1203 1872 1538 1913 
Q 2219 1994 2541 2106 
Q 2544 2222 2544 2253 
Q 2544 2597 2384 2738 
Q 2169 2928 1744 2928 
Q 1347 2928 1158 2789 
Q 969 2650 878 2297 
L 328 2372 
Q 403 2725 575 2942 
Q 747 3159 1072 3276 
Q 1397 3394 1825 3394 
Q 2250 3394 2515 3294 
Q 2781 3194 2906 3042 
Q 3031 2891 3081 2659 
Q 3109 2516 3109 2141 
L 3109 1391 
Q 3109 606 3145 398 
Q 3181 191 3288 0 
L 2700 0 
Q 2613 175 2588 409 
z
M 2541 1666 
Q 2234 1541 1622 1453 
Q 1275 1403 1131 1340 
Q 988 1278 909 1158 
Q 831 1038 831 891 
Q 831 666 1001 516 
Q 1172 366 1500 366 
Q 1825 366 2078 508 
Q 2331 650 2450 897 
Q 2541 1088 2541 1459 
L 2541 1666 
z
" transform="scale(0.015625)"/>
       <path id="ArialMT-72" d="M 416 0 
L 416 3319 
L 922 3319 
L 922 2816 
Q 1116 3169 1280 3281 
Q 1444 3394 1641 3394 
Q 1925 3394 2219 3213 
L 2025 2691 
Q 1819 2813 1613 2813 
Q 1428 2813 1281 2702 
Q 1134 2591 1072 2394 
Q 978 2094 978 1738 
L 978 0 
L 416 0 
z
" transform="scale(0.015625)"/>
       <path id="ArialMT-20" transform="scale(0.015625)"/>
       <path id="ArialMT-57" d="M 1294 0 
L 78 4581 
L 700 4581 
L 1397 1578 
Q 1509 1106 1591 641 
Q 1766 1375 1797 1488 
L 2669 4581 
L 3400 4581 
L 4056 2263 
Q 4303 1400 4413 641 
Q 4500 1075 4641 1638 
L 5359 4581 
L 5969 4581 
L 4713 0 
L 4128 0 
L 3163 3491 
Q 3041 3928 3019 4028 
Q 2947 3713 2884 3491 
L 1913 0 
L 1294 0 
z
" transform="scale(0.015625)"/>
       <path id="ArialMT-69" d="M 425 3934 
L 425 4581 
L 988 4581 
L 988 3934 
L 425 3934 
z
M 425 0 
L 425 3319 
L 988 3319 
L 988 0 
L 425 0 
z
" transform="scale(0.015625)"/>
       <path id="ArialMT-67" d="M 319 -275 
L 866 -356 
Q 900 -609 1056 -725 
Q 1266 -881 1628 -881 
Q 2019 -881 2231 -725 
Q 2444 -569 2519 -288 
Q 2563 -116 2559 434 
Q 2191 0 1641 0 
Q 956 0 581 494 
Q 206 988 206 1678 
Q 206 2153 378 2554 
Q 550 2956 876 3175 
Q 1203 3394 1644 3394 
Q 2231 3394 2613 2919 
L 2613 3319 
L 3131 3319 
L 3131 450 
Q 3131 -325 2973 -648 
Q 2816 -972 2473 -1159 
Q 2131 -1347 1631 -1347 
Q 1038 -1347 672 -1080 
Q 306 -813 319 -275 
z
M 784 1719 
Q 784 1066 1043 766 
Q 1303 466 1694 466 
Q 2081 466 2343 764 
Q 2606 1063 2606 1700 
Q 2606 2309 2336 2618 
Q 2066 2928 1684 2928 
Q 1309 2928 1046 2623 
Q 784 2319 784 1719 
z
" transform="scale(0.015625)"/>
       <path id="ArialMT-68" d="M 422 0 
L 422 4581 
L 984 4581 
L 984 2938 
Q 1378 3394 1978 3394 
Q 2347 3394 2619 3248 
Q 2891 3103 3008 2847 
Q 3125 2591 3125 2103 
L 3125 0 
L 2563 0 
L 2563 2103 
Q 2563 2525 2380 2717 
Q 2197 2909 1863 2909 
Q 1613 2909 1392 2779 
Q 1172 2650 1078 2428 
Q 984 2206 984 1816 
L 984 0 
L 422 0 
z
" transform="scale(0.015625)"/>
       <path id="ArialMT-74" d="M 1650 503 
L 1731 6 
Q 1494 -44 1306 -44 
Q 1000 -44 831 53 
Q 663 150 594 308 
Q 525 466 525 972 
L 525 2881 
L 113 2881 
L 113 3319 
L 525 3319 
L 525 4141 
L 1084 4478 
L 1084 3319 
L 1650 3319 
L 1650 2881 
L 1084 2881 
L 1084 941 
Q 1084 700 1114 631 
Q 1144 563 1211 522 
Q 1278 481 1403 481 
Q 1497 481 1650 503 
z
" transform="scale(0.015625)"/>
      </defs>
      <use xlink:href="#ArialMT-4d"/>
      <use xlink:href="#ArialMT-6f" transform="translate(83.300781 0)"/>
      <use xlink:href="#ArialMT-6c" transform="translate(138.916016 0)"/>
      <use xlink:href="#ArialMT-65" transform="translate(161.132812 0)"/>
      <use xlink:href="#ArialMT-63" transform="translate(216.748047 0)"/>
      <use xlink:href="#ArialMT-75" transform="translate(266.748047 0)"/>
      <use xlink:href="#ArialMT-6c" transform="translate(322.363281 0)"/>
      <use xlink:href="#ArialMT-61" transform="translate(344.580078 0)"/>
      <use xlink:href="#ArialMT-72" transform="translate(400.195312 0)"/>
      <use xlink:href="#ArialMT-20" transform="translate(433.496094 0)"/>
      <use xlink:href="#ArialMT-57" transform="translate(461.279297 0)"/>
      <use xlink:href="#ArialMT-65" transform="translate(553.914062 0)"/>
      <use xlink:href="#ArialMT-69" transform="translate(609.529297 0)"/>
      <use xlink:href="#ArialMT-67" transform="translate(631.746094 0)"/>
      <use xlink:href="#ArialMT-68" transform="translate(687.361328 0)"/>
      <use xlink:href="#ArialMT-74" transform="translate(742.976562 0)"/>
     </g>
    </g>
   </g>
   <g id="matplotlib.axis_2">
    <g id="ytick_1">
     <g id="line2d_10">
      <path d="M 48.62 246.04 
L 350.873922 246.04 
" clip-path="url(#pc74b68ce37)" style="fill: none; stroke: #cccccc; stroke-width: 0.8; stroke-linecap: round"/>
     </g>
     <g id="text_11">
      <!-- 0 -->
      <g style="fill: #262626" transform="translate(36.059063 249.618906) scale(0.1 -0.1)">
       <use xlink:href="#ArialMT-30"/>
      </g>
     </g>
    </g>
    <g id="ytick_2">
     <g id="line2d_11">
      <path d="M 48.62 198.395947 
L 350.873922 198.395947 
" clip-path="url(#pc74b68ce37)" style="fill: none; stroke: #cccccc; stroke-width: 0.8; stroke-linecap: round"/>
     </g>
     <g id="text_12">
      <!-- 50 -->
      <g style="fill: #262626" transform="translate(30.498125 201.974853) scale(0.1 -0.1)">
       <use xlink:href="#ArialMT-35"/>
       <use xlink:href="#ArialMT-30" transform="translate(55.615234 0)"/>
      </g>
     </g>
    </g>
    <g id="ytick_3">
     <g id="line2d_12">
      <path d="M 48.62 150.751894 
L 350.873922 150.751894 
" clip-path="url(#pc74b68ce37)" style="fill: none; stroke: #cccccc; stroke-width: 0.8; stroke-linecap: round"/>
     </g>
     <g id="text_13">
      <!-- 100 -->
      <g style="fill: #262626" transform="translate(24.937188 154.3308) scale(0.1 -0.1)">
       <use xlink:href="#ArialMT-31"/>
       <use xlink:href="#ArialMT-30" transform="translate(55.615234 0)"/>
       <use xlink:href="#ArialMT-30" transform="translate(111.230469 0)"/>
      </g>
     </g>
    </g>
    <g id="ytick_4">
     <g id="line2d_13">
      <path d="M 48.62 103.107841 
L 350.873922 103.107841 
" clip-path="url(#pc74b68ce37)" style="fill: none; stroke: #cccccc; stroke-width: 0.8; stroke-linecap: round"/>
     </g>
     <g id="text_14">
      <!-- 150 -->
      <g style="fill: #262626" transform="translate(24.937188 106.686747) scale(0.1 -0.1)">
       <use xlink:href="#ArialMT-31"/>
       <use xlink:href="#ArialMT-35" transform="translate(55.615234 0)"/>
       <use xlink:href="#ArialMT-30" transform="translate(111.230469 0)"/>
      </g>
     </g>
    </g>
    <g id="ytick_5">
     <g id="line2d_14">
      <path d="M 48.62 55.463788 
L 350.873922 55.463788 
" clip-path="url(#pc74b68ce37)" style="fill: none; stroke: #cccccc; stroke-width: 0.8; stroke-linecap: round"/>
     </g>
     <g id="text_15">
      <!-- 200 -->
      <g style="fill: #262626" transform="translate(24.937188 59.042694) scale(0.1 -0.1)">
       <use xlink:href="#ArialMT-32"/>
       <use xlink:href="#ArialMT-30" transform="translate(55.615234 0)"/>
       <use xlink:href="#ArialMT-30" transform="translate(111.230469 0)"/>
      </g>
     </g>
    </g>
    <g id="text_16">
     <!-- Count -->
     <g style="fill: #262626" transform="translate(18.949688 149.823906) rotate(-90) scale(0.1 -0.1)">
      <defs>
       <path id="ArialMT-43" d="M 3763 1606 
L 4369 1453 
Q 4178 706 3683 314 
Q 3188 -78 2472 -78 
Q 1731 -78 1267 223 
Q 803 525 561 1097 
Q 319 1669 319 2325 
Q 319 3041 592 3573 
Q 866 4106 1370 4382 
Q 1875 4659 2481 4659 
Q 3169 4659 3637 4309 
Q 4106 3959 4291 3325 
L 3694 3184 
Q 3534 3684 3231 3912 
Q 2928 4141 2469 4141 
Q 1941 4141 1586 3887 
Q 1231 3634 1087 3207 
Q 944 2781 944 2328 
Q 944 1744 1114 1308 
Q 1284 872 1643 656 
Q 2003 441 2422 441 
Q 2931 441 3284 734 
Q 3638 1028 3763 1606 
z
" transform="scale(0.015625)"/>
       <path id="ArialMT-6e" d="M 422 0 
L 422 3319 
L 928 3319 
L 928 2847 
Q 1294 3394 1984 3394 
Q 2284 3394 2536 3286 
Q 2788 3178 2913 3003 
Q 3038 2828 3088 2588 
Q 3119 2431 3119 2041 
L 3119 0 
L 2556 0 
L 2556 2019 
Q 2556 2363 2490 2533 
Q 2425 2703 2258 2804 
Q 2091 2906 1866 2906 
Q 1506 2906 1245 2678 
Q 984 2450 984 1813 
L 984 0 
L 422 0 
z
" transform="scale(0.015625)"/>
      </defs>
      <use xlink:href="#ArialMT-43"/>
      <use xlink:href="#ArialMT-6f" transform="translate(72.216797 0)"/>
      <use xlink:href="#ArialMT-75" transform="translate(127.832031 0)"/>
      <use xlink:href="#ArialMT-6e" transform="translate(183.447266 0)"/>
      <use xlink:href="#ArialMT-74" transform="translate(239.0625 0)"/>
     </g>
    </g>
   </g>
   <g id="patch_3">
    <path d="M 62.358815 246.04 
L 76.097629 246.04 
L 76.097629 232.699665 
L 62.358815 232.699665 
z
" clip-path="url(#pc74b68ce37)" style="fill: #fdc422; fill-opacity: 0.5; stroke: #ffffff; stroke-linejoin: miter"/>
   </g>
   <g id="patch_4">
    <path d="M 76.097629 246.04 
L 89.836444 246.04 
L 89.836444 144.081726 
L 76.097629 144.081726 
z
" clip-path="url(#pc74b68ce37)" style="fill: #fdc422; fill-opacity: 0.5; stroke: #ffffff; stroke-linejoin: miter"/>
   </g>
   <g id="patch_5">
    <path d="M 89.836444 246.04 
L 103.575259 246.04 
L 103.575259 37.359048 
L 89.836444 37.359048 
z
" clip-path="url(#pc74b68ce37)" style="fill: #fdc422; fill-opacity: 0.5; stroke: #ffffff; stroke-linejoin: miter"/>
   </g>
   <g id="patch_6">
    <path d="M 103.575259 246.04 
L 117.314073 246.04 
L 117.314073 81.191576 
L 103.575259 81.191576 
z
" clip-path="url(#pc74b68ce37)" style="fill: #fdc422; fill-opacity: 0.5; stroke: #ffffff; stroke-linejoin: miter"/>
   </g>
   <g id="patch_7">
    <path d="M 117.314073 246.04 
L 131.052888 246.04 
L 131.052888 128.835629 
L 117.314073 128.835629 
z
" clip-path="url(#pc74b68ce37)" style="fill: #fdc422; fill-opacity: 0.5; stroke: #ffffff; stroke-linejoin: miter"/>
   </g>
   <g id="patch_8">
    <path d="M 131.052888 246.04 
L 144.791702 246.04 
L 144.791702 117.401057 
L 131.052888 117.401057 
z
" clip-path="url(#pc74b68ce37)" style="fill: #fdc422; fill-opacity: 0.5; stroke: #ffffff; stroke-linejoin: miter"/>
   </g>
   <g id="patch_9">
    <path d="M 144.791702 246.04 
L 158.530517 246.04 
L 158.530517 153.610537 
L 144.791702 153.610537 
z
" clip-path="url(#pc74b68ce37)" style="fill: #fdc422; fill-opacity: 0.5; stroke: #ffffff; stroke-linejoin: miter"/>
   </g>
   <g id="patch_10">
    <path d="M 158.530517 246.04 
L 172.269332 246.04 
L 172.269332 153.610537 
L 158.530517 153.610537 
z
" clip-path="url(#pc74b68ce37)" style="fill: #fdc422; fill-opacity: 0.5; stroke: #ffffff; stroke-linejoin: miter"/>
   </g>
   <g id="patch_11">
    <path d="M 172.269332 246.04 
L 186.008146 246.04 
L 186.008146 186.008493 
L 172.269332 186.008493 
z
" clip-path="url(#pc74b68ce37)" style="fill: #fdc422; fill-opacity: 0.5; stroke: #ffffff; stroke-linejoin: miter"/>
   </g>
   <g id="patch_12">
    <path d="M 186.008146 246.04 
L 199.746961 246.04 
L 199.746961 191.72578 
L 186.008146 191.72578 
z
" clip-path="url(#pc74b68ce37)" style="fill: #fdc422; fill-opacity: 0.5; stroke: #ffffff; stroke-linejoin: miter"/>
   </g>
   <g id="patch_13">
    <path d="M 199.746961 246.04 
L 213.485776 246.04 
L 213.485776 223.170855 
L 199.746961 223.170855 
z
" clip-path="url(#pc74b68ce37)" style="fill: #fdc422; fill-opacity: 0.5; stroke: #ffffff; stroke-linejoin: miter"/>
   </g>
   <g id="patch_14">
    <path d="M 213.485776 246.04 
L 227.22459 246.04 
L 227.22459 240.322714 
L 213.485776 240.322714 
z
" clip-path="url(#pc74b68ce37)" style="fill: #fdc422; fill-opacity: 0.5; stroke: #ffffff; stroke-linejoin: miter"/>
   </g>
   <g id="patch_15">
    <path d="M 227.22459 246.04 
L 240.963405 246.04 
L 240.963405 238.416952 
L 227.22459 238.416952 
z
" clip-path="url(#pc74b68ce37)" style="fill: #fdc422; fill-opacity: 0.5; stroke: #ffffff; stroke-linejoin: miter"/>
   </g>
   <g id="patch_16">
    <path d="M 240.963405 246.04 
L 254.70222 246.04 
L 254.70222 244.134238 
L 240.963405 244.134238 
z
" clip-path="url(#pc74b68ce37)" style="fill: #fdc422; fill-opacity: 0.5; stroke: #ffffff; stroke-linejoin: miter"/>
   </g>
   <g id="patch_17">
    <path d="M 254.70222 246.04 
L 268.441034 246.04 
L 268.441034 245.087119 
L 254.70222 245.087119 
z
" clip-path="url(#pc74b68ce37)" style="fill: #fdc422; fill-opacity: 0.5; stroke: #ffffff; stroke-linejoin: miter"/>
   </g>
   <g id="patch_18">
    <path d="M 268.441034 246.04 
L 282.179849 246.04 
L 282.179849 246.04 
L 268.441034 246.04 
z
" clip-path="url(#pc74b68ce37)" style="fill: #fdc422; fill-opacity: 0.5; stroke: #ffffff; stroke-linejoin: miter"/>
   </g>
   <g id="patch_19">
    <path d="M 282.179849 246.04 
L 295.918664 246.04 
L 295.918664 246.04 
L 282.179849 246.04 
z
" clip-path="url(#pc74b68ce37)" style="fill: #fdc422; fill-opacity: 0.5; stroke: #ffffff; stroke-linejoin: miter"/>
   </g>
   <g id="patch_20">
    <path d="M 295.918664 246.04 
L 309.657478 246.04 
L 309.657478 246.04 
L 295.918664 246.04 
z
" clip-path="url(#pc74b68ce37)" style="fill: #fdc422; fill-opacity: 0.5; stroke: #ffffff; stroke-linejoin: miter"/>
   </g>
   <g id="patch_21">
    <path d="M 309.657478 246.04 
L 323.396293 246.04 
L 323.396293 246.04 
L 309.657478 246.04 
z
" clip-path="url(#pc74b68ce37)" style="fill: #fdc422; fill-opacity: 0.5; stroke: #ffffff; stroke-linejoin: miter"/>
   </g>
   <g id="patch_22">
    <path d="M 323.396293 246.04 
L 337.135107 246.04 
L 337.135107 244.134238 
L 323.396293 244.134238 
z
" clip-path="url(#pc74b68ce37)" style="fill: #fdc422; fill-opacity: 0.5; stroke: #ffffff; stroke-linejoin: miter"/>
   </g>
   <g id="line2d_15">
    <path d="M 62.358815 235.986899 
L 63.7396 233.602274 
L 65.120385 230.777836 
L 66.501171 227.462113 
L 67.881956 223.605547 
L 69.262742 219.16318 
L 70.643527 214.097679 
L 72.024312 208.382546 
L 73.405098 202.005304 
L 74.785883 194.970441 
L 77.547454 179.044943 
L 80.309025 161.05819 
L 88.593737 104.087563 
L 89.974522 95.743478 
L 91.355308 88.133374 
L 92.736093 81.379061 
L 94.116879 75.577701 
L 95.497664 70.798119 
L 96.878449 67.078778 
L 98.259235 64.427526 
L 99.64002 62.823088 
L 101.020806 62.218077 
L 102.401591 62.543149 
L 103.782376 63.71185 
L 105.163162 65.62565 
L 106.543947 68.178712 
L 107.924733 71.262036 
L 109.305518 74.76676 
L 112.067089 82.619324 
L 117.59023 99.034414 
L 120.351801 106.323619 
L 121.732586 109.534014 
L 123.113372 112.411541 
L 124.494157 114.944049 
L 125.874943 117.136946 
L 127.255728 119.012972 
L 128.636513 120.6106 
L 130.017299 121.981017 
L 132.77887 124.282092 
L 136.921226 127.518707 
L 139.682797 130.013382 
L 142.444367 132.884261 
L 146.586724 137.630093 
L 152.109865 143.941868 
L 159.013792 151.676507 
L 161.775363 155.110243 
L 164.536934 158.872476 
L 168.67929 165.008014 
L 175.583217 175.440603 
L 188.010285 193.722599 
L 201.818139 215.31447 
L 205.960495 221.092128 
L 208.722066 224.637105 
L 211.483637 227.891655 
L 214.245208 230.799274 
L 217.006778 233.298112 
L 219.768349 235.341329 
L 222.52992 236.918142 
L 225.291491 238.066396 
L 228.053062 238.871193 
L 232.195418 239.693088 
L 239.099345 240.946298 
L 244.622486 242.239912 
L 250.145628 243.529188 
L 254.287984 244.274895 
L 258.43034 244.769252 
L 263.953482 245.122997 
L 286.046048 245.95989 
L 297.092331 246.036207 
L 312.28097 245.964578 
L 319.184897 245.726777 
L 334.373537 244.942606 
L 337.135107 244.991179 
L 337.135107 244.991179 
" clip-path="url(#pc74b68ce37)" style="fill: none; stroke: #fdc422; stroke-width: 1.5; stroke-linecap: round"/>
   </g>
   <g id="patch_23">
    <path d="M 48.62 246.04 
L 48.62 26.925 
" style="fill: none; stroke: #cccccc; stroke-width: 0.8; stroke-linejoin: miter; stroke-linecap: square"/>
   </g>
   <g id="patch_24">
    <path d="M 350.873922 246.04 
L 350.873922 26.925 
" style="fill: none; stroke: #cccccc; stroke-width: 0.8; stroke-linejoin: miter; stroke-linecap: square"/>
   </g>
   <g id="patch_25">
    <path d="M 48.62 246.04 
L 350.873922 246.04 
" style="fill: none; stroke: #cccccc; stroke-width: 0.8; stroke-linejoin: miter; stroke-linecap: square"/>
   </g>
   <g id="patch_26">
    <path d="M 48.62 26.925 
L 350.873922 26.925 
" style="fill: none; stroke: #cccccc; stroke-width: 0.8; stroke-linejoin: miter; stroke-linecap: square"/>
   </g>
   <g id="text_17">
    <!-- Molecular Weight (MW) Distribution -->
    <g style="fill: #262626" transform="translate(74.191336 20.925) scale(0.12 -0.12)">
     <defs>
      <path id="FiraCode-Regular-4d" d="M 3482 4519 
L 3738 0 
L 3190 0 
L 3049 2360 
Q 3033 2675 3024 3003 
Q 3016 3331 3013 3598 
Q 3010 3866 3013 3998 
L 2252 811 
L 1680 811 
L 863 3998 
Q 870 3870 873 3591 
Q 876 3312 873 2980 
Q 870 2649 857 2366 
L 735 0 
L 200 0 
L 456 4519 
L 1251 4519 
L 1982 1424 
L 2681 4519 
L 3482 4519 
z
" transform="scale(0.015625)"/>
      <path id="FiraCode-Regular-6f" d="M 1976 3528 
Q 2708 3528 3082 3039 
Q 3456 2550 3456 1730 
Q 3456 1201 3285 794 
Q 3115 387 2783 156 
Q 2452 -75 1969 -75 
Q 1237 -75 860 417 
Q 483 909 483 1723 
Q 483 2255 653 2663 
Q 824 3072 1157 3300 
Q 1490 3528 1976 3528 
z
M 1976 3079 
Q 1529 3079 1301 2747 
Q 1073 2416 1073 1723 
Q 1073 1037 1298 707 
Q 1523 377 1969 377 
Q 2416 377 2640 708 
Q 2865 1040 2865 1730 
Q 2865 2419 2642 2749 
Q 2419 3079 1976 3079 
z
" transform="scale(0.015625)"/>
      <path id="FiraCode-Regular-6c" d="M 2005 4848 
L 2005 853 
Q 2005 597 2164 490 
Q 2324 384 2576 384 
Q 2731 384 2873 417 
Q 3016 450 3157 505 
L 3305 102 
Q 3164 33 2955 -21 
Q 2747 -75 2485 -75 
Q 2025 -75 1739 179 
Q 1454 433 1454 883 
L 1454 4411 
L 394 4411 
L 394 4848 
L 2005 4848 
z
" transform="scale(0.015625)"/>
      <path id="FiraCode-Regular-65" d="M 1093 1533 
Q 1116 932 1409 658 
Q 1703 384 2104 384 
Q 2370 384 2583 463 
Q 2796 542 3026 696 
L 3285 331 
Q 3046 141 2734 33 
Q 2422 -75 2097 -75 
Q 1592 -75 1239 151 
Q 886 377 700 782 
Q 515 1188 515 1723 
Q 515 2248 700 2655 
Q 886 3062 1226 3295 
Q 1566 3528 2025 3528 
Q 2678 3528 3054 3075 
Q 3430 2622 3430 1835 
Q 3430 1746 3425 1667 
Q 3420 1589 3417 1533 
L 1093 1533 
z
M 2032 3075 
Q 1648 3075 1388 2802 
Q 1129 2530 1096 1959 
L 2898 1959 
Q 2888 2514 2655 2794 
Q 2422 3075 2032 3075 
z
" transform="scale(0.015625)"/>
      <path id="FiraCode-Regular-63" d="M 2222 400 
Q 2481 400 2706 484 
Q 2931 568 3121 702 
L 3390 341 
Q 3164 148 2845 36 
Q 2527 -75 2222 -75 
Q 1707 -75 1344 146 
Q 981 368 791 770 
Q 601 1172 601 1713 
Q 601 2232 791 2642 
Q 981 3052 1345 3290 
Q 1710 3528 2229 3528 
Q 2888 3528 3384 3128 
L 3115 2760 
Q 2665 3069 2222 3069 
Q 1776 3069 1487 2732 
Q 1198 2396 1198 1713 
Q 1198 1021 1487 710 
Q 1776 400 2222 400 
z
" transform="scale(0.015625)"/>
      <path id="FiraCode-Regular-75" d="M 1211 3456 
L 1211 1008 
Q 1211 666 1352 515 
Q 1493 364 1792 364 
Q 2078 364 2332 526 
Q 2586 689 2727 912 
L 2727 3456 
L 3279 3456 
L 3279 0 
L 2809 0 
L 2764 466 
Q 2560 203 2259 64 
Q 1959 -75 1657 -75 
Q 1155 -75 907 192 
Q 660 459 660 942 
L 660 3456 
L 1211 3456 
z
" transform="scale(0.015625)"/>
      <path id="FiraCode-Regular-61" d="M 3134 755 
Q 3134 545 3203 449 
Q 3272 354 3417 312 
L 3282 -75 
Q 3059 -46 2891 67 
Q 2724 181 2649 410 
Q 2462 171 2181 48 
Q 1900 -75 1566 -75 
Q 1047 -75 748 217 
Q 450 509 450 991 
Q 450 1526 866 1811 
Q 1283 2097 2071 2097 
L 2580 2097 
L 2580 2386 
Q 2580 2760 2361 2916 
Q 2143 3072 1756 3072 
Q 1585 3072 1355 3031 
Q 1126 2990 857 2895 
L 712 3312 
Q 1027 3430 1308 3479 
Q 1589 3528 1841 3528 
Q 2485 3528 2809 3226 
Q 3134 2924 3134 2412 
L 3134 755 
z
M 1707 345 
Q 1963 345 2194 474 
Q 2425 604 2580 834 
L 2580 1723 
L 2081 1723 
Q 1510 1723 1275 1526 
Q 1040 1329 1040 998 
Q 1040 345 1707 345 
z
" transform="scale(0.015625)"/>
      <path id="FiraCode-Regular-72" d="M 693 0 
L 693 423 
L 1231 423 
L 1231 3033 
L 693 3033 
L 693 3456 
L 1651 3456 
L 1753 2639 
Q 1953 3065 2238 3298 
Q 2524 3531 2993 3531 
Q 3138 3531 3251 3510 
Q 3364 3489 3482 3456 
L 3404 2288 
L 2951 2288 
L 2951 3023 
Q 2937 3023 2921 3023 
Q 2127 3023 1782 1887 
L 1782 423 
L 2485 423 
L 2485 0 
L 693 0 
z
" transform="scale(0.015625)"/>
      <path id="FiraCode-Regular-20" transform="scale(0.015625)"/>
      <path id="FiraCode-Regular-57" d="M 3909 4519 
L 3220 0 
L 2471 0 
L 1953 3410 
L 1431 0 
L 666 0 
L 30 4519 
L 601 4519 
L 1083 627 
L 1625 3994 
L 2324 3994 
L 2839 627 
L 3381 4519 
L 3909 4519 
z
" transform="scale(0.015625)"/>
      <path id="FiraCode-Regular-69" d="M 1969 5074 
Q 2153 5074 2263 4962 
Q 2373 4851 2373 4690 
Q 2373 4523 2263 4409 
Q 2153 4296 1969 4296 
Q 1795 4296 1683 4409 
Q 1572 4523 1572 4690 
Q 1572 4851 1683 4962 
Q 1795 5074 1969 5074 
z
M 2409 3456 
L 2409 437 
L 3384 437 
L 3384 0 
L 791 0 
L 791 437 
L 1858 437 
L 1858 3019 
L 824 3019 
L 824 3456 
L 2409 3456 
z
" transform="scale(0.015625)"/>
      <path id="FiraCode-Regular-67" d="M 3469 3824 
L 3640 3305 
Q 3417 3236 3169 3219 
Q 2921 3203 2629 3203 
Q 3230 2928 3230 2334 
Q 3230 1822 2887 1490 
Q 2544 1159 1930 1159 
Q 1756 1159 1639 1175 
Q 1523 1191 1415 1224 
Q 1336 1168 1285 1078 
Q 1234 988 1234 889 
Q 1234 765 1332 683 
Q 1431 601 1697 601 
L 2320 601 
Q 2668 601 2944 476 
Q 3220 351 3380 139 
Q 3541 -72 3541 -338 
Q 3541 -847 3109 -1119 
Q 2678 -1392 1891 -1392 
Q 1339 -1392 1020 -1278 
Q 702 -1165 566 -933 
Q 430 -702 430 -351 
L 929 -351 
Q 929 -551 1007 -682 
Q 1086 -814 1293 -878 
Q 1500 -942 1887 -942 
Q 2458 -942 2720 -799 
Q 2983 -656 2983 -374 
Q 2983 -128 2760 -3 
Q 2537 121 2202 121 
L 1585 121 
Q 1136 121 926 318 
Q 716 515 716 771 
Q 716 1126 1096 1375 
Q 515 1684 515 2330 
Q 515 2681 689 2952 
Q 863 3223 1175 3377 
Q 1487 3531 1894 3531 
Q 2330 3531 2602 3567 
Q 2875 3604 3070 3669 
Q 3266 3735 3469 3824 
z
M 1894 3128 
Q 1477 3128 1278 2901 
Q 1080 2675 1080 2330 
Q 1080 1979 1282 1752 
Q 1484 1526 1907 1526 
Q 2271 1526 2465 1739 
Q 2659 1953 2659 2334 
Q 2659 3128 1894 3128 
z
" transform="scale(0.015625)"/>
      <path id="FiraCode-Regular-68" d="M 1211 4900 
L 1211 2983 
Q 1415 3253 1712 3390 
Q 2009 3528 2314 3528 
Q 2819 3528 3052 3259 
Q 3285 2990 3285 2511 
L 3285 0 
L 2734 0 
L 2734 2498 
Q 2734 2809 2589 2952 
Q 2445 3095 2137 3095 
Q 1940 3095 1762 3006 
Q 1585 2918 1444 2786 
Q 1303 2655 1211 2517 
L 1211 0 
L 660 0 
L 660 4841 
L 1211 4900 
z
" transform="scale(0.015625)"/>
      <path id="FiraCode-Regular-74" d="M 3404 174 
Q 3226 56 2973 -9 
Q 2721 -75 2478 -75 
Q 1920 -75 1618 217 
Q 1316 509 1316 968 
L 1316 3029 
L 522 3029 
L 522 3456 
L 1316 3456 
L 1316 4240 
L 1868 4306 
L 1868 3456 
L 3062 3456 
L 2997 3029 
L 1868 3029 
L 1868 975 
Q 1868 686 2020 535 
Q 2173 384 2527 384 
Q 2721 384 2885 430 
Q 3049 476 3190 548 
L 3404 174 
z
" transform="scale(0.015625)"/>
      <path id="FiraCode-Regular-28" d="M 1395 2297 
Q 1395 1611 1551 1114 
Q 1707 617 2018 207 
Q 2330 -203 2800 -617 
L 2511 -919 
Q 1979 -486 1600 -29 
Q 1221 427 1019 988 
Q 817 1549 817 2297 
Q 817 3046 1019 3607 
Q 1221 4168 1600 4624 
Q 1979 5081 2511 5514 
L 2800 5212 
Q 2445 4897 2181 4593 
Q 1917 4290 1743 3955 
Q 1569 3620 1482 3216 
Q 1395 2813 1395 2297 
z
" transform="scale(0.015625)"/>
      <path id="FiraCode-Regular-29" d="M 2544 2297 
Q 2544 2813 2457 3216 
Q 2370 3620 2196 3955 
Q 2022 4290 1757 4593 
Q 1493 4897 1139 5212 
L 1428 5514 
Q 1959 5081 2338 4624 
Q 2718 4168 2919 3607 
Q 3121 3046 3121 2297 
Q 3121 1549 2919 988 
Q 2718 427 2338 -29 
Q 1959 -486 1428 -919 
L 1139 -617 
Q 1608 -203 1920 207 
Q 2232 617 2388 1114 
Q 2544 1611 2544 2297 
z
" transform="scale(0.015625)"/>
      <path id="FiraCode-Regular-44" d="M 3627 2281 
Q 3627 1572 3443 1124 
Q 3259 676 2957 431 
Q 2655 187 2295 93 
Q 1936 0 1585 0 
L 548 0 
L 548 4519 
L 1513 4519 
Q 1910 4519 2286 4430 
Q 2662 4342 2965 4104 
Q 3269 3866 3448 3426 
Q 3627 2987 3627 2281 
z
M 3020 2281 
Q 3020 2872 2895 3226 
Q 2770 3581 2566 3758 
Q 2363 3935 2122 3994 
Q 1881 4053 1648 4053 
L 1116 4053 
L 1116 456 
L 1654 456 
Q 1897 456 2140 533 
Q 2383 610 2581 807 
Q 2780 1004 2900 1362 
Q 3020 1720 3020 2281 
z
" transform="scale(0.015625)"/>
      <path id="FiraCode-Regular-73" d="M 1835 381 
Q 2235 381 2465 528 
Q 2695 676 2695 929 
Q 2695 1083 2637 1198 
Q 2580 1313 2402 1406 
Q 2225 1500 1858 1592 
Q 1500 1680 1236 1796 
Q 972 1913 825 2100 
Q 679 2288 679 2586 
Q 679 3023 1043 3275 
Q 1408 3528 1992 3528 
Q 2409 3528 2719 3416 
Q 3029 3305 3246 3147 
L 3003 2773 
Q 2809 2908 2571 2995 
Q 2334 3082 1999 3082 
Q 1592 3082 1421 2955 
Q 1251 2829 1251 2629 
Q 1251 2475 1334 2374 
Q 1418 2274 1618 2195 
Q 1818 2117 2169 2022 
Q 2508 1930 2760 1805 
Q 3013 1680 3152 1478 
Q 3292 1277 3292 955 
Q 3292 587 3082 359 
Q 2872 131 2539 28 
Q 2206 -75 1835 -75 
Q 1365 -75 1035 61 
Q 706 197 483 391 
L 798 755 
Q 1001 587 1265 484 
Q 1529 381 1835 381 
z
" transform="scale(0.015625)"/>
      <path id="FiraCode-Regular-62" d="M 1211 3006 
Q 1398 3256 1649 3392 
Q 1900 3528 2196 3528 
Q 2659 3528 2944 3305 
Q 3230 3082 3361 2676 
Q 3492 2271 3492 1730 
Q 3492 1208 3336 799 
Q 3180 391 2875 158 
Q 2570 -75 2124 -75 
Q 1523 -75 1182 358 
L 1142 0 
L 660 0 
L 660 4848 
L 1211 4917 
L 1211 3006 
z
M 1992 371 
Q 2425 371 2658 705 
Q 2892 1040 2892 1733 
Q 2892 3085 2078 3085 
Q 1789 3085 1569 2913 
Q 1349 2741 1211 2530 
L 1211 817 
Q 1346 610 1551 490 
Q 1756 371 1992 371 
z
" transform="scale(0.015625)"/>
      <path id="FiraCode-Regular-6e" d="M 660 0 
L 660 3456 
L 1129 3456 
L 1172 2977 
Q 1382 3243 1697 3385 
Q 2012 3528 2314 3528 
Q 2823 3528 3054 3259 
Q 3285 2990 3285 2511 
L 3285 0 
L 2734 0 
L 2734 2104 
Q 2734 2458 2694 2674 
Q 2655 2891 2529 2993 
Q 2403 3095 2143 3095 
Q 1940 3095 1761 3006 
Q 1582 2918 1442 2785 
Q 1303 2652 1211 2517 
L 1211 0 
L 660 0 
z
" transform="scale(0.015625)"/>
     </defs>
     <use xlink:href="#FiraCode-Regular-4d"/>
     <use xlink:href="#FiraCode-Regular-6f" transform="translate(61.538452 0)"/>
     <use xlink:href="#FiraCode-Regular-6c" transform="translate(123.076904 0)"/>
     <use xlink:href="#FiraCode-Regular-65" transform="translate(184.615356 0)"/>
     <use xlink:href="#FiraCode-Regular-63" transform="translate(246.153809 0)"/>
     <use xlink:href="#FiraCode-Regular-75" transform="translate(307.692261 0)"/>
     <use xlink:href="#FiraCode-Regular-6c" transform="translate(369.230713 0)"/>
     <use xlink:href="#FiraCode-Regular-61" transform="translate(430.769165 0)"/>
     <use xlink:href="#FiraCode-Regular-72" transform="translate(492.307617 0)"/>
     <use xlink:href="#FiraCode-Regular-20" transform="translate(553.846069 0)"/>
     <use xlink:href="#FiraCode-Regular-57" transform="translate(615.384521 0)"/>
     <use xlink:href="#FiraCode-Regular-65" transform="translate(676.922974 0)"/>
     <use xlink:href="#FiraCode-Regular-69" transform="translate(738.461426 0)"/>
     <use xlink:href="#FiraCode-Regular-67" transform="translate(799.999878 0)"/>
     <use xlink:href="#FiraCode-Regular-68" transform="translate(861.53833 0)"/>
     <use xlink:href="#FiraCode-Regular-74" transform="translate(923.076782 0)"/>
     <use xlink:href="#FiraCode-Regular-20" transform="translate(984.615234 0)"/>
     <use xlink:href="#FiraCode-Regular-28" transform="translate(1046.153687 0)"/>
     <use xlink:href="#FiraCode-Regular-4d" transform="translate(1107.692139 0)"/>
     <use xlink:href="#FiraCode-Regular-57" transform="translate(1169.230591 0)"/>
     <use xlink:href="#FiraCode-Regular-29" transform="translate(1230.769043 0)"/>
     <use xlink:href="#FiraCode-Regular-20" transform="translate(1292.307495 0)"/>
     <use xlink:href="#FiraCode-Regular-44" transform="translate(1353.845947 0)"/>
     <use xlink:href="#FiraCode-Regular-69" transform="translate(1415.384399 0)"/>
     <use xlink:href="#FiraCode-Regular-73" transform="translate(1476.922852 0)"/>
     <use xlink:href="#FiraCode-Regular-74" transform="translate(1538.461304 0)"/>
     <use xlink:href="#FiraCode-Regular-72" transform="translate(1599.999756 0)"/>
     <use xlink:href="#FiraCode-Regular-69" transform="translate(1661.538208 0)"/>
     <use xlink:href="#FiraCode-Regular-62" transform="translate(1723.07666 0)"/>
     <use xlink:href="#FiraCode-Regular-75" transform="translate(1784.615112 0)"/>
     <use xlink:href="#FiraCode-Regular-74" transform="translate(1846.153564 0)"/>
     <use xlink:href="#FiraCode-Regular-69" transform="translate(1907.692017 0)"/>
     <use xlink:href="#FiraCode-Regular-6f" transform="translate(1969.230469 0)"/>
     <use xlink:href="#FiraCode-Regular-6e" transform="translate(2030.768921 0)"/>
    </g>
   </g>
  </g>
  <g id="axes_2">
   <g id="patch_27">
    <path d="M 407.783039 246.04 
L 710.036961 246.04 
L 710.036961 26.925 
L 407.783039 26.925 
z
" style="fill: #ffffff"/>
   </g>
   <g id="matplotlib.axis_3">
    <g id="xtick_10">
     <g id="line2d_16">
      <path d="M 421.521854 246.04 
L 421.521854 26.925 
" clip-path="url(#p8ddc1b61aa)" style="fill: none; stroke: #cccccc; stroke-width: 0.8; stroke-linecap: round"/>
     </g>
     <g id="text_18">
      <!-- 0 -->
      <g style="fill: #262626" transform="translate(418.741385 260.197812) scale(0.1 -0.1)">
       <use xlink:href="#ArialMT-30"/>
      </g>
     </g>
    </g>
    <g id="xtick_11">
     <g id="line2d_17">
      <path d="M 471.48118 246.04 
L 471.48118 26.925 
" clip-path="url(#p8ddc1b61aa)" style="fill: none; stroke: #cccccc; stroke-width: 0.8; stroke-linecap: round"/>
     </g>
     <g id="text_19">
      <!-- 2 -->
      <g style="fill: #262626" transform="translate(468.700711 260.197812) scale(0.1 -0.1)">
       <use xlink:href="#ArialMT-32"/>
      </g>
     </g>
    </g>
    <g id="xtick_12">
     <g id="line2d_18">
      <path d="M 521.440506 246.04 
L 521.440506 26.925 
" clip-path="url(#p8ddc1b61aa)" style="fill: none; stroke: #cccccc; stroke-width: 0.8; stroke-linecap: round"/>
     </g>
     <g id="text_20">
      <!-- 4 -->
      <g style="fill: #262626" transform="translate(518.660037 260.197812) scale(0.1 -0.1)">
       <use xlink:href="#ArialMT-34"/>
      </g>
     </g>
    </g>
    <g id="xtick_13">
     <g id="line2d_19">
      <path d="M 571.399831 246.04 
L 571.399831 26.925 
" clip-path="url(#p8ddc1b61aa)" style="fill: none; stroke: #cccccc; stroke-width: 0.8; stroke-linecap: round"/>
     </g>
     <g id="text_21">
      <!-- 6 -->
      <g style="fill: #262626" transform="translate(568.619363 260.197812) scale(0.1 -0.1)">
       <use xlink:href="#ArialMT-36"/>
      </g>
     </g>
    </g>
    <g id="xtick_14">
     <g id="line2d_20">
      <path d="M 621.359157 246.04 
L 621.359157 26.925 
" clip-path="url(#p8ddc1b61aa)" style="fill: none; stroke: #cccccc; stroke-width: 0.8; stroke-linecap: round"/>
     </g>
     <g id="text_22">
      <!-- 8 -->
      <g style="fill: #262626" transform="translate(618.578689 260.197812) scale(0.1 -0.1)">
       <use xlink:href="#ArialMT-38"/>
      </g>
     </g>
    </g>
    <g id="xtick_15">
     <g id="line2d_21">
      <path d="M 671.318483 246.04 
L 671.318483 26.925 
" clip-path="url(#p8ddc1b61aa)" style="fill: none; stroke: #cccccc; stroke-width: 0.8; stroke-linecap: round"/>
     </g>
     <g id="text_23">
      <!-- 10 -->
      <g style="fill: #262626" transform="translate(665.757546 260.197812) scale(0.1 -0.1)">
       <use xlink:href="#ArialMT-31"/>
       <use xlink:href="#ArialMT-30" transform="translate(55.615234 0)"/>
      </g>
     </g>
    </g>
    <g id="text_24">
     <!-- Number of H-Bond Donors -->
     <g style="fill: #262626" transform="translate(499.721719 273.343125) scale(0.1 -0.1)">
      <defs>
       <path id="ArialMT-4e" d="M 488 0 
L 488 4581 
L 1109 4581 
L 3516 984 
L 3516 4581 
L 4097 4581 
L 4097 0 
L 3475 0 
L 1069 3600 
L 1069 0 
L 488 0 
z
" transform="scale(0.015625)"/>
       <path id="ArialMT-6d" d="M 422 0 
L 422 3319 
L 925 3319 
L 925 2853 
Q 1081 3097 1340 3245 
Q 1600 3394 1931 3394 
Q 2300 3394 2536 3241 
Q 2772 3088 2869 2813 
Q 3263 3394 3894 3394 
Q 4388 3394 4653 3120 
Q 4919 2847 4919 2278 
L 4919 0 
L 4359 0 
L 4359 2091 
Q 4359 2428 4304 2576 
Q 4250 2725 4106 2815 
Q 3963 2906 3769 2906 
Q 3419 2906 3187 2673 
Q 2956 2441 2956 1928 
L 2956 0 
L 2394 0 
L 2394 2156 
Q 2394 2531 2256 2718 
Q 2119 2906 1806 2906 
Q 1569 2906 1367 2781 
Q 1166 2656 1075 2415 
Q 984 2175 984 1722 
L 984 0 
L 422 0 
z
" transform="scale(0.015625)"/>
       <path id="ArialMT-62" d="M 941 0 
L 419 0 
L 419 4581 
L 981 4581 
L 981 2947 
Q 1338 3394 1891 3394 
Q 2197 3394 2470 3270 
Q 2744 3147 2920 2923 
Q 3097 2700 3197 2384 
Q 3297 2069 3297 1709 
Q 3297 856 2875 390 
Q 2453 -75 1863 -75 
Q 1275 -75 941 416 
L 941 0 
z
M 934 1684 
Q 934 1088 1097 822 
Q 1363 388 1816 388 
Q 2184 388 2453 708 
Q 2722 1028 2722 1663 
Q 2722 2313 2464 2622 
Q 2206 2931 1841 2931 
Q 1472 2931 1203 2611 
Q 934 2291 934 1684 
z
" transform="scale(0.015625)"/>
       <path id="ArialMT-66" d="M 556 0 
L 556 2881 
L 59 2881 
L 59 3319 
L 556 3319 
L 556 3672 
Q 556 4006 616 4169 
Q 697 4388 901 4523 
Q 1106 4659 1475 4659 
Q 1713 4659 2000 4603 
L 1916 4113 
Q 1741 4144 1584 4144 
Q 1328 4144 1222 4034 
Q 1116 3925 1116 3625 
L 1116 3319 
L 1763 3319 
L 1763 2881 
L 1116 2881 
L 1116 0 
L 556 0 
z
" transform="scale(0.015625)"/>
       <path id="ArialMT-48" d="M 513 0 
L 513 4581 
L 1119 4581 
L 1119 2700 
L 3500 2700 
L 3500 4581 
L 4106 4581 
L 4106 0 
L 3500 0 
L 3500 2159 
L 1119 2159 
L 1119 0 
L 513 0 
z
" transform="scale(0.015625)"/>
       <path id="ArialMT-2d" d="M 203 1375 
L 203 1941 
L 1931 1941 
L 1931 1375 
L 203 1375 
z
" transform="scale(0.015625)"/>
       <path id="ArialMT-42" d="M 469 0 
L 469 4581 
L 2188 4581 
Q 2713 4581 3030 4442 
Q 3347 4303 3526 4014 
Q 3706 3725 3706 3409 
Q 3706 3116 3547 2856 
Q 3388 2597 3066 2438 
Q 3481 2316 3704 2022 
Q 3928 1728 3928 1328 
Q 3928 1006 3792 729 
Q 3656 453 3456 303 
Q 3256 153 2954 76 
Q 2653 0 2216 0 
L 469 0 
z
M 1075 2656 
L 2066 2656 
Q 2469 2656 2644 2709 
Q 2875 2778 2992 2937 
Q 3109 3097 3109 3338 
Q 3109 3566 3000 3739 
Q 2891 3913 2687 3977 
Q 2484 4041 1991 4041 
L 1075 4041 
L 1075 2656 
z
M 1075 541 
L 2216 541 
Q 2509 541 2628 563 
Q 2838 600 2978 687 
Q 3119 775 3209 942 
Q 3300 1109 3300 1328 
Q 3300 1584 3169 1773 
Q 3038 1963 2805 2039 
Q 2572 2116 2134 2116 
L 1075 2116 
L 1075 541 
z
" transform="scale(0.015625)"/>
       <path id="ArialMT-64" d="M 2575 0 
L 2575 419 
Q 2259 -75 1647 -75 
Q 1250 -75 917 144 
Q 584 363 401 755 
Q 219 1147 219 1656 
Q 219 2153 384 2558 
Q 550 2963 881 3178 
Q 1213 3394 1622 3394 
Q 1922 3394 2156 3267 
Q 2391 3141 2538 2938 
L 2538 4581 
L 3097 4581 
L 3097 0 
L 2575 0 
z
M 797 1656 
Q 797 1019 1065 703 
Q 1334 388 1700 388 
Q 2069 388 2326 689 
Q 2584 991 2584 1609 
Q 2584 2291 2321 2609 
Q 2059 2928 1675 2928 
Q 1300 2928 1048 2622 
Q 797 2316 797 1656 
z
" transform="scale(0.015625)"/>
       <path id="ArialMT-44" d="M 494 0 
L 494 4581 
L 2072 4581 
Q 2606 4581 2888 4516 
Q 3281 4425 3559 4188 
Q 3922 3881 4101 3404 
Q 4281 2928 4281 2316 
Q 4281 1794 4159 1391 
Q 4038 988 3847 723 
Q 3656 459 3429 307 
Q 3203 156 2883 78 
Q 2563 0 2147 0 
L 494 0 
z
M 1100 541 
L 2078 541 
Q 2531 541 2789 625 
Q 3047 709 3200 863 
Q 3416 1078 3536 1442 
Q 3656 1806 3656 2325 
Q 3656 3044 3420 3430 
Q 3184 3816 2847 3947 
Q 2603 4041 2063 4041 
L 1100 4041 
L 1100 541 
z
" transform="scale(0.015625)"/>
       <path id="ArialMT-73" d="M 197 991 
L 753 1078 
Q 800 744 1014 566 
Q 1228 388 1613 388 
Q 2000 388 2187 545 
Q 2375 703 2375 916 
Q 2375 1106 2209 1216 
Q 2094 1291 1634 1406 
Q 1016 1563 777 1677 
Q 538 1791 414 1992 
Q 291 2194 291 2438 
Q 291 2659 392 2848 
Q 494 3038 669 3163 
Q 800 3259 1026 3326 
Q 1253 3394 1513 3394 
Q 1903 3394 2198 3281 
Q 2494 3169 2634 2976 
Q 2775 2784 2828 2463 
L 2278 2388 
Q 2241 2644 2061 2787 
Q 1881 2931 1553 2931 
Q 1166 2931 1000 2803 
Q 834 2675 834 2503 
Q 834 2394 903 2306 
Q 972 2216 1119 2156 
Q 1203 2125 1616 2013 
Q 2213 1853 2448 1751 
Q 2684 1650 2818 1456 
Q 2953 1263 2953 975 
Q 2953 694 2789 445 
Q 2625 197 2315 61 
Q 2006 -75 1616 -75 
Q 969 -75 630 194 
Q 291 463 197 991 
z
" transform="scale(0.015625)"/>
      </defs>
      <use xlink:href="#ArialMT-4e"/>
      <use xlink:href="#ArialMT-75" transform="translate(72.216797 0)"/>
      <use xlink:href="#ArialMT-6d" transform="translate(127.832031 0)"/>
      <use xlink:href="#ArialMT-62" transform="translate(211.132812 0)"/>
      <use xlink:href="#ArialMT-65" transform="translate(266.748047 0)"/>
      <use xlink:href="#ArialMT-72" transform="translate(322.363281 0)"/>
      <use xlink:href="#ArialMT-20" transform="translate(355.664062 0)"/>
      <use xlink:href="#ArialMT-6f" transform="translate(383.447266 0)"/>
      <use xlink:href="#ArialMT-66" transform="translate(439.0625 0)"/>
      <use xlink:href="#ArialMT-20" transform="translate(466.845703 0)"/>
      <use xlink:href="#ArialMT-48" transform="translate(494.628906 0)"/>
      <use xlink:href="#ArialMT-2d" transform="translate(566.845703 0)"/>
      <use xlink:href="#ArialMT-42" transform="translate(600.146484 0)"/>
      <use xlink:href="#ArialMT-6f" transform="translate(666.845703 0)"/>
      <use xlink:href="#ArialMT-6e" transform="translate(722.460938 0)"/>
      <use xlink:href="#ArialMT-64" transform="translate(778.076172 0)"/>
      <use xlink:href="#ArialMT-20" transform="translate(833.691406 0)"/>
      <use xlink:href="#ArialMT-44" transform="translate(861.474609 0)"/>
      <use xlink:href="#ArialMT-6f" transform="translate(933.691406 0)"/>
      <use xlink:href="#ArialMT-6e" transform="translate(989.306641 0)"/>
      <use xlink:href="#ArialMT-6f" transform="translate(1044.921875 0)"/>
      <use xlink:href="#ArialMT-72" transform="translate(1100.537109 0)"/>
      <use xlink:href="#ArialMT-73" transform="translate(1133.837891 0)"/>
     </g>
    </g>
   </g>
   <g id="matplotlib.axis_4">
    <g id="ytick_6">
     <g id="line2d_22">
      <path d="M 407.783039 246.04 
L 710.036961 246.04 
" clip-path="url(#p8ddc1b61aa)" style="fill: none; stroke: #cccccc; stroke-width: 0.8; stroke-linecap: round"/>
     </g>
     <g id="text_25">
      <!-- 0 -->
      <g style="fill: #262626" transform="translate(395.222101 249.618906) scale(0.1 -0.1)">
       <use xlink:href="#ArialMT-30"/>
      </g>
     </g>
    </g>
    <g id="ytick_7">
     <g id="line2d_23">
      <path d="M 407.783039 206.036193 
L 710.036961 206.036193 
" clip-path="url(#p8ddc1b61aa)" style="fill: none; stroke: #cccccc; stroke-width: 0.8; stroke-linecap: round"/>
     </g>
     <g id="text_26">
      <!-- 200 -->
      <g style="fill: #262626" transform="translate(384.100226 209.615099) scale(0.1 -0.1)">
       <use xlink:href="#ArialMT-32"/>
       <use xlink:href="#ArialMT-30" transform="translate(55.615234 0)"/>
       <use xlink:href="#ArialMT-30" transform="translate(111.230469 0)"/>
      </g>
     </g>
    </g>
    <g id="ytick_8">
     <g id="line2d_24">
      <path d="M 407.783039 166.032386 
L 710.036961 166.032386 
" clip-path="url(#p8ddc1b61aa)" style="fill: none; stroke: #cccccc; stroke-width: 0.8; stroke-linecap: round"/>
     </g>
     <g id="text_27">
      <!-- 400 -->
      <g style="fill: #262626" transform="translate(384.100226 169.611292) scale(0.1 -0.1)">
       <use xlink:href="#ArialMT-34"/>
       <use xlink:href="#ArialMT-30" transform="translate(55.615234 0)"/>
       <use xlink:href="#ArialMT-30" transform="translate(111.230469 0)"/>
      </g>
     </g>
    </g>
    <g id="ytick_9">
     <g id="line2d_25">
      <path d="M 407.783039 126.028579 
L 710.036961 126.028579 
" clip-path="url(#p8ddc1b61aa)" style="fill: none; stroke: #cccccc; stroke-width: 0.8; stroke-linecap: round"/>
     </g>
     <g id="text_28">
      <!-- 600 -->
      <g style="fill: #262626" transform="translate(384.100226 129.607485) scale(0.1 -0.1)">
       <use xlink:href="#ArialMT-36"/>
       <use xlink:href="#ArialMT-30" transform="translate(55.615234 0)"/>
       <use xlink:href="#ArialMT-30" transform="translate(111.230469 0)"/>
      </g>
     </g>
    </g>
    <g id="ytick_10">
     <g id="line2d_26">
      <path d="M 407.783039 86.024771 
L 710.036961 86.024771 
" clip-path="url(#p8ddc1b61aa)" style="fill: none; stroke: #cccccc; stroke-width: 0.8; stroke-linecap: round"/>
     </g>
     <g id="text_29">
      <!-- 800 -->
      <g style="fill: #262626" transform="translate(384.100226 89.603678) scale(0.1 -0.1)">
       <use xlink:href="#ArialMT-38"/>
       <use xlink:href="#ArialMT-30" transform="translate(55.615234 0)"/>
       <use xlink:href="#ArialMT-30" transform="translate(111.230469 0)"/>
      </g>
     </g>
    </g>
    <g id="ytick_11">
     <g id="line2d_27">
      <path d="M 407.783039 46.020964 
L 710.036961 46.020964 
" clip-path="url(#p8ddc1b61aa)" style="fill: none; stroke: #cccccc; stroke-width: 0.8; stroke-linecap: round"/>
     </g>
     <g id="text_30">
      <!-- 1000 -->
      <g style="fill: #262626" transform="translate(378.539289 49.59987) scale(0.1 -0.1)">
       <use xlink:href="#ArialMT-31"/>
       <use xlink:href="#ArialMT-30" transform="translate(55.615234 0)"/>
       <use xlink:href="#ArialMT-30" transform="translate(111.230469 0)"/>
       <use xlink:href="#ArialMT-30" transform="translate(166.845703 0)"/>
      </g>
     </g>
    </g>
    <g id="text_31">
     <!-- Count -->
     <g style="fill: #262626" transform="translate(372.551789 149.823906) rotate(-90) scale(0.1 -0.1)">
      <use xlink:href="#ArialMT-43"/>
      <use xlink:href="#ArialMT-6f" transform="translate(72.216797 0)"/>
      <use xlink:href="#ArialMT-75" transform="translate(127.832031 0)"/>
      <use xlink:href="#ArialMT-6e" transform="translate(183.447266 0)"/>
      <use xlink:href="#ArialMT-74" transform="translate(239.0625 0)"/>
     </g>
    </g>
   </g>
   <g id="patch_28">
    <path d="M 421.521854 246.04 
L 448.999483 246.04 
L 448.999483 57.622068 
L 421.521854 57.622068 
z
" clip-path="url(#p8ddc1b61aa)" style="fill: #fdc422; fill-opacity: 0.5; stroke: #ffffff; stroke-linejoin: miter"/>
   </g>
   <g id="patch_29">
    <path d="M 448.999483 246.04 
L 476.477112 246.04 
L 476.477112 218.637392 
L 448.999483 218.637392 
z
" clip-path="url(#p8ddc1b61aa)" style="fill: #fdc422; fill-opacity: 0.5; stroke: #ffffff; stroke-linejoin: miter"/>
   </g>
   <g id="patch_30">
    <path d="M 476.477112 246.04 
L 503.954741 246.04 
L 503.954741 241.639581 
L 476.477112 241.639581 
z
" clip-path="url(#p8ddc1b61aa)" style="fill: #fdc422; fill-opacity: 0.5; stroke: #ffffff; stroke-linejoin: miter"/>
   </g>
   <g id="patch_31">
    <path d="M 503.954741 246.04 
L 531.432371 246.04 
L 531.432371 243.839791 
L 503.954741 243.839791 
z
" clip-path="url(#p8ddc1b61aa)" style="fill: #fdc422; fill-opacity: 0.5; stroke: #ffffff; stroke-linejoin: miter"/>
   </g>
   <g id="patch_32">
    <path d="M 531.432371 246.04 
L 558.91 246.04 
L 558.91 244.839886 
L 531.432371 244.839886 
z
" clip-path="url(#p8ddc1b61aa)" style="fill: #fdc422; fill-opacity: 0.5; stroke: #ffffff; stroke-linejoin: miter"/>
   </g>
   <g id="patch_33">
    <path d="M 558.91 246.04 
L 586.387629 246.04 
L 586.387629 244.839886 
L 558.91 244.839886 
z
" clip-path="url(#p8ddc1b61aa)" style="fill: #fdc422; fill-opacity: 0.5; stroke: #ffffff; stroke-linejoin: miter"/>
   </g>
   <g id="patch_34">
    <path d="M 586.387629 246.04 
L 613.865259 246.04 
L 613.865259 245.839981 
L 586.387629 245.839981 
z
" clip-path="url(#p8ddc1b61aa)" style="fill: #fdc422; fill-opacity: 0.5; stroke: #ffffff; stroke-linejoin: miter"/>
   </g>
   <g id="patch_35">
    <path d="M 613.865259 246.04 
L 641.342888 246.04 
L 641.342888 245.639962 
L 613.865259 245.639962 
z
" clip-path="url(#p8ddc1b61aa)" style="fill: #fdc422; fill-opacity: 0.5; stroke: #ffffff; stroke-linejoin: miter"/>
   </g>
   <g id="patch_36">
    <path d="M 641.342888 246.04 
L 668.820517 246.04 
L 668.820517 246.04 
L 641.342888 246.04 
z
" clip-path="url(#p8ddc1b61aa)" style="fill: #fdc422; fill-opacity: 0.5; stroke: #ffffff; stroke-linejoin: miter"/>
   </g>
   <g id="patch_37">
    <path d="M 668.820517 246.04 
L 696.298146 246.04 
L 696.298146 245.839981 
L 668.820517 245.839981 
z
" clip-path="url(#p8ddc1b61aa)" style="fill: #fdc422; fill-opacity: 0.5; stroke: #ffffff; stroke-linejoin: miter"/>
   </g>
   <g id="line2d_28">
    <path d="M 421.521854 37.359048 
L 422.902639 41.671675 
L 424.283424 54.164238 
L 425.66421 73.215555 
L 428.425781 121.286552 
L 429.806566 145.068067 
L 431.187351 165.676117 
L 432.568137 181.587512 
L 433.948922 191.967835 
L 435.329707 196.637364 
L 436.710493 195.985049 
L 438.091278 190.867957 
L 439.472064 182.510773 
L 442.233634 162.142735 
L 443.61442 153.320749 
L 444.995205 147.282436 
L 446.375991 144.97067 
L 447.756776 146.788561 
L 449.137561 152.553749 
L 450.518347 161.555677 
L 453.279918 184.727287 
L 454.660703 196.384082 
L 456.041488 206.624488 
L 457.422274 214.695196 
L 458.803059 220.174578 
L 460.183845 222.95719 
L 461.56463 223.210363 
L 462.945415 221.322525 
L 464.326201 217.852408 
L 468.468557 204.945623 
L 469.849342 202.137447 
L 471.230128 200.957887 
L 472.610913 201.617069 
L 473.991698 204.064485 
L 475.372484 208.012337 
L 476.753269 213.000417 
L 479.51484 223.940121 
L 480.895625 228.919029 
L 482.276411 233.115161 
L 483.657196 236.367433 
L 485.037982 238.647613 
L 486.418767 240.03044 
L 487.799552 240.659305 
L 489.180338 240.715361 
L 490.561123 240.393274 
L 494.703479 238.952373 
L 496.084265 238.771649 
L 497.46505 238.865857 
L 498.845835 239.238363 
L 500.226621 239.84916 
L 502.988192 241.480122 
L 505.749762 243.067739 
L 507.130548 243.662843 
L 508.511333 244.069981 
L 509.892119 244.276712 
L 511.272904 244.291371 
L 512.653689 244.13975 
L 515.41526 243.507531 
L 518.176831 242.797146 
L 519.557616 242.548831 
L 520.938402 242.426818 
L 522.319187 242.450926 
L 523.699973 242.620085 
L 526.461543 243.294212 
L 530.603899 244.512799 
L 533.36547 245.016355 
L 536.127041 245.118687 
L 538.888612 244.87856 
L 544.411753 244.146068 
L 547.173324 244.076727 
L 549.934895 244.312624 
L 556.838822 245.274537 
L 559.600393 245.346312 
L 562.361963 245.138165 
L 570.646676 244.078673 
L 573.408247 244.154873 
L 576.169817 244.509767 
L 581.692959 245.410607 
L 584.45453 245.682301 
L 588.596886 245.8022 
L 601.023954 245.775695 
L 607.927881 245.879701 
L 613.451023 245.701877 
L 620.35495 245.3899 
L 624.497306 245.451719 
L 638.30516 246.013821 
L 654.874585 246.039998 
L 685.251863 245.956476 
L 696.298146 245.711513 
L 696.298146 245.711513 
" clip-path="url(#p8ddc1b61aa)" style="fill: none; stroke: #fdc422; stroke-width: 1.5; stroke-linecap: round"/>
   </g>
   <g id="patch_38">
    <path d="M 407.783039 246.04 
L 407.783039 26.925 
" style="fill: none; stroke: #cccccc; stroke-width: 0.8; stroke-linejoin: miter; stroke-linecap: square"/>
   </g>
   <g id="patch_39">
    <path d="M 710.036961 246.04 
L 710.036961 26.925 
" style="fill: none; stroke: #cccccc; stroke-width: 0.8; stroke-linejoin: miter; stroke-linecap: square"/>
   </g>
   <g id="patch_40">
    <path d="M 407.783039 246.04 
L 710.036961 246.04 
" style="fill: none; stroke: #cccccc; stroke-width: 0.8; stroke-linejoin: miter; stroke-linecap: square"/>
   </g>
   <g id="patch_41">
    <path d="M 407.783039 26.925 
L 710.036961 26.925 
" style="fill: none; stroke: #cccccc; stroke-width: 0.8; stroke-linejoin: miter; stroke-linecap: square"/>
   </g>
   <g id="text_32">
    <!-- NHBA Distribution -->
    <g style="fill: #262626" transform="translate(496.132187 20.925) scale(0.12 -0.12)">
     <defs>
      <path id="FiraCode-Regular-4e" d="M 2593 0 
L 1001 3975 
Q 1004 3876 1024 3602 
Q 1044 3328 1060 2972 
Q 1077 2616 1077 2265 
L 1077 0 
L 548 0 
L 548 4519 
L 1319 4519 
L 2937 528 
Q 2934 624 2914 878 
Q 2895 1132 2878 1491 
Q 2862 1851 2862 2258 
L 2862 4519 
L 3390 4519 
L 3390 0 
L 2593 0 
z
" transform="scale(0.015625)"/>
      <path id="FiraCode-Regular-48" d="M 2823 0 
L 2823 2143 
L 1116 2143 
L 1116 0 
L 548 0 
L 548 4519 
L 1116 4519 
L 1116 2609 
L 2823 2609 
L 2823 4519 
L 3390 4519 
L 3390 0 
L 2823 0 
z
" transform="scale(0.015625)"/>
      <path id="FiraCode-Regular-42" d="M 3541 1290 
Q 3541 919 3395 671 
Q 3249 423 3004 275 
Q 2760 128 2460 64 
Q 2160 0 1848 0 
L 633 0 
L 633 4519 
L 1746 4519 
Q 2041 4519 2327 4465 
Q 2613 4411 2842 4281 
Q 3072 4152 3208 3932 
Q 3344 3712 3344 3381 
Q 3344 3088 3224 2886 
Q 3105 2685 2913 2563 
Q 2721 2442 2504 2393 
Q 2754 2350 2992 2236 
Q 3230 2123 3385 1897 
Q 3541 1671 3541 1290 
z
M 2760 3351 
Q 2760 3735 2522 3897 
Q 2284 4060 1874 4060 
L 1201 4060 
L 1201 2596 
L 1930 2596 
Q 2330 2596 2545 2775 
Q 2760 2954 2760 3351 
z
M 2941 1270 
Q 2941 1611 2808 1796 
Q 2675 1982 2455 2054 
Q 2235 2127 1973 2127 
L 1201 2127 
L 1201 469 
L 1946 469 
Q 2169 469 2399 530 
Q 2629 591 2785 763 
Q 2941 935 2941 1270 
z
" transform="scale(0.015625)"/>
      <path id="FiraCode-Regular-41" d="M 2846 1152 
L 1057 1152 
L 696 0 
L 135 0 
L 1605 4519 
L 2334 4519 
L 3804 0 
L 3207 0 
L 2846 1152 
z
M 1205 1625 
L 2698 1625 
L 1956 4040 
L 1205 1625 
z
" transform="scale(0.015625)"/>
     </defs>
     <use xlink:href="#FiraCode-Regular-4e"/>
     <use xlink:href="#FiraCode-Regular-48" transform="translate(61.538452 0)"/>
     <use xlink:href="#FiraCode-Regular-42" transform="translate(123.076904 0)"/>
     <use xlink:href="#FiraCode-Regular-41" transform="translate(184.615356 0)"/>
     <use xlink:href="#FiraCode-Regular-20" transform="translate(246.153809 0)"/>
     <use xlink:href="#FiraCode-Regular-44" transform="translate(307.692261 0)"/>
     <use xlink:href="#FiraCode-Regular-69" transform="translate(369.230713 0)"/>
     <use xlink:href="#FiraCode-Regular-73" transform="translate(430.769165 0)"/>
     <use xlink:href="#FiraCode-Regular-74" transform="translate(492.307617 0)"/>
     <use xlink:href="#FiraCode-Regular-72" transform="translate(553.846069 0)"/>
     <use xlink:href="#FiraCode-Regular-69" transform="translate(615.384521 0)"/>
     <use xlink:href="#FiraCode-Regular-62" transform="translate(676.922974 0)"/>
     <use xlink:href="#FiraCode-Regular-75" transform="translate(738.461426 0)"/>
     <use xlink:href="#FiraCode-Regular-74" transform="translate(799.999878 0)"/>
     <use xlink:href="#FiraCode-Regular-69" transform="translate(861.53833 0)"/>
     <use xlink:href="#FiraCode-Regular-6f" transform="translate(923.076782 0)"/>
     <use xlink:href="#FiraCode-Regular-6e" transform="translate(984.615234 0)"/>
    </g>
   </g>
  </g>
  <g id="axes_3">
   <g id="patch_42">
    <path d="M 766.946078 246.04 
L 1069.2 246.04 
L 1069.2 26.925 
L 766.946078 26.925 
z
" style="fill: #ffffff"/>
   </g>
   <g id="matplotlib.axis_5">
    <g id="xtick_16">
     <g id="line2d_29">
      <path d="M 772.345703 246.04 
L 772.345703 26.925 
" clip-path="url(#pa10b82117b)" style="fill: none; stroke: #cccccc; stroke-width: 0.8; stroke-linecap: round"/>
     </g>
     <g id="text_33">
      <!-- 12 -->
      <g style="fill: #262626" transform="translate(763.864453 260.197812) scale(0.1 -0.1)">
       <defs>
        <path id="ArialMT-2212" d="M 3381 1997 
L 356 1997 
L 356 2522 
L 3381 2522 
L 3381 1997 
z
" transform="scale(0.015625)"/>
       </defs>
       <use xlink:href="#ArialMT-2212"/>
       <use xlink:href="#ArialMT-31" transform="translate(58.398438 0)"/>
       <use xlink:href="#ArialMT-32" transform="translate(114.013672 0)"/>
      </g>
     </g>
    </g>
    <g id="xtick_17">
     <g id="line2d_30">
      <path d="M 814.04165 246.04 
L 814.04165 26.925 
" clip-path="url(#pa10b82117b)" style="fill: none; stroke: #cccccc; stroke-width: 0.8; stroke-linecap: round"/>
     </g>
     <g id="text_34">
      <!-- 10 -->
      <g style="fill: #262626" transform="translate(805.5604 260.197812) scale(0.1 -0.1)">
       <use xlink:href="#ArialMT-2212"/>
       <use xlink:href="#ArialMT-31" transform="translate(58.398438 0)"/>
       <use xlink:href="#ArialMT-30" transform="translate(114.013672 0)"/>
      </g>
     </g>
    </g>
    <g id="xtick_18">
     <g id="line2d_31">
      <path d="M 855.737598 246.04 
L 855.737598 26.925 
" clip-path="url(#pa10b82117b)" style="fill: none; stroke: #cccccc; stroke-width: 0.8; stroke-linecap: round"/>
     </g>
     <g id="text_35">
      <!-- 8 -->
      <g style="fill: #262626" transform="translate(850.036816 260.197812) scale(0.1 -0.1)">
       <use xlink:href="#ArialMT-2212"/>
       <use xlink:href="#ArialMT-38" transform="translate(58.398438 0)"/>
      </g>
     </g>
    </g>
    <g id="xtick_19">
     <g id="line2d_32">
      <path d="M 897.433545 246.04 
L 897.433545 26.925 
" clip-path="url(#pa10b82117b)" style="fill: none; stroke: #cccccc; stroke-width: 0.8; stroke-linecap: round"/>
     </g>
     <g id="text_36">
      <!-- 6 -->
      <g style="fill: #262626" transform="translate(891.732764 260.197812) scale(0.1 -0.1)">
       <use xlink:href="#ArialMT-2212"/>
       <use xlink:href="#ArialMT-36" transform="translate(58.398438 0)"/>
      </g>
     </g>
    </g>
    <g id="xtick_20">
     <g id="line2d_33">
      <path d="M 939.129492 246.04 
L 939.129492 26.925 
" clip-path="url(#pa10b82117b)" style="fill: none; stroke: #cccccc; stroke-width: 0.8; stroke-linecap: round"/>
     </g>
     <g id="text_37">
      <!-- 4 -->
      <g style="fill: #262626" transform="translate(933.428711 260.197812) scale(0.1 -0.1)">
       <use xlink:href="#ArialMT-2212"/>
       <use xlink:href="#ArialMT-34" transform="translate(58.398438 0)"/>
      </g>
     </g>
    </g>
    <g id="xtick_21">
     <g id="line2d_34">
      <path d="M 980.82544 246.04 
L 980.82544 26.925 
" clip-path="url(#pa10b82117b)" style="fill: none; stroke: #cccccc; stroke-width: 0.8; stroke-linecap: round"/>
     </g>
     <g id="text_38">
      <!-- 2 -->
      <g style="fill: #262626" transform="translate(975.124658 260.197812) scale(0.1 -0.1)">
       <use xlink:href="#ArialMT-2212"/>
       <use xlink:href="#ArialMT-32" transform="translate(58.398438 0)"/>
      </g>
     </g>
    </g>
    <g id="xtick_22">
     <g id="line2d_35">
      <path d="M 1022.521387 246.04 
L 1022.521387 26.925 
" clip-path="url(#pa10b82117b)" style="fill: none; stroke: #cccccc; stroke-width: 0.8; stroke-linecap: round"/>
     </g>
     <g id="text_39">
      <!-- 0 -->
      <g style="fill: #262626" transform="translate(1019.740918 260.197812) scale(0.1 -0.1)">
       <use xlink:href="#ArialMT-30"/>
      </g>
     </g>
    </g>
    <g id="xtick_23">
     <g id="line2d_36">
      <path d="M 1064.217334 246.04 
L 1064.217334 26.925 
" clip-path="url(#pa10b82117b)" style="fill: none; stroke: #cccccc; stroke-width: 0.8; stroke-linecap: round"/>
     </g>
     <g id="text_40">
      <!-- 2 -->
      <g style="fill: #262626" transform="translate(1061.436866 260.197812) scale(0.1 -0.1)">
       <use xlink:href="#ArialMT-32"/>
      </g>
     </g>
    </g>
    <g id="text_41">
     <!-- measured log solubility in mols per litre -->
     <g style="fill: #262626" transform="translate(831.930851 273.343125) scale(0.1 -0.1)">
      <defs>
       <path id="ArialMT-79" d="M 397 -1278 
L 334 -750 
Q 519 -800 656 -800 
Q 844 -800 956 -737 
Q 1069 -675 1141 -563 
Q 1194 -478 1313 -144 
Q 1328 -97 1363 -6 
L 103 3319 
L 709 3319 
L 1400 1397 
Q 1534 1031 1641 628 
Q 1738 1016 1872 1384 
L 2581 3319 
L 3144 3319 
L 1881 -56 
Q 1678 -603 1566 -809 
Q 1416 -1088 1222 -1217 
Q 1028 -1347 759 -1347 
Q 597 -1347 397 -1278 
z
" transform="scale(0.015625)"/>
       <path id="ArialMT-70" d="M 422 -1272 
L 422 3319 
L 934 3319 
L 934 2888 
Q 1116 3141 1344 3267 
Q 1572 3394 1897 3394 
Q 2322 3394 2647 3175 
Q 2972 2956 3137 2557 
Q 3303 2159 3303 1684 
Q 3303 1175 3120 767 
Q 2938 359 2589 142 
Q 2241 -75 1856 -75 
Q 1575 -75 1351 44 
Q 1128 163 984 344 
L 984 -1272 
L 422 -1272 
z
M 931 1641 
Q 931 1000 1190 694 
Q 1450 388 1819 388 
Q 2194 388 2461 705 
Q 2728 1022 2728 1688 
Q 2728 2322 2467 2637 
Q 2206 2953 1844 2953 
Q 1484 2953 1207 2617 
Q 931 2281 931 1641 
z
" transform="scale(0.015625)"/>
      </defs>
      <use xlink:href="#ArialMT-6d"/>
      <use xlink:href="#ArialMT-65" transform="translate(83.300781 0)"/>
      <use xlink:href="#ArialMT-61" transform="translate(138.916016 0)"/>
      <use xlink:href="#ArialMT-73" transform="translate(194.53125 0)"/>
      <use xlink:href="#ArialMT-75" transform="translate(244.53125 0)"/>
      <use xlink:href="#ArialMT-72" transform="translate(300.146484 0)"/>
      <use xlink:href="#ArialMT-65" transform="translate(333.447266 0)"/>
      <use xlink:href="#ArialMT-64" transform="translate(389.0625 0)"/>
      <use xlink:href="#ArialMT-20" transform="translate(444.677734 0)"/>
      <use xlink:href="#ArialMT-6c" transform="translate(472.460938 0)"/>
      <use xlink:href="#ArialMT-6f" transform="translate(494.677734 0)"/>
      <use xlink:href="#ArialMT-67" transform="translate(550.292969 0)"/>
      <use xlink:href="#ArialMT-20" transform="translate(605.908203 0)"/>
      <use xlink:href="#ArialMT-73" transform="translate(633.691406 0)"/>
      <use xlink:href="#ArialMT-6f" transform="translate(683.691406 0)"/>
      <use xlink:href="#ArialMT-6c" transform="translate(739.306641 0)"/>
      <use xlink:href="#ArialMT-75" transform="translate(761.523438 0)"/>
      <use xlink:href="#ArialMT-62" transform="translate(817.138672 0)"/>
      <use xlink:href="#ArialMT-69" transform="translate(872.753906 0)"/>
      <use xlink:href="#ArialMT-6c" transform="translate(894.970703 0)"/>
      <use xlink:href="#ArialMT-69" transform="translate(917.1875 0)"/>
      <use xlink:href="#ArialMT-74" transform="translate(939.404297 0)"/>
      <use xlink:href="#ArialMT-79" transform="translate(967.1875 0)"/>
      <use xlink:href="#ArialMT-20" transform="translate(1017.1875 0)"/>
      <use xlink:href="#ArialMT-69" transform="translate(1044.970703 0)"/>
      <use xlink:href="#ArialMT-6e" transform="translate(1067.1875 0)"/>
      <use xlink:href="#ArialMT-20" transform="translate(1122.802734 0)"/>
      <use xlink:href="#ArialMT-6d" transform="translate(1150.585938 0)"/>
      <use xlink:href="#ArialMT-6f" transform="translate(1233.886719 0)"/>
      <use xlink:href="#ArialMT-6c" transform="translate(1289.501953 0)"/>
      <use xlink:href="#ArialMT-73" transform="translate(1311.71875 0)"/>
      <use xlink:href="#ArialMT-20" transform="translate(1361.71875 0)"/>
      <use xlink:href="#ArialMT-70" transform="translate(1389.501953 0)"/>
      <use xlink:href="#ArialMT-65" transform="translate(1445.117188 0)"/>
      <use xlink:href="#ArialMT-72" transform="translate(1500.732422 0)"/>
      <use xlink:href="#ArialMT-20" transform="translate(1534.033203 0)"/>
      <use xlink:href="#ArialMT-6c" transform="translate(1561.816406 0)"/>
      <use xlink:href="#ArialMT-69" transform="translate(1584.033203 0)"/>
      <use xlink:href="#ArialMT-74" transform="translate(1606.25 0)"/>
      <use xlink:href="#ArialMT-72" transform="translate(1634.033203 0)"/>
      <use xlink:href="#ArialMT-65" transform="translate(1667.333984 0)"/>
     </g>
    </g>
   </g>
   <g id="matplotlib.axis_6">
    <g id="ytick_12">
     <g id="line2d_37">
      <path d="M 766.946078 246.04 
L 1069.2 246.04 
" clip-path="url(#pa10b82117b)" style="fill: none; stroke: #cccccc; stroke-width: 0.8; stroke-linecap: round"/>
     </g>
     <g id="text_42">
      <!-- 0 -->
      <g style="fill: #262626" transform="translate(754.38514 249.618906) scale(0.1 -0.1)">
       <use xlink:href="#ArialMT-30"/>
      </g>
     </g>
    </g>
    <g id="ytick_13">
     <g id="line2d_38">
      <path d="M 766.946078 218.938578 
L 1069.2 218.938578 
" clip-path="url(#pa10b82117b)" style="fill: none; stroke: #cccccc; stroke-width: 0.8; stroke-linecap: round"/>
     </g>
     <g id="text_43">
      <!-- 20 -->
      <g style="fill: #262626" transform="translate(748.824203 222.517484) scale(0.1 -0.1)">
       <use xlink:href="#ArialMT-32"/>
       <use xlink:href="#ArialMT-30" transform="translate(55.615234 0)"/>
      </g>
     </g>
    </g>
    <g id="ytick_14">
     <g id="line2d_39">
      <path d="M 766.946078 191.837155 
L 1069.2 191.837155 
" clip-path="url(#pa10b82117b)" style="fill: none; stroke: #cccccc; stroke-width: 0.8; stroke-linecap: round"/>
     </g>
     <g id="text_44">
      <!-- 40 -->
      <g style="fill: #262626" transform="translate(748.824203 195.416061) scale(0.1 -0.1)">
       <use xlink:href="#ArialMT-34"/>
       <use xlink:href="#ArialMT-30" transform="translate(55.615234 0)"/>
      </g>
     </g>
    </g>
    <g id="ytick_15">
     <g id="line2d_40">
      <path d="M 766.946078 164.735733 
L 1069.2 164.735733 
" clip-path="url(#pa10b82117b)" style="fill: none; stroke: #cccccc; stroke-width: 0.8; stroke-linecap: round"/>
     </g>
     <g id="text_45">
      <!-- 60 -->
      <g style="fill: #262626" transform="translate(748.824203 168.314639) scale(0.1 -0.1)">
       <use xlink:href="#ArialMT-36"/>
       <use xlink:href="#ArialMT-30" transform="translate(55.615234 0)"/>
      </g>
     </g>
    </g>
    <g id="ytick_16">
     <g id="line2d_41">
      <path d="M 766.946078 137.63431 
L 1069.2 137.63431 
" clip-path="url(#pa10b82117b)" style="fill: none; stroke: #cccccc; stroke-width: 0.8; stroke-linecap: round"/>
     </g>
     <g id="text_46">
      <!-- 80 -->
      <g style="fill: #262626" transform="translate(748.824203 141.213217) scale(0.1 -0.1)">
       <use xlink:href="#ArialMT-38"/>
       <use xlink:href="#ArialMT-30" transform="translate(55.615234 0)"/>
      </g>
     </g>
    </g>
    <g id="ytick_17">
     <g id="line2d_42">
      <path d="M 766.946078 110.532888 
L 1069.2 110.532888 
" clip-path="url(#pa10b82117b)" style="fill: none; stroke: #cccccc; stroke-width: 0.8; stroke-linecap: round"/>
     </g>
     <g id="text_47">
      <!-- 100 -->
      <g style="fill: #262626" transform="translate(743.263265 114.111794) scale(0.1 -0.1)">
       <use xlink:href="#ArialMT-31"/>
       <use xlink:href="#ArialMT-30" transform="translate(55.615234 0)"/>
       <use xlink:href="#ArialMT-30" transform="translate(111.230469 0)"/>
      </g>
     </g>
    </g>
    <g id="ytick_18">
     <g id="line2d_43">
      <path d="M 766.946078 83.431466 
L 1069.2 83.431466 
" clip-path="url(#pa10b82117b)" style="fill: none; stroke: #cccccc; stroke-width: 0.8; stroke-linecap: round"/>
     </g>
     <g id="text_48">
      <!-- 120 -->
      <g style="fill: #262626" transform="translate(743.263265 87.010372) scale(0.1 -0.1)">
       <use xlink:href="#ArialMT-31"/>
       <use xlink:href="#ArialMT-32" transform="translate(55.615234 0)"/>
       <use xlink:href="#ArialMT-30" transform="translate(111.230469 0)"/>
      </g>
     </g>
    </g>
    <g id="ytick_19">
     <g id="line2d_44">
      <path d="M 766.946078 56.330043 
L 1069.2 56.330043 
" clip-path="url(#pa10b82117b)" style="fill: none; stroke: #cccccc; stroke-width: 0.8; stroke-linecap: round"/>
     </g>
     <g id="text_49">
      <!-- 140 -->
      <g style="fill: #262626" transform="translate(743.263265 59.90895) scale(0.1 -0.1)">
       <use xlink:href="#ArialMT-31"/>
       <use xlink:href="#ArialMT-34" transform="translate(55.615234 0)"/>
       <use xlink:href="#ArialMT-30" transform="translate(111.230469 0)"/>
      </g>
     </g>
    </g>
    <g id="ytick_20">
     <g id="line2d_45">
      <path d="M 766.946078 29.228621 
L 1069.2 29.228621 
" clip-path="url(#pa10b82117b)" style="fill: none; stroke: #cccccc; stroke-width: 0.8; stroke-linecap: round"/>
     </g>
     <g id="text_50">
      <!-- 160 -->
      <g style="fill: #262626" transform="translate(743.263265 32.807527) scale(0.1 -0.1)">
       <use xlink:href="#ArialMT-31"/>
       <use xlink:href="#ArialMT-36" transform="translate(55.615234 0)"/>
       <use xlink:href="#ArialMT-30" transform="translate(111.230469 0)"/>
      </g>
     </g>
    </g>
    <g id="text_51">
     <!-- Count -->
     <g style="fill: #262626" transform="translate(737.275765 149.823906) rotate(-90) scale(0.1 -0.1)">
      <use xlink:href="#ArialMT-43"/>
      <use xlink:href="#ArialMT-6f" transform="translate(72.216797 0)"/>
      <use xlink:href="#ArialMT-75" transform="translate(127.832031 0)"/>
      <use xlink:href="#ArialMT-6e" transform="translate(183.447266 0)"/>
      <use xlink:href="#ArialMT-74" transform="translate(239.0625 0)"/>
     </g>
    </g>
   </g>
   <g id="patch_43">
    <path d="M 780.684893 246.04 
L 794.423707 246.04 
L 794.423707 244.684929 
L 780.684893 244.684929 
z
" clip-path="url(#pa10b82117b)" style="fill: #fc8d62; fill-opacity: 0.5; stroke: #ffffff; stroke-linejoin: miter"/>
   </g>
   <g id="patch_44">
    <path d="M 794.423707 246.04 
L 808.162522 246.04 
L 808.162522 246.04 
L 794.423707 246.04 
z
" clip-path="url(#pa10b82117b)" style="fill: #fc8d62; fill-opacity: 0.5; stroke: #ffffff; stroke-linejoin: miter"/>
   </g>
   <g id="patch_45">
    <path d="M 808.162522 246.04 
L 821.901336 246.04 
L 821.901336 246.04 
L 808.162522 246.04 
z
" clip-path="url(#pa10b82117b)" style="fill: #fc8d62; fill-opacity: 0.5; stroke: #ffffff; stroke-linejoin: miter"/>
   </g>
   <g id="patch_46">
    <path d="M 821.901336 246.04 
L 835.640151 246.04 
L 835.640151 240.619716 
L 821.901336 240.619716 
z
" clip-path="url(#pa10b82117b)" style="fill: #fc8d62; fill-opacity: 0.5; stroke: #ffffff; stroke-linejoin: miter"/>
   </g>
   <g id="patch_47">
    <path d="M 835.640151 246.04 
L 849.378966 246.04 
L 849.378966 228.424075 
L 835.640151 228.424075 
z
" clip-path="url(#pa10b82117b)" style="fill: #fc8d62; fill-opacity: 0.5; stroke: #ffffff; stroke-linejoin: miter"/>
   </g>
   <g id="patch_48">
    <path d="M 849.378966 246.04 
L 863.11778 246.04 
L 863.11778 218.938578 
L 849.378966 218.938578 
z
" clip-path="url(#pa10b82117b)" style="fill: #fc8d62; fill-opacity: 0.5; stroke: #ffffff; stroke-linejoin: miter"/>
   </g>
   <g id="patch_49">
    <path d="M 863.11778 246.04 
L 876.856595 246.04 
L 876.856595 218.938578 
L 863.11778 218.938578 
z
" clip-path="url(#pa10b82117b)" style="fill: #fc8d62; fill-opacity: 0.5; stroke: #ffffff; stroke-linejoin: miter"/>
   </g>
   <g id="patch_50">
    <path d="M 876.856595 246.04 
L 890.59541 246.04 
L 890.59541 209.45308 
L 876.856595 209.45308 
z
" clip-path="url(#pa10b82117b)" style="fill: #fc8d62; fill-opacity: 0.5; stroke: #ffffff; stroke-linejoin: miter"/>
   </g>
   <g id="patch_51">
    <path d="M 890.59541 246.04 
L 904.334224 246.04 
L 904.334224 195.902369 
L 890.59541 195.902369 
z
" clip-path="url(#pa10b82117b)" style="fill: #fc8d62; fill-opacity: 0.5; stroke: #ffffff; stroke-linejoin: miter"/>
   </g>
   <g id="patch_52">
    <path d="M 904.334224 246.04 
L 918.073039 246.04 
L 918.073039 167.445875 
L 904.334224 167.445875 
z
" clip-path="url(#pa10b82117b)" style="fill: #fc8d62; fill-opacity: 0.5; stroke: #ffffff; stroke-linejoin: miter"/>
   </g>
   <g id="patch_53">
    <path d="M 918.073039 246.04 
L 931.811854 246.04 
L 931.811854 111.887959 
L 918.073039 111.887959 
z
" clip-path="url(#pa10b82117b)" style="fill: #fc8d62; fill-opacity: 0.5; stroke: #ffffff; stroke-linejoin: miter"/>
   </g>
   <g id="patch_54">
    <path d="M 931.811854 246.04 
L 945.550668 246.04 
L 945.550668 95.627106 
L 931.811854 95.627106 
z
" clip-path="url(#pa10b82117b)" style="fill: #fc8d62; fill-opacity: 0.5; stroke: #ffffff; stroke-linejoin: miter"/>
   </g>
   <g id="patch_55">
    <path d="M 945.550668 246.04 
L 959.289483 246.04 
L 959.289483 49.554688 
L 945.550668 49.554688 
z
" clip-path="url(#pa10b82117b)" style="fill: #fc8d62; fill-opacity: 0.5; stroke: #ffffff; stroke-linejoin: miter"/>
   </g>
   <g id="patch_56">
    <path d="M 959.289483 246.04 
L 973.028298 246.04 
L 973.028298 61.750328 
L 959.289483 61.750328 
z
" clip-path="url(#pa10b82117b)" style="fill: #fc8d62; fill-opacity: 0.5; stroke: #ffffff; stroke-linejoin: miter"/>
   </g>
   <g id="patch_57">
    <path d="M 973.028298 246.04 
L 986.767112 246.04 
L 986.767112 37.359048 
L 973.028298 37.359048 
z
" clip-path="url(#pa10b82117b)" style="fill: #fc8d62; fill-opacity: 0.5; stroke: #ffffff; stroke-linejoin: miter"/>
   </g>
   <g id="patch_58">
    <path d="M 986.767112 246.04 
L 1000.505927 246.04 
L 1000.505927 92.916964 
L 986.767112 92.916964 
z
" clip-path="url(#pa10b82117b)" style="fill: #fc8d62; fill-opacity: 0.5; stroke: #ffffff; stroke-linejoin: miter"/>
   </g>
   <g id="patch_59">
    <path d="M 1000.505927 246.04 
L 1014.244741 246.04 
L 1014.244741 120.018386 
L 1000.505927 120.018386 
z
" clip-path="url(#pa10b82117b)" style="fill: #fc8d62; fill-opacity: 0.5; stroke: #ffffff; stroke-linejoin: miter"/>
   </g>
   <g id="patch_60">
    <path d="M 1014.244741 246.04 
L 1027.983556 246.04 
L 1027.983556 187.771942 
L 1014.244741 187.771942 
z
" clip-path="url(#pa10b82117b)" style="fill: #fc8d62; fill-opacity: 0.5; stroke: #ffffff; stroke-linejoin: miter"/>
   </g>
   <g id="patch_61">
    <path d="M 1027.983556 246.04 
L 1041.722371 246.04 
L 1041.722371 193.192226 
L 1027.983556 193.192226 
z
" clip-path="url(#pa10b82117b)" style="fill: #fc8d62; fill-opacity: 0.5; stroke: #ffffff; stroke-linejoin: miter"/>
   </g>
   <g id="patch_62">
    <path d="M 1041.722371 246.04 
L 1055.461185 246.04 
L 1055.461185 225.713933 
L 1041.722371 225.713933 
z
" clip-path="url(#pa10b82117b)" style="fill: #fc8d62; fill-opacity: 0.5; stroke: #ffffff; stroke-linejoin: miter"/>
   </g>
   <g id="line2d_46">
    <path d="M 780.684893 245.346932 
L 787.588819 245.47589 
L 801.396673 245.860963 
L 806.919815 245.737375 
L 811.062171 245.40612 
L 813.823742 245.014641 
L 816.585313 244.445759 
L 819.346883 243.667959 
L 822.108454 242.659426 
L 824.870025 241.412709 
L 827.631596 239.936909 
L 830.393167 238.257177 
L 834.535523 235.442968 
L 846.962591 226.62653 
L 849.724162 224.958464 
L 852.485733 223.474823 
L 856.628089 221.56076 
L 867.674372 216.892143 
L 871.816728 214.77494 
L 875.959085 212.344093 
L 880.101441 209.571749 
L 882.863011 207.508163 
L 885.624582 205.246168 
L 888.386153 202.754174 
L 891.147724 199.984428 
L 893.909295 196.864864 
L 896.670865 193.296949 
L 899.432436 189.163752 
L 902.194007 184.347401 
L 904.955578 178.750871 
L 907.717148 172.318595 
L 910.478719 165.053024 
L 913.24029 157.027074 
L 917.382646 143.915341 
L 924.286573 121.417884 
L 927.048144 113.09778 
L 929.809715 105.544183 
L 932.571286 98.865361 
L 935.332856 93.042487 
L 938.094427 87.955625 
L 940.855998 83.434526 
L 943.617569 79.312587 
L 947.759925 73.611968 
L 951.902281 68.279368 
L 957.425423 61.505073 
L 961.567779 56.670402 
L 964.32935 53.763014 
L 965.710135 52.497021 
L 967.09092 51.413383 
L 968.471706 50.56006 
L 969.852491 49.98563 
L 971.233276 49.735932 
L 972.614062 49.850632 
L 973.994847 50.360072 
L 975.375633 51.28273 
L 976.756418 52.623558 
L 978.137203 54.373373 
L 979.517989 56.509374 
L 980.898774 58.996724 
L 982.27956 61.79105 
L 985.04113 68.094842 
L 989.183487 78.56611 
L 1001.610555 111.121721 
L 1005.752911 122.907418 
L 1009.895267 135.523083 
L 1016.799194 156.831968 
L 1019.560765 164.712385 
L 1022.322336 171.948548 
L 1025.083907 178.517488 
L 1027.845478 184.520308 
L 1031.987834 192.869466 
L 1047.176473 222.448498 
L 1049.938044 227.211864 
L 1052.699615 231.456921 
L 1055.461185 235.097734 
L 1055.461185 235.097734 
" clip-path="url(#pa10b82117b)" style="fill: none; stroke: #fc8d62; stroke-width: 1.5; stroke-linecap: round"/>
   </g>
   <g id="patch_63">
    <path d="M 766.946078 246.04 
L 766.946078 26.925 
" style="fill: none; stroke: #cccccc; stroke-width: 0.8; stroke-linejoin: miter; stroke-linecap: square"/>
   </g>
   <g id="patch_64">
    <path d="M 1069.2 246.04 
L 1069.2 26.925 
" style="fill: none; stroke: #cccccc; stroke-width: 0.8; stroke-linejoin: miter; stroke-linecap: square"/>
   </g>
   <g id="patch_65">
    <path d="M 766.946078 246.04 
L 1069.2 246.04 
" style="fill: none; stroke: #cccccc; stroke-width: 0.8; stroke-linejoin: miter; stroke-linecap: square"/>
   </g>
   <g id="patch_66">
    <path d="M 766.946078 26.925 
L 1069.2 26.925 
" style="fill: none; stroke: #cccccc; stroke-width: 0.8; stroke-linejoin: miter; stroke-linecap: square"/>
   </g>
   <g id="text_52">
    <!-- logS Distribution -->
    <g style="fill: #262626" transform="translate(855.295226 20.925) scale(0.12 -0.12)">
     <defs>
      <path id="FiraCode-Regular-53" d="M 3522 1250 
Q 3522 860 3328 561 
Q 3134 263 2765 94 
Q 2396 -75 1871 -75 
Q 1375 -75 973 75 
Q 571 226 286 502 
L 624 883 
Q 857 663 1162 533 
Q 1467 404 1881 404 
Q 2156 404 2396 494 
Q 2636 584 2783 769 
Q 2931 955 2931 1241 
Q 2931 1457 2845 1613 
Q 2760 1769 2543 1889 
Q 2327 2009 1940 2123 
Q 1493 2255 1166 2420 
Q 840 2586 661 2827 
Q 483 3069 483 3430 
Q 483 3768 670 4030 
Q 857 4293 1186 4442 
Q 1516 4592 1946 4592 
Q 2416 4592 2762 4459 
Q 3108 4326 3390 4076 
L 3056 3705 
Q 2813 3919 2534 4017 
Q 2255 4116 1966 4116 
Q 1595 4116 1329 3951 
Q 1063 3787 1063 3449 
Q 1063 3253 1168 3113 
Q 1273 2974 1522 2855 
Q 1772 2737 2202 2613 
Q 2553 2511 2853 2358 
Q 3154 2206 3338 1945 
Q 3522 1684 3522 1250 
z
" transform="scale(0.015625)"/>
     </defs>
     <use xlink:href="#FiraCode-Regular-6c"/>
     <use xlink:href="#FiraCode-Regular-6f" transform="translate(61.538452 0)"/>
     <use xlink:href="#FiraCode-Regular-67" transform="translate(123.076904 0)"/>
     <use xlink:href="#FiraCode-Regular-53" transform="translate(184.615356 0)"/>
     <use xlink:href="#FiraCode-Regular-20" transform="translate(246.153809 0)"/>
     <use xlink:href="#FiraCode-Regular-44" transform="translate(307.692261 0)"/>
     <use xlink:href="#FiraCode-Regular-69" transform="translate(369.230713 0)"/>
     <use xlink:href="#FiraCode-Regular-73" transform="translate(430.769165 0)"/>
     <use xlink:href="#FiraCode-Regular-74" transform="translate(492.307617 0)"/>
     <use xlink:href="#FiraCode-Regular-72" transform="translate(553.846069 0)"/>
     <use xlink:href="#FiraCode-Regular-69" transform="translate(615.384521 0)"/>
     <use xlink:href="#FiraCode-Regular-62" transform="translate(676.922974 0)"/>
     <use xlink:href="#FiraCode-Regular-75" transform="translate(738.461426 0)"/>
     <use xlink:href="#FiraCode-Regular-74" transform="translate(799.999878 0)"/>
     <use xlink:href="#FiraCode-Regular-69" transform="translate(861.53833 0)"/>
     <use xlink:href="#FiraCode-Regular-6f" transform="translate(923.076782 0)"/>
     <use xlink:href="#FiraCode-Regular-6e" transform="translate(984.615234 0)"/>
    </g>
   </g>
  </g>
 </g>
 <defs>
  <clipPath id="pc74b68ce37">
   <rect x="48.62" y="26.925" width="302.253922" height="219.115"/>
  </clipPath>
  <clipPath id="p8ddc1b61aa">
   <rect x="407.783039" y="26.925" width="302.253922" height="219.115"/>
  </clipPath>
  <clipPath id="pa10b82117b">
   <rect x="766.946078" y="26.925" width="302.253922" height="219.115"/>
  </clipPath>
 </defs>
</svg>
