<?xml version="1.0" encoding="utf-8" standalone="no"?>
<!DOCTYPE svg PUBLIC "-//W3C//DTD SVG 1.1//EN"
  "http://www.w3.org/Graphics/SVG/1.1/DTD/svg11.dtd">
<svg xmlns:xlink="http://www.w3.org/1999/xlink" width="393.022812pt" height="288.92pt" viewBox="0 0 393.022812 288.92" xmlns="http://www.w3.org/2000/svg" version="1.1">
 <metadata>
  <rdf:RDF xmlns:dc="http://purl.org/dc/elements/1.1/" xmlns:cc="http://creativecommons.org/ns#" xmlns:rdf="http://www.w3.org/1999/02/22-rdf-syntax-ns#">
   <cc:Work>
    <dc:type rdf:resource="http://purl.org/dc/dcmitype/StillImage"/>
    <dc:date>2025-03-03T21:15:44.931271</dc:date>
    <dc:format>image/svg+xml</dc:format>
    <dc:creator>
     <cc:Agent>
      <dc:title>Matplotlib v3.5.3, https://matplotlib.org/</dc:title>
     </cc:Agent>
    </dc:creator>
   </cc:Work>
  </rdf:RDF>
 </metadata>
 <defs>
  <style type="text/css">*{stroke-linejoin: round; stroke-linecap: butt}</style>
 </defs>
 <g id="figure_1">
  <g id="patch_1">
   <path d="M 0 288.92 
L 393.022812 288.92 
L 393.022812 0 
L 0 0 
z
" style="fill: #ffffff"/>
  </g>
  <g id="axes_1">
   <g id="patch_2">
    <path d="M 51.022813 246.6075 
L 385.822812 246.6075 
L 385.822812 24.8475 
L 51.022813 24.8475 
z
" style="fill: #ffffff"/>
   </g>
   <g id="matplotlib.axis_1">
    <g id="xtick_1">
     <g id="line2d_1">
      <path d="M 57.003858 246.6075 
L 57.003858 24.8475 
" clip-path="url(#p3e6433bcfa)" style="fill: none; stroke: #cccccc; stroke-width: 0.8; stroke-linecap: round"/>
     </g>
     <g id="text_1">
      <!-- −12 -->
      <g style="fill: #262626" transform="translate(46.826358 262.196875)scale(0.12 -0.12)">
       <defs>
        <path id="ArialMT-2212" d="M 3381 1997 
L 356 1997 
L 356 2522 
L 3381 2522 
L 3381 1997 
z
" transform="scale(0.015625)"/>
        <path id="ArialMT-31" d="M 2384 0 
L 1822 0 
L 1822 3584 
Q 1619 3391 1289 3197 
Q 959 3003 697 2906 
L 697 3450 
Q 1169 3672 1522 3987 
Q 1875 4303 2022 4600 
L 2384 4600 
L 2384 0 
z
" transform="scale(0.015625)"/>
        <path id="ArialMT-32" d="M 3222 541 
L 3222 0 
L 194 0 
Q 188 203 259 391 
Q 375 700 629 1000 
Q 884 1300 1366 1694 
Q 2113 2306 2375 2664 
Q 2638 3022 2638 3341 
Q 2638 3675 2398 3904 
Q 2159 4134 1775 4134 
Q 1369 4134 1125 3890 
Q 881 3647 878 3216 
L 300 3275 
Q 359 3922 746 4261 
Q 1134 4600 1788 4600 
Q 2447 4600 2831 4234 
Q 3216 3869 3216 3328 
Q 3216 3053 3103 2787 
Q 2991 2522 2730 2228 
Q 2469 1934 1863 1422 
Q 1356 997 1212 845 
Q 1069 694 975 541 
L 3222 541 
z
" transform="scale(0.015625)"/>
       </defs>
       <use xlink:href="#ArialMT-2212"/>
       <use xlink:href="#ArialMT-31" x="58.398438"/>
       <use xlink:href="#ArialMT-32" x="114.013672"/>
      </g>
     </g>
    </g>
    <g id="xtick_2">
     <g id="line2d_2">
      <path d="M 103.189539 246.6075 
L 103.189539 24.8475 
" clip-path="url(#p3e6433bcfa)" style="fill: none; stroke: #cccccc; stroke-width: 0.8; stroke-linecap: round"/>
     </g>
     <g id="text_2">
      <!-- −10 -->
      <g style="fill: #262626" transform="translate(93.012039 262.196875)scale(0.12 -0.12)">
       <defs>
        <path id="ArialMT-30" d="M 266 2259 
Q 266 3072 433 3567 
Q 600 4063 929 4331 
Q 1259 4600 1759 4600 
Q 2128 4600 2406 4451 
Q 2684 4303 2865 4023 
Q 3047 3744 3150 3342 
Q 3253 2941 3253 2259 
Q 3253 1453 3087 958 
Q 2922 463 2592 192 
Q 2263 -78 1759 -78 
Q 1097 -78 719 397 
Q 266 969 266 2259 
z
M 844 2259 
Q 844 1131 1108 757 
Q 1372 384 1759 384 
Q 2147 384 2411 759 
Q 2675 1134 2675 2259 
Q 2675 3391 2411 3762 
Q 2147 4134 1753 4134 
Q 1366 4134 1134 3806 
Q 844 3388 844 2259 
z
" transform="scale(0.015625)"/>
       </defs>
       <use xlink:href="#ArialMT-2212"/>
       <use xlink:href="#ArialMT-31" x="58.398438"/>
       <use xlink:href="#ArialMT-30" x="114.013672"/>
      </g>
     </g>
    </g>
    <g id="xtick_3">
     <g id="line2d_3">
      <path d="M 149.37522 246.6075 
L 149.37522 24.8475 
" clip-path="url(#p3e6433bcfa)" style="fill: none; stroke: #cccccc; stroke-width: 0.8; stroke-linecap: round"/>
     </g>
     <g id="text_3">
      <!-- −8 -->
      <g style="fill: #262626" transform="translate(142.534282 262.196875)scale(0.12 -0.12)">
       <defs>
        <path id="ArialMT-38" d="M 1131 2484 
Q 781 2613 612 2850 
Q 444 3088 444 3419 
Q 444 3919 803 4259 
Q 1163 4600 1759 4600 
Q 2359 4600 2725 4251 
Q 3091 3903 3091 3403 
Q 3091 3084 2923 2848 
Q 2756 2613 2416 2484 
Q 2838 2347 3058 2040 
Q 3278 1734 3278 1309 
Q 3278 722 2862 322 
Q 2447 -78 1769 -78 
Q 1091 -78 675 323 
Q 259 725 259 1325 
Q 259 1772 486 2073 
Q 713 2375 1131 2484 
z
M 1019 3438 
Q 1019 3113 1228 2906 
Q 1438 2700 1772 2700 
Q 2097 2700 2305 2904 
Q 2513 3109 2513 3406 
Q 2513 3716 2298 3927 
Q 2084 4138 1766 4138 
Q 1444 4138 1231 3931 
Q 1019 3725 1019 3438 
z
M 838 1322 
Q 838 1081 952 856 
Q 1066 631 1291 507 
Q 1516 384 1775 384 
Q 2178 384 2440 643 
Q 2703 903 2703 1303 
Q 2703 1709 2433 1975 
Q 2163 2241 1756 2241 
Q 1359 2241 1098 1978 
Q 838 1716 838 1322 
z
" transform="scale(0.015625)"/>
       </defs>
       <use xlink:href="#ArialMT-2212"/>
       <use xlink:href="#ArialMT-38" x="58.398438"/>
      </g>
     </g>
    </g>
    <g id="xtick_4">
     <g id="line2d_4">
      <path d="M 195.560901 246.6075 
L 195.560901 24.8475 
" clip-path="url(#p3e6433bcfa)" style="fill: none; stroke: #cccccc; stroke-width: 0.8; stroke-linecap: round"/>
     </g>
     <g id="text_4">
      <!-- −6 -->
      <g style="fill: #262626" transform="translate(188.719963 262.196875)scale(0.12 -0.12)">
       <defs>
        <path id="ArialMT-36" d="M 3184 3459 
L 2625 3416 
Q 2550 3747 2413 3897 
Q 2184 4138 1850 4138 
Q 1581 4138 1378 3988 
Q 1113 3794 959 3422 
Q 806 3050 800 2363 
Q 1003 2672 1297 2822 
Q 1591 2972 1913 2972 
Q 2475 2972 2870 2558 
Q 3266 2144 3266 1488 
Q 3266 1056 3080 686 
Q 2894 316 2569 119 
Q 2244 -78 1831 -78 
Q 1128 -78 684 439 
Q 241 956 241 2144 
Q 241 3472 731 4075 
Q 1159 4600 1884 4600 
Q 2425 4600 2770 4297 
Q 3116 3994 3184 3459 
z
M 888 1484 
Q 888 1194 1011 928 
Q 1134 663 1356 523 
Q 1578 384 1822 384 
Q 2178 384 2434 671 
Q 2691 959 2691 1453 
Q 2691 1928 2437 2201 
Q 2184 2475 1800 2475 
Q 1419 2475 1153 2201 
Q 888 1928 888 1484 
z
" transform="scale(0.015625)"/>
       </defs>
       <use xlink:href="#ArialMT-2212"/>
       <use xlink:href="#ArialMT-36" x="58.398438"/>
      </g>
     </g>
    </g>
    <g id="xtick_5">
     <g id="line2d_5">
      <path d="M 241.746581 246.6075 
L 241.746581 24.8475 
" clip-path="url(#p3e6433bcfa)" style="fill: none; stroke: #cccccc; stroke-width: 0.8; stroke-linecap: round"/>
     </g>
     <g id="text_5">
      <!-- −4 -->
      <g style="fill: #262626" transform="translate(234.905644 262.196875)scale(0.12 -0.12)">
       <defs>
        <path id="ArialMT-34" d="M 2069 0 
L 2069 1097 
L 81 1097 
L 81 1613 
L 2172 4581 
L 2631 4581 
L 2631 1613 
L 3250 1613 
L 3250 1097 
L 2631 1097 
L 2631 0 
L 2069 0 
z
M 2069 1613 
L 2069 3678 
L 634 1613 
L 2069 1613 
z
" transform="scale(0.015625)"/>
       </defs>
       <use xlink:href="#ArialMT-2212"/>
       <use xlink:href="#ArialMT-34" x="58.398438"/>
      </g>
     </g>
    </g>
    <g id="xtick_6">
     <g id="line2d_6">
      <path d="M 287.932262 246.6075 
L 287.932262 24.8475 
" clip-path="url(#p3e6433bcfa)" style="fill: none; stroke: #cccccc; stroke-width: 0.8; stroke-linecap: round"/>
     </g>
     <g id="text_6">
      <!-- −2 -->
      <g style="fill: #262626" transform="translate(281.091325 262.196875)scale(0.12 -0.12)">
       <use xlink:href="#ArialMT-2212"/>
       <use xlink:href="#ArialMT-32" x="58.398438"/>
      </g>
     </g>
    </g>
    <g id="xtick_7">
     <g id="line2d_7">
      <path d="M 334.117943 246.6075 
L 334.117943 24.8475 
" clip-path="url(#p3e6433bcfa)" style="fill: none; stroke: #cccccc; stroke-width: 0.8; stroke-linecap: round"/>
     </g>
     <g id="text_7">
      <!-- 0 -->
      <g style="fill: #262626" transform="translate(330.78138 262.196875)scale(0.12 -0.12)">
       <use xlink:href="#ArialMT-30"/>
      </g>
     </g>
    </g>
    <g id="xtick_8">
     <g id="line2d_8">
      <path d="M 380.303624 246.6075 
L 380.303624 24.8475 
" clip-path="url(#p3e6433bcfa)" style="fill: none; stroke: #cccccc; stroke-width: 0.8; stroke-linecap: round"/>
     </g>
     <g id="text_8">
      <!-- 2 -->
      <g style="fill: #262626" transform="translate(376.967061 262.196875)scale(0.12 -0.12)">
       <use xlink:href="#ArialMT-32"/>
      </g>
     </g>
    </g>
    <g id="text_9">
     <!-- logS -->
     <g style="fill: #262626" transform="translate(204.412969 278.773437)scale(0.14 -0.14)">
      <defs>
       <path id="ArialMT-6c" d="M 409 0 
L 409 4581 
L 972 4581 
L 972 0 
L 409 0 
z
" transform="scale(0.015625)"/>
       <path id="ArialMT-6f" d="M 213 1659 
Q 213 2581 725 3025 
Q 1153 3394 1769 3394 
Q 2453 3394 2887 2945 
Q 3322 2497 3322 1706 
Q 3322 1066 3130 698 
Q 2938 331 2570 128 
Q 2203 -75 1769 -75 
Q 1072 -75 642 372 
Q 213 819 213 1659 
z
M 791 1659 
Q 791 1022 1069 705 
Q 1347 388 1769 388 
Q 2188 388 2466 706 
Q 2744 1025 2744 1678 
Q 2744 2294 2464 2611 
Q 2184 2928 1769 2928 
Q 1347 2928 1069 2612 
Q 791 2297 791 1659 
z
" transform="scale(0.015625)"/>
       <path id="ArialMT-67" d="M 319 -275 
L 866 -356 
Q 900 -609 1056 -725 
Q 1266 -881 1628 -881 
Q 2019 -881 2231 -725 
Q 2444 -569 2519 -288 
Q 2563 -116 2559 434 
Q 2191 0 1641 0 
Q 956 0 581 494 
Q 206 988 206 1678 
Q 206 2153 378 2554 
Q 550 2956 876 3175 
Q 1203 3394 1644 3394 
Q 2231 3394 2613 2919 
L 2613 3319 
L 3131 3319 
L 3131 450 
Q 3131 -325 2973 -648 
Q 2816 -972 2473 -1159 
Q 2131 -1347 1631 -1347 
Q 1038 -1347 672 -1080 
Q 306 -813 319 -275 
z
M 784 1719 
Q 784 1066 1043 766 
Q 1303 466 1694 466 
Q 2081 466 2343 764 
Q 2606 1063 2606 1700 
Q 2606 2309 2336 2618 
Q 2066 2928 1684 2928 
Q 1309 2928 1046 2623 
Q 784 2319 784 1719 
z
" transform="scale(0.015625)"/>
       <path id="ArialMT-53" d="M 288 1472 
L 859 1522 
Q 900 1178 1048 958 
Q 1197 738 1509 602 
Q 1822 466 2213 466 
Q 2559 466 2825 569 
Q 3091 672 3220 851 
Q 3350 1031 3350 1244 
Q 3350 1459 3225 1620 
Q 3100 1781 2813 1891 
Q 2628 1963 1997 2114 
Q 1366 2266 1113 2400 
Q 784 2572 623 2826 
Q 463 3081 463 3397 
Q 463 3744 659 4045 
Q 856 4347 1234 4503 
Q 1613 4659 2075 4659 
Q 2584 4659 2973 4495 
Q 3363 4331 3572 4012 
Q 3781 3694 3797 3291 
L 3216 3247 
Q 3169 3681 2898 3903 
Q 2628 4125 2100 4125 
Q 1550 4125 1298 3923 
Q 1047 3722 1047 3438 
Q 1047 3191 1225 3031 
Q 1400 2872 2139 2705 
Q 2878 2538 3153 2413 
Q 3553 2228 3743 1945 
Q 3934 1663 3934 1294 
Q 3934 928 3725 604 
Q 3516 281 3123 101 
Q 2731 -78 2241 -78 
Q 1619 -78 1198 103 
Q 778 284 539 648 
Q 300 1013 288 1472 
z
" transform="scale(0.015625)"/>
      </defs>
      <use xlink:href="#ArialMT-6c"/>
      <use xlink:href="#ArialMT-6f" x="22.216797"/>
      <use xlink:href="#ArialMT-67" x="77.832031"/>
      <use xlink:href="#ArialMT-53" x="133.447266"/>
     </g>
    </g>
   </g>
   <g id="matplotlib.axis_2">
    <g id="ytick_1">
     <g id="line2d_9">
      <path d="M 51.022813 246.6075 
L 385.822812 246.6075 
" clip-path="url(#p3e6433bcfa)" style="fill: none; stroke: #cccccc; stroke-width: 0.8; stroke-linecap: round"/>
     </g>
     <g id="text_10">
      <!-- 0 -->
      <g style="fill: #262626" transform="translate(37.349688 250.902187)scale(0.12 -0.12)">
       <use xlink:href="#ArialMT-30"/>
      </g>
     </g>
    </g>
    <g id="ytick_2">
     <g id="line2d_10">
      <path d="M 51.022813 219.178929 
L 385.822812 219.178929 
" clip-path="url(#p3e6433bcfa)" style="fill: none; stroke: #cccccc; stroke-width: 0.8; stroke-linecap: round"/>
     </g>
     <g id="text_11">
      <!-- 20 -->
      <g style="fill: #262626" transform="translate(30.676563 223.473616)scale(0.12 -0.12)">
       <use xlink:href="#ArialMT-32"/>
       <use xlink:href="#ArialMT-30" x="55.615234"/>
      </g>
     </g>
    </g>
    <g id="ytick_3">
     <g id="line2d_11">
      <path d="M 51.022813 191.750357 
L 385.822812 191.750357 
" clip-path="url(#p3e6433bcfa)" style="fill: none; stroke: #cccccc; stroke-width: 0.8; stroke-linecap: round"/>
     </g>
     <g id="text_12">
      <!-- 40 -->
      <g style="fill: #262626" transform="translate(30.676563 196.045045)scale(0.12 -0.12)">
       <use xlink:href="#ArialMT-34"/>
       <use xlink:href="#ArialMT-30" x="55.615234"/>
      </g>
     </g>
    </g>
    <g id="ytick_4">
     <g id="line2d_12">
      <path d="M 51.022813 164.321786 
L 385.822812 164.321786 
" clip-path="url(#p3e6433bcfa)" style="fill: none; stroke: #cccccc; stroke-width: 0.8; stroke-linecap: round"/>
     </g>
     <g id="text_13">
      <!-- 60 -->
      <g style="fill: #262626" transform="translate(30.676563 168.616473)scale(0.12 -0.12)">
       <use xlink:href="#ArialMT-36"/>
       <use xlink:href="#ArialMT-30" x="55.615234"/>
      </g>
     </g>
    </g>
    <g id="ytick_5">
     <g id="line2d_13">
      <path d="M 51.022813 136.893214 
L 385.822812 136.893214 
" clip-path="url(#p3e6433bcfa)" style="fill: none; stroke: #cccccc; stroke-width: 0.8; stroke-linecap: round"/>
     </g>
     <g id="text_14">
      <!-- 80 -->
      <g style="fill: #262626" transform="translate(30.676563 141.187902)scale(0.12 -0.12)">
       <use xlink:href="#ArialMT-38"/>
       <use xlink:href="#ArialMT-30" x="55.615234"/>
      </g>
     </g>
    </g>
    <g id="ytick_6">
     <g id="line2d_14">
      <path d="M 51.022813 109.464643 
L 385.822812 109.464643 
" clip-path="url(#p3e6433bcfa)" style="fill: none; stroke: #cccccc; stroke-width: 0.8; stroke-linecap: round"/>
     </g>
     <g id="text_15">
      <!-- 100 -->
      <g style="fill: #262626" transform="translate(24.003438 113.75933)scale(0.12 -0.12)">
       <use xlink:href="#ArialMT-31"/>
       <use xlink:href="#ArialMT-30" x="55.615234"/>
       <use xlink:href="#ArialMT-30" x="111.230469"/>
      </g>
     </g>
    </g>
    <g id="ytick_7">
     <g id="line2d_15">
      <path d="M 51.022813 82.036071 
L 385.822812 82.036071 
" clip-path="url(#p3e6433bcfa)" style="fill: none; stroke: #cccccc; stroke-width: 0.8; stroke-linecap: round"/>
     </g>
     <g id="text_16">
      <!-- 120 -->
      <g style="fill: #262626" transform="translate(24.003438 86.330759)scale(0.12 -0.12)">
       <use xlink:href="#ArialMT-31"/>
       <use xlink:href="#ArialMT-32" x="55.615234"/>
       <use xlink:href="#ArialMT-30" x="111.230469"/>
      </g>
     </g>
    </g>
    <g id="ytick_8">
     <g id="line2d_16">
      <path d="M 51.022813 54.6075 
L 385.822812 54.6075 
" clip-path="url(#p3e6433bcfa)" style="fill: none; stroke: #cccccc; stroke-width: 0.8; stroke-linecap: round"/>
     </g>
     <g id="text_17">
      <!-- 140 -->
      <g style="fill: #262626" transform="translate(24.003438 58.902187)scale(0.12 -0.12)">
       <use xlink:href="#ArialMT-31"/>
       <use xlink:href="#ArialMT-34" x="55.615234"/>
       <use xlink:href="#ArialMT-30" x="111.230469"/>
      </g>
     </g>
    </g>
    <g id="ytick_9">
     <g id="line2d_17">
      <path d="M 51.022813 27.178929 
L 385.822812 27.178929 
" clip-path="url(#p3e6433bcfa)" style="fill: none; stroke: #cccccc; stroke-width: 0.8; stroke-linecap: round"/>
     </g>
     <g id="text_18">
      <!-- 160 -->
      <g style="fill: #262626" transform="translate(24.003438 31.473616)scale(0.12 -0.12)">
       <use xlink:href="#ArialMT-31"/>
       <use xlink:href="#ArialMT-36" x="55.615234"/>
       <use xlink:href="#ArialMT-30" x="111.230469"/>
      </g>
     </g>
    </g>
    <g id="text_19">
     <!-- Count -->
     <g style="fill: #262626" transform="translate(17.220937 154.405469)rotate(-90)scale(0.14 -0.14)">
      <defs>
       <path id="ArialMT-43" d="M 3763 1606 
L 4369 1453 
Q 4178 706 3683 314 
Q 3188 -78 2472 -78 
Q 1731 -78 1267 223 
Q 803 525 561 1097 
Q 319 1669 319 2325 
Q 319 3041 592 3573 
Q 866 4106 1370 4382 
Q 1875 4659 2481 4659 
Q 3169 4659 3637 4309 
Q 4106 3959 4291 3325 
L 3694 3184 
Q 3534 3684 3231 3912 
Q 2928 4141 2469 4141 
Q 1941 4141 1586 3887 
Q 1231 3634 1087 3207 
Q 944 2781 944 2328 
Q 944 1744 1114 1308 
Q 1284 872 1643 656 
Q 2003 441 2422 441 
Q 2931 441 3284 734 
Q 3638 1028 3763 1606 
z
" transform="scale(0.015625)"/>
       <path id="ArialMT-75" d="M 2597 0 
L 2597 488 
Q 2209 -75 1544 -75 
Q 1250 -75 995 37 
Q 741 150 617 320 
Q 494 491 444 738 
Q 409 903 409 1263 
L 409 3319 
L 972 3319 
L 972 1478 
Q 972 1038 1006 884 
Q 1059 663 1231 536 
Q 1403 409 1656 409 
Q 1909 409 2131 539 
Q 2353 669 2445 892 
Q 2538 1116 2538 1541 
L 2538 3319 
L 3100 3319 
L 3100 0 
L 2597 0 
z
" transform="scale(0.015625)"/>
       <path id="ArialMT-6e" d="M 422 0 
L 422 3319 
L 928 3319 
L 928 2847 
Q 1294 3394 1984 3394 
Q 2284 3394 2536 3286 
Q 2788 3178 2913 3003 
Q 3038 2828 3088 2588 
Q 3119 2431 3119 2041 
L 3119 0 
L 2556 0 
L 2556 2019 
Q 2556 2363 2490 2533 
Q 2425 2703 2258 2804 
Q 2091 2906 1866 2906 
Q 1506 2906 1245 2678 
Q 984 2450 984 1813 
L 984 0 
L 422 0 
z
" transform="scale(0.015625)"/>
       <path id="ArialMT-74" d="M 1650 503 
L 1731 6 
Q 1494 -44 1306 -44 
Q 1000 -44 831 53 
Q 663 150 594 308 
Q 525 466 525 972 
L 525 2881 
L 113 2881 
L 113 3319 
L 525 3319 
L 525 4141 
L 1084 4478 
L 1084 3319 
L 1650 3319 
L 1650 2881 
L 1084 2881 
L 1084 941 
Q 1084 700 1114 631 
Q 1144 563 1211 522 
Q 1278 481 1403 481 
Q 1497 481 1650 503 
z
" transform="scale(0.015625)"/>
      </defs>
      <use xlink:href="#ArialMT-43"/>
      <use xlink:href="#ArialMT-6f" x="72.216797"/>
      <use xlink:href="#ArialMT-75" x="127.832031"/>
      <use xlink:href="#ArialMT-6e" x="183.447266"/>
      <use xlink:href="#ArialMT-74" x="239.0625"/>
     </g>
    </g>
   </g>
   <g id="patch_3">
    <path d="M 66.240994 246.6075 
L 81.459176 246.6075 
L 81.459176 245.236071 
L 66.240994 245.236071 
z
" clip-path="url(#p3e6433bcfa)" style="fill: #fc8d62; fill-opacity: 0.5; stroke: #ffffff; stroke-linejoin: miter"/>
   </g>
   <g id="patch_4">
    <path d="M 81.459176 246.6075 
L 96.677358 246.6075 
L 96.677358 246.6075 
L 81.459176 246.6075 
z
" clip-path="url(#p3e6433bcfa)" style="fill: #fc8d62; fill-opacity: 0.5; stroke: #ffffff; stroke-linejoin: miter"/>
   </g>
   <g id="patch_5">
    <path d="M 96.677358 246.6075 
L 111.89554 246.6075 
L 111.89554 246.6075 
L 96.677358 246.6075 
z
" clip-path="url(#p3e6433bcfa)" style="fill: #fc8d62; fill-opacity: 0.5; stroke: #ffffff; stroke-linejoin: miter"/>
   </g>
   <g id="patch_6">
    <path d="M 111.89554 246.6075 
L 127.113722 246.6075 
L 127.113722 241.121786 
L 111.89554 241.121786 
z
" clip-path="url(#p3e6433bcfa)" style="fill: #fc8d62; fill-opacity: 0.5; stroke: #ffffff; stroke-linejoin: miter"/>
   </g>
   <g id="patch_7">
    <path d="M 127.113722 246.6075 
L 142.331903 246.6075 
L 142.331903 228.778929 
L 127.113722 228.778929 
z
" clip-path="url(#p3e6433bcfa)" style="fill: #fc8d62; fill-opacity: 0.5; stroke: #ffffff; stroke-linejoin: miter"/>
   </g>
   <g id="patch_8">
    <path d="M 142.331903 246.6075 
L 157.550085 246.6075 
L 157.550085 219.178929 
L 142.331903 219.178929 
z
" clip-path="url(#p3e6433bcfa)" style="fill: #fc8d62; fill-opacity: 0.5; stroke: #ffffff; stroke-linejoin: miter"/>
   </g>
   <g id="patch_9">
    <path d="M 157.550085 246.6075 
L 172.768267 246.6075 
L 172.768267 219.178929 
L 157.550085 219.178929 
z
" clip-path="url(#p3e6433bcfa)" style="fill: #fc8d62; fill-opacity: 0.5; stroke: #ffffff; stroke-linejoin: miter"/>
   </g>
   <g id="patch_10">
    <path d="M 172.768267 246.6075 
L 187.986449 246.6075 
L 187.986449 209.578929 
L 172.768267 209.578929 
z
" clip-path="url(#p3e6433bcfa)" style="fill: #fc8d62; fill-opacity: 0.5; stroke: #ffffff; stroke-linejoin: miter"/>
   </g>
   <g id="patch_11">
    <path d="M 187.986449 246.6075 
L 203.204631 246.6075 
L 203.204631 195.864643 
L 187.986449 195.864643 
z
" clip-path="url(#p3e6433bcfa)" style="fill: #fc8d62; fill-opacity: 0.5; stroke: #ffffff; stroke-linejoin: miter"/>
   </g>
   <g id="patch_12">
    <path d="M 203.204631 246.6075 
L 218.422812 246.6075 
L 218.422812 167.064643 
L 203.204631 167.064643 
z
" clip-path="url(#p3e6433bcfa)" style="fill: #fc8d62; fill-opacity: 0.5; stroke: #ffffff; stroke-linejoin: miter"/>
   </g>
   <g id="patch_13">
    <path d="M 218.422812 246.6075 
L 233.640994 246.6075 
L 233.640994 110.836071 
L 218.422812 110.836071 
z
" clip-path="url(#p3e6433bcfa)" style="fill: #fc8d62; fill-opacity: 0.5; stroke: #ffffff; stroke-linejoin: miter"/>
   </g>
   <g id="patch_14">
    <path d="M 233.640994 246.6075 
L 248.859176 246.6075 
L 248.859176 94.378929 
L 233.640994 94.378929 
z
" clip-path="url(#p3e6433bcfa)" style="fill: #fc8d62; fill-opacity: 0.5; stroke: #ffffff; stroke-linejoin: miter"/>
   </g>
   <g id="patch_15">
    <path d="M 248.859176 246.6075 
L 264.077358 246.6075 
L 264.077358 47.750357 
L 248.859176 47.750357 
z
" clip-path="url(#p3e6433bcfa)" style="fill: #fc8d62; fill-opacity: 0.5; stroke: #ffffff; stroke-linejoin: miter"/>
   </g>
   <g id="patch_16">
    <path d="M 264.077358 246.6075 
L 279.29554 246.6075 
L 279.29554 60.093214 
L 264.077358 60.093214 
z
" clip-path="url(#p3e6433bcfa)" style="fill: #fc8d62; fill-opacity: 0.5; stroke: #ffffff; stroke-linejoin: miter"/>
   </g>
   <g id="patch_17">
    <path d="M 279.29554 246.6075 
L 294.513722 246.6075 
L 294.513722 35.4075 
L 279.29554 35.4075 
z
" clip-path="url(#p3e6433bcfa)" style="fill: #fc8d62; fill-opacity: 0.5; stroke: #ffffff; stroke-linejoin: miter"/>
   </g>
   <g id="patch_18">
    <path d="M 294.513722 246.6075 
L 309.731903 246.6075 
L 309.731903 91.636071 
L 294.513722 91.636071 
z
" clip-path="url(#p3e6433bcfa)" style="fill: #fc8d62; fill-opacity: 0.5; stroke: #ffffff; stroke-linejoin: miter"/>
   </g>
   <g id="patch_19">
    <path d="M 309.731903 246.6075 
L 324.950085 246.6075 
L 324.950085 119.064643 
L 309.731903 119.064643 
z
" clip-path="url(#p3e6433bcfa)" style="fill: #fc8d62; fill-opacity: 0.5; stroke: #ffffff; stroke-linejoin: miter"/>
   </g>
   <g id="patch_20">
    <path d="M 324.950085 246.6075 
L 340.168267 246.6075 
L 340.168267 187.636071 
L 324.950085 187.636071 
z
" clip-path="url(#p3e6433bcfa)" style="fill: #fc8d62; fill-opacity: 0.5; stroke: #ffffff; stroke-linejoin: miter"/>
   </g>
   <g id="patch_21">
    <path d="M 340.168267 246.6075 
L 355.386449 246.6075 
L 355.386449 193.121786 
L 340.168267 193.121786 
z
" clip-path="url(#p3e6433bcfa)" style="fill: #fc8d62; fill-opacity: 0.5; stroke: #ffffff; stroke-linejoin: miter"/>
   </g>
   <g id="patch_22">
    <path d="M 355.386449 246.6075 
L 370.604631 246.6075 
L 370.604631 226.036071 
L 355.386449 226.036071 
z
" clip-path="url(#p3e6433bcfa)" style="fill: #fc8d62; fill-opacity: 0.5; stroke: #ffffff; stroke-linejoin: miter"/>
   </g>
   <g id="line2d_18">
    <path d="M 66.240994 245.906066 
L 73.888322 246.036581 
L 89.182977 246.426302 
L 95.300839 246.301222 
L 99.889236 245.965968 
L 102.948167 245.569763 
L 106.007098 244.994014 
L 109.066029 244.206826 
L 112.12496 243.186118 
L 115.183891 241.924351 
L 118.242822 240.430736 
L 121.301753 238.730729 
L 125.890149 235.882549 
L 139.655339 226.959685 
L 142.71427 225.271482 
L 145.773201 223.769932 
L 150.361597 221.832764 
L 162.597321 217.10779 
L 167.185718 214.965031 
L 171.774114 212.50484 
L 176.362511 209.69903 
L 179.421442 207.610534 
L 182.480373 205.321234 
L 185.539304 202.799159 
L 188.598235 199.995978 
L 191.657166 196.838757 
L 194.716097 193.227772 
L 197.775028 189.044683 
L 200.833959 184.170192 
L 203.89289 178.506105 
L 206.951821 171.996182 
L 210.010752 164.642907 
L 213.069683 156.520073 
L 216.128614 147.780902 
L 226.834873 116.185648 
L 229.893804 108.131207 
L 232.952735 100.923647 
L 236.011666 94.607122 
L 239.070597 89.106125 
L 242.129528 84.266611 
L 245.188459 79.912041 
L 248.24739 75.89086 
L 252.835786 70.265969 
L 258.953648 63.236219 
L 265.071511 56.542657 
L 268.130442 53.430394 
L 271.189373 50.728209 
L 272.718838 49.631489 
L 274.248304 48.767865 
L 275.777769 48.186502 
L 277.307235 47.933789 
L 278.8367 48.049874 
L 280.366166 48.565463 
L 281.895631 49.499259 
L 283.425097 50.856272 
L 284.954562 52.62721 
L 286.484028 54.788995 
L 288.013493 57.306371 
L 289.542959 60.134428 
L 292.60189 66.514315 
L 297.190286 77.111985 
L 310.955476 110.060584 
L 315.543872 121.98855 
L 320.132269 134.756502 
L 327.779596 156.322612 
L 330.838527 164.298156 
L 333.897458 171.621669 
L 336.956389 178.269904 
L 340.01532 184.345186 
L 344.603717 192.79513 
L 361.427838 222.731218 
L 364.486769 227.552084 
L 367.5457 231.848385 
L 370.604631 235.533147 
L 370.604631 235.533147 
" clip-path="url(#p3e6433bcfa)" style="fill: none; stroke: #fc8d62; stroke-width: 1.5; stroke-linecap: round"/>
   </g>
   <g id="patch_23">
    <path d="M 51.022813 246.6075 
L 51.022813 24.8475 
" style="fill: none; stroke: #cccccc; stroke-width: 0.8; stroke-linejoin: miter; stroke-linecap: square"/>
   </g>
   <g id="patch_24">
    <path d="M 385.822812 246.6075 
L 385.822812 24.8475 
" style="fill: none; stroke: #cccccc; stroke-width: 0.8; stroke-linejoin: miter; stroke-linecap: square"/>
   </g>
   <g id="patch_25">
    <path d="M 51.022812 246.6075 
L 385.822812 246.6075 
" style="fill: none; stroke: #cccccc; stroke-width: 0.8; stroke-linejoin: miter; stroke-linecap: square"/>
   </g>
   <g id="patch_26">
    <path d="M 51.022812 24.8475 
L 385.822812 24.8475 
" style="fill: none; stroke: #cccccc; stroke-width: 0.8; stroke-linejoin: miter; stroke-linecap: square"/>
   </g>
   <g id="text_20">
    <!-- logS Distribution -->
    <g style="fill: #262626" transform="translate(160.175313 18.8475)scale(0.16 -0.16)">
     <defs>
      <path id="ArialMT-20" transform="scale(0.015625)"/>
      <path id="ArialMT-44" d="M 494 0 
L 494 4581 
L 2072 4581 
Q 2606 4581 2888 4516 
Q 3281 4425 3559 4188 
Q 3922 3881 4101 3404 
Q 4281 2928 4281 2316 
Q 4281 1794 4159 1391 
Q 4038 988 3847 723 
Q 3656 459 3429 307 
Q 3203 156 2883 78 
Q 2563 0 2147 0 
L 494 0 
z
M 1100 541 
L 2078 541 
Q 2531 541 2789 625 
Q 3047 709 3200 863 
Q 3416 1078 3536 1442 
Q 3656 1806 3656 2325 
Q 3656 3044 3420 3430 
Q 3184 3816 2847 3947 
Q 2603 4041 2063 4041 
L 1100 4041 
L 1100 541 
z
" transform="scale(0.015625)"/>
      <path id="ArialMT-69" d="M 425 3934 
L 425 4581 
L 988 4581 
L 988 3934 
L 425 3934 
z
M 425 0 
L 425 3319 
L 988 3319 
L 988 0 
L 425 0 
z
" transform="scale(0.015625)"/>
      <path id="ArialMT-73" d="M 197 991 
L 753 1078 
Q 800 744 1014 566 
Q 1228 388 1613 388 
Q 2000 388 2187 545 
Q 2375 703 2375 916 
Q 2375 1106 2209 1216 
Q 2094 1291 1634 1406 
Q 1016 1563 777 1677 
Q 538 1791 414 1992 
Q 291 2194 291 2438 
Q 291 2659 392 2848 
Q 494 3038 669 3163 
Q 800 3259 1026 3326 
Q 1253 3394 1513 3394 
Q 1903 3394 2198 3281 
Q 2494 3169 2634 2976 
Q 2775 2784 2828 2463 
L 2278 2388 
Q 2241 2644 2061 2787 
Q 1881 2931 1553 2931 
Q 1166 2931 1000 2803 
Q 834 2675 834 2503 
Q 834 2394 903 2306 
Q 972 2216 1119 2156 
Q 1203 2125 1616 2013 
Q 2213 1853 2448 1751 
Q 2684 1650 2818 1456 
Q 2953 1263 2953 975 
Q 2953 694 2789 445 
Q 2625 197 2315 61 
Q 2006 -75 1616 -75 
Q 969 -75 630 194 
Q 291 463 197 991 
z
" transform="scale(0.015625)"/>
      <path id="ArialMT-72" d="M 416 0 
L 416 3319 
L 922 3319 
L 922 2816 
Q 1116 3169 1280 3281 
Q 1444 3394 1641 3394 
Q 1925 3394 2219 3213 
L 2025 2691 
Q 1819 2813 1613 2813 
Q 1428 2813 1281 2702 
Q 1134 2591 1072 2394 
Q 978 2094 978 1738 
L 978 0 
L 416 0 
z
" transform="scale(0.015625)"/>
      <path id="ArialMT-62" d="M 941 0 
L 419 0 
L 419 4581 
L 981 4581 
L 981 2947 
Q 1338 3394 1891 3394 
Q 2197 3394 2470 3270 
Q 2744 3147 2920 2923 
Q 3097 2700 3197 2384 
Q 3297 2069 3297 1709 
Q 3297 856 2875 390 
Q 2453 -75 1863 -75 
Q 1275 -75 941 416 
L 941 0 
z
M 934 1684 
Q 934 1088 1097 822 
Q 1363 388 1816 388 
Q 2184 388 2453 708 
Q 2722 1028 2722 1663 
Q 2722 2313 2464 2622 
Q 2206 2931 1841 2931 
Q 1472 2931 1203 2611 
Q 934 2291 934 1684 
z
" transform="scale(0.015625)"/>
     </defs>
     <use xlink:href="#ArialMT-6c"/>
     <use xlink:href="#ArialMT-6f" x="22.216797"/>
     <use xlink:href="#ArialMT-67" x="77.832031"/>
     <use xlink:href="#ArialMT-53" x="133.447266"/>
     <use xlink:href="#ArialMT-20" x="200.146484"/>
     <use xlink:href="#ArialMT-44" x="227.929688"/>
     <use xlink:href="#ArialMT-69" x="300.146484"/>
     <use xlink:href="#ArialMT-73" x="322.363281"/>
     <use xlink:href="#ArialMT-74" x="372.363281"/>
     <use xlink:href="#ArialMT-72" x="400.146484"/>
     <use xlink:href="#ArialMT-69" x="433.447266"/>
     <use xlink:href="#ArialMT-62" x="455.664062"/>
     <use xlink:href="#ArialMT-75" x="511.279297"/>
     <use xlink:href="#ArialMT-74" x="566.894531"/>
     <use xlink:href="#ArialMT-69" x="594.677734"/>
     <use xlink:href="#ArialMT-6f" x="616.894531"/>
     <use xlink:href="#ArialMT-6e" x="672.509766"/>
    </g>
   </g>
  </g>
 </g>
 <defs>
  <clipPath id="p3e6433bcfa">
   <rect x="51.022813" y="24.8475" width="334.8" height="221.76"/>
  </clipPath>
 </defs>
</svg>
