<?xml version="1.0" encoding="UTF-8" standalone="no"?>
<svg
   width="8.5in"
   height="11in"
   viewBox="0 0 612 792"
   version="1.1"
   id="svg82"
   sodipodi:docname="ChemOnt_Figure27.svg"
   inkscape:version="1.4 (86a8ad7, 2024-10-11)"
   xmlns:inkscape="http://www.inkscape.org/namespaces/inkscape"
   xmlns:sodipodi="http://sodipodi.sourceforge.net/DTD/sodipodi-0.dtd"
   xmlns:xlink="http://www.w3.org/1999/xlink"
   xmlns="http://www.w3.org/2000/svg"
   xmlns:svg="http://www.w3.org/2000/svg"
   xmlns:rdf="http://www.w3.org/1999/02/22-rdf-syntax-ns#"
   xmlns:cc="http://creativecommons.org/ns#"
   xmlns:dc="http://purl.org/dc/elements/1.1/">
  <sodipodi:namedview
     id="namedview82"
     pagecolor="#ffffff"
     bordercolor="#000000"
     borderopacity="0.25"
     inkscape:showpageshadow="2"
     inkscape:pageopacity="0.0"
     inkscape:pagecheckerboard="0"
     inkscape:deskcolor="#d1d1d1"
     inkscape:document-units="pt"
     inkscape:zoom="1.0176936"
     inkscape:cx="528.64634"
     inkscape:cy="248.11004"
     inkscape:window-width="1920"
     inkscape:window-height="1009"
     inkscape:window-x="-8"
     inkscape:window-y="111"
     inkscape:window-maximized="1"
     inkscape:current-layer="svg82" />
  <metadata
     id="metadata1">
    <rdf:RDF>
      <cc:Work>
        <dc:type
           rdf:resource="http://purl.org/dc/dcmitype/StillImage" />
        <dc:date>2025-02-13T18:52:01.425296</dc:date>
        <dc:format>image/svg+xml</dc:format>
        <dc:creator>
          <cc:Agent>
            <dc:title>Matplotlib v3.10.0, https://matplotlib.org/</dc:title>
          </cc:Agent>
        </dc:creator>
      </cc:Work>
    </rdf:RDF>
  </metadata>
  <defs
     id="defs1">
    <rect
       x="731.06482"
       y="130.19636"
       width="8.3522191"
       height="17.195745"
       id="rect88" />
    <rect
       x="503.58968"
       y="106.61362"
       width="4.421763"
       height="46.182858"
       id="rect87" />
    <rect
       x="503.58968"
       y="103.17447"
       width="225.50991"
       height="28.987113"
       id="rect86" />
    <rect
       x="514.39843"
       y="74.187358"
       width="208.31417"
       height="31.443648"
       id="rect85" />
    <rect
       x="572.17853"
       y="80.945718"
       width="155.98552"
       height="29.529554"
       id="rect84" />
    <style
       type="text/css"
       id="style1">*{stroke-linejoin: round; stroke-linecap: butt}</style>
    <clipPath
       id="p8f8c771367-2">
      <rect
         x="0"
         y="0"
         width="720"
         height="432"
         id="rect82-3" />
    </clipPath>
    <clipPath
       id="clipPath1">
      <rect
         x="0"
         y="0"
         width="720"
         height="432"
         id="rect1" />
    </clipPath>
    <path
       id="FiraCode-Regular-31-7"
       d="M 3397,450 V 0 H 788 V 450 H 1900 V 3922 L 863,3292 624,3686 1969,4519 h 483 V 450 Z"
       transform="scale(0.015625)" />
    <rect
       x="514.39844"
       y="74.187355"
       width="254.00571"
       height="48.639392"
       id="rect85-7" />
    <rect
       x="514.39844"
       y="74.187355"
       width="243.68826"
       height="45.200243"
       id="rect85-3" />
    <rect
       x="514.39844"
       y="74.187355"
       width="243.68826"
       height="45.200245"
       id="rect85-3-8" />
    <rect
       x="514.39844"
       y="74.187355"
       width="396.593"
       height="53.86919"
       id="rect85-3-0" />
    <rect
       x="514.39844"
       y="74.187355"
       width="317.38431"
       height="71.239517"
       id="rect85-3-0-0" />
    <rect
       x="514.39844"
       y="74.187355"
       width="400.06706"
       height="45.531435"
       id="rect85-3-0-0-0" />
    <rect
       x="514.39844"
       y="74.187355"
       width="317.38431"
       height="71.239517"
       id="rect85-3-0-0-0-6" />
    <clipPath
       id="p693da5086e">
      <rect
         x="0"
         y="0"
         width="360"
         height="432"
         id="rect82-4" />
    </clipPath>
    <clipPath
       id="clipPath1-4">
      <rect
         x="0"
         y="0"
         width="360"
         height="432"
         id="rect1-6" />
    </clipPath>
    <clipPath
       id="clipPath2">
      <rect
         x="0"
         y="0"
         width="360"
         height="432"
         id="rect2" />
    </clipPath>
    <clipPath
       id="clipPath3">
      <rect
         x="0"
         y="0"
         width="360"
         height="432"
         id="rect3" />
    </clipPath>
    <clipPath
       id="clipPath4">
      <rect
         x="0"
         y="0"
         width="360"
         height="432"
         id="rect4" />
    </clipPath>
    <clipPath
       id="clipPath5">
      <rect
         x="0"
         y="0"
         width="360"
         height="432"
         id="rect5" />
    </clipPath>
    <clipPath
       id="clipPath6">
      <rect
         x="0"
         y="0"
         width="360"
         height="432"
         id="rect6" />
    </clipPath>
    <path
       id="C0_0_918d8db9b7"
       d="M 0,20 C 5.304062,20 10.391597,17.892674 14.142136,14.142136 17.892674,10.391597 20,5.304062 20,0 20,-5.304062 17.892674,-10.391597 14.142136,-14.142136 10.391597,-17.892674 5.304062,-20 0,-20 c -5.304062,0 -10.391597,2.107326 -14.142136,5.857864 C -17.892674,-10.391597 -20,-5.304062 -20,0 c 0,5.304062 2.107326,10.391597 5.857864,14.142136 C -10.391597,17.892674 -5.304062,20 0,20 Z" />
    <clipPath
       id="p693da5086e-6">
      <rect
         x="0"
         y="0"
         width="360"
         height="432"
         id="rect82-6" />
    </clipPath>
    <clipPath
       id="clipPath1-1">
      <rect
         x="0"
         y="0"
         width="360"
         height="432"
         id="rect1-8" />
    </clipPath>
    <clipPath
       id="clipPath2-4">
      <rect
         x="0"
         y="0"
         width="360"
         height="432"
         id="rect2-9" />
    </clipPath>
    <clipPath
       id="clipPath3-6">
      <rect
         x="0"
         y="0"
         width="360"
         height="432"
         id="rect3-3" />
    </clipPath>
    <clipPath
       id="clipPath4-7">
      <rect
         x="0"
         y="0"
         width="360"
         height="432"
         id="rect4-8" />
    </clipPath>
    <clipPath
       id="clipPath5-8">
      <rect
         x="0"
         y="0"
         width="360"
         height="432"
         id="rect5-2" />
    </clipPath>
    <clipPath
       id="clipPath6-9">
      <rect
         x="0"
         y="0"
         width="360"
         height="432"
         id="rect6-1" />
    </clipPath>
    <clipPath
       id="clipPath7">
      <rect
         x="0"
         y="0"
         width="360"
         height="432"
         id="rect7" />
    </clipPath>
    <clipPath
       id="clipPath8">
      <rect
         x="0"
         y="0"
         width="360"
         height="432"
         id="rect8" />
    </clipPath>
    <clipPath
       id="clipPath9">
      <rect
         x="0"
         y="0"
         width="360"
         height="432"
         id="rect9" />
    </clipPath>
    <clipPath
       id="clipPath10">
      <rect
         x="0"
         y="0"
         width="360"
         height="432"
         id="rect10" />
    </clipPath>
    <clipPath
       id="clipPath11">
      <rect
         x="0"
         y="0"
         width="360"
         height="432"
         id="rect11" />
    </clipPath>
    <clipPath
       id="clipPath12">
      <rect
         x="0"
         y="0"
         width="360"
         height="432"
         id="rect12" />
    </clipPath>
    <clipPath
       id="clipPath13">
      <rect
         x="0"
         y="0"
         width="360"
         height="432"
         id="rect13" />
    </clipPath>
    <clipPath
       id="clipPath14">
      <rect
         x="0"
         y="0"
         width="360"
         height="432"
         id="rect14" />
    </clipPath>
    <clipPath
       id="clipPath15">
      <rect
         x="0"
         y="0"
         width="360"
         height="432"
         id="rect15" />
    </clipPath>
    <clipPath
       id="clipPath16">
      <rect
         x="0"
         y="0"
         width="360"
         height="432"
         id="rect16" />
    </clipPath>
    <clipPath
       id="clipPath17">
      <rect
         x="0"
         y="0"
         width="360"
         height="432"
         id="rect17" />
    </clipPath>
    <clipPath
       id="clipPath18">
      <rect
         x="0"
         y="0"
         width="360"
         height="432"
         id="rect18" />
    </clipPath>
    <clipPath
       id="clipPath19">
      <rect
         x="0"
         y="0"
         width="360"
         height="432"
         id="rect19" />
    </clipPath>
    <path
       id="C0_0_918d8db9b7-3"
       d="M 0,20 C 5.304062,20 10.391597,17.892674 14.142136,14.142136 17.892674,10.391597 20,5.304062 20,0 20,-5.304062 17.892674,-10.391597 14.142136,-14.142136 10.391597,-17.892674 5.304062,-20 0,-20 c -5.304062,0 -10.391597,2.107326 -14.142136,5.857864 C -17.892674,-10.391597 -20,-5.304062 -20,0 c 0,5.304062 2.107326,10.391597 5.857864,14.142136 C -10.391597,17.892674 -5.304062,20 0,20 Z" />
    <path
       id="FiraCode-Regular-31"
       d="M 3397,450 V 0 H 788 V 450 H 1900 V 3922 L 863,3292 624,3686 1969,4519 h 483 V 450 Z"
       transform="scale(0.015625)" />
    <path
       id="FiraCode-Regular-32"
       d="m 1769,4592 q 427,0 732,-166 305,-166 467,-452 163,-285 163,-643 0,-312 -108,-609 Q 2915,2425 2677,2098 2439,1772 2051,1375 1664,978 1106,469 H 3236 L 3167,0 H 479 v 450 q 640,613 1045,1036 406,424 629,731 223,307 310,563 87,256 87,532 0,380 -213,600 -213,220 -594,220 -335,0 -549,-115 -213,-115 -426,-367 l -381,295 q 269,328 596,487 327,160 786,160 z"
       transform="scale(0.015625)" />
    <path
       id="FiraCode-Regular-33"
       d="m 1763,4592 q 426,0 738,-155 312,-154 481,-410 169,-256 169,-564 0,-276 -122,-498 -121,-221 -321,-366 -200,-144 -440,-190 266,-20 500,-150 235,-129 381,-369 146,-239 146,-587 0,-391 -197,-704 Q 2901,286 2548,105 2196,-75 1726,-75 1346,-75 971,69 597,213 338,528 l 371,302 q 194,-226 461,-338 268,-111 543,-111 473,0 739,247 266,248 266,675 0,482 -268,669 -267,188 -668,188 h -381 l 69,436 h 266 q 220,0 415,85 196,86 320,260 125,174 125,443 0,374 -250,571 -249,197 -603,197 -296,0 -516,-104 -219,-103 -443,-313 l -305,338 q 289,272 614,395 325,124 670,124 z"
       transform="scale(0.015625)" />
    <path
       id="FiraCode-Regular-34"
       d="M 2885,2823 V 1539 h 584 V 1099 H 2885 V 0 h -532 l -3,1099 H 473 v 401 L 1799,4592 2258,4398 1057,1539 h 1296 l 72,1284 z"
       transform="scale(0.015625)" />
    <path
       id="FiraCode-Regular-35"
       d="m 3197,4519 -82,-439 H 1329 V 2655 q 207,108 392,151 186,43 389,43 552,0 893,-371 341,-371 341,-1047 0,-453 -189,-791 Q 2967,302 2624,113 2281,-75 1815,-75 1408,-75 1088,69 768,213 505,469 l 342,329 q 404,-417 975,-417 446,0 695,270 250,271 250,796 0,365 -109,575 -108,210 -294,300 -185,90 -411,90 -200,0 -355,-39 -154,-39 -351,-112 H 804 v 2258 z"
       transform="scale(0.015625)" />
    <path
       id="FiraCode-Regular-36"
       d="m 2202,4592 q 260,0 481,-68 222,-67 412,-195 l -217,-374 q -315,190 -686,190 -521,0 -810,-492 -289,-492 -309,-1319 217,321 487,465 271,145 603,145 348,0 640,-156 292,-156 466,-471 174,-315 174,-797 0,-499 -192,-857 Q 3059,305 2735,115 2412,-75 2022,-75 1474,-75 1144,197 814,469 668,966 522,1464 522,2137 q 0,748 198,1299 199,552 576,854 378,302 906,302 z M 2078,2491 q -325,0 -578,-177 -253,-177 -420,-463 16,-765 237,-1123 222,-357 702,-357 429,0 644,303 215,304 215,832 0,555 -220,770 -219,215 -580,215 z"
       transform="scale(0.015625)" />
    <path
       id="FiraCode-Regular-37"
       d="M 1513,-62 998,95 2760,4060 H 640 v 459 h 2675 v -423 z"
       transform="scale(0.015625)" />
  </defs>
  <rect
     style="fill:#ededed;fill-opacity:0.62;stroke:none;stroke-width:2.07846;stroke-linecap:butt;stroke-linejoin:round;stroke-dasharray:8.31388, 16.6275;stroke-opacity:0.996078"
     id="rect263"
     width="466.93024"
     height="297.44958"
     x="90.787094"
     y="16.196018"
     ry="5.378088" />
  <g
     id="figure_1"
     transform="matrix(0.52231605,0,0,0.52231605,86.491521,52.282612)">
    <g
       id="patch_1">
      <path
         d="M 0,432 H 720 V 0 H 0 Z"
         style="fill:none"
         id="path1" />
    </g>
    <g
       id="axes_1">
      <g
         id="g96"
         transform="translate(-273.72381,28.218949)">
        <text
           xml:space="preserve"
           transform="matrix(1.4359122,0,0,1.4359122,-430.87679,-92.942645)"
           id="text84"
           style="font-style:normal;font-variant:normal;font-weight:normal;font-stretch:normal;font-size:16px;line-height:2.05;font-family:'Fira Code';-inkscape-font-specification:'Fira Code, Normal';font-variant-ligatures:normal;font-variant-caps:normal;font-variant-numeric:normal;font-variant-east-asian:normal;text-align:start;writing-mode:lr-tb;direction:ltr;white-space:pre;shape-inside:url(#rect85);display:inline;fill:#000000;stroke:none;stroke-width:6.66667;stroke-dasharray:13.3333, 13.3333;stroke-dashoffset:4.66667"><tspan
             x="514.39844"
             y="94.5875"
             id="tspan3">1) Chemical entities</tspan></text>
        <text
           xml:space="preserve"
           transform="matrix(1.4359122,0,0,1.4359122,-429.85177,-26.101842)"
           id="text84-1"
           style="font-style:normal;font-variant:normal;font-weight:normal;font-stretch:normal;font-size:16px;line-height:2.05;font-family:'Fira Code';-inkscape-font-specification:'Fira Code, Normal';font-variant-ligatures:normal;font-variant-caps:normal;font-variant-numeric:normal;font-variant-east-asian:normal;text-align:start;writing-mode:lr-tb;direction:ltr;white-space:pre;shape-inside:url(#rect85-3);display:inline;fill:#000000;stroke:none;stroke-width:6.66667;stroke-linecap:butt;stroke-linejoin:round;stroke-dasharray:13.3333, 13.3333;stroke-dashoffset:4.66667"><tspan
             x="514.39844"
             y="94.5875"
             id="tspan4">3) Inorganic compounds</tspan></text>
        <text
           xml:space="preserve"
           transform="matrix(1.4359122,0,0,1.4359122,-430.33483,8.1668525)"
           id="text84-1-2"
           style="font-style:normal;font-variant:normal;font-weight:normal;font-stretch:normal;font-size:16px;line-height:2.05;font-family:'Fira Code';-inkscape-font-specification:'Fira Code, Normal';font-variant-ligatures:normal;font-variant-caps:normal;font-variant-numeric:normal;font-variant-east-asian:normal;text-align:start;writing-mode:lr-tb;direction:ltr;white-space:pre;shape-inside:url(#rect85-3-0);display:inline;fill:#000000;stroke:none;stroke-width:6.66667;stroke-linecap:butt;stroke-linejoin:round;stroke-dasharray:13.3333, 13.3333;stroke-dashoffset:4.66667"><tspan
             x="514.39844"
             y="94.5875"
             id="tspan5">4) Nucleosides, nucleotides, &amp; analogues</tspan></text>
        <text
           xml:space="preserve"
           transform="matrix(1.4359122,0,0,1.4359122,-430.45264,42.435547)"
           id="text84-1-2-2"
           style="font-style:normal;font-variant:normal;font-weight:normal;font-stretch:normal;font-size:16px;line-height:2.05;font-family:'Fira Code';-inkscape-font-specification:'Fira Code, Normal';font-variant-ligatures:normal;font-variant-caps:normal;font-variant-numeric:normal;font-variant-east-asian:normal;text-align:start;writing-mode:lr-tb;direction:ltr;white-space:pre;shape-inside:url(#rect85-3-0-0);display:inline;fill:#000000;stroke:none;stroke-width:6.66667;stroke-linecap:butt;stroke-linejoin:round;stroke-dasharray:13.3333, 13.3333;stroke-dashoffset:4.66667"><tspan
             x="514.39844"
             y="94.5875"
             id="tspan6">5) Lipids &amp; lipid-like molecules</tspan></text>
        <text
           xml:space="preserve"
           transform="matrix(1.4359122,0,0,1.4359122,-430.51155,76.704241)"
           id="text84-1-2-2-9"
           style="font-style:normal;font-variant:normal;font-weight:normal;font-stretch:normal;font-size:16px;line-height:2.05;font-family:'Fira Code';-inkscape-font-specification:'Fira Code, Normal';font-variant-ligatures:normal;font-variant-caps:normal;font-variant-numeric:normal;font-variant-east-asian:normal;text-align:start;writing-mode:lr-tb;direction:ltr;white-space:pre;shape-inside:url(#rect85-3-0-0-0);display:inline;fill:#000000;stroke:none;stroke-width:6.66667;stroke-linecap:butt;stroke-linejoin:round;stroke-dasharray:13.3333, 13.3333;stroke-dashoffset:4.66667"><tspan
             x="514.39844"
             y="94.5875"
             id="tspan7">6) Mixed metal/non-metal compounds</tspan></text>
        <text
           xml:space="preserve"
           transform="matrix(1.4359122,0,0,1.4359122,-430.9357,110.97294)"
           id="text84-1-2-2-9-1"
           style="font-style:normal;font-variant:normal;font-weight:normal;font-stretch:normal;font-size:16px;line-height:2.05;font-family:'Fira Code';-inkscape-font-specification:'Fira Code, Normal';font-variant-ligatures:normal;font-variant-caps:normal;font-variant-numeric:normal;font-variant-east-asian:normal;text-align:start;writing-mode:lr-tb;direction:ltr;white-space:pre;shape-inside:url(#rect85-3-0-0-0-6);display:inline;fill:#000000;stroke:none;stroke-width:6.66667;stroke-linecap:butt;stroke-linejoin:round;stroke-dasharray:13.3333, 13.3333;stroke-dashoffset:4.66667"><tspan
             x="514.39844"
             y="94.5875"
             id="tspan8">7) Homogenous metal compounds</tspan></text>
        <text
           xml:space="preserve"
           transform="matrix(1.4359122,0,0,1.4359122,-430.0285,-60.370536)"
           id="text84-1-6"
           style="font-style:normal;font-variant:normal;font-weight:normal;font-stretch:normal;font-size:16px;line-height:2.05;font-family:'Fira Code';-inkscape-font-specification:'Fira Code, Normal';font-variant-ligatures:normal;font-variant-caps:normal;font-variant-numeric:normal;font-variant-east-asian:normal;text-align:start;writing-mode:lr-tb;direction:ltr;white-space:pre;shape-inside:url(#rect85-3-8);display:inline;fill:#000000;stroke:none;stroke-width:6.66667;stroke-linecap:butt;stroke-linejoin:round;stroke-dasharray:13.3333, 13.3333;stroke-dashoffset:4.66667"><tspan
             x="514.39844"
             y="94.5875"
             id="tspan9">2) Organic compounds</tspan></text>
      </g>
      <text
         xml:space="preserve"
         transform="matrix(1.4359122,0,0,1.4359122,-165.59231,-100.09766)"
         id="text85"
         style="font-style:normal;font-variant:normal;font-weight:normal;font-stretch:normal;font-size:16px;line-height:2.05;font-family:'Fira Code';-inkscape-font-specification:'Fira Code, Normal';font-variant-ligatures:normal;font-variant-caps:normal;font-variant-numeric:normal;font-variant-east-asian:normal;text-align:start;writing-mode:lr-tb;direction:ltr;white-space:pre;shape-inside:url(#rect86);display:inline;fill:#000000;stroke:none;stroke-width:6.66667;stroke-dasharray:13.3333, 13.3333;stroke-dashoffset:4.66667"><tspan
           x="503.58984"
           y="152.56211"
           id="tspan11"><tspan
             dx="0 9.8461609"
             id="tspan10">2)</tspan></tspan></text>
      <text
         xml:space="preserve"
         transform="matrix(1.4359122,0,0,1.4359122,-165.59231,-100.09766)"
         id="text86"
         style="font-style:normal;font-variant:normal;font-weight:normal;font-stretch:normal;font-size:16px;line-height:2.05;font-family:'Fira Code';-inkscape-font-specification:'Fira Code, Normal';font-variant-ligatures:normal;font-variant-caps:normal;font-variant-numeric:normal;font-variant-east-asian:normal;text-align:start;writing-mode:lr-tb;direction:ltr;white-space:pre;shape-inside:url(#rect87);display:inline;fill:#000000;stroke:none;stroke-width:6.66667;stroke-dasharray:13.3333, 13.3333;stroke-dashoffset:4.66667" />
      <text
         xml:space="preserve"
         transform="matrix(1.4359122,0,0,1.4359122,-165.59231,-100.09766)"
         id="text87"
         style="font-style:normal;font-variant:normal;font-weight:normal;font-stretch:normal;font-size:16px;line-height:2.05;font-family:'Fira Code';-inkscape-font-specification:'Fira Code, Normal';font-variant-ligatures:normal;font-variant-caps:normal;font-variant-numeric:normal;font-variant-east-asian:normal;text-align:start;writing-mode:lr-tb;direction:ltr;white-space:pre;shape-inside:url(#rect88);display:inline;fill:#000000;stroke:none;stroke-width:6.66667;stroke-dasharray:13.3333, 13.3333;stroke-dashoffset:4.66667" />
      <g
         id="g95"
         transform="translate(485.36593,-16.93137)">
        <g
           id="LineCollection_1"
           style="stroke-linecap:butt;stroke-linejoin:round"
           transform="matrix(1.0726176,0,0,1.0726176,18.635357,30.417743)">
          <path
             d="M 180,37.487603 130.41322,216"
             clip-path="url(#p693da5086e-6)"
             style="fill:none;stroke:#4c9ee0;stroke-width:16;stroke-linecap:butt;stroke-linejoin:round"
             id="path2" />
          <path
             d="M 180,37.487603 229.58678,216"
             clip-path="url(#p693da5086e-6)"
             style="fill:none;stroke:#4c9ee0;stroke-width:16;stroke-linecap:butt;stroke-linejoin:round"
             id="path3" />
          <path
             d="M 130.41322,216 31.239669,394.5124"
             clip-path="url(#p693da5086e-6)"
             style="fill:none;stroke:#4c9ee0;stroke-width:16;stroke-linecap:butt;stroke-linejoin:round"
             id="path4" />
          <path
             d="M 130.41322,216 V 394.5124"
             clip-path="url(#p693da5086e-6)"
             style="fill:none;stroke:#4c9ee0;stroke-width:16;stroke-linecap:butt;stroke-linejoin:round"
             id="path5" />
          <path
             d="M 229.58678,216 V 394.5124"
             clip-path="url(#p693da5086e-6)"
             style="fill:none;stroke:#4c9ee0;stroke-width:16;stroke-linecap:butt;stroke-linejoin:round"
             id="path6" />
          <path
             d="m 229.58678,216 99.17355,178.5124"
             clip-path="url(#p693da5086e-6)"
             style="fill:none;stroke:#4c9ee0;stroke-width:16;stroke-linecap:butt;stroke-linejoin:round"
             id="path7" />
        </g>
        <g
           id="PathCollection_1"
           style="stroke-linecap:butt;stroke-linejoin:round"
           transform="matrix(1.0726176,0,0,1.0726176,18.635357,30.417743)">
          <defs
             id="defs7">
            <path
               id="path88"
               d="M 0,20 C 5.304062,20 10.391597,17.892674 14.142136,14.142136 17.892674,10.391597 20,5.304062 20,0 20,-5.304062 17.892674,-10.391597 14.142136,-14.142136 10.391597,-17.892674 5.304062,-20 0,-20 c -5.304062,0 -10.391597,2.107326 -14.142136,5.857864 C -17.892674,-10.391597 -20,-5.304062 -20,0 c 0,5.304062 2.107326,10.391597 5.857864,14.142136 C -10.391597,17.892674 -5.304062,20 0,20 Z" />
          </defs>
          <g
             clip-path="url(#p693da5086e-6)"
             id="g7"
             style="stroke-linecap:butt;stroke-linejoin:round">
            <use
               xlink:href="#C0_0_918d8db9b7-3"
               x="180"
               y="37.487602"
               style="fill:#fdd123;stroke:#fdd123;stroke-linecap:butt;stroke-linejoin:round"
               id="use7" />
          </g>
          <g
             clip-path="url(#p693da5086e-6)"
             id="g8"
             style="stroke-linecap:butt;stroke-linejoin:round">
            <use
               xlink:href="#C0_0_918d8db9b7-3"
               x="130.41322"
               y="216"
               style="fill:#fdd123;stroke:#fdd123;stroke-linecap:butt;stroke-linejoin:round"
               id="use8" />
          </g>
          <g
             clip-path="url(#p693da5086e-6)"
             id="g9"
             style="stroke-linecap:butt;stroke-linejoin:round">
            <use
               xlink:href="#C0_0_918d8db9b7-3"
               x="229.58678"
               y="216"
               style="fill:#fdd123;stroke:#fdd123;stroke-linecap:butt;stroke-linejoin:round"
               id="use9" />
          </g>
          <g
             clip-path="url(#p693da5086e-6)"
             id="g10"
             style="stroke-linecap:butt;stroke-linejoin:round">
            <use
               xlink:href="#C0_0_918d8db9b7-3"
               x="31.23967"
               y="394.51239"
               style="fill:#fdd123;stroke:#fdd123;stroke-linecap:butt;stroke-linejoin:round"
               id="use10" />
          </g>
          <g
             clip-path="url(#p693da5086e-6)"
             id="g11"
             style="stroke-linecap:butt;stroke-linejoin:round">
            <use
               xlink:href="#C0_0_918d8db9b7-3"
               x="130.41322"
               y="394.51239"
               style="fill:#fdd123;stroke:#fdd123;stroke-linecap:butt;stroke-linejoin:round"
               id="use11" />
          </g>
          <g
             clip-path="url(#p693da5086e-6)"
             id="g12"
             style="stroke-linecap:butt;stroke-linejoin:round">
            <use
               xlink:href="#C0_0_918d8db9b7-3"
               x="229.58678"
               y="394.51239"
               style="fill:#fdd123;stroke:#fdd123;stroke-linecap:butt;stroke-linejoin:round"
               id="use12" />
          </g>
          <g
             clip-path="url(#p693da5086e-6)"
             id="g13"
             style="stroke-linecap:butt;stroke-linejoin:round">
            <use
               xlink:href="#C0_0_918d8db9b7-3"
               x="328.76035"
               y="394.51239"
               style="fill:#fdd123;stroke:#fdd123;stroke-linecap:butt;stroke-linejoin:round"
               id="use13" />
          </g>
        </g>
        <g
           id="text_1"
           style="stroke-linecap:butt;stroke-linejoin:round"
           transform="matrix(1.0726176,0,0,1.0726176,18.635357,30.417743)">
          <g
             clip-path="url(#p693da5086e-6)"
             id="g15"
             style="stroke-linecap:butt;stroke-linejoin:round">
            <!-- 1 -->
            <g
               transform="matrix(0.12,0,0,-0.12,176.30719,40.727603)"
               id="g14"
               style="stroke-linecap:butt;stroke-linejoin:round">
              <defs
                 id="defs13">
                <path
                   id="path89"
                   d="M 3397,450 V 0 H 788 V 450 H 1900 V 3922 L 863,3292 624,3686 1969,4519 h 483 V 450 Z"
                   transform="scale(0.015625)" />
              </defs>
              <use
                 xlink:href="#FiraCode-Regular-31"
                 id="use14"
                 style="stroke-linecap:butt;stroke-linejoin:round" />
            </g>
          </g>
        </g>
        <g
           id="text_2"
           style="stroke-linecap:butt;stroke-linejoin:round"
           transform="matrix(1.0726176,0,0,1.0726176,18.635357,30.417743)">
          <g
             clip-path="url(#p693da5086e-6)"
             id="g17"
             style="stroke-linecap:butt;stroke-linejoin:round">
            <!-- 2 -->
            <g
               transform="matrix(0.12,0,0,-0.12,126.72041,219.24)"
               id="g16"
               style="stroke-linecap:butt;stroke-linejoin:round">
              <defs
                 id="defs15">
                <path
                   id="path90"
                   d="m 1769,4592 q 427,0 732,-166 305,-166 467,-452 163,-285 163,-643 0,-312 -108,-609 Q 2915,2425 2677,2098 2439,1772 2051,1375 1664,978 1106,469 H 3236 L 3167,0 H 479 v 450 q 640,613 1045,1036 406,424 629,731 223,307 310,563 87,256 87,532 0,380 -213,600 -213,220 -594,220 -335,0 -549,-115 -213,-115 -426,-367 l -381,295 q 269,328 596,487 327,160 786,160 z"
                   transform="scale(0.015625)" />
              </defs>
              <use
                 xlink:href="#FiraCode-Regular-32"
                 id="use15"
                 style="stroke-linecap:butt;stroke-linejoin:round" />
            </g>
          </g>
        </g>
        <g
           id="text_3"
           style="stroke-linecap:butt;stroke-linejoin:round"
           transform="matrix(1.0726176,0,0,1.0726176,18.635357,30.417743)">
          <g
             clip-path="url(#p693da5086e-6)"
             id="g20"
             style="stroke-linecap:butt;stroke-linejoin:round">
            <!-- 3 -->
            <g
               transform="matrix(0.12,0,0,-0.12,225.89396,219.24)"
               id="g18"
               style="stroke-linecap:butt;stroke-linejoin:round">
              <defs
                 id="defs17">
                <path
                   id="path91"
                   d="m 1763,4592 q 426,0 738,-155 312,-154 481,-410 169,-256 169,-564 0,-276 -122,-498 -121,-221 -321,-366 -200,-144 -440,-190 266,-20 500,-150 235,-129 381,-369 146,-239 146,-587 0,-391 -197,-704 Q 2901,286 2548,105 2196,-75 1726,-75 1346,-75 971,69 597,213 338,528 l 371,302 q 194,-226 461,-338 268,-111 543,-111 473,0 739,247 266,248 266,675 0,482 -268,669 -267,188 -668,188 h -381 l 69,436 h 266 q 220,0 415,85 196,86 320,260 125,174 125,443 0,374 -250,571 -249,197 -603,197 -296,0 -516,-104 -219,-103 -443,-313 l -305,338 q 289,272 614,395 325,124 670,124 z"
                   transform="scale(0.015625)" />
              </defs>
              <use
                 xlink:href="#FiraCode-Regular-33"
                 id="use17"
                 style="stroke-linecap:butt;stroke-linejoin:round" />
            </g>
          </g>
        </g>
        <g
           id="text_4"
           style="stroke-linecap:butt;stroke-linejoin:round"
           transform="matrix(1.0726176,0,0,1.0726176,18.635357,30.417743)">
          <g
             clip-path="url(#p693da5086e-6)"
             id="g22"
             style="stroke-linecap:butt;stroke-linejoin:round">
            <!-- 4 -->
            <g
               transform="matrix(0.12,0,0,-0.12,27.546857,397.7524)"
               id="g21"
               style="stroke-linecap:butt;stroke-linejoin:round">
              <defs
                 id="defs19">
                <path
                   id="path92"
                   d="M 2885,2823 V 1539 h 584 V 1099 H 2885 V 0 h -532 l -3,1099 H 473 v 401 L 1799,4592 2258,4398 1057,1539 h 1296 l 72,1284 z"
                   transform="scale(0.015625)" />
              </defs>
              <use
                 xlink:href="#FiraCode-Regular-34"
                 id="use19"
                 style="stroke-linecap:butt;stroke-linejoin:round" />
            </g>
          </g>
        </g>
        <g
           id="text_5"
           style="stroke-linecap:butt;stroke-linejoin:round"
           transform="matrix(1.0726176,0,0,1.0726176,18.635357,30.417743)">
          <g
             clip-path="url(#p693da5086e-6)"
             id="g24"
             style="stroke-linecap:butt;stroke-linejoin:round">
            <!-- 5 -->
            <g
               transform="matrix(0.12,0,0,-0.12,126.72041,397.7524)"
               id="g23"
               style="stroke-linecap:butt;stroke-linejoin:round">
              <defs
                 id="defs21">
                <path
                   id="path93"
                   d="m 3197,4519 -82,-439 H 1329 V 2655 q 207,108 392,151 186,43 389,43 552,0 893,-371 341,-371 341,-1047 0,-453 -189,-791 Q 2967,302 2624,113 2281,-75 1815,-75 1408,-75 1088,69 768,213 505,469 l 342,329 q 404,-417 975,-417 446,0 695,270 250,271 250,796 0,365 -109,575 -108,210 -294,300 -185,90 -411,90 -200,0 -355,-39 -154,-39 -351,-112 H 804 v 2258 z"
                   transform="scale(0.015625)" />
              </defs>
              <use
                 xlink:href="#FiraCode-Regular-35"
                 id="use21"
                 style="stroke-linecap:butt;stroke-linejoin:round" />
            </g>
          </g>
        </g>
        <g
           id="text_6"
           style="stroke-linecap:butt;stroke-linejoin:round"
           transform="matrix(1.0726176,0,0,1.0726176,18.635357,30.417743)">
          <g
             clip-path="url(#p693da5086e-6)"
             id="g26"
             style="stroke-linecap:butt;stroke-linejoin:round">
            <!-- 6 -->
            <g
               transform="matrix(0.12,0,0,-0.12,225.89396,397.7524)"
               id="g25"
               style="stroke-linecap:butt;stroke-linejoin:round">
              <defs
                 id="defs23">
                <path
                   id="path94"
                   d="m 2202,4592 q 260,0 481,-68 222,-67 412,-195 l -217,-374 q -315,190 -686,190 -521,0 -810,-492 -289,-492 -309,-1319 217,321 487,465 271,145 603,145 348,0 640,-156 292,-156 466,-471 174,-315 174,-797 0,-499 -192,-857 Q 3059,305 2735,115 2412,-75 2022,-75 1474,-75 1144,197 814,469 668,966 522,1464 522,2137 q 0,748 198,1299 199,552 576,854 378,302 906,302 z M 2078,2491 q -325,0 -578,-177 -253,-177 -420,-463 16,-765 237,-1123 222,-357 702,-357 429,0 644,303 215,304 215,832 0,555 -220,770 -219,215 -580,215 z"
                   transform="scale(0.015625)" />
              </defs>
              <use
                 xlink:href="#FiraCode-Regular-36"
                 id="use23"
                 style="stroke-linecap:butt;stroke-linejoin:round" />
            </g>
          </g>
        </g>
        <g
           id="text_7"
           style="stroke-linecap:butt;stroke-linejoin:round"
           transform="matrix(1.0726176,0,0,1.0726176,18.635357,30.417743)">
          <g
             clip-path="url(#p693da5086e-6)"
             id="g28"
             style="stroke-linecap:butt;stroke-linejoin:round">
            <!-- 7 -->
            <g
               transform="matrix(0.12,0,0,-0.12,325.06752,397.7524)"
               id="g27"
               style="stroke-linecap:butt;stroke-linejoin:round">
              <defs
                 id="defs25">
                <path
                   id="path95"
                   d="M 1513,-62 998,95 2760,4060 H 640 v 459 h 2675 v -423 z"
                   transform="scale(0.015625)" />
              </defs>
              <use
                 xlink:href="#FiraCode-Regular-37"
                 id="use25"
                 style="stroke-linecap:butt;stroke-linejoin:round" />
            </g>
          </g>
        </g>
      </g>
      <g
         id="text_9"
         style="stroke-linecap:butt;stroke-linejoin:round"
         transform="matrix(1.0726176,0,0,1.0726176,18.635357,30.417743)">
        <!--   6 edges (Edge) -->
      </g>
    </g>
  </g>
  <defs
     id="defs82">
    <clipPath
       id="p8f8c771367">
      <rect
         x="0"
         y="0"
         width="720"
         height="432"
         id="rect82" />
    </clipPath>
  </defs>
  <text
     xml:space="preserve"
     style="font-style:normal;font-variant:normal;font-weight:normal;font-stretch:normal;font-size:20px;line-height:2.05;font-family:'Fira Code';-inkscape-font-specification:'Fira Code, Normal';font-variant-ligatures:normal;font-variant-caps:normal;font-variant-numeric:normal;font-variant-east-asian:normal;text-align:start;writing-mode:lr-tb;direction:ltr;text-anchor:start;fill:#000000;stroke:none;stroke-width:5;stroke-linecap:butt;stroke-linejoin:round;stroke-dasharray:9.99998, 9.99998;stroke-dashoffset:3.5"
     x="105.01686"
     y="42.375229"
     id="text82"><tspan
       sodipodi:role="line"
       id="tspan82"
       style="font-style:normal;font-variant:normal;font-weight:normal;font-stretch:normal;font-size:20px;font-family:'Fira Code';-inkscape-font-specification:'Fira Code, Normal';font-variant-ligatures:normal;font-variant-caps:normal;font-variant-numeric:normal;font-variant-east-asian:normal;fill:#000000;stroke:none;stroke-width:5"
       x="105.01686"
       y="42.375229">Chemical Ontology</tspan></text>
  <g
     id="g83"
     transform="translate(-304.15256,187.57782)">
    <text
       xml:space="preserve"
       style="font-style:normal;font-variant:normal;font-weight:normal;font-stretch:normal;font-size:12px;line-height:2.05;font-family:'Fira Code';-inkscape-font-specification:'Fira Code, Normal';font-variant-ligatures:normal;font-variant-caps:normal;font-variant-numeric:normal;font-variant-east-asian:normal;text-align:start;writing-mode:lr-tb;direction:ltr;text-anchor:start;fill:#000000;stroke:none;stroke-width:5;stroke-linecap:butt;stroke-linejoin:round;stroke-dasharray:9.99998, 9.99998;stroke-dashoffset:3.5"
       x="410.487"
       y="88.435257"
       id="text83"><tspan
         sodipodi:role="line"
         id="tspan83"
         style="font-style:normal;font-variant:normal;font-weight:normal;font-stretch:normal;font-size:12px;font-family:'Fira Code';-inkscape-font-specification:'Fira Code, Normal';font-variant-ligatures:normal;font-variant-caps:normal;font-variant-numeric:normal;font-variant-east-asian:normal;stroke-width:5"
         x="410.487"
         y="88.435257">7 nodes</tspan></text>
    <text
       xml:space="preserve"
       style="font-style:normal;font-variant:normal;font-weight:normal;font-stretch:normal;font-size:12px;line-height:2.05;font-family:'Fira Code';-inkscape-font-specification:'Fira Code, Normal';font-variant-ligatures:normal;font-variant-caps:normal;font-variant-numeric:normal;font-variant-east-asian:normal;text-align:start;writing-mode:lr-tb;direction:ltr;text-anchor:start;fill:#000000;stroke:none;stroke-width:5;stroke-linecap:butt;stroke-linejoin:round;stroke-dasharray:9.99998, 9.99998;stroke-dashoffset:3.5"
       x="410.60217"
       y="99.759834"
       id="text83-4"><tspan
         sodipodi:role="line"
         id="tspan83-3"
         style="font-style:normal;font-variant:normal;font-weight:normal;font-stretch:normal;font-size:12px;font-family:'Fira Code';-inkscape-font-specification:'Fira Code, Normal';font-variant-ligatures:normal;font-variant-caps:normal;font-variant-numeric:normal;font-variant-east-asian:normal;stroke-width:5"
         x="410.60217"
         y="99.759834">6 edges</tspan></text>
  </g>
</svg>
